STARTFONT 2.1
COMMENT Strike 1 of a Newton 'sfnt' font (bloc/bdat): tools/fonts/newtonsfnt.py,
COMMENT tools/fonts/README.md.  The builder reads the BLOC_* properties and the
COMMENT glyphs - STARTCHAR gN (N the glyph id; otherwise ENCODING through 'cmap'),
COMMENT DWIDTH (the advance), BBX (width, height, the bearing x, the bottom row's
COMMENT y: bearing y less the height) and the BITMAP rows.  A glyph id in the
COMMENT subtable ranges with no glyph here has no image (the missing glyph is 0).
COMMENT The other properties, SIZE, FONTBOUNDINGBOX and SWIDTH are worked out and
COMMENT not read back: change BLOC_HORI_* (the line metrics the ROM draws text by)
COMMENT to match an edit that changes the strike's extent.
FONT -Apple-Roman Regular-Medium-R-Normal--12-120-72-72-P-0-Apple-Roman
SIZE 12 72 72
FONTBOUNDINGBOX 17 18 -3 -4
STARTPROPERTIES 37
FONT_ASCENT 14
FONT_DESCENT 5
PIXEL_SIZE 12
FAMILY_NAME "Roman Regular"
BLOC_COLOR_REF 0
BLOC_HORI_ASCENDER 14
BLOC_HORI_DESCENDER -5
BLOC_HORI_WIDTH_MAX 15
BLOC_HORI_CARET_SLOPE_NUMERATOR 0
BLOC_HORI_CARET_SLOPE_DENOMINATOR 1
BLOC_HORI_CARET_OFFSET 0
BLOC_HORI_MIN_ORIGIN_SB -3
BLOC_HORI_MIN_ADVANCE_SB -2
BLOC_HORI_MAX_BEFORE_BL 14
BLOC_HORI_MIN_AFTER_BL -4
BLOC_HORI_PAD1 0
BLOC_HORI_PAD2 0
BLOC_VERT_ASCENDER 0
BLOC_VERT_DESCENDER -1
BLOC_VERT_WIDTH_MAX 18
BLOC_VERT_CARET_SLOPE_NUMERATOR 0
BLOC_VERT_CARET_SLOPE_DENOMINATOR 1
BLOC_VERT_CARET_OFFSET 0
BLOC_VERT_MIN_ORIGIN_SB 48
BLOC_VERT_MIN_ADVANCE_SB 88
BLOC_VERT_MAX_BEFORE_BL 0
BLOC_VERT_MIN_AFTER_BL -11
BLOC_VERT_PAD1 0
BLOC_VERT_PAD2 0
BLOC_START_GLYPH 0
BLOC_END_GLYPH 257
BLOC_PPEM_X 12
BLOC_PPEM_Y 12
BLOC_BIT_DEPTH 1
BLOC_FLAGS 1
BLOC_INDEX_SUBTABLES 1
BLOC_INDEX_SUBTABLE_0 "0 257 3 1 0"
ENDPROPERTIES
CHARS 244
STARTCHAR g0
ENCODING -1
SWIDTH 917 0
DWIDTH 11 0
BBX 9 11 1 0
BITMAP
FF80
8080
8080
8080
8080
8080
8080
8080
8080
8080
FF80
ENDCHAR
STARTCHAR g1
ENCODING 0
SWIDTH 0 0
DWIDTH 0 0
BBX 0 0 0 0
BITMAP
ENDCHAR
STARTCHAR g2
ENCODING 1
SWIDTH 333 0
DWIDTH 4 0
BBX 0 0 0 0
BITMAP
ENDCHAR
STARTCHAR g3
ENCODING 2
SWIDTH 417 0
DWIDTH 5 0
BBX 4 12 0 0
BITMAP
20
70
70
70
60
60
60
60
00
40
E0
60
ENDCHAR
STARTCHAR g4
ENCODING 3
SWIDTH 583 0
DWIDTH 7 0
BBX 5 5 1 6
BITMAP
48
D8
D8
D8
50
ENDCHAR
STARTCHAR g5
ENCODING 4
SWIDTH 750 0
DWIDTH 9 0
BBX 7 11 1 1
BITMAP
04
2C
6E
7C
EC
6C
FE
6C
6C
6C
60
ENDCHAR
STARTCHAR g6
ENCODING 5
SWIDTH 667 0
DWIDTH 8 0
BBX 7 14 0 -2
BITMAP
18
18
3C
7E
62
70
38
1C
0E
C6
FE
7C
30
30
ENDCHAR
STARTCHAR g7
ENCODING 6
SWIDTH 917 0
DWIDTH 11 0
BBX 11 13 0 -2
BITMAP
7040
F8E0
CFC0
DF80
FB00
7600
0D80
1BC0
3EC0
77C0
6380
C000
C000
ENDCHAR
STARTCHAR g8
ENCODING 7
SWIDTH 917 0
DWIDTH 11 0
BBX 9 11 0 0
BITMAP
3C00
7E00
6600
7000
3180
6700
E780
E180
F380
7F00
3E00
ENDCHAR
STARTCHAR g9
ENCODING 8
SWIDTH 333 0
DWIDTH 4 0
BBX 2 5 1 6
BITMAP
40
C0
C0
C0
80
ENDCHAR
STARTCHAR g10
ENCODING 9
SWIDTH 500 0
DWIDTH 6 0
BBX 4 13 1 -2
BITMAP
30
70
60
C0
C0
C0
C0
C0
C0
E0
60
70
30
ENDCHAR
STARTCHAR g11
ENCODING 10
SWIDTH 500 0
DWIDTH 6 0
BBX 4 13 1 -1
BITMAP
C0
E0
60
70
30
30
30
30
30
30
60
E0
C0
ENDCHAR
STARTCHAR g12
ENCODING 11
SWIDTH 750 0
DWIDTH 9 0
BBX 8 7 0 5
BITMAP
18
DB
FF
3C
3C
66
66
ENDCHAR
STARTCHAR g13
ENCODING 12
SWIDTH 750 0
DWIDTH 9 0
BBX 8 8 0 1
BITMAP
18
18
18
FF
FF
18
18
18
ENDCHAR
STARTCHAR g14
ENCODING 44
SWIDTH 333 0
DWIDTH 4 0
BBX 2 4 1 -2
BITMAP
C0
C0
40
80
ENDCHAR
STARTCHAR g15
ENCODING 45
SWIDTH 667 0
DWIDTH 8 0
BBX 6 2 1 3
BITMAP
FC
FC
ENDCHAR
STARTCHAR g16
ENCODING 46
SWIDTH 333 0
DWIDTH 4 0
BBX 2 2 1 0
BITMAP
C0
C0
ENDCHAR
STARTCHAR g17
ENCODING 47
SWIDTH 583 0
DWIDTH 7 0
BBX 6 12 0 -1
BITMAP
0C
0C
18
18
30
30
30
60
60
60
C0
C0
ENDCHAR
STARTCHAR g18
ENCODING 48
SWIDTH 750 0
DWIDTH 9 0
BBX 7 9 1 0
BITMAP
38
7C
EC
CE
C6
C6
EE
7C
38
ENDCHAR
STARTCHAR g19
ENCODING 49
SWIDTH 750 0
DWIDTH 9 0
BBX 4 10 2 0
BITMAP
30
70
F0
30
30
30
30
30
30
30
ENDCHAR
STARTCHAR g20
ENCODING 50
SWIDTH 750 0
DWIDTH 9 0
BBX 8 10 0 0
BITMAP
38
7E
6F
07
0E
1C
38
70
FE
7F
ENDCHAR
STARTCHAR g21
ENCODING 51
SWIDTH 750 0
DWIDTH 9 0
BBX 7 11 1 -1
BITMAP
78
FC
8C
1C
3C
3E
06
06
2E
7C
38
ENDCHAR
STARTCHAR g22
ENCODING 52
SWIDTH 750 0
DWIDTH 9 0
BBX 8 11 0 -2
BITMAP
06
36
36
76
66
FF
7F
0C
0C
0C
0C
ENDCHAR
STARTCHAR g23
ENCODING 53
SWIDTH 750 0
DWIDTH 9 0
BBX 7 11 1 -2
BITMAP
1E
FE
E0
C0
FC
FE
06
06
0E
FC
78
ENDCHAR
STARTCHAR g24
ENCODING 54
SWIDTH 750 0
DWIDTH 9 0
BBX 8 11 1 0
BITMAP
30
70
60
E0
CE
FF
E7
C3
F7
7E
3C
ENDCHAR
STARTCHAR g25
ENCODING 55
SWIDTH 750 0
DWIDTH 9 0
BBX 8 12 1 -2
BITMAP
07
7F
FE
CC
0C
1C
18
18
38
30
30
30
ENDCHAR
STARTCHAR g26
ENCODING 56
SWIDTH 750 0
DWIDTH 9 0
BBX 7 11 1 0
BITMAP
1C
3E
66
66
7C
3C
6E
E6
CE
FC
78
ENDCHAR
STARTCHAR g27
ENCODING 57
SWIDTH 750 0
DWIDTH 9 0
BBX 8 12 1 -2
BITMAP
38
7E
E7
C3
CF
FE
76
0E
0C
1C
18
18
ENDCHAR
STARTCHAR g28
ENCODING 58
SWIDTH 417 0
DWIDTH 5 0
BBX 2 7 2 0
BITMAP
C0
C0
00
00
00
C0
C0
ENDCHAR
STARTCHAR g29
ENCODING 59
SWIDTH 333 0
DWIDTH 4 0
BBX 2 9 1 -2
BITMAP
C0
C0
00
00
00
C0
C0
40
80
ENDCHAR
STARTCHAR g30
ENCODING 60
SWIDTH 583 0
DWIDTH 7 0
BBX 5 7 1 1
BITMAP
18
38
70
E0
70
38
18
ENDCHAR
STARTCHAR g31
ENCODING 61
SWIDTH 917 0
DWIDTH 11 0
BBX 8 5 1 2
BITMAP
7F
7F
00
FE
FE
ENDCHAR
STARTCHAR g32
ENCODING 62
SWIDTH 583 0
DWIDTH 7 0
BBX 5 7 1 1
BITMAP
40
E0
70
38
70
E0
40
ENDCHAR
STARTCHAR g33
ENCODING 63
SWIDTH 667 0
DWIDTH 8 0
BBX 7 12 0 -1
BITMAP
3C
7E
EE
46
0E
1C
38
30
18
00
18
18
ENDCHAR
STARTCHAR g34
ENCODING 64
SWIDTH 1000 0
DWIDTH 12 0
BBX 10 12 1 -1
BITMAP
0F00
3F80
71C0
64C0
DF40
DB40
DB40
DFC0
ED80
7000
7C00
1E80
ENDCHAR
STARTCHAR g35
ENCODING 65
SWIDTH 917 0
DWIDTH 11 0
BBX 10 12 1 -1
BITMAP
0C00
1C00
1E00
3600
3700
7300
6300
7FC0
FF80
C180
C180
0080
ENDCHAR
STARTCHAR g36
ENCODING 66
SWIDTH 750 0
DWIDTH 9 0
BBX 8 12 0 -1
BITMAP
3C
7E
E7
63
6E
7C
7E
67
63
7E
7C
60
ENDCHAR
STARTCHAR g37
ENCODING 67
SWIDTH 750 0
DWIDTH 9 0
BBX 7 12 1 -1
BITMAP
1C
7E
66
E6
C0
C0
C0
C0
C6
EE
7C
38
ENDCHAR
STARTCHAR g38
ENCODING 68
SWIDTH 750 0
DWIDTH 9 0
BBX 8 11 0 0
BITMAP
3C
FE
C7
63
63
63
63
63
67
7E
78
ENDCHAR
STARTCHAR g39
ENCODING 69
SWIDTH 667 0
DWIDTH 8 0
BBX 7 12 0 0
BITMAP
0E
3E
F8
E0
64
7C
F8
E0
60
66
7E
7C
ENDCHAR
STARTCHAR g40
ENCODING 70
SWIDTH 667 0
DWIDTH 8 0
BBX 7 12 0 0
BITMAP
0E
3E
F8
E0
60
7C
FC
E0
60
60
60
60
ENDCHAR
STARTCHAR g41
ENCODING 71
SWIDTH 750 0
DWIDTH 9 0
BBX 9 11 0 0
BITMAP
1E00
7F00
7300
E000
C180
CF80
CF00
E300
7700
7E00
3C00
ENDCHAR
STARTCHAR g42
ENCODING 72
SWIDTH 750 0
DWIDTH 9 0
BBX 8 13 0 -1
BITMAP
03
63
63
63
63
7F
FF
E3
63
63
63
63
60
ENDCHAR
STARTCHAR g43
ENCODING 73
SWIDTH 500 0
DWIDTH 6 0
BBX 4 12 1 -1
BITMAP
30
F0
E0
60
60
60
60
60
60
70
F0
C0
ENDCHAR
STARTCHAR g44
ENCODING 74
SWIDTH 583 0
DWIDTH 7 0
BBX 6 12 0 -1
BITMAP
04
0C
0C
0C
0C
0C
0C
0C
CC
DC
F8
70
ENDCHAR
STARTCHAR g45
ENCODING 75
SWIDTH 750 0
DWIDTH 9 0
BBX 8 12 0 0
BITMAP
20
63
67
6E
FC
F8
7C
6E
66
E7
C3
C3
ENDCHAR
STARTCHAR g46
ENCODING 76
SWIDTH 583 0
DWIDTH 7 0
BBX 7 11 0 0
BITMAP
60
60
60
60
60
60
60
60
C0
FE
7C
ENDCHAR
STARTCHAR g47
ENCODING 77
SWIDTH 1000 0
DWIDTH 12 0
BBX 10 13 1 -1
BITMAP
0100
4380
E380
F780
F7C0
FDC0
DCC0
DCC0
CCC0
C8C0
C0C0
C0C0
0080
ENDCHAR
STARTCHAR g48
ENCODING 78
SWIDTH 833 0
DWIDTH 10 0
BBX 9 13 1 -1
BITMAP
0180
4180
E180
E380
F380
DB00
DF00
CF00
C700
C700
C300
C200
8000
ENDCHAR
STARTCHAR g49
ENCODING 79
SWIDTH 833 0
DWIDTH 10 0
BBX 8 11 1 0
BITMAP
1C
7E
66
E7
C3
C3
C3
C7
E6
7E
3C
ENDCHAR
STARTCHAR g50
ENCODING 80
SWIDTH 667 0
DWIDTH 8 0
BBX 8 11 0 0
BITMAP
7C
7E
67
63
67
7E
FC
60
60
60
60
ENDCHAR
STARTCHAR g51
ENCODING 81
SWIDTH 833 0
DWIDTH 10 0
BBX 8 13 1 -2
BITMAP
1C
7E
66
E7
C3
C3
DB
DB
6E
7E
3C
0F
07
ENDCHAR
STARTCHAR g52
ENCODING 82
SWIDTH 750 0
DWIDTH 9 0
BBX 9 12 0 -1
BITMAP
3C00
FE00
E700
6300
6700
6E00
FC00
EE00
6700
6380
6100
4000
ENDCHAR
STARTCHAR g53
ENCODING 83
SWIDTH 750 0
DWIDTH 9 0
BBX 8 11 0 0
BITMAP
1E
3F
73
60
7C
3E
07
C3
E7
7E
3C
ENDCHAR
STARTCHAR g54
ENCODING 84
SWIDTH 667 0
DWIDTH 8 0
BBX 8 12 0 -1
BITMAP
1F
FE
F8
18
18
18
18
18
18
18
18
10
ENDCHAR
STARTCHAR g55
ENCODING 85
SWIDTH 750 0
DWIDTH 9 0
BBX 8 12 1 -1
BITMAP
60
66
E6
C6
C6
C6
C6
C6
CE
EF
7B
30
ENDCHAR
STARTCHAR g56
ENCODING 86
SWIDTH 833 0
DWIDTH 10 0
BBX 8 12 1 -1
BITMAP
C0
C3
C3
C7
C6
EE
6C
7C
78
38
38
30
ENDCHAR
STARTCHAR g57
ENCODING 87
SWIDTH 1083 0
DWIDTH 13 0
BBX 11 13 1 -1
BITMAP
0040
C060
C060
C460
EE60
6EE0
6EC0
7BC0
7BC0
3980
3180
3180
3000
ENDCHAR
STARTCHAR g58
ENCODING 88
SWIDTH 750 0
DWIDTH 9 0
BBX 9 11 0 0
BITMAP
C180
E380
7300
3E00
1E00
1C00
3E00
7600
6700
E300
C300
ENDCHAR
STARTCHAR g59
ENCODING 89
SWIDTH 750 0
DWIDTH 9 0
BBX 8 11 1 0
BITMAP
C3
C7
E6
6C
7C
38
38
30
30
30
30
ENDCHAR
STARTCHAR g60
ENCODING 90
SWIDTH 750 0
DWIDTH 9 0
BBX 9 11 0 0
BITMAP
7800
7F80
0F80
0300
0600
0E00
1C00
3800
3000
7F00
FF00
ENDCHAR
STARTCHAR g61
ENCODING 91
SWIDTH 417 0
DWIDTH 5 0
BBX 3 13 1 -2
BITMAP
E0
C0
C0
C0
C0
C0
C0
C0
C0
C0
C0
C0
E0
ENDCHAR
STARTCHAR g62
ENCODING 92
SWIDTH 583 0
DWIDTH 7 0
BBX 6 11 0 0
BITMAP
C0
C0
60
60
30
30
30
18
18
0C
0C
ENDCHAR
STARTCHAR g63
ENCODING 93
SWIDTH 417 0
DWIDTH 5 0
BBX 3 13 1 -2
BITMAP
E0
60
60
60
60
60
60
60
60
60
60
60
E0
ENDCHAR
STARTCHAR g64
ENCODING 94
SWIDTH 583 0
DWIDTH 7 0
BBX 6 6 0 4
BITMAP
30
30
78
78
CC
CC
ENDCHAR
STARTCHAR g65
ENCODING 95
SWIDTH 750 0
DWIDTH 9 0
BBX 9 2 0 -2
BITMAP
FF80
FF80
ENDCHAR
STARTCHAR g66
ENCODING 96
SWIDTH 417 0
DWIDTH 5 0
BBX 3 3 1 9
BITMAP
C0
C0
60
ENDCHAR
STARTCHAR g67
ENCODING 97
SWIDTH 583 0
DWIDTH 7 0
BBX 7 8 0 0
BITMAP
38
7C
EC
CC
CC
EC
FE
76
ENDCHAR
STARTCHAR g68
ENCODING 98
SWIDTH 583 0
DWIDTH 7 0
BBX 7 12 0 0
BITMAP
20
60
60
60
6C
7E
76
66
66
66
FE
DC
ENDCHAR
STARTCHAR g69
ENCODING 99
SWIDTH 583 0
DWIDTH 7 0
BBX 6 8 0 0
BITMAP
18
7C
6C
E0
C0
EC
FC
70
ENDCHAR
STARTCHAR g70
ENCODING 100
SWIDTH 667 0
DWIDTH 8 0
BBX 8 11 0 0
BITMAP
06
06
06
36
7E
EE
C6
C6
EE
7F
33
ENDCHAR
STARTCHAR g71
ENCODING 101
SWIDTH 583 0
DWIDTH 7 0
BBX 6 9 0 0
BITMAP
38
7C
EC
DC
F8
C0
EC
7C
38
ENDCHAR
STARTCHAR g72
ENCODING 102
SWIDTH 500 0
DWIDTH 6 0
BBX 6 11 0 0
BITMAP
38
7C
64
70
F8
E0
60
60
60
60
60
ENDCHAR
STARTCHAR g73
ENCODING 103
SWIDTH 667 0
DWIDTH 8 0
BBX 7 11 0 -3
BITMAP
3A
7E
EE
C6
EE
7E
76
06
6E
7C
38
ENDCHAR
STARTCHAR g74
ENCODING 104
SWIDTH 667 0
DWIDTH 8 0
BBX 7 13 0 -1
BITMAP
C0
C0
C0
C0
CC
DE
FE
E6
C6
C6
CC
CC
0C
ENDCHAR
STARTCHAR g75
ENCODING 105
SWIDTH 417 0
DWIDTH 5 0
BBX 3 12 0 0
BITMAP
60
E0
40
00
60
60
60
60
60
60
60
60
ENDCHAR
STARTCHAR g76
ENCODING 106
SWIDTH 417 0
DWIDTH 5 0
BBX 6 15 -3 -4
BITMAP
0C
1C
08
00
0C
0C
0C
0C
0C
0C
0C
0C
DC
F8
70
ENDCHAR
STARTCHAR g77
ENCODING 107
SWIDTH 583 0
DWIDTH 7 0
BBX 7 12 0 -1
BITMAP
C0
C0
C0
CC
DC
F8
F0
F8
DC
CE
C6
80
ENDCHAR
STARTCHAR g78
ENCODING 108
SWIDTH 333 0
DWIDTH 4 0
BBX 2 12 1 0
BITMAP
C0
C0
C0
C0
C0
C0
C0
C0
C0
C0
C0
C0
ENDCHAR
STARTCHAR g79
ENCODING 109
SWIDTH 917 0
DWIDTH 11 0
BBX 10 9 0 0
BITMAP
0380
B7C0
FEC0
ECC0
CCC0
CCC0
CCC0
C8C0
C080
ENDCHAR
STARTCHAR g80
ENCODING 110
SWIDTH 583 0
DWIDTH 7 0
BBX 6 9 0 0
BITMAP
40
D8
FC
EC
CC
CC
CC
CC
CC
ENDCHAR
STARTCHAR g81
ENCODING 111
SWIDTH 583 0
DWIDTH 7 0
BBX 6 8 0 0
BITMAP
38
7C
EC
CC
CC
DC
F8
70
ENDCHAR
STARTCHAR g82
ENCODING 112
SWIDTH 667 0
DWIDTH 8 0
BBX 7 11 0 -3
BITMAP
DC
FE
E6
C6
C6
CC
FC
D0
C0
C0
C0
ENDCHAR
STARTCHAR g83
ENCODING 113
SWIDTH 667 0
DWIDTH 8 0
BBX 7 12 0 -4
BITMAP
3C
7E
E6
CE
CC
FC
7C
0C
0C
0C
0E
06
ENDCHAR
STARTCHAR g84
ENCODING 114
SWIDTH 583 0
DWIDTH 7 0
BBX 6 8 1 0
BITMAP
38
FC
E8
C0
C0
C0
C0
C0
ENDCHAR
STARTCHAR g85
ENCODING 115
SWIDTH 583 0
DWIDTH 7 0
BBX 6 10 0 -1
BITMAP
38
7C
EC
C0
F0
78
1C
4C
7C
38
ENDCHAR
STARTCHAR g86
ENCODING 116
SWIDTH 500 0
DWIDTH 6 0
BBX 6 10 0 0
BITMAP
30
30
3C
F8
70
30
30
30
30
30
ENDCHAR
STARTCHAR g87
ENCODING 117
SWIDTH 667 0
DWIDTH 8 0
BBX 7 8 0 0
BITMAP
60
E6
C6
CE
CC
DC
FE
66
ENDCHAR
STARTCHAR g88
ENCODING 118
SWIDTH 667 0
DWIDTH 8 0
BBX 7 9 0 0
BITMAP
04
46
C6
EE
6C
7C
38
30
30
ENDCHAR
STARTCHAR g89
ENCODING 119
SWIDTH 833 0
DWIDTH 10 0
BBX 9 10 0 -1
BITMAP
4000
C980
CD80
DD80
DF00
7700
7700
7600
6200
2000
ENDCHAR
STARTCHAR g90
ENCODING 120
SWIDTH 583 0
DWIDTH 7 0
BBX 8 10 -1 -1
BITMAP
C0
66
76
3C
18
3C
36
66
63
03
ENDCHAR
STARTCHAR g91
ENCODING 121
SWIDTH 667 0
DWIDTH 8 0
BBX 7 13 0 -4
BITMAP
06
C6
CE
EC
6C
7C
38
18
30
30
60
60
60
ENDCHAR
STARTCHAR g92
ENCODING 122
SWIDTH 583 0
DWIDTH 7 0
BBX 7 9 0 -1
BITMAP
06
7E
7C
18
30
60
F0
FC
1C
ENDCHAR
STARTCHAR g93
ENCODING 123
SWIDTH 417 0
DWIDTH 5 0
BBX 5 13 0 -2
BITMAP
38
78
60
60
30
70
E0
70
30
60
60
78
38
ENDCHAR
STARTCHAR g94
ENCODING 124
SWIDTH 333 0
DWIDTH 4 0
BBX 2 13 1 -1
BITMAP
C0
C0
C0
C0
C0
C0
00
C0
C0
C0
C0
C0
C0
ENDCHAR
STARTCHAR g95
ENCODING 125
SWIDTH 417 0
DWIDTH 5 0
BBX 5 13 0 -2
BITMAP
E0
F0
30
30
60
70
38
70
60
30
30
F0
E0
ENDCHAR
STARTCHAR g96
ENCODING 126
SWIDTH 750 0
DWIDTH 9 0
BBX 7 2 1 4
BITMAP
76
DC
ENDCHAR
STARTCHAR g97
ENCODING 127
SWIDTH 750 0
DWIDTH 9 0
BBX 0 0 0 0
BITMAP
ENDCHAR
STARTCHAR g98
ENCODING 161
SWIDTH 333 0
DWIDTH 4 0
BBX 4 12 0 -4
BITMAP
30
70
20
00
60
60
60
E0
E0
E0
E0
40
ENDCHAR
STARTCHAR g99
ENCODING 162
SWIDTH 667 0
DWIDTH 8 0
BBX 7 11 1 0
BITMAP
18
18
3C
7A
D8
DA
DE
FC
78
18
18
ENDCHAR
STARTCHAR g100
ENCODING 163
SWIDTH 750 0
DWIDTH 9 0
BBX 8 11 1 0
BITMAP
06
0F
1C
18
18
7E
FC
30
62
FE
FC
ENDCHAR
STARTCHAR g101
ENCODING 164
SWIDTH 500 0
DWIDTH 6 0
BBX 6 6 0 2
BITMAP
CC
FC
48
48
FC
CC
ENDCHAR
STARTCHAR g102
ENCODING 165
SWIDTH 750 0
DWIDTH 9 0
BBX 8 14 1 -2
BITMAP
C0
C3
E7
6E
7C
38
3F
7E
78
1E
7E
78
18
10
ENDCHAR
STARTCHAR g103
ENCODING 167
SWIDTH 750 0
DWIDTH 9 0
BBX 8 14 0 -3
BITMAP
1C
3E
78
70
3E
1F
63
EE
E0
7C
3E
0E
3C
18
ENDCHAR
STARTCHAR g104
ENCODING 168
SWIDTH 500 0
DWIDTH 6 0
BBX 5 2 1 9
BITMAP
D8
D8
ENDCHAR
STARTCHAR g105
ENCODING 169
SWIDTH 917 0
DWIDTH 11 0
BBX 11 12 0 -1
BITMAP
0F00
3F80
71C0
6EC0
DE60
D860
D960
DE60
EEC0
71C0
3F80
1E00
ENDCHAR
STARTCHAR g106
ENCODING 170
SWIDTH 583 0
DWIDTH 7 0
BBX 5 9 1 2
BITMAP
30
78
D8
D8
F8
68
00
F8
F8
ENDCHAR
STARTCHAR g107
ENCODING 171
SWIDTH 750 0
DWIDTH 9 0
BBX 8 7 1 1
BITMAP
32
77
EE
DC
EE
76
30
ENDCHAR
STARTCHAR g108
ENCODING 172
SWIDTH 667 0
DWIDTH 8 0
BBX 6 4 1 1
BITMAP
FC
FC
0C
0C
ENDCHAR
STARTCHAR g109
ENCODING 174
SWIDTH 917 0
DWIDTH 11 0
BBX 10 11 1 0
BITMAP
1F00
7F80
6180
DEC0
DAC0
DCC0
DF80
DB00
6000
7F00
1C00
ENDCHAR
STARTCHAR g110
ENCODING 175
SWIDTH 667 0
DWIDTH 8 0
BBX 4 2 2 9
BITMAP
F0
F0
ENDCHAR
STARTCHAR g111
ENCODING 176
SWIDTH 583 0
DWIDTH 7 0
BBX 5 5 1 6
BITMAP
70
F8
D8
F8
70
ENDCHAR
STARTCHAR g112
ENCODING 177
SWIDTH 750 0
DWIDTH 9 0
BBX 7 9 1 -1
BITMAP
18
18
FE
FE
18
18
00
FE
FE
ENDCHAR
STARTCHAR g113
ENCODING 180
SWIDTH 333 0
DWIDTH 4 0
BBX 3 3 1 8
BITMAP
60
60
C0
ENDCHAR
STARTCHAR g114
ENCODING 181
SWIDTH 833 0
DWIDTH 10 0
BBX 9 11 1 -3
BITMAP
3180
3380
6300
6600
6600
6600
FF00
DF00
C000
C000
C000
ENDCHAR
STARTCHAR g115
ENCODING 182
SWIDTH 750 0
DWIDTH 9 0
BBX 8 13 1 -2
BITMAP
7F
FF
FA
FA
7A
3A
1A
1A
1A
1A
1A
1A
02
ENDCHAR
STARTCHAR g116
ENCODING 183
SWIDTH 250 0
DWIDTH 3 0
BBX 1 2 1 4
BITMAP
80
80
ENDCHAR
STARTCHAR g117
ENCODING 184
SWIDTH 667 0
DWIDTH 8 0
BBX 3 3 3 -3
BITMAP
C0
60
C0
ENDCHAR
STARTCHAR g118
ENCODING 186
SWIDTH 583 0
DWIDTH 7 0
BBX 5 9 1 2
BITMAP
30
78
D8
D8
F8
70
00
F8
F8
ENDCHAR
STARTCHAR g119
ENCODING 187
SWIDTH 750 0
DWIDTH 9 0
BBX 8 7 0 1
BITMAP
4C
EE
77
3B
77
6E
0C
ENDCHAR
STARTCHAR g120
ENCODING 191
SWIDTH 750 0
DWIDTH 9 0
BBX 7 12 1 -4
BITMAP
30
30
00
30
18
38
70
E0
C4
EE
FC
78
ENDCHAR
STARTCHAR g121
ENCODING 192
SWIDTH 917 0
DWIDTH 11 0
BBX 10 15 1 -1
BITMAP
3000
3800
0400
0C00
1C00
1E00
3600
3700
7300
6300
7FC0
FF80
C180
C180
0080
ENDCHAR
STARTCHAR g122
ENCODING 193
SWIDTH 917 0
DWIDTH 11 0
BBX 10 15 1 -1
BITMAP
0600
1C00
1800
0C00
1C00
1E00
3600
3700
7300
6300
7FC0
FF80
C180
C180
0080
ENDCHAR
STARTCHAR g123
ENCODING 194
SWIDTH 917 0
DWIDTH 11 0
BBX 10 15 1 -1
BITMAP
0800
1C00
3600
0800
1C00
1E00
3600
3700
7300
6300
7FC0
FF80
C180
C180
0080
ENDCHAR
STARTCHAR g124
ENCODING 195
SWIDTH 917 0
DWIDTH 11 0
BBX 10 15 1 -1
BITMAP
3D80
6700
0000
0C00
1C00
1E00
3600
3700
7300
6300
7FC0
FF80
C180
C180
0080
ENDCHAR
STARTCHAR g125
ENCODING 196
SWIDTH 917 0
DWIDTH 11 0
BBX 10 15 1 -1
BITMAP
3300
3300
0000
0C00
1C00
1E00
3600
3700
7300
6300
7FC0
FF80
C180
C180
0080
ENDCHAR
STARTCHAR g126
ENCODING 197
SWIDTH 917 0
DWIDTH 11 0
BBX 10 15 1 -1
BITMAP
1800
3C00
3400
3C00
1C00
1E00
3600
3700
7300
6300
7FC0
FF80
C180
C180
0080
ENDCHAR
STARTCHAR g127
ENCODING 198
SWIDTH 1083 0
DWIDTH 13 0
BBX 12 12 1 0
BITMAP
0C00
1FC0
3FE0
3600
76C0
67C0
6F00
DE00
FE30
E6F0
C7E0
C700
ENDCHAR
STARTCHAR g128
ENCODING 199
SWIDTH 750 0
DWIDTH 9 0
BBX 7 14 1 -3
BITMAP
1C
7E
66
E6
C0
C0
C0
C0
C6
EE
7C
38
0C
3C
ENDCHAR
STARTCHAR g129
ENCODING 200
SWIDTH 667 0
DWIDTH 8 0
BBX 6 14 1 0
BITMAP
C0
C0
60
18
F8
C0
C0
D8
F8
C0
C0
C8
FC
F0
ENDCHAR
STARTCHAR g130
ENCODING 201
SWIDTH 667 0
DWIDTH 8 0
BBX 6 14 1 0
BITMAP
18
30
60
38
F8
C0
C0
D8
F8
C0
C0
C8
FC
F0
ENDCHAR
STARTCHAR g131
ENCODING 202
SWIDTH 667 0
DWIDTH 8 0
BBX 6 14 1 0
BITMAP
30
78
C8
78
FC
C0
C0
D8
F8
C0
C0
CC
FC
F0
ENDCHAR
STARTCHAR g132
ENCODING 203
SWIDTH 667 0
DWIDTH 8 0
BBX 6 14 1 0
BITMAP
18
D8
C0
38
F8
C0
C0
D8
F8
C0
C0
CC
FC
F0
ENDCHAR
STARTCHAR g133
ENCODING 204
SWIDTH 500 0
DWIDTH 6 0
BBX 3 15 1 -1
BITMAP
C0
E0
60
00
60
60
60
60
60
60
60
60
60
60
40
ENDCHAR
STARTCHAR g134
ENCODING 205
SWIDTH 500 0
DWIDTH 6 0
BBX 3 15 2 -1
BITMAP
60
C0
80
40
C0
C0
C0
C0
C0
C0
C0
C0
C0
C0
80
ENDCHAR
STARTCHAR g135
ENCODING 206
SWIDTH 500 0
DWIDTH 6 0
BBX 5 15 1 -1
BITMAP
20
70
D8
20
60
60
60
60
60
60
60
60
60
60
40
ENDCHAR
STARTCHAR g136
ENCODING 207
SWIDTH 500 0
DWIDTH 6 0
BBX 5 15 1 -1
BITMAP
D8
D8
00
60
60
60
60
60
60
60
60
60
60
60
40
ENDCHAR
STARTCHAR g137
ENCODING 209
SWIDTH 833 0
DWIDTH 10 0
BBX 9 15 1 -1
BITMAP
3B00
6E00
0180
4180
E180
E380
F380
DB00
DF00
CF00
C700
C700
C300
C200
8000
ENDCHAR
STARTCHAR g138
ENCODING 210
SWIDTH 833 0
DWIDTH 10 0
BBX 8 14 1 0
BITMAP
30
38
04
38
7E
66
E7
C3
C3
C3
C7
E6
7E
3C
ENDCHAR
STARTCHAR g139
ENCODING 211
SWIDTH 833 0
DWIDTH 10 0
BBX 8 14 1 0
BITMAP
0C
1C
30
1C
7E
66
E7
C3
C3
C3
C7
E6
7E
3C
ENDCHAR
STARTCHAR g140
ENCODING 212
SWIDTH 833 0
DWIDTH 10 0
BBX 8 14 1 0
BITMAP
18
3C
66
18
7E
66
E7
C3
C3
C3
C7
E6
7E
3C
ENDCHAR
STARTCHAR g141
ENCODING 213
SWIDTH 833 0
DWIDTH 10 0
BBX 8 14 1 0
BITMAP
32
4C
00
1C
7E
66
E7
C3
C3
C3
C7
E6
7E
3C
ENDCHAR
STARTCHAR g142
ENCODING 214
SWIDTH 833 0
DWIDTH 10 0
BBX 8 13 1 0
BITMAP
66
66
1C
7E
66
E7
C3
C3
C3
C7
E6
7E
3C
ENDCHAR
STARTCHAR g143
ENCODING 216
SWIDTH 833 0
DWIDTH 10 0
BBX 9 12 1 -1
BITMAP
1D80
7F80
6700
EF00
DF00
DB00
FB00
F700
E600
7E00
FC00
C000
ENDCHAR
STARTCHAR g144
ENCODING 217
SWIDTH 833 0
DWIDTH 10 0
BBX 8 15 1 -1
BITMAP
30
30
18
60
66
E6
C6
C6
C6
C6
C6
CE
EF
7B
30
ENDCHAR
STARTCHAR g145
ENCODING 218
SWIDTH 833 0
DWIDTH 10 0
BBX 8 15 1 -1
BITMAP
06
06
0C
60
66
E6
C6
C6
C6
C6
C6
CE
EF
7B
30
ENDCHAR
STARTCHAR g146
ENCODING 219
SWIDTH 833 0
DWIDTH 10 0
BBX 8 15 1 -1
BITMAP
10
28
04
60
66
E6
C6
C6
C6
C6
C6
CE
EF
7B
30
ENDCHAR
STARTCHAR g147
ENCODING 220
SWIDTH 833 0
DWIDTH 10 0
BBX 8 15 1 -1
BITMAP
60
66
06
60
66
E6
C6
C6
C6
C6
C6
CE
EF
7B
30
ENDCHAR
STARTCHAR g148
ENCODING 223
SWIDTH 833 0
DWIDTH 10 0
BBX 8 12 1 -1
BITMAP
3C
7E
E6
CE
DC
DC
CE
C7
C3
DB
DF
0E
ENDCHAR
STARTCHAR g149
ENCODING 224
SWIDTH 583 0
DWIDTH 7 0
BBX 7 12 0 0
BITMAP
30
30
18
00
38
7C
EC
CC
CC
EC
FE
76
ENDCHAR
STARTCHAR g150
ENCODING 225
SWIDTH 583 0
DWIDTH 7 0
BBX 7 12 0 0
BITMAP
06
0E
18
00
38
7C
EC
CC
CC
EC
FE
76
ENDCHAR
STARTCHAR g151
ENCODING 226
SWIDTH 583 0
DWIDTH 7 0
BBX 7 12 0 0
BITMAP
10
38
6C
00
38
7C
EC
CC
CC
EC
FE
76
ENDCHAR
STARTCHAR g152
ENCODING 227
SWIDTH 583 0
DWIDTH 7 0
BBX 7 11 0 0
BITMAP
76
DC
00
38
7C
EC
CC
CC
EC
FE
76
ENDCHAR
STARTCHAR g153
ENCODING 228
SWIDTH 583 0
DWIDTH 7 0
BBX 7 11 0 0
BITMAP
6C
6C
00
38
7C
EC
CC
CC
EC
FE
76
ENDCHAR
STARTCHAR g154
ENCODING 229
SWIDTH 583 0
DWIDTH 7 0
BBX 7 12 0 0
BITMAP
18
28
38
00
38
7C
EC
CC
CC
EC
FE
76
ENDCHAR
STARTCHAR g155
ENCODING 230
SWIDTH 1167 0
DWIDTH 14 0
BBX 12 8 1 0
BITMAP
1DE0
7FF0
6730
E670
CFE0
DF00
F7E0
65C0
ENDCHAR
STARTCHAR g156
ENCODING 231
SWIDTH 667 0
DWIDTH 8 0
BBX 6 11 1 -3
BITMAP
18
7C
6C
E0
C0
EC
FC
70
18
18
30
ENDCHAR
STARTCHAR g157
ENCODING 232
SWIDTH 667 0
DWIDTH 8 0
BBX 7 12 0 0
BITMAP
30
30
18
00
38
7C
EC
DC
F8
C2
FC
78
ENDCHAR
STARTCHAR g158
ENCODING 233
SWIDTH 583 0
DWIDTH 7 0
BBX 7 12 0 0
BITMAP
18
38
20
00
38
7C
EC
DC
F8
C2
FC
78
ENDCHAR
STARTCHAR g159
ENCODING 234
SWIDTH 583 0
DWIDTH 7 0
BBX 6 12 0 0
BITMAP
10
38
6C
00
38
7C
CC
FC
F8
C0
F8
78
ENDCHAR
STARTCHAR g160
ENCODING 235
SWIDTH 583 0
DWIDTH 7 0
BBX 6 11 0 0
BITMAP
6C
6C
00
38
7C
CC
FC
F8
C0
F8
78
ENDCHAR
STARTCHAR g161
ENCODING 236
SWIDTH 417 0
DWIDTH 5 0
BBX 3 11 1 0
BITMAP
C0
C0
60
00
C0
C0
C0
C0
C0
C0
C0
ENDCHAR
STARTCHAR g162
ENCODING 237
SWIDTH 417 0
DWIDTH 5 0
BBX 3 11 1 0
BITMAP
60
60
C0
00
C0
C0
C0
C0
C0
C0
C0
ENDCHAR
STARTCHAR g163
ENCODING 238
SWIDTH 417 0
DWIDTH 5 0
BBX 5 12 0 0
BITMAP
20
70
D8
00
00
60
60
60
60
60
60
60
ENDCHAR
STARTCHAR g164
ENCODING 239
SWIDTH 500 0
DWIDTH 6 0
BBX 5 11 1 0
BITMAP
D8
D8
00
60
60
60
60
60
60
60
60
ENDCHAR
STARTCHAR g165
ENCODING 241
SWIDTH 583 0
DWIDTH 7 0
BBX 7 11 0 0
BITMAP
76
DC
00
D8
FC
EC
CC
CC
CC
CC
CC
ENDCHAR
STARTCHAR g166
ENCODING 242
SWIDTH 583 0
DWIDTH 7 0
BBX 6 12 0 0
BITMAP
18
18
0C
00
38
7C
EC
CC
CC
DC
F8
70
ENDCHAR
STARTCHAR g167
ENCODING 243
SWIDTH 583 0
DWIDTH 7 0
BBX 6 12 0 0
BITMAP
0C
1C
30
00
38
7C
EC
CC
CC
DC
F8
70
ENDCHAR
STARTCHAR g168
ENCODING 244
SWIDTH 583 0
DWIDTH 7 0
BBX 6 12 0 0
BITMAP
10
38
6C
00
38
7C
EC
CC
CC
DC
F8
70
ENDCHAR
STARTCHAR g169
ENCODING 245
SWIDTH 583 0
DWIDTH 7 0
BBX 7 11 0 0
BITMAP
36
5C
00
38
7C
EC
CC
CC
DC
F8
70
ENDCHAR
STARTCHAR g170
ENCODING 246
SWIDTH 583 0
DWIDTH 7 0
BBX 6 11 0 0
BITMAP
6C
6C
00
38
7C
EC
CC
CC
DC
F8
70
ENDCHAR
STARTCHAR g171
ENCODING 247
SWIDTH 750 0
DWIDTH 9 0
BBX 7 8 1 1
BITMAP
18
18
00
FE
FE
00
30
30
ENDCHAR
STARTCHAR g172
ENCODING 248
SWIDTH 667 0
DWIDTH 8 0
BBX 8 9 0 -1
BITMAP
1D
3F
76
6E
76
6E
7C
F8
80
ENDCHAR
STARTCHAR g173
ENCODING 249
SWIDTH 667 0
DWIDTH 8 0
BBX 7 11 0 0
BITMAP
18
18
0C
60
E6
C6
CE
CC
DC
FE
66
ENDCHAR
STARTCHAR g174
ENCODING 250
SWIDTH 667 0
DWIDTH 8 0
BBX 7 12 0 0
BITMAP
06
0E
18
00
60
E6
C6
CE
CC
DC
FE
66
ENDCHAR
STARTCHAR g175
ENCODING 251
SWIDTH 667 0
DWIDTH 8 0
BBX 7 12 0 0
BITMAP
08
1C
36
00
60
E6
C6
CE
CC
DC
FE
66
ENDCHAR
STARTCHAR g176
ENCODING 252
SWIDTH 667 0
DWIDTH 8 0
BBX 7 11 0 0
BITMAP
6C
6C
00
60
E6
C6
CE
CC
DC
FE
66
ENDCHAR
STARTCHAR g177
ENCODING 255
SWIDTH 667 0
DWIDTH 8 0
BBX 7 16 0 -4
BITMAP
06
66
60
06
C6
CE
EC
6C
7C
38
18
30
30
60
60
60
ENDCHAR
STARTCHAR g178
ENCODING 305
SWIDTH 417 0
DWIDTH 5 0
BBX 2 8 1 0
BITMAP
C0
C0
C0
C0
C0
C0
C0
C0
ENDCHAR
STARTCHAR g179
ENCODING 338
SWIDTH 1167 0
DWIDTH 14 0
BBX 13 11 1 0
BITMAP
1C70
7FF0
67C0
E700
C330
C3F0
C3C0
C700
E718
7FF8
3DE0
ENDCHAR
STARTCHAR g180
ENCODING 339
SWIDTH 1167 0
DWIDTH 14 0
BBX 11 8 1 0
BITMAP
39C0
7FE0
EF60
C7E0
CF80
EF00
FBE0
71C0
ENDCHAR
STARTCHAR g181
ENCODING 376
SWIDTH 750 0
DWIDTH 9 0
BBX 8 14 1 0
BITMAP
66
66
00
C3
C7
E6
6C
7C
38
38
30
30
30
30
ENDCHAR
STARTCHAR g182
ENCODING 402
SWIDTH 417 0
DWIDTH 5 0
BBX 8 14 -1 -3
BITMAP
07
0E
0C
0C
18
FC
FC
18
30
30
30
60
60
60
ENDCHAR
STARTCHAR g183
ENCODING 710
SWIDTH 583 0
DWIDTH 7 0
BBX 5 3 1 9
BITMAP
20
70
D8
ENDCHAR
STARTCHAR g184
ENCODING 711
SWIDTH 667 0
DWIDTH 8 0
BBX 6 3 1 9
BITMAP
CC
78
30
ENDCHAR
STARTCHAR g185
ENCODING 728
SWIDTH 667 0
DWIDTH 8 0
BBX 5 2 1 9
BITMAP
D8
70
ENDCHAR
STARTCHAR g186
ENCODING 729
SWIDTH 667 0
DWIDTH 8 0
BBX 2 2 3 10
BITMAP
C0
C0
ENDCHAR
STARTCHAR g187
ENCODING 730
SWIDTH 667 0
DWIDTH 8 0
BBX 3 3 2 9
BITMAP
E0
A0
E0
ENDCHAR
STARTCHAR g188
ENCODING 731
SWIDTH 667 0
DWIDTH 8 0
BBX 3 3 3 -3
BITMAP
C0
C0
60
ENDCHAR
STARTCHAR g189
ENCODING 732
SWIDTH 667 0
DWIDTH 8 0
BBX 7 2 1 9
BITMAP
76
DC
ENDCHAR
STARTCHAR g190
ENCODING 733
SWIDTH 667 0
DWIDTH 8 0
BBX 7 3 1 9
BITMAP
36
6C
D8
ENDCHAR
STARTCHAR g191
ENCODING 960
SWIDTH 917 0
DWIDTH 11 0
BBX 9 9 1 0
BITMAP
0380
7F80
FF00
3300
3300
3300
3300
3300
3200
ENDCHAR
STARTCHAR g192
ENCODING 8211
SWIDTH 583 0
DWIDTH 7 0
BBX 7 2 0 4
BITMAP
7E
FC
ENDCHAR
STARTCHAR g193
ENCODING 8212
SWIDTH 833 0
DWIDTH 10 0
BBX 10 2 0 4
BITMAP
7FC0
FF80
ENDCHAR
STARTCHAR g194
ENCODING 8216
SWIDTH 333 0
DWIDTH 4 0
BBX 3 4 1 7
BITMAP
60
C0
C0
C0
ENDCHAR
STARTCHAR g195
ENCODING 8217
SWIDTH 333 0
DWIDTH 4 0
BBX 3 4 0 7
BITMAP
C0
E0
60
60
ENDCHAR
STARTCHAR g196
ENCODING 8218
SWIDTH 417 0
DWIDTH 5 0
BBX 3 4 1 -2
BITMAP
C0
E0
60
C0
ENDCHAR
STARTCHAR g197
ENCODING 8220
SWIDTH 667 0
DWIDTH 8 0
BBX 6 5 1 6
BITMAP
60
CC
DC
D8
18
ENDCHAR
STARTCHAR g198
ENCODING 8221
SWIDTH 667 0
DWIDTH 8 0
BBX 6 5 1 6
BITMAP
18
DC
EC
6C
60
ENDCHAR
STARTCHAR g199
ENCODING 8222
SWIDTH 667 0
DWIDTH 8 0
BBX 6 4 1 -2
BITMAP
D8
FC
6C
C8
ENDCHAR
STARTCHAR g200
ENCODING 8224
SWIDTH 500 0
DWIDTH 6 0
BBX 6 8 0 3
BITMAP
30
30
FC
FC
30
30
30
30
ENDCHAR
STARTCHAR g201
ENCODING 8225
SWIDTH 417 0
DWIDTH 5 0
BBX 5 10 0 1
BITMAP
20
20
F8
20
20
20
20
F8
20
20
ENDCHAR
STARTCHAR g202
ENCODING 8226
SWIDTH 750 0
DWIDTH 9 0
BBX 6 6 1 2
BITMAP
78
FC
FC
FC
FC
78
ENDCHAR
STARTCHAR g203
ENCODING 8230
SWIDTH 833 0
DWIDTH 10 0
BBX 8 2 1 0
BITMAP
DB
DB
ENDCHAR
STARTCHAR g204
ENCODING 8240
SWIDTH 1167 0
DWIDTH 14 0
BBX 14 14 0 -2
BITMAP
0060
71E0
FFC0
CEF8
CDFC
FF6C
767C
0DD8
1BE0
3B60
33E0
61C0
E000
C000
ENDCHAR
STARTCHAR g205
ENCODING 8249
SWIDTH 583 0
DWIDTH 7 0
BBX 5 7 1 1
BITMAP
18
38
70
E0
F0
38
18
ENDCHAR
STARTCHAR g206
ENCODING 8250
SWIDTH 583 0
DWIDTH 7 0
BBX 5 8 1 0
BITMAP
C0
E0
70
38
38
70
E0
40
ENDCHAR
STARTCHAR g207
ENCODING 8260
SWIDTH 583 0
DWIDTH 7 0
BBX 7 12 0 -1
BITMAP
06
06
0C
0C
18
18
30
30
60
60
C0
C0
ENDCHAR
STARTCHAR g208
ENCODING 8482
SWIDTH 1000 0
DWIDTH 12 0
BBX 11 6 1 5
BITMAP
0400
FE60
F760
67E0
66A0
6660
ENDCHAR
STARTCHAR g209
ENCODING 8486
SWIDTH 833 0
DWIDTH 10 0
BBX 9 12 1 -1
BITMAP
1C00
7E00
F700
C300
C180
C180
C180
6300
6600
F600
E700
0700
ENDCHAR
STARTCHAR g210
ENCODING 8706
SWIDTH 667 0
DWIDTH 8 0
BBX 7 11 0 0
BITMAP
18
1C
0E
06
36
7E
C6
C6
C6
7C
38
ENDCHAR
STARTCHAR g211
ENCODING 8710
SWIDTH 917 0
DWIDTH 11 0
BBX 9 13 1 -2
BITMAP
0C00
1C00
3C00
3600
3600
6600
6700
E300
C180
CF80
FF80
F800
C000
ENDCHAR
STARTCHAR g212
ENCODING 8719
SWIDTH 833 0
DWIDTH 10 0
BBX 10 13 0 -2
BITMAP
7FC0
FFC0
3180
3180
3180
3180
3180
3180
3180
3180
3180
3180
2100
ENDCHAR
STARTCHAR g213
ENCODING 8721
SWIDTH 833 0
DWIDTH 10 0
BBX 9 13 0 -2
BITMAP
3F00
7F00
3800
1E00
0700
0F00
1E00
3800
7000
6000
E780
FF80
7C00
ENDCHAR
STARTCHAR g214
ENCODING 8730
SWIDTH 1000 0
DWIDTH 12 0
BBX 12 15 -1 -3
BITMAP
0030
0030
0060
0060
0060
00C0
00C0
1180
3180
7B80
DB00
1E00
0E00
0400
0400
ENDCHAR
STARTCHAR g215
ENCODING 8734
SWIDTH 1250 0
DWIDTH 15 0
BBX 12 6 2 3
BITMAP
00E0
3BF0
7F30
CE70
FBE0
71C0
ENDCHAR
STARTCHAR g216
ENCODING 8747
SWIDTH 417 0
DWIDTH 5 0
BBX 6 13 0 -2
BITMAP
18
3C
30
30
30
30
30
30
30
30
B0
E0
40
ENDCHAR
STARTCHAR g217
ENCODING 8776
SWIDTH 750 0
DWIDTH 9 0
BBX 7 6 1 2
BITMAP
32
7E
CC
62
FE
9C
ENDCHAR
STARTCHAR g218
ENCODING 8800
SWIDTH 750 0
DWIDTH 9 0
BBX 8 9 0 1
BITMAP
04
0C
7F
7F
18
FE
FE
30
30
ENDCHAR
STARTCHAR g219
ENCODING 8804
SWIDTH 583 0
DWIDTH 7 0
BBX 6 10 0 -1
BITMAP
0C
3C
F0
C0
70
3C
0C
00
FC
FC
ENDCHAR
STARTCHAR g220
ENCODING 8805
SWIDTH 583 0
DWIDTH 7 0
BBX 6 9 0 0
BITMAP
C0
F0
38
0C
3C
F0
C0
7C
FC
ENDCHAR
STARTCHAR g221
ENCODING 9674
SWIDTH 917 0
DWIDTH 11 0
BBX 9 12 1 0
BITMAP
0C00
1E00
3E00
7700
E380
C180
E380
6700
7E00
3C00
1800
1000
ENDCHAR
STARTCHAR g222
ENCODING 63252
SWIDTH 750 0
DWIDTH 9 0
BBX 7 9 1 0
BITMAP
38
7C
EE
DE
D6
F6
EE
7C
38
ENDCHAR
STARTCHAR g223
ENCODING 63253
SWIDTH 500 0
DWIDTH 6 0
BBX 4 12 1 -1
BITMAP
30
F0
E0
60
60
60
60
60
60
70
F0
C0
ENDCHAR
STARTCHAR g224
ENCODING 63254
SWIDTH 333 0
DWIDTH 4 0
BBX 4 12 0 0
BITMAP
C0
E0
60
60
60
60
60
60
60
60
70
30
ENDCHAR
STARTCHAR g225
ENCODING 63487
SWIDTH 1000 0
DWIDTH 12 0
BBX 0 0 0 0
BITMAP
ENDCHAR
STARTCHAR g226
ENCODING 64257
SWIDTH 750 0
DWIDTH 9 0
BBX 7 13 1 -1
BITMAP
1C
3E
76
60
7E
FE
E6
66
66
66
66
66
60
ENDCHAR
STARTCHAR g227
ENCODING 64258
SWIDTH 750 0
DWIDTH 9 0
BBX 8 13 0 -1
BITMAP
3B
7F
63
63
7B
FB
E3
63
63
63
63
63
60
ENDCHAR
STARTCHAR g228
ENCODING 64512
SWIDTH 917 0
DWIDTH 11 0
BBX 9 11 1 0
BITMAP
FF80
8080
8080
8080
8080
8080
8080
8080
8080
8080
FF80
ENDCHAR
STARTCHAR g229
ENCODING 64513
SWIDTH 917 0
DWIDTH 11 0
BBX 9 11 1 0
BITMAP
FF80
8080
8080
8080
8080
8080
8080
8080
8080
8080
FF80
ENDCHAR
STARTCHAR g230
ENCODING 64514
SWIDTH 917 0
DWIDTH 11 0
BBX 9 11 1 0
BITMAP
FF80
8080
8080
8080
8080
8080
8080
8080
8080
8080
FF80
ENDCHAR
STARTCHAR g231
ENCODING 64515
SWIDTH 917 0
DWIDTH 11 0
BBX 9 11 1 0
BITMAP
FF80
8080
8080
8080
8080
8080
8080
8080
8080
8080
FF80
ENDCHAR
STARTCHAR g232
ENCODING 64516
SWIDTH 917 0
DWIDTH 11 0
BBX 9 11 1 0
BITMAP
FF80
8080
8080
8080
8080
8080
8080
8080
8080
8080
FF80
ENDCHAR
STARTCHAR g233
ENCODING 64517
SWIDTH 917 0
DWIDTH 11 0
BBX 9 11 1 0
BITMAP
FF80
8080
8080
8080
8080
8080
8080
8080
8080
8080
FF80
ENDCHAR
STARTCHAR g234
ENCODING 64518
SWIDTH 917 0
DWIDTH 11 0
BBX 9 11 1 0
BITMAP
FF80
8080
8080
8080
8080
8080
8080
8080
8080
8080
FF80
ENDCHAR
STARTCHAR g235
ENCODING 64519
SWIDTH 917 0
DWIDTH 11 0
BBX 9 11 1 0
BITMAP
FF80
8080
8080
8080
8080
8080
8080
8080
8080
8080
FF80
ENDCHAR
STARTCHAR g236
ENCODING 64520
SWIDTH 917 0
DWIDTH 11 0
BBX 9 11 1 0
BITMAP
FF80
8080
8080
8080
8080
8080
8080
8080
8080
8080
FF80
ENDCHAR
STARTCHAR g237
ENCODING 64521
SWIDTH 917 0
DWIDTH 11 0
BBX 9 11 1 0
BITMAP
FF80
8080
8080
8080
8080
8080
8080
8080
8080
8080
FF80
ENDCHAR
STARTCHAR g238
ENCODING 64522
SWIDTH 917 0
DWIDTH 11 0
BBX 9 11 1 0
BITMAP
FF80
8080
8080
8080
8080
8080
8080
8080
8080
8080
FF80
ENDCHAR
STARTCHAR g239
ENCODING 64523
SWIDTH 917 0
DWIDTH 11 0
BBX 9 11 1 0
BITMAP
FF80
8080
8080
8080
8080
8080
8080
8080
8080
8080
FF80
ENDCHAR
STARTCHAR g240
ENCODING 64524
SWIDTH 917 0
DWIDTH 11 0
BBX 9 11 1 0
BITMAP
FF80
8080
8080
8080
8080
8080
8080
8080
8080
8080
FF80
ENDCHAR
STARTCHAR g241
ENCODING 64525
SWIDTH 917 0
DWIDTH 11 0
BBX 9 11 1 0
BITMAP
FF80
8080
8080
8080
8080
8080
8080
8080
8080
8080
FF80
ENDCHAR
STARTCHAR g242
ENCODING 64526
SWIDTH 917 0
DWIDTH 11 0
BBX 9 11 1 0
BITMAP
FF80
8080
8080
8080
8080
8080
8080
8080
8080
8080
FF80
ENDCHAR
STARTCHAR g243
ENCODING 64527
SWIDTH 917 0
DWIDTH 11 0
BBX 9 11 1 0
BITMAP
FF80
8080
8080
8080
8080
8080
8080
8080
8080
8080
FF80
ENDCHAR
ENDFONT
