STARTFONT 2.1
COMMENT Strike 0 of a Newton 'sfnt' font (bloc/bdat): tools/fonts/newtonsfnt.py,
COMMENT tools/fonts/README.md.  The builder reads the BLOC_* properties and the
COMMENT glyphs - STARTCHAR gN (N the glyph id; otherwise ENCODING through 'cmap'),
COMMENT DWIDTH (the advance), BBX (width, height, the bearing x, the bottom row's
COMMENT y: bearing y less the height) and the BITMAP rows.  A glyph id in the
COMMENT subtable ranges with no glyph here has no image (the missing glyph is 0).
COMMENT The other properties, SIZE, FONTBOUNDINGBOX and SWIDTH are worked out and
COMMENT not read back: change BLOC_HORI_* (the line metrics the ROM draws text by)
COMMENT to match an edit that changes the strike's extent.
FONT -Apple-Roman Regular-Medium-R-Normal--10-100-72-72-P-0-Apple-Roman
SIZE 10 72 72
FONTBOUNDINGBOX 14 15 -2 -3
STARTPROPERTIES 37
FONT_ASCENT 12
FONT_DESCENT 4
PIXEL_SIZE 10
FAMILY_NAME "Roman Regular"
BLOC_COLOR_REF 0
BLOC_HORI_ASCENDER 12
BLOC_HORI_DESCENDER -4
BLOC_HORI_WIDTH_MAX 12
BLOC_HORI_CARET_SLOPE_NUMERATOR 0
BLOC_HORI_CARET_SLOPE_DENOMINATOR 1
BLOC_HORI_CARET_OFFSET 0
BLOC_HORI_MIN_ORIGIN_SB -2
BLOC_HORI_MIN_ADVANCE_SB 0
BLOC_HORI_MAX_BEFORE_BL 12
BLOC_HORI_MIN_AFTER_BL -3
BLOC_HORI_PAD1 0
BLOC_HORI_PAD2 0
BLOC_VERT_ASCENDER 0
BLOC_VERT_DESCENDER -1
BLOC_VERT_WIDTH_MAX 15
BLOC_VERT_CARET_SLOPE_NUMERATOR 0
BLOC_VERT_CARET_SLOPE_DENOMINATOR 1
BLOC_VERT_CARET_OFFSET 0
BLOC_VERT_MIN_ORIGIN_SB 48
BLOC_VERT_MIN_ADVANCE_SB 52
BLOC_VERT_MAX_BEFORE_BL 0
BLOC_VERT_MIN_AFTER_BL -11
BLOC_VERT_PAD1 0
BLOC_VERT_PAD2 0
BLOC_START_GLYPH 0
BLOC_END_GLYPH 257
BLOC_PPEM_X 10
BLOC_PPEM_Y 10
BLOC_BIT_DEPTH 1
BLOC_FLAGS 1
BLOC_INDEX_SUBTABLES 1
BLOC_INDEX_SUBTABLE_0 "0 257 3 1 0"
ENDPROPERTIES
CHARS 244
STARTCHAR g0
ENCODING -1
SWIDTH 1000 0
DWIDTH 10 0
BBX 8 9 1 0
BITMAP
FF
81
81
81
81
81
81
81
FF
ENDCHAR
STARTCHAR g1
ENCODING 0
SWIDTH 0 0
DWIDTH 0 0
BBX 0 0 0 0
BITMAP
ENDCHAR
STARTCHAR g2
ENCODING 1
SWIDTH 400 0
DWIDTH 4 0
BBX 0 0 0 0
BITMAP
ENDCHAR
STARTCHAR g3
ENCODING 2
SWIDTH 400 0
DWIDTH 4 0
BBX 2 10 1 0
BITMAP
40
C0
C0
C0
C0
C0
80
00
C0
C0
ENDCHAR
STARTCHAR g4
ENCODING 3
SWIDTH 600 0
DWIDTH 6 0
BBX 5 5 1 5
BITMAP
D8
D8
D8
D8
90
ENDCHAR
STARTCHAR g5
ENCODING 4
SWIDTH 900 0
DWIDTH 9 0
BBX 7 10 1 0
BITMAP
04
2C
6E
7C
EC
6C
FE
6C
68
40
ENDCHAR
STARTCHAR g6
ENCODING 5
SWIDTH 800 0
DWIDTH 8 0
BBX 6 11 1 -1
BITMAP
30
30
7C
EC
E0
78
3C
CC
FC
30
30
ENDCHAR
STARTCHAR g7
ENCODING 6
SWIDTH 900 0
DWIDTH 9 0
BBX 9 11 0 -1
BITMAP
7180
FF80
DF00
F600
6C00
1B00
3F80
7D80
6F80
C700
C000
ENDCHAR
STARTCHAR g8
ENCODING 7
SWIDTH 1000 0
DWIDTH 10 0
BBX 8 9 1 0
BITMAP
38
6C
60
33
6E
C6
C6
FC
78
ENDCHAR
STARTCHAR g9
ENCODING 8
SWIDTH 400 0
DWIDTH 4 0
BBX 2 5 1 5
BITMAP
C0
C0
C0
C0
80
ENDCHAR
STARTCHAR g10
ENCODING 9
SWIDTH 500 0
DWIDTH 5 0
BBX 3 11 1 -1
BITMAP
60
60
C0
C0
C0
C0
C0
C0
C0
60
60
ENDCHAR
STARTCHAR g11
ENCODING 10
SWIDTH 500 0
DWIDTH 5 0
BBX 3 11 1 -1
BITMAP
C0
C0
60
60
60
60
60
60
60
C0
C0
ENDCHAR
STARTCHAR g12
ENCODING 11
SWIDTH 800 0
DWIDTH 8 0
BBX 6 5 1 5
BITMAP
30
B4
FC
78
CC
ENDCHAR
STARTCHAR g13
ENCODING 12
SWIDTH 700 0
DWIDTH 7 0
BBX 6 6 0 1
BITMAP
30
30
FC
FC
30
30
ENDCHAR
STARTCHAR g14
ENCODING 44
SWIDTH 400 0
DWIDTH 4 0
BBX 3 4 0 -2
BITMAP
C0
E0
60
40
ENDCHAR
STARTCHAR g15
ENCODING 45
SWIDTH 700 0
DWIDTH 7 0
BBX 5 2 1 3
BITMAP
F8
F8
ENDCHAR
STARTCHAR g16
ENCODING 46
SWIDTH 400 0
DWIDTH 4 0
BBX 2 2 1 0
BITMAP
C0
C0
ENDCHAR
STARTCHAR g17
ENCODING 47
SWIDTH 700 0
DWIDTH 7 0
BBX 6 10 0 0
BITMAP
0C
0C
18
18
30
30
60
60
C0
C0
ENDCHAR
STARTCHAR g18
ENCODING 48
SWIDTH 800 0
DWIDTH 8 0
BBX 6 8 1 0
BITMAP
70
F8
DC
CC
CC
EC
78
30
ENDCHAR
STARTCHAR g19
ENCODING 49
SWIDTH 800 0
DWIDTH 8 0
BBX 4 8 1 0
BITMAP
30
70
F0
30
30
30
30
30
ENDCHAR
STARTCHAR g20
ENCODING 50
SWIDTH 800 0
DWIDTH 8 0
BBX 7 8 0 0
BITMAP
30
7C
5C
0C
18
30
FE
7C
ENDCHAR
STARTCHAR g21
ENCODING 51
SWIDTH 800 0
DWIDTH 8 0
BBX 6 9 1 -1
BITMAP
70
F8
98
38
3C
0C
1C
78
30
ENDCHAR
STARTCHAR g22
ENCODING 52
SWIDTH 800 0
DWIDTH 8 0
BBX 8 10 0 -2
BITMAP
04
36
36
66
FE
7F
0E
0C
0C
0C
ENDCHAR
STARTCHAR g23
ENCODING 53
SWIDTH 800 0
DWIDTH 8 0
BBX 6 9 1 -1
BITMAP
3C
FC
C0
F8
FC
0C
1C
F8
70
ENDCHAR
STARTCHAR g24
ENCODING 54
SWIDTH 800 0
DWIDTH 8 0
BBX 6 9 1 0
BITMAP
30
70
60
D8
FC
CC
DC
F8
70
ENDCHAR
STARTCHAR g25
ENCODING 55
SWIDTH 800 0
DWIDTH 8 0
BBX 7 10 0 -2
BITMAP
1E
FE
E6
0C
1C
18
38
30
30
30
ENDCHAR
STARTCHAR g26
ENCODING 56
SWIDTH 800 0
DWIDTH 8 0
BBX 6 9 1 0
BITMAP
38
7C
6C
38
7C
EC
CC
FC
78
ENDCHAR
STARTCHAR g27
ENCODING 57
SWIDTH 800 0
DWIDTH 8 0
BBX 6 10 1 -2
BITMAP
78
FC
CC
EC
7C
18
18
30
30
20
ENDCHAR
STARTCHAR g28
ENCODING 58
SWIDTH 300 0
DWIDTH 3 0
BBX 2 6 0 0
BITMAP
C0
C0
00
00
C0
C0
ENDCHAR
STARTCHAR g29
ENCODING 59
SWIDTH 400 0
DWIDTH 4 0
BBX 2 8 1 -2
BITMAP
C0
C0
00
00
C0
C0
40
80
ENDCHAR
STARTCHAR g30
ENCODING 60
SWIDTH 600 0
DWIDTH 6 0
BBX 4 6 1 1
BITMAP
30
70
E0
E0
70
30
ENDCHAR
STARTCHAR g31
ENCODING 61
SWIDTH 700 0
DWIDTH 7 0
BBX 5 5 1 1
BITMAP
78
78
00
F0
F0
ENDCHAR
STARTCHAR g32
ENCODING 62
SWIDTH 600 0
DWIDTH 6 0
BBX 4 6 1 1
BITMAP
C0
E0
70
70
E0
C0
ENDCHAR
STARTCHAR g33
ENCODING 63
SWIDTH 800 0
DWIDTH 8 0
BBX 6 10 1 -1
BITMAP
78
FC
CC
1C
78
60
30
00
30
30
ENDCHAR
STARTCHAR g34
ENCODING 64
SWIDTH 1000 0
DWIDTH 10 0
BBX 10 11 0 -1
BITMAP
0E00
3F80
6180
CEC0
DEC0
DAC0
DF80
CF00
6000
3F80
1F00
ENDCHAR
STARTCHAR g35
ENCODING 65
SWIDTH 900 0
DWIDTH 9 0
BBX 8 9 0 0
BITMAP
0C
1C
3E
36
66
7E
FF
C3
C3
ENDCHAR
STARTCHAR g36
ENCODING 66
SWIDTH 800 0
DWIDTH 8 0
BBX 7 9 0 0
BITMAP
78
FC
6E
66
7C
6E
66
7E
6C
ENDCHAR
STARTCHAR g37
ENCODING 67
SWIDTH 800 0
DWIDTH 8 0
BBX 6 10 1 -1
BITMAP
18
7C
6C
E0
C0
C0
C0
EC
7C
38
ENDCHAR
STARTCHAR g38
ENCODING 68
SWIDTH 800 0
DWIDTH 8 0
BBX 7 9 0 0
BITMAP
78
FC
4E
66
66
66
66
7C
78
ENDCHAR
STARTCHAR g39
ENCODING 69
SWIDTH 800 0
DWIDTH 8 0
BBX 7 10 0 0
BITMAP
0C
7C
F0
60
7C
F8
E0
64
7E
78
ENDCHAR
STARTCHAR g40
ENCODING 70
SWIDTH 700 0
DWIDTH 7 0
BBX 6 9 0 0
BITMAP
1C
F8
E0
68
F8
E0
60
60
60
ENDCHAR
STARTCHAR g41
ENCODING 71
SWIDTH 800 0
DWIDTH 8 0
BBX 7 9 0 0
BITMAP
3C
7C
E0
C6
DE
CC
EC
7C
38
ENDCHAR
STARTCHAR g42
ENCODING 72
SWIDTH 800 0
DWIDTH 8 0
BBX 6 11 1 -1
BITMAP
0C
CC
CC
CC
FC
FC
CC
CC
CC
CC
C0
ENDCHAR
STARTCHAR g43
ENCODING 73
SWIDTH 500 0
DWIDTH 5 0
BBX 4 9 0 0
BITMAP
F0
F0
60
60
60
60
60
F0
F0
ENDCHAR
STARTCHAR g44
ENCODING 74
SWIDTH 600 0
DWIDTH 6 0
BBX 5 11 0 -2
BITMAP
08
18
18
18
18
18
18
18
D8
F0
70
ENDCHAR
STARTCHAR g45
ENCODING 75
SWIDTH 800 0
DWIDTH 8 0
BBX 8 10 0 -1
BITMAP
66
6E
7C
F0
F8
7C
6E
67
62
40
ENDCHAR
STARTCHAR g46
ENCODING 76
SWIDTH 600 0
DWIDTH 6 0
BBX 6 9 0 0
BITMAP
60
60
60
60
60
60
C0
FC
F8
ENDCHAR
STARTCHAR g47
ENCODING 77
SWIDTH 1000 0
DWIDTH 10 0
BBX 8 10 1 -1
BITMAP
46
EF
EF
FB
DB
DB
C3
C3
C3
02
ENDCHAR
STARTCHAR g48
ENCODING 78
SWIDTH 900 0
DWIDTH 9 0
BBX 7 10 1 -1
BITMAP
06
C6
E6
F6
D6
DE
CE
C6
C6
C0
ENDCHAR
STARTCHAR g49
ENCODING 79
SWIDTH 800 0
DWIDTH 8 0
BBX 7 10 0 -1
BITMAP
1C
7E
66
E6
C6
C6
C6
EE
7C
38
ENDCHAR
STARTCHAR g50
ENCODING 80
SWIDTH 800 0
DWIDTH 8 0
BBX 7 9 0 0
BITMAP
3C
7E
66
66
7E
FC
60
60
60
ENDCHAR
STARTCHAR g51
ENCODING 81
SWIDTH 800 0
DWIDTH 8 0
BBX 8 12 0 -3
BITMAP
1C
7E
67
E3
C3
DB
DB
EF
7E
3C
0E
06
ENDCHAR
STARTCHAR g52
ENCODING 82
SWIDTH 800 0
DWIDTH 8 0
BBX 8 10 0 -1
BITMAP
3C
FE
E6
66
6C
FC
6E
67
63
60
ENDCHAR
STARTCHAR g53
ENCODING 83
SWIDTH 800 0
DWIDTH 8 0
BBX 7 9 0 0
BITMAP
3C
7E
66
78
3C
0E
C6
FE
7C
ENDCHAR
STARTCHAR g54
ENCODING 84
SWIDTH 800 0
DWIDTH 8 0
BBX 8 9 0 0
BITMAP
0F
7E
F8
18
18
18
18
18
18
ENDCHAR
STARTCHAR g55
ENCODING 85
SWIDTH 900 0
DWIDTH 9 0
BBX 8 10 1 -1
BITMAP
60
66
E6
C6
C6
C6
CE
EF
7B
38
ENDCHAR
STARTCHAR g56
ENCODING 86
SWIDTH 900 0
DWIDTH 9 0
BBX 7 10 1 -1
BITMAP
C0
C6
C6
CE
EC
6C
78
38
38
10
ENDCHAR
STARTCHAR g57
ENCODING 87
SWIDTH 1200 0
DWIDTH 12 0
BBX 11 11 0 -1
BITMAP
0060
C060
CC60
CC60
6EC0
6EC0
7BC0
3B80
3180
3180
3000
ENDCHAR
STARTCHAR g58
ENCODING 88
SWIDTH 700 0
DWIDTH 7 0
BBX 7 9 0 0
BITMAP
C6
E6
7C
38
3C
7C
6E
E6
C6
ENDCHAR
STARTCHAR g59
ENCODING 89
SWIDTH 700 0
DWIDTH 7 0
BBX 7 10 0 -1
BITMAP
C6
C6
CC
6C
78
38
30
30
30
30
ENDCHAR
STARTCHAR g60
ENCODING 90
SWIDTH 700 0
DWIDTH 7 0
BBX 7 10 0 0
BITMAP
60
7E
3E
0C
1C
38
70
60
FC
FC
ENDCHAR
STARTCHAR g61
ENCODING 91
SWIDTH 500 0
DWIDTH 5 0
BBX 3 11 1 -1
BITMAP
E0
E0
C0
C0
C0
C0
C0
C0
C0
E0
E0
ENDCHAR
STARTCHAR g62
ENCODING 92
SWIDTH 700 0
DWIDTH 7 0
BBX 6 10 1 0
BITMAP
C0
C0
60
60
30
30
18
18
0C
0C
ENDCHAR
STARTCHAR g63
ENCODING 93
SWIDTH 400 0
DWIDTH 4 0
BBX 3 11 1 -1
BITMAP
E0
E0
60
60
60
60
60
60
60
E0
E0
ENDCHAR
STARTCHAR g64
ENCODING 94
SWIDTH 400 0
DWIDTH 4 0
BBX 4 3 0 6
BITMAP
60
F0
90
ENDCHAR
STARTCHAR g65
ENCODING 95
SWIDTH 800 0
DWIDTH 8 0
BBX 8 2 0 -1
BITMAP
FF
FF
ENDCHAR
STARTCHAR g66
ENCODING 96
SWIDTH 400 0
DWIDTH 4 0
BBX 3 2 0 7
BITMAP
C0
60
ENDCHAR
STARTCHAR g67
ENCODING 97
SWIDTH 700 0
DWIDTH 7 0
BBX 7 7 0 0
BITMAP
38
7C
EC
CC
CC
FE
76
ENDCHAR
STARTCHAR g68
ENCODING 98
SWIDTH 800 0
DWIDTH 8 0
BBX 7 10 0 0
BITMAP
20
60
60
6C
7E
76
66
66
FC
DC
ENDCHAR
STARTCHAR g69
ENCODING 99
SWIDTH 700 0
DWIDTH 7 0
BBX 6 7 0 0
BITMAP
38
7C
E8
C0
C8
FC
78
ENDCHAR
STARTCHAR g70
ENCODING 100
SWIDTH 700 0
DWIDTH 7 0
BBX 7 10 0 0
BITMAP
0C
0C
0C
3C
7C
CC
CC
DC
FE
76
ENDCHAR
STARTCHAR g71
ENCODING 101
SWIDTH 700 0
DWIDTH 7 0
BBX 6 7 0 0
BITMAP
38
7C
CC
F0
E4
7C
38
ENDCHAR
STARTCHAR g72
ENCODING 102
SWIDTH 600 0
DWIDTH 6 0
BBX 5 10 0 0
BITMAP
38
78
60
70
F0
E0
60
60
60
60
ENDCHAR
STARTCHAR g73
ENCODING 103
SWIDTH 700 0
DWIDTH 7 0
BBX 6 10 0 -3
BITMAP
34
7C
CC
CC
FC
6C
0C
D8
F8
60
ENDCHAR
STARTCHAR g74
ENCODING 104
SWIDTH 700 0
DWIDTH 7 0
BBX 6 11 0 -1
BITMAP
C0
C0
C0
D8
DC
EC
EC
CC
CC
CC
0C
ENDCHAR
STARTCHAR g75
ENCODING 105
SWIDTH 500 0
DWIDTH 5 0
BBX 2 9 1 0
BITMAP
C0
C0
00
C0
C0
C0
C0
C0
C0
ENDCHAR
STARTCHAR g76
ENCODING 106
SWIDTH 500 0
DWIDTH 5 0
BBX 5 13 -2 -3
BITMAP
18
18
00
18
18
18
18
18
18
18
98
F0
60
ENDCHAR
STARTCHAR g77
ENCODING 107
SWIDTH 700 0
DWIDTH 7 0
BBX 6 11 0 -1
BITMAP
40
C0
C8
DC
D8
F0
F0
D8
DC
CC
80
ENDCHAR
STARTCHAR g78
ENCODING 108
SWIDTH 500 0
DWIDTH 5 0
BBX 2 10 1 0
BITMAP
C0
C0
C0
C0
C0
C0
C0
C0
C0
C0
ENDCHAR
STARTCHAR g79
ENCODING 109
SWIDTH 1100 0
DWIDTH 11 0
BBX 10 8 0 0
BITMAP
0180
B7C0
FEC0
ECC0
CCC0
CCC0
C8C0
C080
ENDCHAR
STARTCHAR g80
ENCODING 110
SWIDTH 700 0
DWIDTH 7 0
BBX 6 8 0 -1
BITMAP
58
FC
EC
CC
CC
CC
CC
08
ENDCHAR
STARTCHAR g81
ENCODING 111
SWIDTH 700 0
DWIDTH 7 0
BBX 6 7 0 0
BITMAP
38
7C
EC
CC
DC
F8
70
ENDCHAR
STARTCHAR g82
ENCODING 112
SWIDTH 700 0
DWIDTH 7 0
BBX 6 9 0 -2
BITMAP
D8
FC
EC
CC
DC
F8
C0
C0
C0
ENDCHAR
STARTCHAR g83
ENCODING 113
SWIDTH 700 0
DWIDTH 7 0
BBX 6 10 0 -3
BITMAP
38
7C
CC
DC
F8
78
18
18
1C
0C
ENDCHAR
STARTCHAR g84
ENCODING 114
SWIDTH 500 0
DWIDTH 5 0
BBX 5 7 0 0
BITMAP
30
F8
D0
C0
C0
C0
C0
ENDCHAR
STARTCHAR g85
ENCODING 115
SWIDTH 600 0
DWIDTH 6 0
BBX 5 8 0 -1
BITMAP
30
F8
C8
F0
78
18
78
30
ENDCHAR
STARTCHAR g86
ENCODING 116
SWIDTH 600 0
DWIDTH 6 0
BBX 6 9 0 0
BITMAP
30
30
3C
F8
70
30
30
30
30
ENDCHAR
STARTCHAR g87
ENCODING 117
SWIDTH 700 0
DWIDTH 7 0
BBX 7 7 0 0
BITMAP
60
6C
CC
CC
DC
FC
76
ENDCHAR
STARTCHAR g88
ENCODING 118
SWIDTH 700 0
DWIDTH 7 0
BBX 6 9 0 -1
BITMAP
04
4C
CC
CC
6C
78
38
30
10
ENDCHAR
STARTCHAR g89
ENCODING 119
SWIDTH 1100 0
DWIDTH 11 0
BBX 9 9 1 -1
BITMAP
4000
CC80
CD80
DD80
DF80
F700
E300
6200
4000
ENDCHAR
STARTCHAR g90
ENCODING 120
SWIDTH 700 0
DWIDTH 7 0
BBX 7 9 0 -1
BITMAP
80
CC
EC
78
38
78
6C
CE
06
ENDCHAR
STARTCHAR g91
ENCODING 121
SWIDTH 800 0
DWIDTH 8 0
BBX 6 11 1 -3
BITMAP
0C
CC
D8
D8
78
70
30
60
60
C0
C0
ENDCHAR
STARTCHAR g92
ENCODING 122
SWIDTH 800 0
DWIDTH 8 0
BBX 7 8 0 -1
BITMAP
06
FE
7C
18
30
E0
FC
1C
ENDCHAR
STARTCHAR g93
ENCODING 123
SWIDTH 600 0
DWIDTH 6 0
BBX 5 12 0 -2
BITMAP
38
78
60
30
70
E0
70
30
30
60
78
38
ENDCHAR
STARTCHAR g94
ENCODING 124
SWIDTH 300 0
DWIDTH 3 0
BBX 2 13 0 -2
BITMAP
C0
C0
C0
C0
C0
C0
00
C0
C0
C0
C0
C0
C0
ENDCHAR
STARTCHAR g95
ENCODING 125
SWIDTH 600 0
DWIDTH 6 0
BBX 5 12 1 -2
BITMAP
E0
F0
30
60
70
38
70
60
60
30
F0
E0
ENDCHAR
STARTCHAR g96
ENCODING 126
SWIDTH 800 0
DWIDTH 8 0
BBX 7 3 0 6
BITMAP
74
FE
5C
ENDCHAR
STARTCHAR g97
ENCODING 127
SWIDTH 800 0
DWIDTH 8 0
BBX 0 0 0 0
BITMAP
ENDCHAR
STARTCHAR g98
ENCODING 161
SWIDTH 400 0
DWIDTH 4 0
BBX 2 10 1 -3
BITMAP
C0
C0
00
C0
C0
C0
C0
C0
C0
C0
ENDCHAR
STARTCHAR g99
ENCODING 162
SWIDTH 800 0
DWIDTH 8 0
BBX 6 8 1 -1
BITMAP
10
78
FC
D0
D0
FC
78
10
ENDCHAR
STARTCHAR g100
ENCODING 163
SWIDTH 800 0
DWIDTH 8 0
BBX 6 9 1 0
BITMAP
1C
30
30
30
F8
60
60
C0
FC
ENDCHAR
STARTCHAR g101
ENCODING 164
SWIDTH 700 0
DWIDTH 7 0
BBX 7 7 0 2
BITMAP
44
FE
6C
44
6C
FE
44
ENDCHAR
STARTCHAR g102
ENCODING 165
SWIDTH 700 0
DWIDTH 7 0
BBX 7 9 0 0
BITMAP
C6
6C
28
38
FC
30
FC
30
30
ENDCHAR
STARTCHAR g103
ENCODING 167
SWIDTH 800 0
DWIDTH 8 0
BBX 6 11 1 -1
BITMAP
70
F8
C0
F8
7C
CC
E8
70
18
F8
70
ENDCHAR
STARTCHAR g104
ENCODING 168
SWIDTH 500 0
DWIDTH 5 0
BBX 5 2 0 7
BITMAP
D8
D8
ENDCHAR
STARTCHAR g105
ENCODING 169
SWIDTH 1000 0
DWIDTH 10 0
BBX 8 8 1 0
BITMAP
3C
42
9D
B1
B1
9D
42
3C
ENDCHAR
STARTCHAR g106
ENCODING 170
SWIDTH 600 0
DWIDTH 6 0
BBX 5 8 0 1
BITMAP
78
D8
D8
F8
68
00
F8
F8
ENDCHAR
STARTCHAR g107
ENCODING 171
SWIDTH 800 0
DWIDTH 8 0
BBX 6 6 1 1
BITMAP
20
6C
D8
D8
6C
24
ENDCHAR
STARTCHAR g108
ENCODING 172
SWIDTH 700 0
DWIDTH 7 0
BBX 5 3 1 2
BITMAP
F8
F8
18
ENDCHAR
STARTCHAR g109
ENCODING 174
SWIDTH 1000 0
DWIDTH 10 0
BBX 8 8 1 0
BITMAP
3C
42
B9
B5
BD
B7
63
3E
ENDCHAR
STARTCHAR g110
ENCODING 175
SWIDTH 800 0
DWIDTH 8 0
BBX 4 2 2 8
BITMAP
F0
F0
ENDCHAR
STARTCHAR g111
ENCODING 176
SWIDTH 600 0
DWIDTH 6 0
BBX 4 4 1 5
BITMAP
70
D0
F0
60
ENDCHAR
STARTCHAR g112
ENCODING 177
SWIDTH 800 0
DWIDTH 8 0
BBX 6 8 1 0
BITMAP
30
30
FC
FC
30
30
FC
FC
ENDCHAR
STARTCHAR g113
ENCODING 180
SWIDTH 400 0
DWIDTH 4 0
BBX 3 2 1 7
BITMAP
60
C0
ENDCHAR
STARTCHAR g114
ENCODING 181
SWIDTH 900 0
DWIDTH 9 0
BBX 7 9 1 -2
BITMAP
66
66
66
66
6E
FE
DA
C0
C0
ENDCHAR
STARTCHAR g115
ENCODING 182
SWIDTH 800 0
DWIDTH 8 0
BBX 6 10 1 -1
BITMAP
3C
74
F4
F4
F4
74
3C
34
34
04
ENDCHAR
STARTCHAR g116
ENCODING 183
SWIDTH 400 0
DWIDTH 4 0
BBX 2 2 1 4
BITMAP
C0
C0
ENDCHAR
STARTCHAR g117
ENCODING 184
SWIDTH 800 0
DWIDTH 8 0
BBX 3 3 3 -3
BITMAP
C0
60
C0
ENDCHAR
STARTCHAR g118
ENCODING 186
SWIDTH 600 0
DWIDTH 6 0
BBX 5 8 0 1
BITMAP
70
D8
D8
D8
70
00
F8
F8
ENDCHAR
STARTCHAR g119
ENCODING 187
SWIDTH 800 0
DWIDTH 8 0
BBX 6 6 1 1
BITMAP
10
D8
6C
6C
D8
90
ENDCHAR
STARTCHAR g120
ENCODING 191
SWIDTH 800 0
DWIDTH 8 0
BBX 6 10 1 -3
BITMAP
30
30
00
30
18
78
E0
CC
FC
78
ENDCHAR
STARTCHAR g121
ENCODING 192
SWIDTH 900 0
DWIDTH 9 0
BBX 8 12 0 0
BITMAP
30
38
18
0C
1C
3E
36
66
7E
FF
C3
C3
ENDCHAR
STARTCHAR g122
ENCODING 193
SWIDTH 900 0
DWIDTH 9 0
BBX 8 12 0 0
BITMAP
06
0E
08
0C
1C
3E
36
66
7E
FF
C3
C3
ENDCHAR
STARTCHAR g123
ENCODING 194
SWIDTH 900 0
DWIDTH 9 0
BBX 8 12 0 0
BITMAP
0C
1E
33
0C
1C
3E
36
66
7E
FF
C3
C3
ENDCHAR
STARTCHAR g124
ENCODING 195
SWIDTH 900 0
DWIDTH 9 0
BBX 8 12 0 0
BITMAP
1B
2E
00
0C
1C
3E
36
66
7E
FF
C3
C3
ENDCHAR
STARTCHAR g125
ENCODING 196
SWIDTH 900 0
DWIDTH 9 0
BBX 8 13 0 -1
BITMAP
36
36
00
0C
1C
3E
36
66
7E
FF
C3
C3
03
ENDCHAR
STARTCHAR g126
ENCODING 197
SWIDTH 900 0
DWIDTH 9 0
BBX 8 13 0 -1
BITMAP
1C
14
1C
0C
1C
3E
36
66
7E
FF
C3
C3
03
ENDCHAR
STARTCHAR g127
ENCODING 198
SWIDTH 1200 0
DWIDTH 12 0
BBX 12 11 0 -1
BITMAP
0060
0DE0
1F80
3720
77E0
67C0
7F00
FF30
C3F0
C3C0
C000
ENDCHAR
STARTCHAR g128
ENCODING 199
SWIDTH 800 0
DWIDTH 8 0
BBX 6 12 1 -3
BITMAP
18
7C
6C
E0
C0
C0
C0
EC
7C
38
18
30
ENDCHAR
STARTCHAR g129
ENCODING 200
SWIDTH 800 0
DWIDTH 8 0
BBX 6 12 1 0
BITMAP
C0
60
18
F8
F0
C0
D8
F8
E0
CC
FC
F0
ENDCHAR
STARTCHAR g130
ENCODING 201
SWIDTH 700 0
DWIDTH 7 0
BBX 6 12 1 0
BITMAP
30
60
48
F8
F0
C0
D8
F8
E0
CC
FC
F0
ENDCHAR
STARTCHAR g131
ENCODING 202
SWIDTH 800 0
DWIDTH 8 0
BBX 6 12 1 0
BITMAP
30
78
C0
3C
F8
C0
D8
F8
E0
CC
FC
F0
ENDCHAR
STARTCHAR g132
ENCODING 203
SWIDTH 800 0
DWIDTH 8 0
BBX 6 12 1 0
BITMAP
6C
6C
00
FC
F8
C0
D8
F8
E0
CC
FC
F0
ENDCHAR
STARTCHAR g133
ENCODING 204
SWIDTH 500 0
DWIDTH 5 0
BBX 3 12 0 0
BITMAP
C0
60
00
60
60
60
60
60
60
60
60
60
ENDCHAR
STARTCHAR g134
ENCODING 205
SWIDTH 500 0
DWIDTH 5 0
BBX 3 12 1 0
BITMAP
60
C0
00
C0
C0
C0
C0
C0
C0
C0
C0
C0
ENDCHAR
STARTCHAR g135
ENCODING 206
SWIDTH 500 0
DWIDTH 5 0
BBX 4 12 0 0
BITMAP
60
B0
00
60
60
60
60
60
60
60
60
60
ENDCHAR
STARTCHAR g136
ENCODING 207
SWIDTH 500 0
DWIDTH 5 0
BBX 5 12 0 0
BITMAP
D8
D8
00
60
60
60
60
60
60
60
60
60
ENDCHAR
STARTCHAR g137
ENCODING 209
SWIDTH 800 0
DWIDTH 8 0
BBX 7 13 0 -1
BITMAP
3A
6C
00
06
C6
E6
F6
D6
DE
CE
C6
C6
C0
ENDCHAR
STARTCHAR g138
ENCODING 210
SWIDTH 800 0
DWIDTH 8 0
BBX 7 13 0 -1
BITMAP
30
18
00
1C
7E
66
E6
C6
C6
C6
EE
7C
38
ENDCHAR
STARTCHAR g139
ENCODING 211
SWIDTH 800 0
DWIDTH 8 0
BBX 7 13 0 -1
BITMAP
0C
18
00
1C
7E
66
E6
C6
C6
C6
EE
7C
38
ENDCHAR
STARTCHAR g140
ENCODING 212
SWIDTH 800 0
DWIDTH 8 0
BBX 7 13 0 -1
BITMAP
18
2C
00
1C
7E
66
E6
C6
C6
C6
EE
7C
38
ENDCHAR
STARTCHAR g141
ENCODING 213
SWIDTH 800 0
DWIDTH 8 0
BBX 7 13 0 -1
BITMAP
3A
6E
00
1C
7E
66
E6
C6
C6
C6
EE
7C
38
ENDCHAR
STARTCHAR g142
ENCODING 214
SWIDTH 800 0
DWIDTH 8 0
BBX 7 13 0 -1
BITMAP
0C
6C
60
1C
7E
66
E6
C6
C6
C6
EE
7C
38
ENDCHAR
STARTCHAR g143
ENCODING 216
SWIDTH 800 0
DWIDTH 8 0
BBX 8 12 0 -2
BITMAP
03
1F
7E
66
EE
DE
D6
F6
EC
7C
F0
C0
ENDCHAR
STARTCHAR g144
ENCODING 217
SWIDTH 900 0
DWIDTH 9 0
BBX 8 13 1 -1
BITMAP
18
18
0C
60
66
E6
C6
C6
C6
CE
EF
7B
38
ENDCHAR
STARTCHAR g145
ENCODING 218
SWIDTH 900 0
DWIDTH 9 0
BBX 8 13 1 -1
BITMAP
0C
18
00
60
66
E6
C6
C6
C6
CE
EF
7B
38
ENDCHAR
STARTCHAR g146
ENCODING 219
SWIDTH 1000 0
DWIDTH 10 0
BBX 8 13 1 -1
BITMAP
0C
16
00
60
66
E6
C6
C6
C6
CE
EF
7B
38
ENDCHAR
STARTCHAR g147
ENCODING 220
SWIDTH 800 0
DWIDTH 8 0
BBX 8 13 0 -1
BITMAP
60
66
06
60
66
E6
C6
C6
C6
CE
EF
7B
38
ENDCHAR
STARTCHAR g148
ENCODING 223
SWIDTH 900 0
DWIDTH 9 0
BBX 8 9 0 0
BITMAP
3C
76
66
6C
66
63
63
6F
EE
ENDCHAR
STARTCHAR g149
ENCODING 224
SWIDTH 700 0
DWIDTH 7 0
BBX 7 10 0 0
BITMAP
30
18
00
38
7C
EC
CC
CC
FE
76
ENDCHAR
STARTCHAR g150
ENCODING 225
SWIDTH 700 0
DWIDTH 7 0
BBX 7 10 0 0
BITMAP
18
30
00
38
7C
EC
CC
CC
FE
76
ENDCHAR
STARTCHAR g151
ENCODING 226
SWIDTH 700 0
DWIDTH 7 0
BBX 7 10 0 0
BITMAP
18
2C
00
38
7C
EC
CC
CC
FE
76
ENDCHAR
STARTCHAR g152
ENCODING 227
SWIDTH 700 0
DWIDTH 7 0
BBX 7 10 0 0
BITMAP
34
58
00
38
7C
EC
CC
CC
FE
76
ENDCHAR
STARTCHAR g153
ENCODING 228
SWIDTH 700 0
DWIDTH 7 0
BBX 7 10 0 0
BITMAP
6C
6C
00
38
7C
EC
CC
CC
FE
76
ENDCHAR
STARTCHAR g154
ENCODING 229
SWIDTH 700 0
DWIDTH 7 0
BBX 7 11 0 0
BITMAP
38
28
38
00
38
7C
EC
CC
CC
FE
76
ENDCHAR
STARTCHAR g155
ENCODING 230
SWIDTH 1100 0
DWIDTH 11 0
BBX 10 7 0 0
BITMAP
1B80
7FC0
6EC0
CF80
DE00
FFC0
6B80
ENDCHAR
STARTCHAR g156
ENCODING 231
SWIDTH 700 0
DWIDTH 7 0
BBX 6 9 0 -2
BITMAP
38
7C
E8
C0
C0
FC
7C
30
60
ENDCHAR
STARTCHAR g157
ENCODING 232
SWIDTH 700 0
DWIDTH 7 0
BBX 6 10 0 0
BITMAP
30
18
00
38
7C
CC
F8
C0
F8
78
ENDCHAR
STARTCHAR g158
ENCODING 233
SWIDTH 700 0
DWIDTH 7 0
BBX 6 10 0 0
BITMAP
18
30
00
38
7C
CC
F8
C0
F8
78
ENDCHAR
STARTCHAR g159
ENCODING 234
SWIDTH 700 0
DWIDTH 7 0
BBX 6 10 0 0
BITMAP
18
2C
00
38
7C
CC
F8
C0
F8
78
ENDCHAR
STARTCHAR g160
ENCODING 235
SWIDTH 700 0
DWIDTH 7 0
BBX 6 10 0 0
BITMAP
6C
6C
00
38
7C
CC
F8
C0
F8
78
ENDCHAR
STARTCHAR g161
ENCODING 236
SWIDTH 500 0
DWIDTH 5 0
BBX 3 10 0 0
BITMAP
80
C0
60
00
60
60
60
60
60
60
ENDCHAR
STARTCHAR g162
ENCODING 237
SWIDTH 500 0
DWIDTH 5 0
BBX 3 10 1 0
BITMAP
20
60
C0
00
C0
C0
C0
C0
C0
C0
ENDCHAR
STARTCHAR g163
ENCODING 238
SWIDTH 500 0
DWIDTH 5 0
BBX 4 10 0 0
BITMAP
20
70
90
00
60
60
60
60
60
60
ENDCHAR
STARTCHAR g164
ENCODING 239
SWIDTH 500 0
DWIDTH 5 0
BBX 5 9 0 0
BITMAP
D8
D8
00
60
60
60
60
60
60
ENDCHAR
STARTCHAR g165
ENCODING 241
SWIDTH 700 0
DWIDTH 7 0
BBX 6 11 0 -1
BITMAP
74
D8
00
D8
FC
EC
CC
CC
CC
CC
08
ENDCHAR
STARTCHAR g166
ENCODING 242
SWIDTH 700 0
DWIDTH 7 0
BBX 6 10 0 0
BITMAP
30
18
00
38
7C
EC
CC
DC
F8
70
ENDCHAR
STARTCHAR g167
ENCODING 243
SWIDTH 700 0
DWIDTH 7 0
BBX 6 11 0 0
BITMAP
08
18
30
00
38
7C
EC
CC
DC
F8
70
ENDCHAR
STARTCHAR g168
ENCODING 244
SWIDTH 700 0
DWIDTH 7 0
BBX 6 10 0 0
BITMAP
18
2C
00
38
7C
EC
CC
DC
F8
70
ENDCHAR
STARTCHAR g169
ENCODING 245
SWIDTH 700 0
DWIDTH 7 0
BBX 6 10 0 0
BITMAP
34
58
00
38
7C
EC
CC
DC
F8
70
ENDCHAR
STARTCHAR g170
ENCODING 246
SWIDTH 700 0
DWIDTH 7 0
BBX 6 10 0 0
BITMAP
6C
6C
00
38
7C
EC
CC
DC
F8
70
ENDCHAR
STARTCHAR g171
ENCODING 247
SWIDTH 700 0
DWIDTH 7 0
BBX 5 8 1 0
BITMAP
30
30
00
F8
F8
00
60
60
ENDCHAR
STARTCHAR g172
ENCODING 248
SWIDTH 700 0
DWIDTH 7 0
BBX 7 7 0 0
BITMAP
3A
7E
6C
7C
6C
FC
B8
ENDCHAR
STARTCHAR g173
ENCODING 249
SWIDTH 700 0
DWIDTH 7 0
BBX 7 10 0 0
BITMAP
30
18
00
60
6C
CC
CC
DC
FC
76
ENDCHAR
STARTCHAR g174
ENCODING 250
SWIDTH 700 0
DWIDTH 7 0
BBX 7 10 0 0
BITMAP
06
1C
08
60
6C
CC
CC
DC
FC
76
ENDCHAR
STARTCHAR g175
ENCODING 251
SWIDTH 700 0
DWIDTH 7 0
BBX 7 10 0 0
BITMAP
18
2C
00
60
6C
CC
CC
DC
FC
76
ENDCHAR
STARTCHAR g176
ENCODING 252
SWIDTH 700 0
DWIDTH 7 0
BBX 7 10 0 0
BITMAP
6C
6C
00
60
6C
CC
CC
DC
FC
76
ENDCHAR
STARTCHAR g177
ENCODING 255
SWIDTH 800 0
DWIDTH 8 0
BBX 6 14 1 -3
BITMAP
0C
CC
C0
0C
CC
D8
D8
78
70
30
60
60
C0
C0
ENDCHAR
STARTCHAR g178
ENCODING 305
SWIDTH 500 0
DWIDTH 5 0
BBX 2 7 1 0
BITMAP
C0
C0
C0
C0
C0
C0
C0
ENDCHAR
STARTCHAR g179
ENCODING 338
SWIDTH 1200 0
DWIDTH 12 0
BBX 11 11 0 -1
BITMAP
0060
1FE0
7F80
6600
E6C0
C7C0
C700
C660
EFE0
7F80
3800
ENDCHAR
STARTCHAR g180
ENCODING 339
SWIDTH 1100 0
DWIDTH 11 0
BBX 10 7 0 0
BITMAP
3380
7FC0
EEC0
CF80
DF00
FBC0
7180
ENDCHAR
STARTCHAR g181
ENCODING 376
SWIDTH 800 0
DWIDTH 8 0
BBX 8 13 0 -1
BITMAP
6C
6C
00
C3
C6
CE
6C
78
38
30
30
30
30
ENDCHAR
STARTCHAR g182
ENCODING 402
SWIDTH 500 0
DWIDTH 5 0
BBX 5 12 0 -3
BITMAP
18
38
30
60
F8
60
60
60
60
C0
C0
C0
ENDCHAR
STARTCHAR g183
ENCODING 710
SWIDTH 800 0
DWIDTH 8 0
BBX 5 3 1 8
BITMAP
20
70
D8
ENDCHAR
STARTCHAR g184
ENCODING 711
SWIDTH 800 0
DWIDTH 8 0
BBX 6 3 1 8
BITMAP
CC
78
30
ENDCHAR
STARTCHAR g185
ENCODING 728
SWIDTH 800 0
DWIDTH 8 0
BBX 5 2 1 7
BITMAP
D8
70
ENDCHAR
STARTCHAR g186
ENCODING 729
SWIDTH 600 0
DWIDTH 6 0
BBX 2 2 2 8
BITMAP
C0
C0
ENDCHAR
STARTCHAR g187
ENCODING 730
SWIDTH 800 0
DWIDTH 8 0
BBX 3 3 2 8
BITMAP
E0
A0
E0
ENDCHAR
STARTCHAR g188
ENCODING 731
SWIDTH 800 0
DWIDTH 8 0
BBX 3 3 3 -3
BITMAP
C0
C0
60
ENDCHAR
STARTCHAR g189
ENCODING 732
SWIDTH 800 0
DWIDTH 8 0
BBX 7 2 1 8
BITMAP
76
DC
ENDCHAR
STARTCHAR g190
ENCODING 733
SWIDTH 800 0
DWIDTH 8 0
BBX 7 3 1 8
BITMAP
36
6C
D8
ENDCHAR
STARTCHAR g191
ENCODING 960
SWIDTH 1000 0
DWIDTH 10 0
BBX 8 8 1 0
BITMAP
1F
FE
B6
36
36
36
36
24
ENDCHAR
STARTCHAR g192
ENCODING 8211
SWIDTH 600 0
DWIDTH 6 0
BBX 4 2 1 3
BITMAP
F0
F0
ENDCHAR
STARTCHAR g193
ENCODING 8212
SWIDTH 900 0
DWIDTH 9 0
BBX 7 2 1 3
BITMAP
FE
FE
ENDCHAR
STARTCHAR g194
ENCODING 8216
SWIDTH 400 0
DWIDTH 4 0
BBX 3 4 0 6
BITMAP
60
C0
E0
40
ENDCHAR
STARTCHAR g195
ENCODING 8217
SWIDTH 400 0
DWIDTH 4 0
BBX 3 4 0 6
BITMAP
C0
E0
60
40
ENDCHAR
STARTCHAR g196
ENCODING 8218
SWIDTH 400 0
DWIDTH 4 0
BBX 3 4 0 -2
BITMAP
C0
E0
60
40
ENDCHAR
STARTCHAR g197
ENCODING 8220
SWIDTH 700 0
DWIDTH 7 0
BBX 5 5 1 5
BITMAP
60
D8
F0
F8
18
ENDCHAR
STARTCHAR g198
ENCODING 8221
SWIDTH 700 0
DWIDTH 7 0
BBX 6 5 0 5
BITMAP
18
DC
EC
6C
68
ENDCHAR
STARTCHAR g199
ENCODING 8222
SWIDTH 700 0
DWIDTH 7 0
BBX 6 4 0 -2
BITMAP
D8
FC
6C
48
ENDCHAR
STARTCHAR g200
ENCODING 8224
SWIDTH 600 0
DWIDTH 6 0
BBX 4 7 1 2
BITMAP
60
F0
F0
60
60
60
60
ENDCHAR
STARTCHAR g201
ENCODING 8225
SWIDTH 600 0
DWIDTH 6 0
BBX 4 8 1 1
BITMAP
60
60
F0
60
60
F0
60
60
ENDCHAR
STARTCHAR g202
ENCODING 8226
SWIDTH 800 0
DWIDTH 8 0
BBX 6 6 1 1
BITMAP
78
FC
FC
FC
FC
78
ENDCHAR
STARTCHAR g203
ENCODING 8230
SWIDTH 1000 0
DWIDTH 10 0
BBX 8 2 1 0
BITMAP
DB
DB
ENDCHAR
STARTCHAR g204
ENCODING 8240
SWIDTH 1100 0
DWIDTH 11 0
BBX 11 11 0 -1
BITMAP
7180
FF00
DEC0
F7E0
6F60
1DC0
1F00
3580
3F80
6700
6000
ENDCHAR
STARTCHAR g205
ENCODING 8249
SWIDTH 700 0
DWIDTH 7 0
BBX 5 7 1 1
BITMAP
18
38
70
E0
70
38
18
ENDCHAR
STARTCHAR g206
ENCODING 8250
SWIDTH 700 0
DWIDTH 7 0
BBX 5 7 1 1
BITMAP
C0
E0
70
38
70
E0
C0
ENDCHAR
STARTCHAR g207
ENCODING 8260
SWIDTH 700 0
DWIDTH 7 0
BBX 7 10 0 -1
BITMAP
06
0E
0C
18
38
30
60
60
E0
C0
ENDCHAR
STARTCHAR g208
ENCODING 8482
SWIDTH 1100 0
DWIDTH 11 0
BBX 9 5 1 5
BITMAP
1000
F880
6D80
6F80
6D80
ENDCHAR
STARTCHAR g209
ENCODING 8486
SWIDTH 1000 0
DWIDTH 10 0
BBX 8 10 1 -1
BITMAP
3C
7E
E7
C3
C3
C3
66
EC
EF
07
ENDCHAR
STARTCHAR g210
ENCODING 8706
SWIDTH 700 0
DWIDTH 7 0
BBX 6 9 1 0
BITMAP
60
70
18
3C
68
C8
D8
F0
60
ENDCHAR
STARTCHAR g211
ENCODING 8710
SWIDTH 900 0
DWIDTH 9 0
BBX 8 11 1 -2
BITMAP
0C
0C
1C
36
36
66
63
C3
DF
FC
C0
ENDCHAR
STARTCHAR g212
ENCODING 8719
SWIDTH 900 0
DWIDTH 9 0
BBX 7 10 1 0
BITMAP
FE
FE
6C
6C
6C
6C
6C
6C
6C
6C
ENDCHAR
STARTCHAR g213
ENCODING 8721
SWIDTH 800 0
DWIDTH 8 0
BBX 7 10 0 -1
BITMAP
3E
7C
70
38
1C
18
30
66
FE
78
ENDCHAR
STARTCHAR g214
ENCODING 8730
SWIDTH 1000 0
DWIDTH 10 0
BBX 8 10 0 0
BITMAP
03
03
06
06
8C
CC
F8
B8
10
10
ENDCHAR
STARTCHAR g215
ENCODING 8734
SWIDTH 1100 0
DWIDTH 11 0
BBX 9 5 1 1
BITMAP
6300
F780
DD80
FD80
6700
ENDCHAR
STARTCHAR g216
ENCODING 8747
SWIDTH 500 0
DWIDTH 5 0
BBX 4 12 0 -3
BITMAP
30
60
60
60
60
60
60
60
60
60
60
C0
ENDCHAR
STARTCHAR g217
ENCODING 8776
SWIDTH 800 0
DWIDTH 8 0
BBX 6 5 1 1
BITMAP
6C
B8
00
6C
B8
ENDCHAR
STARTCHAR g218
ENCODING 8800
SWIDTH 800 0
DWIDTH 8 0
BBX 6 7 1 -1
BITMAP
08
7C
7C
30
F8
F8
40
ENDCHAR
STARTCHAR g219
ENCODING 8804
SWIDTH 600 0
DWIDTH 6 0
BBX 4 8 1 0
BITMAP
30
F0
E0
70
30
00
F0
F0
ENDCHAR
STARTCHAR g220
ENCODING 8805
SWIDTH 600 0
DWIDTH 6 0
BBX 4 8 1 0
BITMAP
C0
F0
70
E0
C0
00
F0
F0
ENDCHAR
STARTCHAR g221
ENCODING 9674
SWIDTH 1000 0
DWIDTH 10 0
BBX 9 10 0 0
BITMAP
0C00
3E00
7700
E300
C180
6380
7700
3E00
1C00
0800
ENDCHAR
STARTCHAR g222
ENCODING 63252
SWIDTH 800 0
DWIDTH 8 0
BBX 6 8 1 0
BITMAP
70
F8
DC
DC
EC
EC
78
38
ENDCHAR
STARTCHAR g223
ENCODING 63253
SWIDTH 500 0
DWIDTH 5 0
BBX 4 9 0 0
BITMAP
F0
F0
60
60
60
60
60
F0
F0
ENDCHAR
STARTCHAR g224
ENCODING 63254
SWIDTH 400 0
DWIDTH 4 0
BBX 4 10 0 0
BITMAP
C0
E0
60
60
60
60
60
60
70
30
ENDCHAR
STARTCHAR g225
ENCODING 63487
SWIDTH 1200 0
DWIDTH 12 0
BBX 0 0 0 0
BITMAP
ENDCHAR
STARTCHAR g226
ENCODING 64257
SWIDTH 800 0
DWIDTH 8 0
BBX 6 10 0 0
BITMAP
38
7C
6C
70
EC
EC
6C
6C
6C
6C
ENDCHAR
STARTCHAR g227
ENCODING 64258
SWIDTH 800 0
DWIDTH 8 0
BBX 7 10 0 0
BITMAP
3E
7E
66
76
F6
E6
66
66
66
66
ENDCHAR
STARTCHAR g228
ENCODING 64512
SWIDTH 1000 0
DWIDTH 10 0
BBX 8 9 1 0
BITMAP
FF
81
81
81
81
81
81
81
FF
ENDCHAR
STARTCHAR g229
ENCODING 64513
SWIDTH 1000 0
DWIDTH 10 0
BBX 8 9 1 0
BITMAP
FF
81
81
81
81
81
81
81
FF
ENDCHAR
STARTCHAR g230
ENCODING 64514
SWIDTH 1000 0
DWIDTH 10 0
BBX 8 9 1 0
BITMAP
FF
81
81
81
81
81
81
81
FF
ENDCHAR
STARTCHAR g231
ENCODING 64515
SWIDTH 1000 0
DWIDTH 10 0
BBX 8 9 1 0
BITMAP
FF
81
81
81
81
81
81
81
FF
ENDCHAR
STARTCHAR g232
ENCODING 64516
SWIDTH 1000 0
DWIDTH 10 0
BBX 8 9 1 0
BITMAP
FF
81
81
81
81
81
81
81
FF
ENDCHAR
STARTCHAR g233
ENCODING 64517
SWIDTH 1000 0
DWIDTH 10 0
BBX 8 9 1 0
BITMAP
FF
81
81
81
81
81
81
81
FF
ENDCHAR
STARTCHAR g234
ENCODING 64518
SWIDTH 1000 0
DWIDTH 10 0
BBX 8 9 1 0
BITMAP
FF
81
81
81
81
81
81
81
FF
ENDCHAR
STARTCHAR g235
ENCODING 64519
SWIDTH 1000 0
DWIDTH 10 0
BBX 8 9 1 0
BITMAP
FF
81
81
81
81
81
81
81
FF
ENDCHAR
STARTCHAR g236
ENCODING 64520
SWIDTH 1000 0
DWIDTH 10 0
BBX 8 9 1 0
BITMAP
FF
81
81
81
81
81
81
81
FF
ENDCHAR
STARTCHAR g237
ENCODING 64521
SWIDTH 1000 0
DWIDTH 10 0
BBX 8 9 1 0
BITMAP
FF
81
81
81
81
81
81
81
FF
ENDCHAR
STARTCHAR g238
ENCODING 64522
SWIDTH 1000 0
DWIDTH 10 0
BBX 8 9 1 0
BITMAP
FF
81
81
81
81
81
81
81
FF
ENDCHAR
STARTCHAR g239
ENCODING 64523
SWIDTH 1000 0
DWIDTH 10 0
BBX 8 9 1 0
BITMAP
FF
81
81
81
81
81
81
81
FF
ENDCHAR
STARTCHAR g240
ENCODING 64524
SWIDTH 1000 0
DWIDTH 10 0
BBX 8 9 1 0
BITMAP
FF
81
81
81
81
81
81
81
FF
ENDCHAR
STARTCHAR g241
ENCODING 64525
SWIDTH 1000 0
DWIDTH 10 0
BBX 8 9 1 0
BITMAP
FF
81
81
81
81
81
81
81
FF
ENDCHAR
STARTCHAR g242
ENCODING 64526
SWIDTH 1000 0
DWIDTH 10 0
BBX 8 9 1 0
BITMAP
FF
81
81
81
81
81
81
81
FF
ENDCHAR
STARTCHAR g243
ENCODING 64527
SWIDTH 1000 0
DWIDTH 10 0
BBX 8 9 1 0
BITMAP
FF
81
81
81
81
81
81
81
FF
ENDCHAR
ENDFONT
