STARTFONT 2.1
COMMENT Strike 2 of a Newton 'sfnt' font (bloc/bdat): tools/fonts/newtonsfnt.py,
COMMENT tools/fonts/README.md.  The builder reads the BLOC_* properties and the
COMMENT glyphs - STARTCHAR gN (N the glyph id; otherwise ENCODING through 'cmap'),
COMMENT DWIDTH (the advance), BBX (width, height, the bearing x, the bottom row's
COMMENT y: bearing y less the height) and the BITMAP rows.  A glyph id in the
COMMENT subtable ranges with no glyph here has no image (the missing glyph is 0).
COMMENT The other properties, SIZE, FONTBOUNDINGBOX and SWIDTH are worked out and
COMMENT not read back: change BLOC_HORI_* (the line metrics the ROM draws text by)
COMMENT to match an edit that changes the strike's extent.
FONT -Apple-Roman Regular-Medium-R-Normal--18-180-72-72-P-0-Apple-Roman
SIZE 18 72 72
FONTBOUNDINGBOX 20 21 -2 -4
STARTPROPERTIES 37
FONT_ASCENT 17
FONT_DESCENT 5
PIXEL_SIZE 18
FAMILY_NAME "Roman Regular"
BLOC_COLOR_REF 0
BLOC_HORI_ASCENDER 17
BLOC_HORI_DESCENDER -5
BLOC_HORI_WIDTH_MAX 18
BLOC_HORI_CARET_SLOPE_NUMERATOR 0
BLOC_HORI_CARET_SLOPE_DENOMINATOR 1
BLOC_HORI_CARET_OFFSET 0
BLOC_HORI_MIN_ORIGIN_SB -2
BLOC_HORI_MIN_ADVANCE_SB -1
BLOC_HORI_MAX_BEFORE_BL 17
BLOC_HORI_MIN_AFTER_BL -4
BLOC_HORI_PAD1 0
BLOC_HORI_PAD2 0
BLOC_VERT_ASCENDER 0
BLOC_VERT_DESCENDER -1
BLOC_VERT_WIDTH_MAX 21
BLOC_VERT_CARET_SLOPE_NUMERATOR 0
BLOC_VERT_CARET_SLOPE_DENOMINATOR 1
BLOC_VERT_CARET_OFFSET 0
BLOC_VERT_MIN_ORIGIN_SB 48
BLOC_VERT_MIN_ADVANCE_SB 60
BLOC_VERT_MAX_BEFORE_BL 0
BLOC_VERT_MIN_AFTER_BL -11
BLOC_VERT_PAD1 0
BLOC_VERT_PAD2 0
BLOC_START_GLYPH 0
BLOC_END_GLYPH 257
BLOC_PPEM_X 18
BLOC_PPEM_Y 18
BLOC_BIT_DEPTH 1
BLOC_FLAGS 1
BLOC_INDEX_SUBTABLES 1
BLOC_INDEX_SUBTABLE_0 "0 257 3 1 0"
ENDPROPERTIES
CHARS 244
STARTCHAR g0
ENCODING -1
SWIDTH 778 0
DWIDTH 14 0
BBX 11 14 1 0
BITMAP
FFE0
8020
8020
8020
8020
8020
8020
8020
8020
8020
8020
8020
8020
FFE0
ENDCHAR
STARTCHAR g1
ENCODING 0
SWIDTH 0 0
DWIDTH 0 0
BBX 0 0 0 0
BITMAP
ENDCHAR
STARTCHAR g2
ENCODING 1
SWIDTH 333 0
DWIDTH 6 0
BBX 0 0 0 0
BITMAP
ENDCHAR
STARTCHAR g3
ENCODING 2
SWIDTH 333 0
DWIDTH 6 0
BBX 4 15 1 -1
BITMAP
20
70
70
F0
F0
F0
E0
60
60
60
00
60
F0
F0
60
ENDCHAR
STARTCHAR g4
ENCODING 3
SWIDTH 500 0
DWIDTH 9 0
BBX 7 7 1 7
BITMAP
66
EE
EE
EE
EE
EE
CC
ENDCHAR
STARTCHAR g5
ENCODING 4
SWIDTH 778 0
DWIDTH 14 0
BBX 14 14 0 0
BITMAP
0060
0CE0
1CFC
1FF8
7FE0
FCE0
1CE0
1CE0
7FFC
FFF8
1CE0
1CE0
1CC0
0800
ENDCHAR
STARTCHAR g6
ENCODING 5
SWIDTH 667 0
DWIDTH 12 0
BBX 11 17 0 -3
BITMAP
0300
0700
1FC0
37E0
76E0
7E00
7E00
3F80
0FC0
0FC0
0DE0
6CE0
FDE0
7FC0
1F80
1C00
0800
ENDCHAR
STARTCHAR g7
ENCODING 6
SWIDTH 778 0
DWIDTH 14 0
BBX 14 17 0 -2
BITMAP
380C
7C1C
EFFC
E7F8
EF70
7EE0
39C0
01C0
0380
0738
077C
0E6C
1C7C
1C38
3800
3800
3000
ENDCHAR
STARTCHAR g8
ENCODING 7
SWIDTH 611 0
DWIDTH 11 0
BBX 11 13 0 0
BITMAP
1E00
3F00
7300
7000
7860
38E0
7380
E7C0
E0C0
F1C0
7FC0
7F80
1E00
ENDCHAR
STARTCHAR g9
ENCODING 8
SWIDTH 278 0
DWIDTH 5 0
BBX 3 7 1 6
BITMAP
60
E0
E0
E0
E0
E0
C0
ENDCHAR
STARTCHAR g10
ENCODING 9
SWIDTH 389 0
DWIDTH 7 0
BBX 5 17 1 -3
BITMAP
10
30
78
70
F0
E0
E0
E0
E0
E0
E0
E0
70
70
78
38
10
ENDCHAR
STARTCHAR g11
ENCODING 10
SWIDTH 389 0
DWIDTH 7 0
BBX 5 16 1 -2
BITMAP
40
E0
70
70
38
38
38
38
38
38
38
38
70
70
F0
60
ENDCHAR
STARTCHAR g12
ENCODING 11
SWIDTH 667 0
DWIDTH 12 0
BBX 10 9 1 6
BITMAP
0C00
0C00
EDC0
FFC0
1E00
1E00
7780
7380
2100
ENDCHAR
STARTCHAR g13
ENCODING 12
SWIDTH 556 0
DWIDTH 10 0
BBX 9 11 0 -1
BITMAP
0800
1C00
1C00
1C00
7F80
FF80
FF00
1C00
1C00
1C00
0800
ENDCHAR
STARTCHAR g14
ENCODING 44
SWIDTH 278 0
DWIDTH 5 0
BBX 4 5 0 -2
BITMAP
60
F0
70
30
60
ENDCHAR
STARTCHAR g15
ENCODING 45
SWIDTH 556 0
DWIDTH 10 0
BBX 8 3 1 3
BITMAP
7F
FF
7E
ENDCHAR
STARTCHAR g16
ENCODING 46
SWIDTH 333 0
DWIDTH 6 0
BBX 4 4 1 0
BITMAP
60
F0
F0
60
ENDCHAR
STARTCHAR g17
ENCODING 47
SWIDTH 556 0
DWIDTH 10 0
BBX 8 16 1 -2
BITMAP
02
07
07
0E
0E
1E
1C
38
38
38
70
70
E0
E0
E0
C0
ENDCHAR
STARTCHAR g18
ENCODING 48
SWIDTH 611 0
DWIDTH 11 0
BBX 10 12 0 0
BITMAP
1E00
3F00
7780
7380
E1C0
E1C0
E1C0
E1C0
7180
7B80
3F80
1E00
ENDCHAR
STARTCHAR g19
ENCODING 49
SWIDTH 611 0
DWIDTH 11 0
BBX 5 12 2 0
BITMAP
10
38
78
F8
38
38
38
38
38
38
38
38
ENDCHAR
STARTCHAR g20
ENCODING 50
SWIDTH 611 0
DWIDTH 11 0
BBX 10 12 0 0
BITMAP
1C00
3F00
7780
3380
0780
0700
0F00
1E00
1C00
7980
FFC0
7F80
ENDCHAR
STARTCHAR g21
ENCODING 51
SWIDTH 611 0
DWIDTH 11 0
BBX 10 14 0 -2
BITMAP
3E00
FF00
F780
C380
0F80
3F00
3F80
03C0
01C0
03C0
0380
6F80
7F00
1C00
ENDCHAR
STARTCHAR g22
ENCODING 52
SWIDTH 611 0
DWIDTH 11 0
BBX 10 14 0 -2
BITMAP
0100
0380
3380
3B80
7B80
7380
7380
FF80
FFC0
3FC0
0700
0700
0700
0600
ENDCHAR
STARTCHAR g23
ENCODING 53
SWIDTH 611 0
DWIDTH 11 0
BBX 9 14 1 -2
BITMAP
1E00
FF00
FE00
E000
C000
FE00
FF00
3F80
0380
0380
0780
FF00
FF00
3C00
ENDCHAR
STARTCHAR g24
ENCODING 54
SWIDTH 611 0
DWIDTH 11 0
BBX 10 13 0 0
BITMAP
1800
3C00
7800
7000
E000
E700
FF80
FBC0
E1C0
F1C0
7B80
7F80
1E00
ENDCHAR
STARTCHAR g25
ENCODING 55
SWIDTH 611 0
DWIDTH 11 0
BBX 10 14 0 -2
BITMAP
01C0
1FC0
FFC0
FB80
6380
0380
0700
0700
0600
0E00
0E00
1E00
1C00
1C00
ENDCHAR
STARTCHAR g26
ENCODING 56
SWIDTH 611 0
DWIDTH 11 0
BBX 9 14 1 -1
BITMAP
0F00
3F80
7380
7380
7700
3F00
1E00
3F00
7380
7380
E380
EF00
FF00
7C00
ENDCHAR
STARTCHAR g27
ENCODING 57
SWIDTH 611 0
DWIDTH 11 0
BBX 9 14 1 -2
BITMAP
3C00
7E00
E780
E380
C380
EF00
FF00
7700
0700
0E00
0E00
1C00
1C00
1800
ENDCHAR
STARTCHAR g28
ENCODING 58
SWIDTH 333 0
DWIDTH 6 0
BBX 4 10 1 0
BITMAP
60
F0
F0
60
00
00
60
F0
F0
60
ENDCHAR
STARTCHAR g29
ENCODING 59
SWIDTH 333 0
DWIDTH 6 0
BBX 5 13 0 -3
BITMAP
30
78
78
30
00
00
30
78
78
30
70
60
C0
ENDCHAR
STARTCHAR g30
ENCODING 60
SWIDTH 556 0
DWIDTH 10 0
BBX 8 9 1 1
BITMAP
06
1E
3E
78
F0
7C
3E
0F
03
ENDCHAR
STARTCHAR g31
ENCODING 61
SWIDTH 556 0
DWIDTH 10 0
BBX 8 7 1 1
BITMAP
3E
FF
7F
00
3E
FF
7E
ENDCHAR
STARTCHAR g32
ENCODING 62
SWIDTH 556 0
DWIDTH 10 0
BBX 8 10 1 0
BITMAP
60
F8
7C
1F
07
1F
7E
F8
E0
40
ENDCHAR
STARTCHAR g33
ENCODING 63
SWIDTH 556 0
DWIDTH 10 0
BBX 8 16 1 -2
BITMAP
1C
7E
7F
F7
67
0F
1E
3C
38
38
1C
00
18
3C
3C
18
ENDCHAR
STARTCHAR g34
ENCODING 64
SWIDTH 889 0
DWIDTH 16 0
BBX 15 14 1 -1
BITMAP
07E0
1FF8
3E3C
718C
73EE
E766
E66C
E66C
E6FC
E7B0
7100
7C1C
3FF8
0FE0
ENDCHAR
STARTCHAR g35
ENCODING 65
SWIDTH 722 0
DWIDTH 13 0
BBX 11 14 1 -1
BITMAP
0600
0F00
1F00
1B80
3B80
3B80
39C0
71C0
7FE0
7FC0
E0E0
E0E0
E0E0
0040
ENDCHAR
STARTCHAR g36
ENCODING 66
SWIDTH 611 0
DWIDTH 11 0
BBX 10 14 0 -1
BITMAP
3E00
FF80
F3C0
71C0
73C0
7780
7F00
7F80
73C0
71C0
73C0
7F80
7F00
6000
ENDCHAR
STARTCHAR g37
ENCODING 67
SWIDTH 611 0
DWIDTH 11 0
BBX 9 14 1 -1
BITMAP
1F00
3F80
7B80
7380
F100
E000
E000
E000
E000
E180
F380
7F00
7F00
1C00
ENDCHAR
STARTCHAR g38
ENCODING 68
SWIDTH 722 0
DWIDTH 13 0
BBX 12 14 0 -1
BITMAP
1F00
7FC0
FFE0
71E0
3870
3870
3870
3870
3870
38F0
39E0
3FE0
3F80
3E00
ENDCHAR
STARTCHAR g39
ENCODING 69
SWIDTH 611 0
DWIDTH 11 0
BBX 10 14 0 0
BITMAP
0380
1FC0
3F80
FC00
F000
7300
7F00
FF00
FC00
7000
7080
7FC0
7FC0
3F00
ENDCHAR
STARTCHAR g40
ENCODING 70
SWIDTH 500 0
DWIDTH 9 0
BBX 9 16 0 -2
BITMAP
0300
1F80
7F80
FE00
3800
3800
3B80
3F80
7F00
7C00
1C00
1C00
1C00
1C00
1C00
1800
ENDCHAR
STARTCHAR g41
ENCODING 71
SWIDTH 667 0
DWIDTH 12 0
BBX 11 13 0 0
BITMAP
0F80
3FC0
7DC0
7000
F000
E1E0
E7E0
E7C0
E0C0
71C0
7FC0
7F80
1E00
ENDCHAR
STARTCHAR g42
ENCODING 72
SWIDTH 611 0
DWIDTH 11 0
BBX 11 15 0 -1
BITMAP
00C0
31C0
71C0
71C0
71C0
71C0
7FE0
FFE0
FFC0
71C0
71C0
71C0
71C0
7180
6000
ENDCHAR
STARTCHAR g43
ENCODING 73
SWIDTH 389 0
DWIDTH 7 0
BBX 5 14 1 -1
BITMAP
38
F8
F0
70
70
70
70
70
70
70
78
78
F8
E0
ENDCHAR
STARTCHAR g44
ENCODING 74
SWIDTH 500 0
DWIDTH 9 0
BBX 8 15 0 -2
BITMAP
03
07
07
07
07
07
07
07
07
07
C7
EE
FE
7C
38
ENDCHAR
STARTCHAR g45
ENCODING 75
SWIDTH 611 0
DWIDTH 11 0
BBX 11 15 0 -1
BITMAP
2000
7080
71C0
73C0
7780
7F00
FC00
FE00
7F00
7780
F3C0
E1E0
E0E0
E0C0
4000
ENDCHAR
STARTCHAR g46
ENCODING 76
SWIDTH 500 0
DWIDTH 9 0
BBX 9 13 0 0
BITMAP
3000
7000
7000
7000
7000
7000
7000
7000
7000
E000
FF80
FF80
7F00
ENDCHAR
STARTCHAR g47
ENCODING 77
SWIDTH 889 0
DWIDTH 16 0
BBX 14 15 1 -1
BITMAP
4060
6070
F0F0
F9F8
F9F8
FBB8
EFB8
EFBC
E71C
E71C
E31C
E21C
E01C
601C
0008
ENDCHAR
STARTCHAR g48
ENCODING 78
SWIDTH 722 0
DWIDTH 13 0
BBX 11 15 1 -1
BITMAP
0040
60E0
F0E0
F0E0
F8E0
FCE0
FDC0
EDC0
EFC0
E7C0
E780
E380
E380
E180
4000
ENDCHAR
STARTCHAR g49
ENCODING 79
SWIDTH 611 0
DWIDTH 11 0
BBX 10 15 0 -1
BITMAP
0600
1F80
3F80
7BC0
71C0
F1C0
E1C0
E1C0
E1C0
E1C0
F380
7380
7F80
3F00
0C00
ENDCHAR
STARTCHAR g50
ENCODING 80
SWIDTH 611 0
DWIDTH 11 0
BBX 10 14 0 -1
BITMAP
1F00
7F80
7FC0
71C0
71C0
73C0
7F80
FF80
FE00
7000
7000
7000
7000
6000
ENDCHAR
STARTCHAR g51
ENCODING 81
SWIDTH 667 0
DWIDTH 12 0
BBX 10 17 1 -3
BITMAP
1C00
3F00
7F80
7380
F1C0
E1C0
E1C0
E1C0
EDC0
EFC0
EF80
7F80
7F00
3E00
0780
07C0
0180
ENDCHAR
STARTCHAR g52
ENCODING 82
SWIDTH 611 0
DWIDTH 11 0
BBX 11 15 0 -1
BITMAP
1E00
7F00
FF80
63C0
31C0
71C0
73C0
7780
FF00
FE00
7F00
77C0
73E0
70C0
6000
ENDCHAR
STARTCHAR g53
ENCODING 83
SWIDTH 611 0
DWIDTH 11 0
BBX 11 13 0 0
BITMAP
0F80
3FE0
3DE0
78E0
7800
3F00
1FC0
07C0
E1E0
F0E0
7BE0
7FC0
1F80
ENDCHAR
STARTCHAR g54
ENCODING 84
SWIDTH 611 0
DWIDTH 11 0
BBX 11 15 0 -1
BITMAP
03E0
3FE0
FFC0
FE00
EE00
0E00
0E00
0E00
0E00
0E00
0E00
0E00
0E00
0E00
0C00
ENDCHAR
STARTCHAR g55
ENCODING 85
SWIDTH 667 0
DWIDTH 12 0
BBX 11 14 1 -1
BITMAP
2000
7100
7380
F380
E380
E380
E380
E380
E380
E3C0
F7C0
7FE0
7EC0
1800
ENDCHAR
STARTCHAR g56
ENCODING 86
SWIDTH 667 0
DWIDTH 12 0
BBX 10 14 1 -1
BITMAP
C180
E1C0
E3C0
E380
E780
E700
E700
7600
7E00
7E00
7C00
3800
3800
3000
ENDCHAR
STARTCHAR g57
ENCODING 87
SWIDTH 889 0
DWIDTH 16 0
BBX 15 16 0 -1
BITMAP
0004
000E
C00E
E38E
E38E
73CE
77CE
77CC
36DC
36DC
3EDC
3E78
1E78
1C78
1C38
0C00
ENDCHAR
STARTCHAR g58
ENCODING 88
SWIDTH 667 0
DWIDTH 12 0
BBX 11 14 0 0
BITMAP
0060
60E0
F0E0
79C0
3FC0
1F80
0F00
0F00
1F80
3B80
39C0
71E0
F0E0
E0E0
ENDCHAR
STARTCHAR g59
ENCODING 89
SWIDTH 556 0
DWIDTH 10 0
BBX 10 14 0 -1
BITMAP
C0C0
E1C0
E3C0
E780
7700
7F00
3E00
3C00
1C00
1C00
1C00
1C00
1C00
0800
ENDCHAR
STARTCHAR g60
ENCODING 90
SWIDTH 611 0
DWIDTH 11 0
BBX 12 14 0 -1
BITMAP
3C00
7FF0
1FF0
01E0
03C0
0380
0F00
1E00
3C00
3800
78C0
7FC0
FFC0
0700
ENDCHAR
STARTCHAR g61
ENCODING 91
SWIDTH 444 0
DWIDTH 8 0
BBX 5 16 2 -2
BITMAP
F0
F8
E0
E0
E0
E0
E0
E0
E0
E0
E0
E0
E0
E0
F0
F0
ENDCHAR
STARTCHAR g62
ENCODING 92
SWIDTH 556 0
DWIDTH 10 0
BBX 8 15 1 -2
BITMAP
C0
E0
E0
70
70
38
38
1C
1C
1C
0E
0E
07
07
03
ENDCHAR
STARTCHAR g63
ENCODING 93
SWIDTH 444 0
DWIDTH 8 0
BBX 5 17 1 -3
BITMAP
F8
F8
38
38
38
38
38
38
38
38
38
38
38
38
38
78
F0
ENDCHAR
STARTCHAR g64
ENCODING 94
SWIDTH 444 0
DWIDTH 8 0
BBX 6 6 1 5
BITMAP
30
30
78
FC
CC
CC
ENDCHAR
STARTCHAR g65
ENCODING 95
SWIDTH 667 0
DWIDTH 12 0
BBX 12 2 0 -2
BITMAP
FFF0
FFF0
ENDCHAR
STARTCHAR g66
ENCODING 96
SWIDTH 333 0
DWIDTH 6 0
BBX 4 4 1 10
BITMAP
C0
E0
60
30
ENDCHAR
STARTCHAR g67
ENCODING 97
SWIDTH 611 0
DWIDTH 11 0
BBX 10 11 0 0
BITMAP
0F00
3F80
7F80
7380
F380
E380
E380
F780
FFC0
7DC0
38C0
ENDCHAR
STARTCHAR g68
ENCODING 98
SWIDTH 611 0
DWIDTH 11 0
BBX 10 15 0 -1
BITMAP
2000
7000
7000
7000
7000
7700
7F80
7FC0
79C0
71C0
71C0
7BC0
FF80
FF80
4600
ENDCHAR
STARTCHAR g69
ENCODING 99
SWIDTH 500 0
DWIDTH 9 0
BBX 8 11 0 0
BITMAP
1E
3F
7B
70
E0
E0
E0
E3
F7
7E
3C
ENDCHAR
STARTCHAR g70
ENCODING 100
SWIDTH 556 0
DWIDTH 10 0
BBX 10 14 0 0
BITMAP
0180
0380
0380
0380
1B80
7F80
7F80
F380
E380
E380
E780
FF80
7FC0
39C0
ENDCHAR
STARTCHAR g71
ENCODING 101
SWIDTH 500 0
DWIDTH 9 0
BBX 8 11 0 0
BITMAP
1C
7E
7F
E7
EF
FE
FC
E0
F6
7F
3E
ENDCHAR
STARTCHAR g72
ENCODING 102
SWIDTH 444 0
DWIDTH 8 0
BBX 8 16 0 -2
BITMAP
1E
3F
76
70
76
7E
FC
F0
70
70
70
70
70
70
70
20
ENDCHAR
STARTCHAR g73
ENCODING 103
SWIDTH 611 0
DWIDTH 11 0
BBX 10 15 0 -4
BITMAP
3E80
7FC0
FFC0
E3C0
E1C0
F3C0
FFC0
7FC0
1DC0
01C0
63C0
7380
7F80
3F00
1E00
ENDCHAR
STARTCHAR g74
ENCODING 104
SWIDTH 611 0
DWIDTH 11 0
BBX 9 15 1 -1
BITMAP
4000
E000
E000
E000
E700
EF80
EF80
FB80
FB80
F380
E380
E700
E700
E700
0600
ENDCHAR
STARTCHAR g75
ENCODING 105
SWIDTH 333 0
DWIDTH 6 0
BBX 3 15 1 0
BITMAP
60
E0
E0
40
00
40
E0
E0
E0
E0
E0
E0
E0
E0
C0
ENDCHAR
STARTCHAR g76
ENCODING 106
SWIDTH 389 0
DWIDTH 7 0
BBX 7 18 -2 -4
BITMAP
06
0E
0E
04
00
0C
0E
0E
0E
0E
0E
0E
0E
0E
1E
DC
FC
70
ENDCHAR
STARTCHAR g77
ENCODING 107
SWIDTH 556 0
DWIDTH 10 0
BBX 9 15 0 -1
BITMAP
6000
E000
E000
E200
E700
EF00
EE00
FC00
F800
FC00
EE00
EF00
E780
E300
C000
ENDCHAR
STARTCHAR g78
ENCODING 108
SWIDTH 333 0
DWIDTH 6 0
BBX 3 15 1 -1
BITMAP
60
E0
E0
E0
E0
E0
E0
E0
E0
E0
E0
E0
E0
E0
C0
ENDCHAR
STARTCHAR g79
ENCODING 109
SWIDTH 778 0
DWIDTH 14 0
BBX 13 11 0 0
BITMAP
0070
DCF8
FFF8
FFB8
F738
E738
E738
E738
E738
E238
C030
ENDCHAR
STARTCHAR g80
ENCODING 110
SWIDTH 556 0
DWIDTH 10 0
BBX 9 11 0 0
BITMAP
6000
E700
EF80
EF80
FB80
F380
F380
E380
E380
E380
E300
ENDCHAR
STARTCHAR g81
ENCODING 111
SWIDTH 556 0
DWIDTH 10 0
BBX 9 11 0 -1
BITMAP
1E00
7F00
7B80
F380
E380
E380
E780
E700
7F00
7E00
1C00
ENDCHAR
STARTCHAR g82
ENCODING 112
SWIDTH 556 0
DWIDTH 10 0
BBX 9 15 0 -4
BITMAP
6E00
FF00
FF80
F380
E380
E380
E780
EF00
FF00
FC00
E000
E000
E000
E000
4000
ENDCHAR
STARTCHAR g83
ENCODING 113
SWIDTH 611 0
DWIDTH 11 0
BBX 10 15 0 -4
BITMAP
0E00
3F80
7FC0
71C0
F3C0
E380
E780
FF00
FF00
7F00
0700
0700
0780
03C0
03C0
ENDCHAR
STARTCHAR g84
ENCODING 114
SWIDTH 500 0
DWIDTH 9 0
BBX 8 12 0 -1
BITMAP
06
6F
FF
7B
70
70
70
70
70
70
70
20
ENDCHAR
STARTCHAR g85
ENCODING 115
SWIDTH 500 0
DWIDTH 9 0
BBX 8 12 0 -1
BITMAP
3C
7F
F7
E7
F0
7C
3E
0F
07
77
7F
3C
ENDCHAR
STARTCHAR g86
ENCODING 116
SWIDTH 389 0
DWIDTH 7 0
BBX 7 14 0 -1
BITMAP
18
38
38
38
3E
FE
F8
38
38
38
38
38
38
10
ENDCHAR
STARTCHAR g87
ENCODING 117
SWIDTH 556 0
DWIDTH 10 0
BBX 10 10 0 0
BITMAP
6300
7380
F380
E780
E700
E700
F780
FF80
7DC0
39C0
ENDCHAR
STARTCHAR g88
ENCODING 118
SWIDTH 500 0
DWIDTH 9 0
BBX 9 12 0 0
BITMAP
0300
0380
4380
E700
F700
7700
7600
3E00
3E00
3C00
1C00
1800
ENDCHAR
STARTCHAR g89
ENCODING 119
SWIDTH 778 0
DWIDTH 14 0
BBX 13 11 0 -1
BITMAP
6310
E738
E738
EF38
EFF0
EDF0
79E0
78E0
78E0
30C0
2000
ENDCHAR
STARTCHAR g90
ENCODING 120
SWIDTH 500 0
DWIDTH 9 0
BBX 9 14 0 -3
BITMAP
C000
E000
F300
7700
3E00
3E00
1C00
3E00
3E00
7700
E700
4380
0180
0180
ENDCHAR
STARTCHAR g91
ENCODING 121
SWIDTH 556 0
DWIDTH 10 0
BBX 9 16 0 -4
BITMAP
0100
0380
4380
E700
E700
E700
7700
7E00
3E00
1C00
1C00
3800
3800
7000
7000
7000
ENDCHAR
STARTCHAR g92
ENCODING 122
SWIDTH 500 0
DWIDTH 9 0
BBX 9 12 0 -1
BITMAP
0100
1F80
7F80
7700
0E00
1C00
1C00
3800
7000
FC00
FF00
0F00
ENDCHAR
STARTCHAR g93
ENCODING 123
SWIDTH 444 0
DWIDTH 8 0
BBX 7 19 0 -3
BITMAP
1C
3E
78
70
70
78
38
38
70
E0
70
70
38
38
78
70
70
3C
1C
ENDCHAR
STARTCHAR g94
ENCODING 124
SWIDTH 278 0
DWIDTH 5 0
BBX 3 17 1 -2
BITMAP
E0
E0
E0
E0
E0
E0
E0
E0
00
E0
E0
E0
E0
E0
E0
E0
E0
ENDCHAR
STARTCHAR g95
ENCODING 125
SWIDTH 444 0
DWIDTH 8 0
BBX 7 19 0 -3
BITMAP
70
F8
3C
1C
1C
3C
38
38
1E
0E
1C
3C
38
38
1C
1C
1C
78
70
ENDCHAR
STARTCHAR g96
ENCODING 126
SWIDTH 667 0
DWIDTH 12 0
BBX 11 5 0 6
BITMAP
1040
79E0
FFE0
E780
4300
ENDCHAR
STARTCHAR g97
ENCODING 127
SWIDTH 667 0
DWIDTH 12 0
BBX 0 0 0 0
BITMAP
ENDCHAR
STARTCHAR g98
ENCODING 161
SWIDTH 333 0
DWIDTH 6 0
BBX 4 15 1 -4
BITMAP
20
70
70
20
00
60
60
60
E0
F0
F0
F0
F0
70
20
ENDCHAR
STARTCHAR g99
ENCODING 162
SWIDTH 611 0
DWIDTH 11 0
BBX 9 14 2 -1
BITMAP
0400
0C00
0C00
1E00
7F00
7C00
EC00
ED80
FF80
FF00
7C00
0C00
0C00
0800
ENDCHAR
STARTCHAR g100
ENCODING 163
SWIDTH 667 0
DWIDTH 12 0
BBX 10 13 1 0
BITMAP
0380
0FC0
0E00
1C00
1C00
7F00
FF00
3800
7000
7000
E380
FF80
FE00
ENDCHAR
STARTCHAR g101
ENCODING 164
SWIDTH 500 0
DWIDTH 9 0
BBX 9 11 0 2
BITMAP
4100
E380
7700
3E00
7700
6300
7700
3E00
3E00
7700
6300
ENDCHAR
STARTCHAR g102
ENCODING 165
SWIDTH 667 0
DWIDTH 12 0
BBX 10 15 1 -1
BITMAP
C080
E1C0
E1C0
7380
7380
3F00
1E00
0FC0
3F80
7E00
07C0
3F80
7E00
0600
0600
ENDCHAR
STARTCHAR g103
ENCODING 167
SWIDTH 667 0
DWIDTH 12 0
BBX 9 17 2 -3
BITMAP
0200
0F00
3F00
7C00
7000
7C00
3F00
7F80
E380
E780
F300
7C00
1E00
0E00
3E00
3C00
1800
ENDCHAR
STARTCHAR g104
ENCODING 168
SWIDTH 500 0
DWIDTH 9 0
BBX 9 3 0 10
BITMAP
6300
F780
6300
ENDCHAR
STARTCHAR g105
ENCODING 169
SWIDTH 889 0
DWIDTH 16 0
BBX 15 15 0 -1
BITMAP
07C0
1FF0
3C78
700C
638C
E7CE
CE06
CE06
EF06
67CE
738C
3818
3E78
0FF0
07C0
ENDCHAR
STARTCHAR g106
ENCODING 170
SWIDTH 556 0
DWIDTH 10 0
BBX 7 10 2 3
BITMAP
3C
7C
EC
CC
EE
FE
76
00
7E
FC
ENDCHAR
STARTCHAR g107
ENCODING 171
SWIDTH 778 0
DWIDTH 14 0
BBX 10 9 1 1
BITMAP
1CC0
3DC0
7BC0
F780
E700
F780
7BC0
39C0
1800
ENDCHAR
STARTCHAR g108
ENCODING 172
SWIDTH 556 0
DWIDTH 10 0
BBX 8 5 1 2
BITMAP
7F
FF
03
03
02
ENDCHAR
STARTCHAR g109
ENCODING 174
SWIDTH 889 0
DWIDTH 16 0
BBX 13 14 2 0
BITMAP
0F80
3FE0
7DF0
6070
FF38
DFB8
DB98
DF18
DB98
D9F8
F870
61B0
7F80
1E00
ENDCHAR
STARTCHAR g110
ENCODING 175
SWIDTH 556 0
DWIDTH 10 0
BBX 6 2 2 11
BITMAP
FC
FC
ENDCHAR
STARTCHAR g111
ENCODING 176
SWIDTH 444 0
DWIDTH 8 0
BBX 5 5 1 8
BITMAP
70
F8
D8
F8
70
ENDCHAR
STARTCHAR g112
ENCODING 177
SWIDTH 667 0
DWIDTH 12 0
BBX 9 14 1 -1
BITMAP
0800
1C00
1C00
1C00
7F80
FF80
FF00
1C00
1C00
1C00
0800
7F80
FF80
7F00
ENDCHAR
STARTCHAR g113
ENCODING 180
SWIDTH 389 0
DWIDTH 7 0
BBX 4 4 2 10
BITMAP
30
70
C0
80
ENDCHAR
STARTCHAR g114
ENCODING 181
SWIDTH 667 0
DWIDTH 12 0
BBX 12 13 0 -3
BITMAP
0C20
1C70
1CE0
18E0
39C0
39C0
3B80
3FC0
7FC0
76C0
E000
E000
4000
ENDCHAR
STARTCHAR g115
ENCODING 182
SWIDTH 667 0
DWIDTH 12 0
BBX 10 15 1 -2
BITMAP
1FC0
7FC0
FD80
FD80
FD80
7D80
3D80
1D80
1D80
1D80
1D80
1D80
1D80
1980
0180
ENDCHAR
STARTCHAR g116
ENCODING 183
SWIDTH 333 0
DWIDTH 6 0
BBX 2 2 2 6
BITMAP
C0
C0
ENDCHAR
STARTCHAR g117
ENCODING 184
SWIDTH 556 0
DWIDTH 10 0
BBX 4 4 3 -4
BITMAP
60
F0
30
E0
ENDCHAR
STARTCHAR g118
ENCODING 186
SWIDTH 556 0
DWIDTH 10 0
BBX 7 10 2 3
BITMAP
3C
7E
E6
C6
EE
7C
38
00
7E
FC
ENDCHAR
STARTCHAR g119
ENCODING 187
SWIDTH 778 0
DWIDTH 14 0
BBX 10 9 3 1
BITMAP
0600
E700
F780
7BC0
39C0
7BC0
F780
EF00
CE00
ENDCHAR
STARTCHAR g120
ENCODING 191
SWIDTH 667 0
DWIDTH 12 0
BBX 8 14 2 -4
BITMAP
18
3C
18
00
18
1C
38
78
F0
E6
EF
FE
7E
38
ENDCHAR
STARTCHAR g121
ENCODING 192
SWIDTH 722 0
DWIDTH 13 0
BBX 11 18 1 -1
BITMAP
1800
1C00
0E00
0000
0600
0F00
1F00
1B80
3B80
3B80
39C0
71C0
7FE0
7FC0
E0E0
E0E0
E0E0
0040
ENDCHAR
STARTCHAR g122
ENCODING 193
SWIDTH 778 0
DWIDTH 14 0
BBX 11 18 1 -1
BITMAP
0300
0700
0C00
0800
0600
0F00
1F00
1B80
3B80
3B80
39C0
71C0
7FE0
7FC0
E0E0
E0E0
E0E0
0040
ENDCHAR
STARTCHAR g123
ENCODING 194
SWIDTH 722 0
DWIDTH 13 0
BBX 11 18 1 -1
BITMAP
0600
0F00
1980
0000
0600
0F00
1F00
1B80
3B80
3B80
39C0
71C0
7FE0
7FC0
E0E0
E0E0
E0E0
0040
ENDCHAR
STARTCHAR g124
ENCODING 195
SWIDTH 722 0
DWIDTH 13 0
BBX 11 18 1 -1
BITMAP
06C0
1FC0
3B80
2000
0600
0F00
1F00
1B80
3B80
3B80
39C0
71C0
7FE0
7FC0
E0E0
E0E0
E0E0
0040
ENDCHAR
STARTCHAR g125
ENCODING 196
SWIDTH 722 0
DWIDTH 13 0
BBX 11 17 1 -1
BITMAP
1980
1980
0000
0600
0F00
1F00
1B80
3B80
3B80
39C0
71C0
7FE0
7FC0
E0E0
E0E0
E0E0
0040
ENDCHAR
STARTCHAR g126
ENCODING 197
SWIDTH 722 0
DWIDTH 13 0
BBX 11 18 1 -1
BITMAP
0700
0F80
0D80
0F80
0700
0F00
1F00
1B80
3B80
3B80
39C0
71C0
7FE0
7FC0
E0E0
E0E0
E0E0
0040
ENDCHAR
STARTCHAR g127
ENCODING 198
SWIDTH 1000 0
DWIDTH 18 0
BBX 17 16 1 -2
BITMAP
01C000
03FE00
07FF00
0FDE00
0EC000
1EEE00
1CFE00
38FC00
39F000
3FE000
7FE780
78FF80
70FF00
F0F800
F00000
600000
ENDCHAR
STARTCHAR g128
ENCODING 199
SWIDTH 611 0
DWIDTH 11 0
BBX 9 17 1 -4
BITMAP
1F00
3F80
7B80
7380
F100
E000
E000
E000
E000
E180
F380
7F00
3E00
0C00
1E00
0E00
1C00
ENDCHAR
STARTCHAR g129
ENCODING 200
SWIDTH 611 0
DWIDTH 11 0
BBX 10 18 0 -1
BITMAP
1000
3800
1C00
0000
3F80
7FC0
FF80
7000
7000
7700
7F00
7F00
7000
E000
E3C0
EFC0
FF80
FC00
ENDCHAR
STARTCHAR g130
ENCODING 201
SWIDTH 611 0
DWIDTH 11 0
BBX 10 18 0 -1
BITMAP
0300
0600
0C00
0000
3F80
7FC0
FF80
7000
7000
7700
7F00
7F00
7000
E000
E3C0
EFC0
FF80
FC00
ENDCHAR
STARTCHAR g131
ENCODING 202
SWIDTH 556 0
DWIDTH 10 0
BBX 10 18 0 -1
BITMAP
0C00
1E00
3300
0000
3F80
7FC0
FF80
7000
7000
7700
7F00
7F00
7000
E000
E3C0
EFC0
FF80
FC00
ENDCHAR
STARTCHAR g132
ENCODING 203
SWIDTH 611 0
DWIDTH 11 0
BBX 10 18 0 -1
BITMAP
1000
3B00
1300
0000
3F80
7FC0
FF80
7000
7000
7700
7F00
7F00
7000
E000
E3C0
EFC0
FF80
FC00
ENDCHAR
STARTCHAR g133
ENCODING 204
SWIDTH 389 0
DWIDTH 7 0
BBX 4 18 1 -1
BITMAP
C0
E0
60
10
30
70
70
70
70
70
70
70
70
70
70
70
70
60
ENDCHAR
STARTCHAR g134
ENCODING 205
SWIDTH 389 0
DWIDTH 7 0
BBX 4 18 2 -1
BITMAP
30
70
C0
80
60
E0
E0
E0
E0
E0
E0
E0
E0
E0
E0
E0
E0
C0
ENDCHAR
STARTCHAR g135
ENCODING 206
SWIDTH 389 0
DWIDTH 7 0
BBX 6 18 1 -1
BITMAP
30
78
CC
00
30
70
70
70
70
70
70
70
70
70
70
70
70
60
ENDCHAR
STARTCHAR g136
ENCODING 207
SWIDTH 389 0
DWIDTH 7 0
BBX 7 18 0 -1
BITMAP
64
EE
4C
00
18
38
38
38
38
38
38
38
38
38
38
38
38
30
ENDCHAR
STARTCHAR g137
ENCODING 209
SWIDTH 667 0
DWIDTH 12 0
BBX 11 18 1 -1
BITMAP
3820
FBC0
CF00
0C00
60E0
F0E0
F0E0
F8E0
FCE0
FDC0
EDC0
EFC0
E7C0
E780
E380
E380
E180
4000
ENDCHAR
STARTCHAR g138
ENCODING 210
SWIDTH 667 0
DWIDTH 12 0
BBX 10 18 1 -1
BITMAP
3000
3800
1C00
0800
1F00
3F80
7B80
71C0
F1C0
E1C0
E1C0
E1C0
E1C0
F380
7380
7F80
3F00
0C00
ENDCHAR
STARTCHAR g139
ENCODING 211
SWIDTH 667 0
DWIDTH 12 0
BBX 10 18 1 -1
BITMAP
0300
0700
0E00
1000
0F00
3F80
7BC0
71C0
F1C0
E1C0
E1C0
E1C0
E1C0
F380
7380
7F80
3F00
0C00
ENDCHAR
STARTCHAR g140
ENCODING 212
SWIDTH 667 0
DWIDTH 12 0
BBX 10 18 1 -1
BITMAP
0600
0F00
1980
0600
1F80
3F80
7BC0
71C0
F1C0
E1C0
E1C0
E1C0
E1C0
F380
7380
7F80
3F00
0C00
ENDCHAR
STARTCHAR g141
ENCODING 213
SWIDTH 667 0
DWIDTH 12 0
BBX 10 18 1 -1
BITMAP
06C0
1FC0
3B80
4000
1F00
3F80
7BC0
71C0
F1C0
E1C0
E1C0
E1C0
E1C0
F380
7380
7F80
3F00
0C00
ENDCHAR
STARTCHAR g142
ENCODING 214
SWIDTH 667 0
DWIDTH 12 0
BBX 10 18 1 -1
BITMAP
1980
1980
0000
0600
1F80
3F80
7BC0
71C0
F1C0
E1C0
E1C0
E1C0
E1C0
F380
7380
7F80
3F00
0C00
ENDCHAR
STARTCHAR g143
ENCODING 216
SWIDTH 667 0
DWIDTH 12 0
BBX 12 16 1 -2
BITMAP
0620
1F70
3FE0
79C0
73C0
F7C0
E6C0
EFC0
EDC0
FDC0
7BC0
7B80
3F80
7F00
6000
6000
ENDCHAR
STARTCHAR g144
ENCODING 217
SWIDTH 667 0
DWIDTH 12 0
BBX 11 18 1 -1
BITMAP
1800
1C00
0E00
0000
2000
7100
7380
F380
E380
E380
E380
E380
E380
E3C0
F7C0
7FE0
7EC0
1800
ENDCHAR
STARTCHAR g145
ENCODING 218
SWIDTH 667 0
DWIDTH 12 0
BBX 11 18 1 -1
BITMAP
0380
0780
0E00
0800
2000
7100
7380
F380
E380
E380
E380
E380
E380
E3C0
F7C0
7FE0
7EC0
1800
ENDCHAR
STARTCHAR g146
ENCODING 219
SWIDTH 667 0
DWIDTH 12 0
BBX 11 18 1 -1
BITMAP
0C00
1E00
3300
0000
2000
7100
7380
F380
E380
E380
E380
E380
E380
E3C0
F7C0
7FE0
7EC0
1800
ENDCHAR
STARTCHAR g147
ENCODING 220
SWIDTH 667 0
DWIDTH 12 0
BBX 11 17 1 -1
BITMAP
3300
3300
0000
2000
7100
7380
F380
E380
E380
E380
E380
E380
E3C0
F7C0
7FE0
7EC0
1800
ENDCHAR
STARTCHAR g148
ENCODING 223
SWIDTH 667 0
DWIDTH 12 0
BBX 11 14 1 -1
BITMAP
1F00
7F80
7F80
F380
E700
EE00
EF80
E7C0
E1C0
E0E0
ECE0
EFE0
EFC0
8380
ENDCHAR
STARTCHAR g149
ENCODING 224
SWIDTH 556 0
DWIDTH 10 0
BBX 10 16 0 0
BITMAP
1800
1800
0C00
0600
0000
0F00
3F80
7F80
7380
F380
E380
E380
F780
FFC0
7DC0
38C0
ENDCHAR
STARTCHAR g150
ENCODING 225
SWIDTH 556 0
DWIDTH 10 0
BBX 10 16 0 0
BITMAP
0300
0700
0C00
0800
0000
0F00
3F80
7F80
7380
F380
E380
E380
F780
FFC0
7DC0
38C0
ENDCHAR
STARTCHAR g151
ENCODING 226
SWIDTH 556 0
DWIDTH 10 0
BBX 10 15 0 0
BITMAP
0400
0E00
1B00
0000
0F00
3F80
7F80
7380
F380
E380
E380
F780
FFC0
7DC0
38C0
ENDCHAR
STARTCHAR g152
ENCODING 227
SWIDTH 556 0
DWIDTH 10 0
BBX 10 15 0 0
BITMAP
1D80
3F80
7700
4000
0F00
3F80
7F80
7380
F380
E380
E380
F780
FFC0
7DC0
38C0
ENDCHAR
STARTCHAR g153
ENCODING 228
SWIDTH 556 0
DWIDTH 10 0
BBX 10 15 0 0
BITMAP
3300
3B80
1300
0000
0F00
3F80
7F80
7380
F380
E380
E380
F780
FFC0
7DC0
38C0
ENDCHAR
STARTCHAR g154
ENCODING 229
SWIDTH 556 0
DWIDTH 10 0
BBX 10 16 0 0
BITMAP
0E00
1F00
1B00
1F00
0600
0F00
3F80
7F80
7380
F380
E380
E380
F780
FFC0
7DC0
38C0
ENDCHAR
STARTCHAR g155
ENCODING 230
SWIDTH 889 0
DWIDTH 16 0
BBX 15 11 0 0
BITMAP
073C
1F7E
7FFE
7BCE
F3DE
E3FC
E3D8
F7C0
7FEC
7DFE
19BC
ENDCHAR
STARTCHAR g156
ENCODING 231
SWIDTH 556 0
DWIDTH 10 0
BBX 8 15 1 -4
BITMAP
1E
3F
7B
70
E0
E0
E0
E3
F7
7E
3C
18
0C
3C
18
ENDCHAR
STARTCHAR g157
ENCODING 232
SWIDTH 556 0
DWIDTH 10 0
BBX 8 16 1 0
BITMAP
30
30
18
0C
00
1C
7E
7F
E7
EF
FE
FC
E0
F6
7F
3E
ENDCHAR
STARTCHAR g158
ENCODING 233
SWIDTH 556 0
DWIDTH 10 0
BBX 8 16 1 0
BITMAP
0C
1C
30
20
00
1C
7E
7F
E7
EF
FE
FC
E0
F6
7F
3E
ENDCHAR
STARTCHAR g159
ENCODING 234
SWIDTH 556 0
DWIDTH 10 0
BBX 8 15 0 0
BITMAP
0C
1E
33
00
1C
7E
7F
E7
EF
FE
FC
E0
F6
7F
3E
ENDCHAR
STARTCHAR g160
ENCODING 235
SWIDTH 556 0
DWIDTH 10 0
BBX 8 15 1 0
BITMAP
66
EE
64
00
1C
7E
7F
E7
EF
FE
FC
E0
F6
7F
3E
ENDCHAR
STARTCHAR g161
ENCODING 236
SWIDTH 333 0
DWIDTH 6 0
BBX 4 14 1 0
BITMAP
C0
C0
60
30
40
E0
E0
E0
E0
E0
E0
E0
E0
C0
ENDCHAR
STARTCHAR g162
ENCODING 237
SWIDTH 333 0
DWIDTH 6 0
BBX 4 14 1 0
BITMAP
30
70
C0
80
40
E0
E0
E0
E0
E0
E0
E0
E0
C0
ENDCHAR
STARTCHAR g163
ENCODING 238
SWIDTH 333 0
DWIDTH 6 0
BBX 6 14 0 0
BITMAP
30
78
CC
00
20
70
70
70
70
70
70
70
70
60
ENDCHAR
STARTCHAR g164
ENCODING 239
SWIDTH 333 0
DWIDTH 6 0
BBX 6 14 0 0
BITMAP
48
FC
6C
00
10
38
38
38
38
38
38
38
38
30
ENDCHAR
STARTCHAR g165
ENCODING 241
SWIDTH 556 0
DWIDTH 10 0
BBX 9 14 0 0
BITMAP
1D80
3F80
6700
8000
6700
EF80
EF80
FB80
F380
F380
E380
E380
E380
E300
ENDCHAR
STARTCHAR g166
ENCODING 242
SWIDTH 556 0
DWIDTH 10 0
BBX 9 16 0 -1
BITMAP
1800
1800
0C00
0600
0000
1E00
7F00
7B80
F380
E380
E380
E780
E700
7F00
7E00
1C00
ENDCHAR
STARTCHAR g167
ENCODING 243
SWIDTH 556 0
DWIDTH 10 0
BBX 9 16 0 -1
BITMAP
0300
0700
0C00
0800
0000
1E00
7F00
7B80
F380
E380
E380
E780
E700
7F00
7E00
1C00
ENDCHAR
STARTCHAR g168
ENCODING 244
SWIDTH 556 0
DWIDTH 10 0
BBX 9 15 0 -1
BITMAP
0C00
1E00
3300
0000
1E00
7F00
7B80
F380
E380
E380
E780
E700
7F00
7E00
1C00
ENDCHAR
STARTCHAR g169
ENCODING 245
SWIDTH 556 0
DWIDTH 10 0
BBX 9 15 0 -1
BITMAP
0D80
3F80
7700
4000
1E00
7F00
7B80
F380
E380
E380
E780
E700
7F00
7E00
1C00
ENDCHAR
STARTCHAR g170
ENCODING 246
SWIDTH 556 0
DWIDTH 10 0
BBX 9 15 0 -1
BITMAP
2600
7700
6200
0000
1E00
7F00
7B80
F380
E380
E380
E780
E700
7F00
7E00
1C00
ENDCHAR
STARTCHAR g171
ENCODING 247
SWIDTH 556 0
DWIDTH 10 0
BBX 8 13 1 -1
BITMAP
0C
1C
1C
08
00
3E
FF
FE
00
18
38
38
10
ENDCHAR
STARTCHAR g172
ENCODING 248
SWIDTH 556 0
DWIDTH 10 0
BBX 10 14 0 -2
BITMAP
0080
01C0
1F80
7F00
7780
EF80
ED80
DB80
FB80
F700
7F00
FE00
E000
C000
ENDCHAR
STARTCHAR g173
ENCODING 249
SWIDTH 556 0
DWIDTH 10 0
BBX 10 15 0 0
BITMAP
1800
1800
0C00
0600
0000
6300
7380
F380
E780
E700
E700
F780
FF80
7DC0
39C0
ENDCHAR
STARTCHAR g174
ENCODING 250
SWIDTH 556 0
DWIDTH 10 0
BBX 10 15 0 0
BITMAP
0300
0700
0C00
0800
0000
6300
7380
F380
E780
E700
E700
F780
FF80
7DC0
39C0
ENDCHAR
STARTCHAR g175
ENCODING 251
SWIDTH 556 0
DWIDTH 10 0
BBX 10 14 0 0
BITMAP
0C00
1E00
3300
0000
6300
7380
F380
E780
E700
E700
F780
FF80
7DC0
39C0
ENDCHAR
STARTCHAR g176
ENCODING 252
SWIDTH 556 0
DWIDTH 10 0
BBX 10 14 0 0
BITMAP
2200
7700
3300
0000
6300
7380
F380
E780
E700
E700
F780
FF80
7DC0
39C0
ENDCHAR
STARTCHAR g177
ENCODING 255
SWIDTH 667 0
DWIDTH 12 0
BBX 9 20 1 -4
BITMAP
0100
2380
7380
7100
2000
0300
4380
E380
E700
E700
7700
7E00
3E00
1C00
1C00
3800
3800
7000
7000
7000
ENDCHAR
STARTCHAR g178
ENCODING 305
SWIDTH 333 0
DWIDTH 6 0
BBX 3 10 1 0
BITMAP
40
E0
E0
E0
E0
E0
E0
E0
E0
C0
ENDCHAR
STARTCHAR g179
ENCODING 338
SWIDTH 1000 0
DWIDTH 18 0
BBX 16 15 1 -1
BITMAP
0600
1FBE
3FFF
7BFE
71C0
F1C0
E1DC
E1FC
E1F8
E1C0
F38F
73FF
7FFE
3FF0
0C00
ENDCHAR
STARTCHAR g180
ENCODING 339
SWIDTH 889 0
DWIDTH 16 0
BBX 14 11 1 0
BITMAP
0070
1EF8
7FFC
7F9C
F3BC
E3F8
E3F0
E7C0
FFEC
7EFC
7C78
ENDCHAR
STARTCHAR g181
ENCODING 376
SWIDTH 667 0
DWIDTH 12 0
BBX 10 18 1 -1
BITMAP
0100
3380
7B80
3100
C0C0
E1C0
E3C0
E780
7700
7F00
3E00
3C00
1C00
1C00
1C00
1C00
1C00
0800
ENDCHAR
STARTCHAR g182
ENCODING 402
SWIDTH 556 0
DWIDTH 10 0
BBX 9 16 0 -3
BITMAP
0380
0780
0E00
0C00
7F80
7F80
1800
3800
3000
3000
7000
6000
6000
E000
C000
C000
ENDCHAR
STARTCHAR g183
ENCODING 710
SWIDTH 556 0
DWIDTH 10 0
BBX 6 4 2 10
BITMAP
30
78
FC
CC
ENDCHAR
STARTCHAR g184
ENCODING 711
SWIDTH 556 0
DWIDTH 10 0
BBX 7 3 1 11
BITMAP
EE
7C
38
ENDCHAR
STARTCHAR g185
ENCODING 728
SWIDTH 556 0
DWIDTH 10 0
BBX 6 3 2 10
BITMAP
CC
FC
78
ENDCHAR
STARTCHAR g186
ENCODING 729
SWIDTH 556 0
DWIDTH 10 0
BBX 3 3 3 11
BITMAP
E0
E0
E0
ENDCHAR
STARTCHAR g187
ENCODING 730
SWIDTH 556 0
DWIDTH 10 0
BBX 5 5 2 11
BITMAP
70
F8
D8
F8
70
ENDCHAR
STARTCHAR g188
ENCODING 731
SWIDTH 556 0
DWIDTH 10 0
BBX 4 4 2 -4
BITMAP
70
E0
E0
70
ENDCHAR
STARTCHAR g189
ENCODING 732
SWIDTH 556 0
DWIDTH 10 0
BBX 10 4 0 11
BITMAP
38C0
FBC0
CF00
0C00
ENDCHAR
STARTCHAR g190
ENCODING 733
SWIDTH 556 0
DWIDTH 10 0
BBX 9 3 1 11
BITMAP
3B80
7700
EE00
ENDCHAR
STARTCHAR g191
ENCODING 960
SWIDTH 778 0
DWIDTH 14 0
BBX 12 12 1 -1
BITMAP
00F0
7FF0
FFC0
39C0
39C0
39C0
39C0
39C0
39C0
39C0
3980
3800
ENDCHAR
STARTCHAR g192
ENCODING 8211
SWIDTH 556 0
DWIDTH 10 0
BBX 8 2 1 5
BITMAP
7F
FE
ENDCHAR
STARTCHAR g193
ENCODING 8212
SWIDTH 778 0
DWIDTH 14 0
BBX 14 2 0 5
BITMAP
7FFC
FFF8
ENDCHAR
STARTCHAR g194
ENCODING 8216
SWIDTH 278 0
DWIDTH 5 0
BBX 4 6 0 8
BITMAP
30
70
E0
E0
F0
60
ENDCHAR
STARTCHAR g195
ENCODING 8217
SWIDTH 278 0
DWIDTH 5 0
BBX 4 6 0 8
BITMAP
60
F0
70
30
70
60
ENDCHAR
STARTCHAR g196
ENCODING 8218
SWIDTH 444 0
DWIDTH 8 0
BBX 4 6 1 -3
BITMAP
60
F0
70
70
E0
C0
ENDCHAR
STARTCHAR g197
ENCODING 8220
SWIDTH 500 0
DWIDTH 9 0
BBX 8 7 0 7
BITMAP
30
73
E7
EE
EE
6F
06
ENDCHAR
STARTCHAR g198
ENCODING 8221
SWIDTH 500 0
DWIDTH 9 0
BBX 7 7 1 7
BITMAP
C0
EC
FE
6E
EE
DC
18
ENDCHAR
STARTCHAR g199
ENCODING 8222
SWIDTH 500 0
DWIDTH 9 0
BBX 7 7 1 -4
BITMAP
C0
EC
FE
6E
EE
DC
18
ENDCHAR
STARTCHAR g200
ENCODING 8224
SWIDTH 444 0
DWIDTH 8 0
BBX 6 8 1 5
BITMAP
30
30
FC
FC
30
30
30
30
ENDCHAR
STARTCHAR g201
ENCODING 8225
SWIDTH 444 0
DWIDTH 8 0
BBX 6 11 1 2
BITMAP
30
30
FC
FC
30
30
FC
FC
30
30
30
ENDCHAR
STARTCHAR g202
ENCODING 8226
SWIDTH 667 0
DWIDTH 12 0
BBX 7 7 2 4
BITMAP
18
7C
FE
FE
FE
7C
30
ENDCHAR
STARTCHAR g203
ENCODING 8230
SWIDTH 889 0
DWIDTH 16 0
BBX 13 3 1 -1
BITMAP
6318
E738
6230
ENDCHAR
STARTCHAR g204
ENCODING 8240
SWIDTH 889 0
DWIDTH 16 0
BBX 16 17 0 -2
BITMAP
380C
7C1C
EFFC
E7F8
EF70
7EEE
39DF
01DB
039F
070E
0770
0EF8
1CD8
1CF8
3870
3800
3000
ENDCHAR
STARTCHAR g205
ENCODING 8249
SWIDTH 556 0
DWIDTH 10 0
BBX 8 10 0 1
BITMAP
04
0E
1E
3C
F8
F0
78
3E
1F
07
ENDCHAR
STARTCHAR g206
ENCODING 8250
SWIDTH 556 0
DWIDTH 10 0
BBX 7 9 2 1
BITMAP
60
F0
78
3C
1E
3C
78
F0
60
ENDCHAR
STARTCHAR g207
ENCODING 8260
SWIDTH 556 0
DWIDTH 10 0
BBX 10 14 0 -1
BITMAP
00C0
01C0
0380
0300
0700
0E00
0C00
1C00
3800
3000
7000
E000
C000
C000
ENDCHAR
STARTCHAR g208
ENCODING 8482
SWIDTH 1000 0
DWIDTH 18 0
BBX 15 7 1 6
BITMAP
1D00
F986
F1CE
31FE
31B6
31A6
2180
ENDCHAR
STARTCHAR g209
ENCODING 8486
SWIDTH 889 0
DWIDTH 16 0
BBX 13 15 1 -1
BITMAP
01E0
07F0
0FF0
1F38
1C38
3C18
3818
3038
3870
1870
18E0
FCC0
FCF8
F9F8
00F8
ENDCHAR
STARTCHAR g210
ENCODING 8706
SWIDTH 556 0
DWIDTH 10 0
BBX 8 13 1 0
BITMAP
38
3C
0E
07
1F
7F
73
E3
C7
E6
FE
7C
38
ENDCHAR
STARTCHAR g211
ENCODING 8710
SWIDTH 778 0
DWIDTH 14 0
BBX 10 13 2 -2
BITMAP
0C00
1E00
1E00
3E00
3700
7700
7380
6380
E1C0
EFC0
FFC0
FC00
6000
ENDCHAR
STARTCHAR g212
ENCODING 8719
SWIDTH 778 0
DWIDTH 14 0
BBX 12 16 1 -3
BITMAP
7FF0
FFF0
FFC0
71C0
71C0
71C0
71C0
71C0
71C0
71C0
71C0
71C0
71C0
71C0
71C0
6000
ENDCHAR
STARTCHAR g213
ENCODING 8721
SWIDTH 667 0
DWIDTH 12 0
BBX 11 16 0 -3
BITMAP
3FC0
7FE0
3FC0
1C00
1F00
0780
07C0
03C0
0F80
1F00
3E00
7800
71C0
FFE0
FFC0
7F00
ENDCHAR
STARTCHAR g214
ENCODING 8730
SWIDTH 889 0
DWIDTH 16 0
BBX 14 17 -1 -3
BITMAP
000C
000C
001C
001C
0018
0038
0838
1830
3C70
7C70
EE60
8EE0
07C0
07C0
0380
0180
0100
ENDCHAR
STARTCHAR g215
ENCODING 8734
SWIDTH 889 0
DWIDTH 16 0
BBX 14 9 1 2
BITMAP
0038
38FC
7DFC
7FCC
C71C
CF1C
FFF8
FDF8
70E0
ENDCHAR
STARTCHAR g216
ENCODING 8747
SWIDTH 556 0
DWIDTH 10 0
BBX 9 16 -1 -3
BITMAP
0380
0780
0E00
0E00
0E00
0E00
0E00
0E00
0E00
0E00
0E00
0E00
0E00
CC00
FC00
7800
ENDCHAR
STARTCHAR g217
ENCODING 8776
SWIDTH 556 0
DWIDTH 10 0
BBX 9 6 1 3
BITMAP
7980
FF80
8700
7080
FF80
CF00
ENDCHAR
STARTCHAR g218
ENCODING 8800
SWIDTH 556 0
DWIDTH 10 0
BBX 9 13 1 -2
BITMAP
0600
0E00
0C00
7F80
FF80
7F00
1800
7F00
FF00
FE00
3800
3000
3000
ENDCHAR
STARTCHAR g219
ENCODING 8804
SWIDTH 556 0
DWIDTH 10 0
BBX 8 12 1 -1
BITMAP
06
1E
3E
78
F0
7C
3E
0F
00
7E
FF
FE
ENDCHAR
STARTCHAR g220
ENCODING 8805
SWIDTH 556 0
DWIDTH 10 0
BBX 8 12 1 -1
BITMAP
60
F8
7C
1F
07
1F
7E
F8
E0
7E
FF
FE
ENDCHAR
STARTCHAR g221
ENCODING 9674
SWIDTH 889 0
DWIDTH 16 0
BBX 15 14 0 1
BITMAP
0180
03C0
07E0
1EF0
3C38
781C
E00E
700E
381C
1C78
1CF0
0FC0
0780
0300
ENDCHAR
STARTCHAR g222
ENCODING 63252
SWIDTH 611 0
DWIDTH 11 0
BBX 10 12 0 0
BITMAP
1E00
3F00
7780
7780
E7C0
EDC0
EDC0
F9C0
7980
7B80
3F80
1E00
ENDCHAR
STARTCHAR g223
ENCODING 63253
SWIDTH 389 0
DWIDTH 7 0
BBX 5 14 1 -1
BITMAP
38
F8
F0
70
70
70
70
70
70
70
78
78
F8
E0
ENDCHAR
STARTCHAR g224
ENCODING 63254
SWIDTH 278 0
DWIDTH 5 0
BBX 5 15 0 -1
BITMAP
60
F0
F0
70
70
70
70
70
70
70
70
70
78
78
30
ENDCHAR
STARTCHAR g225
ENCODING 63487
SWIDTH 833 0
DWIDTH 15 0
BBX 0 0 0 0
BITMAP
ENDCHAR
STARTCHAR g226
ENCODING 64257
SWIDTH 611 0
DWIDTH 11 0
BBX 10 17 0 -2
BITMAP
0F00
3F80
3B80
7300
7000
73C0
7FC0
FDC0
F1C0
71C0
71C0
71C0
71C0
71C0
7180
7000
2000
ENDCHAR
STARTCHAR g227
ENCODING 64258
SWIDTH 667 0
DWIDTH 12 0
BBX 11 16 0 -2
BITMAP
1EC0
3FE0
76E0
70E0
76E0
7EE0
FCE0
F0E0
70E0
70E0
70E0
70E0
70E0
70C0
7000
2000
ENDCHAR
STARTCHAR g228
ENCODING 64512
SWIDTH 778 0
DWIDTH 14 0
BBX 11 14 1 0
BITMAP
FFE0
8020
8020
8020
8020
8020
8020
8020
8020
8020
8020
8020
8020
FFE0
ENDCHAR
STARTCHAR g229
ENCODING 64513
SWIDTH 778 0
DWIDTH 14 0
BBX 11 14 1 0
BITMAP
FFE0
8020
8020
8020
8020
8020
8020
8020
8020
8020
8020
8020
8020
FFE0
ENDCHAR
STARTCHAR g230
ENCODING 64514
SWIDTH 778 0
DWIDTH 14 0
BBX 11 14 1 0
BITMAP
FFE0
8020
8020
8020
8020
8020
8020
8020
8020
8020
8020
8020
8020
FFE0
ENDCHAR
STARTCHAR g231
ENCODING 64515
SWIDTH 778 0
DWIDTH 14 0
BBX 11 14 1 0
BITMAP
FFE0
8020
8020
8020
8020
8020
8020
8020
8020
8020
8020
8020
8020
FFE0
ENDCHAR
STARTCHAR g232
ENCODING 64516
SWIDTH 778 0
DWIDTH 14 0
BBX 11 14 1 0
BITMAP
FFE0
8020
8020
8020
8020
8020
8020
8020
8020
8020
8020
8020
8020
FFE0
ENDCHAR
STARTCHAR g233
ENCODING 64517
SWIDTH 778 0
DWIDTH 14 0
BBX 11 14 1 0
BITMAP
FFE0
8020
8020
8020
8020
8020
8020
8020
8020
8020
8020
8020
8020
FFE0
ENDCHAR
STARTCHAR g234
ENCODING 64518
SWIDTH 778 0
DWIDTH 14 0
BBX 11 14 1 0
BITMAP
FFE0
8020
8020
8020
8020
8020
8020
8020
8020
8020
8020
8020
8020
FFE0
ENDCHAR
STARTCHAR g235
ENCODING 64519
SWIDTH 778 0
DWIDTH 14 0
BBX 11 14 1 0
BITMAP
FFE0
8020
8020
8020
8020
8020
8020
8020
8020
8020
8020
8020
8020
FFE0
ENDCHAR
STARTCHAR g236
ENCODING 64520
SWIDTH 778 0
DWIDTH 14 0
BBX 11 14 1 0
BITMAP
FFE0
8020
8020
8020
8020
8020
8020
8020
8020
8020
8020
8020
8020
FFE0
ENDCHAR
STARTCHAR g237
ENCODING 64521
SWIDTH 778 0
DWIDTH 14 0
BBX 11 14 1 0
BITMAP
FFE0
8020
8020
8020
8020
8020
8020
8020
8020
8020
8020
8020
8020
FFE0
ENDCHAR
STARTCHAR g238
ENCODING 64522
SWIDTH 778 0
DWIDTH 14 0
BBX 11 14 1 0
BITMAP
FFE0
8020
8020
8020
8020
8020
8020
8020
8020
8020
8020
8020
8020
FFE0
ENDCHAR
STARTCHAR g239
ENCODING 64523
SWIDTH 778 0
DWIDTH 14 0
BBX 11 14 1 0
BITMAP
FFE0
8020
8020
8020
8020
8020
8020
8020
8020
8020
8020
8020
8020
FFE0
ENDCHAR
STARTCHAR g240
ENCODING 64524
SWIDTH 778 0
DWIDTH 14 0
BBX 11 14 1 0
BITMAP
FFE0
8020
8020
8020
8020
8020
8020
8020
8020
8020
8020
8020
8020
FFE0
ENDCHAR
STARTCHAR g241
ENCODING 64525
SWIDTH 778 0
DWIDTH 14 0
BBX 11 14 1 0
BITMAP
FFE0
8020
8020
8020
8020
8020
8020
8020
8020
8020
8020
8020
8020
FFE0
ENDCHAR
STARTCHAR g242
ENCODING 64526
SWIDTH 778 0
DWIDTH 14 0
BBX 11 14 1 0
BITMAP
FFE0
8020
8020
8020
8020
8020
8020
8020
8020
8020
8020
8020
8020
FFE0
ENDCHAR
STARTCHAR g243
ENCODING 64527
SWIDTH 778 0
DWIDTH 14 0
BBX 11 14 1 0
BITMAP
FFE0
8020
8020
8020
8020
8020
8020
8020
8020
8020
8020
8020
8020
FFE0
ENDCHAR
ENDFONT
