STARTFONT 2.1
COMMENT Strike 3 of a Newton 'sfnt' font (bloc/bdat): tools/fonts/newtonsfnt.py,
COMMENT tools/fonts/README.md.  The builder reads the BLOC_* properties and the
COMMENT glyphs - STARTCHAR gN (N the glyph id; otherwise ENCODING through 'cmap'),
COMMENT DWIDTH (the advance), BBX (width, height, the bearing x, the bottom row's
COMMENT y: bearing y less the height) and the BITMAP rows.  A glyph id in the
COMMENT subtable ranges with no glyph here has no image (the missing glyph is 0).
COMMENT The other properties, SIZE, FONTBOUNDINGBOX and SWIDTH are worked out and
COMMENT not read back: change BLOC_HORI_* (the line metrics the ROM draws text by)
COMMENT to match an edit that changes the strike's extent.
FONT -Apple-Roman Regular-Medium-R-Normal--36-360-72-72-P-0-Apple-Roman
SIZE 36 72 72
FONTBOUNDINGBOX 40 44 -6 -9
STARTPROPERTIES 37
FONT_ASCENT 35
FONT_DESCENT 12
PIXEL_SIZE 36
FAMILY_NAME "Roman Regular"
BLOC_COLOR_REF 0
BLOC_HORI_ASCENDER 35
BLOC_HORI_DESCENDER -12
BLOC_HORI_WIDTH_MAX 36
BLOC_HORI_CARET_SLOPE_NUMERATOR 0
BLOC_HORI_CARET_SLOPE_DENOMINATOR 1
BLOC_HORI_CARET_OFFSET 0
BLOC_HORI_MIN_ORIGIN_SB -6
BLOC_HORI_MIN_ADVANCE_SB -1
BLOC_HORI_MAX_BEFORE_BL 35
BLOC_HORI_MIN_AFTER_BL -9
BLOC_HORI_PAD1 0
BLOC_HORI_PAD2 0
BLOC_VERT_ASCENDER 0
BLOC_VERT_DESCENDER -3
BLOC_VERT_WIDTH_MAX 44
BLOC_VERT_CARET_SLOPE_NUMERATOR 0
BLOC_VERT_CARET_SLOPE_DENOMINATOR 1
BLOC_VERT_CARET_OFFSET 0
BLOC_VERT_MIN_ORIGIN_SB 48
BLOC_VERT_MIN_ADVANCE_SB 16
BLOC_VERT_MAX_BEFORE_BL 0
BLOC_VERT_MIN_AFTER_BL -11
BLOC_VERT_PAD1 0
BLOC_VERT_PAD2 0
BLOC_START_GLYPH 0
BLOC_END_GLYPH 257
BLOC_PPEM_X 36
BLOC_PPEM_Y 36
BLOC_BIT_DEPTH 1
BLOC_FLAGS 1
BLOC_INDEX_SUBTABLES 1
BLOC_INDEX_SUBTABLE_0 "0 257 3 1 0"
ENDPROPERTIES
CHARS 244
STARTCHAR g0
ENCODING -1
SWIDTH 694 0
DWIDTH 25 0
BBX 19 29 3 0
BITMAP
FFFFE0
FFFFE0
FFFFE0
FFFFE0
FFFFE0
F803E0
F803E0
F803E0
F803E0
F803E0
F803E0
F803E0
F803E0
F803E0
F803E0
F803E0
F803E0
F803E0
F803E0
F803E0
F803E0
F803E0
F803E0
F803E0
FFFFE0
FFFFE0
FFFFE0
FFFFE0
FFFFE0
ENDCHAR
STARTCHAR g1
ENCODING 0
SWIDTH 0 0
DWIDTH 0 0
BBX 0 0 0 0
BITMAP
ENDCHAR
STARTCHAR g2
ENCODING 1
SWIDTH 333 0
DWIDTH 12 0
BBX 0 0 0 0
BITMAP
ENDCHAR
STARTCHAR g3
ENCODING 2
SWIDTH 333 0
DWIDTH 12 0
BBX 9 29 1 -1
BITMAP
1E00
3F00
3F00
7F80
7F80
7F80
FF80
FF80
FF80
FF80
FF00
FF00
FF00
7F00
7E00
7E00
7C00
7C00
3C00
3800
3800
0000
3800
7C00
FE00
FE00
FE00
FC00
7800
ENDCHAR
STARTCHAR g4
ENCODING 3
SWIDTH 500 0
DWIDTH 18 0
BBX 12 10 3 20
BITMAP
70E0
F9F0
F9F0
F9F0
F9F0
F9F0
F9F0
F9F0
F9F0
70E0
ENDCHAR
STARTCHAR g5
ENCODING 4
SWIDTH 778 0
DWIDTH 28 0
BBX 29 30 -1 0
BITMAP
00000F00
00003F00
00307F00
00F87F00
03F87F70
03F87FF8
03FBFFF8
03FFFFF8
1FFFFFF8
7FFFFFE0
FFFFFF00
FFFF7F00
7FF87F00
03F87F00
03F87F00
03F87F00
03F87F00
7FFFFFF0
FFFFFFF8
FFFFFFF8
FFFFFFF8
7FFFFFF0
03F87F00
03F87F00
03F87F00
03F87F00
03F87E00
03F07E00
03F03C00
03E00000
ENDCHAR
STARTCHAR g6
ENCODING 5
SWIDTH 667 0
DWIDTH 24 0
BBX 20 37 2 -5
BITMAP
001800
003C00
007C00
007C00
007C00
01FC00
07FF00
0FFFC0
1FFFE0
3FFFF0
3FFFF0
7F7DE0
7F7CC0
7F7C00
7FFC00
3FFC00
3FFC00
1FFC00
1FFF00
07FF80
01FFE0
01FFE0
01FFF0
79F7F0
F9F3F0
FDF3F0
FDF7F0
FFFFF0
7FFFE0
3FFFC0
1FFF80
0FFF00
03F800
03E000
03E000
03E000
01C000
ENDCHAR
STARTCHAR g7
ENCODING 6
SWIDTH 778 0
DWIDTH 28 0
BBX 29 34 -1 -2
BITMAP
07E000E0
1FF801F0
3FFC01F8
7FFC03F8
7FFE07F0
FC3F1FE0
FC1FFFE0
F81FFFC0
F81FFF80
F83FFF80
FC7FFF00
FFFCFE00
7FFCFE00
7FF9FC00
3FF3F800
0FC7F000
0007F000
000FE000
001FDFC0
001FFFF0
003F7FF0
007FFFF8
007FFDF8
00FEF8F8
01FCF078
03FCF8F8
03F8FDF8
07F0FFF0
0FF07FF0
0FE07FF0
1FC01FC0
1FC00000
1F800000
0F000000
ENDCHAR
STARTCHAR g8
ENCODING 7
SWIDTH 611 0
DWIDTH 22 0
BBX 22 28 0 0
BITMAP
03F800
0FFE00
1FFF00
3FFF80
3FFF80
7F8F80
7F0700
7F0000
3F0000
3FE018
0FE07C
1FE0FC
3FE3FC
7F87F8
7F0FF0
7E3FE0
FC7FF0
FC7FF8
FC7CF8
FC38F8
FC01F8
FE03F8
FF07F0
7FFFF0
7FFFE0
3FFFC0
1FFF00
03FE00
ENDCHAR
STARTCHAR g9
ENCODING 8
SWIDTH 278 0
DWIDTH 10 0
BBX 5 10 2 20
BITMAP
70
F8
F8
F8
F8
F8
F8
F8
F8
70
ENDCHAR
STARTCHAR g10
ENCODING 9
SWIDTH 389 0
DWIDTH 14 0
BBX 11 36 2 -6
BITMAP
0100
07C0
0FC0
1FE0
1FE0
3FC0
7F80
7F00
7F00
7E00
FE00
FC00
FC00
FC00
FC00
FC00
FC00
FC00
FC00
FC00
FC00
FC00
FC00
FC00
FE00
7E00
7E00
7F00
7F00
3F80
3FC0
1FE0
0FE0
0FE0
07E0
01C0
ENDCHAR
STARTCHAR g11
ENCODING 10
SWIDTH 389 0
DWIDTH 14 0
BBX 11 35 1 -5
BITMAP
7800
7C00
FE00
FF00
FF80
7F80
3FC0
1FC0
1FC0
0FE0
0FE0
07E0
07E0
07E0
07E0
07E0
07E0
07E0
07E0
07E0
07E0
07E0
07E0
07E0
0FE0
0FE0
1FC0
1FC0
3F80
7F80
7F00
FE00
FE00
FC00
7800
ENDCHAR
STARTCHAR g12
ENCODING 11
SWIDTH 667 0
DWIDTH 24 0
BBX 15 14 4 17
BITMAP
01C0
03E0
63E0
FBEC
FBDE
FFFE
FFFE
7FFE
0FDC
3FE0
7DF0
FDF8
FDF8
78F0
ENDCHAR
STARTCHAR g13
ENCODING 12
SWIDTH 556 0
DWIDTH 20 0
BBX 18 21 1 0
BITMAP
00E000
01F000
03F000
03F000
03F000
03F000
03F000
7FFF80
FFFFC0
FFFFC0
FFFFC0
FFFFC0
7FFF80
03F000
03F000
03F000
03F000
03F000
03F000
03F000
01E000
ENDCHAR
STARTCHAR g14
ENCODING 44
SWIDTH 278 0
DWIDTH 10 0
BBX 8 12 1 -5
BITMAP
1C
7E
7E
FF
FF
7F
7F
3F
1E
3E
7C
70
ENDCHAR
STARTCHAR g15
ENCODING 45
SWIDTH 556 0
DWIDTH 20 0
BBX 15 6 2 9
BITMAP
3FFC
FFFE
FFFE
FFFE
FFFE
7FF8
ENDCHAR
STARTCHAR g16
ENCODING 46
SWIDTH 333 0
DWIDTH 12 0
BBX 8 8 2 -1
BITMAP
3C
7F
FF
FF
FF
FF
7E
3C
ENDCHAR
STARTCHAR g17
ENCODING 47
SWIDTH 556 0
DWIDTH 20 0
BBX 18 32 1 -3
BITMAP
000780
000FC0
001FC0
001FC0
003FC0
003F80
007F80
007F00
007F00
00FE00
00FE00
01FC00
01FC00
03F800
03F800
07F800
07F000
07F000
0FE000
0FE000
1FC000
1FC000
1FC000
3F8000
3F8000
7F0000
7F0000
FE0000
FE0000
FE0000
FC0000
780000
ENDCHAR
STARTCHAR g18
ENCODING 48
SWIDTH 611 0
DWIDTH 22 0
BBX 20 25 1 0
BITMAP
01F800
07FE00
0FFF00
1FFF80
3FFFC0
3F9FC0
7E07E0
7E07E0
7E07E0
7E07E0
FC03F0
FC03F0
FC03F0
FC03F0
FC03F0
7E07E0
7E07E0
7E07E0
7E07E0
3F9FC0
1FFFC0
1FFF80
0FFF80
07FF00
01F800
ENDCHAR
STARTCHAR g19
ENCODING 49
SWIDTH 611 0
DWIDTH 22 0
BBX 9 25 6 -1
BITMAP
0700
1F80
3F80
7F80
FF80
FF80
FF80
7F80
1F80
1F80
1F80
1F80
1F80
1F80
1F80
1F80
1F80
1F80
1F80
1F80
1F80
1F80
1F80
1F80
0F00
ENDCHAR
STARTCHAR g20
ENCODING 50
SWIDTH 611 0
DWIDTH 22 0
BBX 19 25 1 0
BITMAP
03F800
07FE00
1FFF00
3FFF80
3FFF80
7F9F80
7E0FC0
7C0FC0
3C0FC0
181FC0
001F80
003F00
007F00
00FE00
01FC00
03FC00
07F800
0FF000
1FE1C0
3F83E0
7FFFE0
FFFFE0
FFFFE0
FFFFC0
7FFF80
ENDCHAR
STARTCHAR g21
ENCODING 51
SWIDTH 611 0
DWIDTH 22 0
BBX 19 28 1 -3
BITMAP
07F000
3FFC00
7FFE00
FFFF00
FFFF80
FC3F80
F01F80
001F80
003F00
007F00
03FE00
07FE00
07FF00
07FF80
03FFC0
001FC0
000FE0
0007E0
0003E0
0007E0
0007E0
1C0FE0
3F3FC0
3FFFC0
3FFF80
1FFF00
0FFC00
03F800
ENDCHAR
STARTCHAR g22
ENCODING 52
SWIDTH 611 0
DWIDTH 22 0
BBX 19 27 1 -3
BITMAP
0003C0
0007E0
0607E0
0F87E0
0F87E0
1F8FE0
1F8FC0
3F8FC0
3F0FC0
3F0FC0
7E0FC0
7E0FC0
7E0FC0
FC1FC0
FF9F80
FFFF80
FFFFE0
FFFFE0
3FFFE0
00FFE0
003FC0
003F00
003F00
003F00
003F00
003F00
003E00
ENDCHAR
STARTCHAR g23
ENCODING 53
SWIDTH 611 0
DWIDTH 22 0
BBX 17 27 3 -3
BITMAP
00F800
07FE00
3FFE00
7FFE00
7FFC00
7FF800
FF0000
FC0000
FC0000
FFE000
FFFC00
7FFE00
7FFF00
7FFF00
783F80
000F80
000F80
000F80
000F80
001F80
3C7F80
7FFF00
7FFE00
7FFE00
7FF800
3FF000
078000
ENDCHAR
STARTCHAR g24
ENCODING 54
SWIDTH 611 0
DWIDTH 22 0
BBX 19 28 1 -1
BITMAP
00E000
01F000
03F000
07F000
0FF000
0FE000
1FC000
3F8000
3F0000
7F0000
7E0000
7C7C00
FDFF00
FFFFC0
FFFFC0
FFFFE0
FF8FE0
FE03E0
FC03E0
FC03E0
FC07E0
7E07E0
7F0FE0
3FFFC0
3FFFC0
1FFF80
0FFF00
03FC00
ENDCHAR
STARTCHAR g25
ENCODING 55
SWIDTH 611 0
DWIDTH 22 0
BBX 20 31 1 -7
BITMAP
000060
0007F0
01FFF0
7FFFF0
FFFFF0
FFFFF0
FFFFF0
FFF7E0
7E07E0
000FC0
000FC0
001F80
001F80
003F00
003F00
007F00
007E00
007E00
00FE00
00FC00
01FC00
01F800
01F800
03F800
03F000
07F000
07E000
07E000
07E000
07C000
038000
ENDCHAR
STARTCHAR g26
ENCODING 56
SWIDTH 611 0
DWIDTH 22 0
BBX 18 30 2 -2
BITMAP
003C00
01FF00
07FF80
0FFFC0
1FFFC0
3FC7C0
3F07C0
7F07C0
7E0FC0
7F0FC0
3F9F80
3FFF80
0FFF00
07FE00
07FE00
0FFF00
1FFF80
3FBF80
7F0FC0
7E07C0
FC0FC0
FC0FC0
F81FC0
FC3F80
FE7F80
FFFF00
7FFE00
7FFC00
3FF800
0FE000
ENDCHAR
STARTCHAR g27
ENCODING 57
SWIDTH 611 0
DWIDTH 22 0
BBX 19 31 1 -5
BITMAP
01F000
0FFC00
1FFE00
3FFF00
7FFF80
7FBFE0
FC0FE0
FC07E0
F807E0
F807E0
F807E0
FC1FE0
FE3FE0
FFFFC0
7FFFC0
7FFFC0
3FFFC0
1FEFC0
078F80
001F80
001F80
003F00
003F00
003F00
007E00
007E00
007E00
00FC00
00FC00
00FC00
007800
ENDCHAR
STARTCHAR g28
ENCODING 58
SWIDTH 333 0
DWIDTH 12 0
BBX 8 23 2 -1
BITMAP
3C
7E
FF
FF
FF
FF
7E
3C
00
00
00
00
00
00
00
3C
7F
FF
FF
FF
FF
7E
3C
ENDCHAR
STARTCHAR g29
ENCODING 59
SWIDTH 333 0
DWIDTH 12 0
BBX 8 27 2 -5
BITMAP
3C
7E
FF
FF
FF
FF
7E
3C
00
00
00
00
00
00
00
1C
7E
7E
FF
FF
7F
7F
3F
1E
3E
7C
70
ENDCHAR
STARTCHAR g30
ENCODING 60
SWIDTH 556 0
DWIDTH 20 0
BBX 16 19 2 2
BITMAP
0018
007E
00FE
01FE
03FE
0FFC
1FF8
3FF0
7FC0
FF80
FFE0
7FF0
3FFC
0FFE
07FF
01FF
00FF
003F
001E
ENDCHAR
STARTCHAR g31
ENCODING 61
SWIDTH 556 0
DWIDTH 20 0
BBX 15 14 3 3
BITMAP
1FFC
7FFE
7FFE
7FFE
7FFE
3FFC
0000
0000
3FF8
FFFC
FFFC
FFFC
FFFC
7FF8
ENDCHAR
STARTCHAR g32
ENCODING 62
SWIDTH 556 0
DWIDTH 20 0
BBX 16 19 2 2
BITMAP
1800
7E00
7F00
7F80
7FC0
3FF0
1FF8
0FFC
03FE
01FF
07FF
0FFE
3FFC
7FF0
FFE0
FF80
FF00
FC00
7800
ENDCHAR
STARTCHAR g33
ENCODING 63
SWIDTH 556 0
DWIDTH 20 0
BBX 17 31 1 -4
BITMAP
07F800
1FFE00
3FFF00
7FFF80
7FFF80
FF3F80
FC0F80
F81F80
F83F80
707F00
01FF00
07FE00
0FF800
1FF000
1FE000
1F8000
3F0000
3FC000
1FF000
1FF000
0FF000
03F000
000000
01C000
07E000
07E000
0FF000
0FE000
07E000
07C000
010000
ENDCHAR
STARTCHAR g34
ENCODING 64
SWIDTH 889 0
DWIDTH 32 0
BBX 29 30 1 -2
BITMAP
001FE000
007FFC00
01FFFF00
07FFFF80
07FFFFE0
0FF81FE0
1FE007F0
3FC1C1F0
3F87F9F8
3F1FFCF8
7E3FFCF8
7E3E3C78
7E7E3C78
FC7C3CF8
FC7C3CF8
FC787CF8
FC787DF0
FC787FF0
FC7CFFE0
7E7FFFC0
7E3FDF80
7E1F8000
3F8700E0
3FC007F0
1FF83FF0
0FFFFFF0
07FFFFE0
03FFFFC0
00FFFE00
001FE000
ENDCHAR
STARTCHAR g35
ENCODING 65
SWIDTH 722 0
DWIDTH 26 0
BBX 22 29 2 -1
BITMAP
01E000
03F000
01FC00
03FC00
07FE00
07FF00
0FFF00
0FBF80
1F9F80
1F8FC0
1F8FC0
3F07E0
3F07E0
3F07E0
3F07F0
7F03F0
7E03F0
7EFFFC
7FFFFC
7FFFFC
FFFFFC
FDFFF8
FC01F8
FC01F8
FC01FC
FC00FC
FC00FC
FC00FC
0000F8
ENDCHAR
STARTCHAR g36
ENCODING 66
SWIDTH 611 0
DWIDTH 22 0
BBX 19 29 1 -1
BITMAP
07FE00
1FFF80
7FFFC0
FFFFE0
FFFFE0
FE0FE0
FE03E0
7E07E0
7E07E0
7E0FC0
7E3FC0
7EFF80
7FFF00
7FFC00
7FFF00
7FFFC0
7FFFC0
7E1FE0
7E07E0
7E07E0
7E07E0
7E07E0
7E0FE0
7E7FC0
7FFFC0
7FFF80
7FFE00
7FF000
3E0000
ENDCHAR
STARTCHAR g37
ENCODING 67
SWIDTH 611 0
DWIDTH 22 0
BBX 19 29 1 -1
BITMAP
003E00
00FFC0
03FFC0
07FFE0
0FFFE0
1FFBE0
1FE3E0
3FC1C0
3F8000
7F0000
7F0000
7E0000
FE0000
FC0000
FC0000
FC0000
FC0000
FC0000
FC0000
FC01C0
FE03E0
FE03E0
7F07E0
7FBFC0
3FFFC0
3FFF80
1FFF00
07FE00
03F000
ENDCHAR
STARTCHAR g38
ENCODING 68
SWIDTH 722 0
DWIDTH 26 0
BBX 22 29 1 -1
BITMAP
01C000
1FFC00
3FFE00
FFFF80
FFFFC0
FFFFE0
FF7FF0
7F0FF8
1F87F8
1F81F8
1F81FC
1F80FC
1F80FC
1F80FC
1F80FC
1F80FC
1F80FC
1F80FC
1F81FC
1F81FC
1F83F8
1F87F8
1F87F8
1FBFF0
1FFFC0
1FFFC0
1FFF80
1FFE00
1FF800
ENDCHAR
STARTCHAR g39
ENCODING 69
SWIDTH 611 0
DWIDTH 22 0
BBX 19 29 1 -1
BITMAP
0007C0
00FFE0
1FFFE0
7FFFE0
FFFFE0
FFFF80
FFF000
FF0000
3F0000
3F0000
3F0F00
3F7F80
3FFF80
FFFF80
FFFF00
FFFE00
7FE000
7F0000
3F0000
3F0000
3F0000
3F03C0
3F0FE0
3FFFE0
3FFFE0
3FFFC0
3FFF80
1FFE00
07F800
ENDCHAR
STARTCHAR g40
ENCODING 70
SWIDTH 500 0
DWIDTH 18 0
BBX 19 32 -1 -3
BITMAP
0007C0
003FE0
00FFE0
07FFE0
3FFFC0
7FFF80
FFFC00
7FF000
7F8000
1F8000
1FC3C0
0FDFE0
0FFFE0
0FFFE0
3FFFC0
3FFF00
3FF800
1FE000
07E000
07E000
07E000
07E000
07E000
07E000
07E000
07E000
07E000
07E000
07E000
07E000
07C000
038000
ENDCHAR
STARTCHAR g41
ENCODING 71
SWIDTH 667 0
DWIDTH 24 0
BBX 22 29 1 -1
BITMAP
003F80
01FFE0
03FFF0
0FFFF8
0FFFF8
1FF9F8
3FC0F0
3F8000
7F0000
7E0000
7E0000
FE0000
FC0078
FC07FC
FC3FFC
FC3FFC
FC3FF8
FC3FF8
FC18F8
FE00F8
7E00F8
7E00F8
7F01F8
3FEFF8
3FFFF0
1FFFF0
0FFFC0
07FF80
00FE00
ENDCHAR
STARTCHAR g42
ENCODING 72
SWIDTH 611 0
DWIDTH 22 0
BBX 21 30 0 -2
BITMAP
0000E0
0703F0
1F83F0
1F83F0
1F83F0
1F83F0
1F83F0
1F83F0
1F83F0
1F83F0
1F83F0
1F83F0
1F83F0
7FFFF8
FFFFF8
FFFFF8
FFFFF8
7FFFF0
1F83F0
1F83F0
1F83F0
1F83F0
1F83F0
1F83F0
1F83F0
1F83F0
1F83F0
1F83E0
1F03C0
0E0000
ENDCHAR
STARTCHAR g43
ENCODING 73
SWIDTH 389 0
DWIDTH 14 0
BBX 14 30 0 -2
BITMAP
0038
03FC
1FFC
7FFC
FFFC
FFF8
FFC0
7FC0
0FC0
0FC0
0FC0
0FC0
0FC0
0FC0
0FC0
0FC0
0FC0
0FC0
0FC0
0FC0
0FC0
0FC0
0FD8
0FFC
1FFC
7FFC
FFFC
FFF8
FFE0
7E00
ENDCHAR
STARTCHAR g44
ENCODING 74
SWIDTH 500 0
DWIDTH 18 0
BBX 17 32 0 -6
BITMAP
000700
000F80
001F80
001F80
001F80
001F80
001F80
001F80
001F80
001F80
001F80
001F80
001F80
001F80
001F80
001F80
001F80
001F80
001F80
001F80
001F80
701F80
F81F80
FC3F80
FC3F00
FE7F00
7FFF00
7FFF00
3FFE00
3FFC00
0FF800
07F000
ENDCHAR
STARTCHAR g45
ENCODING 75
SWIDTH 611 0
DWIDTH 22 0
BBX 22 30 0 -2
BITMAP
0C0000
1F0000
3F00E0
3F01F0
3F03F0
3F07F0
3F0FF0
3F1FE0
3F3FC0
3F7F80
3FFF00
3FFE00
3FFC00
7FF800
FFF000
FFF800
FFFE00
7FFF00
3FFF80
7E7FC0
7E3FE0
7E1FF0
7E0FF8
FC07FC
FC03FC
FC01FC
FC00FC
FC0078
F80010
780000
ENDCHAR
STARTCHAR g46
ENCODING 76
SWIDTH 500 0
DWIDTH 18 0
BBX 18 27 0 0
BITMAP
0E0000
1F0000
3F0000
3F0000
3F0000
3F0000
3F0000
3F0000
3F0000
3F0000
3F0000
3F0000
3F0000
3F0000
3F0000
3F0000
3F0000
3F0000
3F0000
3F0000
7E0000
7E0000
FFFF80
FFFFC0
FFFFC0
FFFFC0
7FFF00
ENDCHAR
STARTCHAR g47
ENCODING 77
SWIDTH 889 0
DWIDTH 32 0
BBX 28 29 2 -1
BITMAP
30000300
78000780
F8000F80
FC001FC0
FE001FC0
FE003FC0
FF007FC0
FF007FC0
FF807FE0
FFC0FFE0
FFC1FFE0
FFE1F7E0
FFE3F7E0
FFF3F7E0
FDF7E7E0
FDFFE7E0
FDFFC3F0
FCFFC3F0
FCFF83F0
FC7F03F0
FC3F03F0
FC3E03F0
FC1C03F0
FC0003F0
FC0003F0
FC0003F0
FC0003F0
FC0003F0
380001E0
ENDCHAR
STARTCHAR g48
ENCODING 78
SWIDTH 722 0
DWIDTH 26 0
BBX 22 30 2 -1
BITMAP
000078
3000FC
7C00FC
7C00FC
7E00FC
7E00FC
7F00FC
7F80FC
FFC1F8
FFC1F8
FFE1F8
FFE1F8
FFE1F8
FFF1F8
FDFBF0
FDFBF0
FCFFE0
FCFFE0
FC7FE0
FC7FC0
FC3FC0
FC3FC0
FC1FC0
FC1FC0
FC1FC0
FC0FC0
FC0F80
FC0780
FC0780
700000
ENDCHAR
STARTCHAR g49
ENCODING 79
SWIDTH 611 0
DWIDTH 22 0
BBX 20 31 1 -2
BITMAP
001800
00FF00
01FF80
07FFC0
0FFFC0
0FFFE0
1FE7E0
3F87E0
3F83F0
7F03F0
7E03F0
7E03F0
7E03F0
FC03F0
FC03F0
FC03F0
FC03F0
FC07E0
FC07E0
FC07E0
FC07E0
FC0FC0
FE0FC0
7E1F80
7F7F80
7FFF80
3FFF00
1FFE00
1FFE00
07F800
00E000
ENDCHAR
STARTCHAR g50
ENCODING 80
SWIDTH 611 0
DWIDTH 22 0
BBX 20 30 1 -2
BITMAP
01FC00
07FF00
1FFFC0
3FFFE0
3FFFE0
3FCFF0
3F03F0
3F03F0
3F03F0
3F07F0
3F0FE0
3F7FE0
7FFFC0
FFFFC0
FFFF00
FFFE00
7FF000
3F0000
3F0000
3F0000
3F0000
3F0000
3F0000
3F0000
3F0000
3F0000
3F0000
3F0000
3E0000
1C0000
ENDCHAR
STARTCHAR g51
ENCODING 81
SWIDTH 667 0
DWIDTH 24 0
BBX 21 36 1 -7
BITMAP
007000
01FE00
07FF00
07FF80
0FFFC0
1FFFE0
3FCFE0
3F87F0
3F03F0
7F03F0
7E01F0
7E01F8
FE01F8
FC01F8
FC01F8
FC01F8
FC01F8
FC01F8
FC03F0
FC03F0
FCE3F0
FCF7E0
7EF7C0
7EFFC0
7FFFC0
3FFF80
3FFF00
1FFE00
0FFC00
03FE00
007F00
003FE0
003FF0
000FF8
0007F0
0001E0
ENDCHAR
STARTCHAR g52
ENCODING 82
SWIDTH 611 0
DWIDTH 22 0
BBX 22 30 0 -1
BITMAP
03F400
1FFF00
7FFFC0
FFFFE0
FFFFE0
7FFFF0
3C07F0
1F03F8
3F01F8
3F01F8
3F03F8
3F03F0
3F0FF0
3F0FE0
3F3FC0
3FFFC0
7FFF80
FFFE00
FFFC00
FFFF00
FFFF80
3F7FC0
3F3FE0
3F1FF8
3F0FFC
3F07FC
3F03FC
3F01F8
3F0078
1E0000
ENDCHAR
STARTCHAR g53
ENCODING 83
SWIDTH 611 0
DWIDTH 22 0
BBX 21 29 0 -1
BITMAP
007E00
03FFC0
07FFF0
0FFFF8
1FFFF8
3FF7F8
3F81F8
3F8070
3F0000
3F8000
3FE000
1FF000
1FFE00
0FFF00
03FFC0
01FFE0
007FF0
000FF0
0007F8
7803F8
FC01F8
FE01F8
FF83F8
7FFFF0
7FFFF0
1FFFE0
1FFFE0
07FF80
00FC00
ENDCHAR
STARTCHAR g54
ENCODING 84
SWIDTH 611 0
DWIDTH 22 0
BBX 20 30 1 -1
BITMAP
0000E0
001FF0
01FFF0
0FFFF0
7FFFF0
FFFFE0
FFFF00
FFF800
FFF800
79F800
01F800
01F800
01F800
01F800
01F800
01F800
01F800
01F800
01F800
01F800
01F800
01F800
01F800
01F800
01F800
01F800
01F800
01F800
01F000
00F000
ENDCHAR
STARTCHAR g55
ENCODING 85
SWIDTH 667 0
DWIDTH 24 0
BBX 22 28 2 -1
BITMAP
0F0000
1F0000
3F8180
3F83E0
7F03F0
7F03F0
7E03F0
7E03F0
FE03F0
FE03F0
FC03F0
FC03F0
FC03F0
FC03F0
FC03F0
FC07E0
FC07E0
FC07E0
FC0FE0
FC0FF0
7E1FF0
7E1FF0
7F7FF8
3FFFF8
3FFEFC
1FFCFC
0FFC78
03F000
ENDCHAR
STARTCHAR g56
ENCODING 86
SWIDTH 667 0
DWIDTH 24 0
BBX 22 29 1 -1
BITMAP
780000
FC0070
FE00F8
FE00FC
FE01FC
7E03F8
7E03F8
7E07F0
7E07F0
3F07E0
3F0FE0
3F0FE0
3F0FC0
3F1F80
3F1F80
1F3F80
1FBF00
1FBF00
1FBE00
1FFE00
1FFC00
0FFC00
0FFC00
0FF800
0FF800
07F000
07E000
07E000
07C000
ENDCHAR
STARTCHAR g57
ENCODING 87
SWIDTH 889 0
DWIDTH 32 0
BBX 32 30 0 -2
BITMAP
0000001C
3800003E
7C00003F
FC00003F
FE00003F
FE07003F
7F07803F
3F07C03F
3F0FC07E
3F8FE07E
1F8FE07E
1F8FF07E
1F8FF07E
0F8FF87C
0FDFFC7C
0FDFFC7C
0FDEFE7C
0FDF7E7C
0FFE7F7C
07FE3FF8
07FE3FF8
07FC1FF8
07FC0FF8
07FC0FF8
07F807F0
07F003F0
07F001F0
03E001F0
03E000E0
03C00000
ENDCHAR
STARTCHAR g58
ENCODING 88
SWIDTH 667 0
DWIDTH 24 0
BBX 23 30 0 -1
BITMAP
000010
00003C
3C007E
7F007E
FF80FE
FFC1FC
7FC1FC
1FE3FC
0FF3F8
07F7F0
03FFF0
03FFE0
01FFC0
00FFC0
00FF80
00FF00
01FF80
01FFC0
03FFE0
07FFE0
0FF7F0
1FE7F0
1FC3F8
3FC1F8
7F81FC
7F00FC
FE00FE
FE007E
FC003E
F8001C
ENDCHAR
STARTCHAR g59
ENCODING 89
SWIDTH 556 0
DWIDTH 20 0
BBX 20 29 0 -1
BITMAP
0000E0
7001F0
F803F0
FC07F0
FC0FF0
FE0FE0
FE1FE0
FE3FC0
7F3F80
7FFF00
3FFF00
3FFE00
1FFE00
0FFC00
07F800
03F800
03F800
01F800
01F800
01F800
01F800
01F800
01F800
01F800
01F800
01F800
01F800
01F800
00F000
ENDCHAR
STARTCHAR g60
ENCODING 90
SWIDTH 611 0
DWIDTH 22 0
BBX 23 28 0 -1
BITMAP
0F8000
3FFF80
3FFFFE
3FFFFE
0FFFFE
01FFFE
0003FC
000FF8
001FF0
003FC0
007F80
00FF00
01FE00
03FC00
07F800
0FF000
1FE000
1FC000
3F8000
3F8000
7E0000
7FC0F0
7FFBF0
FFFFF8
FFFFF8
FFFFF0
F1FFC0
001F00
ENDCHAR
STARTCHAR g61
ENCODING 91
SWIDTH 444 0
DWIDTH 16 0
BBX 11 34 3 -4
BITMAP
1F80
7FE0
FFE0
FFE0
FF80
FC00
FC00
FC00
FC00
FC00
FC00
FC00
FC00
FC00
FC00
FC00
FC00
FC00
FC00
FC00
FC00
FC00
FC00
FC00
FC00
FC00
FC00
FC00
FE00
FF80
FFC0
FFC0
7FC0
3F80
ENDCHAR
STARTCHAR g62
ENCODING 92
SWIDTH 556 0
DWIDTH 20 0
BBX 14 32 3 -4
BITMAP
6000
F800
F800
F800
FC00
FC00
7C00
7E00
7E00
3E00
3F00
3F00
1F00
1F80
1F80
0F80
0FC0
0FC0
07C0
07E0
07E0
03E0
03F0
03F0
01F0
01F8
01F8
00F8
00FC
00FC
007C
0078
ENDCHAR
STARTCHAR g63
ENCODING 93
SWIDTH 444 0
DWIDTH 16 0
BBX 11 34 2 -4
BITMAP
3F80
7FC0
7FE0
7FE0
3FE0
0FE0
07E0
07E0
07E0
07E0
07E0
07E0
07E0
07E0
07E0
07E0
07E0
07E0
07E0
07E0
07E0
07E0
07E0
07E0
07E0
07E0
07E0
07E0
07E0
3FE0
FFE0
FFE0
FFC0
7F00
ENDCHAR
STARTCHAR g64
ENCODING 94
SWIDTH 444 0
DWIDTH 16 0
BBX 13 10 1 22
BITMAP
0700
1FC0
1FC0
3FE0
3FE0
7DF0
F8F8
F8F8
F8F8
F078
ENDCHAR
STARTCHAR g65
ENCODING 95
SWIDTH 667 0
DWIDTH 24 0
BBX 26 6 -1 -6
BITMAP
7FFFFFC0
FFFFFFC0
FFFFFFC0
FFFFFFC0
FFFFFFC0
FFFFFF80
ENDCHAR
STARTCHAR g66
ENCODING 96
SWIDTH 333 0
DWIDTH 12 0
BBX 10 8 1 21
BITMAP
7000
FC00
FE00
FF00
FF80
7FC0
1FC0
03C0
ENDCHAR
STARTCHAR g67
ENCODING 97
SWIDTH 611 0
DWIDTH 22 0
BBX 20 22 1 -1
BITMAP
007F00
01FF80
07FF80
07FFC0
1FFFC0
1FEFC0
3F8FC0
7F0FC0
7F0FC0
7E0FC0
FC0FC0
FC0FC0
FC0FC0
FC0FC0
FC0FC0
FE1FE0
FFBFE0
7FFFF0
7FFFF0
3FFBF0
1FF1F0
07E0E0
ENDCHAR
STARTCHAR g68
ENCODING 98
SWIDTH 611 0
DWIDTH 22 0
BBX 20 30 1 0
BITMAP
1C0000
3E0000
7E0000
7E0000
7E0000
7E0000
7E0000
7E0000
7E0000
7E3C00
7EFF00
7EFF80
7FFFC0
7FFFC0
7FCFE0
7F87E0
7F07F0
7F03F0
7E03F0
7E03F0
7E07F0
7E07E0
7E07E0
7E0FE0
7F1FC0
7FFF80
FFFF80
FFFF00
FFFE00
F1F800
ENDCHAR
STARTCHAR g69
ENCODING 99
SWIDTH 500 0
DWIDTH 18 0
BBX 16 22 1 -1
BITMAP
01F0
07FC
0FFE
1FFE
3FFF
3F9F
7E0E
7E00
FC00
FC00
FC00
F800
F800
FC00
FC00
FC1E
7F3E
7FFE
3FFE
3FFC
0FF8
03E0
ENDCHAR
STARTCHAR g70
ENCODING 100
SWIDTH 556 0
DWIDTH 20 0
BBX 20 30 0 0
BITMAP
000380
0007C0
000FC0
000FC0
000FC0
000FC0
000FC0
000FC0
000FC0
000FC0
01FFC0
07FFC0
1FFFC0
1FFFC0
3FFFC0
7F9FC0
7E07C0
7C07C0
FC07C0
FC07C0
F807C0
F807C0
FC0FC0
FC0FC0
FF3FC0
7FFFE0
7FFFF0
3FFFF0
1FF9F0
07E0F0
ENDCHAR
STARTCHAR g71
ENCODING 101
SWIDTH 500 0
DWIDTH 18 0
BBX 16 22 1 0
BITMAP
01F8
07FE
0FFE
1FFF
3FFF
3F9F
7E1F
7E3F
7C7E
FDFE
FFFC
FFF8
FFE0
FF80
F800
F81E
FC3F
7FFF
7FFE
3FFC
1FF8
07E0
ENDCHAR
STARTCHAR g72
ENCODING 102
SWIDTH 444 0
DWIDTH 16 0
BBX 16 33 0 -3
BITMAP
03F0
07FC
0FFE
1FFF
1FFF
3F9F
3F8E
3F00
3F00
3F00
3F00
3F78
3FF8
3FF8
7FF8
FFF0
FFC0
FF00
7F00
3F00
3F00
3F00
3F00
3F00
3F00
3F00
3F00
3F00
3F00
3F00
3F00
3E00
1C00
ENDCHAR
STARTCHAR g73
ENCODING 103
SWIDTH 611 0
DWIDTH 22 0
BBX 19 29 1 -7
BITMAP
03F1C0
0FFBE0
3FFFE0
3FFFE0
7FFFE0
FF1FE0
FC0FE0
FC07E0
F807E0
FC07E0
FC07E0
FE0FE0
7FBFE0
7FFFE0
3FFFE0
3FFFE0
0FFFE0
03E7E0
0007E0
0007E0
3807E0
7C0FC0
7E0FC0
7FBFC0
7FFFC0
3FFF80
1FFF00
0FFF00
03FC00
ENDCHAR
STARTCHAR g74
ENCODING 104
SWIDTH 611 0
DWIDTH 22 0
BBX 19 31 1 -1
BITMAP
180000
7C0000
FC0000
FC0000
FC0000
FC0000
FC0000
FC0000
FC0000
FC3E00
FCFF80
FDFFC0
FDFFC0
FFFFE0
FFFFE0
FFCFE0
FF87E0
FF87E0
FF07E0
FE07E0
FE07E0
FE0FE0
FC0FE0
FC0FC0
FC1FC0
FC1FC0
FC3F80
FC3F80
FC3F80
783F00
000E00
ENDCHAR
STARTCHAR g75
ENCODING 105
SWIDTH 333 0
DWIDTH 12 0
BBX 7 31 2 -1
BITMAP
18
7C
7E
FE
FE
7C
38
00
00
18
3E
7E
7E
7E
7E
7E
7E
7E
7E
7E
7E
7E
7E
7E
7E
7E
7E
7E
7E
7E
38
ENDCHAR
STARTCHAR g76
ENCODING 106
SWIDTH 389 0
DWIDTH 14 0
BBX 13 36 -3 -9
BITMAP
0060
01F0
01F8
03F8
03F8
01F0
00E0
0000
0000
00F0
01F0
01F8
01F8
01F8
01F8
01F8
01F8
01F8
01F8
01F8
01F8
01F8
01F8
01F8
01F8
01F8
01F8
01F8
01F8
73F8
FBF0
FFF0
FFF0
FFE0
7FC0
1F00
ENDCHAR
STARTCHAR g77
ENCODING 107
SWIDTH 556 0
DWIDTH 20 0
BBX 17 31 2 -1
BITMAP
700000
F80000
FC0000
FC0000
FC0000
FC0000
FC0000
FC0000
FC0E00
FC1F00
FC3F00
FC7F00
FCFF00
FDFE00
FFFC00
FFF800
FFF000
FFE000
FFC000
FFE000
FFF000
FFF800
FDFC00
FDFE00
FCFF00
FC7F80
FC3F80
FC1F80
FC0F80
FC0300
780000
ENDCHAR
STARTCHAR g78
ENCODING 108
SWIDTH 333 0
DWIDTH 12 0
BBX 6 31 3 -1
BITMAP
38
7C
FC
FC
FC
FC
FC
FC
FC
FC
FC
FC
FC
FC
FC
FC
FC
FC
FC
FC
FC
FC
FC
FC
FC
FC
FC
FC
FC
FC
78
ENDCHAR
STARTCHAR g79
ENCODING 109
SWIDTH 778 0
DWIDTH 28 0
BBX 26 22 1 0
BITMAP
00007800
0001FE00
67C1FF00
FFE3FF80
FFF3FF80
FFFFFFC0
FFFFDFC0
FE7F8FC0
FE7F8FC0
FC3F0FC0
FC3F0FC0
FC3F0FC0
FC3F0FC0
FC3F0FC0
FC3F0FC0
FC3F0FC0
FC3F0FC0
FC3F0FC0
FC3E0FC0
FC3E0FC0
F81C0FC0
78000780
ENDCHAR
STARTCHAR g80
ENCODING 110
SWIDTH 556 0
DWIDTH 20 0
BBX 17 21 1 0
BITMAP
780000
F83C00
FCFF00
FDFF00
FDFF80
FFFF80
FFFF80
FF9F80
FF1F80
FE1F80
FE1F80
FC1F80
FC1F80
FC1F80
FC1F80
FC1F80
FC1F80
FC1F80
FC1F80
FC1F80
780F00
ENDCHAR
STARTCHAR g81
ENCODING 111
SWIDTH 556 0
DWIDTH 20 0
BBX 19 22 0 -1
BITMAP
00F800
03FE00
0FFF00
1FFF80
1FFF80
3FDFC0
7F0FC0
7E07E0
7E07E0
FC07E0
FC07E0
FC07E0
FC0FC0
FC0FC0
FE0FC0
7E1F80
7F7F80
3FFF00
3FFF00
1FFC00
0FF800
03E000
ENDCHAR
STARTCHAR g82
ENCODING 112
SWIDTH 556 0
DWIDTH 20 0
BBX 18 31 1 -9
BITMAP
70F800
F9FE00
FBFF00
FFFF80
FFFFC0
FFFFC0
FF0FC0
FE0FC0
FC07C0
FC07C0
FC0FC0
FC0FC0
FC1F80
FC3F80
FCFF00
FFFF00
FFFE00
FFFC00
FFF800
FFC000
FC0000
FC0000
FC0000
FC0000
FC0000
FC0000
FC0000
FC0000
FC0000
FC0000
780000
ENDCHAR
STARTCHAR g83
ENCODING 113
SWIDTH 611 0
DWIDTH 22 0
BBX 20 30 1 -8
BITMAP
007F80
03FFC0
07FFE0
1FFFE0
1FFFE0
3FE3F0
7F83F0
7F03F0
FE07E0
FE07E0
FC0FC0
FC0FC0
FC0FC0
FE1F80
FFFF80
7FFF80
7FFF00
3FFF00
1FFF00
03FF00
001F00
001F80
001F80
001FC0
000FC0
000FE0
0007F0
0007F0
0003F0
0000E0
ENDCHAR
STARTCHAR g84
ENCODING 114
SWIDTH 500 0
DWIDTH 18 0
BBX 15 22 1 -1
BITMAP
0070
19FC
7FFE
FFFE
FFFE
FFFE
FF9C
7F00
7E00
7E00
7E00
7E00
7E00
7E00
7E00
7E00
7E00
7E00
7E00
7E00
7E00
3E00
ENDCHAR
STARTCHAR g85
ENCODING 115
SWIDTH 500 0
DWIDTH 18 0
BBX 15 23 1 -1
BITMAP
07E0
1FF8
7FFC
7FFE
FFFE
FE7E
FC1C
FC00
FE00
7F80
7FE0
3FF0
0FFC
03FC
00FE
387E
7C7E
7E7E
7FFE
3FFC
3FFC
1FF8
07E0
ENDCHAR
STARTCHAR g86
ENCODING 116
SWIDTH 389 0
DWIDTH 14 0
BBX 14 29 0 -2
BITMAP
0380
07C0
0FC0
0FC0
0FC0
0FC0
0FC0
0FD8
0FFC
0FFC
1FFC
7FFC
FFF0
FFC0
FFC0
FFC0
6FC0
0FC0
0FC0
0FC0
0FC0
0FC0
0FC0
0FC0
0FC0
0FC0
0FC0
0F80
0700
ENDCHAR
STARTCHAR g87
ENCODING 117
SWIDTH 556 0
DWIDTH 20 0
BBX 19 21 0 -1
BITMAP
0E0380
1F07C0
3F07C0
3F0FC0
3F0FC0
7E0FC0
7E0FC0
7E0FC0
FC1F80
FC1F80
FC1F80
FC1F00
FC1F80
FE1F80
7E7F80
7FFFC0
7FFFE0
3FFFE0
3FF3E0
0FE3E0
0380C0
ENDCHAR
STARTCHAR g88
ENCODING 118
SWIDTH 500 0
DWIDTH 18 0
BBX 18 23 0 0
BITMAP
000380
0007C0
0007C0
7807C0
FC0FC0
FC0FC0
FE0FC0
7E0F80
7F1F80
3F1F80
3F9F80
1F9F00
1FBF00
0FFF00
0FFE00
07FE00
07FE00
03FC00
03FC00
01FC00
01F800
00F800
00F000
ENDCHAR
STARTCHAR g89
ENCODING 119
SWIDTH 778 0
DWIDTH 28 0
BBX 28 22 0 -2
BITMAP
70078000
F80F80E0
FC1F81F0
FC1FC1F0
FC3FC3F0
FC3FC3F0
FC7FC3F0
FC7FE7E0
FCFFE7E0
FCFFEFE0
FDFBEFC0
FDFBFFC0
7FF1FF80
7FF1FF80
7FE1FF00
3FE0FF00
3FC0FE00
3FC07E00
1F807C00
1F807C00
0F003800
07000000
ENDCHAR
STARTCHAR g90
ENCODING 120
SWIDTH 500 0
DWIDTH 18 0
BBX 19 23 0 -2
BITMAP
380000
7C0000
FE0380
FE0FC0
7F1FC0
3FBFC0
1FFF80
1FFF00
0FFE00
07FC00
03F800
07FC00
0FFC00
0FFE00
1FFF00
3FBF00
7F3F80
7E1FC0
FE0FC0
FC0FE0
F807E0
F803E0
7001E0
ENDCHAR
STARTCHAR g91
ENCODING 121
SWIDTH 556 0
DWIDTH 20 0
BBX 19 31 0 -9
BITMAP
0003C0
0003E0
0007E0
3007E0
7807E0
FC07E0
FC0FC0
FC0FC0
FE0FC0
7F0FC0
7F1F80
3F9F80
3FDF00
1FFF00
0FFF00
07FF00
03FE00
01FE00
00FC00
01FC00
01F800
01F800
03F000
03F000
03F000
07E000
07E000
0FC000
0FC000
0FC000
078000
ENDCHAR
STARTCHAR g92
ENCODING 122
SWIDTH 500 0
DWIDTH 18 0
BBX 19 25 0 -3
BITMAP
000F80
01FFC0
1FFFC0
7FFFC0
7FFFC0
7FFF80
7F3F80
387F00
00FE00
01FC00
03F800
07F000
07E000
0FC000
1F8000
3F8000
7F0000
7FE000
FFFE00
FFFFC0
FFFFE0
7FFFE0
00FFE0
000FE0
0001C0
ENDCHAR
STARTCHAR g93
ENCODING 123
SWIDTH 444 0
DWIDTH 16 0
BBX 12 39 2 -6
BITMAP
0780
1FE0
3FF0
7FF0
7FF0
FF00
FE00
FC00
FC00
FE00
7E00
7F00
7F80
3FC0
1FC0
1FC0
3FC0
7F80
FF00
FE00
FC00
FE00
FF00
7F00
3F80
1F80
1F80
3F80
3F80
7F00
7F00
FE00
FE00
FE00
7F00
7FC0
3FE0
1FE0
07C0
ENDCHAR
STARTCHAR g94
ENCODING 124
SWIDTH 278 0
DWIDTH 10 0
BBX 6 34 2 -3
BITMAP
3C
FC
FC
FC
FC
FC
FC
FC
FC
FC
FC
FC
FC
FC
FC
E0
00
1C
FC
FC
FC
FC
FC
FC
FC
FC
FC
FC
FC
FC
FC
FC
FC
F0
ENDCHAR
STARTCHAR g95
ENCODING 125
SWIDTH 444 0
DWIDTH 16 0
BBX 12 39 2 -6
BITMAP
1E00
7F80
FFC0
FFE0
FFE0
0FF0
07F0
03F0
03F0
07F0
07E0
0FE0
1FE0
3FC0
3F80
3F80
3FC0
1FE0
0FF0
07F0
03F0
07F0
0FF0
0FE0
1FC0
1F80
1F80
1FC0
1FC0
0FE0
0FE0
07F0
07F0
07F0
0FE0
3FE0
7FC0
7F80
3E00
ENDCHAR
STARTCHAR g96
ENCODING 126
SWIDTH 667 0
DWIDTH 24 0
BBX 20 7 2 20
BITMAP
0F8060
3FE0F0
7FFBF0
FFFFF0
FFFFE0
F0FFC0
E01F80
ENDCHAR
STARTCHAR g97
ENCODING 127
SWIDTH 667 0
DWIDTH 24 0
BBX 0 0 0 0
BITMAP
ENDCHAR
STARTCHAR g98
ENCODING 161
SWIDTH 333 0
DWIDTH 12 0
BBX 9 29 1 -7
BITMAP
0F80
1F80
1F80
3F80
3F80
1F80
0E00
0000
0E00
0E00
1E00
1F00
1F00
3F00
3F00
7F00
7F80
7F80
7F80
FF80
FF80
FF80
FF80
FF00
FF00
FF00
7E00
7E00
3C00
ENDCHAR
STARTCHAR g99
ENCODING 162
SWIDTH 611 0
DWIDTH 22 0
BBX 17 29 3 -2
BITMAP
00E000
01F000
01F000
01F000
01F000
01F000
01FE00
07FF00
0FFF00
3FFF00
3FF600
7FF000
7DF000
FDF000
FDF000
F9F000
FDF300
FDF780
7FFF80
7FFF80
3FFF00
1FFE00
07F800
01F000
01F000
01F000
01F000
01E000
00E000
ENDCHAR
STARTCHAR g100
ENCODING 163
SWIDTH 667 0
DWIDTH 24 0
BBX 18 28 3 0
BITMAP
000F80
001FC0
003FC0
007FC0
00FF80
00FE00
01FC00
01F800
03F800
03F000
03F000
3FFF80
7FFF80
FFFF80
FFFF00
7FC000
1FC000
1F8000
3F8000
3F0000
7F0000
7E0000
7E07C0
FFFFC0
FFFFC0
FFFFC0
FFFF80
FFFF00
ENDCHAR
STARTCHAR g101
ENCODING 164
SWIDTH 500 0
DWIDTH 18 0
BBX 18 22 0 3
BITMAP
380000
7C03C0
7E07C0
7FFFC0
3FFFC0
1FFF80
1FFF00
3FBE00
3E1F00
3E1F00
3C0F00
3C0F00
3C1F00
3C1F00
3E1E00
3E3E00
3FFE00
7FFF80
FFFF80
FFFFC0
FB87C0
F00380
ENDCHAR
STARTCHAR g102
ENCODING 165
SWIDTH 667 0
DWIDTH 24 0
BBX 20 30 2 -1
BITMAP
700000
F801E0
FC03F0
FC03F0
FC07F0
FC07F0
FE07F0
FE0FE0
FE1FC0
7F1FC0
7FBF80
3FFF00
1FFF00
1FFE00
0FFDC0
07FFE0
03FFE0
1FFFC0
3FFF80
3FFC00
3FF9C0
1DFFE0
03FFE0
1FFFC0
3FFF80
3FF800
1FF800
01F800
01F800
00F000
ENDCHAR
STARTCHAR g103
ENCODING 167
SWIDTH 667 0
DWIDTH 24 0
BBX 16 35 4 -7
BITMAP
0030
01F8
07FC
1FFC
3FFC
3FF0
7F00
7E00
7E00
7F80
3FE0
3FF0
1FFC
0FFE
3FFF
7FFF
FE3F
FC1F
FC3F
FE7E
FF7E
7FFC
7FF0
3FF8
0FFC
03FE
00FE
007E
003E
007E
0FFE
1FFE
1FFC
1FF8
07E0
ENDCHAR
STARTCHAR g104
ENCODING 168
SWIDTH 500 0
DWIDTH 18 0
BBX 15 6 2 27
BITMAP
3C3C
7E7E
FEFE
FEFE
FCFC
7878
ENDCHAR
STARTCHAR g105
ENCODING 169
SWIDTH 889 0
DWIDTH 32 0
BBX 30 30 1 -2
BITMAP
001FF000
00FFFC00
03FFFF00
07FFFF80
0FFFFFC0
1FF83FE0
1FC3C7F0
3F9FF3F0
7F3FF9F8
7E7FF9F8
7C7F78FC
FCFC78FC
FCF8387C
F8F8007C
F9F0007C
F9F0007C
F9F0007C
F8F0787C
F8F8787C
FCFDF8FC
FCFFF0F8
7E7FE1F8
7F3FE3F8
7F8F0FF0
3FF03FF0
1FFFFFE0
0FFFFFC0
07FFFF00
01FFFE00
003FF000
ENDCHAR
STARTCHAR g106
ENCODING 170
SWIDTH 556 0
DWIDTH 20 0
BBX 15 21 3 7
BITMAP
03C0
0FFC
1FFC
3FFC
7E7C
7C3C
7C3C
F83C
F83C
F87C
F87C
FCFC
7FFE
7FFE
3FDE
1F8E
0000
0000
3FFC
7FFC
7FF8
ENDCHAR
STARTCHAR g107
ENCODING 171
SWIDTH 778 0
DWIDTH 28 0
BBX 24 20 2 2
BITMAP
007800
00FC00
01FC1E
03FC7F
07FCFF
0FF9FE
1FE3FE
3FC7FC
7F8FF0
FF1FE0
FF1FF0
FF9FF8
FFDFFE
7FE7FF
1FF9FF
0FFCFF
07FC3F
03FC1E
01FC00
007800
ENDCHAR
STARTCHAR g108
ENCODING 172
SWIDTH 556 0
DWIDTH 20 0
BBX 18 13 1 3
BITMAP
7FFFC0
FFFFC0
FFFFC0
FFFFC0
FFFFC0
7FFFC0
000FC0
000FC0
000FC0
000FC0
000FC0
000FC0
000780
ENDCHAR
STARTCHAR g109
ENCODING 174
SWIDTH 889 0
DWIDTH 32 0
BBX 30 30 1 -2
BITMAP
001FF000
00FFFC00
03FFFF00
03FFFF80
0FFFFFC0
1FF83FE0
1FC707F0
3FFFF3F0
7F7FF1F8
7E7FF9F8
7C7CF8FC
FC3C78FC
FC3C787C
F83CF87C
F83DF07C
F83FE07C
F83FC07C
F83FC07C
FC3FE07C
FC3FF8FC
7C3CFCF8
7E3C7DF8
7F3C3FF8
3F9C0FF0
3FF03FE0
0FFFFFE0
0FFFFF80
03FFFF00
01FFFE00
003FE000
ENDCHAR
STARTCHAR g110
ENCODING 175
SWIDTH 556 0
DWIDTH 20 0
BBX 18 5 1 24
BITMAP
7FFF80
FFFFC0
FFFFC0
FFFFC0
7FFF80
ENDCHAR
STARTCHAR g111
ENCODING 176
SWIDTH 444 0
DWIDTH 16 0
BBX 9 9 3 20
BITMAP
3E00
7F00
FF80
F780
E380
F780
FF80
7F00
3E00
ENDCHAR
STARTCHAR g112
ENCODING 177
SWIDTH 667 0
DWIDTH 24 0
BBX 18 28 3 -1
BITMAP
006000
01F000
03F000
03F000
03F000
03F000
03F000
03F000
7FFFC0
FFFFC0
FFFFC0
FFFFC0
FFFFC0
7FFF80
03F000
03F000
03F000
03F000
03F000
03F000
03F000
01C000
3FFFC0
FFFFC0
FFFFC0
FFFFC0
FFFFC0
FFFFC0
ENDCHAR
STARTCHAR g113
ENCODING 180
SWIDTH 389 0
DWIDTH 14 0
BBX 10 8 2 21
BITMAP
0380
0FC0
1FC0
3FC0
7F80
FF00
FC00
F000
ENDCHAR
STARTCHAR g114
ENCODING 181
SWIDTH 667 0
DWIDTH 24 0
BBX 25 27 -1 -6
BITMAP
00F00000
01F80E00
03F81F80
03F01F80
03F01F80
07F03F80
07E03F00
07E03F00
07E07F00
0FE07E00
0FC07E00
0FC0FE00
1FC0FC00
1FC1FC00
1FE3FC00
1FF7F800
3FFFF800
3FFFF800
3FFFFC00
7FFFFC00
7EFEFE00
7E7C7E00
FC000000
FC000000
FC000000
F8000000
F0000000
ENDCHAR
STARTCHAR g115
ENCODING 182
SWIDTH 667 0
DWIDTH 24 0
BBX 22 32 1 -4
BITMAP
00FFFC
0FFFFC
3FFFFC
7FFFFC
FFFFFC
FFFFE0
FFFBE0
FFFBE0
FFFBE0
FFFBE0
FFFBE0
FFFBE0
7FFBE0
3FFBE0
1FFBE0
07FBE0
01FBE0
01FBE0
01FBE0
01FBE0
01FBE0
01FBE0
01FBE0
01FBE0
01FBE0
01FBE0
01FBE0
01F3E0
00C3E0
0003E0
0003E0
0003C0
ENDCHAR
STARTCHAR g116
ENCODING 183
SWIDTH 333 0
DWIDTH 12 0
BBX 7 7 2 15
BITMAP
38
7C
FE
FE
FE
FC
78
ENDCHAR
STARTCHAR g117
ENCODING 184
SWIDTH 556 0
DWIDTH 20 0
BBX 10 9 5 -9
BITMAP
1800
3800
3F00
7F80
23C0
07C0
7FC0
FF80
7E00
ENDCHAR
STARTCHAR g118
ENCODING 186
SWIDTH 556 0
DWIDTH 20 0
BBX 14 21 3 7
BITMAP
0780
1FE0
3FF0
7FF8
7CF8
F87C
F03C
F03C
F03C
F03C
F87C
FCF8
7FF8
7FF0
1FE0
0780
0000
0000
3FF8
7FF8
7FF0
ENDCHAR
STARTCHAR g119
ENCODING 187
SWIDTH 778 0
DWIDTH 28 0
BBX 24 20 2 2
BITMAP
001E00
003F00
7C3F80
FE3FC0
FF3FE0
7F9FF0
7FC7F8
3FE3FC
0FF9FE
07F8FF
0FF8FF
1FF9FF
7FF3FF
FFE7FE
FF9FF8
FF3FF0
FC3FE0
783FC0
003F80
001E00
ENDCHAR
STARTCHAR g120
ENCODING 191
SWIDTH 667 0
DWIDTH 24 0
BBX 17 31 3 -8
BITMAP
01F000
03F000
03F800
07F800
03F000
03F000
01C000
000000
000000
03E000
07F800
07FC00
07FC00
01FE00
007E00
00FC00
03FC00
07FC00
0FF800
3FF000
7FC000
7F0700
FE0F80
FC0F80
F81F80
FE7F80
FFFF00
FFFF00
7FFE00
3FFC00
0FF000
ENDCHAR
STARTCHAR g121
ENCODING 192
SWIDTH 722 0
DWIDTH 26 0
BBX 22 35 2 -2
BITMAP
070000
0FC000
0FE000
0FE000
07F000
01F800
007000
00F800
01FC00
03FC00
03FE00
07FF00
0FFF00
0FFF80
1FDF80
1F8FC0
1F8FC0
3F87E0
3F07E0
3F07E0
3F07F0
7F03F0
7E03F0
7EFFFC
7FFFFC
7FFFFC
FFFFFC
FDFFF8
FC01F8
FC01F8
FC01FC
FC00FC
FC00FC
FC00FC
0000F8
ENDCHAR
STARTCHAR g122
ENCODING 193
SWIDTH 778 0
DWIDTH 28 0
BBX 22 36 3 -2
BITMAP
000700
001F80
003F80
007F80
007F00
00FC00
00F000
007000
00F800
01FC00
03FC00
03FE00
07FF00
0FFF00
0FFF80
1FDF80
1F8FC0
1F8FC0
3F87E0
3F07E0
3F07E0
3F07F0
7F03F0
7E03F0
7EFFFC
7FFFFC
7FFFFC
FFFFFC
FDFFF8
FC01F8
FC01F8
FC01FC
FC00FC
FC00FC
FC00FC
0000F8
ENDCHAR
STARTCHAR g123
ENCODING 194
SWIDTH 722 0
DWIDTH 26 0
BBX 22 35 2 -2
BITMAP
007800
01FC00
03FE00
07FF00
0FFF80
0FCFC0
0F87C0
00F800
01FC00
03FC00
03FE00
07FF00
0FFF00
0FFF80
1FDF80
1F8FC0
1F8FC0
3F87E0
3F07E0
3F07E0
3F07F0
7F03F0
7E03F0
7EFFFC
7FFFFC
7FFFFC
FFFFFC
FDFFF8
FC01F8
FC01F8
FC01FC
FC00FC
FC00FC
FC00FC
0000F8
ENDCHAR
STARTCHAR g124
ENCODING 195
SWIDTH 722 0
DWIDTH 26 0
BBX 22 35 2 -1
BITMAP
0FC0F0
3FF3F0
7FFFE0
7EFFC0
307F00
000000
007000
01F800
01FC00
03FC00
07FE00
07FF00
0FFF00
0FFF80
1F9F80
1F8FC0
1F8FC0
3F07E0
3F07E0
3F07E0
3F07F0
7F03F0
7E03F0
7EFFFC
7FFFFC
7FFFFC
FFFFFC
FDFFF8
FC01F8
FC01F8
FC01FC
FC00FC
FC00FC
F800FC
0000F8
ENDCHAR
STARTCHAR g125
ENCODING 196
SWIDTH 722 0
DWIDTH 26 0
BBX 22 35 2 -2
BITMAP
070380
0F87C0
1F8FC0
1F8FC0
1F8FC0
0F0780
007000
00F800
01FC00
03FC00
03FE00
07FF00
0FFF00
0FFF80
1FDF80
1F8FC0
1F8FC0
3F87E0
3F07E0
3F07E0
3F07F0
7F03F0
7E03F0
7EFFFC
7FFFFC
7FFFFC
FFFFFC
FDFFF8
FC01F8
FC01F8
FC01FC
FC00FC
FC00FC
FC00FC
0000F8
ENDCHAR
STARTCHAR g126
ENCODING 197
SWIDTH 722 0
DWIDTH 26 0
BBX 22 36 2 -1
BITMAP
00F000
03F800
07FC00
079C00
073C00
07FC00
03F800
01E000
03F800
03FC00
03FC00
07FE00
07FF00
0FFF00
0FFF80
1FBF80
1F8FC0
1F8FC0
3F07E0
3F07E0
3F07E0
3F07F0
7F03F0
7E03F0
7EFFFC
7FFFFC
7FFFFC
FFFFFC
FDFFF8
FC01F8
FC01F8
FC01FC
FC00FC
FC00FC
FC00FC
0000F8
ENDCHAR
STARTCHAR g127
ENCODING 198
SWIDTH 1000 0
DWIDTH 36 0
BBX 32 32 2 -3
BITMAP
00038000
0007FF80
000FFFF8
001FFFFE
003FFFFE
007FFFFE
007EFCFE
00FCFC0C
01FCFC00
01F8FC00
03F0FC00
03F0FC38
07E0FCFC
07E0FFFC
07E0FFFC
0FC0FFFC
0FC0FFE0
1F9FFF80
1FFFFE00
3FFFFC00
3FFFFC00
3FFEFC00
3FF0FC1E
7E00FEFF
7E00FFFF
7E00FFFF
FE00FFFE
FC00FFF0
FC007F00
FC000000
FC000000
78000000
ENDCHAR
STARTCHAR g128
ENCODING 199
SWIDTH 611 0
DWIDTH 22 0
BBX 19 37 1 -9
BITMAP
003E00
00FFC0
03FFC0
07FFE0
0FFFE0
1FFBE0
1FE3E0
3FC1C0
3F8000
7F0000
7F0000
7E0000
FE0000
FC0000
FC0000
FC0000
FC0000
FC0000
FC0000
FC01C0
FE03E0
FE03E0
7F07E0
7FBFC0
3FFFC0
3FFF80
1FFF00
07FE00
03F000
03C000
07F000
07F800
033C00
007C00
07FC00
0FF800
07E000
ENDCHAR
STARTCHAR g129
ENCODING 200
SWIDTH 611 0
DWIDTH 22 0
BBX 19 34 1 -1
BITMAP
0C0000
1F0000
1F8000
1FC000
0FE000
07E7C0
01FFE0
1FFFE0
FFFFE0
FFFFE0
FFFF80
FFF000
FF0000
3F0000
3F0000
3F0000
3F0F00
3FFF80
3FFF80
FFFF80
FFFF00
FFFE00
7FC000
7F0000
3F0000
3F0000
3F0000
3F01C0
3F0FE0
3FFFE0
3FFFE0
3FFFE0
3FFF80
1FFE00
ENDCHAR
STARTCHAR g130
ENCODING 201
SWIDTH 611 0
DWIDTH 22 0
BBX 19 36 2 -1
BITMAP
001C00
007E00
00FE00
01FE00
01FC00
03F000
03C380
000FC0
00FFC0
0FFFC0
7FFFC0
FFFF80
FFFC00
FFF000
FF0000
3F0000
3F0000
3F0F00
3F7F80
3FFF80
FFFF80
FFFF00
FFFE00
7FE000
7F0000
3F0000
3F0000
3F0000
3F03C0
3F0FE0
3FFFE0
3FFFE0
3FFFC0
3FFF80
1FFE00
07F800
ENDCHAR
STARTCHAR g131
ENCODING 202
SWIDTH 556 0
DWIDTH 20 0
BBX 19 36 0 -1
BITMAP
01C000
07F000
0FF800
1FFC00
1F7E00
3F3E00
3E1C00
3C07C0
00FFE0
1FFFE0
FFFFE0
FFFFE0
FFFF80
FFF000
FF0000
3F0000
3F0000
3F0000
3F0F00
3FFF80
3FFF80
FFFF80
FFFF00
FFFE00
7FC000
7F0000
3F0000
3F0000
3F0000
3F01C0
3F0FE0
3FFFE0
3FFFE0
3FFFE0
3FFF80
1FFE00
ENDCHAR
STARTCHAR g132
ENCODING 203
SWIDTH 611 0
DWIDTH 22 0
BBX 19 35 1 0
BITMAP
000F00
0F1F80
1FBF80
3FBF80
3FBF00
3F1E00
1E0180
001FC0
07FFE0
3FFFE0
FFFFE0
FFFF80
FFF000
FF0000
3F0000
3F0000
3F0000
3F0F00
3FFF80
3FFF80
FFFF80
FFFF00
FFFE00
7FC000
7F0000
3F0000
3F0000
3F0000
3F01C0
3F0FE0
3FFFE0
3FFFE0
3FFFE0
3FFF80
1FFE00
ENDCHAR
STARTCHAR g133
ENCODING 204
SWIDTH 389 0
DWIDTH 14 0
BBX 8 37 2 -2
BITMAP
70
F8
FC
FE
7F
7F
1F
02
0F
1F
3F
3F
3F
3F
3F
3F
3F
3F
3F
3F
3F
3F
3F
3F
3F
3F
3F
3F
3F
3F
3F
3F
3F
3F
3F
3F
3C
ENDCHAR
STARTCHAR g134
ENCODING 205
SWIDTH 389 0
DWIDTH 14 0
BBX 9 36 3 -2
BITMAP
0700
0F80
1F80
3F80
7F00
FC00
7000
0000
3C00
3E00
7E00
7E00
7E00
7E00
7E00
7E00
7E00
7E00
7E00
7E00
7E00
7E00
7E00
7E00
7E00
7E00
7E00
7E00
7E00
7E00
7E00
7E00
7E00
7E00
7E00
7800
ENDCHAR
STARTCHAR g135
ENCODING 206
SWIDTH 389 0
DWIDTH 14 0
BBX 12 37 1 -2
BITMAP
0F00
1F80
3FC0
7FE0
FFF0
F9F0
6070
0000
0700
0F80
1F80
1F80
1F80
1F80
1F80
1F80
1F80
1F80
1F80
1F80
1F80
1F80
1F80
1F80
1F80
1F80
1F80
1F80
1F80
1F80
1F80
1F80
1F80
1F80
1F80
1F00
0C00
ENDCHAR
STARTCHAR g136
ENCODING 207
SWIDTH 389 0
DWIDTH 14 0
BBX 15 35 -1 -2
BITMAP
3C3C
7E7E
FEFE
FEFE
FCFC
7878
0380
0FC0
0FC0
0FC0
0FC0
0FC0
0FC0
0FC0
0FC0
0FC0
0FC0
0FC0
0FC0
0FC0
0FC0
0FC0
0FC0
0FC0
0FC0
0FC0
0FC0
0FC0
0FC0
0FC0
0FC0
0FC0
0FC0
0F80
0F00
ENDCHAR
STARTCHAR g137
ENCODING 209
SWIDTH 667 0
DWIDTH 24 0
BBX 22 36 1 -1
BITMAP
00E03C
03F0FC
1FF3F0
3FFFE0
7FFFC0
7C7F00
203E38
3000FC
7C00FC
7C00FC
7E00FC
7E00FC
7F00FC
7F80FC
FFC1F8
FFC1F8
FFE1F8
FFE1F8
FFE1F8
FFF1F8
FDFBF0
FDFBF0
FCFFE0
FCFFE0
FC7FE0
FC7FC0
FC3FC0
FC3FC0
FC1FC0
FC1FC0
FC1FC0
FC0FC0
FC0F80
FC0780
FC0780
700000
ENDCHAR
STARTCHAR g138
ENCODING 210
SWIDTH 667 0
DWIDTH 24 0
BBX 20 37 2 -2
BITMAP
038000
07E000
07F000
07F000
03F800
00FC00
001800
00FF00
01FF80
07FFC0
0FFFC0
0FFFE0
1FE7E0
3F87E0
3F83F0
7F03F0
7E03F0
7E03F0
7E03F0
FC03F0
FC03F0
FC03F0
FC03F0
FC07E0
FC07E0
FC07E0
FC07E0
FC0FC0
FE0FC0
7E1F80
7F7F80
7FFF80
3FFF00
1FFE00
1FFE00
07F800
00E000
ENDCHAR
STARTCHAR g139
ENCODING 211
SWIDTH 667 0
DWIDTH 24 0
BBX 20 37 2 -2
BITMAP
0000E0
0003F0
000FF0
001FF0
003FE0
003F00
001C00
00FF00
01FF80
07FFC0
0FFFC0
0FFFE0
1FE7E0
3F87E0
3F83F0
7F03F0
7E03F0
7E03F0
7E03F0
FC03F0
FC03F0
FC03F0
FC03F0
FC07E0
FC07E0
FC07E0
FC07E0
FC0FC0
FE0FC0
7E1F80
7F7F80
7FFF80
3FFF00
1FFE00
1FFE00
07F800
00E000
ENDCHAR
STARTCHAR g140
ENCODING 212
SWIDTH 667 0
DWIDTH 24 0
BBX 20 37 2 -2
BITMAP
003800
00FE00
01FF00
03FF80
07EFC0
07C7C0
038380
007C00
01FF80
07FFC0
0FFFC0
0FFFE0
1FE7E0
3F87E0
3F83F0
7F03F0
7E03F0
7E03F0
7E03F0
FC03F0
FC03F0
FC03F0
FC03F0
FC07E0
FC07E0
FC07E0
FC07E0
FC0FC0
FE0FC0
7E1F80
7F7F80
7FFF80
3FFF00
1FFE00
1FFE00
07F800
00E000
ENDCHAR
STARTCHAR g141
ENCODING 213
SWIDTH 667 0
DWIDTH 24 0
BBX 20 34 2 -1
BITMAP
07F070
1FFFF0
3FFFF0
3F7FC0
3C0F80
00FE00
01FF00
07FF80
0FFFC0
0FFFC0
1FEFE0
3FC7E0
3F83E0
7F03E0
7E03F0
7E03F0
FE03F0
FC03F0
FC03F0
FC03E0
FC03E0
FC07E0
FC07E0
FC07E0
FC0FC0
FC0FC0
7E0FC0
7E1F80
7F7F80
3FFF00
3FFF00
1FFE00
0FF800
03F000
ENDCHAR
STARTCHAR g142
ENCODING 214
SWIDTH 667 0
DWIDTH 24 0
BBX 20 36 2 -1
BITMAP
0001C0
0383E0
07C7E0
0FC7E0
0FC7E0
0FC3C0
078000
003E00
01FF80
07FFC0
0FFFC0
0FFFE0
1FF7E0
3FC3E0
3F83F0
7F03F0
7E01F0
7E01F0
FE01F0
FC01F0
FC01F0
FC03F0
FC03F0
FC03F0
FC03E0
FC07E0
FC07E0
FC0FC0
7E0FC0
7E1FC0
7F7F80
3FFF80
3FFF00
1FFE00
0FFC00
03F800
ENDCHAR
STARTCHAR g143
ENCODING 216
SWIDTH 667 0
DWIDTH 24 0
BBX 21 33 2 -4
BITMAP
000070
00FC78
01FFF8
07FFF8
0FFFF0
0FFFF0
1FEFE0
3FCFE0
3F9FE0
7F3FE0
7E3FF0
7E7FF0
FE7BF0
FCFBF0
FCFBF0
FDF3F0
FDF3F0
FDE3F0
FFE7F0
FFC7E0
FFC7E0
7FCFC0
7F8FC0
7F9FC0
7F3F80
3FFF00
3FFF00
3FFE00
7FFC00
7FF000
F80000
F80000
700000
ENDCHAR
STARTCHAR g144
ENCODING 217
SWIDTH 667 0
DWIDTH 24 0
BBX 22 34 2 -1
BITMAP
00F000
01F800
01FC00
00FE00
007E00
001E00
0F0600
1F0000
3F8180
3F83E0
7F03F0
7F03F0
7E03F0
7E03F0
FE03F0
FE03F0
FC03F0
FC03F0
FC03F0
FC03F0
FC03F0
FC07E0
FC07E0
FC07E0
FC0FE0
FC0FF0
7E1FF0
7E1FF0
7F7FF8
3FFFF8
3FFEFC
1FFCFC
0FFC78
03F000
ENDCHAR
STARTCHAR g145
ENCODING 218
SWIDTH 667 0
DWIDTH 24 0
BBX 22 36 2 -1
BITMAP
0003C0
0007C0
000FC0
001FC0
001F80
003F00
003C00
001000
0F0000
1F0000
3F8180
3F83E0
7F03F0
7F03F0
7E03F0
7E03F0
FE03F0
FE03F0
FC03F0
FC03F0
FC03F0
FC03F0
FC03F0
FC07E0
FC07E0
FC07E0
FC0FE0
FC0FF0
7E1FF0
7E1FF0
7F7FF8
3FFFF8
3FFEFC
1FFCFC
0FFC78
03F000
ENDCHAR
STARTCHAR g146
ENCODING 219
SWIDTH 667 0
DWIDTH 24 0
BBX 22 36 2 -1
BITMAP
001C00
007F00
00FF80
01FFC0
03F7E0
03E3E0
01C1C0
000000
0F0000
1F0000
3F8180
3F83E0
7F03F0
7F03F0
7E03F0
7E03F0
FE03F0
FE03F0
FC03F0
FC03F0
FC03F0
FC03F0
FC03F0
FC07E0
FC07E0
FC07E0
FC0FE0
FC0FF0
7E1FF0
7E1FF0
7F7FF8
3FFFF8
3FFEFC
1FFCFC
0FFC78
03F000
ENDCHAR
STARTCHAR g147
ENCODING 220
SWIDTH 667 0
DWIDTH 24 0
BBX 22 35 2 -1
BITMAP
03C000
07E3C0
07E7E0
07E7E0
07E7E0
03C7E0
0003C0
0F0000
1F0000
3F8180
3F83E0
7F03F0
7F03F0
7E03F0
7E03F0
FE03F0
FE03F0
FC03F0
FC03F0
FC03F0
FC03F0
FC03F0
FC07E0
FC07E0
FC07E0
FC0FE0
FC0FF0
7E1FF0
7E1FF0
7F7FF8
3FFFF8
3FFEFC
1FFCFC
0FFC78
03F000
ENDCHAR
STARTCHAR g148
ENCODING 223
SWIDTH 667 0
DWIDTH 24 0
BBX 22 31 1 -3
BITMAP
07F800
0FFE00
3FFF00
3FFF00
7FFF80
7FBF80
FE0F80
FC1F80
FC3F80
FCFF00
FCFE00
FDFE00
FDF800
FDF800
FDFC00
FDFE00
FCFF80
FCFFE0
FC7FF0
FC1FF8
FC07F8
FC01FC
FC00FC
FCF87C
FCFCFC
FCFFFC
FC7FF8
FC7FF8
F83FF0
F00FC0
F00000
ENDCHAR
STARTCHAR g149
ENCODING 224
SWIDTH 556 0
DWIDTH 20 0
BBX 20 31 1 -1
BITMAP
038000
07E000
07F000
07F800
07FC00
03FC00
00FE00
001C00
000000
007F00
01FF80
07FF80
07FFC0
1FFFC0
1FEFC0
3F8FC0
7F0FC0
7F0FC0
7E0FC0
FC0FC0
FC0FC0
FC0FC0
FC0FC0
FC0FC0
FE1FE0
FFBFE0
7FFFF0
7FFFF0
3FFBF0
1FF1F0
07E0E0
ENDCHAR
STARTCHAR g150
ENCODING 225
SWIDTH 556 0
DWIDTH 20 0
BBX 20 31 1 -1
BITMAP
001C00
007E00
00FE00
01FE00
03FC00
07F800
07E000
078000
000000
007F00
01FF80
07FF80
07FFC0
1FFFC0
1FEFC0
3F8FC0
7F0FC0
7F0FC0
7E0FC0
FC0FC0
FC0FC0
FC0FC0
FC0FC0
FC0FC0
FE1FE0
FFBFE0
7FFFF0
7FFFF0
3FFBF0
1FF1F0
07E0E0
ENDCHAR
STARTCHAR g151
ENCODING 226
SWIDTH 556 0
DWIDTH 20 0
BBX 20 30 1 -1
BITMAP
00F000
01F800
03FC00
07FE00
0FFF00
1F9F80
1F0F80
000000
007F00
01FF80
07FF80
07FFC0
1FFFC0
1FEFC0
3F8FC0
7F0FC0
7F0FC0
7E0FC0
FC0FC0
FC0FC0
FC0FC0
FC0FC0
FC0FC0
FE1FE0
FFBFE0
7FFFF0
7FFFF0
3FFBF0
1FF1F0
07E0E0
ENDCHAR
STARTCHAR g152
ENCODING 227
SWIDTH 556 0
DWIDTH 20 0
BBX 20 31 0 -1
BITMAP
03E0F0
1FE3F0
3FFFF0
7FFFC0
7C7F80
307E00
003800
000000
000000
007F00
01FF80
07FF80
07FFC0
1FFFC0
1FEFC0
3F8FC0
7F0FC0
7F0FC0
7E0FC0
FC0FC0
FC0FC0
FC0FC0
FC0FC0
FC0FC0
FE1FE0
FFBFE0
7FFFF0
7FFFF0
3FFBF0
1FF1F0
07E0E0
ENDCHAR
STARTCHAR g153
ENCODING 228
SWIDTH 556 0
DWIDTH 20 0
BBX 20 30 1 -1
BITMAP
000F00
0F1F80
1F9F80
1F9F80
1F9F80
1F8F00
0F0000
000000
007F00
01FF80
07FF80
07FFC0
1FFFC0
1FEFC0
3F8FC0
7F0FC0
7F0FC0
7E0FC0
FC0FC0
FC0FC0
FC0FC0
FC0FC0
FC0FC0
FE1FE0
FFBFE0
7FFFF0
7FFFF0
3FFBF0
1FF1F0
07E0E0
ENDCHAR
STARTCHAR g154
ENCODING 229
SWIDTH 556 0
DWIDTH 20 0
BBX 20 33 1 -1
BITMAP
00F800
01FC00
03FE00
03DE00
038E00
03DE00
03FE00
01FC00
00F000
000000
000000
007F00
01FF80
07FF80
07FFC0
1FFFC0
1FEFC0
3F8FC0
7F0FC0
7F0FC0
7E0FC0
FC0FC0
FC0FC0
FC0FC0
FC0FC0
FC0FC0
FE1FE0
FFBFE0
7FFFF0
7FFFF0
3FFBF0
1FF1F0
07E0E0
ENDCHAR
STARTCHAR g155
ENCODING 230
SWIDTH 889 0
DWIDTH 32 0
BBX 30 22 1 0
BITMAP
007E07E0
01FF9FF8
07FFBFFC
07FFFFFC
1FFFFFFC
1FE7FC3C
3F87F87C
3F07F8FC
7F07F3F8
7E07FFF8
7E07FFF0
FC07FFE0
FC0FFF80
FC0FFE00
FC1FF030
FC3FF078
FE7FFDFC
7FFFFFF8
7FFFFFF8
3FF7FFF0
1FE3FFC0
07C1CF00
ENDCHAR
STARTCHAR g156
ENCODING 231
SWIDTH 556 0
DWIDTH 20 0
BBX 16 29 2 -8
BITMAP
01F0
07FC
0FFE
1FFE
3FFF
3F9F
7E0E
7E00
FC00
FC00
FC00
F800
F800
FC00
FC00
FC1E
7F3E
7FFE
3FFE
3FFC
0FF8
03E0
07F0
07F8
0378
01F8
0FF0
0FF0
0FC0
ENDCHAR
STARTCHAR g157
ENCODING 232
SWIDTH 556 0
DWIDTH 20 0
BBX 16 31 2 0
BITMAP
0700
0FC0
0FE0
0FF0
07F8
07F8
01FC
007C
0000
01F8
07FE
0FFE
1FFF
3FFF
3F9F
7E1F
7E3F
7C7F
FFFE
FFFC
FFF8
FFE0
FF80
F800
FC1E
FC3F
7FFF
7FFE
3FFC
1FF8
07E0
ENDCHAR
STARTCHAR g158
ENCODING 233
SWIDTH 556 0
DWIDTH 20 0
BBX 16 31 2 0
BITMAP
001C
007E
00FE
01FE
03FC
07F8
07E0
0780
0000
01F8
07FE
0FFE
1FFF
3FFF
3F9F
7E1F
7E3F
7C7F
FFFE
FFFC
FFF8
FFE0
FF80
F800
FC1E
FC3F
7FFF
7FFE
3FFC
1FF8
07E0
ENDCHAR
STARTCHAR g159
ENCODING 234
SWIDTH 556 0
DWIDTH 20 0
BBX 16 30 2 0
BITMAP
01F0
03F8
07FC
0FFE
1FBF
1F1F
0E0F
0000
01F8
07FE
0FFE
1FFF
3FFF
3F9F
7E1F
7E3F
7C7F
FFFE
FFFC
FFF8
FFE0
FF80
F800
FC1E
FC3F
7FFF
7FFE
3FFC
1FF8
07E0
ENDCHAR
STARTCHAR g160
ENCODING 235
SWIDTH 556 0
DWIDTH 20 0
BBX 16 30 2 0
BITMAP
000E
0E1F
1F3F
3F3F
3F3F
3F1E
1E00
0000
01F8
07FE
0FFE
1FFF
3FFF
3F9F
7E1F
7E3F
7C7F
FFFE
FFFC
FFF8
FFE0
FF80
F800
FC1E
FC3F
7FFF
7FFE
3FFC
1FF8
07E0
ENDCHAR
STARTCHAR g161
ENCODING 236
SWIDTH 333 0
DWIDTH 12 0
BBX 7 31 2 -1
BITMAP
70
F8
FC
FC
7E
3E
0E
02
00
18
3E
7E
7E
7E
7E
7E
7E
7E
7E
7E
7E
7E
7E
7E
7E
7E
7E
7E
7E
7E
38
ENDCHAR
STARTCHAR g162
ENCODING 237
SWIDTH 333 0
DWIDTH 12 0
BBX 7 31 3 -1
BITMAP
1C
3E
7E
7E
FC
F8
E0
C0
00
30
7C
FC
FC
FC
FC
FC
FC
FC
FC
FC
FC
FC
FC
FC
FC
FC
FC
FC
FC
FC
70
ENDCHAR
STARTCHAR g163
ENCODING 238
SWIDTH 333 0
DWIDTH 12 0
BBX 13 29 0 -1
BITMAP
0F80
1FC0
3FE0
7FF0
FDF8
F8F8
7078
0600
0F80
1F80
1F80
1F80
1F80
1F80
1F80
1F80
1F80
1F80
1F80
1F80
1F80
1F80
1F80
1F80
1F80
1F80
1F80
1F80
0E00
ENDCHAR
STARTCHAR g164
ENCODING 239
SWIDTH 333 0
DWIDTH 12 0
BBX 13 30 0 -1
BITMAP
0070
38F8
7DF8
FDF8
FDF8
FCF0
7800
0000
0600
0F80
1F80
1F80
1F80
1F80
1F80
1F80
1F80
1F80
1F80
1F80
1F80
1F80
1F80
1F80
1F80
1F80
1F80
1F80
1F80
0E00
ENDCHAR
STARTCHAR g165
ENCODING 241
SWIDTH 556 0
DWIDTH 20 0
BBX 18 28 1 0
BITMAP
0F8380
7FCFC0
FFFF80
FDFE00
F0FC00
007000
000000
780000
F83C00
FCFF00
FDFF00
FDFF80
FFFF80
FFFF80
FF9F80
FF1F80
FE1F80
FE1F80
FC1F80
FC1F80
FC1F80
FC1F80
FC1F80
FC1F80
FC1F80
FC1F80
FC1F80
780F00
ENDCHAR
STARTCHAR g166
ENCODING 242
SWIDTH 556 0
DWIDTH 20 0
BBX 19 31 0 -1
BITMAP
070000
0FC000
0FE000
0FF000
07F800
03FC00
00FC00
003C00
000000
00F800
03FE00
0FFF00
1FFF80
1FFF80
3FDFC0
7F0FC0
7E07E0
7E07E0
FC07E0
FC07E0
FC07E0
FC0FC0
FC0FC0
FE0FC0
7E1F80
7F7F80
3FFF00
3FFF00
1FFC00
0FF800
03E000
ENDCHAR
STARTCHAR g167
ENCODING 243
SWIDTH 556 0
DWIDTH 20 0
BBX 19 31 0 -1
BITMAP
000E00
003F00
007F00
00FF00
01FE00
03FC00
03F000
03C000
000000
00F800
03FE00
0FFF00
1FFF80
1FFF80
3FDFC0
7F0FC0
7E07E0
7E07E0
FC07E0
FC07E0
FC07E0
FC0FC0
FC0FC0
FE0FC0
7E1F80
7F7F80
3FFF00
3FFF00
1FFC00
0FF800
03E000
ENDCHAR
STARTCHAR g168
ENCODING 244
SWIDTH 556 0
DWIDTH 20 0
BBX 19 30 0 -1
BITMAP
00E000
03F800
07FC00
0FFE00
1FFF00
1FBF00
1F1F00
000000
00F800
03FE00
0FFF00
1FFF80
1FFF80
3FDFC0
7F0FC0
7E07E0
7E07E0
FC07E0
FC07E0
FC07E0
FC0FC0
FC0FC0
FE0FC0
7E1F80
7F7F80
3FFF00
3FFF00
1FFC00
0FF800
03E000
ENDCHAR
STARTCHAR g169
ENCODING 245
SWIDTH 556 0
DWIDTH 20 0
BBX 19 29 0 -1
BITMAP
0381C0
1FE7C0
3FFFC0
7FFF80
7CFE00
307800
000000
00F800
03FE00
0FFF00
1FFF80
1FFF80
3FDFC0
7F0FC0
7E07E0
7E07E0
FC07E0
FC07E0
FC07E0
FC0FC0
FC0FC0
FE0FC0
7E1F80
7F7F80
3FFF00
3FFF00
1FFC00
0FF800
03E000
ENDCHAR
STARTCHAR g170
ENCODING 246
SWIDTH 556 0
DWIDTH 20 0
BBX 19 29 0 -1
BITMAP
070700
0F8F80
1F9F80
1F9F80
1F9F80
0F0F00
000000
00F800
03FE00
0FFF00
1FFF80
1FFF80
3FDFC0
7F0FC0
7E07E0
7E07E0
FC07E0
FC07E0
FC07E0
FC0FC0
FC0FC0
FE0FC0
7E1F80
7F7F80
3FFF00
3FFF00
1FFC00
0FF800
03E000
ENDCHAR
STARTCHAR g171
ENCODING 247
SWIDTH 556 0
DWIDTH 20 0
BBX 18 22 1 1
BITMAP
00F000
01F800
03F800
03F800
03F800
03F000
01E000
000000
3FFF80
FFFFC0
FFFFC0
FFFFC0
FFFFC0
7FFF80
000000
01E000
03F000
07F000
07F000
07F000
07E000
03C000
ENDCHAR
STARTCHAR g172
ENCODING 248
SWIDTH 556 0
DWIDTH 20 0
BBX 19 22 0 -1
BITMAP
00F8E0
03FFE0
0FFFE0
1FFFE0
1FFF80
3FDFC0
7F3FC0
7E3FE0
7E7FE0
FCFFE0
FDF7E0
FDE7E0
FFE7E0
FFCFC0
FF8FC0
7F1F80
7F3F80
7FFF00
FFFF00
FFFC00
F7F800
E3E000
ENDCHAR
STARTCHAR g173
ENCODING 249
SWIDTH 556 0
DWIDTH 20 0
BBX 19 30 0 -1
BITMAP
01C000
03F000
03F800
03FC00
03FE00
01FF00
007F00
000F00
000000
0E0380
1F07C0
3F07C0
3F0FC0
3F0FC0
7E0FC0
7E0FC0
7E0FC0
FC1F80
FC1F80
FC1F80
FC1F00
FC1F80
FE1F80
7E7F80
7FFFC0
7FFFE0
3FFFE0
3FF3E0
0FE3E0
0380C0
ENDCHAR
STARTCHAR g174
ENCODING 250
SWIDTH 556 0
DWIDTH 20 0
BBX 19 30 0 -1
BITMAP
000380
000FC0
001FC0
003FC0
007FC0
00FF80
00FE00
00F000
000000
0E0380
1F07C0
3F07C0
3F0FC0
3F0FC0
7E0FC0
7E0FC0
7E0FC0
FC1F80
FC1F80
FC1F80
FC1F00
FC1F80
FE1F80
7E7F80
7FFFC0
7FFFE0
3FFFE0
3FF3E0
0FE3E0
0380C0
ENDCHAR
STARTCHAR g175
ENCODING 251
SWIDTH 556 0
DWIDTH 20 0
BBX 19 30 0 -1
BITMAP
00FC00
01FE00
03FF00
07FF80
0FEFC0
0FC7C0
0703C0
000000
000000
0E0380
1F07C0
3F07C0
3F0FC0
3F0FC0
7E0FC0
7E0FC0
7E0FC0
FC1F80
FC1F80
FC1F80
FC1F00
FC1F80
FE1F80
7E7F80
7FFFC0
7FFFE0
3FFFE0
3FF3E0
0FE3E0
0380C0
ENDCHAR
STARTCHAR g176
ENCODING 252
SWIDTH 556 0
DWIDTH 20 0
BBX 19 30 0 -1
BITMAP
01C1C0
03E3E0
07E7E0
07E7E0
07E7E0
03C3C0
000000
000000
000000
0E0380
1F07C0
3F07C0
3F0FC0
3F0FC0
7E0FC0
7E0FC0
7E0FC0
FC1F80
FC1F80
FC1F80
FC1F00
FC1F80
FE1F80
7E7F80
7FFFC0
7FFFE0
3FFFE0
3FF3E0
0FE3E0
0380C0
ENDCHAR
STARTCHAR g177
ENCODING 255
SWIDTH 667 0
DWIDTH 24 0
BBX 18 38 3 -9
BITMAP
001E00
003F00
3C7F00
7E7F00
FE7E00
FE3C00
FC0000
780300
0007C0
000FC0
780FC0
F80FC0
F80FC0
F81F80
FC1F80
FC1F80
FC1F00
FE3F00
7F3F00
7FBF00
3FFE00
1FFE00
1FFE00
0FFE00
07FC00
01FC00
01F800
03F800
03F000
07F000
07E000
0FE000
0FC000
0F8000
1F8000
1F8000
1F8000
1F8000
ENDCHAR
STARTCHAR g178
ENCODING 305
SWIDTH 333 0
DWIDTH 12 0
BBX 6 22 3 -1
BITMAP
30
7C
FC
FC
FC
FC
FC
FC
FC
FC
FC
FC
FC
FC
FC
FC
FC
FC
FC
FC
FC
70
ENDCHAR
STARTCHAR g179
ENCODING 338
SWIDTH 1000 0
DWIDTH 36 0
BBX 31 29 2 -1
BITMAP
00FE0000
01FFFFE0
07FFFFFC
0FFFFFFC
0FFFFFFC
1FEFFFFC
3FC7F3FC
3F83F018
7F03F000
7E03F000
7E03F030
FE03F1F8
FC03FFF8
FC03FFF8
FC03FFF8
FC03FFE0
FC07FF80
FC07FC00
FC07F000
FC0FF000
FC0FF000
7E0FF01C
7E1FF0FE
7F7FFFFE
3FFFFFFE
3FFFFFFE
1FFEFFF8
0FF8FFE0
03F00000
ENDCHAR
STARTCHAR g180
ENCODING 339
SWIDTH 889 0
DWIDTH 32 0
BBX 31 22 0 -1
BITMAP
007803F0
03FE0FFC
07FF1FFE
0FFFBFFE
1FFFBFFE
3FFFFE3E
3F8FFC3E
7F0FF87E
7E07F8FC
7E07FBFC
FC07FFF8
FC07FFF0
FC0FFFE0
FC0FFF80
FC0FF800
7E1FF83C
7F7FFC7E
3FFFFFFE
3FFF7FFC
1FFC3FF8
1FFC3FF0
03F00FC0
ENDCHAR
STARTCHAR g181
ENCODING 376
SWIDTH 667 0
DWIDTH 24 0
BBX 22 34 1 -1
BITMAP
078780
0FCFC0
1FDFC0
1FDFC0
1F9F80
0F0F38
F8007C
FC00FC
FC01FC
FE03FC
FE03F8
7E07F8
7F0FF0
7F9FE0
3FBFC0
3FFF80
1FFF80
0FFF00
07FE00
03FC00
01FC00
01FC00
00FC00
00FC00
00FC00
00FC00
00FC00
00FC00
00FC00
00FC00
00FC00
00FC00
00FC00
007800
ENDCHAR
STARTCHAR g182
ENCODING 402
SWIDTH 556 0
DWIDTH 20 0
BBX 21 36 -1 -8
BITMAP
0001F0
000FF8
001FF8
003FF8
007FF8
007F80
007E00
00FE00
00FC00
0FFFF0
3FFFF8
3FFFF8
3FFFF8
1FFFF8
03F000
03F000
07F000
07E000
07E000
0FC000
0FC000
0FC000
1F8000
1F8000
1F8000
3F0000
3F0000
7F0000
7E0000
7E0000
FE0000
FC0000
FC0000
F80000
F80000
780000
ENDCHAR
STARTCHAR g183
ENCODING 710
SWIDTH 556 0
DWIDTH 20 0
BBX 13 7 3 23
BITMAP
0700
1FC0
3FE0
7FF0
FFF8
FDF8
F8F8
ENDCHAR
STARTCHAR g184
ENCODING 711
SWIDTH 556 0
DWIDTH 20 0
BBX 14 6 3 26
BITMAP
F03C
F87C
7CF8
3FF0
1FE0
0FC0
ENDCHAR
STARTCHAR g185
ENCODING 728
SWIDTH 556 0
DWIDTH 20 0
BBX 13 8 3 21
BITMAP
6030
F078
F078
F8F8
FFF8
7FF0
3FE0
1FC0
ENDCHAR
STARTCHAR g186
ENCODING 729
SWIDTH 556 0
DWIDTH 20 0
BBX 6 6 7 23
BITMAP
78
FC
FC
FC
FC
78
ENDCHAR
STARTCHAR g187
ENCODING 730
SWIDTH 556 0
DWIDTH 20 0
BBX 9 8 6 21
BITMAP
1E00
7F00
FF80
F380
E780
FF80
7F00
3C00
ENDCHAR
STARTCHAR g188
ENCODING 731
SWIDTH 556 0
DWIDTH 20 0
BBX 7 9 7 -9
BITMAP
3E
7E
F8
F0
F8
FC
7E
3E
1C
ENDCHAR
STARTCHAR g189
ENCODING 732
SWIDTH 556 0
DWIDTH 20 0
BBX 19 7 0 22
BITMAP
1F81E0
7FC7E0
FFFFC0
FDFF00
F1FE00
00FC00
007000
ENDCHAR
STARTCHAR g190
ENCODING 733
SWIDTH 556 0
DWIDTH 20 0
BBX 14 8 2 22
BITMAP
0C00
1E38
3E7C
7EFC
FDF8
FBF0
F3E0
61C0
ENDCHAR
STARTCHAR g191
ENCODING 960
SWIDTH 778 0
DWIDTH 28 0
BBX 22 24 3 -1
BITMAP
0000F8
000FFC
01FFFC
1FFFFC
FFFFFC
FFFFF8
FFFFE0
FFF7E0
7F87E0
1F87E0
1F87E0
1F87E0
1F87E0
1F87E0
1F87E0
1F87E0
1F87E0
1F87E0
1F87E0
1F87E0
1F87E0
1F87C0
1F8380
1F8000
ENDCHAR
STARTCHAR g192
ENCODING 8211
SWIDTH 556 0
DWIDTH 20 0
BBX 18 6 1 12
BITMAP
3FFF80
FFFFC0
FFFFC0
FFFFC0
FFFFC0
7FFF00
ENDCHAR
STARTCHAR g193
ENCODING 8212
SWIDTH 778 0
DWIDTH 28 0
BBX 28 6 0 12
BITMAP
3FFFFFE0
FFFFFFF0
FFFFFFF0
FFFFFFF0
FFFFFFF0
7FFFFFC0
ENDCHAR
STARTCHAR g194
ENCODING 8216
SWIDTH 278 0
DWIDTH 10 0
BBX 8 12 1 20
BITMAP
07
1F
3F
7E
7C
FC
FC
FE
FE
FE
7C
38
ENDCHAR
STARTCHAR g195
ENCODING 8217
SWIDTH 278 0
DWIDTH 10 0
BBX 8 13 1 19
BITMAP
38
7C
FE
FE
FF
3F
1F
1E
3E
3E
7C
78
20
ENDCHAR
STARTCHAR g196
ENCODING 8218
SWIDTH 444 0
DWIDTH 16 0
BBX 8 13 3 -7
BITMAP
38
7E
FE
FF
FF
7F
3E
3E
7C
7C
F8
F0
40
ENDCHAR
STARTCHAR g197
ENCODING 8220
SWIDTH 500 0
DWIDTH 18 0
BBX 16 14 1 18
BITMAP
0700
1F00
3F06
7E1F
7C3E
FC3E
FC7C
FE7C
FEFC
FEFE
7CFE
38FE
007C
0038
ENDCHAR
STARTCHAR g198
ENCODING 8221
SWIDTH 500 0
DWIDTH 18 0
BBX 15 14 2 18
BITMAP
3800
7C00
FE38
FE7C
FEFE
FEFE
3E7E
3E7E
7C7E
7C7E
F8FC
F1F8
01F0
01C0
ENDCHAR
STARTCHAR g199
ENCODING 8222
SWIDTH 778 0
DWIDTH 28 0
BBX 17 13 4 -5
BITMAP
001C00
383F00
7E7F00
FE7F80
FF7F80
FF3F80
FF1F80
3E1F00
3E3E00
7C3E00
7C7C00
F87800
702000
ENDCHAR
STARTCHAR g200
ENCODING 8224
SWIDTH 444 0
DWIDTH 16 0
BBX 14 21 1 8
BITMAP
0700
0F80
0F80
0F80
0F80
7FF8
FFFC
FFFC
FFFC
7FF8
0F80
0F80
0F80
0F80
0F80
0F80
0F80
0F80
0F80
0F80
0700
ENDCHAR
STARTCHAR g201
ENCODING 8225
SWIDTH 444 0
DWIDTH 16 0
BBX 14 24 1 5
BITMAP
0700
0F80
0F80
0F80
0F80
7FF8
FFFC
FFFC
FFFC
7FF8
0F80
0F80
7FF8
FFFC
FFFC
FFFC
7FF8
0F80
0F80
0F80
0F80
0F80
0F80
0700
ENDCHAR
STARTCHAR g202
ENCODING 8226
SWIDTH 667 0
DWIDTH 24 0
BBX 10 11 7 10
BITMAP
0E00
3F80
7F80
FFC0
FFC0
FFC0
FFC0
FFC0
7F80
3F00
1E00
ENDCHAR
STARTCHAR g203
ENCODING 8230
SWIDTH 889 0
DWIDTH 32 0
BBX 25 8 3 -1
BITMAP
3E3E0F00
7E7E1F80
FE7F3F80
FE7F3F80
FE7F3F80
FE7F3F80
FC7F3F80
F83E0E00
ENDCHAR
STARTCHAR g204
ENCODING 8240
SWIDTH 889 0
DWIDTH 32 0
BBX 32 34 0 -2
BITMAP
07E001C0
1FF803E0
3FFC07E0
7FFE07E0
7FFF8FE0
FE7FFFC0
FC1FFF80
F81FFF80
F81FFF00
F83EFE70
FC7EFDFC
FFFDFBFE
7FFBFBFE
7FFFF7DF
3FFFF78F
0FCFE78F
001FC7DF
003F83FE
007F83FE
007F7DFC
00FFFF70
01FDFF80
01FFFF80
03FFEFC0
07F7C7C0
0FF7C7C0
0FE7EFC0
1FC3FF80
3FC3FF80
3F81FF00
7F007C00
7F000000
7E000000
3C000000
ENDCHAR
STARTCHAR g205
ENCODING 8249
SWIDTH 556 0
DWIDTH 20 0
BBX 14 20 3 2
BITMAP
0038
00FC
01FC
03FC
07FC
0FF8
1FF0
3FE0
7FC0
FF80
FF00
FFC0
FFE0
7FF0
1FF8
0FFC
07FC
03FC
00FC
0078
ENDCHAR
STARTCHAR g206
ENCODING 8250
SWIDTH 556 0
DWIDTH 20 0
BBX 14 20 3 2
BITMAP
7000
FC00
FE00
FF00
FF80
7FC0
3FE0
1FF0
0FF8
07FC
03FC
0FFC
1FFC
3FF8
7FE0
FFC0
FF80
FF00
FC00
7800
ENDCHAR
STARTCHAR g207
ENCODING 8260
SWIDTH 556 0
DWIDTH 20 0
BBX 21 30 -1 -2
BITMAP
000070
0000F8
0000F8
0001F8
0003F8
0003F0
0007F0
000FE0
000FC0
001FC0
003F80
003F00
007F00
00FE00
00FC00
01FC00
03F800
03F000
07F000
0FE000
0FC000
1FC000
3F8000
3F8000
7F0000
FE0000
FE0000
FC0000
F80000
F80000
ENDCHAR
STARTCHAR g208
ENCODING 8482
SWIDTH 1000 0
DWIDTH 36 0
BBX 26 12 2 19
BITMAP
01CC0000
1FFF0380
FFDF8780
FF9F8FC0
FE1FEFC0
1E1FFFC0
1E1EFBC0
1E1EF3C0
1E1E73C0
1E1E63C0
1E1E0380
1C1C0000
ENDCHAR
STARTCHAR g209
ENCODING 8486
SWIDTH 889 0
DWIDTH 32 0
BBX 26 30 4 -1
BITMAP
000FF000
003FFC00
00FFFE00
01FFFF00
03FFFF00
07FE7F80
07F01F80
0FE01FC0
1FC00FC0
1F800FC0
3F800FC0
3F000FC0
3F000FC0
3F000FC0
7E000FC0
7E001F80
7E001F80
7F003F80
3F003F00
3F003F00
3F007E00
1F80FE00
0F80FC00
07E1F800
FFE1F000
FFEFFF00
FFEFFFC0
FFEFFFC0
7FCFFFC0
000FFF80
ENDCHAR
STARTCHAR g210
ENCODING 8706
SWIDTH 556 0
DWIDTH 20 0
BBX 18 29 1 -1
BITMAP
07C000
0FF000
0FF800
0FFC00
0FFE00
03FF00
007F80
003F80
001FC0
01FFC0
07FFC0
1FFFC0
3FFFC0
3FFFC0
7F8FC0
7E0FC0
FE0FC0
FC0FC0
FC0FC0
FC1F80
FC1F80
FC1F80
FE3F00
7F7F00
7FFE00
3FFE00
3FFC00
1FF800
07E000
ENDCHAR
STARTCHAR g211
ENCODING 8710
SWIDTH 778 0
DWIDTH 28 0
BBX 25 28 1 -3
BITMAP
00700000
00F80000
00FC0000
01FC0000
01FE0000
01FF0000
03FF0000
03FF8000
07FF8000
07EFC000
07CFE000
0FC7E000
0FC7F000
0F83F000
1F81F800
1F81F800
1F00FC00
3F00FE00
3F007E00
3E003F00
7E0FFF80
7FFFFF80
FFFFFF80
FFFFFF80
FFFFFF80
FFFE0000
FF800000
7C000000
ENDCHAR
STARTCHAR g212
ENCODING 8719
SWIDTH 778 0
DWIDTH 28 0
BBX 22 31 3 -3
BITMAP
3FFFF8
FFFFFC
FFFFFC
FFFFFC
FFFFFC
7FFFF8
1F87E0
1F87E0
1F87E0
1F87E0
1F87E0
1F87E0
1F87E0
1F87E0
1F87E0
1F87E0
1F87E0
1F87E0
1F87E0
1F87E0
1F87E0
1F87E0
1F87E0
1F87E0
1F87E0
1F87E0
1F87E0
1F87E0
1F0380
1F0000
0E0000
ENDCHAR
STARTCHAR g213
ENCODING 8721
SWIDTH 667 0
DWIDTH 24 0
BBX 22 31 1 -5
BITMAP
3FFFF0
3FFFF8
3FFFFC
3FFFFC
3FFFF8
1FFFE0
0FF800
07FE00
03FE00
01FF00
00FF80
007FE0
001FF0
000FF8
0007F8
001FF0
003FE0
007FE0
00FFC0
01FF00
03FE00
07FC00
0FF000
1FF000
3FC0F8
7F87FC
FFFFFC
FFFFFC
FFFFFC
FFFFF8
7FFFC0
ENDCHAR
STARTCHAR g214
ENCODING 8730
SWIDTH 889 0
DWIDTH 32 0
BBX 28 35 2 -5
BITMAP
000001F0
000001F0
000001F0
000003F0
000003F0
000003E0
000007E0
000007E0
00000FC0
00000FC0
00000FC0
00000F80
00001F80
00001F80
00003F00
00003F00
00003F00
00007E00
00007E00
07007E00
0F80FC00
1FC0FC00
3FE0FC00
7FF1F800
7FF9F800
FFFDF800
F1FFF000
E0FFF000
007FF000
003FE000
001FE000
001FE000
000FC000
0007C000
00018000
ENDCHAR
STARTCHAR g215
ENCODING 8734
SWIDTH 889 0
DWIDTH 32 0
BBX 30 18 1 4
BITMAP
000007C0
00001FF0
0FC07FF8
1FF0FFF8
3FF1FFFC
7FFBFCFC
7FFFF07C
FC7FE07C
F83FC07C
F83F807C
F83F80FC
F87FC1F8
F8FFE3F8
FFFFFFF0
7FF3FFF0
7FE3FFE0
3FC1FFC0
1F007E00
ENDCHAR
STARTCHAR g216
ENCODING 8747
SWIDTH 556 0
DWIDTH 20 0
BBX 19 34 -2 -6
BITMAP
000FC0
003FE0
007FE0
007FE0
007FE0
00FFC0
00FE00
00FC00
00FC00
00FC00
00FC00
00FC00
00FC00
00FC00
00FC00
00FC00
00FC00
00FC00
00FC00
00FC00
00FC00
00FC00
00FC00
00FC00
00FC00
00FC00
01FC00
71F800
FFF800
FFF800
FFF800
FFF000
7FE000
1F8000
ENDCHAR
STARTCHAR g217
ENCODING 8776
SWIDTH 556 0
DWIDTH 20 0
BBX 18 15 1 5
BITMAP
0E0000
3FC1C0
FFE3C0
FFF7C0
FFFFC0
F1FFC0
F0FF80
067E00
1F8000
7FE1C0
7FFFC0
FFFFC0
F9FFC0
F0FF80
E07E00
ENDCHAR
STARTCHAR g218
ENCODING 8800
SWIDTH 556 0
DWIDTH 20 0
BBX 15 24 3 -2
BITMAP
0078
00F8
00F8
00F8
01F0
1FFE
7FFE
7FFE
7FFE
7FFE
7FFC
07C0
0780
7FFC
FFFC
FFFC
FFFC
FFF8
7FF0
1E00
3E00
3E00
3C00
3C00
ENDCHAR
STARTCHAR g219
ENCODING 8804
SWIDTH 556 0
DWIDTH 20 0
BBX 18 27 1 -2
BITMAP
000C00
003F00
007F00
01FF00
03FF00
07FE00
0FFC00
3FF800
7FE000
FFC000
FFC000
7FF000
3FF800
1FFE00
0FFF00
03FF80
00FF80
007F80
001F80
000F00
000000
7FFF80
FFFFC0
FFFFC0
FFFFC0
FFFFC0
FFFF80
ENDCHAR
STARTCHAR g220
ENCODING 8805
SWIDTH 556 0
DWIDTH 20 0
BBX 25 28 -6 -3
BITMAP
00180000
007E0000
007F0000
007FC000
007FE000
003FF000
001FF800
000FFE00
0003FF00
0001FF80
0001FF80
0007FF00
000FFE00
003FFC00
007FF800
00FFE000
00FF8000
00FF0000
00FC0000
00780000
00000000
00FFFF00
01FFFF80
01FFFF80
01FFFF80
01FFFF80
01FFFF00
80000000
ENDCHAR
STARTCHAR g221
ENCODING 9674
SWIDTH 889 0
DWIDTH 32 0
BBX 30 29 1 2
BITMAP
0003C000
0007E000
000FF000
001FF800
007FFC00
00FFFE00
01FEFF00
03FC7F80
07F83FC0
0FF01FE0
3FE00FF0
7F8007F8
FF0003FC
FE0001FC
FC0001FC
FE0003FC
7F0007F8
3F800FF0
1FC01FE0
0FE03FC0
07F07F80
03F8FF00
01FFFE00
00FFFC00
007FF000
003FE000
001FC000
000F8000
00070000
ENDCHAR
STARTCHAR g222
ENCODING 63252
SWIDTH 611 0
DWIDTH 22 0
BBX 18 25 2 0
BITMAP
03F800
0FFC00
1FFE00
3FFF00
7FFF80
7F3F80
FE3F80
FC7FC0
FC7FC0
F8FFC0
F8FFC0
F9F7C0
F9F7C0
FBE7C0
FBE7C0
FFC7C0
FFCFC0
7F8FC0
7F8FC0
7F1F80
3FFF80
3FFF80
1FFF00
0FFE00
03F800
ENDCHAR
STARTCHAR g223
ENCODING 63253
SWIDTH 389 0
DWIDTH 14 0
BBX 15 30 -1 -2
BITMAP
001C
01FE
1FFE
7FFE
FFFE
FFFC
FFE0
7FE0
0FE0
0FE0
0FE0
0FE0
0FE0
0FE0
0FE0
0FE0
0FE0
0FE0
0FE0
0FE0
0FE0
0FE0
0FEC
0FFE
0FFE
3FFE
7FFE
7FFC
7FF0
3F00
ENDCHAR
STARTCHAR g224
ENCODING 63254
SWIDTH 333 0
DWIDTH 12 0
BBX 10 33 1 -3
BITMAP
7C00
FF00
FF00
FF00
7F00
3F00
3F00
3F00
3F00
3F00
3F00
3F00
3F00
3F00
3F00
3F00
3F00
3F00
3F00
3F00
3F00
3F00
3F00
3F00
3F00
3F00
3F00
3F00
3F80
3FC0
3FC0
3FC0
0F80
ENDCHAR
STARTCHAR g225
ENCODING 63487
SWIDTH 833 0
DWIDTH 30 0
BBX 0 0 0 0
BITMAP
ENDCHAR
STARTCHAR g226
ENCODING 64257
SWIDTH 611 0
DWIDTH 22 0
BBX 19 33 1 -3
BITMAP
00FC00
03FF00
07FF80
0FFFC0
0FFFC0
0FEFC0
1FC780
1F8000
1F8000
1F81C0
1F87E0
1FBFE0
1FFFE0
1FFFE0
3FFFE0
7FFFE0
FFE7E0
FF87E0
FF87E0
7F87E0
1F87E0
1F87E0
1F87E0
1F87E0
1F87E0
1F87E0
1F87E0
1F87E0
1F87E0
1F87E0
1F83C0
1F0000
0E0000
ENDCHAR
STARTCHAR g227
ENCODING 64258
SWIDTH 667 0
DWIDTH 24 0
BBX 21 33 1 -3
BITMAP
03F800
07FE70
0FFEF8
1FFFF8
1FFFF8
3F9FF8
3F87F8
3F01F8
3F01F8
3F01F8
3F19F8
3FFDF8
3FFDF8
3FFDF8
7FF9F8
FFE1F8
FF01F8
7F01F8
3F01F8
3F01F8
3F01F8
3F01F8
3F01F8
3F01F8
3F01F8
3F01F8
3F01F8
3F01F8
3F01F8
3F01F8
3F01F0
3E00E0
1C0000
ENDCHAR
STARTCHAR g228
ENCODING 64512
SWIDTH 694 0
DWIDTH 25 0
BBX 19 29 3 0
BITMAP
FFFFE0
FFFFE0
FFFFE0
FFFFE0
FFFFE0
F803E0
F803E0
F803E0
F803E0
F803E0
F803E0
F803E0
F803E0
F803E0
F803E0
F803E0
F803E0
F803E0
F803E0
F803E0
F803E0
F803E0
F803E0
F803E0
FFFFE0
FFFFE0
FFFFE0
FFFFE0
FFFFE0
ENDCHAR
STARTCHAR g229
ENCODING 64513
SWIDTH 694 0
DWIDTH 25 0
BBX 19 29 3 0
BITMAP
FFFFE0
FFFFE0
FFFFE0
FFFFE0
FFFFE0
F803E0
F803E0
F803E0
F803E0
F803E0
F803E0
F803E0
F803E0
F803E0
F803E0
F803E0
F803E0
F803E0
F803E0
F803E0
F803E0
F803E0
F803E0
F803E0
FFFFE0
FFFFE0
FFFFE0
FFFFE0
FFFFE0
ENDCHAR
STARTCHAR g230
ENCODING 64514
SWIDTH 694 0
DWIDTH 25 0
BBX 19 29 3 0
BITMAP
FFFFE0
FFFFE0
FFFFE0
FFFFE0
FFFFE0
F803E0
F803E0
F803E0
F803E0
F803E0
F803E0
F803E0
F803E0
F803E0
F803E0
F803E0
F803E0
F803E0
F803E0
F803E0
F803E0
F803E0
F803E0
F803E0
FFFFE0
FFFFE0
FFFFE0
FFFFE0
FFFFE0
ENDCHAR
STARTCHAR g231
ENCODING 64515
SWIDTH 694 0
DWIDTH 25 0
BBX 19 29 3 0
BITMAP
FFFFE0
FFFFE0
FFFFE0
FFFFE0
FFFFE0
F803E0
F803E0
F803E0
F803E0
F803E0
F803E0
F803E0
F803E0
F803E0
F803E0
F803E0
F803E0
F803E0
F803E0
F803E0
F803E0
F803E0
F803E0
F803E0
FFFFE0
FFFFE0
FFFFE0
FFFFE0
FFFFE0
ENDCHAR
STARTCHAR g232
ENCODING 64516
SWIDTH 694 0
DWIDTH 25 0
BBX 19 29 3 0
BITMAP
FFFFE0
FFFFE0
FFFFE0
FFFFE0
FFFFE0
F803E0
F803E0
F803E0
F803E0
F803E0
F803E0
F803E0
F803E0
F803E0
F803E0
F803E0
F803E0
F803E0
F803E0
F803E0
F803E0
F803E0
F803E0
F803E0
FFFFE0
FFFFE0
FFFFE0
FFFFE0
FFFFE0
ENDCHAR
STARTCHAR g233
ENCODING 64517
SWIDTH 694 0
DWIDTH 25 0
BBX 19 29 3 0
BITMAP
FFFFE0
FFFFE0
FFFFE0
FFFFE0
FFFFE0
F803E0
F803E0
F803E0
F803E0
F803E0
F803E0
F803E0
F803E0
F803E0
F803E0
F803E0
F803E0
F803E0
F803E0
F803E0
F803E0
F803E0
F803E0
F803E0
FFFFE0
FFFFE0
FFFFE0
FFFFE0
FFFFE0
ENDCHAR
STARTCHAR g234
ENCODING 64518
SWIDTH 694 0
DWIDTH 25 0
BBX 19 29 3 0
BITMAP
FFFFE0
FFFFE0
FFFFE0
FFFFE0
FFFFE0
F803E0
F803E0
F803E0
F803E0
F803E0
F803E0
F803E0
F803E0
F803E0
F803E0
F803E0
F803E0
F803E0
F803E0
F803E0
F803E0
F803E0
F803E0
F803E0
FFFFE0
FFFFE0
FFFFE0
FFFFE0
FFFFE0
ENDCHAR
STARTCHAR g235
ENCODING 64519
SWIDTH 694 0
DWIDTH 25 0
BBX 19 29 3 0
BITMAP
FFFFE0
FFFFE0
FFFFE0
FFFFE0
FFFFE0
F803E0
F803E0
F803E0
F803E0
F803E0
F803E0
F803E0
F803E0
F803E0
F803E0
F803E0
F803E0
F803E0
F803E0
F803E0
F803E0
F803E0
F803E0
F803E0
FFFFE0
FFFFE0
FFFFE0
FFFFE0
FFFFE0
ENDCHAR
STARTCHAR g236
ENCODING 64520
SWIDTH 694 0
DWIDTH 25 0
BBX 19 29 3 0
BITMAP
FFFFE0
FFFFE0
FFFFE0
FFFFE0
FFFFE0
F803E0
F803E0
F803E0
F803E0
F803E0
F803E0
F803E0
F803E0
F803E0
F803E0
F803E0
F803E0
F803E0
F803E0
F803E0
F803E0
F803E0
F803E0
F803E0
FFFFE0
FFFFE0
FFFFE0
FFFFE0
FFFFE0
ENDCHAR
STARTCHAR g237
ENCODING 64521
SWIDTH 694 0
DWIDTH 25 0
BBX 19 29 3 0
BITMAP
FFFFE0
FFFFE0
FFFFE0
FFFFE0
FFFFE0
F803E0
F803E0
F803E0
F803E0
F803E0
F803E0
F803E0
F803E0
F803E0
F803E0
F803E0
F803E0
F803E0
F803E0
F803E0
F803E0
F803E0
F803E0
F803E0
FFFFE0
FFFFE0
FFFFE0
FFFFE0
FFFFE0
ENDCHAR
STARTCHAR g238
ENCODING 64522
SWIDTH 694 0
DWIDTH 25 0
BBX 19 29 3 0
BITMAP
FFFFE0
FFFFE0
FFFFE0
FFFFE0
FFFFE0
F803E0
F803E0
F803E0
F803E0
F803E0
F803E0
F803E0
F803E0
F803E0
F803E0
F803E0
F803E0
F803E0
F803E0
F803E0
F803E0
F803E0
F803E0
F803E0
FFFFE0
FFFFE0
FFFFE0
FFFFE0
FFFFE0
ENDCHAR
STARTCHAR g239
ENCODING 64523
SWIDTH 694 0
DWIDTH 25 0
BBX 19 29 3 0
BITMAP
FFFFE0
FFFFE0
FFFFE0
FFFFE0
FFFFE0
F803E0
F803E0
F803E0
F803E0
F803E0
F803E0
F803E0
F803E0
F803E0
F803E0
F803E0
F803E0
F803E0
F803E0
F803E0
F803E0
F803E0
F803E0
F803E0
FFFFE0
FFFFE0
FFFFE0
FFFFE0
FFFFE0
ENDCHAR
STARTCHAR g240
ENCODING 64524
SWIDTH 694 0
DWIDTH 25 0
BBX 19 29 3 0
BITMAP
FFFFE0
FFFFE0
FFFFE0
FFFFE0
FFFFE0
F803E0
F803E0
F803E0
F803E0
F803E0
F803E0
F803E0
F803E0
F803E0
F803E0
F803E0
F803E0
F803E0
F803E0
F803E0
F803E0
F803E0
F803E0
F803E0
FFFFE0
FFFFE0
FFFFE0
FFFFE0
FFFFE0
ENDCHAR
STARTCHAR g241
ENCODING 64525
SWIDTH 694 0
DWIDTH 25 0
BBX 19 29 3 0
BITMAP
FFFFE0
FFFFE0
FFFFE0
FFFFE0
FFFFE0
F803E0
F803E0
F803E0
F803E0
F803E0
F803E0
F803E0
F803E0
F803E0
F803E0
F803E0
F803E0
F803E0
F803E0
F803E0
F803E0
F803E0
F803E0
F803E0
FFFFE0
FFFFE0
FFFFE0
FFFFE0
FFFFE0
ENDCHAR
STARTCHAR g242
ENCODING 64526
SWIDTH 694 0
DWIDTH 25 0
BBX 19 29 3 0
BITMAP
FFFFE0
FFFFE0
FFFFE0
FFFFE0
FFFFE0
F803E0
F803E0
F803E0
F803E0
F803E0
F803E0
F803E0
F803E0
F803E0
F803E0
F803E0
F803E0
F803E0
F803E0
F803E0
F803E0
F803E0
F803E0
F803E0
FFFFE0
FFFFE0
FFFFE0
FFFFE0
FFFFE0
ENDCHAR
STARTCHAR g243
ENCODING 64527
SWIDTH 694 0
DWIDTH 25 0
BBX 19 29 3 0
BITMAP
FFFFE0
FFFFE0
FFFFE0
FFFFE0
FFFFE0
F803E0
F803E0
F803E0
F803E0
F803E0
F803E0
F803E0
F803E0
F803E0
F803E0
F803E0
F803E0
F803E0
F803E0
F803E0
F803E0
F803E0
F803E0
F803E0
FFFFE0
FFFFE0
FFFFE0
FFFFE0
FFFFE0
ENDCHAR
ENDFONT
