STARTFONT 2.1
COMMENT Strike 5 of a Newton 'sfnt' font (bloc/bdat): tools/fonts/newtonsfnt.py,
COMMENT tools/fonts/README.md.  The builder reads the BLOC_* properties and the
COMMENT glyphs - STARTCHAR gN (N the glyph id; otherwise ENCODING through 'cmap'),
COMMENT DWIDTH (the advance), BBX (width, height, the bearing x, the bottom row's
COMMENT y: bearing y less the height) and the BITMAP rows.  A glyph id in the
COMMENT subtable ranges with no glyph here has no image (the missing glyph is 0).
COMMENT The other properties, SIZE, FONTBOUNDINGBOX and SWIDTH are worked out and
COMMENT not read back: change BLOC_HORI_* (the line metrics the ROM draws text by)
COMMENT to match an edit that changes the strike's extent.
FONT -Apple-Roman Regular-Medium-R-Normal--24-240-72-72-P-0-Apple-Roman
SIZE 24 72 72
FONTBOUNDINGBOX 26 26 -2 -5
STARTPROPERTIES 37
FONT_ASCENT 21
FONT_DESCENT 8
PIXEL_SIZE 24
FAMILY_NAME "Roman Regular"
BLOC_COLOR_REF 0
BLOC_HORI_ASCENDER 21
BLOC_HORI_DESCENDER -8
BLOC_HORI_WIDTH_MAX 26
BLOC_HORI_CARET_SLOPE_NUMERATOR 0
BLOC_HORI_CARET_SLOPE_DENOMINATOR 1
BLOC_HORI_CARET_OFFSET 0
BLOC_HORI_MIN_ORIGIN_SB -2
BLOC_HORI_MIN_ADVANCE_SB -2
BLOC_HORI_MAX_BEFORE_BL 21
BLOC_HORI_MIN_AFTER_BL -5
BLOC_HORI_PAD1 0
BLOC_HORI_PAD2 0
BLOC_VERT_ASCENDER 0
BLOC_VERT_DESCENDER -3
BLOC_VERT_WIDTH_MAX 26
BLOC_VERT_CARET_SLOPE_NUMERATOR 0
BLOC_VERT_CARET_SLOPE_DENOMINATOR 1
BLOC_VERT_CARET_OFFSET 0
BLOC_VERT_MIN_ORIGIN_SB 119
BLOC_VERT_MIN_ADVANCE_SB 52
BLOC_VERT_MAX_BEFORE_BL 0
BLOC_VERT_MIN_AFTER_BL 92
BLOC_VERT_PAD1 0
BLOC_VERT_PAD2 0
BLOC_START_GLYPH 0
BLOC_END_GLYPH 257
BLOC_PPEM_X 24
BLOC_PPEM_Y 24
BLOC_BIT_DEPTH 1
BLOC_FLAGS 1
BLOC_INDEX_SUBTABLES 1
BLOC_INDEX_SUBTABLE_0 "0 257 3 1 0"
ENDPROPERTIES
CHARS 244
STARTCHAR g0
ENCODING -1
SWIDTH 1000 0
DWIDTH 24 0
BBX 18 19 3 0
BITMAP
FFFFC0
800040
800040
800040
800040
800040
800040
800040
800040
800040
800040
800040
800040
800040
800040
800040
800040
800040
FFFFC0
ENDCHAR
STARTCHAR g1
ENCODING 0
SWIDTH 0 0
DWIDTH 0 0
BBX 0 0 0 0
BITMAP
ENDCHAR
STARTCHAR g2
ENCODING 1
SWIDTH 333 0
DWIDTH 8 0
BBX 0 0 0 0
BITMAP
ENDCHAR
STARTCHAR g3
ENCODING 2
SWIDTH 333 0
DWIDTH 8 0
BBX 2 18 3 0
BITMAP
C0
C0
C0
C0
C0
C0
C0
C0
C0
C0
C0
C0
C0
C0
00
00
C0
C0
ENDCHAR
STARTCHAR g4
ENCODING 3
SWIDTH 417 0
DWIDTH 10 0
BBX 6 4 2 14
BITMAP
84
84
84
84
ENDCHAR
STARTCHAR g5
ENCODING 4
SWIDTH 667 0
DWIDTH 16 0
BBX 12 12 2 6
BITMAP
0840
0840
0840
7FF0
1080
1080
1080
1080
FFE0
2100
2100
2100
ENDCHAR
STARTCHAR g6
ENCODING 5
SWIDTH 583 0
DWIDTH 14 0
BBX 11 22 1 -2
BITMAP
0A00
0A00
3F80
6BC0
CAC0
CA40
CA00
6A00
3A00
1E00
0F00
0B80
0AC0
0A60
0A60
8A60
CA60
EA40
7A80
3F00
0A00
0A00
ENDCHAR
STARTCHAR g7
ENCODING 6
SWIDTH 750 0
DWIDTH 18 0
BBX 12 16 3 0
BITMAP
3040
4840
CC80
CC80
CD00
4900
3200
0200
0400
04C0
0920
0B30
1330
1330
2120
20C0
ENDCHAR
STARTCHAR g8
ENCODING 7
SWIDTH 833 0
DWIDTH 20 0
BBX 16 18 2 0
BITMAP
0E00
1900
3100
3100
3200
3400
1800
1800
2C1E
660C
4308
C190
C0D0
C060
6070
7199
3F0F
0E06
ENDCHAR
STARTCHAR g9
ENCODING 8
SWIDTH 250 0
DWIDTH 6 0
BBX 1 4 3 14
BITMAP
80
80
80
80
ENDCHAR
STARTCHAR g10
ENCODING 9
SWIDTH 417 0
DWIDTH 10 0
BBX 5 22 2 -2
BITMAP
08
10
20
20
40
40
C0
C0
C0
C0
C0
C0
C0
C0
C0
C0
40
40
20
20
10
08
ENDCHAR
STARTCHAR g11
ENCODING 10
SWIDTH 417 0
DWIDTH 10 0
BBX 5 22 3 -2
BITMAP
80
40
20
20
10
10
18
18
18
18
18
18
18
18
18
18
10
10
20
20
40
80
ENDCHAR
STARTCHAR g12
ENCODING 11
SWIDTH 500 0
DWIDTH 12 0
BBX 7 8 2 10
BITMAP
10
92
54
38
38
54
92
10
ENDCHAR
STARTCHAR g13
ENCODING 12
SWIDTH 500 0
DWIDTH 12 0
BBX 9 9 1 3
BITMAP
0800
0800
0800
0800
FF80
0800
0800
0800
0800
ENDCHAR
STARTCHAR g14
ENCODING 44
SWIDTH 250 0
DWIDTH 6 0
BBX 2 5 2 -3
BITMAP
C0
C0
40
40
80
ENDCHAR
STARTCHAR g15
ENCODING 45
SWIDTH 500 0
DWIDTH 12 0
BBX 8 1 2 7
BITMAP
FF
ENDCHAR
STARTCHAR g16
ENCODING 46
SWIDTH 250 0
DWIDTH 6 0
BBX 2 2 2 0
BITMAP
C0
C0
ENDCHAR
STARTCHAR g17
ENCODING 47
SWIDTH 583 0
DWIDTH 14 0
BBX 10 18 2 0
BITMAP
00C0
00C0
0180
0180
0300
0300
0600
0600
0C00
0C00
1800
1800
3000
3000
6000
6000
C000
C000
ENDCHAR
STARTCHAR g18
ENCODING 48
SWIDTH 667 0
DWIDTH 16 0
BBX 11 18 2 0
BITMAP
0E00
3180
60C0
60C0
C060
C060
C060
C060
C060
C060
C060
C060
C060
C060
60C0
60C0
3180
0E00
ENDCHAR
STARTCHAR g19
ENCODING 49
SWIDTH 667 0
DWIDTH 16 0
BBX 6 18 5 0
BITMAP
10
30
F0
30
30
30
30
30
30
30
30
30
30
30
30
30
30
FC
ENDCHAR
STARTCHAR g20
ENCODING 50
SWIDTH 667 0
DWIDTH 16 0
BBX 11 18 2 0
BITMAP
1F80
3FC0
40E0
8060
0060
0060
00C0
00C0
0180
0300
0600
0C00
1800
3000
2000
4020
FFE0
FFE0
ENDCHAR
STARTCHAR g21
ENCODING 51
SWIDTH 667 0
DWIDTH 16 0
BBX 11 20 2 -2
BITMAP
1F80
31C0
40C0
00C0
0080
0100
0200
0400
0F80
11C0
00E0
0060
0060
0060
0060
00C0
00C0
C180
E300
7C00
ENDCHAR
STARTCHAR g22
ENCODING 52
SWIDTH 667 0
DWIDTH 16 0
BBX 12 18 2 0
BITMAP
0020
0060
00C0
0180
0300
0640
0CC0
18C0
30C0
60C0
C0C0
FFF0
00C0
00C0
00C0
00C0
00C0
03F0
ENDCHAR
STARTCHAR g23
ENCODING 53
SWIDTH 667 0
DWIDTH 16 0
BBX 11 20 2 -2
BITMAP
7FC0
7FC0
4000
4000
7000
7C00
1F00
0780
01C0
00C0
00E0
0060
0060
0060
0060
00C0
00C0
0180
0600
F800
ENDCHAR
STARTCHAR g24
ENCODING 54
SWIDTH 667 0
DWIDTH 16 0
BBX 11 19 2 0
BITMAP
0180
0600
0C00
1800
3000
6000
6000
C000
CF80
D1C0
C0E0
C060
C060
C060
C060
6060
6040
3080
0F00
ENDCHAR
STARTCHAR g25
ENCODING 55
SWIDTH 667 0
DWIDTH 16 0
BBX 13 18 1 0
BITMAP
FFF8
FFF8
8030
0020
0060
0040
00C0
0080
0180
0100
0300
0200
0600
0400
0C00
0800
1800
1000
ENDCHAR
STARTCHAR g26
ENCODING 56
SWIDTH 667 0
DWIDTH 16 0
BBX 11 18 2 0
BITMAP
1F00
3180
60C0
60C0
60C0
7080
3900
1E00
0F00
3380
61C0
60C0
C060
C060
C060
4040
2080
1F00
ENDCHAR
STARTCHAR g27
ENCODING 57
SWIDTH 667 0
DWIDTH 16 0
BBX 11 18 2 0
BITMAP
1E00
3180
60C0
C0C0
C060
C060
C060
C060
6060
3160
1E60
0060
00C0
00C0
0180
0300
0600
1800
ENDCHAR
STARTCHAR g28
ENCODING 58
SWIDTH 250 0
DWIDTH 6 0
BBX 2 12 2 0
BITMAP
C0
C0
00
00
00
00
00
00
00
00
C0
C0
ENDCHAR
STARTCHAR g29
ENCODING 59
SWIDTH 250 0
DWIDTH 6 0
BBX 2 15 2 -3
BITMAP
C0
C0
00
00
00
00
00
00
00
00
C0
C0
40
40
80
ENDCHAR
STARTCHAR g30
ENCODING 60
SWIDTH 417 0
DWIDTH 10 0
BBX 6 11 2 2
BITMAP
04
08
10
20
40
80
40
20
10
08
04
ENDCHAR
STARTCHAR g31
ENCODING 61
SWIDTH 583 0
DWIDTH 14 0
BBX 10 4 2 5
BITMAP
FFC0
0000
0000
FFC0
ENDCHAR
STARTCHAR g32
ENCODING 62
SWIDTH 417 0
DWIDTH 10 0
BBX 6 11 2 2
BITMAP
80
40
20
10
08
04
08
10
20
40
80
ENDCHAR
STARTCHAR g33
ENCODING 63
SWIDTH 583 0
DWIDTH 14 0
BBX 9 18 3 0
BITMAP
7E00
E100
C080
0080
0080
0180
0300
0700
0E00
1C00
1800
3000
2000
2000
0000
0000
3000
3000
ENDCHAR
STARTCHAR g34
ENCODING 64
SWIDTH 833 0
DWIDTH 20 0
BBX 15 13 2 -1
BITMAP
0FE0
3018
600C
63C6
C666
CC66
CC66
CC66
CCA4
4718
6000
3000
0F00
ENDCHAR
STARTCHAR g35
ENCODING 65
SWIDTH 833 0
DWIDTH 20 0
BBX 16 18 2 0
BITMAP
0100
0100
0180
0380
02C0
02C0
0440
0460
0460
0830
0830
0FF0
1018
1018
1018
200C
200C
F83F
ENDCHAR
STARTCHAR g36
ENCODING 66
SWIDTH 667 0
DWIDTH 16 0
BBX 13 18 1 0
BITMAP
FF80
3060
3030
3030
3030
3030
3060
3FC0
3060
3030
3018
3018
3018
3018
3018
3030
3860
FF80
ENDCHAR
STARTCHAR g37
ENCODING 67
SWIDTH 583 0
DWIDTH 14 0
BBX 12 18 1 0
BITMAP
07E0
1870
3030
6010
6000
C000
C000
C000
C000
C000
C000
C000
C000
6000
6010
3030
1870
07E0
ENDCHAR
STARTCHAR g38
ENCODING 68
SWIDTH 667 0
DWIDTH 16 0
BBX 14 18 1 0
BITMAP
FF80
3060
3030
3018
3018
300C
300C
300C
300C
300C
300C
300C
300C
3018
3018
3030
3860
FF80
ENDCHAR
STARTCHAR g39
ENCODING 69
SWIDTH 583 0
DWIDTH 14 0
BBX 12 18 1 0
BITMAP
FFE0
3070
3030
3010
3000
3000
3040
30C0
3FC0
30C0
3040
3000
3000
3010
3010
3030
3070
FFE0
ENDCHAR
STARTCHAR g40
ENCODING 70
SWIDTH 583 0
DWIDTH 14 0
BBX 12 18 1 0
BITMAP
FFE0
3070
3030
3010
3000
3000
3040
30C0
3FC0
30C0
3040
3000
3000
3000
3000
3000
3000
FC00
ENDCHAR
STARTCHAR g41
ENCODING 71
SWIDTH 667 0
DWIDTH 16 0
BBX 14 18 1 0
BITMAP
07F0
1838
3018
6008
6000
C000
C000
C000
C000
C07C
C018
C018
C018
6018
6018
3018
1830
07C0
ENDCHAR
STARTCHAR g42
ENCODING 72
SWIDTH 750 0
DWIDTH 18 0
BBX 15 18 1 0
BITMAP
FC7E
3018
3018
3018
3018
3018
3018
3018
3FF8
3018
3018
3018
3018
3018
3018
3018
3018
FC7E
ENDCHAR
STARTCHAR g43
ENCODING 73
SWIDTH 500 0
DWIDTH 12 0
BBX 6 18 3 0
BITMAP
FC
30
30
30
30
30
30
30
30
30
30
30
30
30
30
30
30
FC
ENDCHAR
STARTCHAR g44
ENCODING 74
SWIDTH 417 0
DWIDTH 10 0
BBX 9 23 0 -5
BITMAP
0F80
0300
0300
0300
0300
0300
0300
0300
0300
0300
0300
0300
0300
0300
0300
0300
0300
0300
0300
0300
C200
C400
7800
ENDCHAR
STARTCHAR g45
ENCODING 75
SWIDTH 667 0
DWIDTH 16 0
BBX 14 18 1 0
BITMAP
F878
6020
6040
6080
6100
6200
6400
6800
7000
7800
7C00
6E00
6700
6380
61C0
60E0
6070
F9FC
ENDCHAR
STARTCHAR g46
ENCODING 76
SWIDTH 667 0
DWIDTH 16 0
BBX 13 18 1 0
BITMAP
FC00
3000
3000
3000
3000
3000
3000
3000
3000
3000
3000
3000
3000
3008
3008
3018
3038
FFF0
ENDCHAR
STARTCHAR g47
ENCODING 77
SWIDTH 1000 0
DWIDTH 24 0
BBX 20 18 2 0
BITMAP
F801F0
3801C0
2C03C0
2C02C0
2C02C0
2604C0
2604C0
2604C0
2308C0
2308C0
2310C0
2190C0
2190C0
21A0C0
20E0C0
20E0C0
2040C0
F843F0
ENDCHAR
STARTCHAR g48
ENCODING 78
SWIDTH 750 0
DWIDTH 18 0
BBX 16 18 1 0
BITMAP
F01F
3804
3804
2C04
2604
2604
2304
2184
2184
20C4
2064
2064
2034
201C
201C
200C
200C
F804
ENDCHAR
STARTCHAR g49
ENCODING 79
SWIDTH 667 0
DWIDTH 16 0
BBX 14 18 1 0
BITMAP
0780
1860
3030
6018
6018
C00C
C00C
C00C
C00C
C00C
C00C
C00C
C00C
6018
6018
3030
1860
0780
ENDCHAR
STARTCHAR g50
ENCODING 80
SWIDTH 667 0
DWIDTH 16 0
BBX 14 18 1 0
BITMAP
FFC0
3030
3018
3008
300C
300C
300C
300C
3018
3838
37F0
33C0
3000
3000
3000
3000
3000
FC00
ENDCHAR
STARTCHAR g51
ENCODING 81
SWIDTH 667 0
DWIDTH 16 0
BBX 14 22 1 -4
BITMAP
0780
1860
3030
6018
6018
C00C
C00C
C00C
C00C
C00C
C00C
C00C
C00C
6018
6018
3030
1860
0780
0300
0300
0180
00E0
ENDCHAR
STARTCHAR g52
ENCODING 82
SWIDTH 667 0
DWIDTH 16 0
BBX 14 18 1 0
BITMAP
FF80
3060
3030
3030
3030
3030
3030
3060
3FC0
3300
3180
3180
30C0
3060
3060
3030
3038
FC1C
ENDCHAR
STARTCHAR g53
ENCODING 83
SWIDTH 583 0
DWIDTH 14 0
BBX 11 18 1 0
BITMAP
1F80
21C0
40C0
C040
C000
C000
7000
7C00
1F00
0780
01C0
00E0
0060
0060
8060
C040
E080
7F00
ENDCHAR
STARTCHAR g54
ENCODING 84
SWIDTH 667 0
DWIDTH 16 0
BBX 13 19 1 0
BITMAP
8008
FFF8
C618
8608
0600
0600
0600
0600
0600
0600
0600
0600
0600
0600
0600
0600
0600
0600
1F80
ENDCHAR
STARTCHAR g55
ENCODING 85
SWIDTH 750 0
DWIDTH 18 0
BBX 16 18 1 0
BITMAP
FC1F
3004
3004
3004
3004
3004
3004
3004
3004
3004
3004
3004
3004
3004
3004
1808
1E10
07E0
ENDCHAR
STARTCHAR g56
ENCODING 86
SWIDTH 833 0
DWIDTH 20 0
BBX 16 18 2 0
BITMAP
FC1F
3004
3004
1808
1808
1808
0C10
0C10
0C10
0620
0620
0620
0340
0340
0340
0180
0180
0180
ENDCHAR
STARTCHAR g57
ENCODING 87
SWIDTH 1083 0
DWIDTH 26 0
BBX 23 18 1 0
BITMAP
FDF7BE
306208
306208
183410
183410
183410
0C1820
0C1820
0C1820
062C40
062C40
062C40
034680
034680
034680
018300
018300
018300
ENDCHAR
STARTCHAR g58
ENCODING 88
SWIDTH 667 0
DWIDTH 16 0
BBX 14 18 1 0
BITMAP
FC7C
3010
1820
1820
0C40
0C40
0680
0680
0300
0300
0580
0580
08C0
08C0
1060
1060
2030
F8FC
ENDCHAR
STARTCHAR g59
ENCODING 89
SWIDTH 667 0
DWIDTH 16 0
BBX 15 18 0 0
BITMAP
FC7E
3018
3010
1820
1820
0C40
0C40
0680
0680
0300
0300
0300
0300
0300
0300
0300
0300
0FC0
ENDCHAR
STARTCHAR g60
ENCODING 90
SWIDTH 500 0
DWIDTH 12 0
BBX 11 19 0 0
BITMAP
2000
7FC0
C0C0
8180
0180
0300
0300
0600
0600
0C00
0C00
1800
1800
3000
3000
6020
6020
C060
FFE0
ENDCHAR
STARTCHAR g61
ENCODING 91
SWIDTH 333 0
DWIDTH 8 0
BBX 4 22 2 -2
BITMAP
F0
C0
C0
C0
C0
C0
C0
C0
C0
C0
C0
C0
C0
C0
C0
C0
C0
C0
C0
C0
C0
F0
ENDCHAR
STARTCHAR g62
ENCODING 92
SWIDTH 583 0
DWIDTH 14 0
BBX 10 18 2 0
BITMAP
C000
C000
6000
6000
3000
3000
1800
1800
0C00
0C00
0600
0600
0300
0300
0180
0180
00C0
00C0
ENDCHAR
STARTCHAR g63
ENCODING 93
SWIDTH 333 0
DWIDTH 8 0
BBX 4 22 2 -2
BITMAP
F0
30
30
30
30
30
30
30
30
30
30
30
30
30
30
30
30
30
30
30
30
F0
ENDCHAR
STARTCHAR g64
ENCODING 94
SWIDTH 333 0
DWIDTH 8 0
BBX 5 3 1 15
BITMAP
20
50
88
ENDCHAR
STARTCHAR g65
ENCODING 95
SWIDTH 583 0
DWIDTH 14 0
BBX 14 1 0 0
BITMAP
FFFC
ENDCHAR
STARTCHAR g66
ENCODING 96
SWIDTH 250 0
DWIDTH 6 0
BBX 3 3 1 15
BITMAP
80
40
20
ENDCHAR
STARTCHAR g67
ENCODING 97
SWIDTH 583 0
DWIDTH 14 0
BBX 11 13 2 0
BITMAP
1F00
6380
C180
C180
0380
0D80
3180
6180
C180
C380
C780
FDE0
70C0
ENDCHAR
STARTCHAR g68
ENCODING 98
SWIDTH 667 0
DWIDTH 16 0
BBX 12 18 1 0
BITMAP
2000
6000
E000
6000
6000
6700
6FC0
70E0
6060
6030
6030
6030
6030
6030
6020
7060
78C0
4700
ENDCHAR
STARTCHAR g69
ENCODING 99
SWIDTH 500 0
DWIDTH 12 0
BBX 10 13 1 0
BITMAP
0F80
31C0
60C0
6040
C000
C000
C000
C000
C000
6040
70C0
3F80
0E00
ENDCHAR
STARTCHAR g70
ENCODING 100
SWIDTH 667 0
DWIDTH 16 0
BBX 12 18 2 0
BITMAP
0020
0060
00E0
0060
0060
0E60
31E0
60E0
4060
C060
C060
C060
C060
C060
6060
70E0
3F70
0E60
ENDCHAR
STARTCHAR g71
ENCODING 101
SWIDTH 583 0
DWIDTH 14 0
BBX 11 13 1 0
BITMAP
0F00
31C0
60C0
6060
C060
FFE0
C000
C000
C000
6040
70C0
3F80
0E00
ENDCHAR
STARTCHAR g72
ENCODING 102
SWIDTH 417 0
DWIDTH 10 0
BBX 9 18 0 0
BITMAP
0F00
1180
3080
3000
3000
7C00
3000
3000
3000
3000
3000
3000
3000
3000
3000
3000
3000
FC00
ENDCHAR
STARTCHAR g73
ENCODING 103
SWIDTH 583 0
DWIDTH 14 0
BBX 11 17 1 -4
BITMAP
1F00
61E0
C0C0
C0C0
C0C0
C0C0
6180
3F00
3000
6000
7F80
3FC0
60E0
C060
C060
60C0
3F00
ENDCHAR
STARTCHAR g74
ENCODING 104
SWIDTH 667 0
DWIDTH 16 0
BBX 14 18 1 0
BITMAP
1000
3000
7000
3000
3000
33C0
37E0
3870
3030
3030
3030
3030
3030
3030
3030
3030
3030
FCFC
ENDCHAR
STARTCHAR g75
ENCODING 105
SWIDTH 333 0
DWIDTH 8 0
BBX 6 18 1 0
BITMAP
30
30
00
00
00
10
30
70
30
30
30
30
30
30
30
30
30
FC
ENDCHAR
STARTCHAR g76
ENCODING 106
SWIDTH 333 0
DWIDTH 8 0
BBX 4 23 1 -5
BITMAP
30
30
00
00
00
10
30
70
30
30
30
30
30
30
30
30
30
30
30
30
30
60
C0
ENDCHAR
STARTCHAR g77
ENCODING 107
SWIDTH 667 0
DWIDTH 16 0
BBX 13 18 1 0
BITMAP
1000
3000
7000
3000
3000
30F0
3040
3080
3100
3200
3400
3C00
3600
3300
3180
30C0
3060
FCF8
ENDCHAR
STARTCHAR g78
ENCODING 108
SWIDTH 333 0
DWIDTH 8 0
BBX 6 18 1 0
BITMAP
10
30
70
30
30
30
30
30
30
30
30
30
30
30
30
30
30
FC
ENDCHAR
STARTCHAR g79
ENCODING 109
SWIDTH 1000 0
DWIDTH 24 0
BBX 19 13 3 0
BITMAP
270E00
6F9F00
F1E380
60C180
60C180
60C180
60C180
60C180
60C180
60C180
60C180
60C180
FBF7E0
ENDCHAR
STARTCHAR g80
ENCODING 110
SWIDTH 667 0
DWIDTH 16 0
BBX 14 13 1 0
BITMAP
13C0
37E0
F870
3030
3030
3030
3030
3030
3030
3030
3030
3030
FCFC
ENDCHAR
STARTCHAR g81
ENCODING 111
SWIDTH 583 0
DWIDTH 14 0
BBX 12 13 1 0
BITMAP
0F00
30C0
6060
6060
C030
C030
C030
C030
C030
6060
6060
30C0
0F00
ENDCHAR
STARTCHAR g82
ENCODING 112
SWIDTH 667 0
DWIDTH 16 0
BBX 12 17 2 -4
BITMAP
2700
6FC0
F0E0
6060
6030
6030
6030
6030
6030
6020
7060
78C0
6700
6000
6000
6000
F800
ENDCHAR
STARTCHAR g83
ENCODING 113
SWIDTH 667 0
DWIDTH 16 0
BBX 12 17 2 -4
BITMAP
0E20
31E0
60E0
6060
C060
C060
C060
C060
C060
6060
70E0
3F60
0E60
0060
0060
0060
01F0
ENDCHAR
STARTCHAR g84
ENCODING 114
SWIDTH 500 0
DWIDTH 12 0
BBX 9 13 1 0
BITMAP
2700
6F80
F180
6000
6000
6000
6000
6000
6000
6000
6000
6000
F800
ENDCHAR
STARTCHAR g85
ENCODING 115
SWIDTH 500 0
DWIDTH 12 0
BBX 8 13 2 0
BITMAP
3E
67
C3
C1
E0
78
1E
07
03
81
C1
E2
7C
ENDCHAR
STARTCHAR g86
ENCODING 116
SWIDTH 417 0
DWIDTH 10 0
BBX 8 16 1 0
BITMAP
10
10
30
FC
30
30
30
30
30
30
30
30
30
31
3E
1C
ENDCHAR
STARTCHAR g87
ENCODING 117
SWIDTH 667 0
DWIDTH 16 0
BBX 12 13 2 0
BITMAP
E0E0
6060
6060
6060
6060
6060
6060
6060
6060
6060
70F0
3F60
1E40
ENDCHAR
STARTCHAR g88
ENCODING 118
SWIDTH 667 0
DWIDTH 16 0
BBX 15 13 0 0
BITMAP
FC3E
3008
3008
1810
1810
0C20
0C20
0640
0640
0380
0380
0100
0100
ENDCHAR
STARTCHAR g89
ENCODING 119
SWIDTH 917 0
DWIDTH 22 0
BBX 21 13 0 0
BITMAP
FDF0F8
30C020
30C020
186040
186040
0C3080
0C3080
065900
065900
038E00
038E00
010400
010400
ENDCHAR
STARTCHAR g90
ENCODING 120
SWIDTH 583 0
DWIDTH 14 0
BBX 11 13 1 0
BITMAP
FBE0
3080
1880
1900
0D00
0E00
0600
0E00
0B00
1300
1180
2180
FBE0
ENDCHAR
STARTCHAR g91
ENCODING 121
SWIDTH 667 0
DWIDTH 16 0
BBX 15 18 0 -5
BITMAP
FC3E
3008
3008
1810
1810
0C20
0C20
0640
0640
0380
0380
0100
0100
0200
0200
0400
1C00
1800
ENDCHAR
STARTCHAR g92
ENCODING 122
SWIDTH 500 0
DWIDTH 12 0
BBX 10 14 1 0
BITMAP
2000
7FC0
6180
4300
0700
0600
0C00
1C00
1800
3000
7000
6040
C0C0
FFC0
ENDCHAR
STARTCHAR g93
ENCODING 123
SWIDTH 417 0
DWIDTH 10 0
BBX 6 21 2 -2
BITMAP
0C
10
20
60
60
60
60
60
60
40
80
40
60
60
60
60
60
60
20
10
0C
ENDCHAR
STARTCHAR g94
ENCODING 124
SWIDTH 250 0
DWIDTH 6 0
BBX 2 21 2 -2
BITMAP
C0
C0
C0
C0
C0
C0
C0
C0
C0
C0
00
C0
C0
C0
C0
C0
C0
C0
C0
C0
C0
ENDCHAR
STARTCHAR g95
ENCODING 125
SWIDTH 417 0
DWIDTH 10 0
BBX 6 21 2 -2
BITMAP
C0
20
10
18
18
18
18
18
18
08
04
08
18
18
18
18
18
18
10
20
C0
ENDCHAR
STARTCHAR g96
ENCODING 126
SWIDTH 500 0
DWIDTH 12 0
BBX 8 2 2 16
BITMAP
71
8E
ENDCHAR
STARTCHAR g97
ENCODING 127
SWIDTH 667 0
DWIDTH 16 0
BBX 0 0 0 0
BITMAP
ENDCHAR
STARTCHAR g98
ENCODING 161
SWIDTH 333 0
DWIDTH 8 0
BBX 2 18 3 0
BITMAP
C0
C0
00
00
C0
C0
C0
C0
C0
C0
C0
C0
C0
C0
C0
C0
C0
C0
ENDCHAR
STARTCHAR g99
ENCODING 162
SWIDTH 625 0
DWIDTH 15 0
BBX 10 21 3 -2
BITMAP
0400
0400
0400
0400
1F80
24C0
6440
4400
C400
C400
C400
C400
C400
4400
6440
3480
1F00
0400
0400
0400
0400
ENDCHAR
STARTCHAR g100
ENCODING 163
SWIDTH 667 0
DWIDTH 16 0
BBX 13 18 1 0
BITMAP
0F80
19C0
10C0
3000
3000
3000
3000
3000
FE00
3000
3000
3000
3000
3008
3018
3018
3030
FFC0
ENDCHAR
STARTCHAR g101
ENCODING 164
SWIDTH 667 0
DWIDTH 16 0
BBX 14 14 1 2
BITMAP
4008
EFDC
7FF8
3870
3030
6018
6018
6018
6018
3030
3870
7FF8
EFDC
4008
ENDCHAR
STARTCHAR g102
ENCODING 165
SWIDTH 667 0
DWIDTH 16 0
BBX 15 18 0 0
BITMAP
FC7E
3018
3010
1820
1820
0C40
0C40
3EF0
0680
0300
3FF0
0300
0300
0300
0300
0300
0300
0FC0
ENDCHAR
STARTCHAR g103
ENCODING 167
SWIDTH 583 0
DWIDTH 14 0
BBX 9 18 2 0
BITMAP
3F00
4780
8180
8080
C000
7000
7C00
9F00
8780
C180
7080
7D00
1F00
0780
8180
C080
E100
7E00
ENDCHAR
STARTCHAR g104
ENCODING 168
SWIDTH 333 0
DWIDTH 8 0
BBX 5 1 1 17
BITMAP
88
ENDCHAR
STARTCHAR g105
ENCODING 169
SWIDTH 750 0
DWIDTH 18 0
BBX 12 12 3 0
BITMAP
0F00
30C0
6060
4620
8910
8810
8810
8910
4620
6060
30C0
0F00
ENDCHAR
STARTCHAR g106
ENCODING 170
SWIDTH 583 0
DWIDTH 14 0
BBX 10 13 2 5
BITMAP
1E00
6700
C300
C700
0B00
3300
6300
C300
C700
FBC0
7180
0000
FFC0
ENDCHAR
STARTCHAR g107
ENCODING 171
SWIDTH 583 0
DWIDTH 14 0
BBX 10 11 2 0
BITMAP
0440
0880
1100
2200
4400
8800
4400
2200
1100
0880
0440
ENDCHAR
STARTCHAR g108
ENCODING 172
SWIDTH 667 0
DWIDTH 16 0
BBX 12 5 2 4
BITMAP
FFF0
0010
0010
0010
0010
ENDCHAR
STARTCHAR g109
ENCODING 174
SWIDTH 750 0
DWIDTH 18 0
BBX 12 12 3 0
BITMAP
0F00
30C0
6060
4E20
8910
8910
8E10
8910
4920
6060
30C0
0F00
ENDCHAR
STARTCHAR g110
ENCODING 175
SWIDTH 542 0
DWIDTH 13 0
BBX 6 2 4 15
BITMAP
FC
FC
ENDCHAR
STARTCHAR g111
ENCODING 176
SWIDTH 417 0
DWIDTH 10 0
BBX 5 5 3 14
BITMAP
70
88
88
88
70
ENDCHAR
STARTCHAR g112
ENCODING 177
SWIDTH 667 0
DWIDTH 16 0
BBX 11 14 3 0
BITMAP
0400
0400
0400
0400
0400
FFE0
0400
0400
0400
0400
0400
0000
0000
FFE0
ENDCHAR
STARTCHAR g113
ENCODING 180
SWIDTH 333 0
DWIDTH 8 0
BBX 3 3 2 15
BITMAP
20
40
80
ENDCHAR
STARTCHAR g114
ENCODING 181
SWIDTH 750 0
DWIDTH 18 0
BBX 15 18 1 -4
BITMAP
0C06
0C06
0C06
1C0E
180C
180C
180C
381C
3018
3018
3838
3CF8
7FF0
67B0
6000
6000
C000
C000
ENDCHAR
STARTCHAR g115
ENCODING 182
SWIDTH 750 0
DWIDTH 18 0
BBX 16 18 1 0
BITMAP
0FFF
30CC
60CC
40CC
C0CC
C0CC
C0CC
C0CC
60CC
70CC
3FCC
0ECC
00CC
00CC
00CC
00CC
00CC
03FF
ENDCHAR
STARTCHAR g116
ENCODING 183
SWIDTH 625 0
DWIDTH 15 0
BBX 2 2 6 6
BITMAP
C0
C0
ENDCHAR
STARTCHAR g117
ENCODING 184
SWIDTH 542 0
DWIDTH 13 0
BBX 4 5 5 -5
BITMAP
60
C0
60
30
E0
ENDCHAR
STARTCHAR g118
ENCODING 186
SWIDTH 500 0
DWIDTH 12 0
BBX 10 13 1 5
BITMAP
1E00
3300
6180
4080
C0C0
C0C0
C0C0
4080
6180
3300
1E00
0000
FFC0
ENDCHAR
STARTCHAR g119
ENCODING 187
SWIDTH 583 0
DWIDTH 14 0
BBX 10 11 2 0
BITMAP
8800
4400
2200
1100
0880
0440
0880
1100
2200
4400
8800
ENDCHAR
STARTCHAR g120
ENCODING 191
SWIDTH 583 0
DWIDTH 14 0
BBX 9 18 2 0
BITMAP
0600
0600
0000
0000
0200
0200
0600
0C00
1C00
3800
7000
6000
C000
8000
8000
8180
4380
3F00
ENDCHAR
STARTCHAR g121
ENCODING 192
SWIDTH 833 0
DWIDTH 20 0
BBX 16 21 2 0
BITMAP
0200
0100
0080
0000
0100
0180
0380
02C0
02C0
0440
0460
0460
0830
0830
0FF0
1018
1018
1018
200C
200C
F83F
ENDCHAR
STARTCHAR g122
ENCODING 193
SWIDTH 833 0
DWIDTH 20 0
BBX 16 21 2 0
BITMAP
0080
0100
0200
0000
0100
0180
0380
02C0
02C0
0440
0460
0460
0830
0830
0FF0
1018
1018
1018
200C
200C
F83F
ENDCHAR
STARTCHAR g123
ENCODING 194
SWIDTH 833 0
DWIDTH 20 0
BBX 16 21 2 0
BITMAP
0100
0280
0440
0000
0100
0180
0380
02C0
02C0
0440
0460
0460
0830
0830
0FF0
1018
1018
1018
200C
200C
F83F
ENDCHAR
STARTCHAR g124
ENCODING 195
SWIDTH 833 0
DWIDTH 20 0
BBX 16 21 2 0
BITMAP
0710
08E0
0000
0100
0100
0180
0380
02C0
02C0
0440
0460
0460
0830
0830
0FF0
1018
1018
1018
200C
200C
F83F
ENDCHAR
STARTCHAR g125
ENCODING 196
SWIDTH 833 0
DWIDTH 20 0
BBX 16 21 2 0
BITMAP
0440
0000
0000
0100
0100
0180
0380
02C0
02C0
0440
0460
0460
0830
0830
0FF0
1018
1018
1018
200C
200C
F83F
ENDCHAR
STARTCHAR g126
ENCODING 197
SWIDTH 833 0
DWIDTH 20 0
BBX 16 21 2 0
BITMAP
0180
0240
0240
0180
0100
0180
0380
02C0
02C0
0440
0460
0460
0830
0830
0FF0
1018
1018
1018
200C
200C
F83F
ENDCHAR
STARTCHAR g127
ENCODING 198
SWIDTH 1000 0
DWIDTH 24 0
BBX 22 18 1 0
BITMAP
003FF0
003838
005818
005808
009800
009800
011820
011860
03FFE0
021860
041820
041800
081800
081804
101804
10180C
20181C
F87FF8
ENDCHAR
STARTCHAR g128
ENCODING 199
SWIDTH 583 0
DWIDTH 14 0
BBX 12 22 1 -4
BITMAP
07E0
1870
3030
6010
6000
C000
C000
C000
C000
C000
C000
C000
C000
6000
6010
3030
1870
07E0
0300
0080
0080
0100
ENDCHAR
STARTCHAR g129
ENCODING 200
SWIDTH 583 0
DWIDTH 14 0
BBX 12 21 1 0
BITMAP
0400
0200
0000
FFE0
3070
3030
3010
3000
3000
3040
30C0
3FC0
30C0
3040
3000
3000
3010
3010
3030
3070
FFE0
ENDCHAR
STARTCHAR g130
ENCODING 201
SWIDTH 583 0
DWIDTH 14 0
BBX 12 21 1 0
BITMAP
0100
0200
0000
FFE0
3070
3030
3010
3000
3000
3040
30C0
3FC0
30C0
3040
3000
3000
3010
3010
3030
3070
FFE0
ENDCHAR
STARTCHAR g131
ENCODING 202
SWIDTH 583 0
DWIDTH 14 0
BBX 12 21 1 0
BITMAP
0200
0500
0000
FFE0
3070
3030
3010
3000
3000
3040
30C0
3FC0
30C0
3040
3000
3000
3010
3010
3030
3070
FFE0
ENDCHAR
STARTCHAR g132
ENCODING 203
SWIDTH 583 0
DWIDTH 14 0
BBX 12 20 1 0
BITMAP
0880
0000
FFE0
3070
3030
3010
3000
3000
3040
30C0
3FC0
30C0
3040
3000
3000
3010
3010
3030
3070
FFE0
ENDCHAR
STARTCHAR g133
ENCODING 204
SWIDTH 500 0
DWIDTH 12 0
BBX 6 21 3 0
BITMAP
20
10
00
FC
30
30
30
30
30
30
30
30
30
30
30
30
30
30
30
30
FC
ENDCHAR
STARTCHAR g134
ENCODING 205
SWIDTH 500 0
DWIDTH 12 0
BBX 6 21 3 0
BITMAP
10
20
00
FC
30
30
30
30
30
30
30
30
30
30
30
30
30
30
30
30
FC
ENDCHAR
STARTCHAR g135
ENCODING 206
SWIDTH 500 0
DWIDTH 12 0
BBX 6 21 3 0
BITMAP
30
48
00
FC
30
30
30
30
30
30
30
30
30
30
30
30
30
30
30
30
FC
ENDCHAR
STARTCHAR g136
ENCODING 207
SWIDTH 500 0
DWIDTH 12 0
BBX 6 20 3 0
BITMAP
48
00
FC
30
30
30
30
30
30
30
30
30
30
30
30
30
30
30
30
FC
ENDCHAR
STARTCHAR g137
ENCODING 209
SWIDTH 750 0
DWIDTH 18 0
BBX 16 21 1 0
BITMAP
0710
08E0
0000
701F
3804
3804
2C04
2604
2604
2304
2184
2184
20C4
2064
2064
2034
201C
201C
200C
200C
F804
ENDCHAR
STARTCHAR g138
ENCODING 210
SWIDTH 667 0
DWIDTH 16 0
BBX 14 21 1 0
BITMAP
0200
0100
0000
0780
1860
3030
6018
6018
C00C
C00C
C00C
C00C
C00C
C00C
C00C
C00C
6018
6018
3030
1860
0780
ENDCHAR
STARTCHAR g139
ENCODING 211
SWIDTH 667 0
DWIDTH 16 0
BBX 14 21 1 0
BITMAP
0100
0200
0000
0780
1860
3030
6018
6018
C00C
C00C
C00C
C00C
C00C
C00C
C00C
C00C
6018
6018
3030
1860
0780
ENDCHAR
STARTCHAR g140
ENCODING 212
SWIDTH 667 0
DWIDTH 16 0
BBX 14 21 1 0
BITMAP
0300
0480
0000
0780
1860
3030
6018
6018
C00C
C00C
C00C
C00C
C00C
C00C
C00C
C00C
6018
6018
3030
1860
0780
ENDCHAR
STARTCHAR g141
ENCODING 213
SWIDTH 667 0
DWIDTH 16 0
BBX 14 21 1 0
BITMAP
0E20
11C0
0000
0780
1860
3030
6018
6018
C00C
C00C
C00C
C00C
C00C
C00C
C00C
C00C
6018
6018
3030
1860
0780
ENDCHAR
STARTCHAR g142
ENCODING 214
SWIDTH 667 0
DWIDTH 16 0
BBX 14 21 1 0
BITMAP
0840
0000
0000
0780
1860
3030
6018
6018
C00C
C00C
C00C
C00C
C00C
C00C
C00C
C00C
6018
6018
3030
1860
0780
ENDCHAR
STARTCHAR g143
ENCODING 216
SWIDTH 667 0
DWIDTH 16 0
BBX 15 18 0 0
BITMAP
03C2
0C34
1818
301C
302C
6046
6046
6086
6106
6206
6206
6406
6806
300C
300C
3818
4C30
83C0
ENDCHAR
STARTCHAR g144
ENCODING 217
SWIDTH 750 0
DWIDTH 18 0
BBX 16 21 1 0
BITMAP
0100
0080
0040
FC1F
3004
3004
3004
3004
3004
3004
3004
3004
3004
3004
3004
3004
3004
3004
1808
1E10
07E0
ENDCHAR
STARTCHAR g145
ENCODING 218
SWIDTH 750 0
DWIDTH 18 0
BBX 16 21 1 0
BITMAP
0020
0040
0080
FC1F
3004
3004
3004
3004
3004
3004
3004
3004
3004
3004
3004
3004
3004
3004
1808
1E10
07E0
ENDCHAR
STARTCHAR g146
ENCODING 219
SWIDTH 750 0
DWIDTH 18 0
BBX 16 21 1 0
BITMAP
0080
0140
0000
FC1F
3004
3004
3004
3004
3004
3004
3004
3004
3004
3004
3004
3004
3004
3004
1808
1E10
07E0
ENDCHAR
STARTCHAR g147
ENCODING 220
SWIDTH 750 0
DWIDTH 18 0
BBX 16 21 1 0
BITMAP
0420
0000
0000
FC1F
3004
3004
3004
3004
3004
3004
3004
3004
3004
3004
3004
3004
3004
3004
1808
1E10
07E0
ENDCHAR
STARTCHAR g148
ENCODING 223
SWIDTH 583 0
DWIDTH 14 0
BBX 12 18 1 0
BITMAP
0780
1860
3030
2030
6030
6060
60C0
6380
60C0
6060
6030
6030
6030
6070
6060
60E0
61C0
C700
ENDCHAR
STARTCHAR g149
ENCODING 224
SWIDTH 583 0
DWIDTH 14 0
BBX 11 18 2 0
BITMAP
1000
0800
0400
0000
0000
1F00
6380
C180
C180
0180
0380
0D80
3180
6180
C380
C780
FDE0
70C0
ENDCHAR
STARTCHAR g150
ENCODING 225
SWIDTH 583 0
DWIDTH 14 0
BBX 11 18 2 0
BITMAP
0200
0400
0800
0000
0000
1F00
6380
C180
C180
0180
0380
0D80
3180
6180
C380
C780
FDE0
70C0
ENDCHAR
STARTCHAR g151
ENCODING 226
SWIDTH 583 0
DWIDTH 14 0
BBX 11 18 2 0
BITMAP
0800
1400
2200
0000
0000
1F00
6380
C180
C180
0180
0380
0D80
3180
6180
C380
C780
FDE0
70C0
ENDCHAR
STARTCHAR g152
ENCODING 227
SWIDTH 583 0
DWIDTH 14 0
BBX 11 17 2 0
BITMAP
1900
2600
0000
0000
1F00
6380
C180
C180
0180
0380
0D80
3180
6180
C380
C780
FDE0
70C0
ENDCHAR
STARTCHAR g153
ENCODING 228
SWIDTH 583 0
DWIDTH 14 0
BBX 11 16 2 0
BITMAP
1100
0000
0000
1F00
6380
C180
C180
0180
0380
0D80
3180
6180
C380
C780
FDE0
70C0
ENDCHAR
STARTCHAR g154
ENCODING 229
SWIDTH 583 0
DWIDTH 14 0
BBX 11 19 2 0
BITMAP
0C00
1200
1200
0C00
0000
0000
1F00
6380
C180
C180
0180
0380
0D80
3180
6180
C380
C780
FDE0
70C0
ENDCHAR
STARTCHAR g155
ENCODING 230
SWIDTH 833 0
DWIDTH 20 0
BBX 18 13 1 0
BITMAP
1F3E00
63E380
C1C180
C1C0C0
0180C0
03FFC0
0D8000
318000
618000
C3C080
C6E180
FC7F00
701C00
ENDCHAR
STARTCHAR g156
ENCODING 231
SWIDTH 500 0
DWIDTH 12 0
BBX 10 16 1 -3
BITMAP
0F80
31C0
60C0
6040
C000
C000
C000
C000
C000
6040
70C0
3F80
0E00
0200
0200
0400
ENDCHAR
STARTCHAR g157
ENCODING 232
SWIDTH 583 0
DWIDTH 14 0
BBX 11 18 1 0
BITMAP
0800
0400
0200
0000
0000
0F00
31C0
60C0
6060
C060
FFE0
C000
C000
C000
6040
70C0
3F80
0E00
ENDCHAR
STARTCHAR g158
ENCODING 233
SWIDTH 583 0
DWIDTH 14 0
BBX 11 18 1 0
BITMAP
0200
0400
0800
0000
0000
0F00
31C0
60C0
6060
C060
FFE0
C000
C000
C000
6040
70C0
3F80
0E00
ENDCHAR
STARTCHAR g159
ENCODING 234
SWIDTH 583 0
DWIDTH 14 0
BBX 11 18 1 0
BITMAP
0200
0500
0880
0000
0000
0F00
31C0
60C0
6060
C060
FFE0
C000
C000
C000
6040
70C0
3F80
0E00
ENDCHAR
STARTCHAR g160
ENCODING 235
SWIDTH 583 0
DWIDTH 14 0
BBX 11 16 1 0
BITMAP
1100
0000
0000
0F00
31C0
60C0
6060
C060
FFE0
C000
C000
C000
6040
70C0
3F80
0E00
ENDCHAR
STARTCHAR g161
ENCODING 236
SWIDTH 333 0
DWIDTH 8 0
BBX 6 18 1 0
BITMAP
20
10
08
00
00
10
30
70
30
30
30
30
30
30
30
30
30
FC
ENDCHAR
STARTCHAR g162
ENCODING 237
SWIDTH 333 0
DWIDTH 8 0
BBX 6 18 1 0
BITMAP
08
10
20
00
00
10
30
70
30
30
30
30
30
30
30
30
30
FC
ENDCHAR
STARTCHAR g163
ENCODING 238
SWIDTH 333 0
DWIDTH 8 0
BBX 6 18 1 0
BITMAP
10
28
44
00
00
10
30
70
30
30
30
30
30
30
30
30
30
FC
ENDCHAR
STARTCHAR g164
ENCODING 239
SWIDTH 333 0
DWIDTH 8 0
BBX 6 16 1 0
BITMAP
44
00
00
10
30
70
30
30
30
30
30
30
30
30
30
FC
ENDCHAR
STARTCHAR g165
ENCODING 241
SWIDTH 667 0
DWIDTH 16 0
BBX 13 17 2 0
BITMAP
0C80
1300
0000
0000
2780
6FC0
F0E0
6060
6060
6060
6060
6060
6060
6060
6060
6060
F9F8
ENDCHAR
STARTCHAR g166
ENCODING 242
SWIDTH 583 0
DWIDTH 14 0
BBX 11 18 1 0
BITMAP
0800
0400
0200
0000
0000
0E00
3180
60C0
60C0
C060
C060
C060
C060
C060
60C0
60C0
3180
0E00
ENDCHAR
STARTCHAR g167
ENCODING 243
SWIDTH 583 0
DWIDTH 14 0
BBX 11 18 1 0
BITMAP
0200
0400
0800
0000
0000
0E00
3180
60C0
60C0
C060
C060
C060
C060
C060
60C0
60C0
3180
0E00
ENDCHAR
STARTCHAR g168
ENCODING 244
SWIDTH 583 0
DWIDTH 14 0
BBX 11 18 1 0
BITMAP
0400
0A00
1100
0000
0000
0E00
3180
60C0
60C0
C060
C060
C060
C060
C060
60C0
60C0
3180
0E00
ENDCHAR
STARTCHAR g169
ENCODING 245
SWIDTH 583 0
DWIDTH 14 0
BBX 11 17 1 0
BITMAP
1900
2600
0000
0000
0E00
3180
60C0
60C0
C060
C060
C060
C060
C060
60C0
60C0
3180
0E00
ENDCHAR
STARTCHAR g170
ENCODING 246
SWIDTH 583 0
DWIDTH 14 0
BBX 11 16 1 0
BITMAP
1100
0000
0000
0E00
3180
60C0
60C0
C060
C060
C060
C060
C060
60C0
60C0
3180
0E00
ENDCHAR
STARTCHAR g171
ENCODING 247
SWIDTH 583 0
DWIDTH 14 0
BBX 12 12 1 3
BITMAP
0600
0600
0000
0000
0000
FFF0
FFF0
0000
0000
0000
0600
0600
ENDCHAR
STARTCHAR g172
ENCODING 248
SWIDTH 583 0
DWIDTH 14 0
BBX 13 13 0 0
BITMAP
0708
18D0
3060
3060
60B0
6130
6230
6430
6830
3060
3060
58C0
8700
ENDCHAR
STARTCHAR g173
ENCODING 249
SWIDTH 667 0
DWIDTH 16 0
BBX 12 18 2 0
BITMAP
0800
0400
0200
0000
0000
E0E0
6060
6060
6060
6060
6060
6060
6060
6060
6060
70F0
3F60
1E40
ENDCHAR
STARTCHAR g174
ENCODING 250
SWIDTH 667 0
DWIDTH 16 0
BBX 12 18 2 0
BITMAP
0200
0400
0800
0000
0000
E0E0
6060
6060
6060
6060
6060
6060
6060
6060
6060
70F0
3F60
1E40
ENDCHAR
STARTCHAR g175
ENCODING 251
SWIDTH 667 0
DWIDTH 16 0
BBX 12 18 2 0
BITMAP
0400
0A00
1100
0000
0000
E0E0
6060
6060
6060
6060
6060
6060
6060
6060
6060
70F0
3F60
1E40
ENDCHAR
STARTCHAR g176
ENCODING 252
SWIDTH 667 0
DWIDTH 16 0
BBX 12 16 2 0
BITMAP
1100
0000
0000
E0E0
6060
6060
6060
6060
6060
6060
6060
6060
6060
70F0
3F60
1E40
ENDCHAR
STARTCHAR g177
ENCODING 255
SWIDTH 667 0
DWIDTH 16 0
BBX 15 22 0 -5
BITMAP
0420
0000
0000
0000
FC3E
3008
3008
1810
1810
0C20
0C20
0640
0640
0380
0380
0100
0100
0200
0200
0400
1C00
1800
ENDCHAR
STARTCHAR g178
ENCODING 305
SWIDTH 333 0
DWIDTH 8 0
BBX 6 13 1 0
BITMAP
10
30
70
30
30
30
30
30
30
30
30
30
FC
ENDCHAR
STARTCHAR g179
ENCODING 338
SWIDTH 1000 0
DWIDTH 24 0
BBX 21 18 1 0
BITMAP
07FFE0
187070
303030
603010
603000
C03000
C03040
C030C0
C03FC0
C030C0
C03040
C03000
C03000
603008
603008
303018
187038
07FFF0
ENDCHAR
STARTCHAR g180
ENCODING 339
SWIDTH 917 0
DWIDTH 22 0
BBX 20 13 1 0
BITMAP
0E0780
3198E0
60F060
60F030
C06030
C07FF0
C06000
C06000
C06000
60F020
60F860
319FC0
0E0700
ENDCHAR
STARTCHAR g181
ENCODING 376
SWIDTH 667 0
DWIDTH 16 0
BBX 15 21 0 0
BITMAP
0440
0000
0000
FC7E
3018
3010
1820
1820
0C40
0C40
0680
0680
0300
0300
0300
0300
0300
0300
0300
0300
0FC0
ENDCHAR
STARTCHAR g182
ENCODING 402
SWIDTH 417 0
DWIDTH 10 0
BBX 10 22 0 -4
BITMAP
01C0
0780
0600
0C00
0C00
1C00
1800
FF00
FF00
3000
3000
3000
3000
7000
6000
6000
6000
6000
C000
C000
C000
C000
ENDCHAR
STARTCHAR g183
ENCODING 710
SWIDTH 542 0
DWIDTH 13 0
BBX 7 4 3 15
BITMAP
10
38
6C
C6
ENDCHAR
STARTCHAR g184
ENCODING 711
SWIDTH 583 0
DWIDTH 14 0
BBX 7 4 4 15
BITMAP
C6
6C
38
10
ENDCHAR
STARTCHAR g185
ENCODING 728
SWIDTH 583 0
DWIDTH 14 0
BBX 6 4 4 15
BITMAP
CC
CC
78
30
ENDCHAR
STARTCHAR g186
ENCODING 729
SWIDTH 583 0
DWIDTH 14 0
BBX 2 2 6 15
BITMAP
C0
C0
ENDCHAR
STARTCHAR g187
ENCODING 730
SWIDTH 542 0
DWIDTH 13 0
BBX 6 6 4 14
BITMAP
30
78
CC
CC
78
30
ENDCHAR
STARTCHAR g188
ENCODING 731
SWIDTH 583 0
DWIDTH 14 0
BBX 4 5 5 -5
BITMAP
60
C0
C0
C0
70
ENDCHAR
STARTCHAR g189
ENCODING 732
SWIDTH 583 0
DWIDTH 14 0
BBX 8 3 3 15
BITMAP
71
FF
8E
ENDCHAR
STARTCHAR g190
ENCODING 733
SWIDTH 625 0
DWIDTH 15 0
BBX 8 3 4 16
BITMAP
33
66
CC
ENDCHAR
STARTCHAR g191
ENCODING 960
SWIDTH 750 0
DWIDTH 18 0
BBX 17 13 0 0
BITMAP
1FFF00
7FFF00
CC1800
0C1800
0C1800
0C1800
0C1800
0C1800
0C1800
0C1880
0C1880
0C1900
0C0E00
ENDCHAR
STARTCHAR g192
ENCODING 8211
SWIDTH 417 0
DWIDTH 10 0
BBX 8 2 1 7
BITMAP
FF
FF
ENDCHAR
STARTCHAR g193
ENCODING 8212
SWIDTH 750 0
DWIDTH 18 0
BBX 16 2 1 7
BITMAP
FFFF
FFFF
ENDCHAR
STARTCHAR g194
ENCODING 8216
SWIDTH 250 0
DWIDTH 6 0
BBX 2 5 2 13
BITMAP
40
80
80
C0
C0
ENDCHAR
STARTCHAR g195
ENCODING 8217
SWIDTH 250 0
DWIDTH 6 0
BBX 2 5 2 13
BITMAP
C0
C0
40
40
80
ENDCHAR
STARTCHAR g196
ENCODING 8218
SWIDTH 250 0
DWIDTH 6 0
BBX 2 5 2 -3
BITMAP
C0
C0
40
40
80
ENDCHAR
STARTCHAR g197
ENCODING 8220
SWIDTH 417 0
DWIDTH 10 0
BBX 6 5 2 13
BITMAP
44
88
88
CC
CC
ENDCHAR
STARTCHAR g198
ENCODING 8221
SWIDTH 417 0
DWIDTH 10 0
BBX 6 5 2 13
BITMAP
CC
CC
44
44
88
ENDCHAR
STARTCHAR g199
ENCODING 8222
SWIDTH 458 0
DWIDTH 11 0
BBX 7 5 2 -3
BITMAP
C6
C6
42
42
84
ENDCHAR
STARTCHAR g200
ENCODING 8224
SWIDTH 333 0
DWIDTH 8 0
BBX 5 10 2 10
BITMAP
20
20
F8
20
20
20
20
20
20
20
ENDCHAR
STARTCHAR g201
ENCODING 8225
SWIDTH 667 0
DWIDTH 16 0
BBX 10 22 3 -4
BITMAP
0C00
0C00
0C00
0C00
0C00
FFC0
0C00
0C00
0C00
0C00
0C00
0C00
0C00
0C00
0C00
0C00
FFC0
0C00
0C00
0C00
0C00
0C00
ENDCHAR
STARTCHAR g202
ENCODING 8226
SWIDTH 667 0
DWIDTH 16 0
BBX 10 10 2 3
BITMAP
1E00
7F80
7F80
FFC0
FFC0
FFC0
FFC0
7F80
7F80
1E00
ENDCHAR
STARTCHAR g203
ENCODING 8230
SWIDTH 750 0
DWIDTH 18 0
BBX 12 2 3 0
BITMAP
C630
C630
ENDCHAR
STARTCHAR g204
ENCODING 8240
SWIDTH 1000 0
DWIDTH 24 0
BBX 20 17 3 0
BITMAP
300000
484000
CC4000
CC8000
CC8000
CD0000
490000
320000
020000
0460C0
049120
099B30
099B30
119B30
119B30
209120
2060C0
ENDCHAR
STARTCHAR g205
ENCODING 8249
SWIDTH 375 0
DWIDTH 9 0
BBX 6 11 1 1
BITMAP
04
0C
18
30
60
C0
60
30
18
0C
04
ENDCHAR
STARTCHAR g206
ENCODING 8250
SWIDTH 375 0
DWIDTH 9 0
BBX 6 11 1 1
BITMAP
80
C0
60
30
18
0C
18
30
60
C0
80
ENDCHAR
STARTCHAR g207
ENCODING 8260
SWIDTH 250 0
DWIDTH 6 0
BBX 10 18 -2 0
BITMAP
00C0
00C0
0180
0180
0300
0300
0600
0600
0C00
0C00
1800
1800
3000
3000
6000
6000
C000
C000
ENDCHAR
STARTCHAR g208
ENCODING 8482
SWIDTH 750 0
DWIDTH 18 0
BBX 11 5 2 13
BITMAP
FA20
2360
22A0
2220
2220
ENDCHAR
STARTCHAR g209
ENCODING 8486
SWIDTH 917 0
DWIDTH 22 0
BBX 19 19 1 0
BITMAP
01F000
060C00
0C0600
180300
300180
300180
7001C0
7001C0
7001C0
7001C0
7001C0
300180
300180
300180
180300
0C0600
820820
FE0FE0
FE0FE0
ENDCHAR
STARTCHAR g210
ENCODING 8706
SWIDTH 667 0
DWIDTH 16 0
BBX 14 19 1 0
BITMAP
0E00
0380
00C0
0060
0030
0030
03F8
0C38
180C
300C
600C
600C
C00C
C018
C018
C030
E060
70C0
3F00
ENDCHAR
STARTCHAR g211
ENCODING 8710
SWIDTH 833 0
DWIDTH 20 0
BBX 17 20 1 0
BITMAP
008000
008000
01C000
01C000
03E000
03E000
067000
067000
0C3800
0C3800
181C00
181C00
300E00
300E00
600700
600700
C00380
C00380
FFFF80
FFFF80
ENDCHAR
STARTCHAR g212
ENCODING 8719
SWIDTH 792 0
DWIDTH 19 0
BBX 17 22 1 -4
BITMAP
FFFF80
300600
300600
300600
300600
300600
300600
300600
300600
300600
300600
300600
300600
300600
300600
300600
300600
300600
300600
300600
780F00
FC1F80
ENDCHAR
STARTCHAR g213
ENCODING 8721
SWIDTH 625 0
DWIDTH 15 0
BBX 13 22 1 -4
BITMAP
FFF0
7030
7010
3800
1C00
1C00
0E00
0700
0700
0380
0300
0600
0600
0C00
1800
1800
3000
6000
6008
C018
FFF8
FFF8
ENDCHAR
STARTCHAR g214
ENCODING 8730
SWIDTH 833 0
DWIDTH 20 0
BBX 19 25 0 -4
BITMAP
000060
000060
000060
0000C0
0000C0
000180
000180
000180
000300
000300
000600
080600
180600
3C0C00
7C0C00
E61800
461800
031800
033000
01B000
01E000
00E000
00E000
004000
004000
ENDCHAR
STARTCHAR g215
ENCODING 8734
SWIDTH 708 0
DWIDTH 17 0
BBX 14 7 1 3
BITMAP
3830
4C48
8684
8304
8384
44C8
3870
ENDCHAR
STARTCHAR g216
ENCODING 8747
SWIDTH 583 0
DWIDTH 14 0
BBX 10 23 2 -4
BITMAP
0380
04C0
0CC0
0C00
0C00
0C00
0C00
0C00
0C00
0C00
0C00
0C00
0C00
0C00
0C00
0C00
0C00
0C00
0C00
0C00
CC00
C800
7000
ENDCHAR
STARTCHAR g217
ENCODING 8776
SWIDTH 667 0
DWIDTH 16 0
BBX 13 9 1 5
BITMAP
3C08
7E18
C3F0
81E0
0000
3C08
7E18
C3F0
81E0
ENDCHAR
STARTCHAR g218
ENCODING 8800
SWIDTH 583 0
DWIDTH 14 0
BBX 10 8 2 3
BITMAP
0200
0200
FFC0
0400
0800
FFC0
1000
1000
ENDCHAR
STARTCHAR g219
ENCODING 8804
SWIDTH 667 0
DWIDTH 16 0
BBX 12 15 2 0
BITMAP
0030
00C0
0300
0C00
3000
C000
3000
0C00
0300
00C0
0030
0000
0000
0000
FFF0
ENDCHAR
STARTCHAR g220
ENCODING 8805
SWIDTH 667 0
DWIDTH 16 0
BBX 12 15 2 0
BITMAP
C000
3000
0C00
0300
00C0
0030
00C0
0300
0C00
3000
C000
0000
0000
0000
FFF0
ENDCHAR
STARTCHAR g221
ENCODING 9674
SWIDTH 750 0
DWIDTH 18 0
BBX 13 14 2 2
BITMAP
0200
0500
0880
1040
2020
4010
8008
8008
4010
2020
1040
0880
0500
0200
ENDCHAR
STARTCHAR g222
ENCODING 63252
SWIDTH 667 0
DWIDTH 16 0
BBX 11 18 2 0
BITMAP
0E00
3180
60C0
60C0
C060
C060
C060
C060
CE60
CE60
C060
C060
C060
C060
60C0
60C0
3180
0E00
ENDCHAR
STARTCHAR g223
ENCODING 63253
SWIDTH 500 0
DWIDTH 12 0
BBX 6 18 3 0
BITMAP
FC
30
30
30
30
30
30
30
30
30
30
30
30
30
30
30
30
FC
ENDCHAR
STARTCHAR g224
ENCODING 63254
SWIDTH 333 0
DWIDTH 8 0
BBX 6 18 1 0
BITMAP
70
30
30
30
30
30
30
30
30
30
30
30
30
30
30
30
30
FC
ENDCHAR
STARTCHAR g225
ENCODING 63487
SWIDTH 750 0
DWIDTH 18 0
BBX 0 0 0 0
BITMAP
ENDCHAR
STARTCHAR g226
ENCODING 64257
SWIDTH 708 0
DWIDTH 17 0
BBX 15 18 0 0
BITMAP
0F00
1180
3080
3000
3000
7FF8
3018
3018
3018
3018
3018
3018
3018
3018
3018
3018
3018
FC7E
ENDCHAR
STARTCHAR g227
ENCODING 64258
SWIDTH 667 0
DWIDTH 16 0
BBX 15 18 0 0
BITMAP
0FF8
1818
3018
3018
3018
7C18
3018
3018
3018
3018
3018
3018
3018
3018
3018
3018
3018
FC7E
ENDCHAR
STARTCHAR g228
ENCODING 64512
SWIDTH 1000 0
DWIDTH 24 0
BBX 18 19 3 0
BITMAP
FFFFC0
800040
800040
800040
800040
800040
800040
800040
800040
800040
800040
800040
800040
800040
800040
800040
800040
800040
FFFFC0
ENDCHAR
STARTCHAR g229
ENCODING 64513
SWIDTH 1000 0
DWIDTH 24 0
BBX 18 19 3 0
BITMAP
FFFFC0
800040
800040
800040
800040
800040
800040
800040
800040
800040
800040
800040
800040
800040
800040
800040
800040
800040
FFFFC0
ENDCHAR
STARTCHAR g230
ENCODING 64514
SWIDTH 1000 0
DWIDTH 24 0
BBX 18 19 3 0
BITMAP
FFFFC0
800040
800040
800040
800040
800040
800040
800040
800040
800040
800040
800040
800040
800040
800040
800040
800040
800040
FFFFC0
ENDCHAR
STARTCHAR g231
ENCODING 64515
SWIDTH 1000 0
DWIDTH 24 0
BBX 18 19 3 0
BITMAP
FFFFC0
800040
800040
800040
800040
800040
800040
800040
800040
800040
800040
800040
800040
800040
800040
800040
800040
800040
FFFFC0
ENDCHAR
STARTCHAR g232
ENCODING 64516
SWIDTH 1000 0
DWIDTH 24 0
BBX 18 19 3 0
BITMAP
FFFFC0
800040
800040
800040
800040
800040
800040
800040
800040
800040
800040
800040
800040
800040
800040
800040
800040
800040
FFFFC0
ENDCHAR
STARTCHAR g233
ENCODING 64517
SWIDTH 1000 0
DWIDTH 24 0
BBX 18 19 3 0
BITMAP
FFFFC0
800040
800040
800040
800040
800040
800040
800040
800040
800040
800040
800040
800040
800040
800040
800040
800040
800040
FFFFC0
ENDCHAR
STARTCHAR g234
ENCODING 64518
SWIDTH 1000 0
DWIDTH 24 0
BBX 18 19 3 0
BITMAP
FFFFC0
800040
800040
800040
800040
800040
800040
800040
800040
800040
800040
800040
800040
800040
800040
800040
800040
800040
FFFFC0
ENDCHAR
STARTCHAR g235
ENCODING 64519
SWIDTH 1000 0
DWIDTH 24 0
BBX 18 19 3 0
BITMAP
FFFFC0
800040
800040
800040
800040
800040
800040
800040
800040
800040
800040
800040
800040
800040
800040
800040
800040
800040
FFFFC0
ENDCHAR
STARTCHAR g236
ENCODING 64520
SWIDTH 1000 0
DWIDTH 24 0
BBX 18 19 3 0
BITMAP
FFFFC0
800040
800040
800040
800040
800040
800040
800040
800040
800040
800040
800040
800040
800040
800040
800040
800040
800040
FFFFC0
ENDCHAR
STARTCHAR g237
ENCODING 64521
SWIDTH 1000 0
DWIDTH 24 0
BBX 18 19 3 0
BITMAP
FFFFC0
800040
800040
800040
800040
800040
800040
800040
800040
800040
800040
800040
800040
800040
800040
800040
800040
800040
FFFFC0
ENDCHAR
STARTCHAR g238
ENCODING 64522
SWIDTH 1000 0
DWIDTH 24 0
BBX 18 19 3 0
BITMAP
FFFFC0
800040
800040
800040
800040
800040
800040
800040
800040
800040
800040
800040
800040
800040
800040
800040
800040
800040
FFFFC0
ENDCHAR
STARTCHAR g239
ENCODING 64523
SWIDTH 1000 0
DWIDTH 24 0
BBX 18 19 3 0
BITMAP
FFFFC0
800040
800040
800040
800040
800040
800040
800040
800040
800040
800040
800040
800040
800040
800040
800040
800040
800040
FFFFC0
ENDCHAR
STARTCHAR g240
ENCODING 64524
SWIDTH 1000 0
DWIDTH 24 0
BBX 18 19 3 0
BITMAP
FFFFC0
800040
800040
800040
800040
800040
800040
800040
800040
800040
800040
800040
800040
800040
800040
800040
800040
800040
FFFFC0
ENDCHAR
STARTCHAR g241
ENCODING 64525
SWIDTH 1000 0
DWIDTH 24 0
BBX 18 19 3 0
BITMAP
FFFFC0
800040
800040
800040
800040
800040
800040
800040
800040
800040
800040
800040
800040
800040
800040
800040
800040
800040
FFFFC0
ENDCHAR
STARTCHAR g242
ENCODING 64526
SWIDTH 1000 0
DWIDTH 24 0
BBX 18 19 3 0
BITMAP
FFFFC0
800040
800040
800040
800040
800040
800040
800040
800040
800040
800040
800040
800040
800040
800040
800040
800040
800040
FFFFC0
ENDCHAR
STARTCHAR g243
ENCODING 64527
SWIDTH 1000 0
DWIDTH 24 0
BBX 18 19 3 0
BITMAP
FFFFC0
800040
800040
800040
800040
800040
800040
800040
800040
800040
800040
800040
800040
800040
800040
800040
800040
800040
FFFFC0
ENDCHAR
ENDFONT
