STARTFONT 2.1
COMMENT Strike 4 of a Newton 'sfnt' font (bloc/bdat): tools/fonts/newtonsfnt.py,
COMMENT tools/fonts/README.md.  The builder reads the BLOC_* properties and the
COMMENT glyphs - STARTCHAR gN (N the glyph id; otherwise ENCODING through 'cmap'),
COMMENT DWIDTH (the advance), BBX (width, height, the bearing x, the bottom row's
COMMENT y: bearing y less the height) and the BITMAP rows.  A glyph id in the
COMMENT subtable ranges with no glyph here has no image (the missing glyph is 0).
COMMENT The other properties, SIZE, FONTBOUNDINGBOX and SWIDTH are worked out and
COMMENT not read back: change BLOC_HORI_* (the line metrics the ROM draws text by)
COMMENT to match an edit that changes the strike's extent.
FONT -Apple-Roman Regular-Medium-R-Normal--18-180-72-72-P-0-Apple-Roman
SIZE 18 72 72
FONTBOUNDINGBOX 20 21 -2 -4
STARTPROPERTIES 37
FONT_ASCENT 17
FONT_DESCENT 6
PIXEL_SIZE 18
FAMILY_NAME "Roman Regular"
BLOC_COLOR_REF 0
BLOC_HORI_ASCENDER 17
BLOC_HORI_DESCENDER -6
BLOC_HORI_WIDTH_MAX 20
BLOC_HORI_CARET_SLOPE_NUMERATOR 0
BLOC_HORI_CARET_SLOPE_DENOMINATOR 1
BLOC_HORI_CARET_OFFSET 0
BLOC_HORI_MIN_ORIGIN_SB -2
BLOC_HORI_MIN_ADVANCE_SB -2
BLOC_HORI_MAX_BEFORE_BL 17
BLOC_HORI_MIN_AFTER_BL -4
BLOC_HORI_PAD1 0
BLOC_HORI_PAD2 0
BLOC_VERT_ASCENDER 0
BLOC_VERT_DESCENDER -2
BLOC_VERT_WIDTH_MAX 21
BLOC_VERT_CARET_SLOPE_NUMERATOR 0
BLOC_VERT_CARET_SLOPE_DENOMINATOR 1
BLOC_VERT_CARET_OFFSET 0
BLOC_VERT_MIN_ORIGIN_SB 100
BLOC_VERT_MIN_ADVANCE_SB 60
BLOC_VERT_MAX_BEFORE_BL 0
BLOC_VERT_MIN_AFTER_BL 92
BLOC_VERT_PAD1 0
BLOC_VERT_PAD2 0
BLOC_START_GLYPH 0
BLOC_END_GLYPH 257
BLOC_PPEM_X 18
BLOC_PPEM_Y 18
BLOC_BIT_DEPTH 1
BLOC_FLAGS 1
BLOC_INDEX_SUBTABLES 1
BLOC_INDEX_SUBTABLE_0 "0 257 3 1 0"
ENDPROPERTIES
CHARS 244
STARTCHAR g0
ENCODING -1
SWIDTH 944 0
DWIDTH 17 0
BBX 12 15 3 -1
BITMAP
FFF0
8010
8010
8010
8010
8010
8010
8010
8010
8010
8010
8010
8010
8010
FFF0
ENDCHAR
STARTCHAR g1
ENCODING 0
SWIDTH 0 0
DWIDTH 0 0
BBX 0 0 0 0
BITMAP
ENDCHAR
STARTCHAR g2
ENCODING 1
SWIDTH 333 0
DWIDTH 6 0
BBX 0 0 0 0
BITMAP
ENDCHAR
STARTCHAR g3
ENCODING 2
SWIDTH 333 0
DWIDTH 6 0
BBX 2 14 2 0
BITMAP
C0
C0
C0
C0
C0
C0
C0
C0
C0
C0
C0
00
C0
C0
ENDCHAR
STARTCHAR g4
ENCODING 3
SWIDTH 556 0
DWIDTH 10 0
BBX 4 3 3 11
BITMAP
90
90
90
ENDCHAR
STARTCHAR g5
ENCODING 4
SWIDTH 667 0
DWIDTH 12 0
BBX 8 8 2 6
BITMAP
12
12
7F
24
24
FE
48
48
ENDCHAR
STARTCHAR g6
ENCODING 5
SWIDTH 667 0
DWIDTH 12 0
BBX 7 18 3 -2
BITMAP
10
10
38
54
92
90
D0
F0
78
3C
1E
16
12
92
54
38
10
10
ENDCHAR
STARTCHAR g7
ENCODING 6
SWIDTH 889 0
DWIDTH 16 0
BBX 9 14 2 0
BITMAP
6F00
9100
9200
9200
6400
0400
0800
0800
1000
1300
2480
2480
4480
4300
ENDCHAR
STARTCHAR g8
ENCODING 7
SWIDTH 889 0
DWIDTH 16 0
BBX 13 14 1 0
BITMAP
0E00
1300
2300
2300
2600
1C00
1800
3C70
6620
C340
C180
C1C0
6260
3CF8
ENDCHAR
STARTCHAR g9
ENCODING 8
SWIDTH 333 0
DWIDTH 6 0
BBX 1 3 2 11
BITMAP
80
80
80
ENDCHAR
STARTCHAR g10
ENCODING 9
SWIDTH 444 0
DWIDTH 8 0
BBX 4 18 2 -2
BITMAP
10
20
20
40
40
C0
C0
C0
C0
C0
C0
C0
C0
40
40
20
20
10
ENDCHAR
STARTCHAR g11
ENCODING 10
SWIDTH 444 0
DWIDTH 8 0
BBX 4 18 2 -2
BITMAP
80
40
40
20
20
30
30
30
30
30
30
30
30
20
20
40
40
80
ENDCHAR
STARTCHAR g12
ENCODING 11
SWIDTH 444 0
DWIDTH 8 0
BBX 7 8 0 6
BITMAP
10
92
54
38
38
54
92
10
ENDCHAR
STARTCHAR g13
ENCODING 12
SWIDTH 667 0
DWIDTH 12 0
BBX 7 7 2 2
BITMAP
10
10
10
FE
10
10
10
ENDCHAR
STARTCHAR g14
ENCODING 44
SWIDTH 333 0
DWIDTH 6 0
BBX 2 4 2 -2
BITMAP
C0
C0
40
80
ENDCHAR
STARTCHAR g15
ENCODING 45
SWIDTH 556 0
DWIDTH 10 0
BBX 7 1 1 5
BITMAP
FE
ENDCHAR
STARTCHAR g16
ENCODING 46
SWIDTH 333 0
DWIDTH 6 0
BBX 2 2 2 0
BITMAP
C0
C0
ENDCHAR
STARTCHAR g17
ENCODING 47
SWIDTH 556 0
DWIDTH 10 0
BBX 7 14 1 0
BITMAP
02
02
04
04
08
08
10
10
20
20
40
40
80
80
ENDCHAR
STARTCHAR g18
ENCODING 48
SWIDTH 667 0
DWIDTH 12 0
BBX 8 14 2 0
BITMAP
3C
66
C3
C3
C3
C3
C3
C3
C3
C3
C3
C3
66
3C
ENDCHAR
STARTCHAR g19
ENCODING 49
SWIDTH 667 0
DWIDTH 12 0
BBX 4 14 4 0
BITMAP
20
60
E0
60
60
60
60
60
60
60
60
60
60
F0
ENDCHAR
STARTCHAR g20
ENCODING 50
SWIDTH 667 0
DWIDTH 12 0
BBX 8 14 2 0
BITMAP
3C
46
83
83
03
03
06
04
08
10
20
41
FF
FF
ENDCHAR
STARTCHAR g21
ENCODING 51
SWIDTH 667 0
DWIDTH 12 0
BBX 8 15 2 -1
BITMAP
3C
4E
86
06
0C
18
3C
46
03
03
03
03
82
C4
78
ENDCHAR
STARTCHAR g22
ENCODING 52
SWIDTH 667 0
DWIDTH 12 0
BBX 9 14 1 0
BITMAP
0100
0200
0400
0800
1100
2300
4300
8300
FF80
0300
0300
0300
0300
0780
ENDCHAR
STARTCHAR g23
ENCODING 53
SWIDTH 667 0
DWIDTH 12 0
BBX 9 16 1 -2
BITMAP
7F00
7F00
4000
4000
7C00
7E00
0700
0380
0180
0180
0180
0180
0100
0200
0C00
F000
ENDCHAR
STARTCHAR g24
ENCODING 54
SWIDTH 667 0
DWIDTH 12 0
BBX 9 15 2 0
BITMAP
0600
1800
3000
6000
6000
C000
CE00
DF00
C380
C180
C180
C180
6100
6200
1C00
ENDCHAR
STARTCHAR g25
ENCODING 55
SWIDTH 667 0
DWIDTH 12 0
BBX 9 14 1 0
BITMAP
FF80
FF80
8080
0080
0100
0100
0200
0200
0400
0400
0800
0800
1000
1000
ENDCHAR
STARTCHAR g26
ENCODING 56
SWIDTH 667 0
DWIDTH 12 0
BBX 9 14 1 0
BITMAP
1C00
3200
6100
6100
7200
3C00
1E00
2700
4380
8180
8180
8180
4300
3E00
ENDCHAR
STARTCHAR g27
ENCODING 57
SWIDTH 667 0
DWIDTH 12 0
BBX 9 15 1 -1
BITMAP
1C00
2300
4300
C180
C180
C180
E380
7D80
3980
0180
0300
0300
0600
0C00
3000
ENDCHAR
STARTCHAR g28
ENCODING 58
SWIDTH 333 0
DWIDTH 6 0
BBX 2 9 2 0
BITMAP
C0
C0
00
00
00
00
00
C0
C0
ENDCHAR
STARTCHAR g29
ENCODING 59
SWIDTH 333 0
DWIDTH 6 0
BBX 2 11 2 -2
BITMAP
C0
C0
00
00
00
00
00
C0
C0
40
80
ENDCHAR
STARTCHAR g30
ENCODING 60
SWIDTH 444 0
DWIDTH 8 0
BBX 5 9 1 0
BITMAP
08
10
20
40
80
40
20
10
08
ENDCHAR
STARTCHAR g31
ENCODING 61
SWIDTH 556 0
DWIDTH 10 0
BBX 7 3 1 4
BITMAP
FE
00
FE
ENDCHAR
STARTCHAR g32
ENCODING 62
SWIDTH 444 0
DWIDTH 8 0
BBX 5 9 2 0
BITMAP
80
40
20
10
08
10
20
40
80
ENDCHAR
STARTCHAR g33
ENCODING 63
SWIDTH 556 0
DWIDTH 10 0
BBX 6 14 2 0
BITMAP
70
C8
84
04
04
0C
18
30
60
40
40
00
60
60
ENDCHAR
STARTCHAR g34
ENCODING 64
SWIDTH 889 0
DWIDTH 16 0
BBX 10 11 3 -1
BITMAP
1E00
2100
4080
8C40
9240
9240
9240
8D80
4000
2000
1E00
ENDCHAR
STARTCHAR g35
ENCODING 65
SWIDTH 889 0
DWIDTH 16 0
BBX 13 14 1 0
BITMAP
0200
0200
0700
0700
0980
0980
10C0
10C0
30E0
2060
3FE0
4030
4030
E078
ENDCHAR
STARTCHAR g36
ENCODING 66
SWIDTH 667 0
DWIDTH 12 0
BBX 10 14 1 0
BITMAP
FF00
6180
60C0
60C0
60C0
6180
7F00
6180
60C0
60C0
60C0
60C0
6180
FF00
ENDCHAR
STARTCHAR g37
ENCODING 67
SWIDTH 667 0
DWIDTH 12 0
BBX 9 14 2 0
BITMAP
1F00
3180
6080
6000
C000
C000
C000
C000
C000
C000
6000
6080
3180
1F00
ENDCHAR
STARTCHAR g38
ENCODING 68
SWIDTH 778 0
DWIDTH 14 0
BBX 11 14 1 0
BITMAP
FF00
6180
60C0
60C0
6060
6060
6060
6060
6060
6060
60C0
60C0
6180
FF00
ENDCHAR
STARTCHAR g39
ENCODING 69
SWIDTH 667 0
DWIDTH 12 0
BBX 10 14 1 0
BITMAP
FFC0
60C0
6040
6000
6000
6100
7F00
6100
6000
6000
6040
6040
60C0
FFC0
ENDCHAR
STARTCHAR g40
ENCODING 70
SWIDTH 667 0
DWIDTH 12 0
BBX 10 14 1 0
BITMAP
FFC0
60C0
6040
6000
6000
6100
7F00
6100
6000
6000
6000
6000
6000
F000
ENDCHAR
STARTCHAR g41
ENCODING 71
SWIDTH 667 0
DWIDTH 12 0
BBX 11 14 1 0
BITMAP
1F80
30C0
6040
6000
C000
C000
C000
C1E0
C0C0
C0C0
60C0
60C0
3180
1F00
ENDCHAR
STARTCHAR g42
ENCODING 72
SWIDTH 778 0
DWIDTH 14 0
BBX 12 14 1 0
BITMAP
F0F0
6060
6060
6060
6060
6060
7FE0
6060
6060
6060
6060
6060
6060
F0F0
ENDCHAR
STARTCHAR g43
ENCODING 73
SWIDTH 444 0
DWIDTH 8 0
BBX 4 14 2 0
BITMAP
F0
60
60
60
60
60
60
60
60
60
60
60
60
F0
ENDCHAR
STARTCHAR g44
ENCODING 74
SWIDTH 556 0
DWIDTH 10 0
BBX 8 18 1 -4
BITMAP
0F
06
06
06
06
06
06
06
06
06
06
06
06
06
06
C6
CC
78
ENDCHAR
STARTCHAR g45
ENCODING 75
SWIDTH 778 0
DWIDTH 14 0
BBX 11 14 1 0
BITMAP
F1C0
6080
6100
6200
6400
6800
7000
7800
6C00
6600
6300
6180
60C0
F1E0
ENDCHAR
STARTCHAR g46
ENCODING 76
SWIDTH 667 0
DWIDTH 12 0
BBX 10 14 1 0
BITMAP
F000
6000
6000
6000
6000
6000
6000
6000
6000
6000
6040
6040
60C0
FFC0
ENDCHAR
STARTCHAR g47
ENCODING 77
SWIDTH 889 0
DWIDTH 16 0
BBX 14 14 1 0
BITMAP
E01C
6038
7038
7058
5858
5898
4C98
4D18
4718
4718
4218
4218
4018
E03C
ENDCHAR
STARTCHAR g48
ENCODING 78
SWIDTH 778 0
DWIDTH 14 0
BBX 11 14 1 0
BITMAP
E0E0
7040
7040
5840
5840
4C40
4C40
4640
4640
4340
4340
41C0
41C0
E0C0
ENDCHAR
STARTCHAR g49
ENCODING 79
SWIDTH 778 0
DWIDTH 14 0
BBX 11 14 1 0
BITMAP
1F00
3180
60C0
60C0
C060
C060
C060
C060
C060
C060
60C0
60C0
3180
1F00
ENDCHAR
STARTCHAR g50
ENCODING 80
SWIDTH 667 0
DWIDTH 12 0
BBX 10 14 1 0
BITMAP
FF00
6180
60C0
60C0
60C0
60C0
6180
7F80
6E00
6000
6000
6000
6000
F000
ENDCHAR
STARTCHAR g51
ENCODING 81
SWIDTH 778 0
DWIDTH 14 0
BBX 11 17 1 -3
BITMAP
1F00
3180
60C0
60C0
C060
C060
C060
C060
C060
C060
60C0
60C0
3180
1F00
0600
0320
01C0
ENDCHAR
STARTCHAR g52
ENCODING 82
SWIDTH 667 0
DWIDTH 12 0
BBX 10 14 1 0
BITMAP
FE00
6300
6180
6180
6180
6380
7F00
6E00
6600
6700
6300
6380
6180
F1C0
ENDCHAR
STARTCHAR g53
ENCODING 83
SWIDTH 556 0
DWIDTH 10 0
BBX 8 14 1 0
BITMAP
3E
63
C1
C0
E0
70
3C
0E
07
03
03
83
C6
7C
ENDCHAR
STARTCHAR g54
ENCODING 84
SWIDTH 667 0
DWIDTH 12 0
BBX 10 14 1 0
BITMAP
FFC0
CCC0
8C40
0C00
0C00
0C00
0C00
0C00
0C00
0C00
0C00
0C00
0C00
1E00
ENDCHAR
STARTCHAR g55
ENCODING 85
SWIDTH 778 0
DWIDTH 14 0
BBX 11 14 1 0
BITMAP
F0E0
6040
6040
6040
6040
6040
6040
6040
6040
6040
6040
6040
3080
1F00
ENDCHAR
STARTCHAR g56
ENCODING 86
SWIDTH 778 0
DWIDTH 14 0
BBX 11 14 1 0
BITMAP
F0E0
6040
6040
3080
3080
3080
1900
1900
1900
0E00
0E00
0E00
0400
0400
ENDCHAR
STARTCHAR g57
ENCODING 87
SWIDTH 1000 0
DWIDTH 18 0
BBX 17 14 0 0
BITMAP
F3C380
618100
618100
30C200
30C200
30C200
196400
196400
196400
0E3800
0E3800
0E3800
041000
041000
ENDCHAR
STARTCHAR g58
ENCODING 88
SWIDTH 667 0
DWIDTH 12 0
BBX 10 14 1 0
BITMAP
F9C0
3080
3100
1900
1A00
0E00
0C00
0600
0E00
0B00
1300
1180
2180
71C0
ENDCHAR
STARTCHAR g59
ENCODING 89
SWIDTH 667 0
DWIDTH 12 0
BBX 10 14 1 0
BITMAP
F1C0
6080
6080
3100
3100
1A00
1A00
0C00
0C00
0C00
0C00
0C00
0C00
1E00
ENDCHAR
STARTCHAR g60
ENCODING 90
SWIDTH 556 0
DWIDTH 10 0
BBX 8 14 1 0
BITMAP
7F
C3
86
06
0C
0C
18
18
30
30
60
61
C3
FE
ENDCHAR
STARTCHAR g61
ENCODING 91
SWIDTH 333 0
DWIDTH 6 0
BBX 2 18 2 -2
BITMAP
C0
80
80
80
80
80
80
80
80
80
80
80
80
80
80
80
80
C0
ENDCHAR
STARTCHAR g62
ENCODING 92
SWIDTH 556 0
DWIDTH 10 0
BBX 7 14 1 0
BITMAP
80
80
40
40
20
20
10
10
08
08
04
04
02
02
ENDCHAR
STARTCHAR g63
ENCODING 93
SWIDTH 333 0
DWIDTH 6 0
BBX 2 18 2 -2
BITMAP
C0
40
40
40
40
40
40
40
40
40
40
40
40
40
40
40
40
C0
ENDCHAR
STARTCHAR g64
ENCODING 94
SWIDTH 444 0
DWIDTH 8 0
BBX 5 3 2 11
BITMAP
20
50
88
ENDCHAR
STARTCHAR g65
ENCODING 95
SWIDTH 667 0
DWIDTH 12 0
BBX 12 1 0 0
BITMAP
FFF0
ENDCHAR
STARTCHAR g66
ENCODING 96
SWIDTH 333 0
DWIDTH 6 0
BBX 3 3 1 11
BITMAP
80
40
20
ENDCHAR
STARTCHAR g67
ENCODING 97
SWIDTH 556 0
DWIDTH 10 0
BBX 9 10 1 0
BITMAP
7C00
C600
8600
0E00
3600
6600
C600
C600
CE80
7300
ENDCHAR
STARTCHAR g68
ENCODING 98
SWIDTH 667 0
DWIDTH 12 0
BBX 9 14 1 0
BITMAP
2000
6000
E000
6000
6E00
7300
6180
6180
6180
6180
6180
6180
7300
4E00
ENDCHAR
STARTCHAR g69
ENCODING 99
SWIDTH 556 0
DWIDTH 10 0
BBX 7 10 1 0
BITMAP
3C
66
C2
C0
C0
C0
C0
C2
64
38
ENDCHAR
STARTCHAR g70
ENCODING 100
SWIDTH 667 0
DWIDTH 12 0
BBX 9 14 1 0
BITMAP
0100
0300
0700
0300
3B00
6700
C300
C300
C300
C300
C300
C300
6780
3B00
ENDCHAR
STARTCHAR g71
ENCODING 101
SWIDTH 556 0
DWIDTH 10 0
BBX 8 10 1 0
BITMAP
3C
66
C3
C3
FF
C0
C0
C1
62
3C
ENDCHAR
STARTCHAR g72
ENCODING 102
SWIDTH 444 0
DWIDTH 8 0
BBX 6 14 1 0
BITMAP
38
64
60
60
F0
60
60
60
60
60
60
60
60
F0
ENDCHAR
STARTCHAR g73
ENCODING 103
SWIDTH 556 0
DWIDTH 10 0
BBX 8 13 1 -3
BITMAP
3B
44
C6
C6
C6
44
78
C0
7E
C3
C3
C3
7E
ENDCHAR
STARTCHAR g74
ENCODING 104
SWIDTH 667 0
DWIDTH 12 0
BBX 10 14 1 0
BITMAP
2000
6000
E000
6000
6E00
7300
6180
6180
6180
6180
6180
6180
6180
F3C0
ENDCHAR
STARTCHAR g75
ENCODING 105
SWIDTH 444 0
DWIDTH 8 0
BBX 4 14 2 0
BITMAP
60
60
00
00
20
60
E0
60
60
60
60
60
60
F0
ENDCHAR
STARTCHAR g76
ENCODING 106
SWIDTH 333 0
DWIDTH 6 0
BBX 3 18 1 -4
BITMAP
60
60
00
00
20
60
E0
60
60
60
60
60
60
60
60
60
40
80
ENDCHAR
STARTCHAR g77
ENCODING 107
SWIDTH 667 0
DWIDTH 12 0
BBX 9 14 1 0
BITMAP
2000
6000
E000
6000
6780
6200
6400
6800
7000
7800
6C00
6600
6300
F780
ENDCHAR
STARTCHAR g78
ENCODING 108
SWIDTH 444 0
DWIDTH 8 0
BBX 4 14 2 0
BITMAP
20
60
E0
60
60
60
60
60
60
60
60
60
60
F0
ENDCHAR
STARTCHAR g79
ENCODING 109
SWIDTH 889 0
DWIDTH 16 0
BBX 14 10 1 0
BITMAP
2E70
7398
E318
6318
6318
6318
6318
6318
6318
F7BC
ENDCHAR
STARTCHAR g80
ENCODING 110
SWIDTH 667 0
DWIDTH 12 0
BBX 10 10 1 0
BITMAP
2E00
7300
E180
6180
6180
6180
6180
6180
6180
F3C0
ENDCHAR
STARTCHAR g81
ENCODING 111
SWIDTH 556 0
DWIDTH 10 0
BBX 8 10 1 0
BITMAP
3C
66
C3
C3
C3
C3
C3
C3
66
3C
ENDCHAR
STARTCHAR g82
ENCODING 112
SWIDTH 667 0
DWIDTH 12 0
BBX 9 13 1 -3
BITMAP
2E00
7300
E180
6180
6180
6180
6180
6180
7300
6E00
6000
6000
F000
ENDCHAR
STARTCHAR g83
ENCODING 113
SWIDTH 667 0
DWIDTH 12 0
BBX 9 13 1 -3
BITMAP
3900
6700
C300
C300
C300
C300
C300
C300
6700
3B00
0300
0300
0780
ENDCHAR
STARTCHAR g84
ENCODING 114
SWIDTH 556 0
DWIDTH 10 0
BBX 8 10 1 0
BITMAP
2E
73
E0
60
60
60
60
60
60
F0
ENDCHAR
STARTCHAR g85
ENCODING 115
SWIDTH 556 0
DWIDTH 10 0
BBX 7 10 1 0
BITMAP
7C
C6
C2
E0
78
3C
0E
86
C6
7C
ENDCHAR
STARTCHAR g86
ENCODING 116
SWIDTH 444 0
DWIDTH 8 0
BBX 6 12 1 0
BITMAP
20
60
F8
60
60
60
60
60
60
60
64
38
ENDCHAR
STARTCHAR g87
ENCODING 117
SWIDTH 667 0
DWIDTH 12 0
BBX 10 10 1 0
BITMAP
E380
6180
6180
6180
6180
6180
6180
61C0
3380
1D00
ENDCHAR
STARTCHAR g88
ENCODING 118
SWIDTH 556 0
DWIDTH 10 0
BBX 9 10 0 0
BITMAP
F380
6100
6100
3200
3200
3200
1C00
1C00
0800
0800
ENDCHAR
STARTCHAR g89
ENCODING 119
SWIDTH 778 0
DWIDTH 14 0
BBX 13 10 0 0
BITMAP
FF38
6610
6610
3320
3320
3320
1DC0
1DC0
0880
0880
ENDCHAR
STARTCHAR g90
ENCODING 120
SWIDTH 667 0
DWIDTH 12 0
BBX 10 10 1 0
BITMAP
F1C0
6080
3100
1A00
1C00
0E00
1600
2300
4180
E3C0
ENDCHAR
STARTCHAR g91
ENCODING 121
SWIDTH 667 0
DWIDTH 12 0
BBX 11 13 0 -3
BITMAP
F0E0
6040
3080
3080
1900
1900
0E00
0E00
0400
0400
0800
3800
3000
ENDCHAR
STARTCHAR g92
ENCODING 122
SWIDTH 556 0
DWIDTH 10 0
BBX 8 10 1 0
BITMAP
7F
C3
87
0E
1C
38
70
E1
C3
FE
ENDCHAR
STARTCHAR g93
ENCODING 123
SWIDTH 444 0
DWIDTH 8 0
BBX 5 18 1 -2
BITMAP
18
20
40
40
40
40
40
40
80
40
40
40
40
40
40
40
20
18
ENDCHAR
STARTCHAR g94
ENCODING 124
SWIDTH 222 0
DWIDTH 4 0
BBX 1 17 1 -2
BITMAP
80
80
80
80
80
80
80
80
00
80
80
80
80
80
80
80
80
ENDCHAR
STARTCHAR g95
ENCODING 125
SWIDTH 444 0
DWIDTH 8 0
BBX 5 18 1 -2
BITMAP
C0
20
10
10
10
10
10
10
08
10
10
10
10
10
10
10
20
C0
ENDCHAR
STARTCHAR g96
ENCODING 126
SWIDTH 444 0
DWIDTH 8 0
BBX 6 2 1 12
BITMAP
64
98
ENDCHAR
STARTCHAR g97
ENCODING 127
SWIDTH 667 0
DWIDTH 12 0
BBX 0 0 0 0
BITMAP
ENDCHAR
STARTCHAR g98
ENCODING 161
SWIDTH 333 0
DWIDTH 6 0
BBX 2 14 2 0
BITMAP
C0
C0
00
00
C0
C0
C0
C0
C0
C0
C0
C0
C0
C0
ENDCHAR
STARTCHAR g99
ENCODING 162
SWIDTH 667 0
DWIDTH 12 0
BBX 8 14 2 -2
BITMAP
08
08
3E
6B
C9
C8
C8
C8
C8
C9
6A
3C
08
08
ENDCHAR
STARTCHAR g100
ENCODING 163
SWIDTH 667 0
DWIDTH 12 0
BBX 9 14 1 0
BITMAP
1C00
2600
6200
6000
6000
6000
F800
6000
6000
6000
6000
6080
6180
FF00
ENDCHAR
STARTCHAR g101
ENCODING 164
SWIDTH 667 0
DWIDTH 12 0
BBX 10 10 1 2
BITMAP
8040
5E80
3300
6180
4080
4080
6180
3300
5E80
8040
ENDCHAR
STARTCHAR g102
ENCODING 165
SWIDTH 667 0
DWIDTH 12 0
BBX 10 14 1 0
BITMAP
F1C0
6080
6080
3100
3100
FBC0
1A00
0C00
FFC0
0C00
0C00
0C00
0C00
1E00
ENDCHAR
STARTCHAR g103
ENCODING 167
SWIDTH 556 0
DWIDTH 10 0
BBX 7 14 1 0
BITMAP
3C
46
C2
C0
F0
7C
9E
C6
F2
7C
1E
86
C6
7C
ENDCHAR
STARTCHAR g104
ENCODING 168
SWIDTH 444 0
DWIDTH 8 0
BBX 4 1 2 13
BITMAP
90
ENDCHAR
STARTCHAR g105
ENCODING 169
SWIDTH 667 0
DWIDTH 12 0
BBX 9 9 1 0
BITMAP
3E00
4100
9C80
A280
A080
A280
9C80
4100
3E00
ENDCHAR
STARTCHAR g106
ENCODING 170
SWIDTH 556 0
DWIDTH 10 0
BBX 7 10 1 4
BITMAP
78
CC
8C
1C
6C
CC
CC
76
00
FE
ENDCHAR
STARTCHAR g107
ENCODING 171
SWIDTH 667 0
DWIDTH 12 0
BBX 9 9 1 0
BITMAP
0880
1100
2200
4400
8800
4400
2200
1100
0880
ENDCHAR
STARTCHAR g108
ENCODING 172
SWIDTH 556 0
DWIDTH 10 0
BBX 8 5 1 3
BITMAP
FF
01
01
01
01
ENDCHAR
STARTCHAR g109
ENCODING 174
SWIDTH 667 0
DWIDTH 12 0
BBX 9 9 1 0
BITMAP
3E00
4100
9880
9480
9480
9880
9480
4100
3E00
ENDCHAR
STARTCHAR g110
ENCODING 175
SWIDTH 556 0
DWIDTH 10 0
BBX 5 1 3 11
BITMAP
F8
ENDCHAR
STARTCHAR g111
ENCODING 176
SWIDTH 444 0
DWIDTH 8 0
BBX 4 4 2 10
BITMAP
60
90
90
60
ENDCHAR
STARTCHAR g112
ENCODING 177
SWIDTH 667 0
DWIDTH 12 0
BBX 9 11 1 0
BITMAP
0800
0800
0800
0800
FF80
0800
0800
0800
0800
0000
FF80
ENDCHAR
STARTCHAR g113
ENCODING 180
SWIDTH 333 0
DWIDTH 6 0
BBX 3 3 1 11
BITMAP
20
40
80
ENDCHAR
STARTCHAR g114
ENCODING 181
SWIDTH 667 0
DWIDTH 12 0
BBX 9 13 1 -3
BITMAP
2080
2080
2080
2080
2080
4100
4100
4100
6300
5C80
4000
4000
8000
ENDCHAR
STARTCHAR g115
ENCODING 182
SWIDTH 778 0
DWIDTH 14 0
BBX 12 14 1 0
BITMAP
1FF0
7360
6360
C360
C360
C360
6360
7360
1F60
0360
0360
0360
0360
0360
ENDCHAR
STARTCHAR g116
ENCODING 183
SWIDTH 667 0
DWIDTH 12 0
BBX 2 2 5 4
BITMAP
C0
C0
ENDCHAR
STARTCHAR g117
ENCODING 184
SWIDTH 556 0
DWIDTH 10 0
BBX 3 5 4 -4
BITMAP
40
80
40
20
C0
ENDCHAR
STARTCHAR g118
ENCODING 186
SWIDTH 556 0
DWIDTH 10 0
BBX 7 10 1 4
BITMAP
38
44
C6
C6
C6
C6
44
38
00
FE
ENDCHAR
STARTCHAR g119
ENCODING 187
SWIDTH 667 0
DWIDTH 12 0
BBX 9 9 2 0
BITMAP
8800
4400
2200
1100
0880
1100
2200
4400
8800
ENDCHAR
STARTCHAR g120
ENCODING 191
SWIDTH 556 0
DWIDTH 10 0
BBX 6 14 1 0
BITMAP
18
18
00
08
08
18
30
60
C0
80
80
84
4C
38
ENDCHAR
STARTCHAR g121
ENCODING 192
SWIDTH 889 0
DWIDTH 16 0
BBX 13 17 1 0
BITMAP
0400
0200
0100
0000
0200
0700
0700
0980
0980
10C0
10C0
2060
2060
3FE0
4030
4030
E078
ENDCHAR
STARTCHAR g122
ENCODING 193
SWIDTH 889 0
DWIDTH 16 0
BBX 13 17 1 0
BITMAP
0100
0200
0000
0200
0200
0700
0700
0980
0980
10C0
10C0
30E0
2060
3FE0
4030
4030
E078
ENDCHAR
STARTCHAR g123
ENCODING 194
SWIDTH 889 0
DWIDTH 16 0
BBX 13 17 1 0
BITMAP
0200
0500
0000
0200
0200
0700
0700
0980
0980
10C0
10C0
30E0
2060
3FE0
4030
4030
E078
ENDCHAR
STARTCHAR g124
ENCODING 195
SWIDTH 889 0
DWIDTH 16 0
BBX 13 17 1 0
BITMAP
0640
0980
0000
0200
0200
0700
0700
0980
0980
10C0
10C0
2060
2060
3FE0
4030
4030
E078
ENDCHAR
STARTCHAR g125
ENCODING 196
SWIDTH 889 0
DWIDTH 16 0
BBX 13 16 1 0
BITMAP
0880
0000
0200
0200
0700
0700
0980
0980
10C0
10C0
3060
2060
3FE0
4030
4030
E078
ENDCHAR
STARTCHAR g126
ENCODING 197
SWIDTH 889 0
DWIDTH 16 0
BBX 13 17 1 0
BITMAP
0700
0880
0880
0700
0200
0700
0700
0980
0980
10C0
10C0
3060
2060
3FE0
4030
4030
E078
ENDCHAR
STARTCHAR g127
ENCODING 198
SWIDTH 1000 0
DWIDTH 18 0
BBX 15 14 1 0
BITMAP
03FC
0386
0582
0580
0980
0988
11F8
1188
3F88
2180
2180
4182
4186
E3FC
ENDCHAR
STARTCHAR g128
ENCODING 199
SWIDTH 667 0
DWIDTH 12 0
BBX 9 17 1 -3
BITMAP
1F00
3180
6080
6000
C000
C000
C000
C000
C000
C000
6000
6080
3180
1F00
0600
0200
0400
ENDCHAR
STARTCHAR g129
ENCODING 200
SWIDTH 667 0
DWIDTH 12 0
BBX 10 17 1 0
BITMAP
0800
0400
0000
FFC0
60C0
6040
6000
6000
6100
7F00
6100
6000
6000
6040
6040
60C0
FFC0
ENDCHAR
STARTCHAR g130
ENCODING 201
SWIDTH 667 0
DWIDTH 12 0
BBX 10 17 1 0
BITMAP
0200
0400
0000
FFC0
60C0
6040
6000
6000
6100
7F00
6100
6000
6000
6000
6040
60C0
FFC0
ENDCHAR
STARTCHAR g131
ENCODING 202
SWIDTH 667 0
DWIDTH 12 0
BBX 10 17 1 0
BITMAP
0400
0A00
0000
FFC0
60C0
6040
6000
6000
6100
7F00
6100
6000
6000
6040
6040
60C0
FFC0
ENDCHAR
STARTCHAR g132
ENCODING 203
SWIDTH 667 0
DWIDTH 12 0
BBX 10 16 1 0
BITMAP
1200
0000
FFC0
60C0
6040
6000
6000
6100
7F00
6100
6000
6000
6040
6040
60C0
FFC0
ENDCHAR
STARTCHAR g133
ENCODING 204
SWIDTH 444 0
DWIDTH 8 0
BBX 4 17 2 0
BITMAP
40
20
00
F0
60
60
60
60
60
60
60
60
60
60
60
60
F0
ENDCHAR
STARTCHAR g134
ENCODING 205
SWIDTH 444 0
DWIDTH 8 0
BBX 4 17 2 0
BITMAP
20
40
00
F0
60
60
60
60
60
60
60
60
60
60
60
60
F0
ENDCHAR
STARTCHAR g135
ENCODING 206
SWIDTH 444 0
DWIDTH 8 0
BBX 4 17 2 0
BITMAP
60
90
00
F0
60
60
60
60
60
60
60
60
60
60
60
60
F0
ENDCHAR
STARTCHAR g136
ENCODING 207
SWIDTH 444 0
DWIDTH 8 0
BBX 4 16 2 0
BITMAP
90
00
F0
60
60
60
60
60
60
60
60
60
60
60
60
F0
ENDCHAR
STARTCHAR g137
ENCODING 209
SWIDTH 778 0
DWIDTH 14 0
BBX 10 17 2 0
BITMAP
1900
2600
0000
E1C0
6080
7080
7080
5880
5880
4C80
4C80
4680
4680
4380
4380
4180
E180
ENDCHAR
STARTCHAR g138
ENCODING 210
SWIDTH 778 0
DWIDTH 14 0
BBX 11 17 1 0
BITMAP
0800
0400
0000
1F00
3180
60C0
60C0
C060
C060
C060
C060
C060
C060
60C0
60C0
3180
1F00
ENDCHAR
STARTCHAR g139
ENCODING 211
SWIDTH 778 0
DWIDTH 14 0
BBX 11 17 1 0
BITMAP
0200
0400
0000
1F00
3180
60C0
60C0
C060
C060
C060
C060
C060
C060
60C0
60C0
3180
1F00
ENDCHAR
STARTCHAR g140
ENCODING 212
SWIDTH 778 0
DWIDTH 14 0
BBX 11 17 1 0
BITMAP
0400
0A00
0000
1F00
3180
60C0
60C0
C060
C060
C060
C060
C060
C060
60C0
60C0
3180
1F00
ENDCHAR
STARTCHAR g141
ENCODING 213
SWIDTH 778 0
DWIDTH 14 0
BBX 11 17 1 0
BITMAP
1900
2600
0000
1F00
3180
60C0
60C0
C060
C060
C060
C060
C060
C060
60C0
60C0
3180
1F00
ENDCHAR
STARTCHAR g142
ENCODING 214
SWIDTH 778 0
DWIDTH 14 0
BBX 11 16 1 0
BITMAP
1100
0000
1F00
3180
60C0
60C0
C060
C060
C060
C060
C060
C060
60C0
60C0
3180
1F00
ENDCHAR
STARTCHAR g143
ENCODING 216
SWIDTH 778 0
DWIDTH 14 0
BBX 11 14 1 0
BITMAP
1F20
31A0
60C0
60C0
C160
C260
C460
C460
C860
D060
60C0
60C0
B180
9F00
ENDCHAR
STARTCHAR g144
ENCODING 217
SWIDTH 778 0
DWIDTH 14 0
BBX 11 17 1 0
BITMAP
0400
0200
0000
F0E0
6040
6040
6040
6040
6040
6040
6040
6040
6040
6040
6040
3080
1F00
ENDCHAR
STARTCHAR g145
ENCODING 218
SWIDTH 778 0
DWIDTH 14 0
BBX 11 17 1 0
BITMAP
0100
0200
0000
F0E0
6040
6040
6040
6040
6040
6040
6040
6040
6040
6040
6040
3080
1F00
ENDCHAR
STARTCHAR g146
ENCODING 219
SWIDTH 778 0
DWIDTH 14 0
BBX 11 17 1 0
BITMAP
0200
0500
0000
F0E0
6040
6040
6040
6040
6040
6040
6040
6040
6040
6040
6040
3080
1F00
ENDCHAR
STARTCHAR g147
ENCODING 220
SWIDTH 778 0
DWIDTH 14 0
BBX 11 16 1 0
BITMAP
1100
0000
F0E0
6040
6040
6040
6040
6040
6040
6040
6040
6040
6040
6040
3080
1F00
ENDCHAR
STARTCHAR g148
ENCODING 223
SWIDTH 556 0
DWIDTH 10 0
BBX 8 14 1 0
BITMAP
1C
26
43
43
C3
C6
CC
C2
C3
C3
C3
C3
C6
DC
ENDCHAR
STARTCHAR g149
ENCODING 224
SWIDTH 556 0
DWIDTH 10 0
BBX 9 14 1 0
BITMAP
2000
1000
0800
0000
7C00
C600
8600
0E00
3600
6600
C600
C600
CE80
7300
ENDCHAR
STARTCHAR g150
ENCODING 225
SWIDTH 556 0
DWIDTH 10 0
BBX 9 14 1 0
BITMAP
0400
0800
1000
0000
7C00
C600
8600
0E00
3600
6600
C600
C600
CE80
7300
ENDCHAR
STARTCHAR g151
ENCODING 226
SWIDTH 556 0
DWIDTH 10 0
BBX 9 14 1 0
BITMAP
1000
2800
4400
0000
7C00
C600
8600
0E00
3600
6600
C600
C600
CE80
7300
ENDCHAR
STARTCHAR g152
ENCODING 227
SWIDTH 556 0
DWIDTH 10 0
BBX 9 13 1 0
BITMAP
3200
4C00
0000
7C00
C600
8600
0E00
3600
6600
C600
C600
CE80
7300
ENDCHAR
STARTCHAR g153
ENCODING 228
SWIDTH 556 0
DWIDTH 10 0
BBX 9 13 1 0
BITMAP
2400
0000
0000
7C00
C600
8600
0E00
3600
6600
C600
C600
CE80
7300
ENDCHAR
STARTCHAR g154
ENCODING 229
SWIDTH 556 0
DWIDTH 10 0
BBX 9 15 1 0
BITMAP
1800
2400
2400
1800
0000
7C00
C600
8600
0E00
3600
6600
C600
C600
CE80
7300
ENDCHAR
STARTCHAR g155
ENCODING 230
SWIDTH 889 0
DWIDTH 16 0
BBX 13 10 1 0
BITMAP
7DE0
C730
8618
0E18
37F8
6600
C600
C608
CF10
71E0
ENDCHAR
STARTCHAR g156
ENCODING 231
SWIDTH 556 0
DWIDTH 10 0
BBX 7 13 1 -3
BITMAP
3C
66
C2
C0
C0
C0
C0
C0
62
3C
18
08
10
ENDCHAR
STARTCHAR g157
ENCODING 232
SWIDTH 556 0
DWIDTH 10 0
BBX 8 14 1 0
BITMAP
20
10
08
00
3C
66
C3
C3
FF
C0
C0
C1
62
3C
ENDCHAR
STARTCHAR g158
ENCODING 233
SWIDTH 556 0
DWIDTH 10 0
BBX 8 14 1 0
BITMAP
04
08
10
00
3C
66
C3
C3
FF
C0
C0
C1
62
3C
ENDCHAR
STARTCHAR g159
ENCODING 234
SWIDTH 556 0
DWIDTH 10 0
BBX 8 14 1 0
BITMAP
08
14
22
00
3C
66
C3
C3
FF
C0
C0
C1
62
3C
ENDCHAR
STARTCHAR g160
ENCODING 235
SWIDTH 556 0
DWIDTH 10 0
BBX 8 13 1 0
BITMAP
24
00
00
3C
66
C3
C3
FF
C0
C0
C1
62
3C
ENDCHAR
STARTCHAR g161
ENCODING 236
SWIDTH 444 0
DWIDTH 8 0
BBX 4 14 2 0
BITMAP
80
40
20
00
20
60
E0
60
60
60
60
60
60
F0
ENDCHAR
STARTCHAR g162
ENCODING 237
SWIDTH 444 0
DWIDTH 8 0
BBX 4 14 2 0
BITMAP
10
20
40
00
20
60
E0
60
60
60
60
60
60
F0
ENDCHAR
STARTCHAR g163
ENCODING 238
SWIDTH 444 0
DWIDTH 8 0
BBX 5 14 1 0
BITMAP
20
50
88
00
10
30
70
30
30
30
30
30
30
78
ENDCHAR
STARTCHAR g164
ENCODING 239
SWIDTH 444 0
DWIDTH 8 0
BBX 4 13 2 0
BITMAP
90
00
00
20
60
E0
60
60
60
60
60
60
F0
ENDCHAR
STARTCHAR g165
ENCODING 241
SWIDTH 667 0
DWIDTH 12 0
BBX 10 13 1 0
BITMAP
1900
2600
0000
2E00
7300
E180
6180
6180
6180
6180
6180
6180
F3C0
ENDCHAR
STARTCHAR g166
ENCODING 242
SWIDTH 556 0
DWIDTH 10 0
BBX 8 14 1 0
BITMAP
20
10
08
00
3C
66
C3
C3
C3
C3
C3
C3
66
3C
ENDCHAR
STARTCHAR g167
ENCODING 243
SWIDTH 556 0
DWIDTH 10 0
BBX 8 14 1 0
BITMAP
04
08
10
00
3C
66
C3
C3
C3
C3
C3
C3
66
3C
ENDCHAR
STARTCHAR g168
ENCODING 244
SWIDTH 556 0
DWIDTH 10 0
BBX 8 14 1 0
BITMAP
10
28
44
00
3C
66
C3
C3
C3
C3
C3
C3
66
3C
ENDCHAR
STARTCHAR g169
ENCODING 245
SWIDTH 556 0
DWIDTH 10 0
BBX 8 13 1 0
BITMAP
32
4C
00
3C
66
C3
C3
C3
C3
C3
C3
66
3C
ENDCHAR
STARTCHAR g170
ENCODING 246
SWIDTH 556 0
DWIDTH 10 0
BBX 8 13 1 0
BITMAP
24
00
00
3C
66
C3
C3
C3
C3
C3
C3
66
3C
ENDCHAR
STARTCHAR g171
ENCODING 247
SWIDTH 667 0
DWIDTH 12 0
BBX 10 7 1 1
BITMAP
0C00
0C00
0000
FFC0
0000
0C00
0C00
ENDCHAR
STARTCHAR g172
ENCODING 248
SWIDTH 556 0
DWIDTH 10 0
BBX 10 10 0 0
BITMAP
1E40
3380
6180
6380
6580
6980
7180
6180
6300
9E00
ENDCHAR
STARTCHAR g173
ENCODING 249
SWIDTH 667 0
DWIDTH 12 0
BBX 10 14 1 0
BITMAP
1000
0800
0400
0000
E380
6180
6180
6180
6180
6180
6180
61C0
7380
3D00
ENDCHAR
STARTCHAR g174
ENCODING 250
SWIDTH 667 0
DWIDTH 12 0
BBX 10 14 1 0
BITMAP
0400
0800
1000
0000
E380
6180
6180
6180
6180
6180
6180
61C0
7380
3D00
ENDCHAR
STARTCHAR g175
ENCODING 251
SWIDTH 667 0
DWIDTH 12 0
BBX 10 14 1 0
BITMAP
0800
1400
2200
0000
E380
6180
6180
6180
6180
6180
6180
61C0
7380
3D00
ENDCHAR
STARTCHAR g176
ENCODING 252
SWIDTH 667 0
DWIDTH 12 0
BBX 10 13 1 0
BITMAP
2200
0000
0000
E380
6180
6180
6180
6180
6180
6180
61C0
7380
3D00
ENDCHAR
STARTCHAR g177
ENCODING 255
SWIDTH 667 0
DWIDTH 12 0
BBX 11 16 0 -3
BITMAP
1100
0000
0000
F0E0
6040
3080
3080
1900
1900
0E00
0E00
0400
0400
0800
3800
3000
ENDCHAR
STARTCHAR g178
ENCODING 305
SWIDTH 444 0
DWIDTH 8 0
BBX 4 10 2 0
BITMAP
20
60
E0
60
60
60
60
60
60
F0
ENDCHAR
STARTCHAR g179
ENCODING 338
SWIDTH 1111 0
DWIDTH 20 0
BBX 17 14 1 0
BITMAP
1F7F80
31E180
60E080
60E000
C06000
C06200
C07E00
C06200
C06000
C06000
60E080
60E080
31E180
1F7F80
ENDCHAR
STARTCHAR g180
ENCODING 339
SWIDTH 889 0
DWIDTH 16 0
BBX 14 10 1 0
BITMAP
3CF0
6798
C30C
C30C
C3FC
C300
C300
C304
6788
3CF0
ENDCHAR
STARTCHAR g181
ENCODING 376
SWIDTH 667 0
DWIDTH 12 0
BBX 10 16 1 0
BITMAP
2100
0000
F1C0
6080
6080
3100
3100
1A00
1A00
0C00
0C00
0C00
0C00
0C00
0C00
1E00
ENDCHAR
STARTCHAR g182
ENCODING 402
SWIDTH 722 0
DWIDTH 13 0
BBX 10 17 2 -3
BITMAP
0780
0CC0
1800
1800
1800
1800
FE00
3000
3000
3000
3000
6000
6000
6000
6000
C000
C000
ENDCHAR
STARTCHAR g183
ENCODING 710
SWIDTH 556 0
DWIDTH 10 0
BBX 5 3 3 12
BITMAP
20
50
88
ENDCHAR
STARTCHAR g184
ENCODING 711
SWIDTH 556 0
DWIDTH 10 0
BBX 5 3 3 11
BITMAP
88
50
20
ENDCHAR
STARTCHAR g185
ENCODING 728
SWIDTH 556 0
DWIDTH 10 0
BBX 6 3 2 11
BITMAP
84
48
30
ENDCHAR
STARTCHAR g186
ENCODING 729
SWIDTH 556 0
DWIDTH 10 0
BBX 2 2 4 11
BITMAP
C0
C0
ENDCHAR
STARTCHAR g187
ENCODING 730
SWIDTH 500 0
DWIDTH 9 0
BBX 4 4 3 11
BITMAP
60
90
90
60
ENDCHAR
STARTCHAR g188
ENCODING 731
SWIDTH 556 0
DWIDTH 10 0
BBX 3 4 4 -4
BITMAP
40
80
80
60
ENDCHAR
STARTCHAR g189
ENCODING 732
SWIDTH 556 0
DWIDTH 10 0
BBX 6 2 2 11
BITMAP
64
98
ENDCHAR
STARTCHAR g190
ENCODING 733
SWIDTH 556 0
DWIDTH 10 0
BBX 5 3 3 11
BITMAP
28
50
A0
ENDCHAR
STARTCHAR g191
ENCODING 960
SWIDTH 778 0
DWIDTH 14 0
BBX 12 10 1 0
BITMAP
7FE0
B180
3180
3180
3180
3180
3180
3190
31A0
30C0
ENDCHAR
STARTCHAR g192
ENCODING 8211
SWIDTH 500 0
DWIDTH 9 0
BBX 7 1 1 5
BITMAP
FE
ENDCHAR
STARTCHAR g193
ENCODING 8212
SWIDTH 667 0
DWIDTH 12 0
BBX 10 1 1 5
BITMAP
FFC0
ENDCHAR
STARTCHAR g194
ENCODING 8216
SWIDTH 333 0
DWIDTH 6 0
BBX 2 4 2 10
BITMAP
40
80
C0
C0
ENDCHAR
STARTCHAR g195
ENCODING 8217
SWIDTH 333 0
DWIDTH 6 0
BBX 2 4 2 10
BITMAP
C0
C0
40
80
ENDCHAR
STARTCHAR g196
ENCODING 8218
SWIDTH 333 0
DWIDTH 6 0
BBX 2 4 2 -2
BITMAP
C0
C0
40
80
ENDCHAR
STARTCHAR g197
ENCODING 8220
SWIDTH 556 0
DWIDTH 10 0
BBX 6 4 2 10
BITMAP
44
88
CC
CC
ENDCHAR
STARTCHAR g198
ENCODING 8221
SWIDTH 556 0
DWIDTH 10 0
BBX 6 4 2 10
BITMAP
CC
CC
44
88
ENDCHAR
STARTCHAR g199
ENCODING 8222
SWIDTH 500 0
DWIDTH 9 0
BBX 6 4 2 -2
BITMAP
CC
CC
44
88
ENDCHAR
STARTCHAR g200
ENCODING 8224
SWIDTH 444 0
DWIDTH 8 0
BBX 3 6 2 9
BITMAP
40
E0
40
40
40
40
ENDCHAR
STARTCHAR g201
ENCODING 8225
SWIDTH 667 0
DWIDTH 12 0
BBX 8 16 2 -3
BITMAP
18
18
18
FF
18
18
18
18
18
18
18
18
FF
18
18
18
ENDCHAR
STARTCHAR g202
ENCODING 8226
SWIDTH 444 0
DWIDTH 8 0
BBX 6 6 1 4
BITMAP
78
FC
FC
FC
FC
78
ENDCHAR
STARTCHAR g203
ENCODING 8230
SWIDTH 889 0
DWIDTH 16 0
BBX 12 2 2 0
BITMAP
C630
C630
ENDCHAR
STARTCHAR g204
ENCODING 8240
SWIDTH 944 0
DWIDTH 17 0
BBX 14 14 2 0
BITMAP
6F00
9100
9200
9200
9400
6400
0800
0800
1318
14A4
24A4
24A4
44A4
4318
ENDCHAR
STARTCHAR g205
ENCODING 8249
SWIDTH 444 0
DWIDTH 8 0
BBX 5 9 1 0
BITMAP
08
10
20
40
80
40
20
10
08
ENDCHAR
STARTCHAR g206
ENCODING 8250
SWIDTH 444 0
DWIDTH 8 0
BBX 5 9 2 0
BITMAP
80
40
20
10
08
10
20
40
80
ENDCHAR
STARTCHAR g207
ENCODING 8260
SWIDTH 167 0
DWIDTH 3 0
BBX 7 14 -2 0
BITMAP
02
02
04
04
08
08
10
10
20
20
40
40
80
80
ENDCHAR
STARTCHAR g208
ENCODING 8482
SWIDTH 667 0
DWIDTH 12 0
BBX 9 4 1 10
BITMAP
E880
4D80
4A80
4880
ENDCHAR
STARTCHAR g209
ENCODING 8486
SWIDTH 889 0
DWIDTH 16 0
BBX 14 14 1 0
BITMAP
0FC0
1860
3030
3030
6018
6018
6018
6018
6018
3030
3030
1860
8CC4
FCFC
ENDCHAR
STARTCHAR g210
ENCODING 8706
SWIDTH 667 0
DWIDTH 12 0
BBX 10 14 1 0
BITMAP
1C00
0300
0180
0180
0EC0
31C0
60C0
C0C0
C0C0
C0C0
C0C0
C180
6300
3E00
ENDCHAR
STARTCHAR g211
ENCODING 8710
SWIDTH 778 0
DWIDTH 14 0
BBX 12 12 1 0
BITMAP
0600
0600
0B00
0B00
1180
1180
20C0
20C0
4060
4060
8030
FFF0
ENDCHAR
STARTCHAR g212
ENCODING 8719
SWIDTH 778 0
DWIDTH 14 0
BBX 12 17 1 -3
BITMAP
FFF0
6060
6060
6060
6060
6060
6060
6060
6060
6060
6060
6060
6060
6060
6060
6060
F0F0
ENDCHAR
STARTCHAR g213
ENCODING 8721
SWIDTH 667 0
DWIDTH 12 0
BBX 11 17 0 -3
BITMAP
FFE0
6060
6020
3000
3000
1800
1800
0C00
0C00
0C00
1800
1800
3000
3000
6020
6060
FFE0
ENDCHAR
STARTCHAR g214
ENCODING 8730
SWIDTH 889 0
DWIDTH 16 0
BBX 13 16 1 0
BITMAP
0038
0020
0040
0040
0040
0080
0080
0080
0100
2100
5100
9200
0A00
0A00
0400
0400
ENDCHAR
STARTCHAR g215
ENCODING 8734
SWIDTH 889 0
DWIDTH 16 0
BBX 13 5 1 4
BITMAP
78F0
8508
8208
8508
78F0
ENDCHAR
STARTCHAR g216
ENCODING 8747
SWIDTH 556 0
DWIDTH 10 0
BBX 8 17 1 -3
BITMAP
06
0B
19
18
18
18
18
18
18
18
18
18
18
18
98
D0
60
ENDCHAR
STARTCHAR g217
ENCODING 8776
SWIDTH 556 0
DWIDTH 10 0
BBX 8 5 1 4
BITMAP
71
8E
00
71
8E
ENDCHAR
STARTCHAR g218
ENCODING 8800
SWIDTH 556 0
DWIDTH 10 0
BBX 7 7 1 2
BITMAP
08
08
FE
10
FE
20
20
ENDCHAR
STARTCHAR g219
ENCODING 8804
SWIDTH 556 0
DWIDTH 10 0
BBX 6 11 2 0
BITMAP
08
10
20
40
80
40
20
10
08
00
FC
ENDCHAR
STARTCHAR g220
ENCODING 8805
SWIDTH 556 0
DWIDTH 10 0
BBX 6 11 2 0
BITMAP
40
20
10
08
04
08
10
20
40
00
FC
ENDCHAR
STARTCHAR g221
ENCODING 9674
SWIDTH 1000 0
DWIDTH 18 0
BBX 13 13 2 0
BITMAP
0200
0500
0880
1040
2020
4010
8008
4010
2020
1040
0880
0500
0200
ENDCHAR
STARTCHAR g222
ENCODING 63252
SWIDTH 667 0
DWIDTH 12 0
BBX 8 14 2 0
BITMAP
3C
66
42
C3
C3
C3
DB
DB
C3
C3
C3
42
66
3C
ENDCHAR
STARTCHAR g223
ENCODING 63253
SWIDTH 444 0
DWIDTH 8 0
BBX 4 14 2 0
BITMAP
F0
60
60
60
60
60
60
60
60
60
60
60
60
F0
ENDCHAR
STARTCHAR g224
ENCODING 63254
SWIDTH 444 0
DWIDTH 8 0
BBX 4 14 2 0
BITMAP
E0
60
60
60
60
60
60
60
60
60
60
60
60
F0
ENDCHAR
STARTCHAR g225
ENCODING 63487
SWIDTH 722 0
DWIDTH 13 0
BBX 0 0 0 0
BITMAP
ENDCHAR
STARTCHAR g226
ENCODING 64257
SWIDTH 667 0
DWIDTH 12 0
BBX 10 14 1 0
BITMAP
3C00
6200
6000
6000
FF80
6180
6180
6180
6180
6180
6180
6180
6180
F3C0
ENDCHAR
STARTCHAR g227
ENCODING 64258
SWIDTH 667 0
DWIDTH 12 0
BBX 10 14 1 0
BITMAP
3F80
6180
6180
6180
F180
6180
6180
6180
6180
6180
6180
6180
6180
F3C0
ENDCHAR
STARTCHAR g228
ENCODING 64512
SWIDTH 944 0
DWIDTH 17 0
BBX 12 15 3 -1
BITMAP
FFF0
8010
8010
8010
8010
8010
8010
8010
8010
8010
8010
8010
8010
8010
FFF0
ENDCHAR
STARTCHAR g229
ENCODING 64513
SWIDTH 944 0
DWIDTH 17 0
BBX 12 15 3 -1
BITMAP
FFF0
8010
8010
8010
8010
8010
8010
8010
8010
8010
8010
8010
8010
8010
FFF0
ENDCHAR
STARTCHAR g230
ENCODING 64514
SWIDTH 944 0
DWIDTH 17 0
BBX 12 15 3 -1
BITMAP
FFF0
8010
8010
8010
8010
8010
8010
8010
8010
8010
8010
8010
8010
8010
FFF0
ENDCHAR
STARTCHAR g231
ENCODING 64515
SWIDTH 944 0
DWIDTH 17 0
BBX 12 15 3 -1
BITMAP
FFF0
8010
8010
8010
8010
8010
8010
8010
8010
8010
8010
8010
8010
8010
FFF0
ENDCHAR
STARTCHAR g232
ENCODING 64516
SWIDTH 944 0
DWIDTH 17 0
BBX 12 15 3 -1
BITMAP
FFF0
8010
8010
8010
8010
8010
8010
8010
8010
8010
8010
8010
8010
8010
FFF0
ENDCHAR
STARTCHAR g233
ENCODING 64517
SWIDTH 944 0
DWIDTH 17 0
BBX 12 15 3 -1
BITMAP
FFF0
8010
8010
8010
8010
8010
8010
8010
8010
8010
8010
8010
8010
8010
FFF0
ENDCHAR
STARTCHAR g234
ENCODING 64518
SWIDTH 944 0
DWIDTH 17 0
BBX 12 15 3 -1
BITMAP
FFF0
8010
8010
8010
8010
8010
8010
8010
8010
8010
8010
8010
8010
8010
FFF0
ENDCHAR
STARTCHAR g235
ENCODING 64519
SWIDTH 944 0
DWIDTH 17 0
BBX 12 15 3 -1
BITMAP
FFF0
8010
8010
8010
8010
8010
8010
8010
8010
8010
8010
8010
8010
8010
FFF0
ENDCHAR
STARTCHAR g236
ENCODING 64520
SWIDTH 944 0
DWIDTH 17 0
BBX 12 15 3 -1
BITMAP
FFF0
8010
8010
8010
8010
8010
8010
8010
8010
8010
8010
8010
8010
8010
FFF0
ENDCHAR
STARTCHAR g237
ENCODING 64521
SWIDTH 944 0
DWIDTH 17 0
BBX 12 15 3 -1
BITMAP
FFF0
8010
8010
8010
8010
8010
8010
8010
8010
8010
8010
8010
8010
8010
FFF0
ENDCHAR
STARTCHAR g238
ENCODING 64522
SWIDTH 944 0
DWIDTH 17 0
BBX 12 15 3 -1
BITMAP
FFF0
8010
8010
8010
8010
8010
8010
8010
8010
8010
8010
8010
8010
8010
FFF0
ENDCHAR
STARTCHAR g239
ENCODING 64523
SWIDTH 944 0
DWIDTH 17 0
BBX 12 15 3 -1
BITMAP
FFF0
8010
8010
8010
8010
8010
8010
8010
8010
8010
8010
8010
8010
8010
FFF0
ENDCHAR
STARTCHAR g240
ENCODING 64524
SWIDTH 944 0
DWIDTH 17 0
BBX 12 15 3 -1
BITMAP
FFF0
8010
8010
8010
8010
8010
8010
8010
8010
8010
8010
8010
8010
8010
FFF0
ENDCHAR
STARTCHAR g241
ENCODING 64525
SWIDTH 944 0
DWIDTH 17 0
BBX 12 15 3 -1
BITMAP
FFF0
8010
8010
8010
8010
8010
8010
8010
8010
8010
8010
8010
8010
8010
FFF0
ENDCHAR
STARTCHAR g242
ENCODING 64526
SWIDTH 944 0
DWIDTH 17 0
BBX 12 15 3 -1
BITMAP
FFF0
8010
8010
8010
8010
8010
8010
8010
8010
8010
8010
8010
8010
8010
FFF0
ENDCHAR
STARTCHAR g243
ENCODING 64527
SWIDTH 944 0
DWIDTH 17 0
BBX 12 15 3 -1
BITMAP
FFF0
8010
8010
8010
8010
8010
8010
8010
8010
8010
8010
8010
8010
8010
FFF0
ENDCHAR
ENDFONT
