STARTFONT 2.1
COMMENT Strike 6 of a Newton 'sfnt' font (bloc/bdat): tools/fonts/newtonsfnt.py,
COMMENT tools/fonts/README.md.  The builder reads the BLOC_* properties and the
COMMENT glyphs - STARTCHAR gN (N the glyph id; otherwise ENCODING through 'cmap'),
COMMENT DWIDTH (the advance), BBX (width, height, the bearing x, the bottom row's
COMMENT y: bearing y less the height) and the BITMAP rows.  A glyph id in the
COMMENT subtable ranges with no glyph here has no image (the missing glyph is 0).
COMMENT The other properties, SIZE, FONTBOUNDINGBOX and SWIDTH are worked out and
COMMENT not read back: change BLOC_HORI_* (the line metrics the ROM draws text by)
COMMENT to match an edit that changes the strike's extent.
FONT -Apple-Roman Regular-Medium-R-Normal--36-360-72-72-P-0-Apple-Roman
SIZE 36 72 72
FONTBOUNDINGBOX 46 43 -2 -9
STARTPROPERTIES 37
FONT_ASCENT 34
FONT_DESCENT 9
PIXEL_SIZE 36
FAMILY_NAME "Roman Regular"
BLOC_COLOR_REF 0
BLOC_HORI_ASCENDER 34
BLOC_HORI_DESCENDER -9
BLOC_HORI_WIDTH_MAX 46
BLOC_HORI_CARET_SLOPE_NUMERATOR 0
BLOC_HORI_CARET_SLOPE_DENOMINATOR 1
BLOC_HORI_CARET_OFFSET 0
BLOC_HORI_MIN_ORIGIN_SB -2
BLOC_HORI_MIN_ADVANCE_SB -4
BLOC_HORI_MAX_BEFORE_BL 34
BLOC_HORI_MIN_AFTER_BL -9
BLOC_HORI_PAD1 0
BLOC_HORI_PAD2 0
BLOC_VERT_ASCENDER 0
BLOC_VERT_DESCENDER 0
BLOC_VERT_WIDTH_MAX 43
BLOC_VERT_CARET_SLOPE_NUMERATOR 0
BLOC_VERT_CARET_SLOPE_DENOMINATOR 1
BLOC_VERT_CARET_OFFSET 0
BLOC_VERT_MIN_ORIGIN_SB 119
BLOC_VERT_MIN_ADVANCE_SB -128
BLOC_VERT_MAX_BEFORE_BL 0
BLOC_VERT_MIN_AFTER_BL 92
BLOC_VERT_PAD1 0
BLOC_VERT_PAD2 0
BLOC_START_GLYPH 0
BLOC_END_GLYPH 257
BLOC_PPEM_X 36
BLOC_PPEM_Y 36
BLOC_BIT_DEPTH 1
BLOC_FLAGS 1
BLOC_INDEX_SUBTABLES 1
BLOC_INDEX_SUBTABLE_0 "0 257 3 1 0"
ENDPROPERTIES
CHARS 244
STARTCHAR g0
ENCODING -1
SWIDTH 472 0
DWIDTH 17 0
BBX 16 24 0 0
BITMAP
FFFF
8001
8001
8001
8001
8001
8001
8001
8001
8001
8001
8001
8001
8001
8001
8001
8001
8001
8001
8001
8001
8001
8001
FFFF
ENDCHAR
STARTCHAR g1
ENCODING 0
SWIDTH 0 0
DWIDTH 0 0
BBX 0 0 0 0
BITMAP
ENDCHAR
STARTCHAR g2
ENCODING 1
SWIDTH 333 0
DWIDTH 12 0
BBX 0 0 0 0
BITMAP
ENDCHAR
STARTCHAR g3
ENCODING 2
SWIDTH 306 0
DWIDTH 11 0
BBX 5 29 3 -1
BITMAP
70
70
70
70
70
70
70
70
70
70
70
70
70
70
70
70
70
70
70
70
70
00
00
00
70
F8
F8
F8
70
ENDCHAR
STARTCHAR g4
ENCODING 3
SWIDTH 500 0
DWIDTH 18 0
BBX 10 11 4 17
BITMAP
C0C0
C0C0
C0C0
C0C0
C0C0
C0C0
C0C0
C0C0
C0C0
C0C0
C0C0
ENDCHAR
STARTCHAR g5
ENCODING 4
SWIDTH 667 0
DWIDTH 24 0
BBX 23 27 0 0
BITMAP
003018
003010
002010
006030
006030
004020
004060
00C060
1FFFFE
1FFFFE
0180C0
0180C0
0180C0
010080
030180
030180
030100
020100
FFFFF8
060300
040200
040600
0C0600
0C0600
080400
180C00
180C00
ENDCHAR
STARTCHAR g6
ENCODING 5
SWIDTH 667 0
DWIDTH 24 0
BBX 17 33 4 -3
BITMAP
00C000
00C000
00C000
07FE00
1ECF00
38C700
70C380
70C180
F0C180
F0C000
F0C000
F8C000
7CC000
3EC000
1FC000
0FE000
03F000
01FC00
00FE00
00FF00
00CF80
00C780
00C780
80C380
C0C380
C0C780
E0C700
F0CE00
F8DC00
3FF000
00C000
00C000
00C000
ENDCHAR
STARTCHAR g7
ENCODING 6
SWIDTH 889 0
DWIDTH 32 0
BBX 30 27 1 0
BITMAP
0F0001C0
39C00380
70E00300
60600600
E0700C00
E0701C00
E0701800
E0703000
E0707000
E070E000
E070C000
E07187C0
60638C70
70E31C30
39C63838
0F0C3818
001C381C
0018301C
0030301C
0070301C
0060301C
00C0381C
01803818
03803838
03001C30
06000C70
0E0007C0
ENDCHAR
STARTCHAR g8
ENCODING 7
SWIDTH 861 0
DWIDTH 31 0
BBX 29 29 1 -1
BITMAP
003F0000
00738000
00E1C000
01C0E000
01C0E000
01C1E000
01C1C000
01E18000
01E30000
01EE0000
00F00000
01F00000
07781FF8
0C781FF0
187C2FF0
383C0700
303E0600
701E0600
700F0C00
F00F8C00
F0079800
F003D000
7803F000
7801F000
7C00F800
3E017C00
1F063E10
0FFC1FE0
03F00780
ENDCHAR
STARTCHAR g9
ENCODING 8
SWIDTH 306 0
DWIDTH 11 0
BBX 5 11 3 17
BITMAP
F8
F8
F8
70
70
70
70
70
70
20
20
ENDCHAR
STARTCHAR g10
ENCODING 9
SWIDTH 444 0
DWIDTH 16 0
BBX 8 36 4 -7
BITMAP
01
03
06
0C
0C
18
18
30
30
70
70
F0
E0
E0
E0
E0
E0
E0
E0
E0
E0
E0
E0
E0
F0
70
70
30
30
38
18
0C
0C
06
03
01
ENDCHAR
STARTCHAR g11
ENCODING 10
SWIDTH 444 0
DWIDTH 16 0
BBX 8 36 4 -7
BITMAP
80
C0
60
60
30
18
18
1C
0C
0E
0E
0E
0F
07
07
07
07
07
07
07
07
07
07
0F
0E
0E
0E
0C
1C
18
18
30
60
60
C0
80
ENDCHAR
STARTCHAR g12
ENCODING 11
SWIDTH 500 0
DWIDTH 18 0
BBX 16 15 1 13
BITMAP
0180
0180
0180
0180
4182
F18F
FDBF
0FF0
0180
03C0
0660
0E70
1C38
1C38
0810
ENDCHAR
STARTCHAR g13
ENCODING 12
SWIDTH 667 0
DWIDTH 24 0
BBX 20 20 2 0
BITMAP
006000
006000
006000
006000
006000
006000
006000
006000
006000
FFFFF0
FFFFF0
006000
006000
006000
006000
006000
006000
006000
006000
006000
ENDCHAR
STARTCHAR g14
ENCODING 44
SWIDTH 306 0
DWIDTH 11 0
BBX 5 12 3 -7
BITMAP
70
F8
F8
F8
38
18
38
30
30
60
C0
80
ENDCHAR
STARTCHAR g15
ENCODING 45
SWIDTH 389 0
DWIDTH 14 0
BBX 11 2 1 10
BITMAP
FFE0
FFE0
ENDCHAR
STARTCHAR g16
ENCODING 46
SWIDTH 306 0
DWIDTH 11 0
BBX 5 5 3 -1
BITMAP
70
F8
F8
F8
70
ENDCHAR
STARTCHAR g17
ENCODING 47
SWIDTH 583 0
DWIDTH 21 0
BBX 19 29 1 -1
BITMAP
0000E0
0000C0
000180
000180
000300
000300
000600
000E00
000C00
001800
001800
003000
003000
006000
00E000
00C000
018000
018000
030000
030000
060000
0E0000
0C0000
180000
180000
300000
300000
600000
E00000
ENDCHAR
STARTCHAR g18
ENCODING 48
SWIDTH 667 0
DWIDTH 24 0
BBX 20 29 2 -1
BITMAP
01F800
070E00
0C0300
1C0380
3801C0
3801C0
7000E0
7000E0
F000F0
F000F0
F000F0
F000F0
F000F0
E00070
E00070
E00070
E000F0
F000F0
F000F0
F000F0
F000F0
7000E0
7000E0
3801C0
3801C0
1C0380
0C0300
070E00
01F800
ENDCHAR
STARTCHAR g19
ENCODING 49
SWIDTH 667 0
DWIDTH 24 0
BBX 14 28 5 0
BITMAP
0180
0F80
3F80
E780
0780
0780
0780
0780
0780
0780
0780
0780
0780
0780
0780
0780
0780
0780
0780
0780
0780
0780
0780
0780
0780
0780
0FC0
FFFC
ENDCHAR
STARTCHAR g20
ENCODING 50
SWIDTH 667 0
DWIDTH 24 0
BBX 17 28 3 0
BITMAP
07F000
1FFC00
781E00
600F00
800700
000700
000780
000700
000700
000F00
000E00
001E00
001C00
003800
003000
007000
00E000
00C000
018000
030000
060000
0C0000
080000
100000
300000
7FFF80
FFFF80
FFFF80
ENDCHAR
STARTCHAR g21
ENCODING 51
SWIDTH 667 0
DWIDTH 24 0
BBX 17 29 3 -1
BITMAP
07F000
183C00
601E00
400E00
000F00
000F00
000F00
000E00
000E00
001C00
007800
07E000
07C000
0FF800
00FE00
001F00
000F00
000780
000780
000380
000380
000380
000380
400700
600700
F00E00
FC1C00
3FF800
0FE000
ENDCHAR
STARTCHAR g22
ENCODING 52
SWIDTH 667 0
DWIDTH 24 0
BBX 22 28 1 0
BITMAP
000080
000180
000380
000780
000B80
001380
003380
006380
00C380
018380
010380
020380
040380
080380
100380
200380
600380
FFFFFC
FFFFFC
FFFFFC
000380
000380
000380
000380
000380
000380
000380
000380
ENDCHAR
STARTCHAR g23
ENCODING 53
SWIDTH 667 0
DWIDTH 24 0
BBX 17 28 3 -1
BITMAP
0FFF80
1FFF80
1FFF80
180000
180000
100000
100000
100000
3F0000
3FE000
3FF000
3FFC00
01FE00
003F00
001F00
000F00
000780
000780
000380
000380
000380
000380
000300
200700
600600
F00C00
7C3800
0FC000
ENDCHAR
STARTCHAR g24
ENCODING 54
SWIDTH 667 0
DWIDTH 24 0
BBX 20 29 2 -1
BITMAP
001F80
00F080
01C000
070000
0E0000
0E0000
1C0000
3C0000
380000
780000
780000
703E00
70FF80
7387C0
7201E0
F401E0
7C00E0
7800F0
780070
780070
780070
780070
380060
3C00E0
1C00C0
1E01C0
0F0180
078700
01F800
ENDCHAR
STARTCHAR g25
ENCODING 55
SWIDTH 667 0
DWIDTH 24 0
BBX 18 27 3 0
BITMAP
FFFFC0
FFFFC0
FFFF80
000180
000100
000200
000600
000400
000C00
000800
001800
001000
003000
007000
006000
00E000
00C000
01C000
01C000
01C000
038000
038000
078000
078000
070000
070000
0F0000
ENDCHAR
STARTCHAR g26
ENCODING 56
SWIDTH 667 0
DWIDTH 24 0
BBX 18 29 3 -1
BITMAP
03F800
0E1E00
180F00
380700
300380
300380
380380
780380
3C0300
3E0600
1F0E00
0FD800
07F000
03F800
0CFC00
183E00
381F00
700F80
7007C0
E003C0
E001C0
F001C0
F001C0
F001C0
780180
7C0380
3E0F00
1FFC00
07F000
ENDCHAR
STARTCHAR g27
ENCODING 57
SWIDTH 667 0
DWIDTH 24 0
BBX 20 29 2 -1
BITMAP
03F800
0E1E00
180700
300780
700380
7003C0
6001C0
E001E0
E001E0
E001E0
F001E0
7003E0
7802F0
7804F0
3E0CE0
1FF0E0
07C0E0
0001E0
0001E0
0001E0
0003C0
0003C0
000780
000700
000F00
003E00
00F800
1FF000
1F8000
ENDCHAR
STARTCHAR g28
ENCODING 58
SWIDTH 306 0
DWIDTH 11 0
BBX 5 20 3 0
BITMAP
70
F8
F8
F8
70
00
00
00
00
00
00
00
00
00
00
70
F8
F8
F8
70
ENDCHAR
STARTCHAR g29
ENCODING 59
SWIDTH 306 0
DWIDTH 11 0
BBX 5 27 3 -7
BITMAP
70
F8
F8
F8
70
00
00
00
00
00
00
00
00
00
00
70
F8
F8
F8
38
18
38
30
30
60
C0
80
ENDCHAR
STARTCHAR g30
ENCODING 60
SWIDTH 667 0
DWIDTH 24 0
BBX 19 20 3 0
BITMAP
000020
0000E0
0003C0
000F00
003C00
00F000
03C000
0F0000
3C0000
F00000
F00000
3C0000
0F0000
03C000
00F000
003C00
000F00
0003C0
0000E0
000020
ENDCHAR
STARTCHAR g31
ENCODING 61
SWIDTH 667 0
DWIDTH 24 0
BBX 20 8 2 6
BITMAP
FFFFF0
FFFFF0
000000
000000
000000
000000
FFFFF0
FFFFF0
ENDCHAR
STARTCHAR g32
ENCODING 62
SWIDTH 667 0
DWIDTH 24 0
BBX 19 20 2 0
BITMAP
800000
E00000
780000
1E0000
078000
01E000
007800
001E00
000780
0001E0
0001E0
000780
001E00
007800
01E000
078000
1E0000
780000
E00000
800000
ENDCHAR
STARTCHAR g33
ENCODING 63
SWIDTH 444 0
DWIDTH 16 0
BBX 14 29 1 -1
BITMAP
0FC0
7FF0
C0F8
003C
003C
003C
0038
0038
0030
0060
0060
00C0
0180
0300
0300
0700
0600
0E00
0E00
0E00
0E00
0000
0000
0000
0E00
1F00
1F00
1F00
0E00
ENDCHAR
STARTCHAR g34
ENCODING 64
SWIDTH 833 0
DWIDTH 30 0
BBX 28 29 1 -1
BITMAP
003FC000
00E03800
03000600
06000300
08000180
180000C0
30000040
200FE060
2078E020
60E0E020
40C0E020
41C0E020
41C0E020
41C0E030
41C0E020
C1C0E020
41C0E060
41C1E040
60E270C0
607C7F80
20003E00
30000000
18000000
1C000000
0E000000
07000000
03C03000
00FFF000
003FC000
ENDCHAR
STARTCHAR g35
ENCODING 65
SWIDTH 750 0
DWIDTH 27 0
BBX 27 28 0 0
BITMAP
00060000
00060000
000E0000
000F0000
001F0000
001F8000
00178000
00338000
0023C000
0061C000
0061E000
00C1E000
00C0F000
0080F000
01807000
01807800
03003800
03003C00
03FFFC00
06001E00
04001E00
0C000E00
0C000F00
18000700
18000780
38000780
380007C0
FE001FE0
ENDCHAR
STARTCHAR g36
ENCODING 66
SWIDTH 639 0
DWIDTH 23 0
BBX 20 27 1 0
BITMAP
FFFF00
1E07C0
0E01E0
0E01E0
0E00E0
0E00E0
0E00E0
0E00E0
0E01C0
0E0180
0E0300
0E0E00
0FFC00
0E1F80
0E07C0
0E01E0
0E00E0
0E00F0
0E0070
0E0070
0E0070
0E0070
0E0070
0E00E0
0F00C0
1F8380
FFFE00
ENDCHAR
STARTCHAR g37
ENCODING 67
SWIDTH 722 0
DWIDTH 26 0
BBX 22 29 1 -1
BITMAP
003FE0
01E07C
03801C
07000C
0E0004
1E0004
3C0000
3C0000
780000
780000
780000
780000
F80000
F80000
F80000
F80000
F80000
780000
780000
780000
780000
3C0000
3C0004
1E0004
0E000C
07000C
03801C
01E07C
003FC0
ENDCHAR
STARTCHAR g38
ENCODING 68
SWIDTH 806 0
DWIDTH 29 0
BBX 27 27 1 0
BITMAP
FFFF8000
1E01F000
0E007C00
0E003E00
0E001F00
0E000F80
0E000780
0E0007C0
0E0003C0
0E0003C0
0E0003E0
0E0001E0
0E0001E0
0E0001E0
0E0001E0
0E0001E0
0E0001E0
0E0003C0
0E0003C0
0E000380
0E000780
0E000700
0E000E00
0E001C00
0F003800
1F80F000
FFFF8000
ENDCHAR
STARTCHAR g39
ENCODING 69
SWIDTH 611 0
DWIDTH 22 0
BBX 19 27 1 0
BITMAP
FFFFC0
1E00E0
0E0060
0E0060
0E0060
0E0000
0E0000
0E0000
0E0000
0E0080
0E0080
0E0180
0FFF80
0E0180
0E0080
0E0080
0E0000
0E0000
0E0000
0E0000
0E0000
0E0000
0E0020
0E0020
0F0060
1F8060
FFFFE0
ENDCHAR
STARTCHAR g40
ENCODING 70
SWIDTH 583 0
DWIDTH 21 0
BBX 19 27 1 0
BITMAP
FFFFC0
1E00E0
0E0060
0E0060
0E0060
0E0000
0E0000
0E0000
0E0000
0E0000
0E0080
0E0080
0E0180
0FFF80
0E0180
0E0080
0E0080
0E0000
0E0000
0E0000
0E0000
0E0000
0E0000
0E0000
0E0000
1F0000
FFE000
ENDCHAR
STARTCHAR g41
ENCODING 71
SWIDTH 778 0
DWIDTH 28 0
BBX 25 29 1 -1
BITMAP
003FF000
01E07C00
03801C00
07000C00
0E000400
1E000400
3C000000
3C000000
78000000
78000000
78000000
78000000
F8000000
F8000000
F8000000
F8000000
F800FF80
78003E00
78001C00
78001C00
38001C00
3C001C00
3C001C00
1E001C00
0F001C00
07801C00
03F01C00
01FFFC00
003FE000
ENDCHAR
STARTCHAR g42
ENCODING 72
SWIDTH 806 0
DWIDTH 29 0
BBX 25 27 2 0
BITMAP
FF81FF80
3E003E00
1C001C00
1C001C00
1C001C00
1C001C00
1C001C00
1C001C00
1C001C00
1C001C00
1C001C00
1C001C00
1FFFFC00
1C001C00
1C001C00
1C001C00
1C001C00
1C001C00
1C001C00
1C001C00
1C001C00
1C001C00
1C001C00
1C001C00
1C001C00
3E003E00
FF81FF80
ENDCHAR
STARTCHAR g43
ENCODING 73
SWIDTH 361 0
DWIDTH 13 0
BBX 9 27 2 0
BITMAP
FF80
3E00
1C00
1C00
1C00
1C00
1C00
1C00
1C00
1C00
1C00
1C00
1C00
1C00
1C00
1C00
1C00
1C00
1C00
1C00
1C00
1C00
1C00
1C00
1C00
3E00
FF80
ENDCHAR
STARTCHAR g44
ENCODING 74
SWIDTH 472 0
DWIDTH 17 0
BBX 15 34 0 -7
BITMAP
03FE
00F8
0070
0070
0070
0070
0070
0070
0070
0070
0070
0070
0070
0070
0070
0070
0070
0070
0070
0070
0070
0070
0070
0070
0070
0070
0070
0070
8070
C0F0
C0E0
E1E0
7FC0
1F00
ENDCHAR
STARTCHAR g45
ENCODING 75
SWIDTH 722 0
DWIDTH 26 0
BBX 24 27 2 0
BITMAP
FF81F8
3E00E0
1C00C0
1C0180
1C0300
1C0600
1C0C00
1C1800
1C3000
1C6000
1CC000
1D8000
1FC000
1FE000
1DF000
1CF800
1C7C00
1C3E00
1C1F00
1C0F80
1C07C0
1C03E0
1C01F0
1C00F8
1C007C
3E003E
FF803F
ENDCHAR
STARTCHAR g46
ENCODING 76
SWIDTH 583 0
DWIDTH 21 0
BBX 18 27 2 0
BITMAP
FF8000
3E0000
1C0000
1C0000
1C0000
1C0000
1C0000
1C0000
1C0000
1C0000
1C0000
1C0000
1C0000
1C0000
1C0000
1C0000
1C0000
1C0000
1C0000
1C0000
1C0000
1C0040
1C0040
1C00C0
1E00C0
3FFFC0
FFFFC0
ENDCHAR
STARTCHAR g47
ENCODING 77
SWIDTH 972 0
DWIDTH 35 0
BBX 32 27 1 0
BITMAP
7E00003E
1F00007C
1F000078
1F8000F8
1B8000B8
1BC001B8
19C00138
19E00338
18E00238
18F00638
18700438
18780438
18380838
183C0838
181C1038
181E1038
180F2038
180F2038
1807C038
1807C038
18038038
18038038
18010038
18010038
18000038
3C00007C
FF0001FF
ENDCHAR
STARTCHAR g48
ENCODING 78
SWIDTH 806 0
DWIDTH 29 0
BBX 27 28 1 -1
BITMAP
FC001FE0
3E000780
1F000300
0F000300
0F800300
0FC00300
0DE00300
0DF00300
0CF80300
0C780300
0C3C0300
0C1E0300
0C1F0300
0C0F8300
0C078300
0C03C300
0C01E300
0C01F300
0C00FB00
0C007F00
0C003F00
0C001F00
0C001F00
0C000F00
0C000700
1E000300
7F800100
00000100
ENDCHAR
STARTCHAR g49
ENCODING 79
SWIDTH 806 0
DWIDTH 29 0
BBX 25 29 2 -1
BITMAP
007F0000
03C1E000
07007000
0E003800
1C001C00
3C001E00
38000E00
78000F00
78000F00
F0000780
F0000780
F0000780
F0000780
F0000780
F0000780
F0000780
F0000780
F0000780
F0000780
F0000780
78000F00
78000F00
38000E00
3C001E00
1C001C00
0E003800
07007000
03C1E000
007F0000
ENDCHAR
STARTCHAR g50
ENCODING 80
SWIDTH 611 0
DWIDTH 22 0
BBX 20 27 1 0
BITMAP
FFFF00
1E07C0
1E01E0
0E01E0
0E00F0
0E00F0
0E00F0
0E00F0
0E00F0
0E00E0
0E00E0
0E01C0
0E01C0
0E0380
0E0E00
0FF000
0E0000
0E0000
0E0000
0E0000
0E0000
0E0000
0E0000
0E0000
1E0000
1F0000
FFE000
ENDCHAR
STARTCHAR g51
ENCODING 81
SWIDTH 806 0
DWIDTH 29 0
BBX 31 35 2 -7
BITMAP
007F0000
03C1E000
07007000
0E003800
1C001C00
3C001E00
38000E00
78000F00
78000F00
F0000780
F0000780
F0000780
F0000780
F0000780
F0000780
F0000780
F0000780
F0000780
F0000780
F0000780
78000F00
78000F00
38000E00
3C001E00
1C001C00
0E003800
07007000
03C1E000
007F0000
001C0000
000F8000
0003F806
0001FFFC
00003FF8
000007C0
ENDCHAR
STARTCHAR g52
ENCODING 82
SWIDTH 694 0
DWIDTH 25 0
BBX 24 27 1 0
BITMAP
FFFF00
1E07C0
0E01E0
0E01E0
0E00F0
0E00F0
0E00F0
0E00E0
0E00E0
0E01E0
0E01C0
0E0380
0E0E00
0FFC00
0E1E00
0E0E00
0E0F00
0E0780
0E0780
0E03C0
0E01E0
0E01E0
0E00F0
0E00F8
0E0078
1F003C
FFC03F
ENDCHAR
STARTCHAR g53
ENCODING 83
SWIDTH 583 0
DWIDTH 21 0
BBX 18 29 1 -1
BITMAP
03FC00
0E0F80
1C0380
380180
700180
700080
700000
700000
780000
7C0000
3E0000
1F0000
0FC000
07E000
03F800
00FC00
007E00
001F00
000F80
000780
0007C0
0003C0
C003C0
400380
600380
600700
700E00
7C1C00
1FF000
ENDCHAR
STARTCHAR g54
ENCODING 84
SWIDTH 694 0
DWIDTH 25 0
BBX 23 28 1 0
BITMAP
800002
FFFFFE
E03C0E
C03C06
C03C06
803C02
803C02
003C00
003C00
003C00
003C00
003C00
003C00
003C00
003C00
003C00
003C00
003C00
003C00
003C00
003C00
003C00
003C00
003C00
003C00
003C00
007E00
01FF80
ENDCHAR
STARTCHAR g55
ENCODING 85
SWIDTH 778 0
DWIDTH 28 0
BBX 26 28 1 -1
BITMAP
FFC03FC0
3F000F00
1E000600
1E000600
1E000600
1E000600
1E000600
1E000600
1E000600
1E000600
1E000600
1E000600
1E000600
1E000600
1E000600
1E000600
1E000600
1E000600
1E000600
1E000600
1E000600
1E000600
0E000C00
0F000C00
07801800
07C03000
01E06000
007F8000
ENDCHAR
STARTCHAR g56
ENCODING 86
SWIDTH 750 0
DWIDTH 27 0
BBX 27 28 0 -1
BITMAP
FF0007E0
7C0003C0
3C000180
3C000300
1E000300
1E000600
0F000600
0F000600
07800C00
07800C00
03801800
03C01800
03C01000
01E03000
01E03000
00F06000
00F06000
00F8C000
0078C000
0078C000
003D8000
003D8000
001F0000
001F0000
001F0000
000E0000
000E0000
00040000
ENDCHAR
STARTCHAR g57
ENCODING 87
SWIDTH 1028 0
DWIDTH 37 0
BBX 37 28 0 -1
BITMAP
FF803003F8
7E003000F0
3C00300060
1C00780060
1E00780040
1E007C00C0
0E00FC00C0
0E00DC0080
0F009E0180
07009E0180
07018E0100
07810F0300
07810F0300
0383070300
0382078200
03C2038600
01C6038600
01C603C400
01E401CC00
00EC01EC00
00EC01E800
00F800E800
00F800F800
007800F800
0070007000
0070007000
0030003000
0020002000
ENDCHAR
STARTCHAR g58
ENCODING 88
SWIDTH 639 0
DWIDTH 23 0
BBX 23 27 0 0
BITMAP
7FC0FC
3F0070
1F0060
0F00C0
0F80C0
078180
03C300
03E300
01E600
00FC00
00FC00
007800
007800
003C00
003E00
007E00
00CF00
008F00
018780
0303C0
0203C0
0601E0
0C01E0
0C00F0
180078
3800FC
FE01FE
ENDCHAR
STARTCHAR g59
ENCODING 89
SWIDTH 639 0
DWIDTH 23 0
BBX 23 27 0 0
BITMAP
FF807E
7E0038
1E0030
1F0030
0F0060
078040
0780C0
03C080
03C180
01E100
00E300
00F200
007E00
007C00
003C00
003C00
003C00
003C00
003C00
003C00
003C00
003C00
003C00
003C00
003C00
007E00
03FF80
ENDCHAR
STARTCHAR g60
ENCODING 90
SWIDTH 611 0
DWIDTH 22 0
BBX 19 29 1 -1
BITMAP
400000
7FFFE0
7003C0
600780
600780
400F00
400F00
001E00
001E00
003C00
003C00
007800
007000
00F000
00E000
01E000
03C000
03C000
078000
078000
0F0000
0F0020
1E0020
1C0060
3C0060
3800E0
7803E0
FFFFE0
000060
ENDCHAR
STARTCHAR g61
ENCODING 91
SWIDTH 417 0
DWIDTH 15 0
BBX 8 36 5 -7
BITMAP
FF
E0
E0
E0
E0
E0
E0
E0
E0
E0
E0
E0
E0
E0
E0
E0
E0
E0
E0
E0
E0
E0
E0
E0
E0
E0
E0
E0
E0
E0
E0
E0
E0
E0
E0
FF
ENDCHAR
STARTCHAR g62
ENCODING 92
SWIDTH 583 0
DWIDTH 21 0
BBX 19 29 1 -1
BITMAP
E00000
600000
300000
300000
180000
1C0000
0C0000
0E0000
060000
030000
030000
018000
018000
00C000
00E000
006000
003000
003000
001800
001800
000C00
000E00
000600
000300
000300
000180
000180
0000C0
0000E0
ENDCHAR
STARTCHAR g63
ENCODING 93
SWIDTH 417 0
DWIDTH 15 0
BBX 9 36 1 -7
BITMAP
FF80
0380
0380
0380
0380
0380
0380
0380
0380
0380
0380
0380
0380
0380
0380
0380
0380
0380
0380
0380
0380
0380
0380
0380
0380
0380
0380
0380
0380
0380
0380
0380
0380
0380
0380
FF80
ENDCHAR
STARTCHAR g64
ENCODING 94
SWIDTH 667 0
DWIDTH 24 0
BBX 20 18 2 8
BITMAP
006000
006000
00F000
00F000
019800
019800
030C00
030C00
060600
060600
0C0300
0C0300
180180
180180
3000C0
3000C0
600060
E00070
ENDCHAR
STARTCHAR g65
ENCODING 95
SWIDTH 667 0
DWIDTH 24 0
BBX 22 2 1 -2
BITMAP
FFFFFC
FFFFFC
ENDCHAR
STARTCHAR g66
ENCODING 96
SWIDTH 639 0
DWIDTH 23 0
BBX 9 6 7 22
BITMAP
F000
3800
0C00
0600
0100
0080
ENDCHAR
STARTCHAR g67
ENCODING 97
SWIDTH 583 0
DWIDTH 21 0
BBX 19 21 2 -1
BITMAP
07F000
1C3C00
381C00
701E00
701E00
601E00
001E00
001E00
001E00
00FE00
07DE00
1E1E00
381E00
701E00
701E00
F01E00
F03E00
F86E00
7FCF00
7F8FE0
1E0780
ENDCHAR
STARTCHAR g68
ENCODING 98
SWIDTH 667 0
DWIDTH 24 0
BBX 22 30 0 -1
BITMAP
020000
1E0000
FE0000
3E0000
1E0000
1E0000
0E0000
0E0000
0E0000
0E1F80
0E7FE0
0EFFF0
0FC1F8
0F00F8
0E007C
0E003C
0E003C
0E001C
0E001C
0E001C
0E001C
0E001C
0E001C
0E003C
0E0038
0E0070
0F00F0
0FC1E0
0FFF80
007E00
ENDCHAR
STARTCHAR g69
ENCODING 99
SWIDTH 528 0
DWIDTH 19 0
BBX 18 21 1 -1
BITMAP
00FE00
030F80
0C07C0
1C0380
380100
380000
780000
700000
F00000
F00000
F00000
F00000
F80000
780000
780000
7C0000
3C0000
1E0000
0F8080
07FF80
01FC00
ENDCHAR
STARTCHAR g70
ENCODING 100
SWIDTH 694 0
DWIDTH 25 0
BBX 22 30 2 -1
BITMAP
000060
0003E0
000FE0
0003E0
0001E0
0001E0
0001E0
0001E0
0001E0
01FFE0
060FE0
0C03E0
3801E0
3001E0
7001E0
7001E0
F001E0
E001E0
E001E0
E001E0
E001E0
F001E0
F001E0
F001E0
7801E0
7C03E0
3E0FE0
3FFDFC
1FF1F8
07C180
ENDCHAR
STARTCHAR g71
ENCODING 101
SWIDTH 583 0
DWIDTH 21 0
BBX 17 21 2 -1
BITMAP
03F000
0E0C00
1C0600
380700
700380
700380
E00380
E00380
E00780
FFFF80
E00000
E00000
E00000
E00000
E00000
700000
780000
3C0080
1F0380
0FFF00
03F800
ENDCHAR
STARTCHAR g72
ENCODING 102
SWIDTH 389 0
DWIDTH 14 0
BBX 15 29 1 0
BITMAP
01F8
071E
0E0E
0E0C
1C08
1C00
1C00
1C00
1C00
FFF0
FFF0
1C00
1C00
1C00
1C00
1C00
1C00
1C00
1C00
1C00
1C00
1C00
1C00
1C00
1C00
1C00
1C00
3E00
FF80
ENDCHAR
STARTCHAR g73
ENCODING 103
SWIDTH 611 0
DWIDTH 22 0
BBX 19 28 2 -8
BITMAP
07E000
1C3FE0
381C00
380E00
780F00
700F00
700F00
700F00
700F00
780E00
380E00
381C00
0C3800
03C000
0C0000
180000
7C0000
7FFE00
3FFF80
1FFFC0
1803C0
7001C0
F001C0
E001C0
F00380
700300
3C0E00
0FF800
ENDCHAR
STARTCHAR g74
ENCODING 104
SWIDTH 694 0
DWIDTH 25 0
BBX 23 29 1 0
BITMAP
020000
1E0000
FE0000
3E0000
1E0000
0E0000
0E0000
0E0000
0E0000
0E0F80
0E3FC0
0E7FE0
0FC1E0
0F00F0
0E00F0
0E0070
0E0070
0E0070
0E0070
0E0070
0E0070
0E0070
0E0070
0E0070
0E0070
0E0070
0E0070
1F00F8
7FC3FE
ENDCHAR
STARTCHAR g75
ENCODING 105
SWIDTH 333 0
DWIDTH 12 0
BBX 10 27 1 0
BITMAP
1C00
3E00
3E00
1C00
0000
0000
0000
0200
1E00
FE00
3E00
1E00
0E00
0E00
0E00
0E00
0E00
0E00
0E00
0E00
0E00
0E00
0E00
0E00
0E00
1F00
7FC0
ENDCHAR
STARTCHAR g76
ENCODING 106
SWIDTH 333 0
DWIDTH 12 0
BBX 10 35 0 -8
BITMAP
0380
07C0
07C0
0380
0000
0000
0000
0180
0780
3F80
0F80
0780
0780
0780
0780
0780
0780
0780
0780
0780
0780
0780
0780
0780
0780
0780
0780
0780
0780
0700
0F00
1E00
3C00
7000
C000
ENDCHAR
STARTCHAR g77
ENCODING 107
SWIDTH 639 0
DWIDTH 23 0
BBX 22 29 1 0
BITMAP
060000
1E0000
FE0000
3E0000
1E0000
1E0000
1E0000
1E0000
1E0000
1E07E0
1E03C0
1E0300
1E0600
1E0C00
1E1800
1E3000
1E6000
1FE000
1FE000
1EF000
1E7800
1E3C00
1E1E00
1E0F00
1E0780
1E03C0
1E01E0
1F00F0
FFC07C
ENDCHAR
STARTCHAR g78
ENCODING 108
SWIDTH 333 0
DWIDTH 12 0
BBX 10 29 1 0
BITMAP
0600
1E00
FE00
3E00
1E00
1E00
1E00
1E00
1E00
1E00
1E00
1E00
1E00
1E00
1E00
1E00
1E00
1E00
1E00
1E00
1E00
1E00
1E00
1E00
1E00
1E00
1E00
3F00
FFC0
ENDCHAR
STARTCHAR g79
ENCODING 109
SWIDTH 1000 0
DWIDTH 36 0
BBX 34 20 1 0
BITMAP
020F00F000
1E3F83F800
FE7FCFFC00
3FC3FC3C00
1F01F01E00
0E00E00E00
0E00E00E00
0E00E00E00
0E00E00E00
0E00E00E00
0E00E00E00
0E00E00E00
0E00E00E00
0E00E00E00
0E00E00E00
0E00E00E00
0E00E00E00
0E00E00E00
1F01F01F00
7FC7FC7FC0
ENDCHAR
STARTCHAR g80
ENCODING 110
SWIDTH 694 0
DWIDTH 25 0
BBX 22 20 2 0
BITMAP
041F00
3C7F80
FCFFC0
7F83C0
3E01E0
1C00E0
1C00E0
1C00E0
1C00E0
1C00E0
1C00E0
1C00E0
1C00E0
1C00E0
1C00E0
1C00E0
1C00E0
1C00E0
3E01F0
FF87FC
ENDCHAR
STARTCHAR g81
ENCODING 111
SWIDTH 639 0
DWIDTH 23 0
BBX 19 21 2 -1
BITMAP
03F800
0E0E00
1C0700
380380
7803C0
7001C0
F001E0
F001E0
F001E0
F001E0
F001E0
F001E0
F001E0
F001E0
F001E0
7803C0
7803C0
3C0780
1E0F00
0FFE00
03F800
ENDCHAR
STARTCHAR g82
ENCODING 112
SWIDTH 694 0
DWIDTH 25 0
BBX 22 28 1 -8
BITMAP
041F80
1C7FC0
FDFFE0
3FC3F0
1F00F8
1C0078
1C003C
1C003C
1C003C
1C003C
1C003C
1C003C
1C003C
1C003C
1C0038
1C0078
1E0070
1F00E0
1FC3C0
1FFF80
1CFE00
1C0000
1C0000
1C0000
1C0000
1C0000
3E0000
FF8000
ENDCHAR
STARTCHAR g83
ENCODING 113
SWIDTH 667 0
DWIDTH 24 0
BBX 22 28 2 -8
BITMAP
01FE20
060FE0
0C03E0
1801E0
3801E0
7001E0
7001E0
F001E0
E001E0
E001E0
E001E0
E001E0
F001E0
F001E0
F001E0
7801E0
7C03E0
3E0FE0
3FFDE0
1FF1E0
07C1E0
0001E0
0001E0
0001E0
0001E0
0001E0
0003F0
000FFC
ENDCHAR
STARTCHAR g84
ENCODING 114
SWIDTH 500 0
DWIDTH 18 0
BBX 17 20 1 0
BITMAP
021E00
1E3F00
FE7F80
3EC700
1F0200
0E0000
0E0000
0E0000
0E0000
0E0000
0E0000
0E0000
0E0000
0E0000
0E0000
0E0000
0E0000
0E0000
1F0000
7FC000
ENDCHAR
STARTCHAR g85
ENCODING 115
SWIDTH 472 0
DWIDTH 17 0
BBX 14 21 2 -1
BITMAP
0FE0
3878
7038
7018
F018
F000
7800
7C00
3F00
1FC0
07E0
01F0
0078
003C
801C
C01C
C03C
E038
F0F8
FFF0
1FC0
ENDCHAR
STARTCHAR g86
ENCODING 116
SWIDTH 417 0
DWIDTH 15 0
BBX 13 26 1 -1
BITMAP
0400
0400
0C00
1C00
3C00
7FF0
FFF0
1C00
1C00
1C00
1C00
1C00
1C00
1C00
1C00
1C00
1C00
1C00
1C00
1C00
1C00
1E00
1E00
0F08
0FF8
03E0
ENDCHAR
STARTCHAR g87
ENCODING 117
SWIDTH 694 0
DWIDTH 25 0
BBX 23 21 1 -1
BITMAP
040020
3C01E0
FC07E0
3C01E0
1C00E0
1C00E0
1C00E0
1C00E0
1C00E0
1C00E0
1C00E0
1C00E0
1C00E0
1C00E0
1C00E0
1E00E0
1E01E0
0F07F0
0FFEFE
07F8FC
03E0C0
ENDCHAR
STARTCHAR g88
ENCODING 118
SWIDTH 611 0
DWIDTH 22 0
BBX 22 21 0 -1
BITMAP
FF01FC
7C0078
3C0070
1E0060
1E0060
0E0060
0F00C0
0700C0
078180
038180
03C100
01C300
01E300
01E600
00F600
00F400
007C00
007C00
003800
003800
001000
ENDCHAR
STARTCHAR g89
ENCODING 119
SWIDTH 833 0
DWIDTH 30 0
BBX 30 21 0 -1
BITMAP
FF0100FC
7C038038
38038030
3C038030
3C07C020
1C05C060
1C05E060
1E0CE040
0E08E040
0E08F0C0
0F187080
07107880
07103980
07B03900
03A03D00
03A01D00
03E01F00
01C00E00
01C00E00
01C00E00
00800400
ENDCHAR
STARTCHAR g90
ENCODING 120
SWIDTH 583 0
DWIDTH 21 0
BBX 21 20 0 0
BITMAP
7F03F0
3E00C0
1E0180
0F0100
0F0200
078600
03CC00
01F800
01F000
00F000
007800
00FC00
01BC00
031E00
030F00
060F80
0C0780
1803C0
3803E0
FC07F8
ENDCHAR
STARTCHAR g91
ENCODING 121
SWIDTH 639 0
DWIDTH 23 0
BBX 23 28 0 -8
BITMAP
7F807E
3E003C
1E0018
0E0010
0F0030
070020
078060
038040
03C0C0
01C080
01C180
01E100
00E100
00F200
007200
007C00
003C00
003800
001800
001000
001000
002000
006000
00C000
01C000
3F8000
7F0000
FC0000
ENDCHAR
STARTCHAR g92
ENCODING 122
SWIDTH 556 0
DWIDTH 20 0
BBX 16 20 2 0
BITMAP
FFFE
E01E
C03C
C03C
8078
00F0
00F0
01E0
03C0
03C0
0780
0780
0F00
1E00
1E00
3C03
7803
7803
F00E
FFFE
ENDCHAR
STARTCHAR g93
ENCODING 123
SWIDTH 444 0
DWIDTH 16 0
BBX 8 36 4 -7
BITMAP
03
0C
18
30
30
30
70
38
38
38
1C
1C
1C
0C
0C
0C
18
F0
F0
18
0C
0C
0C
1C
1C
1C
38
38
38
70
30
30
30
18
0C
03
ENDCHAR
STARTCHAR g94
ENCODING 124
SWIDTH 250 0
DWIDTH 9 0
BBX 3 29 3 -1
BITMAP
E0
E0
E0
E0
E0
E0
E0
E0
E0
E0
E0
E0
E0
E0
00
E0
E0
E0
E0
E0
E0
E0
E0
E0
E0
E0
E0
E0
E0
ENDCHAR
STARTCHAR g95
ENCODING 125
SWIDTH 444 0
DWIDTH 16 0
BBX 8 36 4 -7
BITMAP
C0
30
18
0C
0C
0E
0E
1C
1C
1C
3C
38
38
30
30
10
18
0F
0F
18
10
30
30
38
38
3C
1C
1C
1C
0E
0E
0C
0C
18
30
C0
ENDCHAR
STARTCHAR g96
ENCODING 126
SWIDTH 667 0
DWIDTH 24 0
BBX 20 7 2 6
BITMAP
1E0030
3F8030
63E030
C0F860
C03FE0
C01FC0
000780
ENDCHAR
STARTCHAR g97
ENCODING 127
SWIDTH 667 0
DWIDTH 24 0
BBX 0 0 0 0
BITMAP
ENDCHAR
STARTCHAR g98
ENCODING 161
SWIDTH 306 0
DWIDTH 11 0
BBX 5 29 3 -8
BITMAP
70
F8
F8
F8
70
00
00
00
70
70
70
70
70
70
70
70
70
70
70
70
70
70
70
70
70
70
70
70
70
ENDCHAR
STARTCHAR g99
ENCODING 162
SWIDTH 667 0
DWIDTH 24 0
BBX 17 33 3 -3
BITMAP
006000
006000
006000
006000
006000
006000
00FE00
076F80
0E6380
3C6180
386180
786080
706000
F06000
F06000
F06000
F06000
F06000
F06000
F06000
706000
786000
386000
3C6000
1F6180
07FF80
01FC00
006000
006000
006000
006000
006000
006000
ENDCHAR
STARTCHAR g100
ENCODING 163
SWIDTH 667 0
DWIDTH 24 0
BBX 18 28 3 0
BITMAP
001F00
007380
0061C0
00E080
00C000
01C000
01C000
01C000
038000
038000
038000
038000
3FFC00
3FFC00
070000
070000
070000
0F0000
0E0000
0E0000
0C0000
1C0000
180000
300000
600000
FFFF80
FFFF80
FFFF80
ENDCHAR
STARTCHAR g101
ENCODING 164
SWIDTH 667 0
DWIDTH 24 0
BBX 22 21 1 3
BITMAP
400008
E0001C
71FC38
3BFE70
1F07E0
0E01C0
0C00C0
180060
180060
180060
180060
180060
180060
180060
0C00C0
0E01C0
1F07E0
3BFE70
71FC38
E0001C
400008
ENDCHAR
STARTCHAR g102
ENCODING 165
SWIDTH 667 0
DWIDTH 24 0
BBX 24 27 0 0
BITMAP
FF807F
3F001C
1F0018
0F0010
078020
078060
03C040
03C0C0
01E080
01E180
00F100
007A00
007A00
003C00
0FFFF0
0FFFF0
003C00
003C00
0FFFF0
0FFFF0
003C00
003C00
003C00
003C00
003C00
007E00
01FFC0
ENDCHAR
STARTCHAR g103
ENCODING 167
SWIDTH 667 0
DWIDTH 24 0
BBX 17 35 4 -7
BITMAP
07F800
1C1F00
700700
600300
E00300
E00100
E00000
F00000
F80000
7C0000
3F0000
4FC000
47F000
C1F800
C07C00
C01E00
E00F00
F00780
7C0380
3E0380
1F8100
0FE100
03FA00
00FE00
003E00
001F00
000F00
800780
800780
C00700
C00700
E00E00
F83E00
FFF800
1FE000
ENDCHAR
STARTCHAR g104
ENCODING 168
SWIDTH 639 0
DWIDTH 23 0
BBX 11 3 6 23
BITMAP
E0E0
E0E0
E0E0
ENDCHAR
STARTCHAR g105
ENCODING 169
SWIDTH 889 0
DWIDTH 32 0
BBX 30 30 1 -1
BITMAP
001FE000
00FFFC00
01E01E00
07800780
0E0001C0
1C0000E0
180FF060
301FF830
70381838
60700818
60E00818
C0E0000C
C1C0000C
C1C0000C
C1C0000C
C1C0000C
C1C0000C
C1C0000C
C1C0000C
60E00018
60E00818
70700838
30781830
181FF860
1C0FE0E0
0E0001C0
07800780
01E01E00
00FFFC00
001FE000
ENDCHAR
STARTCHAR g106
ENCODING 170
SWIDTH 361 0
DWIDTH 13 0
BBX 12 12 1 16
BITMAP
1F00
3380
6180
4180
0180
0780
1D80
7180
6180
E180
63C0
3CF0
ENDCHAR
STARTCHAR g107
ENCODING 171
SWIDTH 528 0
DWIDTH 19 0
BBX 17 15 1 2
BITMAP
018180
038380
070700
0E0E00
1C1C00
383800
707000
E0E000
707000
383800
1C1C00
0E0E00
070700
038380
018180
ENDCHAR
STARTCHAR g108
ENCODING 172
SWIDTH 667 0
DWIDTH 24 0
BBX 20 8 2 6
BITMAP
FFFFF0
FFFFF0
000030
000030
000030
000030
000030
000030
ENDCHAR
STARTCHAR g109
ENCODING 174
SWIDTH 889 0
DWIDTH 32 0
BBX 30 30 1 -1
BITMAP
001FE000
00FFFC00
01E01E00
07800780
0E0001C0
1C0000E0
18FFE060
303FF030
70383838
60383818
60383818
C038380C
C038380C
C038700C
C03FE00C
C03FC00C
C039C00C
C038E00C
C038F00C
60387018
60383818
70383C38
30381E30
18FE0F60
1C0000E0
0E0001C0
07800780
01E01E00
00FFFC00
001FE000
ENDCHAR
STARTCHAR g110
ENCODING 175
SWIDTH 639 0
DWIDTH 23 0
BBX 9 1 7 23
BITMAP
FF80
ENDCHAR
STARTCHAR g111
ENCODING 176
SWIDTH 333 0
DWIDTH 12 0
BBX 8 8 2 20
BITMAP
3C
42
81
81
81
81
42
3C
ENDCHAR
STARTCHAR g112
ENCODING 177
SWIDTH 667 0
DWIDTH 24 0
BBX 20 23 2 0
BITMAP
006000
006000
006000
006000
006000
006000
006000
006000
006000
FFFFF0
006000
006000
006000
006000
006000
006000
006000
006000
006000
000000
000000
FFFFF0
FFFFF0
ENDCHAR
STARTCHAR g113
ENCODING 180
SWIDTH 639 0
DWIDTH 23 0
BBX 9 6 6 22
BITMAP
0780
0E00
1800
3000
4000
8000
ENDCHAR
STARTCHAR g114
ENCODING 181
SWIDTH 667 0
DWIDTH 24 0
BBX 21 27 1 -7
BITMAP
070038
070038
0F0038
0F0038
0E0078
0E0070
0E0070
0E0070
1E0070
1C00F0
1C00E0
1C00E0
1C00E0
3C01E0
3C01E0
3C03C0
3E05C0
3F1DC0
7FF9C0
77F1C0
73C000
700000
700000
F00000
E00000
E00000
E00000
ENDCHAR
STARTCHAR g115
ENCODING 182
SWIDTH 667 0
DWIDTH 24 0
BBX 19 34 2 -7
BITMAP
07FFE0
1FF180
3FF180
7FF180
7FF180
FFF180
FFF180
FFF180
FFF180
FFF180
7FF180
7FF180
3FF180
1FF180
07F180
003180
003180
003180
003180
003180
003180
003180
003180
003180
003180
003180
003180
003180
003180
003180
003180
003180
003180
003180
ENDCHAR
STARTCHAR g116
ENCODING 183
SWIDTH 667 0
DWIDTH 24 0
BBX 5 5 9 7
BITMAP
70
F8
F8
F8
70
ENDCHAR
STARTCHAR g117
ENCODING 184
SWIDTH 639 0
DWIDTH 23 0
BBX 6 8 8 -8
BITMAP
18
30
60
38
0C
04
CC
78
ENDCHAR
STARTCHAR g118
ENCODING 186
SWIDTH 389 0
DWIDTH 14 0
BBX 12 12 1 16
BITMAP
1F80
30C0
6060
E070
E070
E070
E070
E070
E070
6060
30C0
1F80
ENDCHAR
STARTCHAR g119
ENCODING 187
SWIDTH 528 0
DWIDTH 19 0
BBX 17 15 1 2
BITMAP
C0C000
E0E000
707000
383800
1C1C00
0E0E00
070700
038380
070700
0E0E00
1C1C00
383800
707000
E0E000
C0C000
ENDCHAR
STARTCHAR g120
ENCODING 191
SWIDTH 444 0
DWIDTH 16 0
BBX 13 29 2 -9
BITMAP
0380
07C0
07C0
0380
0000
0000
0000
0000
0380
0380
0380
0380
0380
0300
0700
0600
0C00
0800
1800
3000
7000
6000
E000
E000
E000
F008
F838
7FE0
1F80
ENDCHAR
STARTCHAR g121
ENCODING 192
SWIDTH 750 0
DWIDTH 27 0
BBX 27 34 0 0
BITMAP
00F00000
00380000
000C0000
00060000
00010000
00000000
00060000
00060000
000E0000
000F0000
001F0000
001F8000
00178000
00338000
0023C000
0061C000
0061E000
00C1E000
00C0F000
0080F000
01807000
01807800
03003800
03003C00
03FFFC00
06001E00
04001E00
0C000E00
0C000F00
18000700
18000780
38000780
380007C0
FE001FE0
ENDCHAR
STARTCHAR g122
ENCODING 193
SWIDTH 750 0
DWIDTH 27 0
BBX 27 34 0 0
BITMAP
0000F000
0001C000
00030000
00060000
00080000
00000000
00060000
00060000
000E0000
000F0000
001F0000
001F8000
00178000
00338000
0023C000
0061C000
0061E000
00C1E000
00C0F000
0080F000
01807000
01807800
03003800
03003C00
03FFFC00
06001E00
04001E00
0C000E00
0C000F00
18000700
18000780
38000780
380007C0
FE001FE0
ENDCHAR
STARTCHAR g123
ENCODING 194
SWIDTH 750 0
DWIDTH 27 0
BBX 27 34 0 0
BITMAP
00060000
000F0000
00198000
0030C000
00606000
00000000
00060000
00060000
000E0000
000F0000
001F0000
001F8000
00178000
00338000
0023C000
0061C000
0061E000
00C1E000
00C0F000
0080F000
01807000
01807800
03003800
03003C00
03FFFC00
06001E00
04001E00
0C000E00
0C000F00
18000700
18000780
38000780
380007C0
FE001FE0
ENDCHAR
STARTCHAR g124
ENCODING 195
SWIDTH 750 0
DWIDTH 27 0
BBX 27 34 0 0
BITMAP
001C0800
003F1800
0067F000
0041E000
00000000
00000000
00060000
00060000
000E0000
000F0000
001F0000
001F8000
00178000
00338000
0023C000
0061C000
0061E000
00C1E000
00C0F000
0080F000
01807000
01807800
03003800
03003C00
03FFFC00
06001E00
04001E00
0C000E00
0C000F00
18000700
18000780
38000780
380007C0
FE001FE0
ENDCHAR
STARTCHAR g125
ENCODING 196
SWIDTH 750 0
DWIDTH 27 0
BBX 27 33 0 0
BITMAP
00E0E000
00E0E000
00E0E000
00000000
00000000
00060000
00060000
000E0000
000F0000
001F0000
001F8000
00178000
00338000
0023C000
0061C000
0061E000
00C1E000
00C0F000
0080F000
01807000
01807800
03003800
03003C00
03FFFC00
06001E00
04001E00
0C000E00
0C000F00
18000700
18000780
38000780
380007C0
FE001FE0
ENDCHAR
STARTCHAR g126
ENCODING 197
SWIDTH 750 0
DWIDTH 27 0
BBX 27 34 0 0
BITMAP
000E0000
00190000
00108000
00108000
00190000
000E0000
00060000
00060000
000E0000
000F0000
001F0000
00178000
00378000
0033C000
0023C000
0061C000
0041E000
00C1E000
00C0F000
0080F000
01807800
01007800
03007800
03003C00
07FFFC00
06001E00
04000E00
0C000E00
0C000F00
18000700
18000780
38000780
780007C0
FE001FE0
ENDCHAR
STARTCHAR g127
ENCODING 198
SWIDTH 1000 0
DWIDTH 36 0
BBX 35 27 0 0
BITMAP
00001FFFC0
00003E00C0
00003E0040
00005E0040
0000DE0040
00019E0000
00011E0000
00031E0000
00061E0000
00041E0180
00081E0180
00181E0380
00101FFF80
00201E0180
00601E0180
00401E0180
00801E0000
01FFFE0000
01001E0000
02001E0000
06001E0000
0C001E0000
08001E0020
18001E0020
30001E0060
78003F80E0
FC00FFFFE0
ENDCHAR
STARTCHAR g128
ENCODING 199
SWIDTH 722 0
DWIDTH 26 0
BBX 23 36 1 -8
BITMAP
003FE0
01E07C
03801C
07000C
0E0004
1E0004
3C0000
3C0000
780000
780000
780000
780000
F80000
F80000
F80000
F80000
F80000
780000
780000
780000
780000
3C0000
3C0006
1E0004
1E000C
0F000C
07801C
01E07C
007FC0
000C00
000800
001F00
000300
000380
002300
001F00
ENDCHAR
STARTCHAR g129
ENCODING 200
SWIDTH 611 0
DWIDTH 22 0
BBX 19 34 1 0
BITMAP
078000
01C000
006000
003000
000800
000400
000000
FFFFC0
1E00E0
0E0060
0E0060
0E0060
0E0000
0E0000
0E0000
0E0000
0E0080
0E0080
0E0180
0FFF80
0E0180
0E0080
0E0080
0E0000
0E0000
0E0000
0E0000
0E0000
0E0000
0E0020
0E0020
0F0060
1F8060
FFFFE0
ENDCHAR
STARTCHAR g130
ENCODING 201
SWIDTH 611 0
DWIDTH 22 0
BBX 19 34 1 0
BITMAP
000F00
001C00
003000
006000
008000
010000
000000
FFFFC0
1E00E0
0E0060
0E0060
0E0060
0E0000
0E0000
0E0000
0E0000
0E0080
0E0080
0E0180
0FFF80
0E0180
0E0080
0E0080
0E0000
0E0000
0E0000
0E0000
0E0000
0E0000
0E0020
0E0020
0F0060
1F8060
FFFFE0
ENDCHAR
STARTCHAR g131
ENCODING 202
SWIDTH 611 0
DWIDTH 22 0
BBX 19 34 1 0
BITMAP
003000
007800
00CC00
018600
030300
000000
000000
FFFFC0
1E00E0
0E0060
0E0060
0E0060
0E0000
0E0000
0E0000
0E0000
0E0080
0E0080
0E0180
0FFF80
0E0180
0E0080
0E0080
0E0000
0E0000
0E0000
0E0000
0E0000
0E0000
0E0020
0E0020
0F0060
1F8060
FFFFE0
ENDCHAR
STARTCHAR g132
ENCODING 203
SWIDTH 611 0
DWIDTH 22 0
BBX 19 33 1 0
BITMAP
070700
070700
070700
000000
000000
000000
FFFFC0
1E00E0
0E0060
0E0060
0E0060
0E0000
0E0000
0E0000
0E0000
0E0080
0E0080
0E0180
0FFF80
0E0180
0E0080
0E0080
0E0000
0E0000
0E0000
0E0000
0E0000
0E0000
0E0020
0E0020
0F0060
1F8060
FFFFE0
ENDCHAR
STARTCHAR g133
ENCODING 204
SWIDTH 361 0
DWIDTH 13 0
BBX 11 34 0 0
BITMAP
F000
3800
0C00
0600
0100
0080
0000
3FE0
0F80
0700
0700
0700
0700
0700
0700
0700
0700
0700
0700
0700
0700
0700
0700
0700
0700
0700
0700
0700
0700
0700
0700
0700
0F80
3FE0
ENDCHAR
STARTCHAR g134
ENCODING 205
SWIDTH 361 0
DWIDTH 13 0
BBX 11 34 2 0
BITMAP
01E0
0380
0600
0C00
1000
2000
0000
FF80
3E00
1C00
1C00
1C00
1C00
1C00
1C00
1C00
1C00
1C00
1C00
1C00
1C00
1C00
1C00
1C00
1C00
1C00
1C00
1C00
1C00
1C00
1C00
1C00
3E00
FF80
ENDCHAR
STARTCHAR g135
ENCODING 206
SWIDTH 361 0
DWIDTH 13 0
BBX 9 34 2 0
BITMAP
0800
1C00
3600
6300
C180
0000
0000
FF80
3E00
1C00
1C00
1C00
1C00
1C00
1C00
1C00
1C00
1C00
1C00
1C00
1C00
1C00
1C00
1C00
1C00
1C00
1C00
1C00
1C00
1C00
1C00
1C00
3E00
FF80
ENDCHAR
STARTCHAR g136
ENCODING 207
SWIDTH 361 0
DWIDTH 13 0
BBX 11 33 1 0
BITMAP
E0E0
E0E0
E0E0
0000
0000
0000
7FC0
1F00
0E00
0E00
0E00
0E00
0E00
0E00
0E00
0E00
0E00
0E00
0E00
0E00
0E00
0E00
0E00
0E00
0E00
0E00
0E00
0E00
0E00
0E00
0E00
1F00
7FC0
ENDCHAR
STARTCHAR g137
ENCODING 209
SWIDTH 806 0
DWIDTH 29 0
BBX 27 34 1 -1
BITMAP
00702000
00FC6000
019FC000
01078000
00000000
00000000
FC001FE0
3E000780
1F000300
0F000300
0F800300
0FC00300
0DE00300
0DF00300
0CF80300
0C780300
0C3C0300
0C1E0300
0C1F0300
0C0F8300
0C078300
0C03C300
0C01E300
0C01F300
0C00FB00
0C007F00
0C003F00
0C001F00
0C001F00
0C000F00
0C000700
1E000300
7F800100
00000100
ENDCHAR
STARTCHAR g138
ENCODING 210
SWIDTH 806 0
DWIDTH 29 0
BBX 25 35 2 -1
BITMAP
01E00000
00700000
00180000
000C0000
00020000
00000000
007F0000
03C1E000
07007000
0E003800
1C001C00
3C001E00
38000E00
78000F00
78000F00
F0000780
F0000780
F0000780
F0000780
F0000780
F0000780
F0000780
F0000780
F0000780
F0000780
F0000780
78000F00
78000F00
38000E00
3C001E00
1C001C00
0E003800
07007000
03C1E000
007F0000
ENDCHAR
STARTCHAR g139
ENCODING 211
SWIDTH 806 0
DWIDTH 29 0
BBX 25 35 2 -1
BITMAP
0003C000
00070000
000C0000
00180000
00200000
00000000
007F0000
03C1E000
07007000
0E003800
1C001C00
3C001E00
38000E00
78000F00
78000F00
F0000780
F0000780
F0000780
F0000780
F0000780
F0000780
F0000780
F0000780
F0000780
F0000780
F0000780
78000F00
78000F00
38000E00
3C001E00
1C001C00
0E003800
07007000
03C1E000
007F0000
ENDCHAR
STARTCHAR g140
ENCODING 212
SWIDTH 806 0
DWIDTH 29 0
BBX 25 35 2 -1
BITMAP
000C0000
001E0000
00330000
00618000
00C0C000
00000000
007F0000
03C1E000
07007000
0E003800
1C001C00
3C001E00
38000E00
78000F00
78000F00
F0000780
F0000780
F0000780
F0000780
F0000780
F0000780
F0000780
F0000780
F0000780
F0000780
F0000780
78000F00
78000F00
38000E00
3C001E00
1C001C00
0E003800
07007000
03C1E000
007F0000
ENDCHAR
STARTCHAR g141
ENCODING 213
SWIDTH 806 0
DWIDTH 29 0
BBX 25 35 2 -1
BITMAP
00702000
00FC6000
019FC000
01078000
00000000
00000000
007F0000
03C1E000
07007000
0E003800
1C001C00
3C001E00
38000E00
78000F00
78000F00
F0000780
F0000780
F0000780
F0000780
F0000780
F0000780
F0000780
F0000780
F0000780
F0000780
F0000780
78000F00
78000F00
38000E00
3C001E00
1C001C00
0E003800
07007000
03C1E000
007F0000
ENDCHAR
STARTCHAR g142
ENCODING 214
SWIDTH 806 0
DWIDTH 29 0
BBX 25 34 2 -1
BITMAP
01C1C000
01C1C000
01C1C000
00000000
00000000
007F0000
03C1E000
07007000
0E003800
1C001C00
3C001E00
38000E00
78000F00
78000F00
F0000780
F0000780
F0000780
F0000780
F0000780
F0000780
F0000780
F0000780
F0000780
F0000780
F0000780
78000F00
78000F00
38000E00
3C001E00
1C001C00
0E003800
07007000
03C1E000
007F0000
ENDCHAR
STARTCHAR g143
ENCODING 216
SWIDTH 806 0
DWIDTH 29 0
BBX 26 29 1 -1
BITMAP
003F80C0
01E0F180
03803B00
07001F00
0E000E00
1C000F00
3C001F00
38003F80
38007380
780063C0
7800C3C0
780183C0
780303C0
780703C0
780E03C0
781C03C0
781803C0
783003C0
786003C0
78C003C0
39C00380
3F800780
3F000700
1E000F00
0E000E00
1F001C00
33803800
61E0F000
C03F8000
ENDCHAR
STARTCHAR g144
ENCODING 217
SWIDTH 778 0
DWIDTH 28 0
BBX 26 35 1 -1
BITMAP
03C00000
00E00000
00300000
00180000
00040000
00020000
00000000
FFC03FC0
3F000F00
1E000600
1E000600
1E000600
1E000600
1E000600
1E000600
1E000600
1E000600
1E000600
1E000600
1E000600
1E000600
1E000600
1E000600
1E000600
1E000600
1E000600
1E000600
1E000600
1E000600
0E000C00
0F000C00
07801800
07C03000
01E06000
007F8000
ENDCHAR
STARTCHAR g145
ENCODING 218
SWIDTH 778 0
DWIDTH 28 0
BBX 26 35 1 -1
BITMAP
00003C00
00007000
0000C000
00018000
00020000
00040000
00000000
FFC03FC0
3F000F00
1E000600
1E000600
1E000600
1E000600
1E000600
1E000600
1E000600
1E000600
1E000600
1E000600
1E000600
1E000600
1E000600
1E000600
1E000600
1E000600
1E000600
1E000600
1E000600
1E000600
0E000C00
0F000C00
07801800
07C03000
01E06000
007F8000
ENDCHAR
STARTCHAR g146
ENCODING 219
SWIDTH 778 0
DWIDTH 28 0
BBX 26 35 1 -1
BITMAP
00060000
000F0000
00198000
0030C000
00606000
00000000
00000000
FFC03FC0
3F000F00
1E000600
1E000600
1E000600
1E000600
1E000600
1E000600
1E000600
1E000600
1E000600
1E000600
1E000600
1E000600
1E000600
1E000600
1E000600
1E000600
1E000600
1E000600
1E000600
1E000600
0E000C00
0F000C00
07801800
07C03000
01E06000
007F8000
ENDCHAR
STARTCHAR g147
ENCODING 220
SWIDTH 778 0
DWIDTH 28 0
BBX 26 34 1 -1
BITMAP
00E0E000
00E0E000
00E0E000
00000000
00000000
00000000
FFC03FC0
3F000F00
1E000600
1E000600
1E000600
1E000600
1E000600
1E000600
1E000600
1E000600
1E000600
1E000600
1E000600
1E000600
1E000600
1E000600
1E000600
1E000600
1E000600
1E000600
1E000600
1E000600
0E000C00
0F000C00
07801800
07C03000
01E06000
007F8000
ENDCHAR
STARTCHAR g148
ENCODING 223
SWIDTH 639 0
DWIDTH 23 0
BBX 22 30 1 -1
BITMAP
01FC00
030E00
0E0700
0E0780
1C0780
1C0700
1C0700
1C0E00
1C1800
1C3000
1C2000
1C6000
1C6000
1C7000
1C7800
1C3C00
1C1E00
1C0F80
1C07C0
1C01E0
1C00F0
1C0078
1C0038
1C003C
1C103C
1C183C
1C1838
3E1C78
FF9FF0
0007C0
ENDCHAR
STARTCHAR g149
ENCODING 224
SWIDTH 583 0
DWIDTH 21 0
BBX 19 29 2 -1
BITMAP
3C0000
0E0000
030000
018000
004000
002000
000000
000000
07F000
1C3C00
381C00
701E00
701E00
601E00
001E00
001E00
001E00
00FE00
07DE00
1E1E00
381E00
701E00
701E00
F01E00
F03E00
F86E00
7FCF00
7F8FE0
1E0780
ENDCHAR
STARTCHAR g150
ENCODING 225
SWIDTH 583 0
DWIDTH 21 0
BBX 19 29 2 -1
BITMAP
003C00
007000
00C000
018000
020000
040000
000000
000000
07F000
1C3C00
381C00
701E00
701E00
601E00
001E00
001E00
001E00
00FE00
07DE00
1E1E00
381E00
701E00
701E00
F01E00
F03E00
F86E00
7FCF00
7F8FE0
1E0780
ENDCHAR
STARTCHAR g151
ENCODING 226
SWIDTH 583 0
DWIDTH 21 0
BBX 19 29 2 -1
BITMAP
018000
03C000
066000
0C3000
181800
000000
000000
000000
07F000
1C3C00
381C00
701E00
701E00
601E00
001E00
001E00
001E00
00FE00
07DE00
1E1E00
381E00
701E00
701E00
F01E00
F03E00
F86E00
7FCF00
7F8FE0
1E0780
ENDCHAR
STARTCHAR g152
ENCODING 227
SWIDTH 583 0
DWIDTH 21 0
BBX 19 28 2 -1
BITMAP
0E0800
1F9800
33F000
20E000
000000
000000
000000
07F000
1C3C00
381C00
701E00
701E00
601E00
001E00
001E00
001E00
00FE00
07DE00
1E1E00
381E00
701E00
701E00
F01E00
F03E00
F86E00
7FCF00
7F8FE0
1E0780
ENDCHAR
STARTCHAR g153
ENCODING 228
SWIDTH 583 0
DWIDTH 21 0
BBX 19 27 2 -1
BITMAP
0E1C00
0E1C00
0E1C00
000000
000000
000000
07F000
1C3C00
381C00
701E00
701E00
601E00
001E00
001E00
001E00
00FE00
07DE00
1E1E00
381E00
701E00
701E00
F01E00
F03E00
F86E00
7FCF00
7F8FE0
1E0780
ENDCHAR
STARTCHAR g154
ENCODING 229
SWIDTH 583 0
DWIDTH 21 0
BBX 19 30 2 -1
BITMAP
038000
044000
042000
042000
044000
038000
000000
000000
000000
07F000
1C3C00
381C00
701E00
701E00
601E00
001E00
001E00
001E00
00FE00
07DE00
1E1E00
381E00
701E00
701E00
F01E00
F03E00
F86E00
7FCF00
7F8FE0
1E0780
ENDCHAR
STARTCHAR g155
ENCODING 230
SWIDTH 889 0
DWIDTH 32 0
BBX 29 21 2 -1
BITMAP
03F07E00
1C3DC380
381F81C0
301F00E0
701F00E0
601E0070
001E0070
001E0070
001FFFF0
00FE0000
03DE0000
1E1E0000
381E0000
701E0000
701F0000
F01F8000
F017C000
F037E038
78E3FFF8
7F80FFE0
1E003F00
ENDCHAR
STARTCHAR g156
ENCODING 231
SWIDTH 528 0
DWIDTH 19 0
BBX 18 28 1 -8
BITMAP
00FE00
030F80
0C07C0
1C0380
380100
380000
780000
700000
F00000
F00000
F00000
F00000
F80000
780000
780000
7C0000
3C0000
1E0000
0F8080
07FF80
01FC00
004000
004000
00F000
003800
001800
013800
01F000
ENDCHAR
STARTCHAR g157
ENCODING 232
SWIDTH 583 0
DWIDTH 21 0
BBX 17 29 2 -1
BITMAP
1E0000
070000
018000
00C000
002000
001000
000000
000000
03F000
0E0C00
1C0600
380700
700380
700380
E00380
E00380
E00780
FFFF80
E00000
E00000
E00000
E00000
E00000
700000
780000
3C0080
1F0380
0FFF00
03F800
ENDCHAR
STARTCHAR g158
ENCODING 233
SWIDTH 583 0
DWIDTH 21 0
BBX 17 29 2 -1
BITMAP
001E00
003800
006000
00C000
010000
020000
000000
000000
03F000
0E0C00
1C0600
380700
700380
700380
E00380
E00380
E00780
FFFF80
E00000
E00000
E00000
E00000
E00000
700000
780000
3C0080
1F0380
0FFF00
03F800
ENDCHAR
STARTCHAR g159
ENCODING 234
SWIDTH 583 0
DWIDTH 21 0
BBX 17 29 2 -1
BITMAP
00C000
01E000
033000
061800
0C0C00
000000
000000
000000
03F000
0E0C00
1C0600
380700
700380
700380
E00380
E00380
E00780
FFFF80
E00000
E00000
E00000
E00000
E00000
700000
780000
3C0080
1F0380
0FFF00
03F800
ENDCHAR
STARTCHAR g160
ENCODING 235
SWIDTH 583 0
DWIDTH 21 0
BBX 17 27 2 -1
BITMAP
0E1C00
0E1C00
0E1C00
000000
000000
000000
03F000
0E0C00
1C0600
380700
700380
700380
E00380
E00380
E00780
FFFF80
E00000
E00000
E00000
E00000
E00000
700000
780000
3C0080
1F0380
0FFF00
03F800
ENDCHAR
STARTCHAR g161
ENCODING 236
SWIDTH 333 0
DWIDTH 12 0
BBX 11 28 0 0
BITMAP
F000
3800
0C00
0600
0100
0080
0000
0000
0100
0F00
3F00
1F00
0F00
0700
0700
0700
0700
0700
0700
0700
0700
0700
0700
0700
0700
0700
0F80
3FE0
ENDCHAR
STARTCHAR g162
ENCODING 237
SWIDTH 333 0
DWIDTH 12 0
BBX 10 28 2 0
BITMAP
03C0
0700
0C00
1800
2000
4000
0000
0000
0400
3C00
FC00
7C00
3C00
1C00
1C00
1C00
1C00
1C00
1C00
1C00
1C00
1C00
1C00
1C00
1C00
1C00
3E00
FF80
ENDCHAR
STARTCHAR g163
ENCODING 238
SWIDTH 333 0
DWIDTH 12 0
BBX 10 28 1 0
BITMAP
0C00
1E00
3300
6180
C0C0
0000
0000
0000
0200
1E00
7E00
3E00
1E00
0E00
0E00
0E00
0E00
0E00
0E00
0E00
0E00
0E00
0E00
0E00
0E00
0E00
1F00
7FC0
ENDCHAR
STARTCHAR g164
ENCODING 239
SWIDTH 333 0
DWIDTH 12 0
BBX 10 26 1 0
BITMAP
E1C0
E1C0
E1C0
0000
0000
0000
0200
1E00
7E00
3E00
1E00
0E00
0E00
0E00
0E00
0E00
0E00
0E00
0E00
0E00
0E00
0E00
0E00
0E00
1F00
7FC0
ENDCHAR
STARTCHAR g165
ENCODING 241
SWIDTH 694 0
DWIDTH 25 0
BBX 22 27 2 0
BITMAP
01C080
03F180
067F00
041E00
000000
000000
000000
041F00
3C7F80
FCFFC0
7F83C0
3E01E0
1C00E0
1C00E0
1C00E0
1C00E0
1C00E0
1C00E0
1C00E0
1C00E0
1C00E0
1C00E0
1C00E0
1C00E0
1C00E0
3E01F0
FF87FC
ENDCHAR
STARTCHAR g166
ENCODING 242
SWIDTH 639 0
DWIDTH 23 0
BBX 19 29 2 -1
BITMAP
1E0000
070000
018000
00C000
002000
001000
000000
000000
03F800
0E0E00
1C0700
380380
7803C0
7001C0
F001E0
F001E0
F001E0
F001E0
F001E0
F001E0
F001E0
F001E0
F001E0
7803C0
7803C0
3C0780
1E0F00
0FFE00
03F800
ENDCHAR
STARTCHAR g167
ENCODING 243
SWIDTH 639 0
DWIDTH 23 0
BBX 19 29 2 -1
BITMAP
000F00
001C00
003000
006000
008000
010000
000000
000000
03F800
0E0E00
1C0700
380380
7803C0
7001C0
F001E0
F001E0
F001E0
F001E0
F001E0
F001E0
F001E0
F001E0
F001E0
7803C0
7803C0
3C0780
1E0F00
0FFE00
03F800
ENDCHAR
STARTCHAR g168
ENCODING 244
SWIDTH 639 0
DWIDTH 23 0
BBX 19 29 2 -1
BITMAP
006000
00F000
019800
030C00
060600
000000
000000
000000
03F800
0E0E00
1C0700
380380
7803C0
7001C0
F001E0
F001E0
F001E0
F001E0
F001E0
F001E0
F001E0
F001E0
F001E0
7803C0
7803C0
3C0780
1E0F00
0FFE00
03F800
ENDCHAR
STARTCHAR g169
ENCODING 245
SWIDTH 639 0
DWIDTH 23 0
BBX 19 28 2 -1
BITMAP
038100
07E300
0CFE00
083C00
000000
000000
000000
03F800
0E0E00
1C0700
380380
7803C0
7001C0
F001E0
F001E0
F001E0
F001E0
F001E0
F001E0
F001E0
F001E0
F001E0
7803C0
7803C0
3C0780
1E0F00
0FFE00
03F800
ENDCHAR
STARTCHAR g170
ENCODING 246
SWIDTH 639 0
DWIDTH 23 0
BBX 19 27 2 -1
BITMAP
0E0E00
0E0E00
0E0E00
000000
000000
000000
03F800
0E0E00
1C0700
380380
7803C0
7001C0
F001E0
F001E0
F001E0
F001E0
F001E0
F001E0
F001E0
F001E0
F001E0
7803C0
7803C0
3C0780
1E0F00
0FFE00
03F800
ENDCHAR
STARTCHAR g171
ENCODING 247
SWIDTH 667 0
DWIDTH 24 0
BBX 19 16 2 2
BITMAP
00E000
01F000
01F000
01F000
00E000
000000
000000
FFFFE0
FFFFE0
000000
000000
00E000
01F000
01F000
01F000
00E000
ENDCHAR
STARTCHAR g172
ENCODING 248
SWIDTH 639 0
DWIDTH 23 0
BBX 21 21 1 -1
BITMAP
01FC18
070730
0E03E0
1C01C0
3C01E0
3803E0
7806F0
780CF0
7818F0
7830F0
7860F0
78C0F0
7980F0
7B00F0
7E00F0
3C01E0
3C01E0
3E03C0
670780
C3FF00
00FC00
ENDCHAR
STARTCHAR g173
ENCODING 249
SWIDTH 694 0
DWIDTH 25 0
BBX 23 29 1 -1
BITMAP
078000
01C000
006000
003000
000800
000400
000000
000000
040020
3C01E0
FC07E0
3C01E0
1C00E0
1C00E0
1C00E0
1C00E0
1C00E0
1C00E0
1C00E0
1C00E0
1C00E0
1C00E0
1C00E0
1E00E0
1E01E0
0F07F0
0FFEFE
07F8FC
03E0C0
ENDCHAR
STARTCHAR g174
ENCODING 250
SWIDTH 694 0
DWIDTH 25 0
BBX 23 29 1 -1
BITMAP
000780
000E00
001800
003000
004000
008000
000000
000000
040020
3C01E0
FC07E0
3C01E0
1C00E0
1C00E0
1C00E0
1C00E0
1C00E0
1C00E0
1C00E0
1C00E0
1C00E0
1C00E0
1C00E0
1E00E0
1E01E0
0F07F0
0FFEFE
07F8FC
03E0C0
ENDCHAR
STARTCHAR g175
ENCODING 251
SWIDTH 694 0
DWIDTH 25 0
BBX 23 29 1 -1
BITMAP
003000
007800
00CC00
018600
030300
000000
000000
000000
040020
3C01E0
FC07E0
3C01E0
1C00E0
1C00E0
1C00E0
1C00E0
1C00E0
1C00E0
1C00E0
1C00E0
1C00E0
1C00E0
1C00E0
1E00E0
1E01E0
0F07F0
0FFEFE
07F8FC
03E0C0
ENDCHAR
STARTCHAR g176
ENCODING 252
SWIDTH 694 0
DWIDTH 25 0
BBX 23 27 1 -1
BITMAP
038380
038380
038380
000000
000000
000000
040020
3C01E0
FC07E0
3C01E0
1C00E0
1C00E0
1C00E0
1C00E0
1C00E0
1C00E0
1C00E0
1C00E0
1C00E0
1C00E0
1C00E0
1E00E0
1E01E0
0F07F0
0FFEFE
07F8FC
03E0C0
ENDCHAR
STARTCHAR g177
ENCODING 255
SWIDTH 639 0
DWIDTH 23 0
BBX 23 34 0 -8
BITMAP
00E1C0
00E1C0
00E1C0
000000
000000
000000
7F807E
3E003C
1E0018
0E0010
0F0030
070020
078060
038040
03C0C0
01C080
01C180
01E100
00E100
00F200
007200
007C00
003C00
003800
001800
001000
001000
002000
006000
00C000
01C000
3F8000
7F0000
FC0000
ENDCHAR
STARTCHAR g178
ENCODING 305
SWIDTH 333 0
DWIDTH 12 0
BBX 9 20 2 0
BITMAP
0400
3C00
FC00
7C00
3C00
1C00
1C00
1C00
1C00
1C00
1C00
1C00
1C00
1C00
1C00
1C00
1C00
1C00
3E00
FF80
ENDCHAR
STARTCHAR g179
ENCODING 338
SWIDTH 1111 0
DWIDTH 40 0
BBX 38 29 1 -1
BITMAP
003F800000
01E0E3FFF8
03803B8038
07001F8018
0E000F8018
1E000F8008
3C00078000
3C00078000
3800078000
7800078000
7800038020
7800038020
7800038060
F80003FFE0
F800038060
F800038020
7800038020
7800038000
7800038000
7800078000
7800078000
3C00078000
3C00078000
1E000F800C
0E000F800C
07001FC008
03803BE018
01E0F3FFF8
003F800000
ENDCHAR
STARTCHAR g180
ENCODING 339
SWIDTH 1028 0
DWIDTH 37 0
BBX 33 21 2 -1
BITMAP
03F803F000
0E0E0E1C00
1C071C0E00
3803B80600
7803F00700
7001F00300
F001F00380
F001E00380
F001FFFF80
F001E00000
F001E00000
F001E00000
F001F00000
F001F00000
F001F00000
7803F80000
7803FC0000
3C07BF0180
1E0F1FFF80
0FFE0FFE00
03F803F800
ENDCHAR
STARTCHAR g181
ENCODING 376
SWIDTH 639 0
DWIDTH 23 0
BBX 23 33 0 0
BITMAP
01C1C0
01C1C0
01C1C0
000000
000000
000000
FF807E
3E0038
1E0030
1F0030
0F0060
078040
0780C0
03C080
03C180
01E100
00E300
00F200
007E00
007C00
003C00
003C00
003C00
003C00
003C00
003C00
003C00
003C00
003C00
003C00
003C00
007E00
01FF80
ENDCHAR
STARTCHAR g182
ENCODING 402
SWIDTH 667 0
DWIDTH 24 0
BBX 19 35 4 -7
BITMAP
000F80
0031C0
0060E0
00E040
00C000
01C000
01C000
03C000
038000
038000
038000
038000
078000
FFFE00
070000
070000
0F0000
0F0000
0E0000
0E0000
0E0000
0E0000
1E0000
1C0000
1C0000
1C0000
1C0000
3C0000
380000
380000
380000
380000
780000
700000
700000
ENDCHAR
STARTCHAR g183
ENCODING 710
SWIDTH 639 0
DWIDTH 23 0
BBX 10 5 6 23
BITMAP
0C00
1E00
3300
6180
C0C0
ENDCHAR
STARTCHAR g184
ENCODING 711
SWIDTH 583 0
DWIDTH 21 0
BBX 9 5 7 23
BITMAP
C180
6300
3600
1C00
0800
ENDCHAR
STARTCHAR g185
ENCODING 728
SWIDTH 639 0
DWIDTH 23 0
BBX 9 5 7 23
BITMAP
8080
C180
E380
7F00
3E00
ENDCHAR
STARTCHAR g186
ENCODING 729
SWIDTH 639 0
DWIDTH 23 0
BBX 5 4 9 23
BITMAP
70
F8
F8
70
ENDCHAR
STARTCHAR g187
ENCODING 730
SWIDTH 639 0
DWIDTH 23 0
BBX 5 5 9 23
BITMAP
70
88
88
88
70
ENDCHAR
STARTCHAR g188
ENCODING 731
SWIDTH 556 0
DWIDTH 20 0
BBX 6 8 8 -8
BITMAP
18
30
60
C0
C0
E0
7C
18
ENDCHAR
STARTCHAR g189
ENCODING 732
SWIDTH 639 0
DWIDTH 23 0
BBX 12 4 6 23
BITMAP
3810
7E30
CFE0
83C0
ENDCHAR
STARTCHAR g190
ENCODING 733
SWIDTH 639 0
DWIDTH 23 0
BBX 9 5 8 23
BITMAP
3180
3180
6300
6300
C600
ENDCHAR
STARTCHAR g191
ENCODING 960
SWIDTH 750 0
DWIDTH 27 0
BBX 24 21 1 -1
BITMAP
0FFFFF
3FFFFF
7FFFFF
C700E0
8700E0
0700E0
0700E0
0700E0
0700E0
0700E0
0700E0
0700E0
0700E0
0700E1
0700E1
0700E1
0700E3
0700F2
0700FE
07007C
000078
ENDCHAR
STARTCHAR g192
ENCODING 8211
SWIDTH 528 0
DWIDTH 19 0
BBX 16 2 1 10
BITMAP
FFFF
FFFF
ENDCHAR
STARTCHAR g193
ENCODING 8212
SWIDTH 1028 0
DWIDTH 37 0
BBX 35 2 1 10
BITMAP
FFFFFFFFE0
FFFFFFFFE0
ENDCHAR
STARTCHAR g194
ENCODING 8216
SWIDTH 306 0
DWIDTH 11 0
BBX 5 11 3 18
BITMAP
08
18
30
60
E0
C0
C0
F0
F8
F8
70
ENDCHAR
STARTCHAR g195
ENCODING 8217
SWIDTH 306 0
DWIDTH 11 0
BBX 5 11 3 18
BITMAP
70
F8
F8
78
18
18
30
30
60
C0
80
ENDCHAR
STARTCHAR g196
ENCODING 8218
SWIDTH 306 0
DWIDTH 11 0
BBX 5 12 3 -7
BITMAP
70
F8
F8
F8
38
18
38
30
30
60
C0
80
ENDCHAR
STARTCHAR g197
ENCODING 8220
SWIDTH 528 0
DWIDTH 19 0
BBX 13 11 3 18
BITMAP
0408
0C18
1830
3060
60C0
60C0
E1C0
F1E0
F9F0
78F0
70E0
ENDCHAR
STARTCHAR g198
ENCODING 8221
SWIDTH 528 0
DWIDTH 19 0
BBX 13 11 3 18
BITMAP
78F0
F9F0
FDF8
7CF8
1C38
1830
1830
3060
60C0
C180
8100
ENDCHAR
STARTCHAR g199
ENCODING 8222
SWIDTH 528 0
DWIDTH 19 0
BBX 13 12 3 -7
BITMAP
7070
F8F8
FCF8
7DF8
3C38
1838
1830
3830
3060
6040
C080
8100
ENDCHAR
STARTCHAR g200
ENCODING 8224
SWIDTH 667 0
DWIDTH 24 0
BBX 16 34 4 -7
BITMAP
03C0
03C0
03C0
0180
0180
0180
0180
E187
FFFF
E187
0180
0180
0180
03C0
03C0
03C0
03C0
03C0
03C0
03C0
03C0
0180
0180
0180
0180
0180
0180
0180
0180
0180
0180
0180
0180
0180
ENDCHAR
STARTCHAR g201
ENCODING 8225
SWIDTH 667 0
DWIDTH 24 0
BBX 16 34 4 -7
BITMAP
03C0
03C0
03C0
0180
0180
0180
F18F
FFFF
FFFF
F18F
0180
0180
0180
0180
03C0
03C0
03C0
03C0
03C0
0180
0180
0180
0180
F18F
FFFF
FFFF
F18F
0180
0180
0180
0180
03C0
03C0
03C0
ENDCHAR
STARTCHAR g202
ENCODING 8226
SWIDTH 667 0
DWIDTH 24 0
BBX 16 15 4 6
BITMAP
07E0
1FF8
3FFC
7FFE
7FFE
FFFF
FFFF
FFFF
FFFF
FFFF
7FFE
7FFE
3FFC
1FF8
07E0
ENDCHAR
STARTCHAR g203
ENCODING 8230
SWIDTH 1028 0
DWIDTH 37 0
BBX 30 5 3 -1
BITMAP
70038038
F807C07C
F807C07C
F807C07C
70038038
ENDCHAR
STARTCHAR g204
ENCODING 8240
SWIDTH 1278 0
DWIDTH 46 0
BBX 43 27 1 0
BITMAP
0F0001C00000
39C003800000
70E003000000
606006000000
E0700C000000
E0701C000000
E07018000000
E07030000000
E07070000000
E070E0000000
E070C0000000
E07187801E00
60639CE07380
70E33870E1C0
39C63030C0C0
0F0C7039C0E0
001C7039C0E0
00187039C0E0
00307039C0E0
00707039C0E0
00607039C0E0
00C07039C0E0
01807039C0E0
03803030C0C0
03003870E1C0
06001CE07380
0E0007801E00
ENDCHAR
STARTCHAR g205
ENCODING 8249
SWIDTH 333 0
DWIDTH 12 0
BBX 9 15 1 2
BITMAP
0180
0380
0700
0E00
1C00
3800
7000
E000
7000
3800
1C00
0E00
0700
0380
0180
ENDCHAR
STARTCHAR g206
ENCODING 8250
SWIDTH 333 0
DWIDTH 12 0
BBX 9 15 2 2
BITMAP
C000
E000
7000
3800
1C00
0E00
0700
0380
0700
0E00
1C00
3800
7000
E000
C000
ENDCHAR
STARTCHAR g207
ENCODING 8260
SWIDTH 472 0
DWIDTH 17 0
BBX 22 29 -2 -1
BITMAP
00000C
00001C
000038
000030
000060
0000C0
0001C0
000180
000300
000700
000600
000C00
001800
003800
003000
006000
00E000
01C000
018000
030000
070000
060000
0C0000
180000
380000
300000
600000
E00000
C00000
ENDCHAR
STARTCHAR g208
ENCODING 8482
SWIDTH 889 0
DWIDTH 32 0
BBX 28 13 2 14
BITMAP
FFE78070
CE638060
8E23C0E0
0E03C0E0
0E036160
0E036160
0E033260
0E033260
0E031C60
0E031C60
0E030860
0E030860
1F0780F0
ENDCHAR
STARTCHAR g209
ENCODING 8486
SWIDTH 889 0
DWIDTH 32 0
BBX 28 28 2 0
BITMAP
003FC000
00E07000
03801C00
07000E00
0E000700
1E000700
1C000380
3C0003C0
380003C0
380001C0
780001E0
780001E0
780001E0
780001E0
780001E0
780001E0
380001C0
380001C0
3C0003C0
1C000380
0C000700
06000600
03000C00
81801810
C0C03030
FFE07FF0
FFE07FF0
FFE07FF0
ENDCHAR
STARTCHAR g210
ENCODING 8706
SWIDTH 639 0
DWIDTH 23 0
BBX 21 29 1 -1
BITMAP
01F000
003C00
000F00
000780
0003C0
0001C0
0000E0
0000E0
007EF0
01E1F0
0380F8
0F0078
0E0078
1C0078
3C0078
380078
780078
780078
780078
7000F0
7000F0
F000F0
7001E0
7801E0
7803C0
3C0780
1E1F00
0FFC00
03F000
ENDCHAR
STARTCHAR g211
ENCODING 8710
SWIDTH 806 0
DWIDTH 29 0
BBX 25 28 2 0
BITMAP
00080000
00180000
001C0000
003C0000
003E0000
007E0000
004F0000
00CF0000
00878000
01878000
0103C000
0303C000
0201E000
0601E000
0600F000
0C00F000
0C007800
18007800
18003C00
10003C00
30001E00
20001E00
60000F00
40000F00
C0000780
FFFFFF80
FFFFFF80
FFFFFF80
ENDCHAR
STARTCHAR g212
ENCODING 8719
SWIDTH 806 0
DWIDTH 29 0
BBX 25 34 2 -7
BITMAP
FFFFFF80
3C001E00
1C001C00
1C001C00
1C001C00
1C001C00
1C001C00
1C001C00
1C001C00
1C001C00
1C001C00
1C001C00
1C001C00
1C001C00
1C001C00
1C001C00
1C001C00
1C001C00
1C001C00
1C001C00
1C001C00
1C001C00
1C001C00
1C001C00
1C001C00
1C001C00
1C001C00
1C001C00
1C001C00
1C001C00
1C001C00
1C001C00
3E003E00
FF80FF80
ENDCHAR
STARTCHAR g213
ENCODING 8721
SWIDTH 639 0
DWIDTH 23 0
BBX 20 34 1 -7
BITMAP
7FFFE0
7C0060
3C0060
3E0020
1F0020
0F0000
0F8000
07C000
03C000
03E000
01F000
00F000
00F800
007C00
003C00
003800
007000
006000
00E000
01C000
018000
038000
070000
060000
0E0000
1C0000
1C0000
380010
300030
700030
E00070
FFFFF0
FFFFF0
FFFFF0
ENDCHAR
STARTCHAR g214
ENCODING 8730
SWIDTH 889 0
DWIDTH 32 0
BBX 28 36 2 -7
BITMAP
00000010
00000030
00000030
00000020
00000060
00000060
000000C0
000000C0
000000C0
00000180
00000180
00000100
00000300
00000300
00000200
00000600
06000600
0E000400
3F000C00
F7000C00
43800800
03801800
01C01800
01C01000
00E03000
00E03000
00702000
00706000
00386000
003C4000
001CC000
001EC000
000E8000
00078000
00078000
00030000
ENDCHAR
STARTCHAR g215
ENCODING 8734
SWIDTH 667 0
DWIDTH 24 0
BBX 20 11 2 4
BITMAP
1E03C0
3F0C60
639820
41D030
C0E030
C07030
C0F830
C1BC60
631FE0
7E0FC0
3C0780
ENDCHAR
STARTCHAR g216
ENCODING 8747
SWIDTH 528 0
DWIDTH 19 0
BBX 17 35 1 -7
BITMAP
001E00
002300
006780
004780
00C700
00C000
00C000
00C000
01C000
01C000
01C000
01C000
01C000
01C000
01C000
01C000
01C000
01C000
01C000
01C000
01C000
01C000
01C000
01C000
01C000
01C000
01C000
01C000
01C000
018000
718000
718000
F10000
620000
3C0000
ENDCHAR
STARTCHAR g217
ENCODING 8776
SWIDTH 667 0
DWIDTH 24 0
BBX 20 14 2 3
BITMAP
1E0000
3F8030
7FC030
61F030
C07C60
C03FC0
C00780
1E0000
3F8030
63C030
40F030
C03C60
C01FC0
000780
ENDCHAR
STARTCHAR g218
ENCODING 8800
SWIDTH 667 0
DWIDTH 24 0
BBX 20 15 2 2
BITMAP
000180
000300
000600
000C00
FFFFF0
FFFFF0
003000
006000
00C000
FFFFF0
FFFFF0
030000
060000
0C0000
180000
ENDCHAR
STARTCHAR g219
ENCODING 8804
SWIDTH 667 0
DWIDTH 24 0
BBX 20 23 2 0
BITMAP
000010
000070
0001E0
000780
001E00
00F800
03E000
0F8000
3C0000
F00000
3C0000
0F8000
03E000
00F800
001E00
000780
0001E0
000070
000010
000000
000000
FFFFF0
FFFFF0
ENDCHAR
STARTCHAR g220
ENCODING 8805
SWIDTH 667 0
DWIDTH 24 0
BBX 20 23 2 0
BITMAP
800000
E00000
780000
1E0000
078000
01F000
007C00
001F00
0003C0
0000F0
0003C0
001F00
007C00
01F000
078000
1E0000
780000
E00000
800000
000000
000000
FFFFF0
FFFFF0
ENDCHAR
STARTCHAR g221
ENCODING 9674
SWIDTH 667 0
DWIDTH 24 0
BBX 20 25 2 1
BITMAP
006000
00F000
01F800
019800
030C00
060E00
060600
0C0300
180180
3801C0
3000C0
600060
E00070
600060
3000C0
3801C0
180180
0C0300
060600
060E00
030C00
019800
01F800
00F000
006000
ENDCHAR
STARTCHAR g222
ENCODING 63252
SWIDTH 667 0
DWIDTH 24 0
BBX 20 29 2 -1
BITMAP
01F800
070E00
0C0300
1C0380
3801C0
3801C0
7000E0
7000E0
F000F0
F000F0
F000F0
F000F0
F000F0
E0F070
E0F070
E0F070
E000F0
F000F0
F000F0
F000F0
F000F0
7000E0
7000E0
3801C0
3801C0
1C0380
0C0300
070E00
01F800
ENDCHAR
STARTCHAR g223
ENCODING 63253
SWIDTH 361 0
DWIDTH 13 0
BBX 9 27 2 0
BITMAP
FF80
3E00
1C00
1C00
1C00
1C00
1C00
1C00
1C00
1C00
1C00
1C00
1C00
1C00
1C00
1C00
1C00
1C00
1C00
1C00
1C00
1C00
1C00
1C00
1C00
3E00
FF80
ENDCHAR
STARTCHAR g224
ENCODING 63254
SWIDTH 333 0
DWIDTH 12 0
BBX 10 29 1 0
BITMAP
FE00
3E00
1E00
1E00
1E00
1E00
1E00
1E00
1E00
1E00
1E00
1E00
1E00
1E00
1E00
1E00
1E00
1E00
1E00
1E00
1E00
1E00
1E00
1E00
1E00
1E00
1E00
3F00
FFC0
ENDCHAR
STARTCHAR g225
ENCODING 63487
SWIDTH 778 0
DWIDTH 28 0
BBX 0 0 0 0
BITMAP
ENDCHAR
STARTCHAR g226
ENCODING 64257
SWIDTH 694 0
DWIDTH 25 0
BBX 22 29 1 0
BITMAP
01F800
071E00
0E0E00
0E0C00
1C0800
1C0000
1C0000
1C0000
1C0000
FFFFE0
FFFFE0
1C00E0
1C00E0
1C00E0
1C00E0
1C00E0
1C00E0
1C00E0
1C00E0
1C00E0
1C00E0
1C00E0
1C00E0
1C00E0
1C00E0
1C00E0
1C00E0
3E01F0
FF87FC
ENDCHAR
STARTCHAR g227
ENCODING 64258
SWIDTH 694 0
DWIDTH 25 0
BBX 22 29 1 0
BITMAP
01FC20
070FE0
0E03E0
0E01E0
0C00E0
1C00E0
1C00E0
1C00E0
1C00E0
FFF0E0
FFF0E0
1C00E0
1C00E0
1C00E0
1C00E0
1C00E0
1C00E0
1C00E0
1C00E0
1C00E0
1C00E0
1C00E0
1C00E0
1C00E0
1C00E0
1C00E0
1C00E0
3E01F0
FF87FC
ENDCHAR
STARTCHAR g228
ENCODING 64512
SWIDTH 472 0
DWIDTH 17 0
BBX 16 24 0 0
BITMAP
FFFF
8001
8001
8001
8001
8001
8001
8001
8001
8001
8001
8001
8001
8001
8001
8001
8001
8001
8001
8001
8001
8001
8001
FFFF
ENDCHAR
STARTCHAR g229
ENCODING 64513
SWIDTH 472 0
DWIDTH 17 0
BBX 16 24 0 0
BITMAP
FFFF
8001
8001
8001
8001
8001
8001
8001
8001
8001
8001
8001
8001
8001
8001
8001
8001
8001
8001
8001
8001
8001
8001
FFFF
ENDCHAR
STARTCHAR g230
ENCODING 64514
SWIDTH 472 0
DWIDTH 17 0
BBX 16 24 0 0
BITMAP
FFFF
8001
8001
8001
8001
8001
8001
8001
8001
8001
8001
8001
8001
8001
8001
8001
8001
8001
8001
8001
8001
8001
8001
FFFF
ENDCHAR
STARTCHAR g231
ENCODING 64515
SWIDTH 472 0
DWIDTH 17 0
BBX 16 24 0 0
BITMAP
FFFF
8001
8001
8001
8001
8001
8001
8001
8001
8001
8001
8001
8001
8001
8001
8001
8001
8001
8001
8001
8001
8001
8001
FFFF
ENDCHAR
STARTCHAR g232
ENCODING 64516
SWIDTH 472 0
DWIDTH 17 0
BBX 16 24 0 0
BITMAP
FFFF
8001
8001
8001
8001
8001
8001
8001
8001
8001
8001
8001
8001
8001
8001
8001
8001
8001
8001
8001
8001
8001
8001
FFFF
ENDCHAR
STARTCHAR g233
ENCODING 64517
SWIDTH 472 0
DWIDTH 17 0
BBX 16 24 0 0
BITMAP
FFFF
8001
8001
8001
8001
8001
8001
8001
8001
8001
8001
8001
8001
8001
8001
8001
8001
8001
8001
8001
8001
8001
8001
FFFF
ENDCHAR
STARTCHAR g234
ENCODING 64518
SWIDTH 472 0
DWIDTH 17 0
BBX 16 24 0 0
BITMAP
FFFF
8001
8001
8001
8001
8001
8001
8001
8001
8001
8001
8001
8001
8001
8001
8001
8001
8001
8001
8001
8001
8001
8001
FFFF
ENDCHAR
STARTCHAR g235
ENCODING 64519
SWIDTH 472 0
DWIDTH 17 0
BBX 16 24 0 0
BITMAP
FFFF
8001
8001
8001
8001
8001
8001
8001
8001
8001
8001
8001
8001
8001
8001
8001
8001
8001
8001
8001
8001
8001
8001
FFFF
ENDCHAR
STARTCHAR g236
ENCODING 64520
SWIDTH 472 0
DWIDTH 17 0
BBX 16 24 0 0
BITMAP
FFFF
8001
8001
8001
8001
8001
8001
8001
8001
8001
8001
8001
8001
8001
8001
8001
8001
8001
8001
8001
8001
8001
8001
FFFF
ENDCHAR
STARTCHAR g237
ENCODING 64521
SWIDTH 472 0
DWIDTH 17 0
BBX 16 24 0 0
BITMAP
FFFF
8001
8001
8001
8001
8001
8001
8001
8001
8001
8001
8001
8001
8001
8001
8001
8001
8001
8001
8001
8001
8001
8001
FFFF
ENDCHAR
STARTCHAR g238
ENCODING 64522
SWIDTH 472 0
DWIDTH 17 0
BBX 16 24 0 0
BITMAP
FFFF
8001
8001
8001
8001
8001
8001
8001
8001
8001
8001
8001
8001
8001
8001
8001
8001
8001
8001
8001
8001
8001
8001
FFFF
ENDCHAR
STARTCHAR g239
ENCODING 64523
SWIDTH 472 0
DWIDTH 17 0
BBX 16 24 0 0
BITMAP
FFFF
8001
8001
8001
8001
8001
8001
8001
8001
8001
8001
8001
8001
8001
8001
8001
8001
8001
8001
8001
8001
8001
8001
FFFF
ENDCHAR
STARTCHAR g240
ENCODING 64524
SWIDTH 472 0
DWIDTH 17 0
BBX 16 24 0 0
BITMAP
FFFF
8001
8001
8001
8001
8001
8001
8001
8001
8001
8001
8001
8001
8001
8001
8001
8001
8001
8001
8001
8001
8001
8001
FFFF
ENDCHAR
STARTCHAR g241
ENCODING 64525
SWIDTH 472 0
DWIDTH 17 0
BBX 16 24 0 0
BITMAP
FFFF
8001
8001
8001
8001
8001
8001
8001
8001
8001
8001
8001
8001
8001
8001
8001
8001
8001
8001
8001
8001
8001
8001
FFFF
ENDCHAR
STARTCHAR g242
ENCODING 64526
SWIDTH 472 0
DWIDTH 17 0
BBX 16 24 0 0
BITMAP
FFFF
8001
8001
8001
8001
8001
8001
8001
8001
8001
8001
8001
8001
8001
8001
8001
8001
8001
8001
8001
8001
8001
8001
FFFF
ENDCHAR
STARTCHAR g243
ENCODING 64527
SWIDTH 472 0
DWIDTH 17 0
BBX 16 24 0 0
BITMAP
FFFF
8001
8001
8001
8001
8001
8001
8001
8001
8001
8001
8001
8001
8001
8001
8001
8001
8001
8001
8001
8001
8001
8001
FFFF
ENDCHAR
ENDFONT
