STARTFONT 2.1
COMMENT Strike 5 of a Newton 'sfnt' font (bloc/bdat): tools/fonts/newtonsfnt.py,
COMMENT tools/fonts/README.md.  The builder reads the BLOC_* properties and the
COMMENT glyphs - STARTCHAR gN (N the glyph id; otherwise ENCODING through 'cmap'),
COMMENT DWIDTH (the advance), BBX (width, height, the bearing x, the bottom row's
COMMENT y: bearing y less the height) and the BITMAP rows.  A glyph id in the
COMMENT subtable ranges with no glyph here has no image (the missing glyph is 0).
COMMENT The other properties, SIZE, FONTBOUNDINGBOX and SWIDTH are worked out and
COMMENT not read back: change BLOC_HORI_* (the line metrics the ROM draws text by)
COMMENT to match an edit that changes the strike's extent.
FONT -Apple-Roman Regular-Medium-R-Normal--16-160-72-72-P-0-Apple-Roman
SIZE 16 72 72
FONTBOUNDINGBOX 20 20 -2 -4
STARTPROPERTIES 37
FONT_ASCENT 16
FONT_DESCENT 5
PIXEL_SIZE 16
FAMILY_NAME "Roman Regular"
BLOC_COLOR_REF 0
BLOC_HORI_ASCENDER 16
BLOC_HORI_DESCENDER -5
BLOC_HORI_WIDTH_MAX 19
BLOC_HORI_CARET_SLOPE_NUMERATOR 0
BLOC_HORI_CARET_SLOPE_DENOMINATOR 1
BLOC_HORI_CARET_OFFSET 0
BLOC_HORI_MIN_ORIGIN_SB -2
BLOC_HORI_MIN_ADVANCE_SB -1
BLOC_HORI_MAX_BEFORE_BL 16
BLOC_HORI_MIN_AFTER_BL -4
BLOC_HORI_PAD1 0
BLOC_HORI_PAD2 0
BLOC_VERT_ASCENDER 0
BLOC_VERT_DESCENDER -1
BLOC_VERT_WIDTH_MAX 20
BLOC_VERT_CARET_SLOPE_NUMERATOR 0
BLOC_VERT_CARET_SLOPE_DENOMINATOR 1
BLOC_VERT_CARET_OFFSET 0
BLOC_VERT_MIN_ORIGIN_SB -44
BLOC_VERT_MIN_ADVANCE_SB 36
BLOC_VERT_MAX_BEFORE_BL 0
BLOC_VERT_MIN_AFTER_BL -17
BLOC_VERT_PAD1 0
BLOC_VERT_PAD2 0
BLOC_START_GLYPH 0
BLOC_END_GLYPH 257
BLOC_PPEM_X 16
BLOC_PPEM_Y 16
BLOC_BIT_DEPTH 1
BLOC_FLAGS 1
BLOC_INDEX_SUBTABLES 1
BLOC_INDEX_SUBTABLE_0 "0 257 3 1 0"
ENDPROPERTIES
CHARS 244
STARTCHAR g0
ENCODING -1
SWIDTH 625 0
DWIDTH 10 0
BBX 8 12 0 0
BITMAP
FF
81
81
81
81
81
81
81
81
81
81
FF
ENDCHAR
STARTCHAR g1
ENCODING 0
SWIDTH 0 0
DWIDTH 0 0
BBX 0 0 0 0
BITMAP
ENDCHAR
STARTCHAR g2
ENCODING 1
SWIDTH 250 0
DWIDTH 4 0
BBX 0 0 0 0
BITMAP
ENDCHAR
STARTCHAR g3
ENCODING 2
SWIDTH 312 0
DWIDTH 5 0
BBX 3 12 1 0
BITMAP
E0
E0
E0
E0
E0
E0
E0
E0
E0
00
E0
E0
ENDCHAR
STARTCHAR g4
ENCODING 3
SWIDTH 562 0
DWIDTH 9 0
BBX 7 5 1 8
BITMAP
EE
EE
EE
66
22
ENDCHAR
STARTCHAR g5
ENCODING 4
SWIDTH 938 0
DWIDTH 15 0
BBX 13 11 1 0
BITMAP
0E70
0E70
1CE0
7FF8
1CE0
1CE0
39C0
FFF0
39C0
7380
7380
ENDCHAR
STARTCHAR g6
ENCODING 5
SWIDTH 562 0
DWIDTH 9 0
BBX 7 15 1 -2
BITMAP
18
18
7E
E0
E0
F0
F8
7C
3E
1E
0E
0E
FC
30
30
ENDCHAR
STARTCHAR g7
ENCODING 6
SWIDTH 812 0
DWIDTH 13 0
BBX 11 11 1 0
BITMAP
7060
D8E0
D9C0
DB80
7700
0E00
1DC0
3B60
7360
E360
C1C0
ENDCHAR
STARTCHAR g8
ENCODING 7
SWIDTH 938 0
DWIDTH 15 0
BBX 14 12 1 0
BITMAP
3FC0
79E0
79E0
7BC0
3F80
3F00
7FB8
F3F0
F1E0
F1F0
FBF8
7F3C
ENDCHAR
STARTCHAR g9
ENCODING 8
SWIDTH 312 0
DWIDTH 5 0
BBX 3 5 1 8
BITMAP
E0
E0
E0
60
20
ENDCHAR
STARTCHAR g10
ENCODING 9
SWIDTH 438 0
DWIDTH 7 0
BBX 5 15 1 -2
BITMAP
18
30
70
60
E0
E0
E0
E0
E0
E0
E0
60
70
30
18
ENDCHAR
STARTCHAR g11
ENCODING 10
SWIDTH 438 0
DWIDTH 7 0
BBX 5 15 1 -2
BITMAP
C0
60
70
30
38
38
38
38
38
38
38
30
70
60
C0
ENDCHAR
STARTCHAR g12
ENCODING 11
SWIDTH 438 0
DWIDTH 7 0
BBX 5 6 1 7
BITMAP
20
A8
70
70
A8
20
ENDCHAR
STARTCHAR g13
ENCODING 12
SWIDTH 625 0
DWIDTH 10 0
BBX 8 8 1 2
BITMAP
18
18
18
FF
FF
18
18
18
ENDCHAR
STARTCHAR g14
ENCODING 44
SWIDTH 312 0
DWIDTH 5 0
BBX 3 4 1 -2
BITMAP
E0
E0
60
C0
ENDCHAR
STARTCHAR g15
ENCODING 45
SWIDTH 562 0
DWIDTH 9 0
BBX 7 2 1 5
BITMAP
FE
FE
ENDCHAR
STARTCHAR g16
ENCODING 46
SWIDTH 312 0
DWIDTH 5 0
BBX 3 2 1 0
BITMAP
E0
E0
ENDCHAR
STARTCHAR g17
ENCODING 47
SWIDTH 625 0
DWIDTH 10 0
BBX 10 14 0 -2
BITMAP
01C0
0380
0380
0700
0700
0E00
0E00
1C00
1C00
3800
3800
7000
7000
E000
ENDCHAR
STARTCHAR g18
ENCODING 48
SWIDTH 688 0
DWIDTH 11 0
BBX 10 12 1 0
BITMAP
3F00
7380
F3C0
F3C0
F3C0
F3C0
F3C0
F3C0
F3C0
F3C0
7380
3F00
ENDCHAR
STARTCHAR g19
ENCODING 49
SWIDTH 688 0
DWIDTH 11 0
BBX 7 12 1 0
BITMAP
1E
3E
7E
DE
1E
1E
1E
1E
1E
1E
1E
1E
ENDCHAR
STARTCHAR g20
ENCODING 50
SWIDTH 688 0
DWIDTH 11 0
BBX 9 12 1 0
BITMAP
7F00
EF80
C780
0780
0780
0F00
1E00
3C00
7800
F000
FF80
FF80
ENDCHAR
STARTCHAR g21
ENCODING 51
SWIDTH 688 0
DWIDTH 11 0
BBX 10 12 1 0
BITMAP
7F00
E780
C3C0
03C0
0780
1F00
0700
0380
03C0
C3C0
E7C0
7F80
ENDCHAR
STARTCHAR g22
ENCODING 52
SWIDTH 688 0
DWIDTH 11 0
BBX 10 12 1 0
BITMAP
0780
0F80
1F80
3780
6780
C780
C780
FFC0
0780
0780
0780
0780
ENDCHAR
STARTCHAR g23
ENCODING 53
SWIDTH 688 0
DWIDTH 11 0
BBX 9 12 1 0
BITMAP
FF00
FF00
C000
C000
C000
FF00
0F80
0780
0780
0780
CF00
7E00
ENDCHAR
STARTCHAR g24
ENCODING 54
SWIDTH 688 0
DWIDTH 11 0
BBX 10 12 1 0
BITMAP
1E00
3800
7000
F000
FF00
F380
F3C0
F3C0
F3C0
F3C0
7380
3F00
ENDCHAR
STARTCHAR g25
ENCODING 55
SWIDTH 625 0
DWIDTH 10 0
BBX 9 12 1 0
BITMAP
FF80
FF80
0780
0700
0E00
1E00
3C00
3C00
7800
7800
7800
7800
ENDCHAR
STARTCHAR g26
ENCODING 56
SWIDTH 688 0
DWIDTH 11 0
BBX 10 12 1 0
BITMAP
7F80
F3C0
F3C0
F3C0
F3C0
7F80
F3C0
F3C0
F3C0
F3C0
F3C0
7F80
ENDCHAR
STARTCHAR g27
ENCODING 57
SWIDTH 688 0
DWIDTH 11 0
BBX 10 12 1 0
BITMAP
3F00
7380
F3C0
F3C0
F3C0
F3C0
73C0
3FC0
03C0
0380
0700
1E00
ENDCHAR
STARTCHAR g28
ENCODING 58
SWIDTH 312 0
DWIDTH 5 0
BBX 3 8 1 0
BITMAP
E0
E0
00
00
00
00
E0
E0
ENDCHAR
STARTCHAR g29
ENCODING 59
SWIDTH 312 0
DWIDTH 5 0
BBX 3 10 1 -2
BITMAP
E0
E0
00
00
00
00
E0
E0
60
C0
ENDCHAR
STARTCHAR g30
ENCODING 60
SWIDTH 750 0
DWIDTH 12 0
BBX 10 7 1 2
BITMAP
03C0
0F00
3C00
F000
3C00
0F00
03C0
ENDCHAR
STARTCHAR g31
ENCODING 61
SWIDTH 688 0
DWIDTH 11 0
BBX 9 5 1 3
BITMAP
FF80
FF80
0000
FF80
FF80
ENDCHAR
STARTCHAR g32
ENCODING 62
SWIDTH 750 0
DWIDTH 12 0
BBX 10 7 1 2
BITMAP
F000
3C00
0F00
03C0
0F00
3C00
F000
ENDCHAR
STARTCHAR g33
ENCODING 63
SWIDTH 500 0
DWIDTH 8 0
BBX 7 12 0 0
BITMAP
FC
1E
0E
0E
1E
3C
78
70
70
00
70
70
ENDCHAR
STARTCHAR g34
ENCODING 64
SWIDTH 938 0
DWIDTH 15 0
BBX 13 10 1 0
BITMAP
1F80
39E0
6070
E738
EDB8
EDB8
E6F0
7000
3800
0F80
ENDCHAR
STARTCHAR g35
ENCODING 65
SWIDTH 812 0
DWIDTH 13 0
BBX 13 12 0 0
BITMAP
0780
0780
0FC0
0BC0
1BC0
11E0
31E0
20F0
7FF0
40F0
C078
C078
ENDCHAR
STARTCHAR g36
ENCODING 66
SWIDTH 812 0
DWIDTH 13 0
BBX 11 12 1 0
BITMAP
FF80
F3C0
F1C0
F1C0
F380
FF00
F3C0
F1E0
F1E0
F1E0
F3E0
FFC0
ENDCHAR
STARTCHAR g37
ENCODING 67
SWIDTH 750 0
DWIDTH 12 0
BBX 10 12 1 0
BITMAP
1FC0
7C00
7800
F000
F000
F000
F000
F000
F000
7800
7C00
1FC0
ENDCHAR
STARTCHAR g38
ENCODING 68
SWIDTH 875 0
DWIDTH 14 0
BBX 12 12 1 0
BITMAP
FF80
F3E0
F1E0
F0F0
F0F0
F0F0
F0F0
F0F0
F0F0
F1E0
F3E0
FF80
ENDCHAR
STARTCHAR g39
ENCODING 69
SWIDTH 688 0
DWIDTH 11 0
BBX 9 12 1 0
BITMAP
FF80
F000
F000
F000
F000
FF00
F000
F000
F000
F000
F000
FF80
ENDCHAR
STARTCHAR g40
ENCODING 70
SWIDTH 625 0
DWIDTH 10 0
BBX 9 12 1 0
BITMAP
FF80
F000
F000
F000
F000
FF00
F000
F000
F000
F000
F000
F000
ENDCHAR
STARTCHAR g41
ENCODING 71
SWIDTH 875 0
DWIDTH 14 0
BBX 12 12 1 0
BITMAP
1FE0
7C00
7800
F000
F000
F000
F1F0
F0F0
F0F0
78F0
7CF0
1FF0
ENDCHAR
STARTCHAR g42
ENCODING 72
SWIDTH 875 0
DWIDTH 14 0
BBX 12 12 1 0
BITMAP
F0F0
F0F0
F0F0
F0F0
F0F0
FFF0
F0F0
F0F0
F0F0
F0F0
F0F0
F0F0
ENDCHAR
STARTCHAR g43
ENCODING 73
SWIDTH 375 0
DWIDTH 6 0
BBX 4 12 1 0
BITMAP
F0
F0
F0
F0
F0
F0
F0
F0
F0
F0
F0
F0
ENDCHAR
STARTCHAR g44
ENCODING 74
SWIDTH 562 0
DWIDTH 9 0
BBX 8 12 0 0
BITMAP
0F
0F
0F
0F
0F
0F
0F
0F
0F
0F
1F
FE
ENDCHAR
STARTCHAR g45
ENCODING 75
SWIDTH 812 0
DWIDTH 13 0
BBX 12 12 1 0
BITMAP
F0E0
F1C0
F380
F700
FE00
FC00
FE00
FF00
F780
F3C0
F1E0
F0F0
ENDCHAR
STARTCHAR g46
ENCODING 76
SWIDTH 625 0
DWIDTH 10 0
BBX 9 12 1 0
BITMAP
F000
F000
F000
F000
F000
F000
F000
F000
F000
F000
F000
FF80
ENDCHAR
STARTCHAR g47
ENCODING 77
SWIDTH 1125 0
DWIDTH 18 0
BBX 16 12 1 0
BITMAP
F00F
F81F
F81F
FC3F
DC2F
DE6F
CE4F
CFCF
C78F
C78F
C30F
C30F
ENDCHAR
STARTCHAR g48
ENCODING 78
SWIDTH 812 0
DWIDTH 13 0
BBX 11 12 1 0
BITMAP
E060
F060
F860
FC60
FE60
DF60
CFE0
C7E0
C3E0
C1E0
C0E0
C060
ENDCHAR
STARTCHAR g49
ENCODING 79
SWIDTH 938 0
DWIDTH 15 0
BBX 13 12 1 0
BITMAP
1FC0
78F0
78F0
F078
F078
F078
F078
F078
F078
78F0
78F0
1FC0
ENDCHAR
STARTCHAR g50
ENCODING 80
SWIDTH 750 0
DWIDTH 12 0
BBX 11 12 1 0
BITMAP
FF80
F3C0
F1E0
F1E0
F1E0
F1E0
F3C0
FF80
F000
F000
F000
F000
ENDCHAR
STARTCHAR g51
ENCODING 81
SWIDTH 938 0
DWIDTH 15 0
BBX 13 15 1 -3
BITMAP
1FC0
78F0
78F0
F078
F078
F078
F078
F078
F078
78F0
78F0
1FC0
0780
03C0
00F0
ENDCHAR
STARTCHAR g52
ENCODING 82
SWIDTH 812 0
DWIDTH 13 0
BBX 12 12 1 0
BITMAP
FF80
F3C0
F1E0
F1E0
F1E0
F3C0
FF80
FF00
F780
F3C0
F1E0
F0F0
ENDCHAR
STARTCHAR g53
ENCODING 83
SWIDTH 688 0
DWIDTH 11 0
BBX 9 12 1 0
BITMAP
3F00
7000
F000
F800
FE00
7F00
3F80
0F80
0780
0780
0F00
FE00
ENDCHAR
STARTCHAR g54
ENCODING 84
SWIDTH 625 0
DWIDTH 10 0
BBX 10 12 0 0
BITMAP
FFC0
1E00
1E00
1E00
1E00
1E00
1E00
1E00
1E00
1E00
1E00
1E00
ENDCHAR
STARTCHAR g55
ENCODING 85
SWIDTH 812 0
DWIDTH 13 0
BBX 11 12 1 0
BITMAP
F060
F060
F060
F060
F060
F060
F060
F060
F060
F060
78C0
3F80
ENDCHAR
STARTCHAR g56
ENCODING 86
SWIDTH 750 0
DWIDTH 12 0
BBX 12 12 0 0
BITMAP
F030
F030
7820
7860
7C60
3C40
3CC0
1E80
1F80
1F80
0F00
0F00
ENDCHAR
STARTCHAR g57
ENCODING 87
SWIDTH 1125 0
DWIDTH 18 0
BBX 18 12 0 0
BITMAP
F060C0
F060C0
F0F0C0
78F080
78F980
79F980
3DFD00
3D3D00
3F3F00
1E1E00
1E1E00
1E1E00
ENDCHAR
STARTCHAR g58
ENCODING 88
SWIDTH 750 0
DWIDTH 12 0
BBX 12 12 0 0
BITMAP
F070
F870
78E0
3CC0
3F80
1F00
0F80
1FC0
33C0
71E0
E1F0
E0F0
ENDCHAR
STARTCHAR g59
ENCODING 89
SWIDTH 750 0
DWIDTH 12 0
BBX 12 12 0 0
BITMAP
F030
F030
7860
3CC0
3D80
1F00
0F00
0F00
0F00
0F00
0F00
0F00
ENDCHAR
STARTCHAR g60
ENCODING 90
SWIDTH 750 0
DWIDTH 12 0
BBX 10 12 1 0
BITMAP
FFC0
03C0
03C0
0780
0F00
1E00
3E00
3C00
7800
F000
F000
FFC0
ENDCHAR
STARTCHAR g61
ENCODING 91
SWIDTH 438 0
DWIDTH 7 0
BBX 5 15 1 -2
BITMAP
F8
E0
E0
E0
E0
E0
E0
E0
E0
E0
E0
E0
E0
E0
F8
ENDCHAR
STARTCHAR g62
ENCODING 92
SWIDTH 500 0
DWIDTH 8 0
BBX 8 12 0 0
BITMAP
E0
E0
70
70
38
38
1C
1C
0E
0E
07
07
ENDCHAR
STARTCHAR g63
ENCODING 93
SWIDTH 438 0
DWIDTH 7 0
BBX 5 15 1 -2
BITMAP
F8
38
38
38
38
38
38
38
38
38
38
38
38
38
F8
ENDCHAR
STARTCHAR g64
ENCODING 94
SWIDTH 562 0
DWIDTH 9 0
BBX 7 8 1 4
BITMAP
10
10
38
38
6C
6C
C6
C6
ENDCHAR
STARTCHAR g65
ENCODING 95
SWIDTH 750 0
DWIDTH 12 0
BBX 12 2 0 -2
BITMAP
FFF0
FFF0
ENDCHAR
STARTCHAR g66
ENCODING 96
SWIDTH 438 0
DWIDTH 7 0
BBX 6 3 1 9
BITMAP
F0
38
0C
ENDCHAR
STARTCHAR g67
ENCODING 97
SWIDTH 750 0
DWIDTH 12 0
BBX 10 9 1 0
BITMAP
7F80
07C0
03C0
7FC0
F3C0
F3C0
F3C0
F7C0
7BC0
ENDCHAR
STARTCHAR g68
ENCODING 98
SWIDTH 750 0
DWIDTH 12 0
BBX 10 12 1 0
BITMAP
F000
F000
F000
F780
FFC0
F3C0
F3C0
F3C0
F3C0
F3C0
F380
FF00
ENDCHAR
STARTCHAR g69
ENCODING 99
SWIDTH 625 0
DWIDTH 10 0
BBX 8 9 1 0
BITMAP
3F
78
F0
F0
F0
F0
F0
78
3F
ENDCHAR
STARTCHAR g70
ENCODING 100
SWIDTH 750 0
DWIDTH 12 0
BBX 10 12 1 0
BITMAP
03C0
03C0
03C0
3FC0
73C0
F3C0
F3C0
F3C0
F3C0
F3C0
FFC0
79C0
ENDCHAR
STARTCHAR g71
ENCODING 101
SWIDTH 750 0
DWIDTH 12 0
BBX 10 9 1 0
BITMAP
3F00
7380
F3C0
F3C0
FFC0
F000
F000
7800
3FC0
ENDCHAR
STARTCHAR g72
ENCODING 102
SWIDTH 438 0
DWIDTH 7 0
BBX 8 12 0 0
BITMAP
3F
78
78
FE
78
78
78
78
78
78
78
78
ENDCHAR
STARTCHAR g73
ENCODING 103
SWIDTH 750 0
DWIDTH 12 0
BBX 10 13 1 -4
BITMAP
3FC0
73C0
F3C0
F3C0
F3C0
F3C0
F3C0
FFC0
7BC0
03C0
03C0
0780
7F00
ENDCHAR
STARTCHAR g74
ENCODING 104
SWIDTH 750 0
DWIDTH 12 0
BBX 10 12 1 0
BITMAP
F000
F000
F000
F780
FFC0
F3C0
F3C0
F3C0
F3C0
F3C0
F3C0
F3C0
ENDCHAR
STARTCHAR g75
ENCODING 105
SWIDTH 375 0
DWIDTH 6 0
BBX 4 12 1 0
BITMAP
F0
F0
00
F0
F0
F0
F0
F0
F0
F0
F0
F0
ENDCHAR
STARTCHAR g76
ENCODING 106
SWIDTH 375 0
DWIDTH 6 0
BBX 7 16 -2 -4
BITMAP
1E
1E
00
1E
1E
1E
1E
1E
1E
1E
1E
1E
1E
1E
3C
F8
ENDCHAR
STARTCHAR g77
ENCODING 107
SWIDTH 750 0
DWIDTH 12 0
BBX 11 12 1 0
BITMAP
F000
F000
F000
F1C0
F380
F700
FE00
FF00
F780
F3C0
F1E0
F0E0
ENDCHAR
STARTCHAR g78
ENCODING 108
SWIDTH 375 0
DWIDTH 6 0
BBX 4 12 1 0
BITMAP
F0
F0
F0
F0
F0
F0
F0
F0
F0
F0
F0
F0
ENDCHAR
STARTCHAR g79
ENCODING 109
SWIDTH 1125 0
DWIDTH 18 0
BBX 16 9 1 0
BITMAP
F79E
FFFF
F3CF
F3CF
F3CF
F3CF
F3CF
F3CF
F3CF
ENDCHAR
STARTCHAR g80
ENCODING 110
SWIDTH 750 0
DWIDTH 12 0
BBX 10 9 1 0
BITMAP
F780
FFC0
F3C0
F3C0
F3C0
F3C0
F3C0
F3C0
F3C0
ENDCHAR
STARTCHAR g81
ENCODING 111
SWIDTH 750 0
DWIDTH 12 0
BBX 10 9 1 0
BITMAP
3F00
7380
F3C0
F3C0
F3C0
F3C0
F3C0
7380
3F00
ENDCHAR
STARTCHAR g82
ENCODING 112
SWIDTH 750 0
DWIDTH 12 0
BBX 10 13 1 -4
BITMAP
F780
FFC0
F3C0
F3C0
F3C0
F3C0
F3C0
F380
FF00
F000
F000
F000
F000
ENDCHAR
STARTCHAR g83
ENCODING 113
SWIDTH 750 0
DWIDTH 12 0
BBX 10 13 1 -4
BITMAP
3FC0
73C0
F3C0
F3C0
F3C0
F3C0
F3C0
FFC0
7BC0
03C0
03C0
03C0
03C0
ENDCHAR
STARTCHAR g84
ENCODING 114
SWIDTH 562 0
DWIDTH 9 0
BBX 8 9 1 0
BITMAP
F7
FF
F8
F0
F0
F0
F0
F0
F0
ENDCHAR
STARTCHAR g85
ENCODING 115
SWIDTH 625 0
DWIDTH 10 0
BBX 8 9 1 0
BITMAP
7F
F0
F0
FC
7E
1F
0F
0F
FE
ENDCHAR
STARTCHAR g86
ENCODING 116
SWIDTH 500 0
DWIDTH 8 0
BBX 8 11 0 0
BITMAP
78
78
FF
78
78
78
78
78
78
7C
3F
ENDCHAR
STARTCHAR g87
ENCODING 117
SWIDTH 750 0
DWIDTH 12 0
BBX 10 9 1 0
BITMAP
F3C0
F3C0
F3C0
F3C0
F3C0
F3C0
F3C0
FFC0
7DC0
ENDCHAR
STARTCHAR g88
ENCODING 118
SWIDTH 688 0
DWIDTH 11 0
BBX 11 9 0 0
BITMAP
F0E0
F0E0
78C0
78C0
3D80
3D80
3F00
1F00
1F00
ENDCHAR
STARTCHAR g89
ENCODING 119
SWIDTH 1000 0
DWIDTH 16 0
BBX 16 9 0 0
BITMAP
F1E3
F1E3
F1E3
79E3
79F6
7BF6
3E7C
3E7C
3E7C
ENDCHAR
STARTCHAR g90
ENCODING 120
SWIDTH 812 0
DWIDTH 13 0
BBX 11 9 1 0
BITMAP
F8E0
F8C0
7D80
3F00
1F00
1F80
37C0
63E0
E3E0
ENDCHAR
STARTCHAR g91
ENCODING 121
SWIDTH 688 0
DWIDTH 11 0
BBX 11 13 0 -4
BITMAP
F860
F860
78C0
3CC0
3D80
1F80
1F00
0F00
0E00
0600
0C00
1C00
3800
ENDCHAR
STARTCHAR g92
ENCODING 122
SWIDTH 625 0
DWIDTH 10 0
BBX 8 9 1 0
BITMAP
FF
0F
0F
1E
3C
78
F0
F0
FF
ENDCHAR
STARTCHAR g93
ENCODING 123
SWIDTH 438 0
DWIDTH 7 0
BBX 5 15 1 -2
BITMAP
38
70
70
70
70
70
70
E0
70
70
70
70
70
70
38
ENDCHAR
STARTCHAR g94
ENCODING 124
SWIDTH 312 0
DWIDTH 5 0
BBX 3 15 1 -2
BITMAP
E0
E0
E0
E0
E0
E0
E0
00
E0
E0
E0
E0
E0
E0
E0
ENDCHAR
STARTCHAR g95
ENCODING 125
SWIDTH 438 0
DWIDTH 7 0
BBX 5 15 1 -2
BITMAP
E0
70
70
70
70
70
70
38
70
70
70
70
70
70
E0
ENDCHAR
STARTCHAR g96
ENCODING 126
SWIDTH 688 0
DWIDTH 11 0
BBX 9 4 1 5
BITMAP
7880
FC80
9F80
8F00
ENDCHAR
STARTCHAR g97
ENCODING 127
SWIDTH 688 0
DWIDTH 11 0
BBX 0 0 0 0
BITMAP
ENDCHAR
STARTCHAR g98
ENCODING 161
SWIDTH 312 0
DWIDTH 5 0
BBX 3 12 1 -3
BITMAP
E0
E0
00
E0
E0
E0
E0
E0
E0
E0
E0
E0
ENDCHAR
STARTCHAR g99
ENCODING 162
SWIDTH 625 0
DWIDTH 10 0
BBX 8 13 1 -2
BITMAP
0C
0C
3F
78
F0
F0
F0
F0
F0
78
3F
0C
0C
ENDCHAR
STARTCHAR g100
ENCODING 163
SWIDTH 562 0
DWIDTH 9 0
BBX 9 12 0 0
BITMAP
1F00
3800
7800
7800
7800
FE00
7800
7800
7800
7000
FF80
FF00
ENDCHAR
STARTCHAR g101
ENCODING 164
SWIDTH 688 0
DWIDTH 11 0
BBX 9 9 1 0
BITMAP
DD80
FF80
6300
C180
C180
C180
6300
FF80
DD80
ENDCHAR
STARTCHAR g102
ENCODING 165
SWIDTH 875 0
DWIDTH 14 0
BBX 14 11 0 0
BITMAP
F80C
7C18
3E30
1F60
0FC0
3FF0
0780
0780
3FF0
0780
0780
ENDCHAR
STARTCHAR g103
ENCODING 167
SWIDTH 938 0
DWIDTH 15 0
BBX 9 12 1 0
BITMAP
3E00
7300
E000
F000
DC00
E700
7380
1D80
0780
0380
6700
3E00
ENDCHAR
STARTCHAR g104
ENCODING 168
SWIDTH 500 0
DWIDTH 8 0
BBX 6 2 1 10
BITMAP
CC
CC
ENDCHAR
STARTCHAR g105
ENCODING 169
SWIDTH 875 0
DWIDTH 14 0
BBX 12 11 1 -1
BITMAP
1F80
30C0
6060
CF30
D830
D830
D830
CF30
6060
30C0
1F80
ENDCHAR
STARTCHAR g106
ENCODING 170
SWIDTH 562 0
DWIDTH 9 0
BBX 7 7 1 5
BITMAP
7E
EE
EE
FE
6E
00
FE
ENDCHAR
STARTCHAR g107
ENCODING 171
SWIDTH 812 0
DWIDTH 13 0
BBX 11 7 1 1
BITMAP
1CE0
39C0
7380
E700
7380
39C0
1CE0
ENDCHAR
STARTCHAR g108
ENCODING 172
SWIDTH 750 0
DWIDTH 12 0
BBX 10 5 1 3
BITMAP
FFC0
FFC0
00C0
00C0
00C0
ENDCHAR
STARTCHAR g109
ENCODING 174
SWIDTH 875 0
DWIDTH 14 0
BBX 12 11 1 -1
BITMAP
1F80
30C0
6060
DF30
DBB0
DF30
DB30
D9B0
6060
30C0
1F80
ENDCHAR
STARTCHAR g110
ENCODING 175
SWIDTH 438 0
DWIDTH 7 0
BBX 5 2 1 9
BITMAP
F8
F8
ENDCHAR
STARTCHAR g111
ENCODING 176
SWIDTH 375 0
DWIDTH 6 0
BBX 4 4 1 8
BITMAP
60
90
90
60
ENDCHAR
STARTCHAR g112
ENCODING 177
SWIDTH 625 0
DWIDTH 10 0
BBX 8 9 1 1
BITMAP
18
18
18
FF
FF
18
18
FF
FF
ENDCHAR
STARTCHAR g113
ENCODING 180
SWIDTH 438 0
DWIDTH 7 0
BBX 5 3 1 9
BITMAP
78
60
80
ENDCHAR
STARTCHAR g114
ENCODING 181
SWIDTH 750 0
DWIDTH 12 0
BBX 10 12 1 -3
BITMAP
F3C0
F3C0
F3C0
F3C0
F3C0
F3C0
F3C0
FFC0
FDC0
E000
E000
E000
ENDCHAR
STARTCHAR g115
ENCODING 182
SWIDTH 625 0
DWIDTH 10 0
BBX 8 12 1 0
BITMAP
7F
FB
FB
FB
FB
7B
1B
1B
1B
1B
1B
1B
ENDCHAR
STARTCHAR g116
ENCODING 183
SWIDTH 312 0
DWIDTH 5 0
BBX 3 2 1 5
BITMAP
E0
E0
ENDCHAR
STARTCHAR g117
ENCODING 184
SWIDTH 312 0
DWIDTH 5 0
BBX 4 4 0 -3
BITMAP
60
30
30
E0
ENDCHAR
STARTCHAR g118
ENCODING 186
SWIDTH 562 0
DWIDTH 9 0
BBX 7 7 1 5
BITMAP
7C
EE
EE
EE
7C
00
FE
ENDCHAR
STARTCHAR g119
ENCODING 187
SWIDTH 812 0
DWIDTH 13 0
BBX 11 7 1 1
BITMAP
E700
7380
39C0
1CE0
39C0
7380
E700
ENDCHAR
STARTCHAR g120
ENCODING 191
SWIDTH 500 0
DWIDTH 8 0
BBX 7 12 1 -3
BITMAP
1C
1C
00
1C
1C
3C
78
F0
E0
E0
F0
7E
ENDCHAR
STARTCHAR g121
ENCODING 192
SWIDTH 812 0
DWIDTH 13 0
BBX 13 16 0 0
BITMAP
1E00
0700
0180
0000
0780
0780
0FC0
0BC0
1BC0
11E0
31E0
20F0
7FF0
40F0
C078
C078
ENDCHAR
STARTCHAR g122
ENCODING 193
SWIDTH 812 0
DWIDTH 13 0
BBX 13 16 0 0
BITMAP
03C0
0700
0C00
0000
0780
0780
0FC0
0BC0
1BC0
11E0
31E0
20F0
7FF0
40F0
C078
C078
ENDCHAR
STARTCHAR g123
ENCODING 194
SWIDTH 812 0
DWIDTH 13 0
BBX 13 16 0 0
BITMAP
0300
0780
0CC0
0000
0780
0780
0FC0
0BC0
1BC0
11E0
31E0
20F0
7FF0
40F0
C078
C078
ENDCHAR
STARTCHAR g124
ENCODING 195
SWIDTH 812 0
DWIDTH 13 0
BBX 13 16 0 0
BITMAP
0E40
1740
1380
0000
0780
0780
0FC0
0BC0
1BC0
11E0
31E0
20F0
7FF0
40F0
C078
C078
ENDCHAR
STARTCHAR g125
ENCODING 196
SWIDTH 812 0
DWIDTH 13 0
BBX 13 15 0 0
BITMAP
0CC0
0CC0
0000
0780
0780
0FC0
0BC0
1BC0
11E0
31E0
20F0
7FF0
40F0
C078
C078
ENDCHAR
STARTCHAR g126
ENCODING 197
SWIDTH 812 0
DWIDTH 13 0
BBX 13 16 0 0
BITMAP
0700
0D80
0D80
0700
0780
0780
0FC0
0BC0
1BC0
11E0
31E0
20F0
7FF0
40F0
C078
C078
ENDCHAR
STARTCHAR g127
ENCODING 198
SWIDTH 1188 0
DWIDTH 19 0
BBX 18 12 0 0
BITMAP
07FFC0
077800
0E7800
0E7800
1C7800
1C7F80
387800
387800
7FF800
707800
E07800
E07FC0
ENDCHAR
STARTCHAR g128
ENCODING 199
SWIDTH 750 0
DWIDTH 12 0
BBX 10 15 1 -3
BITMAP
1FC0
7C00
7800
F000
F000
F000
F000
F000
F000
7800
7C00
1FC0
0600
0600
1C00
ENDCHAR
STARTCHAR g129
ENCODING 200
SWIDTH 688 0
DWIDTH 11 0
BBX 9 16 1 0
BITMAP
7800
1C00
0600
0000
FF80
F000
F000
F000
F000
FF00
F000
F000
F000
F000
F000
FF80
ENDCHAR
STARTCHAR g130
ENCODING 201
SWIDTH 688 0
DWIDTH 11 0
BBX 9 16 1 0
BITMAP
0F00
1C00
3000
0000
FF80
F000
F000
F000
F000
FF00
F000
F000
F000
F000
F000
FF80
ENDCHAR
STARTCHAR g131
ENCODING 202
SWIDTH 688 0
DWIDTH 11 0
BBX 9 16 1 0
BITMAP
0C00
1E00
3300
0000
FF80
F000
F000
F000
F000
FF00
F000
F000
F000
F000
F000
FF80
ENDCHAR
STARTCHAR g132
ENCODING 203
SWIDTH 688 0
DWIDTH 11 0
BBX 9 15 1 0
BITMAP
3300
3300
0000
FF80
F000
F000
F000
F000
FF00
F000
F000
F000
F000
F000
FF80
ENDCHAR
STARTCHAR g133
ENCODING 204
SWIDTH 375 0
DWIDTH 6 0
BBX 6 16 0 0
BITMAP
F0
38
0C
00
78
78
78
78
78
78
78
78
78
78
78
78
ENDCHAR
STARTCHAR g134
ENCODING 205
SWIDTH 375 0
DWIDTH 6 0
BBX 6 16 0 0
BITMAP
3C
70
C0
00
78
78
78
78
78
78
78
78
78
78
78
78
ENDCHAR
STARTCHAR g135
ENCODING 206
SWIDTH 375 0
DWIDTH 6 0
BBX 6 16 0 0
BITMAP
30
78
CC
00
78
78
78
78
78
78
78
78
78
78
78
78
ENDCHAR
STARTCHAR g136
ENCODING 207
SWIDTH 375 0
DWIDTH 6 0
BBX 6 15 0 0
BITMAP
CC
CC
00
78
78
78
78
78
78
78
78
78
78
78
78
ENDCHAR
STARTCHAR g137
ENCODING 209
SWIDTH 812 0
DWIDTH 13 0
BBX 11 16 1 0
BITMAP
1C80
2E80
2700
0000
E060
F060
F860
FC60
FE60
DF60
CFE0
C7E0
C3E0
C1E0
C0E0
C060
ENDCHAR
STARTCHAR g138
ENCODING 210
SWIDTH 938 0
DWIDTH 15 0
BBX 13 16 1 0
BITMAP
1E00
0700
0180
0000
1FC0
78F0
78F0
F078
F078
F078
F078
F078
F078
78F0
78F0
1FC0
ENDCHAR
STARTCHAR g139
ENCODING 211
SWIDTH 938 0
DWIDTH 15 0
BBX 13 16 1 0
BITMAP
03C0
0700
0C00
0000
1FC0
78F0
78F0
F078
F078
F078
F078
F078
F078
78F0
78F0
1FC0
ENDCHAR
STARTCHAR g140
ENCODING 212
SWIDTH 938 0
DWIDTH 15 0
BBX 13 16 1 0
BITMAP
0300
0780
0CC0
0000
1FC0
78F0
78F0
F078
F078
F078
F078
F078
F078
78F0
78F0
1FC0
ENDCHAR
STARTCHAR g141
ENCODING 213
SWIDTH 938 0
DWIDTH 15 0
BBX 13 16 1 0
BITMAP
0E40
1740
1380
0000
1FC0
78F0
78F0
F078
F078
F078
F078
F078
F078
78F0
78F0
1FC0
ENDCHAR
STARTCHAR g142
ENCODING 214
SWIDTH 938 0
DWIDTH 15 0
BBX 13 15 1 0
BITMAP
0CC0
0CC0
0000
1FC0
78F0
78F0
F078
F078
F078
F078
F078
F078
78F0
78F0
1FC0
ENDCHAR
STARTCHAR g143
ENCODING 216
SWIDTH 938 0
DWIDTH 15 0
BBX 13 12 1 0
BITMAP
1FD8
78F0
78F0
F0F8
F1F8
F378
F678
FC78
F878
78F0
78F0
DFC0
ENDCHAR
STARTCHAR g144
ENCODING 217
SWIDTH 812 0
DWIDTH 13 0
BBX 11 16 1 0
BITMAP
1E00
0700
0180
0000
F060
F060
F060
F060
F060
F060
F060
F060
F060
F060
78C0
3F80
ENDCHAR
STARTCHAR g145
ENCODING 218
SWIDTH 812 0
DWIDTH 13 0
BBX 11 16 1 0
BITMAP
0780
0E00
1800
0000
F060
F060
F060
F060
F060
F060
F060
F060
F060
F060
78C0
3F80
ENDCHAR
STARTCHAR g146
ENCODING 219
SWIDTH 812 0
DWIDTH 13 0
BBX 11 16 1 0
BITMAP
0600
0F00
1980
0000
F060
F060
F060
F060
F060
F060
F060
F060
F060
F060
78C0
3F80
ENDCHAR
STARTCHAR g147
ENCODING 220
SWIDTH 812 0
DWIDTH 13 0
BBX 11 15 1 0
BITMAP
1980
1980
0000
F060
F060
F060
F060
F060
F060
F060
F060
F060
F060
78C0
3F80
ENDCHAR
STARTCHAR g148
ENCODING 223
SWIDTH 938 0
DWIDTH 15 0
BBX 13 12 1 0
BITMAP
3FC0
78E0
F0E0
F1C0
F380
F780
F7E0
F3F0
F0F8
F078
F078
F7F0
ENDCHAR
STARTCHAR g149
ENCODING 224
SWIDTH 750 0
DWIDTH 12 0
BBX 10 13 1 0
BITMAP
3C00
0E00
0300
0000
7F80
07C0
03C0
7FC0
F3C0
F3C0
F3C0
F7C0
7BC0
ENDCHAR
STARTCHAR g150
ENCODING 225
SWIDTH 750 0
DWIDTH 12 0
BBX 10 13 1 0
BITMAP
0780
0E00
1800
0000
7F80
07C0
03C0
7FC0
F3C0
F3C0
F3C0
F7C0
7BC0
ENDCHAR
STARTCHAR g151
ENCODING 226
SWIDTH 750 0
DWIDTH 12 0
BBX 10 13 1 0
BITMAP
0C00
1E00
3300
0000
7F80
07C0
03C0
7FC0
F3C0
F3C0
F3C0
F7C0
7BC0
ENDCHAR
STARTCHAR g152
ENCODING 227
SWIDTH 750 0
DWIDTH 12 0
BBX 10 13 1 0
BITMAP
1C80
2E80
2700
0000
7F80
07C0
03C0
7FC0
F3C0
F3C0
F3C0
F7C0
7BC0
ENDCHAR
STARTCHAR g153
ENCODING 228
SWIDTH 750 0
DWIDTH 12 0
BBX 10 12 1 0
BITMAP
3300
3300
0000
7F80
07C0
03C0
7FC0
F3C0
F3C0
F3C0
F7C0
7BC0
ENDCHAR
STARTCHAR g154
ENCODING 229
SWIDTH 750 0
DWIDTH 12 0
BBX 10 13 1 0
BITMAP
0E00
1B00
0E00
0000
7F80
07C0
03C0
7FC0
F3C0
F3C0
F3C0
F7C0
7BC0
ENDCHAR
STARTCHAR g155
ENCODING 230
SWIDTH 1125 0
DWIDTH 18 0
BBX 16 9 1 0
BITMAP
7EFC
07CE
03CF
7FCF
F3FF
F3C0
F3C0
F7E0
7BFF
ENDCHAR
STARTCHAR g156
ENCODING 231
SWIDTH 625 0
DWIDTH 10 0
BBX 8 12 1 -3
BITMAP
3F
78
F0
F0
F0
F0
F0
78
3F
0C
0C
38
ENDCHAR
STARTCHAR g157
ENCODING 232
SWIDTH 750 0
DWIDTH 12 0
BBX 10 13 1 0
BITMAP
7800
1C00
0600
0000
3F00
7380
F3C0
F3C0
FFC0
F000
F000
7800
3FC0
ENDCHAR
STARTCHAR g158
ENCODING 233
SWIDTH 750 0
DWIDTH 12 0
BBX 10 13 1 0
BITMAP
0780
0E00
1800
0000
3F00
7380
F3C0
F3C0
FFC0
F000
F000
7800
3FC0
ENDCHAR
STARTCHAR g159
ENCODING 234
SWIDTH 750 0
DWIDTH 12 0
BBX 10 13 1 0
BITMAP
0C00
1E00
3300
0000
3F00
7380
F3C0
F3C0
FFC0
F000
F000
7800
3FC0
ENDCHAR
STARTCHAR g160
ENCODING 235
SWIDTH 750 0
DWIDTH 12 0
BBX 10 12 1 0
BITMAP
3300
3300
0000
3F00
7380
F3C0
F3C0
FFC0
F000
F000
7800
3FC0
ENDCHAR
STARTCHAR g161
ENCODING 236
SWIDTH 375 0
DWIDTH 6 0
BBX 6 13 0 0
BITMAP
F0
38
0C
00
78
78
78
78
78
78
78
78
78
ENDCHAR
STARTCHAR g162
ENCODING 237
SWIDTH 375 0
DWIDTH 6 0
BBX 6 13 0 0
BITMAP
3C
70
C0
00
78
78
78
78
78
78
78
78
78
ENDCHAR
STARTCHAR g163
ENCODING 238
SWIDTH 375 0
DWIDTH 6 0
BBX 6 13 0 0
BITMAP
30
78
CC
00
78
78
78
78
78
78
78
78
78
ENDCHAR
STARTCHAR g164
ENCODING 239
SWIDTH 375 0
DWIDTH 6 0
BBX 6 12 0 0
BITMAP
CC
CC
00
78
78
78
78
78
78
78
78
78
ENDCHAR
STARTCHAR g165
ENCODING 241
SWIDTH 750 0
DWIDTH 12 0
BBX 10 13 1 0
BITMAP
3900
5D00
4E00
0000
F780
FFC0
F3C0
F3C0
F3C0
F3C0
F3C0
F3C0
F3C0
ENDCHAR
STARTCHAR g166
ENCODING 242
SWIDTH 750 0
DWIDTH 12 0
BBX 10 13 1 0
BITMAP
3C00
0E00
0300
0000
3F00
7380
F3C0
F3C0
F3C0
F3C0
F3C0
7380
3F00
ENDCHAR
STARTCHAR g167
ENCODING 243
SWIDTH 750 0
DWIDTH 12 0
BBX 10 13 1 0
BITMAP
0780
0E00
1800
0000
3F00
7380
F3C0
F3C0
F3C0
F3C0
F3C0
7380
3F00
ENDCHAR
STARTCHAR g168
ENCODING 244
SWIDTH 750 0
DWIDTH 12 0
BBX 10 13 1 0
BITMAP
0C00
1E00
3300
0000
3F00
7380
F3C0
F3C0
F3C0
F3C0
F3C0
7380
3F00
ENDCHAR
STARTCHAR g169
ENCODING 245
SWIDTH 750 0
DWIDTH 12 0
BBX 10 13 1 0
BITMAP
1C80
2E80
2700
0000
3F00
7380
F3C0
F3C0
F3C0
F3C0
F3C0
7380
3F00
ENDCHAR
STARTCHAR g170
ENCODING 246
SWIDTH 750 0
DWIDTH 12 0
BBX 10 12 1 0
BITMAP
3300
3300
0000
3F00
7380
F3C0
F3C0
F3C0
F3C0
F3C0
7380
3F00
ENDCHAR
STARTCHAR g171
ENCODING 247
SWIDTH 625 0
DWIDTH 10 0
BBX 8 8 1 2
BITMAP
18
18
00
FF
FF
00
18
18
ENDCHAR
STARTCHAR g172
ENCODING 248
SWIDTH 750 0
DWIDTH 12 0
BBX 12 9 0 0
BITMAP
1FB0
39C0
79E0
7BE0
7FE0
7DE0
79E0
39C0
DF80
ENDCHAR
STARTCHAR g173
ENCODING 249
SWIDTH 750 0
DWIDTH 12 0
BBX 10 13 1 0
BITMAP
7800
1C00
0600
0000
F3C0
F3C0
F3C0
F3C0
F3C0
F3C0
F3C0
FFC0
7DC0
ENDCHAR
STARTCHAR g174
ENCODING 250
SWIDTH 750 0
DWIDTH 12 0
BBX 10 13 1 0
BITMAP
0780
0E00
1800
0000
F3C0
F3C0
F3C0
F3C0
F3C0
F3C0
F3C0
FFC0
7DC0
ENDCHAR
STARTCHAR g175
ENCODING 251
SWIDTH 750 0
DWIDTH 12 0
BBX 10 13 1 0
BITMAP
0C00
1E00
3300
0000
F3C0
F3C0
F3C0
F3C0
F3C0
F3C0
F3C0
FFC0
7DC0
ENDCHAR
STARTCHAR g176
ENCODING 252
SWIDTH 750 0
DWIDTH 12 0
BBX 10 12 1 0
BITMAP
3300
3300
0000
F3C0
F3C0
F3C0
F3C0
F3C0
F3C0
F3C0
FFC0
7DC0
ENDCHAR
STARTCHAR g177
ENCODING 255
SWIDTH 688 0
DWIDTH 11 0
BBX 11 16 0 -4
BITMAP
1980
1980
0000
F860
F860
78C0
3CC0
3D80
1F80
1F00
0F00
0E00
0600
0C00
1C00
3800
ENDCHAR
STARTCHAR g178
ENCODING 305
SWIDTH 375 0
DWIDTH 6 0
BBX 4 9 1 0
BITMAP
F0
F0
F0
F0
F0
F0
F0
F0
F0
ENDCHAR
STARTCHAR g179
ENCODING 338
SWIDTH 1188 0
DWIDTH 19 0
BBX 17 12 1 0
BITMAP
1FFF80
78F000
78F000
F0F000
F0F000
F0FF00
F0F000
F0F000
F0F000
78F000
78F000
1FFF80
ENDCHAR
STARTCHAR g180
ENCODING 339
SWIDTH 1125 0
DWIDTH 18 0
BBX 16 9 1 0
BITMAP
3EFC
73CE
F3CF
F3CF
F3FF
F3C0
F3C0
73E0
3F7F
ENDCHAR
STARTCHAR g181
ENCODING 376
SWIDTH 750 0
DWIDTH 12 0
BBX 12 15 0 0
BITMAP
0CC0
0CC0
0000
F030
F030
7860
3CC0
3D80
1F00
0F00
0F00
0F00
0F00
0F00
0F00
ENDCHAR
STARTCHAR g182
ENCODING 402
SWIDTH 688 0
DWIDTH 11 0
BBX 13 14 -1 -2
BITMAP
00F8
01E0
01C0
03C0
0FF0
0380
0780
0780
0F00
0F00
1E00
1E00
3C00
F800
ENDCHAR
STARTCHAR g183
ENCODING 710
SWIDTH 500 0
DWIDTH 8 0
BBX 6 3 1 9
BITMAP
30
78
CC
ENDCHAR
STARTCHAR g184
ENCODING 711
SWIDTH 438 0
DWIDTH 7 0
BBX 5 3 1 9
BITMAP
D8
70
20
ENDCHAR
STARTCHAR g185
ENCODING 728
SWIDTH 438 0
DWIDTH 7 0
BBX 5 3 1 9
BITMAP
88
F8
70
ENDCHAR
STARTCHAR g186
ENCODING 729
SWIDTH 250 0
DWIDTH 4 0
BBX 2 2 1 9
BITMAP
C0
C0
ENDCHAR
STARTCHAR g187
ENCODING 730
SWIDTH 438 0
DWIDTH 7 0
BBX 5 4 1 9
BITMAP
70
D8
D8
70
ENDCHAR
STARTCHAR g188
ENCODING 731
SWIDTH 375 0
DWIDTH 6 0
BBX 4 4 1 -3
BITMAP
60
C0
C0
70
ENDCHAR
STARTCHAR g189
ENCODING 732
SWIDTH 562 0
DWIDTH 9 0
BBX 7 3 1 9
BITMAP
72
BA
9C
ENDCHAR
STARTCHAR g190
ENCODING 733
SWIDTH 562 0
DWIDTH 9 0
BBX 7 3 1 9
BITMAP
36
6C
D8
ENDCHAR
STARTCHAR g191
ENCODING 960
SWIDTH 875 0
DWIDTH 14 0
BBX 12 8 1 0
BITMAP
FFF0
79E0
79E0
79E0
79E0
79E0
79F0
F9E0
ENDCHAR
STARTCHAR g192
ENCODING 8211
SWIDTH 812 0
DWIDTH 13 0
BBX 11 2 1 5
BITMAP
FFE0
FFE0
ENDCHAR
STARTCHAR g193
ENCODING 8212
SWIDTH 1125 0
DWIDTH 18 0
BBX 16 2 1 5
BITMAP
FFFF
FFFF
ENDCHAR
STARTCHAR g194
ENCODING 8216
SWIDTH 312 0
DWIDTH 5 0
BBX 3 4 1 9
BITMAP
60
C0
E0
E0
ENDCHAR
STARTCHAR g195
ENCODING 8217
SWIDTH 312 0
DWIDTH 5 0
BBX 3 4 1 9
BITMAP
E0
E0
60
C0
ENDCHAR
STARTCHAR g196
ENCODING 8218
SWIDTH 312 0
DWIDTH 5 0
BBX 3 4 1 -2
BITMAP
E0
E0
60
C0
ENDCHAR
STARTCHAR g197
ENCODING 8220
SWIDTH 562 0
DWIDTH 9 0
BBX 7 4 1 9
BITMAP
66
CC
EE
EE
ENDCHAR
STARTCHAR g198
ENCODING 8221
SWIDTH 562 0
DWIDTH 9 0
BBX 7 4 1 9
BITMAP
EE
EE
66
CC
ENDCHAR
STARTCHAR g199
ENCODING 8222
SWIDTH 562 0
DWIDTH 9 0
BBX 7 4 1 -2
BITMAP
EE
EE
66
CC
ENDCHAR
STARTCHAR g200
ENCODING 8224
SWIDTH 562 0
DWIDTH 9 0
BBX 5 8 2 7
BITMAP
70
70
F8
70
70
70
70
70
ENDCHAR
STARTCHAR g201
ENCODING 8225
SWIDTH 812 0
DWIDTH 13 0
BBX 8 16 0 -4
BITMAP
3C
3C
3C
FF
3C
3C
3C
3C
3C
3C
3C
FF
3C
3C
3C
3C
ENDCHAR
STARTCHAR g202
ENCODING 8226
SWIDTH 500 0
DWIDTH 8 0
BBX 6 6 1 3
BITMAP
78
FC
FC
FC
FC
78
ENDCHAR
STARTCHAR g203
ENCODING 8230
SWIDTH 750 0
DWIDTH 12 0
BBX 10 2 1 0
BITMAP
CCC0
CCC0
ENDCHAR
STARTCHAR g204
ENCODING 8240
SWIDTH 1188 0
DWIDTH 19 0
BBX 17 11 1 0
BITMAP
383800
6C7000
6CE000
6DC000
3B8000
070000
0EE700
1DBD80
39BD80
71BD80
E0E700
ENDCHAR
STARTCHAR g205
ENCODING 8249
SWIDTH 500 0
DWIDTH 8 0
BBX 6 7 1 1
BITMAP
1C
38
70
E0
70
38
1C
ENDCHAR
STARTCHAR g206
ENCODING 8250
SWIDTH 500 0
DWIDTH 8 0
BBX 6 7 1 1
BITMAP
E0
70
38
1C
38
70
E0
ENDCHAR
STARTCHAR g207
ENCODING 8260
SWIDTH 625 0
DWIDTH 10 0
BBX 10 14 0 -2
BITMAP
01C0
0380
0380
0700
0700
0E00
0E00
1C00
1C00
3800
3800
7000
7000
E000
ENDCHAR
STARTCHAR g208
ENCODING 8482
SWIDTH 875 0
DWIDTH 14 0
BBX 12 4 1 8
BITMAP
F630
6770
67F0
65B0
ENDCHAR
STARTCHAR g209
ENCODING 8486
SWIDTH 938 0
DWIDTH 15 0
BBX 13 12 1 0
BITMAP
1FC0
38E0
7070
F078
F078
F078
F078
7070
38E0
18C0
D8D8
F8F8
ENDCHAR
STARTCHAR g210
ENCODING 8706
SWIDTH 812 0
DWIDTH 13 0
BBX 11 12 1 0
BITMAP
1F00
0380
01C0
01E0
3FE0
71E0
F1E0
F1E0
F1E0
F1E0
F9C0
7F80
ENDCHAR
STARTCHAR g211
ENCODING 8710
SWIDTH 875 0
DWIDTH 14 0
BBX 14 13 0 0
BITMAP
0300
0380
0780
05C0
0DC0
08E0
18E0
1070
3070
2038
6038
C01C
FFFC
ENDCHAR
STARTCHAR g212
ENCODING 8719
SWIDTH 938 0
DWIDTH 15 0
BBX 13 13 1 -1
BITMAP
FFF8
78F0
78F0
78F0
78F0
78F0
78F0
78F0
78F0
78F0
78F0
78F0
FDF8
ENDCHAR
STARTCHAR g213
ENCODING 8721
SWIDTH 625 0
DWIDTH 10 0
BBX 8 13 1 -1
BITMAP
FF
FF
FF
E1
70
38
1C
38
70
E1
FF
FF
FF
ENDCHAR
STARTCHAR g214
ENCODING 8730
SWIDTH 562 0
DWIDTH 9 0
BBX 8 14 1 -2
BITMAP
03
03
03
06
06
06
C4
CC
6C
68
38
38
10
10
ENDCHAR
STARTCHAR g215
ENCODING 8734
SWIDTH 875 0
DWIDTH 14 0
BBX 12 5 1 4
BITMAP
73E0
EFB0
CF30
DF70
7CE0
ENDCHAR
STARTCHAR g216
ENCODING 8747
SWIDTH 438 0
DWIDTH 7 0
BBX 7 18 0 -4
BITMAP
1E
38
38
38
38
38
38
38
38
38
38
38
38
38
38
38
38
F0
ENDCHAR
STARTCHAR g217
ENCODING 8776
SWIDTH 688 0
DWIDTH 11 0
BBX 9 5 1 3
BITMAP
7980
CF00
0000
7980
CF00
ENDCHAR
STARTCHAR g218
ENCODING 8800
SWIDTH 688 0
DWIDTH 11 0
BBX 9 9 1 1
BITMAP
0100
0200
FF80
FF80
0800
FF80
FF80
2000
4000
ENDCHAR
STARTCHAR g219
ENCODING 8804
SWIDTH 625 0
DWIDTH 10 0
BBX 8 8 1 1
BITMAP
0F
3C
F0
3C
0F
00
FF
FF
ENDCHAR
STARTCHAR g220
ENCODING 8805
SWIDTH 625 0
DWIDTH 10 0
BBX 8 8 1 1
BITMAP
F0
3C
0F
3C
F0
00
FF
FF
ENDCHAR
STARTCHAR g221
ENCODING 9674
SWIDTH 562 0
DWIDTH 9 0
BBX 9 16 0 -2
BITMAP
0800
0800
1C00
3600
3600
6300
6300
C180
C180
6300
6300
3600
3600
1C00
0800
0800
ENDCHAR
STARTCHAR g222
ENCODING 63252
SWIDTH 750 0
DWIDTH 12 0
BBX 11 12 1 0
BITMAP
3F80
71C0
F1E0
F1E0
F1E0
F5E0
F5E0
F1E0
F1E0
F1E0
71C0
3F80
ENDCHAR
STARTCHAR g223
ENCODING 63253
SWIDTH 500 0
DWIDTH 8 0
BBX 6 12 1 0
BITMAP
FC
78
78
78
78
78
78
78
78
78
78
FC
ENDCHAR
STARTCHAR g224
ENCODING 63254
SWIDTH 438 0
DWIDTH 7 0
BBX 6 12 0 0
BITMAP
F8
78
78
78
78
78
78
78
78
78
78
7C
ENDCHAR
STARTCHAR g225
ENCODING 63487
SWIDTH 812 0
DWIDTH 13 0
BBX 0 0 0 0
BITMAP
ENDCHAR
STARTCHAR g226
ENCODING 64257
SWIDTH 750 0
DWIDTH 12 0
BBX 11 12 0 0
BITMAP
3FE0
79E0
7800
FFE0
79E0
79E0
79E0
79E0
79E0
79E0
79E0
79E0
ENDCHAR
STARTCHAR g227
ENCODING 64258
SWIDTH 812 0
DWIDTH 13 0
BBX 12 12 0 0
BITMAP
3FF0
78F0
78F0
FEF0
78F0
78F0
78F0
78F0
78F0
78F0
78F0
78F0
ENDCHAR
STARTCHAR g228
ENCODING 64512
SWIDTH 938 0
DWIDTH 15 0
BBX 13 9 1 0
BITMAP
3FE0
F8F8
EFB8
0F80
18C0
18C0
3FE0
3FE0
3FE0
ENDCHAR
STARTCHAR g229
ENCODING 64513
SWIDTH 875 0
DWIDTH 14 0
BBX 10 10 2 0
BITMAP
0C00
1E00
3F00
7F80
FFC0
FFC0
7F80
3F00
1E00
0C00
ENDCHAR
STARTCHAR g230
ENCODING 64514
SWIDTH 875 0
DWIDTH 14 0
BBX 0 0 0 0
BITMAP
ENDCHAR
STARTCHAR g231
ENCODING 64515
SWIDTH 875 0
DWIDTH 14 0
BBX 7 7 3 0
BITMAP
02
06
0A
12
22
42
FE
ENDCHAR
STARTCHAR g232
ENCODING 64516
SWIDTH 875 0
DWIDTH 14 0
BBX 9 7 2 0
BITMAP
0380
7C00
8A00
1100
1100
1100
0E00
ENDCHAR
STARTCHAR g233
ENCODING 64517
SWIDTH 1062 0
DWIDTH 17 0
BBX 15 15 1 -1
BITMAP
07C0
1FF0
3838
739C
638C
C006
C786
C386
C386
C386
67CC
701C
3838
1FF0
07C0
ENDCHAR
STARTCHAR g234
ENCODING 64518
SWIDTH 875 0
DWIDTH 14 0
BBX 7 7 4 0
BITMAP
80
C0
A0
90
88
84
FE
ENDCHAR
STARTCHAR g235
ENCODING 64519
SWIDTH 875 0
DWIDTH 14 0
BBX 12 7 1 0
BITMAP
0F00
30C0
4020
8010
8010
8F10
70E0
ENDCHAR
STARTCHAR g236
ENCODING 64520
SWIDTH 812 0
DWIDTH 13 0
BBX 11 11 1 0
BITMAP
60C0
9120
9120
7FC0
1100
1100
1100
7FC0
9120
9120
60C0
ENDCHAR
STARTCHAR g237
ENCODING 64521
SWIDTH 625 0
DWIDTH 10 0
BBX 8 12 0 0
BITMAP
FF
81
81
81
81
81
81
81
81
81
81
FF
ENDCHAR
STARTCHAR g238
ENCODING 64522
SWIDTH 688 0
DWIDTH 11 0
BBX 0 0 0 0
BITMAP
ENDCHAR
STARTCHAR g239
ENCODING 64523
SWIDTH 688 0
DWIDTH 11 0
BBX 10 9 0 0
BITMAP
00C0
0180
0300
6600
EE00
3C00
3C00
1800
1000
ENDCHAR
STARTCHAR g240
ENCODING 64524
SWIDTH 625 0
DWIDTH 10 0
BBX 8 12 0 0
BITMAP
FF
81
81
81
81
81
81
81
81
81
81
FF
ENDCHAR
STARTCHAR g241
ENCODING 64525
SWIDTH 625 0
DWIDTH 10 0
BBX 8 12 0 0
BITMAP
FF
81
81
81
81
81
81
81
81
81
81
FF
ENDCHAR
STARTCHAR g242
ENCODING 64526
SWIDTH 625 0
DWIDTH 10 0
BBX 8 12 0 0
BITMAP
FF
81
81
81
81
81
81
81
81
81
81
FF
ENDCHAR
STARTCHAR g243
ENCODING 64527
SWIDTH 625 0
DWIDTH 10 0
BBX 8 12 0 0
BITMAP
FF
81
81
81
81
81
81
81
81
81
81
FF
ENDCHAR
ENDFONT
