STARTFONT 2.1
COMMENT Strike 1 of a Newton 'sfnt' font (bloc/bdat): tools/fonts/newtonsfnt.py,
COMMENT tools/fonts/README.md.  The builder reads the BLOC_* properties and the
COMMENT glyphs - STARTCHAR gN (N the glyph id; otherwise ENCODING through 'cmap'),
COMMENT DWIDTH (the advance), BBX (width, height, the bearing x, the bottom row's
COMMENT y: bearing y less the height) and the BITMAP rows.  A glyph id in the
COMMENT subtable ranges with no glyph here has no image (the missing glyph is 0).
COMMENT The other properties, SIZE, FONTBOUNDINGBOX and SWIDTH are worked out and
COMMENT not read back: change BLOC_HORI_* (the line metrics the ROM draws text by)
COMMENT to match an edit that changes the strike's extent.
FONT -Apple-Roman Regular-Medium-R-Normal--10-100-72-72-P-0-Apple-Roman
SIZE 10 72 72
FONTBOUNDINGBOX 17 13 -1 -2
STARTPROPERTIES 37
FONT_ASCENT 11
FONT_DESCENT 3
PIXEL_SIZE 10
FAMILY_NAME "Roman Regular"
BLOC_COLOR_REF 0
BLOC_HORI_ASCENDER 11
BLOC_HORI_DESCENDER -3
BLOC_HORI_WIDTH_MAX 17
BLOC_HORI_CARET_SLOPE_NUMERATOR 0
BLOC_HORI_CARET_SLOPE_DENOMINATOR 1
BLOC_HORI_CARET_OFFSET 0
BLOC_HORI_MIN_ORIGIN_SB -1
BLOC_HORI_MIN_ADVANCE_SB 0
BLOC_HORI_MAX_BEFORE_BL 11
BLOC_HORI_MIN_AFTER_BL -2
BLOC_HORI_PAD1 0
BLOC_HORI_PAD2 0
BLOC_VERT_ASCENDER 0
BLOC_VERT_DESCENDER -1
BLOC_VERT_WIDTH_MAX 13
BLOC_VERT_CARET_SLOPE_NUMERATOR 0
BLOC_VERT_CARET_SLOPE_DENOMINATOR 1
BLOC_VERT_CARET_OFFSET 0
BLOC_VERT_MIN_ORIGIN_SB -44
BLOC_VERT_MIN_ADVANCE_SB 124
BLOC_VERT_MAX_BEFORE_BL 0
BLOC_VERT_MIN_AFTER_BL -17
BLOC_VERT_PAD1 0
BLOC_VERT_PAD2 0
BLOC_START_GLYPH 0
BLOC_END_GLYPH 257
BLOC_PPEM_X 10
BLOC_PPEM_Y 10
BLOC_BIT_DEPTH 1
BLOC_FLAGS 1
BLOC_INDEX_SUBTABLES 1
BLOC_INDEX_SUBTABLE_0 "0 257 3 1 0"
ENDPROPERTIES
CHARS 244
STARTCHAR g0
ENCODING -1
SWIDTH 500 0
DWIDTH 5 0
BBX 4 6 0 0
BITMAP
F0
90
90
90
90
F0
ENDCHAR
STARTCHAR g1
ENCODING 0
SWIDTH 0 0
DWIDTH 0 0
BBX 0 0 0 0
BITMAP
ENDCHAR
STARTCHAR g2
ENCODING 1
SWIDTH 300 0
DWIDTH 3 0
BBX 0 0 0 0
BITMAP
ENDCHAR
STARTCHAR g3
ENCODING 2
SWIDTH 400 0
DWIDTH 4 0
BBX 2 8 1 0
BITMAP
C0
C0
C0
C0
C0
00
C0
C0
ENDCHAR
STARTCHAR g4
ENCODING 3
SWIDTH 600 0
DWIDTH 6 0
BBX 5 3 0 6
BITMAP
D8
D8
48
ENDCHAR
STARTCHAR g5
ENCODING 4
SWIDTH 1000 0
DWIDTH 10 0
BBX 9 8 0 0
BITMAP
1B00
1B00
7F80
3600
3600
FF00
6C00
6C00
ENDCHAR
STARTCHAR g6
ENCODING 5
SWIDTH 600 0
DWIDTH 6 0
BBX 5 10 0 -1
BITMAP
20
78
C0
C0
F0
78
18
18
F0
20
ENDCHAR
STARTCHAR g7
ENCODING 6
SWIDTH 1300 0
DWIDTH 13 0
BBX 12 8 0 0
BITMAP
70C0
D980
DB00
7600
06E0
0DB0
19B0
30E0
ENDCHAR
STARTCHAR g8
ENCODING 7
SWIDTH 900 0
DWIDTH 9 0
BBX 8 8 0 0
BITMAP
38
6C
6C
38
7B
CE
CE
7B
ENDCHAR
STARTCHAR g9
ENCODING 8
SWIDTH 300 0
DWIDTH 3 0
BBX 2 3 0 6
BITMAP
C0
C0
40
ENDCHAR
STARTCHAR g10
ENCODING 9
SWIDTH 500 0
DWIDTH 5 0
BBX 4 10 0 -1
BITMAP
30
60
60
C0
C0
C0
C0
60
60
30
ENDCHAR
STARTCHAR g11
ENCODING 10
SWIDTH 500 0
DWIDTH 5 0
BBX 4 10 0 -1
BITMAP
C0
60
60
30
30
30
30
60
60
C0
ENDCHAR
STARTCHAR g12
ENCODING 11
SWIDTH 600 0
DWIDTH 6 0
BBX 5 5 0 3
BITMAP
50
20
F8
20
50
ENDCHAR
STARTCHAR g13
ENCODING 12
SWIDTH 600 0
DWIDTH 6 0
BBX 5 5 0 1
BITMAP
20
20
F8
20
20
ENDCHAR
STARTCHAR g14
ENCODING 44
SWIDTH 400 0
DWIDTH 4 0
BBX 2 4 1 -2
BITMAP
C0
C0
40
80
ENDCHAR
STARTCHAR g15
ENCODING 45
SWIDTH 400 0
DWIDTH 4 0
BBX 3 1 0 3
BITMAP
E0
ENDCHAR
STARTCHAR g16
ENCODING 46
SWIDTH 400 0
DWIDTH 4 0
BBX 2 2 1 0
BITMAP
C0
C0
ENDCHAR
STARTCHAR g17
ENCODING 47
SWIDTH 600 0
DWIDTH 6 0
BBX 5 8 0 0
BITMAP
18
18
30
30
60
60
C0
C0
ENDCHAR
STARTCHAR g18
ENCODING 48
SWIDTH 700 0
DWIDTH 7 0
BBX 6 8 0 0
BITMAP
78
CC
CC
CC
CC
CC
CC
78
ENDCHAR
STARTCHAR g19
ENCODING 49
SWIDTH 700 0
DWIDTH 7 0
BBX 3 8 1 0
BITMAP
60
E0
60
60
60
60
60
60
ENDCHAR
STARTCHAR g20
ENCODING 50
SWIDTH 700 0
DWIDTH 7 0
BBX 6 8 0 0
BITMAP
78
CC
0C
18
30
60
C0
FC
ENDCHAR
STARTCHAR g21
ENCODING 51
SWIDTH 700 0
DWIDTH 7 0
BBX 6 8 0 0
BITMAP
78
CC
0C
38
0C
0C
CC
78
ENDCHAR
STARTCHAR g22
ENCODING 52
SWIDTH 700 0
DWIDTH 7 0
BBX 6 8 0 0
BITMAP
18
38
58
98
FC
18
18
18
ENDCHAR
STARTCHAR g23
ENCODING 53
SWIDTH 600 0
DWIDTH 6 0
BBX 5 8 0 0
BITMAP
F8
C0
C0
F0
18
18
18
F0
ENDCHAR
STARTCHAR g24
ENCODING 54
SWIDTH 700 0
DWIDTH 7 0
BBX 6 8 0 0
BITMAP
38
60
C0
F8
CC
CC
CC
78
ENDCHAR
STARTCHAR g25
ENCODING 55
SWIDTH 700 0
DWIDTH 7 0
BBX 6 8 0 0
BITMAP
FC
0C
18
18
30
30
30
30
ENDCHAR
STARTCHAR g26
ENCODING 56
SWIDTH 700 0
DWIDTH 7 0
BBX 6 8 0 0
BITMAP
78
CC
CC
78
CC
CC
CC
78
ENDCHAR
STARTCHAR g27
ENCODING 57
SWIDTH 700 0
DWIDTH 7 0
BBX 6 8 0 0
BITMAP
78
CC
CC
CC
7C
0C
18
70
ENDCHAR
STARTCHAR g28
ENCODING 58
SWIDTH 400 0
DWIDTH 4 0
BBX 2 6 1 0
BITMAP
C0
C0
00
00
C0
C0
ENDCHAR
STARTCHAR g29
ENCODING 59
SWIDTH 400 0
DWIDTH 4 0
BBX 2 8 1 -2
BITMAP
C0
C0
00
00
C0
C0
40
80
ENDCHAR
STARTCHAR g30
ENCODING 60
SWIDTH 600 0
DWIDTH 6 0
BBX 5 5 0 1
BITMAP
18
70
C0
70
18
ENDCHAR
STARTCHAR g31
ENCODING 61
SWIDTH 600 0
DWIDTH 6 0
BBX 5 3 0 2
BITMAP
F8
00
F8
ENDCHAR
STARTCHAR g32
ENCODING 62
SWIDTH 600 0
DWIDTH 6 0
BBX 5 5 0 1
BITMAP
C0
70
18
70
C0
ENDCHAR
STARTCHAR g33
ENCODING 63
SWIDTH 600 0
DWIDTH 6 0
BBX 5 8 0 0
BITMAP
F0
18
18
70
60
00
60
60
ENDCHAR
STARTCHAR g34
ENCODING 64
SWIDTH 1100 0
DWIDTH 11 0
BBX 10 8 0 -1
BITMAP
3F00
6180
CCC0
D6C0
D6C0
DB80
6000
3E00
ENDCHAR
STARTCHAR g35
ENCODING 65
SWIDTH 900 0
DWIDTH 9 0
BBX 8 8 0 0
BITMAP
18
18
3C
2C
66
7E
C3
C3
ENDCHAR
STARTCHAR g36
ENCODING 66
SWIDTH 700 0
DWIDTH 7 0
BBX 6 8 0 0
BITMAP
F8
CC
CC
F8
CC
CC
CC
F8
ENDCHAR
STARTCHAR g37
ENCODING 67
SWIDTH 700 0
DWIDTH 7 0
BBX 6 8 0 0
BITMAP
3C
60
C0
C0
C0
C0
60
3C
ENDCHAR
STARTCHAR g38
ENCODING 68
SWIDTH 800 0
DWIDTH 8 0
BBX 7 8 0 0
BITMAP
F8
CC
C6
C6
C6
C6
CC
F8
ENDCHAR
STARTCHAR g39
ENCODING 69
SWIDTH 600 0
DWIDTH 6 0
BBX 5 8 0 0
BITMAP
F8
C0
C0
F0
C0
C0
C0
F8
ENDCHAR
STARTCHAR g40
ENCODING 70
SWIDTH 600 0
DWIDTH 6 0
BBX 5 8 0 0
BITMAP
F8
C0
C0
F0
C0
C0
C0
C0
ENDCHAR
STARTCHAR g41
ENCODING 71
SWIDTH 800 0
DWIDTH 8 0
BBX 7 8 0 0
BITMAP
3E
60
C0
C0
CE
C6
66
3E
ENDCHAR
STARTCHAR g42
ENCODING 72
SWIDTH 800 0
DWIDTH 8 0
BBX 7 8 0 0
BITMAP
C6
C6
C6
FE
C6
C6
C6
C6
ENDCHAR
STARTCHAR g43
ENCODING 73
SWIDTH 300 0
DWIDTH 3 0
BBX 2 8 0 0
BITMAP
C0
C0
C0
C0
C0
C0
C0
C0
ENDCHAR
STARTCHAR g44
ENCODING 74
SWIDTH 500 0
DWIDTH 5 0
BBX 4 8 0 0
BITMAP
30
30
30
30
30
30
30
E0
ENDCHAR
STARTCHAR g45
ENCODING 75
SWIDTH 800 0
DWIDTH 8 0
BBX 7 8 0 0
BITMAP
C6
CC
D8
F0
F0
D8
CC
C6
ENDCHAR
STARTCHAR g46
ENCODING 76
SWIDTH 600 0
DWIDTH 6 0
BBX 5 8 0 0
BITMAP
C0
C0
C0
C0
C0
C0
C0
F8
ENDCHAR
STARTCHAR g47
ENCODING 77
SWIDTH 1100 0
DWIDTH 11 0
BBX 10 8 0 0
BITMAP
E1C0
F1C0
B2C0
BAC0
9CC0
9CC0
88C0
88C0
ENDCHAR
STARTCHAR g48
ENCODING 78
SWIDTH 700 0
DWIDTH 7 0
BBX 6 8 0 0
BITMAP
84
C4
E4
F4
BC
9C
8C
84
ENDCHAR
STARTCHAR g49
ENCODING 79
SWIDTH 900 0
DWIDTH 9 0
BBX 8 8 0 0
BITMAP
3C
66
C3
C3
C3
C3
66
3C
ENDCHAR
STARTCHAR g50
ENCODING 80
SWIDTH 700 0
DWIDTH 7 0
BBX 6 8 0 0
BITMAP
F8
CC
CC
CC
F8
C0
C0
C0
ENDCHAR
STARTCHAR g51
ENCODING 81
SWIDTH 900 0
DWIDTH 9 0
BBX 8 10 0 -2
BITMAP
3C
66
C3
C3
C3
C3
66
3C
0C
06
ENDCHAR
STARTCHAR g52
ENCODING 82
SWIDTH 700 0
DWIDTH 7 0
BBX 6 8 0 0
BITMAP
F8
CC
CC
D8
F0
D8
CC
CC
ENDCHAR
STARTCHAR g53
ENCODING 83
SWIDTH 600 0
DWIDTH 6 0
BBX 5 8 0 0
BITMAP
78
C0
E0
70
38
18
18
F0
ENDCHAR
STARTCHAR g54
ENCODING 84
SWIDTH 700 0
DWIDTH 7 0
BBX 6 8 0 0
BITMAP
FC
30
30
30
30
30
30
30
ENDCHAR
STARTCHAR g55
ENCODING 85
SWIDTH 800 0
DWIDTH 8 0
BBX 7 8 0 0
BITMAP
C6
C6
C6
C6
C6
C6
E4
78
ENDCHAR
STARTCHAR g56
ENCODING 86
SWIDTH 900 0
DWIDTH 9 0
BBX 8 8 0 0
BITMAP
C3
C3
62
66
34
3C
18
18
ENDCHAR
STARTCHAR g57
ENCODING 87
SWIDTH 1200 0
DWIDTH 12 0
BBX 11 8 0 0
BITMAP
C620
C620
C620
6B40
6B40
7BC0
3180
3180
ENDCHAR
STARTCHAR g58
ENCODING 88
SWIDTH 800 0
DWIDTH 8 0
BBX 7 8 0 0
BITMAP
C6
C6
6C
38
38
6C
C6
C6
ENDCHAR
STARTCHAR g59
ENCODING 89
SWIDTH 800 0
DWIDTH 8 0
BBX 8 8 0 0
BITMAP
E3
62
34
3C
18
18
18
18
ENDCHAR
STARTCHAR g60
ENCODING 90
SWIDTH 700 0
DWIDTH 7 0
BBX 6 8 0 0
BITMAP
FC
0C
18
30
30
60
C0
FC
ENDCHAR
STARTCHAR g61
ENCODING 91
SWIDTH 500 0
DWIDTH 5 0
BBX 4 10 0 -1
BITMAP
F0
C0
C0
C0
C0
C0
C0
C0
C0
F0
ENDCHAR
STARTCHAR g62
ENCODING 92
SWIDTH 600 0
DWIDTH 6 0
BBX 5 8 0 0
BITMAP
C0
C0
60
60
30
30
18
18
ENDCHAR
STARTCHAR g63
ENCODING 93
SWIDTH 500 0
DWIDTH 5 0
BBX 4 10 0 -1
BITMAP
F0
30
30
30
30
30
30
30
30
F0
ENDCHAR
STARTCHAR g64
ENCODING 94
SWIDTH 600 0
DWIDTH 6 0
BBX 5 6 0 2
BITMAP
20
20
70
50
D8
88
ENDCHAR
STARTCHAR g65
ENCODING 95
SWIDTH 600 0
DWIDTH 6 0
BBX 6 1 0 -1
BITMAP
FC
ENDCHAR
STARTCHAR g66
ENCODING 96
SWIDTH 400 0
DWIDTH 4 0
BBX 3 2 0 7
BITMAP
C0
20
ENDCHAR
STARTCHAR g67
ENCODING 97
SWIDTH 700 0
DWIDTH 7 0
BBX 6 6 0 0
BITMAP
78
0C
7C
CC
DC
6C
ENDCHAR
STARTCHAR g68
ENCODING 98
SWIDTH 700 0
DWIDTH 7 0
BBX 6 8 0 0
BITMAP
C0
C0
D8
EC
CC
CC
CC
F8
ENDCHAR
STARTCHAR g69
ENCODING 99
SWIDTH 600 0
DWIDTH 6 0
BBX 5 6 0 0
BITMAP
78
C0
C0
C0
C0
78
ENDCHAR
STARTCHAR g70
ENCODING 100
SWIDTH 700 0
DWIDTH 7 0
BBX 6 8 0 0
BITMAP
0C
0C
7C
CC
CC
CC
CC
74
ENDCHAR
STARTCHAR g71
ENCODING 101
SWIDTH 700 0
DWIDTH 7 0
BBX 6 6 0 0
BITMAP
78
CC
FC
C0
C0
7C
ENDCHAR
STARTCHAR g72
ENCODING 102
SWIDTH 500 0
DWIDTH 5 0
BBX 5 8 0 0
BITMAP
38
60
F0
60
60
60
60
60
ENDCHAR
STARTCHAR g73
ENCODING 103
SWIDTH 700 0
DWIDTH 7 0
BBX 6 8 0 -2
BITMAP
7C
CC
CC
CC
DC
6C
0C
78
ENDCHAR
STARTCHAR g74
ENCODING 104
SWIDTH 700 0
DWIDTH 7 0
BBX 6 8 0 0
BITMAP
C0
C0
D8
EC
CC
CC
CC
CC
ENDCHAR
STARTCHAR g75
ENCODING 105
SWIDTH 300 0
DWIDTH 3 0
BBX 2 8 0 0
BITMAP
C0
00
C0
C0
C0
C0
C0
C0
ENDCHAR
STARTCHAR g76
ENCODING 106
SWIDTH 400 0
DWIDTH 4 0
BBX 4 10 -1 -2
BITMAP
30
00
30
30
30
30
30
30
30
E0
ENDCHAR
STARTCHAR g77
ENCODING 107
SWIDTH 700 0
DWIDTH 7 0
BBX 6 8 0 0
BITMAP
C0
C0
CC
D8
F0
F0
D8
CC
ENDCHAR
STARTCHAR g78
ENCODING 108
SWIDTH 300 0
DWIDTH 3 0
BBX 2 8 0 0
BITMAP
C0
C0
C0
C0
C0
C0
C0
C0
ENDCHAR
STARTCHAR g79
ENCODING 109
SWIDTH 1100 0
DWIDTH 11 0
BBX 10 6 0 0
BITMAP
D980
EEC0
CCC0
CCC0
CCC0
CCC0
ENDCHAR
STARTCHAR g80
ENCODING 110
SWIDTH 700 0
DWIDTH 7 0
BBX 6 6 0 0
BITMAP
D8
EC
CC
CC
CC
CC
ENDCHAR
STARTCHAR g81
ENCODING 111
SWIDTH 700 0
DWIDTH 7 0
BBX 6 6 0 0
BITMAP
78
CC
CC
CC
CC
78
ENDCHAR
STARTCHAR g82
ENCODING 112
SWIDTH 700 0
DWIDTH 7 0
BBX 6 8 0 -2
BITMAP
D8
EC
CC
CC
CC
F8
C0
C0
ENDCHAR
STARTCHAR g83
ENCODING 113
SWIDTH 700 0
DWIDTH 7 0
BBX 6 8 0 -2
BITMAP
7C
CC
CC
CC
DC
6C
0C
0C
ENDCHAR
STARTCHAR g84
ENCODING 114
SWIDTH 500 0
DWIDTH 5 0
BBX 4 6 0 0
BITMAP
D0
F0
C0
C0
C0
C0
ENDCHAR
STARTCHAR g85
ENCODING 115
SWIDTH 500 0
DWIDTH 5 0
BBX 4 6 0 0
BITMAP
70
C0
E0
70
30
E0
ENDCHAR
STARTCHAR g86
ENCODING 116
SWIDTH 500 0
DWIDTH 5 0
BBX 4 7 0 0
BITMAP
60
F0
60
60
60
60
30
ENDCHAR
STARTCHAR g87
ENCODING 117
SWIDTH 700 0
DWIDTH 7 0
BBX 6 6 0 0
BITMAP
CC
CC
CC
CC
DC
6C
ENDCHAR
STARTCHAR g88
ENCODING 118
SWIDTH 700 0
DWIDTH 7 0
BBX 6 6 0 0
BITMAP
CC
CC
68
78
30
30
ENDCHAR
STARTCHAR g89
ENCODING 119
SWIDTH 1100 0
DWIDTH 11 0
BBX 10 6 0 0
BITMAP
CCC0
CCC0
6D80
7F80
3300
3300
ENDCHAR
STARTCHAR g90
ENCODING 120
SWIDTH 800 0
DWIDTH 8 0
BBX 7 6 0 0
BITMAP
E6
6C
38
38
6C
CE
ENDCHAR
STARTCHAR g91
ENCODING 121
SWIDTH 800 0
DWIDTH 8 0
BBX 7 8 0 -2
BITMAP
C6
C6
6C
68
38
30
30
E0
ENDCHAR
STARTCHAR g92
ENCODING 122
SWIDTH 600 0
DWIDTH 6 0
BBX 5 6 0 0
BITMAP
F8
18
30
60
C0
F8
ENDCHAR
STARTCHAR g93
ENCODING 123
SWIDTH 500 0
DWIDTH 5 0
BBX 4 11 0 -2
BITMAP
30
60
60
60
60
C0
60
60
60
60
30
ENDCHAR
STARTCHAR g94
ENCODING 124
SWIDTH 500 0
DWIDTH 5 0
BBX 2 11 1 -2
BITMAP
C0
C0
C0
C0
C0
00
C0
C0
C0
C0
C0
ENDCHAR
STARTCHAR g95
ENCODING 125
SWIDTH 500 0
DWIDTH 5 0
BBX 4 11 0 -2
BITMAP
C0
60
60
60
60
30
60
60
60
60
C0
ENDCHAR
STARTCHAR g96
ENCODING 126
SWIDTH 700 0
DWIDTH 7 0
BBX 6 3 0 4
BITMAP
64
B4
98
ENDCHAR
STARTCHAR g97
ENCODING 127
SWIDTH 700 0
DWIDTH 7 0
BBX 0 0 0 0
BITMAP
ENDCHAR
STARTCHAR g98
ENCODING 161
SWIDTH 400 0
DWIDTH 4 0
BBX 2 8 1 -2
BITMAP
C0
C0
00
C0
C0
C0
C0
C0
ENDCHAR
STARTCHAR g99
ENCODING 162
SWIDTH 600 0
DWIDTH 6 0
BBX 5 8 0 -1
BITMAP
10
78
D0
D0
D0
D0
78
10
ENDCHAR
STARTCHAR g100
ENCODING 163
SWIDTH 700 0
DWIDTH 7 0
BBX 6 8 0 0
BITMAP
38
60
60
F8
60
60
60
FC
ENDCHAR
STARTCHAR g101
ENCODING 164
SWIDTH 800 0
DWIDTH 8 0
BBX 7 7 0 0
BITMAP
BA
7C
C6
C6
C6
7C
BA
ENDCHAR
STARTCHAR g102
ENCODING 165
SWIDTH 900 0
DWIDTH 9 0
BBX 8 8 0 0
BITMAP
E3
62
34
FF
18
FF
18
18
ENDCHAR
STARTCHAR g103
ENCODING 167
SWIDTH 700 0
DWIDTH 7 0
BBX 6 9 0 0
BITMAP
78
CC
C0
78
CC
78
0C
CC
78
ENDCHAR
STARTCHAR g104
ENCODING 168
SWIDTH 500 0
DWIDTH 5 0
BBX 4 2 0 7
BITMAP
90
90
ENDCHAR
STARTCHAR g105
ENCODING 169
SWIDTH 800 0
DWIDTH 8 0
BBX 7 7 0 0
BITMAP
38
44
BA
A2
BA
44
38
ENDCHAR
STARTCHAR g106
ENCODING 170
SWIDTH 600 0
DWIDTH 6 0
BBX 5 6 0 2
BITMAP
78
D8
D8
68
00
F8
ENDCHAR
STARTCHAR g107
ENCODING 171
SWIDTH 800 0
DWIDTH 8 0
BBX 7 5 0 1
BITMAP
36
6C
D8
6C
36
ENDCHAR
STARTCHAR g108
ENCODING 172
SWIDTH 700 0
DWIDTH 7 0
BBX 6 3 0 2
BITMAP
FC
04
04
ENDCHAR
STARTCHAR g109
ENCODING 174
SWIDTH 800 0
DWIDTH 8 0
BBX 7 7 0 0
BITMAP
38
44
BA
B2
AA
44
38
ENDCHAR
STARTCHAR g110
ENCODING 175
SWIDTH 400 0
DWIDTH 4 0
BBX 3 1 0 7
BITMAP
E0
ENDCHAR
STARTCHAR g111
ENCODING 176
SWIDTH 500 0
DWIDTH 5 0
BBX 4 4 0 4
BITMAP
60
90
90
60
ENDCHAR
STARTCHAR g112
ENCODING 177
SWIDTH 600 0
DWIDTH 6 0
BBX 5 6 0 1
BITMAP
20
20
F8
20
20
F8
ENDCHAR
STARTCHAR g113
ENCODING 180
SWIDTH 400 0
DWIDTH 4 0
BBX 3 2 0 7
BITMAP
60
80
ENDCHAR
STARTCHAR g114
ENCODING 181
SWIDTH 700 0
DWIDTH 7 0
BBX 6 8 0 -2
BITMAP
CC
CC
CC
CC
DC
EC
C0
C0
ENDCHAR
STARTCHAR g115
ENCODING 182
SWIDTH 800 0
DWIDTH 8 0
BBX 7 8 0 0
BITMAP
7E
F6
F6
F6
76
16
16
16
ENDCHAR
STARTCHAR g116
ENCODING 183
SWIDTH 500 0
DWIDTH 5 0
BBX 2 2 1 3
BITMAP
C0
C0
ENDCHAR
STARTCHAR g117
ENCODING 184
SWIDTH 400 0
DWIDTH 4 0
BBX 3 3 0 -2
BITMAP
40
20
C0
ENDCHAR
STARTCHAR g118
ENCODING 186
SWIDTH 600 0
DWIDTH 6 0
BBX 5 6 0 2
BITMAP
70
D8
D8
70
00
F8
ENDCHAR
STARTCHAR g119
ENCODING 187
SWIDTH 800 0
DWIDTH 8 0
BBX 7 5 0 1
BITMAP
D8
6C
36
6C
D8
ENDCHAR
STARTCHAR g120
ENCODING 191
SWIDTH 600 0
DWIDTH 6 0
BBX 5 8 0 -2
BITMAP
30
30
00
30
70
C0
C0
78
ENDCHAR
STARTCHAR g121
ENCODING 192
SWIDTH 900 0
DWIDTH 9 0
BBX 8 11 0 0
BITMAP
30
08
00
18
18
3C
2C
66
7E
C3
C3
ENDCHAR
STARTCHAR g122
ENCODING 193
SWIDTH 900 0
DWIDTH 9 0
BBX 8 11 0 0
BITMAP
0C
10
00
18
18
3C
2C
66
7E
C3
C3
ENDCHAR
STARTCHAR g123
ENCODING 194
SWIDTH 900 0
DWIDTH 9 0
BBX 8 11 0 0
BITMAP
18
24
00
18
18
3C
2C
66
7E
C3
C3
ENDCHAR
STARTCHAR g124
ENCODING 195
SWIDTH 900 0
DWIDTH 9 0
BBX 8 11 0 0
BITMAP
32
4C
00
18
18
3C
2C
66
7E
C3
C3
ENDCHAR
STARTCHAR g125
ENCODING 196
SWIDTH 900 0
DWIDTH 9 0
BBX 8 10 0 0
BITMAP
24
00
18
18
3C
2C
66
7E
C3
C3
ENDCHAR
STARTCHAR g126
ENCODING 197
SWIDTH 900 0
DWIDTH 9 0
BBX 8 11 0 0
BITMAP
18
24
18
18
18
3C
2C
66
7E
C3
C3
ENDCHAR
STARTCHAR g127
ENCODING 198
SWIDTH 1200 0
DWIDTH 12 0
BBX 12 8 -1 0
BITMAP
07F0
0D80
0980
19E0
3F80
2180
6180
C1F0
ENDCHAR
STARTCHAR g128
ENCODING 199
SWIDTH 700 0
DWIDTH 7 0
BBX 6 10 0 -2
BITMAP
3C
60
C0
C0
C0
C0
60
3C
10
30
ENDCHAR
STARTCHAR g129
ENCODING 200
SWIDTH 600 0
DWIDTH 6 0
BBX 5 11 0 0
BITMAP
60
10
00
F8
C0
C0
F0
C0
C0
C0
F8
ENDCHAR
STARTCHAR g130
ENCODING 201
SWIDTH 600 0
DWIDTH 6 0
BBX 5 11 0 0
BITMAP
18
20
00
F8
C0
C0
F0
C0
C0
C0
F8
ENDCHAR
STARTCHAR g131
ENCODING 202
SWIDTH 600 0
DWIDTH 6 0
BBX 5 11 0 0
BITMAP
30
48
00
F8
C0
C0
F0
C0
C0
C0
F8
ENDCHAR
STARTCHAR g132
ENCODING 203
SWIDTH 600 0
DWIDTH 6 0
BBX 5 10 0 0
BITMAP
48
00
F8
C0
C0
F0
C0
C0
C0
F8
ENDCHAR
STARTCHAR g133
ENCODING 204
SWIDTH 300 0
DWIDTH 3 0
BBX 3 11 -1 0
BITMAP
C0
20
00
60
60
60
60
60
60
60
60
ENDCHAR
STARTCHAR g134
ENCODING 205
SWIDTH 300 0
DWIDTH 3 0
BBX 3 11 0 0
BITMAP
60
80
00
C0
C0
C0
C0
C0
C0
C0
C0
ENDCHAR
STARTCHAR g135
ENCODING 206
SWIDTH 300 0
DWIDTH 3 0
BBX 4 11 -1 0
BITMAP
60
90
00
60
60
60
60
60
60
60
60
ENDCHAR
STARTCHAR g136
ENCODING 207
SWIDTH 300 0
DWIDTH 3 0
BBX 4 10 -1 0
BITMAP
90
00
60
60
60
60
60
60
60
60
ENDCHAR
STARTCHAR g137
ENCODING 209
SWIDTH 700 0
DWIDTH 7 0
BBX 6 11 0 0
BITMAP
34
58
00
84
C4
E4
F4
BC
9C
8C
84
ENDCHAR
STARTCHAR g138
ENCODING 210
SWIDTH 900 0
DWIDTH 9 0
BBX 8 11 0 0
BITMAP
30
08
00
3C
66
C3
C3
C3
C3
66
3C
ENDCHAR
STARTCHAR g139
ENCODING 211
SWIDTH 900 0
DWIDTH 9 0
BBX 8 11 0 0
BITMAP
0C
10
00
3C
66
C3
C3
C3
C3
66
3C
ENDCHAR
STARTCHAR g140
ENCODING 212
SWIDTH 900 0
DWIDTH 9 0
BBX 8 11 0 0
BITMAP
18
24
00
3C
66
C3
C3
C3
C3
66
3C
ENDCHAR
STARTCHAR g141
ENCODING 213
SWIDTH 900 0
DWIDTH 9 0
BBX 8 11 0 0
BITMAP
32
4C
00
3C
66
C3
C3
C3
C3
66
3C
ENDCHAR
STARTCHAR g142
ENCODING 214
SWIDTH 900 0
DWIDTH 9 0
BBX 8 10 0 0
BITMAP
24
00
3C
66
C3
C3
C3
C3
66
3C
ENDCHAR
STARTCHAR g143
ENCODING 216
SWIDTH 900 0
DWIDTH 9 0
BBX 8 8 0 0
BITMAP
3D
66
C7
CB
D3
E3
66
BC
ENDCHAR
STARTCHAR g144
ENCODING 217
SWIDTH 800 0
DWIDTH 8 0
BBX 7 11 0 0
BITMAP
60
10
00
C6
C6
C6
C6
C6
C6
E4
78
ENDCHAR
STARTCHAR g145
ENCODING 218
SWIDTH 800 0
DWIDTH 8 0
BBX 7 11 0 0
BITMAP
0C
10
00
C6
C6
C6
C6
C6
C6
E4
78
ENDCHAR
STARTCHAR g146
ENCODING 219
SWIDTH 800 0
DWIDTH 8 0
BBX 7 11 0 0
BITMAP
18
24
00
C6
C6
C6
C6
C6
C6
E4
78
ENDCHAR
STARTCHAR g147
ENCODING 220
SWIDTH 800 0
DWIDTH 8 0
BBX 7 10 0 0
BITMAP
24
00
C6
C6
C6
C6
C6
C6
E4
78
ENDCHAR
STARTCHAR g148
ENCODING 223
SWIDTH 700 0
DWIDTH 7 0
BBX 6 8 0 0
BITMAP
78
CC
CC
D8
CC
CC
CC
D8
ENDCHAR
STARTCHAR g149
ENCODING 224
SWIDTH 700 0
DWIDTH 7 0
BBX 6 9 0 0
BITMAP
60
10
00
78
0C
7C
CC
DC
6C
ENDCHAR
STARTCHAR g150
ENCODING 225
SWIDTH 700 0
DWIDTH 7 0
BBX 6 9 0 0
BITMAP
18
20
00
78
0C
7C
CC
DC
6C
ENDCHAR
STARTCHAR g151
ENCODING 226
SWIDTH 700 0
DWIDTH 7 0
BBX 6 9 0 0
BITMAP
30
48
00
78
0C
7C
CC
DC
6C
ENDCHAR
STARTCHAR g152
ENCODING 227
SWIDTH 700 0
DWIDTH 7 0
BBX 6 9 0 0
BITMAP
34
58
00
78
0C
7C
CC
DC
6C
ENDCHAR
STARTCHAR g153
ENCODING 228
SWIDTH 700 0
DWIDTH 7 0
BBX 6 8 0 0
BITMAP
48
00
78
0C
7C
CC
DC
6C
ENDCHAR
STARTCHAR g154
ENCODING 229
SWIDTH 700 0
DWIDTH 7 0
BBX 6 9 0 0
BITMAP
30
48
30
78
0C
7C
CC
DC
6C
ENDCHAR
STARTCHAR g155
ENCODING 230
SWIDTH 1100 0
DWIDTH 11 0
BBX 10 6 0 0
BITMAP
7F80
0CC0
7FC0
CC00
DC00
67C0
ENDCHAR
STARTCHAR g156
ENCODING 231
SWIDTH 700 0
DWIDTH 7 0
BBX 6 8 0 -2
BITMAP
78
CC
C0
C0
CC
78
20
60
ENDCHAR
STARTCHAR g157
ENCODING 232
SWIDTH 700 0
DWIDTH 7 0
BBX 6 9 0 0
BITMAP
60
10
00
78
CC
FC
C0
C0
7C
ENDCHAR
STARTCHAR g158
ENCODING 233
SWIDTH 700 0
DWIDTH 7 0
BBX 6 9 0 0
BITMAP
18
20
00
78
CC
FC
C0
C0
7C
ENDCHAR
STARTCHAR g159
ENCODING 234
SWIDTH 700 0
DWIDTH 7 0
BBX 6 9 0 0
BITMAP
30
48
00
78
CC
FC
C0
C0
7C
ENDCHAR
STARTCHAR g160
ENCODING 235
SWIDTH 700 0
DWIDTH 7 0
BBX 6 8 0 0
BITMAP
48
00
78
CC
FC
C0
C0
7C
ENDCHAR
STARTCHAR g161
ENCODING 236
SWIDTH 300 0
DWIDTH 3 0
BBX 3 9 -1 0
BITMAP
C0
20
00
60
60
60
60
60
60
ENDCHAR
STARTCHAR g162
ENCODING 237
SWIDTH 300 0
DWIDTH 3 0
BBX 3 9 0 0
BITMAP
60
80
00
C0
C0
C0
C0
C0
C0
ENDCHAR
STARTCHAR g163
ENCODING 238
SWIDTH 300 0
DWIDTH 3 0
BBX 4 9 -1 0
BITMAP
60
90
00
60
60
60
60
60
60
ENDCHAR
STARTCHAR g164
ENCODING 239
SWIDTH 300 0
DWIDTH 3 0
BBX 4 8 -1 0
BITMAP
90
00
60
60
60
60
60
60
ENDCHAR
STARTCHAR g165
ENCODING 241
SWIDTH 700 0
DWIDTH 7 0
BBX 6 9 0 0
BITMAP
34
58
00
D8
EC
CC
CC
CC
CC
ENDCHAR
STARTCHAR g166
ENCODING 242
SWIDTH 700 0
DWIDTH 7 0
BBX 6 9 0 0
BITMAP
60
10
00
78
CC
CC
CC
CC
78
ENDCHAR
STARTCHAR g167
ENCODING 243
SWIDTH 700 0
DWIDTH 7 0
BBX 6 9 0 0
BITMAP
18
20
00
78
CC
CC
CC
CC
78
ENDCHAR
STARTCHAR g168
ENCODING 244
SWIDTH 700 0
DWIDTH 7 0
BBX 6 9 0 0
BITMAP
30
48
00
78
CC
CC
CC
CC
78
ENDCHAR
STARTCHAR g169
ENCODING 245
SWIDTH 700 0
DWIDTH 7 0
BBX 6 9 0 0
BITMAP
34
58
00
78
CC
CC
CC
CC
78
ENDCHAR
STARTCHAR g170
ENCODING 246
SWIDTH 700 0
DWIDTH 7 0
BBX 6 8 0 0
BITMAP
48
00
78
CC
CC
CC
CC
78
ENDCHAR
STARTCHAR g171
ENCODING 247
SWIDTH 600 0
DWIDTH 6 0
BBX 5 5 0 1
BITMAP
20
00
F8
00
20
ENDCHAR
STARTCHAR g172
ENCODING 248
SWIDTH 700 0
DWIDTH 7 0
BBX 6 8 0 -1
BITMAP
04
78
CC
DC
EC
CC
78
80
ENDCHAR
STARTCHAR g173
ENCODING 249
SWIDTH 700 0
DWIDTH 7 0
BBX 6 9 0 0
BITMAP
60
10
00
CC
CC
CC
CC
DC
6C
ENDCHAR
STARTCHAR g174
ENCODING 250
SWIDTH 700 0
DWIDTH 7 0
BBX 6 9 0 0
BITMAP
18
20
00
CC
CC
CC
CC
DC
6C
ENDCHAR
STARTCHAR g175
ENCODING 251
SWIDTH 700 0
DWIDTH 7 0
BBX 6 9 0 0
BITMAP
30
48
00
CC
CC
CC
CC
DC
6C
ENDCHAR
STARTCHAR g176
ENCODING 252
SWIDTH 700 0
DWIDTH 7 0
BBX 6 8 0 0
BITMAP
48
00
CC
CC
CC
CC
DC
6C
ENDCHAR
STARTCHAR g177
ENCODING 255
SWIDTH 800 0
DWIDTH 8 0
BBX 7 10 0 -2
BITMAP
24
00
C6
C6
6C
68
38
30
30
E0
ENDCHAR
STARTCHAR g178
ENCODING 305
SWIDTH 300 0
DWIDTH 3 0
BBX 2 6 0 0
BITMAP
C0
C0
C0
C0
C0
C0
ENDCHAR
STARTCHAR g179
ENCODING 338
SWIDTH 1200 0
DWIDTH 12 0
BBX 11 8 0 0
BITMAP
3FE0
6300
C300
C3C0
C300
C300
6300
3FE0
ENDCHAR
STARTCHAR g180
ENCODING 339
SWIDTH 1100 0
DWIDTH 11 0
BBX 10 6 0 0
BITMAP
7780
CCC0
CFC0
CC00
CC00
7BC0
ENDCHAR
STARTCHAR g181
ENCODING 376
SWIDTH 800 0
DWIDTH 8 0
BBX 8 10 0 0
BITMAP
24
00
E3
62
34
3C
18
18
18
18
ENDCHAR
STARTCHAR g182
ENCODING 402
SWIDTH 800 0
DWIDTH 8 0
BBX 8 10 -1 -1
BITMAP
07
0C
0C
3E
18
18
38
30
30
E0
ENDCHAR
STARTCHAR g183
ENCODING 710
SWIDTH 500 0
DWIDTH 5 0
BBX 4 2 0 7
BITMAP
60
90
ENDCHAR
STARTCHAR g184
ENCODING 711
SWIDTH 400 0
DWIDTH 4 0
BBX 3 2 0 7
BITMAP
A0
40
ENDCHAR
STARTCHAR g185
ENCODING 728
SWIDTH 500 0
DWIDTH 5 0
BBX 4 2 0 7
BITMAP
90
60
ENDCHAR
STARTCHAR g186
ENCODING 729
SWIDTH 200 0
DWIDTH 2 0
BBX 1 1 0 7
BITMAP
80
ENDCHAR
STARTCHAR g187
ENCODING 730
SWIDTH 500 0
DWIDTH 5 0
BBX 4 3 0 6
BITMAP
60
90
60
ENDCHAR
STARTCHAR g188
ENCODING 731
SWIDTH 400 0
DWIDTH 4 0
BBX 3 3 0 -2
BITMAP
40
80
60
ENDCHAR
STARTCHAR g189
ENCODING 732
SWIDTH 600 0
DWIDTH 6 0
BBX 5 2 0 7
BITMAP
68
B0
ENDCHAR
STARTCHAR g190
ENCODING 733
SWIDTH 600 0
DWIDTH 6 0
BBX 5 2 0 7
BITMAP
48
90
ENDCHAR
STARTCHAR g191
ENCODING 960
SWIDTH 800 0
DWIDTH 8 0
BBX 7 6 0 0
BITMAP
FE
6C
6C
6C
6C
6C
ENDCHAR
STARTCHAR g192
ENCODING 8211
SWIDTH 700 0
DWIDTH 7 0
BBX 6 1 0 3
BITMAP
FC
ENDCHAR
STARTCHAR g193
ENCODING 8212
SWIDTH 1100 0
DWIDTH 11 0
BBX 10 1 0 3
BITMAP
FFC0
ENDCHAR
STARTCHAR g194
ENCODING 8216
SWIDTH 300 0
DWIDTH 3 0
BBX 2 4 0 5
BITMAP
40
80
C0
C0
ENDCHAR
STARTCHAR g195
ENCODING 8217
SWIDTH 300 0
DWIDTH 3 0
BBX 2 4 0 5
BITMAP
C0
C0
40
80
ENDCHAR
STARTCHAR g196
ENCODING 8218
SWIDTH 400 0
DWIDTH 4 0
BBX 2 4 1 -2
BITMAP
C0
C0
40
80
ENDCHAR
STARTCHAR g197
ENCODING 8220
SWIDTH 600 0
DWIDTH 6 0
BBX 5 4 0 5
BITMAP
48
90
D8
D8
ENDCHAR
STARTCHAR g198
ENCODING 8221
SWIDTH 600 0
DWIDTH 6 0
BBX 5 4 0 5
BITMAP
D8
D8
48
90
ENDCHAR
STARTCHAR g199
ENCODING 8222
SWIDTH 700 0
DWIDTH 7 0
BBX 5 4 1 -2
BITMAP
D8
D8
48
90
ENDCHAR
STARTCHAR g200
ENCODING 8224
SWIDTH 500 0
DWIDTH 5 0
BBX 4 5 0 4
BITMAP
60
F0
60
60
60
ENDCHAR
STARTCHAR g201
ENCODING 8225
SWIDTH 700 0
DWIDTH 7 0
BBX 6 10 0 -2
BITMAP
30
30
FC
30
30
30
30
FC
30
30
ENDCHAR
STARTCHAR g202
ENCODING 8226
SWIDTH 700 0
DWIDTH 7 0
BBX 5 4 0 2
BITMAP
70
F8
F8
70
ENDCHAR
STARTCHAR g203
ENCODING 8230
SWIDTH 1300 0
DWIDTH 13 0
BBX 10 2 1 0
BITMAP
CCC0
CCC0
ENDCHAR
STARTCHAR g204
ENCODING 8240
SWIDTH 1700 0
DWIDTH 17 0
BBX 16 8 0 0
BITMAP
70C0
D980
DB00
7600
06EE
0DBB
19BB
30EE
ENDCHAR
STARTCHAR g205
ENCODING 8249
SWIDTH 500 0
DWIDTH 5 0
BBX 4 5 0 1
BITMAP
30
60
C0
60
30
ENDCHAR
STARTCHAR g206
ENCODING 8250
SWIDTH 500 0
DWIDTH 5 0
BBX 4 5 0 1
BITMAP
C0
60
30
60
C0
ENDCHAR
STARTCHAR g207
ENCODING 8260
SWIDTH 600 0
DWIDTH 6 0
BBX 5 8 0 0
BITMAP
18
18
30
30
60
60
C0
C0
ENDCHAR
STARTCHAR g208
ENCODING 8482
SWIDTH 1000 0
DWIDTH 10 0
BBX 9 4 0 4
BITMAP
E880
4D80
4A80
4A80
ENDCHAR
STARTCHAR g209
ENCODING 8486
SWIDTH 900 0
DWIDTH 9 0
BBX 8 8 0 0
BITMAP
3C
66
C3
C3
C3
42
24
E7
ENDCHAR
STARTCHAR g210
ENCODING 8706
SWIDTH 700 0
DWIDTH 7 0
BBX 6 8 0 0
BITMAP
38
0C
0C
7C
CC
CC
CC
78
ENDCHAR
STARTCHAR g211
ENCODING 8710
SWIDTH 900 0
DWIDTH 9 0
BBX 8 8 0 0
BITMAP
18
18
2C
2C
46
46
83
FF
ENDCHAR
STARTCHAR g212
ENCODING 8719
SWIDTH 900 0
DWIDTH 9 0
BBX 8 9 0 -1
BITMAP
FF
66
66
66
66
66
66
66
66
ENDCHAR
STARTCHAR g213
ENCODING 8721
SWIDTH 700 0
DWIDTH 7 0
BBX 6 9 0 -1
BITMAP
FC
C0
60
30
18
30
60
C0
FC
ENDCHAR
STARTCHAR g214
ENCODING 8730
SWIDTH 800 0
DWIDTH 8 0
BBX 8 9 0 -1
BITMAP
03
02
06
C4
6C
28
38
10
10
ENDCHAR
STARTCHAR g215
ENCODING 8734
SWIDTH 1000 0
DWIDTH 10 0
BBX 10 4 0 2
BITMAP
7B80
CEC0
DCC0
7780
ENDCHAR
STARTCHAR g216
ENCODING 8747
SWIDTH 500 0
DWIDTH 5 0
BBX 4 12 0 -2
BITMAP
30
60
60
60
60
60
60
60
60
60
60
C0
ENDCHAR
STARTCHAR g217
ENCODING 8776
SWIDTH 700 0
DWIDTH 7 0
BBX 6 5 0 1
BITMAP
64
98
00
64
98
ENDCHAR
STARTCHAR g218
ENCODING 8800
SWIDTH 600 0
DWIDTH 6 0
BBX 5 5 0 1
BITMAP
10
F8
20
F8
40
ENDCHAR
STARTCHAR g219
ENCODING 8804
SWIDTH 600 0
DWIDTH 6 0
BBX 5 7 0 0
BITMAP
18
70
C0
70
18
00
F8
ENDCHAR
STARTCHAR g220
ENCODING 8805
SWIDTH 600 0
DWIDTH 6 0
BBX 5 7 0 0
BITMAP
C0
70
18
70
C0
00
F8
ENDCHAR
STARTCHAR g221
ENCODING 9674
SWIDTH 600 0
DWIDTH 6 0
BBX 5 10 0 -1
BITMAP
20
20
50
50
88
88
50
50
20
20
ENDCHAR
STARTCHAR g222
ENCODING 63252
SWIDTH 800 0
DWIDTH 8 0
BBX 7 8 0 0
BITMAP
7C
C6
C6
D6
D6
C6
C6
7C
ENDCHAR
STARTCHAR g223
ENCODING 63253
SWIDTH 500 0
DWIDTH 5 0
BBX 4 8 0 0
BITMAP
F0
60
60
60
60
60
60
F0
ENDCHAR
STARTCHAR g224
ENCODING 63254
SWIDTH 500 0
DWIDTH 5 0
BBX 4 8 0 0
BITMAP
E0
60
60
60
60
60
60
70
ENDCHAR
STARTCHAR g225
ENCODING 63487
SWIDTH 800 0
DWIDTH 8 0
BBX 0 0 0 0
BITMAP
ENDCHAR
STARTCHAR g226
ENCODING 64257
SWIDTH 800 0
DWIDTH 8 0
BBX 7 8 0 0
BITMAP
3C
60
FE
66
66
66
66
66
ENDCHAR
STARTCHAR g227
ENCODING 64258
SWIDTH 800 0
DWIDTH 8 0
BBX 7 8 0 0
BITMAP
3E
66
F6
66
66
66
66
66
ENDCHAR
STARTCHAR g228
ENCODING 64512
SWIDTH 1500 0
DWIDTH 15 0
BBX 11 8 2 0
BITMAP
7FC0
F1E0
DF60
1100
3180
71C0
7FC0
7FC0
ENDCHAR
STARTCHAR g229
ENCODING 64513
SWIDTH 1400 0
DWIDTH 14 0
BBX 8 8 3 0
BITMAP
18
3C
7E
FF
FF
7E
3C
18
ENDCHAR
STARTCHAR g230
ENCODING 64514
SWIDTH 1400 0
DWIDTH 14 0
BBX 0 0 0 0
BITMAP
ENDCHAR
STARTCHAR g231
ENCODING 64515
SWIDTH 1400 0
DWIDTH 14 0
BBX 7 7 3 0
BITMAP
02
06
0A
12
22
42
FE
ENDCHAR
STARTCHAR g232
ENCODING 64516
SWIDTH 1400 0
DWIDTH 14 0
BBX 9 7 2 0
BITMAP
0380
7C00
8A00
1100
1100
1100
0E00
ENDCHAR
STARTCHAR g233
ENCODING 64517
SWIDTH 1500 0
DWIDTH 15 0
BBX 12 12 0 -2
BITMAP
0F00
3FC0
70E0
6660
C030
CE30
C630
C630
6F60
70E0
3FC0
0F00
ENDCHAR
STARTCHAR g234
ENCODING 64518
SWIDTH 1400 0
DWIDTH 14 0
BBX 7 7 4 0
BITMAP
80
C0
A0
90
88
84
FE
ENDCHAR
STARTCHAR g235
ENCODING 64519
SWIDTH 1400 0
DWIDTH 14 0
BBX 12 7 1 0
BITMAP
0F00
30C0
4020
8010
8010
8F10
70E0
ENDCHAR
STARTCHAR g236
ENCODING 64520
SWIDTH 1000 0
DWIDTH 10 0
BBX 9 7 0 0
BITMAP
6300
9480
7F00
1400
7F00
9480
6300
ENDCHAR
STARTCHAR g237
ENCODING 64521
SWIDTH 500 0
DWIDTH 5 0
BBX 4 6 0 0
BITMAP
F0
90
90
90
90
F0
ENDCHAR
STARTCHAR g238
ENCODING 64522
SWIDTH 1100 0
DWIDTH 11 0
BBX 0 0 0 0
BITMAP
ENDCHAR
STARTCHAR g239
ENCODING 64523
SWIDTH 1100 0
DWIDTH 11 0
BBX 10 9 0 0
BITMAP
00C0
0180
0300
6600
EE00
3C00
3C00
1800
1000
ENDCHAR
STARTCHAR g240
ENCODING 64524
SWIDTH 500 0
DWIDTH 5 0
BBX 4 6 0 0
BITMAP
F0
90
90
90
90
F0
ENDCHAR
STARTCHAR g241
ENCODING 64525
SWIDTH 500 0
DWIDTH 5 0
BBX 4 6 0 0
BITMAP
F0
90
90
90
90
F0
ENDCHAR
STARTCHAR g242
ENCODING 64526
SWIDTH 500 0
DWIDTH 5 0
BBX 4 6 0 0
BITMAP
F0
90
90
90
90
F0
ENDCHAR
STARTCHAR g243
ENCODING 64527
SWIDTH 500 0
DWIDTH 5 0
BBX 4 6 0 0
BITMAP
F0
90
90
90
90
F0
ENDCHAR
ENDFONT
