STARTFONT 2.1
COMMENT Strike 4 of a Newton 'sfnt' font (bloc/bdat): tools/fonts/newtonsfnt.py,
COMMENT tools/fonts/README.md.  The builder reads the BLOC_* properties and the
COMMENT glyphs - STARTCHAR gN (N the glyph id; otherwise ENCODING through 'cmap'),
COMMENT DWIDTH (the advance), BBX (width, height, the bearing x, the bottom row's
COMMENT y: bearing y less the height) and the BITMAP rows.  A glyph id in the
COMMENT subtable ranges with no glyph here has no image (the missing glyph is 0).
COMMENT The other properties, SIZE, FONTBOUNDINGBOX and SWIDTH are worked out and
COMMENT not read back: change BLOC_HORI_* (the line metrics the ROM draws text by)
COMMENT to match an edit that changes the strike's extent.
FONT -Apple-Roman Regular-Medium-R-Normal--14-140-72-72-P-0-Apple-Roman
SIZE 14 72 72
FONTBOUNDINGBOX 19 18 -1 -3
STARTPROPERTIES 37
FONT_ASCENT 15
FONT_DESCENT 4
PIXEL_SIZE 14
FAMILY_NAME "Roman Regular"
BLOC_COLOR_REF 0
BLOC_HORI_ASCENDER 15
BLOC_HORI_DESCENDER -4
BLOC_HORI_WIDTH_MAX 19
BLOC_HORI_CARET_SLOPE_NUMERATOR 0
BLOC_HORI_CARET_SLOPE_DENOMINATOR 1
BLOC_HORI_CARET_OFFSET 0
BLOC_HORI_MIN_ORIGIN_SB -1
BLOC_HORI_MIN_ADVANCE_SB 0
BLOC_HORI_MAX_BEFORE_BL 15
BLOC_HORI_MIN_AFTER_BL -3
BLOC_HORI_PAD1 0
BLOC_HORI_PAD2 0
BLOC_VERT_ASCENDER 0
BLOC_VERT_DESCENDER -1
BLOC_VERT_WIDTH_MAX 18
BLOC_VERT_CARET_SLOPE_NUMERATOR 0
BLOC_VERT_CARET_SLOPE_DENOMINATOR 1
BLOC_VERT_CARET_OFFSET 0
BLOC_VERT_MIN_ORIGIN_SB -44
BLOC_VERT_MIN_ADVANCE_SB 96
BLOC_VERT_MAX_BEFORE_BL 0
BLOC_VERT_MIN_AFTER_BL -17
BLOC_VERT_PAD1 0
BLOC_VERT_PAD2 0
BLOC_START_GLYPH 0
BLOC_END_GLYPH 257
BLOC_PPEM_X 14
BLOC_PPEM_Y 14
BLOC_BIT_DEPTH 1
BLOC_FLAGS 1
BLOC_INDEX_SUBTABLES 1
BLOC_INDEX_SUBTABLE_0 "0 257 3 1 0"
ENDPROPERTIES
CHARS 244
STARTCHAR g0
ENCODING -1
SWIDTH 643 0
DWIDTH 9 0
BBX 8 11 0 0
BITMAP
FF
81
81
81
81
81
81
81
81
81
FF
ENDCHAR
STARTCHAR g1
ENCODING 0
SWIDTH 0 0
DWIDTH 0 0
BBX 0 0 0 0
BITMAP
ENDCHAR
STARTCHAR g2
ENCODING 1
SWIDTH 286 0
DWIDTH 4 0
BBX 0 0 0 0
BITMAP
ENDCHAR
STARTCHAR g3
ENCODING 2
SWIDTH 357 0
DWIDTH 5 0
BBX 3 11 1 0
BITMAP
E0
E0
E0
E0
E0
E0
E0
E0
00
E0
E0
ENDCHAR
STARTCHAR g4
ENCODING 3
SWIDTH 500 0
DWIDTH 7 0
BBX 5 4 1 8
BITMAP
D8
D8
D8
48
ENDCHAR
STARTCHAR g5
ENCODING 4
SWIDTH 1071 0
DWIDTH 15 0
BBX 13 10 1 0
BITMAP
0E70
0E70
1CE0
7FF8
1CE0
39C0
FFF0
39C0
7380
7380
ENDCHAR
STARTCHAR g6
ENCODING 5
SWIDTH 714 0
DWIDTH 10 0
BBX 8 15 1 -2
BITMAP
08
08
3E
E0
E0
F0
FC
7E
3F
0F
07
07
7C
10
10
ENDCHAR
STARTCHAR g7
ENCODING 6
SWIDTH 1000 0
DWIDTH 14 0
BBX 12 11 1 0
BITMAP
7070
D8E0
D9C0
DB80
7700
0700
0EE0
1DB0
39B0
71B0
E0E0
ENDCHAR
STARTCHAR g8
ENCODING 7
SWIDTH 1000 0
DWIDTH 14 0
BBX 12 11 1 0
BITMAP
3F00
7380
7380
7300
3E00
3E70
77E0
F3C0
F1C0
7BE0
3EF0
ENDCHAR
STARTCHAR g9
ENCODING 8
SWIDTH 286 0
DWIDTH 4 0
BBX 2 4 1 8
BITMAP
C0
C0
C0
40
ENDCHAR
STARTCHAR g10
ENCODING 9
SWIDTH 500 0
DWIDTH 7 0
BBX 5 14 1 -2
BITMAP
18
30
70
60
E0
E0
E0
E0
E0
E0
60
70
30
18
ENDCHAR
STARTCHAR g11
ENCODING 10
SWIDTH 500 0
DWIDTH 7 0
BBX 5 14 1 -2
BITMAP
C0
60
70
30
38
38
38
38
38
38
30
70
60
C0
ENDCHAR
STARTCHAR g12
ENCODING 11
SWIDTH 500 0
DWIDTH 7 0
BBX 5 6 1 6
BITMAP
20
A8
70
70
A8
20
ENDCHAR
STARTCHAR g13
ENCODING 12
SWIDTH 571 0
DWIDTH 8 0
BBX 6 5 1 3
BITMAP
30
30
FC
30
30
ENDCHAR
STARTCHAR g14
ENCODING 44
SWIDTH 357 0
DWIDTH 5 0
BBX 3 4 1 -2
BITMAP
E0
E0
20
C0
ENDCHAR
STARTCHAR g15
ENCODING 45
SWIDTH 500 0
DWIDTH 7 0
BBX 5 1 1 4
BITMAP
F8
ENDCHAR
STARTCHAR g16
ENCODING 46
SWIDTH 357 0
DWIDTH 5 0
BBX 3 2 1 0
BITMAP
E0
E0
ENDCHAR
STARTCHAR g17
ENCODING 47
SWIDTH 500 0
DWIDTH 7 0
BBX 7 12 0 -1
BITMAP
06
06
0C
0C
18
18
30
30
60
60
C0
C0
ENDCHAR
STARTCHAR g18
ENCODING 48
SWIDTH 786 0
DWIDTH 11 0
BBX 9 11 1 0
BITMAP
3E00
6300
E380
E380
E380
E380
E380
E380
E380
6300
3E00
ENDCHAR
STARTCHAR g19
ENCODING 49
SWIDTH 786 0
DWIDTH 11 0
BBX 6 11 2 0
BITMAP
1C
3C
7C
DC
9C
1C
1C
1C
1C
1C
1C
ENDCHAR
STARTCHAR g20
ENCODING 50
SWIDTH 786 0
DWIDTH 11 0
BBX 9 11 1 0
BITMAP
7F00
E780
E380
0380
0780
0F00
1C00
3800
7000
FF80
FF80
ENDCHAR
STARTCHAR g21
ENCODING 51
SWIDTH 786 0
DWIDTH 11 0
BBX 9 11 1 0
BITMAP
7F00
E780
C380
0380
0700
1E00
0700
0380
C380
E780
7F00
ENDCHAR
STARTCHAR g22
ENCODING 52
SWIDTH 786 0
DWIDTH 11 0
BBX 9 11 1 0
BITMAP
0300
0700
0F00
1F00
3700
6700
C700
FF80
0700
0700
0700
ENDCHAR
STARTCHAR g23
ENCODING 53
SWIDTH 786 0
DWIDTH 11 0
BBX 9 11 1 0
BITMAP
FF00
FF00
C000
C000
FF00
0780
0380
0380
C380
E700
7E00
ENDCHAR
STARTCHAR g24
ENCODING 54
SWIDTH 786 0
DWIDTH 11 0
BBX 9 11 1 0
BITMAP
0E00
3800
7000
E000
FE00
E700
E380
E380
E380
7700
3E00
ENDCHAR
STARTCHAR g25
ENCODING 55
SWIDTH 786 0
DWIDTH 11 0
BBX 9 11 1 0
BITMAP
FF80
FF80
0380
0700
0E00
0E00
1C00
1C00
3800
3800
3800
ENDCHAR
STARTCHAR g26
ENCODING 56
SWIDTH 786 0
DWIDTH 11 0
BBX 9 11 1 0
BITMAP
7F00
E380
E380
E380
6300
3E00
6300
E380
E380
E380
7F00
ENDCHAR
STARTCHAR g27
ENCODING 57
SWIDTH 786 0
DWIDTH 11 0
BBX 9 11 1 0
BITMAP
3E00
7700
E380
E380
E380
7380
3F80
0380
0700
0E00
3800
ENDCHAR
STARTCHAR g28
ENCODING 58
SWIDTH 357 0
DWIDTH 5 0
BBX 3 8 1 0
BITMAP
E0
E0
00
00
00
00
E0
E0
ENDCHAR
STARTCHAR g29
ENCODING 59
SWIDTH 357 0
DWIDTH 5 0
BBX 3 10 1 -2
BITMAP
E0
E0
00
00
00
00
E0
E0
20
C0
ENDCHAR
STARTCHAR g30
ENCODING 60
SWIDTH 714 0
DWIDTH 10 0
BBX 8 7 1 1
BITMAP
03
0E
38
E0
38
0E
03
ENDCHAR
STARTCHAR g31
ENCODING 61
SWIDTH 643 0
DWIDTH 9 0
BBX 7 4 1 3
BITMAP
FE
00
00
FE
ENDCHAR
STARTCHAR g32
ENCODING 62
SWIDTH 714 0
DWIDTH 10 0
BBX 8 7 1 1
BITMAP
C0
70
1C
07
1C
70
C0
ENDCHAR
STARTCHAR g33
ENCODING 63
SWIDTH 571 0
DWIDTH 8 0
BBX 6 11 1 0
BITMAP
F8
1C
0C
1C
38
70
60
60
00
60
60
ENDCHAR
STARTCHAR g34
ENCODING 64
SWIDTH 929 0
DWIDTH 13 0
BBX 11 8 1 0
BITMAP
1F00
60C0
CE60
DB60
DB60
CDC0
6000
3E00
ENDCHAR
STARTCHAR g35
ENCODING 65
SWIDTH 857 0
DWIDTH 12 0
BBX 12 11 0 0
BITMAP
0600
0F00
0F00
1F80
1B80
33C0
31C0
7FE0
61E0
C0F0
C0F0
ENDCHAR
STARTCHAR g36
ENCODING 66
SWIDTH 786 0
DWIDTH 11 0
BBX 9 11 1 0
BITMAP
FE00
E700
E700
E700
EE00
FF00
E780
E380
E380
E700
FE00
ENDCHAR
STARTCHAR g37
ENCODING 67
SWIDTH 786 0
DWIDTH 11 0
BBX 9 11 1 0
BITMAP
1F80
7800
7000
F000
E000
E000
E000
F000
7000
7800
1F80
ENDCHAR
STARTCHAR g38
ENCODING 68
SWIDTH 929 0
DWIDTH 13 0
BBX 11 11 1 0
BITMAP
FF00
E3C0
E1C0
E1E0
E0E0
E0E0
E0E0
E1E0
E1C0
E3C0
FF00
ENDCHAR
STARTCHAR g39
ENCODING 69
SWIDTH 643 0
DWIDTH 9 0
BBX 7 11 1 0
BITMAP
FE
E0
E0
E0
E0
FC
E0
E0
E0
E0
FE
ENDCHAR
STARTCHAR g40
ENCODING 70
SWIDTH 571 0
DWIDTH 8 0
BBX 7 11 1 0
BITMAP
FE
E0
E0
E0
E0
FC
E0
E0
E0
E0
E0
ENDCHAR
STARTCHAR g41
ENCODING 71
SWIDTH 929 0
DWIDTH 13 0
BBX 11 11 1 0
BITMAP
1FC0
7800
7000
F000
E000
E1E0
E0E0
F0E0
70E0
78E0
1FE0
ENDCHAR
STARTCHAR g42
ENCODING 72
SWIDTH 857 0
DWIDTH 12 0
BBX 10 11 1 0
BITMAP
E1C0
E1C0
E1C0
E1C0
FFC0
E1C0
E1C0
E1C0
E1C0
E1C0
E1C0
ENDCHAR
STARTCHAR g43
ENCODING 73
SWIDTH 357 0
DWIDTH 5 0
BBX 3 11 1 0
BITMAP
E0
E0
E0
E0
E0
E0
E0
E0
E0
E0
E0
ENDCHAR
STARTCHAR g44
ENCODING 74
SWIDTH 571 0
DWIDTH 8 0
BBX 7 11 0 0
BITMAP
0E
0E
0E
0E
0E
0E
0E
0E
0E
1E
FC
ENDCHAR
STARTCHAR g45
ENCODING 75
SWIDTH 857 0
DWIDTH 12 0
BBX 11 11 1 0
BITMAP
E1C0
E380
E700
EE00
FC00
FC00
FE00
EF00
E780
E3C0
E1E0
ENDCHAR
STARTCHAR g46
ENCODING 76
SWIDTH 643 0
DWIDTH 9 0
BBX 8 11 1 0
BITMAP
E0
E0
E0
E0
E0
E0
E0
E0
E0
E0
FF
ENDCHAR
STARTCHAR g47
ENCODING 77
SWIDTH 1143 0
DWIDTH 16 0
BBX 14 11 1 0
BITMAP
F83C
F87C
FC7C
DCDC
DEDC
CF9C
CF9C
C71C
C71C
C21C
C21C
ENDCHAR
STARTCHAR g48
ENCODING 78
SWIDTH 786 0
DWIDTH 11 0
BBX 9 11 1 0
BITMAP
C180
E180
F180
F980
FD80
DF80
CF80
C780
C380
C180
C080
ENDCHAR
STARTCHAR g49
ENCODING 79
SWIDTH 1000 0
DWIDTH 14 0
BBX 12 11 1 0
BITMAP
1F80
79E0
70E0
F0F0
F0F0
F0F0
F0F0
F0F0
70E0
79E0
1F80
ENDCHAR
STARTCHAR g50
ENCODING 80
SWIDTH 786 0
DWIDTH 11 0
BBX 9 11 1 0
BITMAP
FF00
E780
E380
E380
E380
E700
FE00
E000
E000
E000
E000
ENDCHAR
STARTCHAR g51
ENCODING 81
SWIDTH 1000 0
DWIDTH 14 0
BBX 12 13 1 -2
BITMAP
1F80
79E0
70E0
F0F0
F0F0
F0F0
F0F0
F0F0
70E0
79E0
1F80
0380
01E0
ENDCHAR
STARTCHAR g52
ENCODING 82
SWIDTH 857 0
DWIDTH 12 0
BBX 10 11 1 0
BITMAP
FE00
E780
E380
E380
E380
E700
FE00
EF00
E780
E3C0
E1C0
ENDCHAR
STARTCHAR g53
ENCODING 83
SWIDTH 714 0
DWIDTH 10 0
BBX 8 11 1 0
BITMAP
3F
F0
E0
F0
FC
7E
3F
0F
07
0F
FC
ENDCHAR
STARTCHAR g54
ENCODING 84
SWIDTH 643 0
DWIDTH 9 0
BBX 9 11 0 0
BITMAP
FF80
1C00
1C00
1C00
1C00
1C00
1C00
1C00
1C00
1C00
1C00
ENDCHAR
STARTCHAR g55
ENCODING 85
SWIDTH 786 0
DWIDTH 11 0
BBX 9 11 1 0
BITMAP
E180
E180
E180
E180
E180
E180
E180
E180
E180
7300
3E00
ENDCHAR
STARTCHAR g56
ENCODING 86
SWIDTH 786 0
DWIDTH 11 0
BBX 10 11 1 0
BITMAP
E0C0
E0C0
F0C0
7180
7180
7980
3B00
3B00
3F00
1E00
1E00
ENDCHAR
STARTCHAR g57
ENCODING 87
SWIDTH 1143 0
DWIDTH 16 0
BBX 15 11 1 0
BITMAP
F186
F186
718E
73CC
7BCC
3BD8
3AD8
3EF8
1C70
1C70
1C70
ENDCHAR
STARTCHAR g58
ENCODING 88
SWIDTH 857 0
DWIDTH 12 0
BBX 10 11 1 0
BITMAP
F0C0
F1C0
7980
3B00
3E00
1E00
1F00
3700
6780
E3C0
C3C0
ENDCHAR
STARTCHAR g59
ENCODING 89
SWIDTH 786 0
DWIDTH 11 0
BBX 11 11 0 0
BITMAP
F0E0
F0C0
79C0
3980
3D80
1F00
0E00
0E00
0E00
0E00
0E00
ENDCHAR
STARTCHAR g60
ENCODING 90
SWIDTH 714 0
DWIDTH 10 0
BBX 8 11 1 0
BITMAP
FF
07
0F
1E
1E
3C
78
78
F0
E0
FF
ENDCHAR
STARTCHAR g61
ENCODING 91
SWIDTH 357 0
DWIDTH 5 0
BBX 4 14 1 -2
BITMAP
F0
C0
C0
C0
C0
C0
C0
C0
C0
C0
C0
C0
C0
F0
ENDCHAR
STARTCHAR g62
ENCODING 92
SWIDTH 500 0
DWIDTH 7 0
BBX 7 12 0 -1
BITMAP
C0
C0
60
60
30
30
18
18
0C
0C
06
06
ENDCHAR
STARTCHAR g63
ENCODING 93
SWIDTH 429 0
DWIDTH 6 0
BBX 4 14 1 -2
BITMAP
F0
30
30
30
30
30
30
30
30
30
30
30
30
F0
ENDCHAR
STARTCHAR g64
ENCODING 94
SWIDTH 643 0
DWIDTH 9 0
BBX 7 7 1 4
BITMAP
10
38
38
6C
6C
C6
C6
ENDCHAR
STARTCHAR g65
ENCODING 95
SWIDTH 571 0
DWIDTH 8 0
BBX 8 1 0 -1
BITMAP
FF
ENDCHAR
STARTCHAR g66
ENCODING 96
SWIDTH 429 0
DWIDTH 6 0
BBX 4 2 1 10
BITMAP
E0
30
ENDCHAR
STARTCHAR g67
ENCODING 97
SWIDTH 714 0
DWIDTH 10 0
BBX 8 8 1 0
BITMAP
7E
0F
07
7F
E7
E7
EF
7B
ENDCHAR
STARTCHAR g68
ENCODING 98
SWIDTH 714 0
DWIDTH 10 0
BBX 8 11 1 0
BITMAP
E0
E0
E0
EE
F7
E7
E7
E7
E7
EE
FC
ENDCHAR
STARTCHAR g69
ENCODING 99
SWIDTH 643 0
DWIDTH 9 0
BBX 7 8 1 0
BITMAP
3E
70
E0
E0
E0
E0
70
3E
ENDCHAR
STARTCHAR g70
ENCODING 100
SWIDTH 714 0
DWIDTH 10 0
BBX 8 11 1 0
BITMAP
07
07
07
3F
67
E7
E7
E7
E7
EF
73
ENDCHAR
STARTCHAR g71
ENCODING 101
SWIDTH 714 0
DWIDTH 10 0
BBX 8 8 1 0
BITMAP
3E
67
E7
FF
E0
E0
70
3F
ENDCHAR
STARTCHAR g72
ENCODING 102
SWIDTH 500 0
DWIDTH 7 0
BBX 6 11 0 0
BITMAP
3C
70
70
FC
70
70
70
70
70
70
70
ENDCHAR
STARTCHAR g73
ENCODING 103
SWIDTH 714 0
DWIDTH 10 0
BBX 8 11 1 -3
BITMAP
3F
77
E7
E7
E7
E7
EF
77
07
0E
7C
ENDCHAR
STARTCHAR g74
ENCODING 104
SWIDTH 714 0
DWIDTH 10 0
BBX 8 11 1 0
BITMAP
E0
E0
E0
EE
F7
E7
E7
E7
E7
E7
E7
ENDCHAR
STARTCHAR g75
ENCODING 105
SWIDTH 357 0
DWIDTH 5 0
BBX 3 11 1 0
BITMAP
E0
E0
00
E0
E0
E0
E0
E0
E0
E0
E0
ENDCHAR
STARTCHAR g76
ENCODING 106
SWIDTH 357 0
DWIDTH 5 0
BBX 5 14 -1 -3
BITMAP
38
38
00
38
38
38
38
38
38
38
38
38
38
F0
ENDCHAR
STARTCHAR g77
ENCODING 107
SWIDTH 714 0
DWIDTH 10 0
BBX 9 11 1 0
BITMAP
E000
E000
E000
E700
EE00
FC00
F800
FC00
EE00
E700
E380
ENDCHAR
STARTCHAR g78
ENCODING 108
SWIDTH 357 0
DWIDTH 5 0
BBX 3 11 1 0
BITMAP
E0
E0
E0
E0
E0
E0
E0
E0
E0
E0
E0
ENDCHAR
STARTCHAR g79
ENCODING 109
SWIDTH 1071 0
DWIDTH 15 0
BBX 13 8 1 0
BITMAP
EEF0
F7B8
E738
E738
E738
E738
E738
E738
ENDCHAR
STARTCHAR g80
ENCODING 110
SWIDTH 714 0
DWIDTH 10 0
BBX 8 8 1 0
BITMAP
EE
F7
E7
E7
E7
E7
E7
E7
ENDCHAR
STARTCHAR g81
ENCODING 111
SWIDTH 786 0
DWIDTH 11 0
BBX 9 8 1 0
BITMAP
3E00
7700
E380
E380
E380
E380
7700
3E00
ENDCHAR
STARTCHAR g82
ENCODING 112
SWIDTH 714 0
DWIDTH 10 0
BBX 8 11 1 -3
BITMAP
EE
F7
E7
E7
E7
E7
E6
FC
E0
E0
E0
ENDCHAR
STARTCHAR g83
ENCODING 113
SWIDTH 714 0
DWIDTH 10 0
BBX 8 11 1 -3
BITMAP
3F
67
E7
E7
E7
E7
EF
77
07
07
07
ENDCHAR
STARTCHAR g84
ENCODING 114
SWIDTH 500 0
DWIDTH 7 0
BBX 6 8 1 0
BITMAP
EC
FC
E0
E0
E0
E0
E0
E0
ENDCHAR
STARTCHAR g85
ENCODING 115
SWIDTH 571 0
DWIDTH 8 0
BBX 6 8 1 0
BITMAP
7C
E0
E0
F8
7C
1C
1C
F8
ENDCHAR
STARTCHAR g86
ENCODING 116
SWIDTH 571 0
DWIDTH 8 0
BBX 6 10 1 0
BITMAP
70
70
FC
70
70
70
70
70
70
3C
ENDCHAR
STARTCHAR g87
ENCODING 117
SWIDTH 714 0
DWIDTH 10 0
BBX 8 8 1 0
BITMAP
E7
E7
E7
E7
E7
E7
EF
77
ENDCHAR
STARTCHAR g88
ENCODING 118
SWIDTH 643 0
DWIDTH 9 0
BBX 9 8 0 0
BITMAP
F180
F180
7100
3B00
3A00
3E00
1C00
1C00
ENDCHAR
STARTCHAR g89
ENCODING 119
SWIDTH 929 0
DWIDTH 13 0
BBX 12 8 1 0
BITMAP
E730
E730
E730
77A0
77A0
39C0
39C0
39C0
ENDCHAR
STARTCHAR g90
ENCODING 120
SWIDTH 786 0
DWIDTH 11 0
BBX 9 8 1 0
BITMAP
F180
F380
7B00
3E00
3E00
6F00
E780
C780
ENDCHAR
STARTCHAR g91
ENCODING 121
SWIDTH 643 0
DWIDTH 9 0
BBX 9 11 0 -3
BITMAP
F180
F180
7100
7B00
3A00
3E00
1C00
1C00
1800
3800
7000
ENDCHAR
STARTCHAR g92
ENCODING 122
SWIDTH 643 0
DWIDTH 9 0
BBX 7 8 1 0
BITMAP
FE
0E
1E
3C
78
F0
E0
FE
ENDCHAR
STARTCHAR g93
ENCODING 123
SWIDTH 357 0
DWIDTH 5 0
BBX 5 14 0 -2
BITMAP
38
60
60
60
60
60
C0
60
60
60
60
60
60
38
ENDCHAR
STARTCHAR g94
ENCODING 124
SWIDTH 286 0
DWIDTH 4 0
BBX 2 15 1 -3
BITMAP
C0
C0
C0
C0
C0
C0
C0
00
C0
C0
C0
C0
C0
C0
C0
ENDCHAR
STARTCHAR g95
ENCODING 125
SWIDTH 429 0
DWIDTH 6 0
BBX 5 14 0 -2
BITMAP
E0
30
30
30
30
30
18
30
30
30
30
30
30
E0
ENDCHAR
STARTCHAR g96
ENCODING 126
SWIDTH 786 0
DWIDTH 11 0
BBX 9 4 1 4
BITMAP
3880
7C80
9F00
8E00
ENDCHAR
STARTCHAR g97
ENCODING 127
SWIDTH 786 0
DWIDTH 11 0
BBX 0 0 0 0
BITMAP
ENDCHAR
STARTCHAR g98
ENCODING 161
SWIDTH 286 0
DWIDTH 4 0
BBX 2 11 1 -3
BITMAP
C0
C0
00
C0
C0
C0
C0
C0
C0
C0
C0
ENDCHAR
STARTCHAR g99
ENCODING 162
SWIDTH 643 0
DWIDTH 9 0
BBX 7 10 1 -1
BITMAP
08
3E
68
E8
E8
E8
E8
68
3E
08
ENDCHAR
STARTCHAR g100
ENCODING 163
SWIDTH 643 0
DWIDTH 9 0
BBX 8 11 1 0
BITMAP
3E
70
70
70
FC
70
70
70
60
7F
FE
ENDCHAR
STARTCHAR g101
ENCODING 164
SWIDTH 714 0
DWIDTH 10 0
BBX 8 8 1 0
BITMAP
BD
7E
C3
C3
C3
C3
7E
BD
ENDCHAR
STARTCHAR g102
ENCODING 165
SWIDTH 786 0
DWIDTH 11 0
BBX 11 11 0 0
BITMAP
F0E0
F0C0
79C0
3980
3D80
1F00
7FC0
0E00
7FC0
0E00
0E00
ENDCHAR
STARTCHAR g103
ENCODING 167
SWIDTH 643 0
DWIDTH 9 0
BBX 8 11 0 0
BITMAP
7E
C3
C0
70
DC
66
3B
0E
03
C3
7E
ENDCHAR
STARTCHAR g104
ENCODING 168
SWIDTH 500 0
DWIDTH 7 0
BBX 5 1 1 10
BITMAP
D8
ENDCHAR
STARTCHAR g105
ENCODING 169
SWIDTH 714 0
DWIDTH 10 0
BBX 8 8 1 0
BITMAP
3C
42
99
A1
A1
99
42
3C
ENDCHAR
STARTCHAR g106
ENCODING 170
SWIDTH 571 0
DWIDTH 8 0
BBX 6 6 1 5
BITMAP
7C
CC
DC
6C
00
FC
ENDCHAR
STARTCHAR g107
ENCODING 171
SWIDTH 714 0
DWIDTH 10 0
BBX 8 7 1 1
BITMAP
1B
36
6C
D8
6C
36
1B
ENDCHAR
STARTCHAR g108
ENCODING 172
SWIDTH 786 0
DWIDTH 11 0
BBX 9 5 1 1
BITMAP
FF80
FF80
0180
0180
0180
ENDCHAR
STARTCHAR g109
ENCODING 174
SWIDTH 714 0
DWIDTH 10 0
BBX 8 8 1 0
BITMAP
3C
42
B9
A5
B9
A5
42
3C
ENDCHAR
STARTCHAR g110
ENCODING 175
SWIDTH 429 0
DWIDTH 6 0
BBX 4 1 1 9
BITMAP
F0
ENDCHAR
STARTCHAR g111
ENCODING 176
SWIDTH 429 0
DWIDTH 6 0
BBX 4 4 1 7
BITMAP
60
90
90
60
ENDCHAR
STARTCHAR g112
ENCODING 177
SWIDTH 571 0
DWIDTH 8 0
BBX 6 7 1 2
BITMAP
30
30
FC
30
30
00
FC
ENDCHAR
STARTCHAR g113
ENCODING 180
SWIDTH 429 0
DWIDTH 6 0
BBX 4 2 1 9
BITMAP
70
C0
ENDCHAR
STARTCHAR g114
ENCODING 181
SWIDTH 714 0
DWIDTH 10 0
BBX 8 11 1 -3
BITMAP
E7
E7
E7
E7
E7
E7
EF
F7
C0
C0
C0
ENDCHAR
STARTCHAR g115
ENCODING 182
SWIDTH 643 0
DWIDTH 9 0
BBX 7 11 1 0
BITMAP
7E
F6
F6
F6
F6
76
16
16
16
16
16
ENDCHAR
STARTCHAR g116
ENCODING 183
SWIDTH 286 0
DWIDTH 4 0
BBX 2 2 1 4
BITMAP
C0
C0
ENDCHAR
STARTCHAR g117
ENCODING 184
SWIDTH 357 0
DWIDTH 5 0
BBX 3 4 1 -3
BITMAP
40
40
20
C0
ENDCHAR
STARTCHAR g118
ENCODING 186
SWIDTH 571 0
DWIDTH 8 0
BBX 6 6 1 5
BITMAP
78
CC
CC
78
00
FC
ENDCHAR
STARTCHAR g119
ENCODING 187
SWIDTH 714 0
DWIDTH 10 0
BBX 8 7 1 1
BITMAP
D8
6C
36
1B
36
6C
D8
ENDCHAR
STARTCHAR g120
ENCODING 191
SWIDTH 571 0
DWIDTH 8 0
BBX 6 11 1 -3
BITMAP
18
18
00
18
18
38
70
E0
C0
E0
7C
ENDCHAR
STARTCHAR g121
ENCODING 192
SWIDTH 857 0
DWIDTH 12 0
BBX 12 14 0 0
BITMAP
1C00
0600
0000
0600
0F00
0F00
1F80
1B80
33C0
31C0
7FE0
61E0
C0F0
C0F0
ENDCHAR
STARTCHAR g122
ENCODING 193
SWIDTH 857 0
DWIDTH 12 0
BBX 12 14 0 0
BITMAP
0380
0600
0000
0600
0F00
0F00
1F80
1B80
33C0
31C0
7FE0
61E0
C0F0
C0F0
ENDCHAR
STARTCHAR g123
ENCODING 194
SWIDTH 857 0
DWIDTH 12 0
BBX 12 15 0 0
BITMAP
0200
0700
0880
0000
0600
0F00
0F00
1F80
1B80
33C0
31C0
7FE0
61E0
C0F0
C0F0
ENDCHAR
STARTCHAR g124
ENCODING 195
SWIDTH 857 0
DWIDTH 12 0
BBX 12 14 0 0
BITMAP
0E40
1380
0000
0600
0F00
0F00
1F80
1B80
33C0
31C0
7FE0
61E0
C0F0
C0F0
ENDCHAR
STARTCHAR g125
ENCODING 196
SWIDTH 857 0
DWIDTH 12 0
BBX 12 13 0 0
BITMAP
1980
0000
0600
0F00
0F00
1F80
1B80
33C0
31C0
7FE0
61E0
C0F0
C0F0
ENDCHAR
STARTCHAR g126
ENCODING 197
SWIDTH 857 0
DWIDTH 12 0
BBX 12 14 0 0
BITMAP
0600
0900
0600
0600
0F00
0F00
1F80
1B80
33C0
31C0
7FE0
61E0
C0F0
C0F0
ENDCHAR
STARTCHAR g127
ENCODING 198
SWIDTH 1214 0
DWIDTH 17 0
BBX 16 11 0 0
BITMAP
01FF
03F0
0370
0670
0E70
0C7E
1FF0
3870
3070
7070
E07F
ENDCHAR
STARTCHAR g128
ENCODING 199
SWIDTH 786 0
DWIDTH 11 0
BBX 9 14 1 -3
BITMAP
1F80
7800
7000
F000
E000
E000
E000
F000
7000
7800
1F80
0C00
0400
1800
ENDCHAR
STARTCHAR g129
ENCODING 200
SWIDTH 643 0
DWIDTH 9 0
BBX 7 14 1 0
BITMAP
70
18
00
FE
E0
E0
E0
E0
FC
E0
E0
E0
E0
FE
ENDCHAR
STARTCHAR g130
ENCODING 201
SWIDTH 643 0
DWIDTH 9 0
BBX 7 14 1 0
BITMAP
1C
30
00
FE
E0
E0
E0
E0
FC
E0
E0
E0
E0
FE
ENDCHAR
STARTCHAR g131
ENCODING 202
SWIDTH 643 0
DWIDTH 9 0
BBX 7 15 1 0
BITMAP
10
38
44
00
FE
E0
E0
E0
E0
FC
E0
E0
E0
E0
FE
ENDCHAR
STARTCHAR g132
ENCODING 203
SWIDTH 643 0
DWIDTH 9 0
BBX 7 13 1 0
BITMAP
66
00
FE
E0
E0
E0
E0
FC
E0
E0
E0
E0
FE
ENDCHAR
STARTCHAR g133
ENCODING 204
SWIDTH 357 0
DWIDTH 5 0
BBX 4 14 0 0
BITMAP
E0
30
00
70
70
70
70
70
70
70
70
70
70
70
ENDCHAR
STARTCHAR g134
ENCODING 205
SWIDTH 357 0
DWIDTH 5 0
BBX 4 14 1 0
BITMAP
70
C0
00
E0
E0
E0
E0
E0
E0
E0
E0
E0
E0
E0
ENDCHAR
STARTCHAR g135
ENCODING 206
SWIDTH 357 0
DWIDTH 5 0
BBX 5 15 0 0
BITMAP
20
70
88
00
70
70
70
70
70
70
70
70
70
70
70
ENDCHAR
STARTCHAR g136
ENCODING 207
SWIDTH 357 0
DWIDTH 5 0
BBX 5 13 0 0
BITMAP
D8
00
70
70
70
70
70
70
70
70
70
70
70
ENDCHAR
STARTCHAR g137
ENCODING 209
SWIDTH 786 0
DWIDTH 11 0
BBX 9 14 1 0
BITMAP
3900
4E00
0000
C180
E180
F180
F980
FD80
DF80
CF80
C780
C380
C180
C080
ENDCHAR
STARTCHAR g138
ENCODING 210
SWIDTH 1000 0
DWIDTH 14 0
BBX 12 14 1 0
BITMAP
1C00
0600
0000
1F80
79E0
70E0
F0F0
F0F0
F0F0
F0F0
F0F0
70E0
79E0
1F80
ENDCHAR
STARTCHAR g139
ENCODING 211
SWIDTH 1000 0
DWIDTH 14 0
BBX 12 14 1 0
BITMAP
0380
0600
0000
1F80
79E0
70E0
F0F0
F0F0
F0F0
F0F0
F0F0
70E0
79E0
1F80
ENDCHAR
STARTCHAR g140
ENCODING 212
SWIDTH 1000 0
DWIDTH 14 0
BBX 12 15 1 0
BITMAP
0200
0700
0880
0000
1F80
79E0
70E0
F0F0
F0F0
F0F0
F0F0
F0F0
70E0
79E0
1F80
ENDCHAR
STARTCHAR g141
ENCODING 213
SWIDTH 1000 0
DWIDTH 14 0
BBX 12 14 1 0
BITMAP
0E40
1380
0000
1F80
79E0
70E0
F0F0
F0F0
F0F0
F0F0
F0F0
70E0
79E0
1F80
ENDCHAR
STARTCHAR g142
ENCODING 214
SWIDTH 1000 0
DWIDTH 14 0
BBX 12 13 1 0
BITMAP
1980
0000
1F80
79E0
70E0
F0F0
F0F0
F0F0
F0F0
F0F0
70E0
79E0
1F80
ENDCHAR
STARTCHAR g143
ENCODING 216
SWIDTH 1000 0
DWIDTH 14 0
BBX 12 11 1 0
BITMAP
1F90
79E0
70E0
F1F0
F2F0
F4F0
F8F0
F0F0
70E0
79E0
9F80
ENDCHAR
STARTCHAR g144
ENCODING 217
SWIDTH 786 0
DWIDTH 11 0
BBX 9 14 1 0
BITMAP
3800
0C00
0000
E180
E180
E180
E180
E180
E180
E180
E180
E180
7300
3E00
ENDCHAR
STARTCHAR g145
ENCODING 218
SWIDTH 786 0
DWIDTH 11 0
BBX 9 14 1 0
BITMAP
0700
0C00
0000
E180
E180
E180
E180
E180
E180
E180
E180
E180
7300
3E00
ENDCHAR
STARTCHAR g146
ENCODING 219
SWIDTH 786 0
DWIDTH 11 0
BBX 9 15 1 0
BITMAP
0800
1C00
2200
0000
E180
E180
E180
E180
E180
E180
E180
E180
E180
7300
3E00
ENDCHAR
STARTCHAR g147
ENCODING 220
SWIDTH 786 0
DWIDTH 11 0
BBX 9 13 1 0
BITMAP
3300
0000
E180
E180
E180
E180
E180
E180
E180
E180
E180
7300
3E00
ENDCHAR
STARTCHAR g148
ENCODING 223
SWIDTH 857 0
DWIDTH 12 0
BBX 10 11 1 0
BITMAP
7E00
E300
E300
E700
EE00
EF00
E780
E3C0
E1C0
E1C0
EF80
ENDCHAR
STARTCHAR g149
ENCODING 224
SWIDTH 714 0
DWIDTH 10 0
BBX 8 11 1 0
BITMAP
38
0C
00
7E
0F
07
7F
E7
E7
EF
7B
ENDCHAR
STARTCHAR g150
ENCODING 225
SWIDTH 714 0
DWIDTH 10 0
BBX 8 11 1 0
BITMAP
0E
18
00
7E
0F
07
7F
E7
E7
EF
7B
ENDCHAR
STARTCHAR g151
ENCODING 226
SWIDTH 714 0
DWIDTH 10 0
BBX 8 12 1 0
BITMAP
08
1C
22
00
7E
0F
07
7F
E7
E7
EF
7B
ENDCHAR
STARTCHAR g152
ENCODING 227
SWIDTH 714 0
DWIDTH 10 0
BBX 8 11 1 0
BITMAP
39
4E
00
7E
0F
07
7F
E7
E7
EF
7B
ENDCHAR
STARTCHAR g153
ENCODING 228
SWIDTH 714 0
DWIDTH 10 0
BBX 8 11 1 0
BITMAP
66
00
00
7E
0F
07
7F
E7
E7
EF
7B
ENDCHAR
STARTCHAR g154
ENCODING 229
SWIDTH 714 0
DWIDTH 10 0
BBX 8 12 1 0
BITMAP
18
24
18
00
7E
0F
07
7F
E7
E7
EF
7B
ENDCHAR
STARTCHAR g155
ENCODING 230
SWIDTH 1071 0
DWIDTH 15 0
BBX 13 8 1 0
BITMAP
7DF0
0F38
0738
7FF8
E700
E700
EF80
79F8
ENDCHAR
STARTCHAR g156
ENCODING 231
SWIDTH 643 0
DWIDTH 9 0
BBX 7 10 1 -2
BITMAP
3E
70
E0
E0
E0
E0
70
1E
08
30
ENDCHAR
STARTCHAR g157
ENCODING 232
SWIDTH 714 0
DWIDTH 10 0
BBX 8 11 1 0
BITMAP
38
0C
00
3E
67
E7
FF
E0
E0
70
3F
ENDCHAR
STARTCHAR g158
ENCODING 233
SWIDTH 714 0
DWIDTH 10 0
BBX 8 11 1 0
BITMAP
0E
18
00
3E
67
E7
FF
E0
E0
70
3F
ENDCHAR
STARTCHAR g159
ENCODING 234
SWIDTH 714 0
DWIDTH 10 0
BBX 8 12 1 0
BITMAP
08
1C
22
00
3E
67
E7
FF
E0
E0
70
3F
ENDCHAR
STARTCHAR g160
ENCODING 235
SWIDTH 714 0
DWIDTH 10 0
BBX 8 11 1 0
BITMAP
33
00
00
3E
67
E7
FF
E0
E0
70
3F
ENDCHAR
STARTCHAR g161
ENCODING 236
SWIDTH 357 0
DWIDTH 5 0
BBX 4 11 0 0
BITMAP
E0
30
00
70
70
70
70
70
70
70
70
ENDCHAR
STARTCHAR g162
ENCODING 237
SWIDTH 357 0
DWIDTH 5 0
BBX 4 11 1 0
BITMAP
70
C0
00
E0
E0
E0
E0
E0
E0
E0
E0
ENDCHAR
STARTCHAR g163
ENCODING 238
SWIDTH 357 0
DWIDTH 5 0
BBX 5 12 0 0
BITMAP
20
70
88
00
70
70
70
70
70
70
70
70
ENDCHAR
STARTCHAR g164
ENCODING 239
SWIDTH 357 0
DWIDTH 5 0
BBX 5 11 0 0
BITMAP
D8
00
00
70
70
70
70
70
70
70
70
ENDCHAR
STARTCHAR g165
ENCODING 241
SWIDTH 714 0
DWIDTH 10 0
BBX 8 11 1 0
BITMAP
39
4E
00
EE
F7
E7
E7
E7
E7
E7
E7
ENDCHAR
STARTCHAR g166
ENCODING 242
SWIDTH 786 0
DWIDTH 11 0
BBX 9 11 1 0
BITMAP
3800
0C00
0000
3E00
7700
E380
E380
E380
E380
7700
3E00
ENDCHAR
STARTCHAR g167
ENCODING 243
SWIDTH 786 0
DWIDTH 11 0
BBX 9 11 1 0
BITMAP
0E00
1800
0000
3E00
7700
E380
E380
E380
E380
7700
3E00
ENDCHAR
STARTCHAR g168
ENCODING 244
SWIDTH 786 0
DWIDTH 11 0
BBX 9 12 1 0
BITMAP
0800
1C00
2200
0000
3E00
7700
E380
E380
E380
E380
7700
3E00
ENDCHAR
STARTCHAR g169
ENCODING 245
SWIDTH 786 0
DWIDTH 11 0
BBX 9 11 1 0
BITMAP
3900
4E00
0000
3E00
7700
E380
E380
E380
E380
7700
3E00
ENDCHAR
STARTCHAR g170
ENCODING 246
SWIDTH 786 0
DWIDTH 11 0
BBX 9 11 1 0
BITMAP
3300
0000
0000
3E00
7700
E380
E380
E380
E380
7700
3E00
ENDCHAR
STARTCHAR g171
ENCODING 247
SWIDTH 714 0
DWIDTH 10 0
BBX 8 7 1 2
BITMAP
18
18
00
FF
00
18
18
ENDCHAR
STARTCHAR g172
ENCODING 248
SWIDTH 786 0
DWIDTH 11 0
BBX 9 10 1 -1
BITMAP
0080
3F00
7700
E780
EB80
EB80
F380
7700
7E00
8000
ENDCHAR
STARTCHAR g173
ENCODING 249
SWIDTH 714 0
DWIDTH 10 0
BBX 8 11 0 0
BITMAP
38
0C
00
E7
E7
E7
E7
E7
E7
EF
77
ENDCHAR
STARTCHAR g174
ENCODING 250
SWIDTH 714 0
DWIDTH 10 0
BBX 8 11 1 0
BITMAP
0E
18
00
E7
E7
E7
E7
E7
E7
EF
77
ENDCHAR
STARTCHAR g175
ENCODING 251
SWIDTH 714 0
DWIDTH 10 0
BBX 8 12 1 0
BITMAP
08
1C
22
00
E7
E7
E7
E7
E7
E7
EF
77
ENDCHAR
STARTCHAR g176
ENCODING 252
SWIDTH 714 0
DWIDTH 10 0
BBX 8 11 1 0
BITMAP
66
00
00
E7
E7
E7
E7
E7
E7
EF
77
ENDCHAR
STARTCHAR g177
ENCODING 255
SWIDTH 643 0
DWIDTH 9 0
BBX 9 13 0 -3
BITMAP
3300
0000
F180
F180
7100
7B00
3A00
3E00
1C00
1C00
1800
3800
7000
ENDCHAR
STARTCHAR g178
ENCODING 305
SWIDTH 357 0
DWIDTH 5 0
BBX 3 8 1 0
BITMAP
E0
E0
E0
E0
E0
E0
E0
E0
ENDCHAR
STARTCHAR g179
ENCODING 338
SWIDTH 1143 0
DWIDTH 16 0
BBX 14 11 1 0
BITMAP
1FFC
79C0
71C0
F1C0
F1C0
F1F8
F1C0
F1C0
71C0
79C0
1FFC
ENDCHAR
STARTCHAR g180
ENCODING 339
SWIDTH 1143 0
DWIDTH 16 0
BBX 14 8 1 0
BITMAP
3EF8
779C
E39C
E3FC
E380
E380
77C0
3EFC
ENDCHAR
STARTCHAR g181
ENCODING 376
SWIDTH 786 0
DWIDTH 11 0
BBX 11 13 0 0
BITMAP
1980
0000
F0E0
F0C0
79C0
3980
3D80
1F00
0E00
0E00
0E00
0E00
0E00
ENDCHAR
STARTCHAR g182
ENCODING 402
SWIDTH 643 0
DWIDTH 9 0
BBX 10 14 -1 -2
BITMAP
03C0
0700
0700
1FC0
0E00
0E00
0E00
1C00
1C00
1C00
3800
3800
3800
F000
ENDCHAR
STARTCHAR g183
ENCODING 710
SWIDTH 500 0
DWIDTH 7 0
BBX 5 3 1 8
BITMAP
20
70
88
ENDCHAR
STARTCHAR g184
ENCODING 711
SWIDTH 357 0
DWIDTH 5 0
BBX 3 2 0 9
BITMAP
A0
40
ENDCHAR
STARTCHAR g185
ENCODING 728
SWIDTH 429 0
DWIDTH 6 0
BBX 4 2 1 9
BITMAP
90
60
ENDCHAR
STARTCHAR g186
ENCODING 729
SWIDTH 286 0
DWIDTH 4 0
BBX 2 1 1 9
BITMAP
C0
ENDCHAR
STARTCHAR g187
ENCODING 730
SWIDTH 429 0
DWIDTH 6 0
BBX 4 3 1 8
BITMAP
60
90
60
ENDCHAR
STARTCHAR g188
ENCODING 731
SWIDTH 357 0
DWIDTH 5 0
BBX 3 4 1 -3
BITMAP
40
80
80
60
ENDCHAR
STARTCHAR g189
ENCODING 732
SWIDTH 643 0
DWIDTH 9 0
BBX 7 2 1 8
BITMAP
72
9C
ENDCHAR
STARTCHAR g190
ENCODING 733
SWIDTH 571 0
DWIDTH 8 0
BBX 6 2 1 9
BITMAP
6C
D8
ENDCHAR
STARTCHAR g191
ENCODING 960
SWIDTH 857 0
DWIDTH 12 0
BBX 11 7 1 0
BITMAP
FFC0
7380
7380
7380
73E0
73C0
F380
ENDCHAR
STARTCHAR g192
ENCODING 8211
SWIDTH 857 0
DWIDTH 12 0
BBX 10 1 1 4
BITMAP
FFC0
ENDCHAR
STARTCHAR g193
ENCODING 8212
SWIDTH 1286 0
DWIDTH 18 0
BBX 16 1 1 4
BITMAP
FFFF
ENDCHAR
STARTCHAR g194
ENCODING 8216
SWIDTH 286 0
DWIDTH 4 0
BBX 2 4 1 8
BITMAP
40
80
C0
C0
ENDCHAR
STARTCHAR g195
ENCODING 8217
SWIDTH 286 0
DWIDTH 4 0
BBX 2 4 1 8
BITMAP
C0
C0
40
80
ENDCHAR
STARTCHAR g196
ENCODING 8218
SWIDTH 286 0
DWIDTH 4 0
BBX 2 4 1 -2
BITMAP
C0
C0
40
80
ENDCHAR
STARTCHAR g197
ENCODING 8220
SWIDTH 500 0
DWIDTH 7 0
BBX 5 4 1 8
BITMAP
48
90
D8
D8
ENDCHAR
STARTCHAR g198
ENCODING 8221
SWIDTH 500 0
DWIDTH 7 0
BBX 5 4 1 8
BITMAP
D8
D8
48
90
ENDCHAR
STARTCHAR g199
ENCODING 8222
SWIDTH 500 0
DWIDTH 7 0
BBX 5 4 1 -2
BITMAP
D8
D8
48
90
ENDCHAR
STARTCHAR g200
ENCODING 8224
SWIDTH 357 0
DWIDTH 5 0
BBX 4 6 0 6
BITMAP
60
F0
60
60
60
60
ENDCHAR
STARTCHAR g201
ENCODING 8225
SWIDTH 643 0
DWIDTH 9 0
BBX 8 14 0 -3
BITMAP
18
18
18
FF
18
18
18
18
18
18
FF
18
18
18
ENDCHAR
STARTCHAR g202
ENCODING 8226
SWIDTH 571 0
DWIDTH 8 0
BBX 6 5 1 3
BITMAP
78
FC
FC
FC
78
ENDCHAR
STARTCHAR g203
ENCODING 8230
SWIDTH 857 0
DWIDTH 12 0
BBX 10 2 1 0
BITMAP
CCC0
CCC0
ENDCHAR
STARTCHAR g204
ENCODING 8240
SWIDTH 1357 0
DWIDTH 19 0
BBX 17 11 1 0
BITMAP
707000
D8E000
D9C000
DB8000
770000
070000
0EE700
1DBD80
39BD80
71BD80
E0E700
ENDCHAR
STARTCHAR g205
ENCODING 8249
SWIDTH 500 0
DWIDTH 7 0
BBX 5 7 1 1
BITMAP
18
30
60
C0
60
30
18
ENDCHAR
STARTCHAR g206
ENCODING 8250
SWIDTH 500 0
DWIDTH 7 0
BBX 5 7 1 1
BITMAP
C0
60
30
18
30
60
C0
ENDCHAR
STARTCHAR g207
ENCODING 8260
SWIDTH 500 0
DWIDTH 7 0
BBX 7 12 0 -1
BITMAP
06
06
0C
0C
18
18
30
30
60
60
C0
C0
ENDCHAR
STARTCHAR g208
ENCODING 8482
SWIDTH 786 0
DWIDTH 11 0
BBX 9 4 1 7
BITMAP
E880
4D80
4A80
4A80
ENDCHAR
STARTCHAR g209
ENCODING 8486
SWIDTH 929 0
DWIDTH 13 0
BBX 11 11 1 0
BITMAP
3F80
71C0
E0E0
C060
C060
C060
E0E0
60C0
3180
B1A0
F1E0
ENDCHAR
STARTCHAR g210
ENCODING 8706
SWIDTH 714 0
DWIDTH 10 0
BBX 8 11 1 0
BITMAP
78
0E
06
07
3F
67
E7
E7
E7
F6
7C
ENDCHAR
STARTCHAR g211
ENCODING 8710
SWIDTH 1000 0
DWIDTH 14 0
BBX 12 11 1 0
BITMAP
0600
0F00
0F00
1380
1380
21C0
21C0
40E0
40E0
8070
FFF0
ENDCHAR
STARTCHAR g212
ENCODING 8719
SWIDTH 929 0
DWIDTH 13 0
BBX 11 12 1 -1
BITMAP
FFE0
71C0
71C0
71C0
71C0
71C0
71C0
71C0
71C0
71C0
71C0
FBE0
ENDCHAR
STARTCHAR g213
ENCODING 8721
SWIDTH 643 0
DWIDTH 9 0
BBX 7 12 1 -1
BITMAP
FE
E2
F0
78
3C
1C
18
30
60
C2
FE
FE
ENDCHAR
STARTCHAR g214
ENCODING 8730
SWIDTH 714 0
DWIDTH 10 0
BBX 9 12 0 -1
BITMAP
0180
0180
0300
0300
0300
E600
6600
3400
3400
1C00
1800
0800
ENDCHAR
STARTCHAR g215
ENCODING 8734
SWIDTH 1000 0
DWIDTH 14 0
BBX 12 5 1 3
BITMAP
79E0
8F90
8F10
9F10
7DE0
ENDCHAR
STARTCHAR g216
ENCODING 8747
SWIDTH 429 0
DWIDTH 6 0
BBX 4 16 1 -3
BITMAP
30
60
60
60
60
60
60
60
60
60
60
60
60
60
60
C0
ENDCHAR
STARTCHAR g217
ENCODING 8776
SWIDTH 714 0
DWIDTH 10 0
BBX 8 5 1 3
BITMAP
7B
DE
00
7B
DE
ENDCHAR
STARTCHAR g218
ENCODING 8800
SWIDTH 714 0
DWIDTH 10 0
BBX 8 8 1 1
BITMAP
02
04
FF
08
10
FF
20
40
ENDCHAR
STARTCHAR g219
ENCODING 8804
SWIDTH 714 0
DWIDTH 10 0
BBX 8 7 1 1
BITMAP
0F
7C
E0
7C
0F
00
FF
ENDCHAR
STARTCHAR g220
ENCODING 8805
SWIDTH 714 0
DWIDTH 10 0
BBX 8 7 1 1
BITMAP
F0
3E
07
3E
F0
00
FF
ENDCHAR
STARTCHAR g221
ENCODING 9674
SWIDTH 643 0
DWIDTH 9 0
BBX 7 13 1 -1
BITMAP
10
10
38
28
6C
44
C6
44
6C
28
38
10
10
ENDCHAR
STARTCHAR g222
ENCODING 63252
SWIDTH 786 0
DWIDTH 11 0
BBX 9 11 1 0
BITMAP
3E00
6300
E380
E380
E380
EB80
E380
E380
E380
6300
3E00
ENDCHAR
STARTCHAR g223
ENCODING 63253
SWIDTH 500 0
DWIDTH 7 0
BBX 5 11 1 0
BITMAP
F8
70
70
70
70
70
70
70
70
70
F8
ENDCHAR
STARTCHAR g224
ENCODING 63254
SWIDTH 429 0
DWIDTH 6 0
BBX 5 11 0 0
BITMAP
F0
70
70
70
70
70
70
70
70
70
78
ENDCHAR
STARTCHAR g225
ENCODING 63487
SWIDTH 786 0
DWIDTH 11 0
BBX 0 0 0 0
BITMAP
ENDCHAR
STARTCHAR g226
ENCODING 64257
SWIDTH 714 0
DWIDTH 10 0
BBX 9 11 0 0
BITMAP
3F80
7380
7000
FF80
7380
7380
7380
7380
7380
7380
7380
ENDCHAR
STARTCHAR g227
ENCODING 64258
SWIDTH 714 0
DWIDTH 10 0
BBX 9 11 0 0
BITMAP
3F80
7380
7380
FB80
7380
7380
7380
7380
7380
7380
7380
ENDCHAR
STARTCHAR g228
ENCODING 64512
SWIDTH 1071 0
DWIDTH 15 0
BBX 13 9 1 0
BITMAP
3FE0
F8F8
EFB8
0F80
18C0
18C0
3FE0
3FE0
3FE0
ENDCHAR
STARTCHAR g229
ENCODING 64513
SWIDTH 1000 0
DWIDTH 14 0
BBX 10 10 2 0
BITMAP
0C00
1E00
3F00
7F80
FFC0
FFC0
7F80
3F00
1E00
0C00
ENDCHAR
STARTCHAR g230
ENCODING 64514
SWIDTH 1000 0
DWIDTH 14 0
BBX 0 0 0 0
BITMAP
ENDCHAR
STARTCHAR g231
ENCODING 64515
SWIDTH 1000 0
DWIDTH 14 0
BBX 7 7 3 0
BITMAP
02
06
0A
12
22
42
FE
ENDCHAR
STARTCHAR g232
ENCODING 64516
SWIDTH 1000 0
DWIDTH 14 0
BBX 9 7 2 0
BITMAP
0380
7C00
8A00
1100
1100
1100
0E00
ENDCHAR
STARTCHAR g233
ENCODING 64517
SWIDTH 1214 0
DWIDTH 17 0
BBX 15 15 1 -1
BITMAP
07C0
1FF0
3838
739C
638C
C006
C786
C386
C386
C386
67CC
701C
3838
1FF0
07C0
ENDCHAR
STARTCHAR g234
ENCODING 64518
SWIDTH 1000 0
DWIDTH 14 0
BBX 7 7 4 0
BITMAP
80
C0
A0
90
88
84
FE
ENDCHAR
STARTCHAR g235
ENCODING 64519
SWIDTH 1000 0
DWIDTH 14 0
BBX 12 7 1 0
BITMAP
0F00
30C0
4020
8010
8010
8F10
70E0
ENDCHAR
STARTCHAR g236
ENCODING 64520
SWIDTH 857 0
DWIDTH 12 0
BBX 10 10 1 0
BITMAP
6180
9240
9240
7F80
1200
1200
7F80
9240
9240
6180
ENDCHAR
STARTCHAR g237
ENCODING 64521
SWIDTH 643 0
DWIDTH 9 0
BBX 8 11 0 0
BITMAP
FF
81
81
81
81
81
81
81
81
81
FF
ENDCHAR
STARTCHAR g238
ENCODING 64522
SWIDTH 786 0
DWIDTH 11 0
BBX 0 0 0 0
BITMAP
ENDCHAR
STARTCHAR g239
ENCODING 64523
SWIDTH 786 0
DWIDTH 11 0
BBX 10 9 0 0
BITMAP
00C0
0180
0300
6600
EE00
3C00
3C00
1800
1000
ENDCHAR
STARTCHAR g240
ENCODING 64524
SWIDTH 643 0
DWIDTH 9 0
BBX 8 11 0 0
BITMAP
FF
81
81
81
81
81
81
81
81
81
FF
ENDCHAR
STARTCHAR g241
ENCODING 64525
SWIDTH 643 0
DWIDTH 9 0
BBX 8 11 0 0
BITMAP
FF
81
81
81
81
81
81
81
81
81
FF
ENDCHAR
STARTCHAR g242
ENCODING 64526
SWIDTH 643 0
DWIDTH 9 0
BBX 8 11 0 0
BITMAP
FF
81
81
81
81
81
81
81
81
81
FF
ENDCHAR
STARTCHAR g243
ENCODING 64527
SWIDTH 643 0
DWIDTH 9 0
BBX 8 11 0 0
BITMAP
FF
81
81
81
81
81
81
81
81
81
FF
ENDCHAR
ENDFONT
