STARTFONT 2.1
COMMENT Strike 3 of a Newton 'sfnt' font (bloc/bdat): tools/fonts/newtonsfnt.py,
COMMENT tools/fonts/README.md.  The builder reads the BLOC_* properties and the
COMMENT glyphs - STARTCHAR gN (N the glyph id; otherwise ENCODING through 'cmap'),
COMMENT DWIDTH (the advance), BBX (width, height, the bearing x, the bottom row's
COMMENT y: bearing y less the height) and the BITMAP rows.  A glyph id in the
COMMENT subtable ranges with no glyph here has no image (the missing glyph is 0).
COMMENT The other properties, SIZE, FONTBOUNDINGBOX and SWIDTH are worked out and
COMMENT not read back: change BLOC_HORI_* (the line metrics the ROM draws text by)
COMMENT to match an edit that changes the strike's extent.
FONT -Apple-Roman Regular-Medium-R-Normal--12-120-72-72-P-0-Apple-Roman
SIZE 12 72 72
FONTBOUNDINGBOX 18 16 -2 -3
STARTPROPERTIES 37
FONT_ASCENT 13
FONT_DESCENT 4
PIXEL_SIZE 12
FAMILY_NAME "Roman Regular"
BLOC_COLOR_REF 0
BLOC_HORI_ASCENDER 13
BLOC_HORI_DESCENDER -4
BLOC_HORI_WIDTH_MAX 17
BLOC_HORI_CARET_SLOPE_NUMERATOR 0
BLOC_HORI_CARET_SLOPE_DENOMINATOR 1
BLOC_HORI_CARET_OFFSET 0
BLOC_HORI_MIN_ORIGIN_SB -2
BLOC_HORI_MIN_ADVANCE_SB 0
BLOC_HORI_MAX_BEFORE_BL 13
BLOC_HORI_MIN_AFTER_BL -3
BLOC_HORI_PAD1 0
BLOC_HORI_PAD2 0
BLOC_VERT_ASCENDER 0
BLOC_VERT_DESCENDER -1
BLOC_VERT_WIDTH_MAX 16
BLOC_VERT_CARET_SLOPE_NUMERATOR 0
BLOC_VERT_CARET_SLOPE_DENOMINATOR 1
BLOC_VERT_CARET_OFFSET 0
BLOC_VERT_MIN_ORIGIN_SB -44
BLOC_VERT_MIN_ADVANCE_SB 80
BLOC_VERT_MAX_BEFORE_BL 0
BLOC_VERT_MIN_AFTER_BL -17
BLOC_VERT_PAD1 0
BLOC_VERT_PAD2 0
BLOC_START_GLYPH 0
BLOC_END_GLYPH 257
BLOC_PPEM_X 12
BLOC_PPEM_Y 12
BLOC_BIT_DEPTH 1
BLOC_FLAGS 1
BLOC_INDEX_SUBTABLES 1
BLOC_INDEX_SUBTABLE_0 "0 257 3 1 0"
ENDPROPERTIES
CHARS 244
STARTCHAR g0
ENCODING -1
SWIDTH 750 0
DWIDTH 9 0
BBX 8 10 0 0
BITMAP
FF
81
81
81
81
81
81
81
81
FF
ENDCHAR
STARTCHAR g1
ENCODING 0
SWIDTH 0 0
DWIDTH 0 0
BBX 0 0 0 0
BITMAP
ENDCHAR
STARTCHAR g2
ENCODING 1
SWIDTH 333 0
DWIDTH 4 0
BBX 0 0 0 0
BITMAP
ENDCHAR
STARTCHAR g3
ENCODING 2
SWIDTH 333 0
DWIDTH 4 0
BBX 3 9 0 0
BITMAP
E0
E0
E0
E0
E0
E0
00
E0
E0
ENDCHAR
STARTCHAR g4
ENCODING 3
SWIDTH 500 0
DWIDTH 6 0
BBX 5 4 0 6
BITMAP
D8
D8
D8
48
ENDCHAR
STARTCHAR g5
ENCODING 4
SWIDTH 917 0
DWIDTH 11 0
BBX 10 9 0 0
BITMAP
1980
1980
7FC0
3300
3300
3300
FF80
6600
6600
ENDCHAR
STARTCHAR g6
ENCODING 5
SWIDTH 667 0
DWIDTH 8 0
BBX 7 11 0 -1
BITMAP
10
7E
C0
E0
F8
7C
1E
0E
06
FC
10
ENDCHAR
STARTCHAR g7
ENCODING 6
SWIDTH 1083 0
DWIDTH 13 0
BBX 12 9 0 0
BITMAP
70C0
D9C0
DB80
7300
0600
0CE0
1DB0
39B0
30E0
ENDCHAR
STARTCHAR g8
ENCODING 7
SWIDTH 1000 0
DWIDTH 12 0
BBX 11 9 0 0
BITMAP
3E00
7300
7700
3E00
3CE0
77C0
E380
F7C0
7EE0
ENDCHAR
STARTCHAR g9
ENCODING 8
SWIDTH 250 0
DWIDTH 3 0
BBX 2 4 0 6
BITMAP
C0
C0
C0
40
ENDCHAR
STARTCHAR g10
ENCODING 9
SWIDTH 500 0
DWIDTH 6 0
BBX 5 12 0 -2
BITMAP
18
30
70
60
E0
E0
E0
E0
60
70
30
18
ENDCHAR
STARTCHAR g11
ENCODING 10
SWIDTH 500 0
DWIDTH 6 0
BBX 5 12 0 -2
BITMAP
C0
60
70
30
38
38
38
38
30
70
60
C0
ENDCHAR
STARTCHAR g12
ENCODING 11
SWIDTH 500 0
DWIDTH 6 0
BBX 5 6 0 4
BITMAP
20
A8
70
70
A8
20
ENDCHAR
STARTCHAR g13
ENCODING 12
SWIDTH 500 0
DWIDTH 6 0
BBX 5 5 0 2
BITMAP
20
20
F8
20
20
ENDCHAR
STARTCHAR g14
ENCODING 44
SWIDTH 333 0
DWIDTH 4 0
BBX 3 4 0 -2
BITMAP
E0
E0
20
C0
ENDCHAR
STARTCHAR g15
ENCODING 45
SWIDTH 500 0
DWIDTH 6 0
BBX 5 1 0 4
BITMAP
F8
ENDCHAR
STARTCHAR g16
ENCODING 46
SWIDTH 333 0
DWIDTH 4 0
BBX 3 2 0 0
BITMAP
E0
E0
ENDCHAR
STARTCHAR g17
ENCODING 47
SWIDTH 500 0
DWIDTH 6 0
BBX 6 10 0 -1
BITMAP
0C
0C
18
18
30
30
60
60
C0
C0
ENDCHAR
STARTCHAR g18
ENCODING 48
SWIDTH 750 0
DWIDTH 9 0
BBX 8 9 0 0
BITMAP
7E
E7
E7
E7
E7
E7
E7
E7
7E
ENDCHAR
STARTCHAR g19
ENCODING 49
SWIDTH 750 0
DWIDTH 9 0
BBX 5 9 1 0
BITMAP
38
F8
38
38
38
38
38
38
38
ENDCHAR
STARTCHAR g20
ENCODING 50
SWIDTH 750 0
DWIDTH 9 0
BBX 8 9 0 0
BITMAP
7E
C7
07
0E
1C
38
70
F0
FF
ENDCHAR
STARTCHAR g21
ENCODING 51
SWIDTH 750 0
DWIDTH 9 0
BBX 8 9 0 0
BITMAP
7E
C7
07
06
1E
07
07
C7
7E
ENDCHAR
STARTCHAR g22
ENCODING 52
SWIDTH 750 0
DWIDTH 9 0
BBX 8 9 0 0
BITMAP
0E
1E
2E
4E
8E
FF
0E
0E
0E
ENDCHAR
STARTCHAR g23
ENCODING 53
SWIDTH 750 0
DWIDTH 9 0
BBX 8 9 0 0
BITMAP
FE
C0
C0
FE
0F
07
07
87
7E
ENDCHAR
STARTCHAR g24
ENCODING 54
SWIDTH 750 0
DWIDTH 9 0
BBX 8 9 0 0
BITMAP
3C
60
E0
FE
E7
E7
E7
E7
7E
ENDCHAR
STARTCHAR g25
ENCODING 55
SWIDTH 750 0
DWIDTH 9 0
BBX 8 9 0 0
BITMAP
FF
07
0E
1C
1C
38
38
38
38
ENDCHAR
STARTCHAR g26
ENCODING 56
SWIDTH 750 0
DWIDTH 9 0
BBX 8 9 0 0
BITMAP
7E
E7
E7
E7
7E
E7
E7
E7
7E
ENDCHAR
STARTCHAR g27
ENCODING 57
SWIDTH 750 0
DWIDTH 9 0
BBX 8 9 0 0
BITMAP
7E
E7
E7
E7
E7
7F
07
06
3C
ENDCHAR
STARTCHAR g28
ENCODING 58
SWIDTH 333 0
DWIDTH 4 0
BBX 3 7 0 0
BITMAP
E0
E0
00
00
00
E0
E0
ENDCHAR
STARTCHAR g29
ENCODING 59
SWIDTH 333 0
DWIDTH 4 0
BBX 3 9 0 -2
BITMAP
E0
E0
00
00
00
E0
E0
20
C0
ENDCHAR
STARTCHAR g30
ENCODING 60
SWIDTH 583 0
DWIDTH 7 0
BBX 6 5 0 2
BITMAP
0C
30
C0
30
0C
ENDCHAR
STARTCHAR g31
ENCODING 61
SWIDTH 583 0
DWIDTH 7 0
BBX 6 3 0 3
BITMAP
FC
00
FC
ENDCHAR
STARTCHAR g32
ENCODING 62
SWIDTH 583 0
DWIDTH 7 0
BBX 6 5 0 2
BITMAP
C0
30
0C
30
C0
ENDCHAR
STARTCHAR g33
ENCODING 63
SWIDTH 583 0
DWIDTH 7 0
BBX 6 9 0 0
BITMAP
F8
1C
1C
38
70
70
00
70
70
ENDCHAR
STARTCHAR g34
ENCODING 64
SWIDTH 1000 0
DWIDTH 12 0
BBX 11 8 0 -1
BITMAP
3F80
60C0
CE60
DB60
DB60
CDC0
6000
3F00
ENDCHAR
STARTCHAR g35
ENCODING 65
SWIDTH 917 0
DWIDTH 11 0
BBX 10 9 0 0
BITMAP
0E00
1E00
1F00
3700
3700
6380
7F80
C3C0
C3C0
ENDCHAR
STARTCHAR g36
ENCODING 66
SWIDTH 833 0
DWIDTH 10 0
BBX 9 9 0 0
BITMAP
FE00
E700
E700
E600
FF00
E780
E380
E380
FF00
ENDCHAR
STARTCHAR g37
ENCODING 67
SWIDTH 750 0
DWIDTH 9 0
BBX 8 9 0 0
BITMAP
1F
70
F0
E0
E0
E0
F0
70
1F
ENDCHAR
STARTCHAR g38
ENCODING 68
SWIDTH 833 0
DWIDTH 10 0
BBX 9 9 0 0
BITMAP
FC00
E700
E380
E380
E380
E380
E380
E700
FC00
ENDCHAR
STARTCHAR g39
ENCODING 69
SWIDTH 667 0
DWIDTH 8 0
BBX 7 9 0 0
BITMAP
FE
E0
E0
E0
FC
E0
E0
E0
FE
ENDCHAR
STARTCHAR g40
ENCODING 70
SWIDTH 667 0
DWIDTH 8 0
BBX 7 9 0 0
BITMAP
FE
E0
E0
E0
FC
E0
E0
E0
E0
ENDCHAR
STARTCHAR g41
ENCODING 71
SWIDTH 917 0
DWIDTH 11 0
BBX 10 9 0 0
BITMAP
1F80
7000
F000
E000
E3C0
E1C0
F1C0
71C0
1FC0
ENDCHAR
STARTCHAR g42
ENCODING 72
SWIDTH 833 0
DWIDTH 10 0
BBX 9 9 0 0
BITMAP
E380
E380
E380
E380
FF80
E380
E380
E380
E380
ENDCHAR
STARTCHAR g43
ENCODING 73
SWIDTH 333 0
DWIDTH 4 0
BBX 3 9 0 0
BITMAP
E0
E0
E0
E0
E0
E0
E0
E0
E0
ENDCHAR
STARTCHAR g44
ENCODING 74
SWIDTH 583 0
DWIDTH 7 0
BBX 6 9 0 0
BITMAP
1C
1C
1C
1C
1C
1C
1C
1C
F8
ENDCHAR
STARTCHAR g45
ENCODING 75
SWIDTH 833 0
DWIDTH 10 0
BBX 10 9 0 0
BITMAP
E300
E600
EC00
F800
FC00
FE00
EF00
E780
E3C0
ENDCHAR
STARTCHAR g46
ENCODING 76
SWIDTH 667 0
DWIDTH 8 0
BBX 7 9 0 0
BITMAP
E0
E0
E0
E0
E0
E0
E0
E0
FE
ENDCHAR
STARTCHAR g47
ENCODING 77
SWIDTH 1083 0
DWIDTH 13 0
BBX 12 9 0 0
BITMAP
F0F0
F0F0
F9F0
B970
B970
9E70
9E70
8E70
8C70
ENDCHAR
STARTCHAR g48
ENCODING 78
SWIDTH 750 0
DWIDTH 9 0
BBX 8 9 0 0
BITMAP
C1
E1
F1
F9
BD
9F
8F
87
83
ENDCHAR
STARTCHAR g49
ENCODING 79
SWIDTH 917 0
DWIDTH 11 0
BBX 10 9 0 0
BITMAP
3F00
7380
E1C0
E1C0
E1C0
E1C0
E1C0
7380
3F00
ENDCHAR
STARTCHAR g50
ENCODING 80
SWIDTH 833 0
DWIDTH 10 0
BBX 9 9 0 0
BITMAP
FE00
E700
E380
E380
E700
FE00
E000
E000
E000
ENDCHAR
STARTCHAR g51
ENCODING 81
SWIDTH 917 0
DWIDTH 11 0
BBX 10 11 0 -2
BITMAP
3F00
7380
E1C0
E1C0
E1C0
E1C0
E1C0
7380
3F00
0700
03C0
ENDCHAR
STARTCHAR g52
ENCODING 82
SWIDTH 833 0
DWIDTH 10 0
BBX 9 9 0 0
BITMAP
FE00
E700
E700
E700
EE00
FC00
EE00
E700
E380
ENDCHAR
STARTCHAR g53
ENCODING 83
SWIDTH 667 0
DWIDTH 8 0
BBX 7 9 0 0
BITMAP
7E
E0
E0
F8
7C
3E
0E
0E
FC
ENDCHAR
STARTCHAR g54
ENCODING 84
SWIDTH 833 0
DWIDTH 10 0
BBX 9 9 0 0
BITMAP
FF80
1C00
1C00
1C00
1C00
1C00
1C00
1C00
1C00
ENDCHAR
STARTCHAR g55
ENCODING 85
SWIDTH 750 0
DWIDTH 9 0
BBX 8 9 0 0
BITMAP
E3
E3
E3
E3
E3
E3
E3
76
3C
ENDCHAR
STARTCHAR g56
ENCODING 86
SWIDTH 833 0
DWIDTH 10 0
BBX 10 9 0 0
BITMAP
F0C0
F0C0
7180
7980
3900
3B00
3B00
1E00
1E00
ENDCHAR
STARTCHAR g57
ENCODING 87
SWIDTH 1250 0
DWIDTH 15 0
BBX 15 9 0 0
BITMAP
F18E
F18E
718C
73DC
3BD8
3AD8
3EF0
1C70
1C70
ENDCHAR
STARTCHAR g58
ENCODING 88
SWIDTH 833 0
DWIDTH 10 0
BBX 9 9 0 0
BITMAP
F180
F180
7B00
3E00
1C00
3E00
6F00
C780
C780
ENDCHAR
STARTCHAR g59
ENCODING 89
SWIDTH 750 0
DWIDTH 9 0
BBX 9 9 0 0
BITMAP
E180
F180
7300
7B00
3E00
1C00
1C00
1C00
1C00
ENDCHAR
STARTCHAR g60
ENCODING 90
SWIDTH 667 0
DWIDTH 8 0
BBX 7 9 0 0
BITMAP
FE
0E
1E
3C
38
78
F0
E0
FE
ENDCHAR
STARTCHAR g61
ENCODING 91
SWIDTH 417 0
DWIDTH 5 0
BBX 4 12 0 -2
BITMAP
F0
C0
C0
C0
C0
C0
C0
C0
C0
C0
C0
F0
ENDCHAR
STARTCHAR g62
ENCODING 92
SWIDTH 500 0
DWIDTH 6 0
BBX 6 10 0 -1
BITMAP
C0
C0
60
60
30
30
18
18
0C
0C
ENDCHAR
STARTCHAR g63
ENCODING 93
SWIDTH 417 0
DWIDTH 5 0
BBX 4 12 0 -2
BITMAP
F0
30
30
30
30
30
30
30
30
30
30
F0
ENDCHAR
STARTCHAR g64
ENCODING 94
SWIDTH 500 0
DWIDTH 6 0
BBX 5 6 0 3
BITMAP
20
20
70
50
D8
88
ENDCHAR
STARTCHAR g65
ENCODING 95
SWIDTH 583 0
DWIDTH 7 0
BBX 7 1 0 -1
BITMAP
FE
ENDCHAR
STARTCHAR g66
ENCODING 96
SWIDTH 417 0
DWIDTH 5 0
BBX 4 2 0 7
BITMAP
E0
30
ENDCHAR
STARTCHAR g67
ENCODING 97
SWIDTH 750 0
DWIDTH 9 0
BBX 8 7 0 0
BITMAP
7E
0F
07
7F
E7
E7
7B
ENDCHAR
STARTCHAR g68
ENCODING 98
SWIDTH 750 0
DWIDTH 9 0
BBX 8 9 0 0
BITMAP
E0
E0
EE
F7
E7
E7
E7
EE
FC
ENDCHAR
STARTCHAR g69
ENCODING 99
SWIDTH 667 0
DWIDTH 8 0
BBX 7 7 0 0
BITMAP
3E
70
E0
E0
E0
70
3E
ENDCHAR
STARTCHAR g70
ENCODING 100
SWIDTH 750 0
DWIDTH 9 0
BBX 8 9 0 0
BITMAP
07
07
3F
77
E7
E7
E7
EF
7B
ENDCHAR
STARTCHAR g71
ENCODING 101
SWIDTH 750 0
DWIDTH 9 0
BBX 8 7 0 0
BITMAP
3E
67
E7
FF
E0
F0
3F
ENDCHAR
STARTCHAR g72
ENCODING 102
SWIDTH 583 0
DWIDTH 7 0
BBX 6 9 0 0
BITMAP
3C
70
FC
70
70
70
70
70
70
ENDCHAR
STARTCHAR g73
ENCODING 103
SWIDTH 750 0
DWIDTH 9 0
BBX 8 10 0 -3
BITMAP
3F
77
E7
E7
E7
EF
77
07
0E
7C
ENDCHAR
STARTCHAR g74
ENCODING 104
SWIDTH 750 0
DWIDTH 9 0
BBX 8 9 0 0
BITMAP
E0
E0
EE
F7
E7
E7
E7
E7
E7
ENDCHAR
STARTCHAR g75
ENCODING 105
SWIDTH 333 0
DWIDTH 4 0
BBX 3 9 0 0
BITMAP
E0
00
E0
E0
E0
E0
E0
E0
E0
ENDCHAR
STARTCHAR g76
ENCODING 106
SWIDTH 333 0
DWIDTH 4 0
BBX 5 12 -2 -3
BITMAP
38
00
38
38
38
38
38
38
38
38
38
F0
ENDCHAR
STARTCHAR g77
ENCODING 107
SWIDTH 750 0
DWIDTH 9 0
BBX 8 9 0 0
BITMAP
E0
E0
E7
EE
FC
FC
EE
E7
E7
ENDCHAR
STARTCHAR g78
ENCODING 108
SWIDTH 333 0
DWIDTH 4 0
BBX 3 9 0 0
BITMAP
E0
E0
E0
E0
E0
E0
E0
E0
E0
ENDCHAR
STARTCHAR g79
ENCODING 109
SWIDTH 1167 0
DWIDTH 14 0
BBX 13 7 0 0
BITMAP
EEF0
F7B8
E738
E738
E738
E738
E738
ENDCHAR
STARTCHAR g80
ENCODING 110
SWIDTH 750 0
DWIDTH 9 0
BBX 8 7 0 0
BITMAP
EE
F7
E7
E7
E7
E7
E7
ENDCHAR
STARTCHAR g81
ENCODING 111
SWIDTH 833 0
DWIDTH 10 0
BBX 9 7 0 0
BITMAP
3E00
7700
E380
E380
E380
7700
3E00
ENDCHAR
STARTCHAR g82
ENCODING 112
SWIDTH 750 0
DWIDTH 9 0
BBX 8 10 0 -3
BITMAP
EE
F7
E7
E7
E7
EE
FC
E0
E0
E0
ENDCHAR
STARTCHAR g83
ENCODING 113
SWIDTH 750 0
DWIDTH 9 0
BBX 8 10 0 -3
BITMAP
3F
77
E7
E7
E7
EF
77
07
07
07
ENDCHAR
STARTCHAR g84
ENCODING 114
SWIDTH 583 0
DWIDTH 7 0
BBX 6 7 0 0
BITMAP
EC
FC
E0
E0
E0
E0
E0
ENDCHAR
STARTCHAR g85
ENCODING 115
SWIDTH 583 0
DWIDTH 7 0
BBX 6 7 0 0
BITMAP
7C
E0
F0
78
3C
1C
F8
ENDCHAR
STARTCHAR g86
ENCODING 116
SWIDTH 583 0
DWIDTH 7 0
BBX 6 9 0 0
BITMAP
70
70
FC
70
70
70
70
70
3C
ENDCHAR
STARTCHAR g87
ENCODING 117
SWIDTH 750 0
DWIDTH 9 0
BBX 8 7 0 0
BITMAP
E7
E7
E7
E7
E7
EF
77
ENDCHAR
STARTCHAR g88
ENCODING 118
SWIDTH 833 0
DWIDTH 10 0
BBX 9 7 0 0
BITMAP
F180
F180
7100
7B00
3A00
3E00
1C00
ENDCHAR
STARTCHAR g89
ENCODING 119
SWIDTH 1083 0
DWIDTH 13 0
BBX 12 7 0 0
BITMAP
E730
E730
E730
77A0
77A0
39C0
39C0
ENDCHAR
STARTCHAR g90
ENCODING 120
SWIDTH 750 0
DWIDTH 9 0
BBX 8 7 0 0
BITMAP
E3
F3
7E
3C
7E
CF
C7
ENDCHAR
STARTCHAR g91
ENCODING 121
SWIDTH 833 0
DWIDTH 10 0
BBX 9 10 0 -3
BITMAP
F180
F180
7900
3B00
3E00
1E00
0C00
1C00
7800
7000
ENDCHAR
STARTCHAR g92
ENCODING 122
SWIDTH 583 0
DWIDTH 7 0
BBX 6 7 0 0
BITMAP
FC
1C
38
70
E0
E0
FC
ENDCHAR
STARTCHAR g93
ENCODING 123
SWIDTH 417 0
DWIDTH 5 0
BBX 4 12 0 -2
BITMAP
30
60
60
60
60
C0
60
60
60
60
60
30
ENDCHAR
STARTCHAR g94
ENCODING 124
SWIDTH 417 0
DWIDTH 5 0
BBX 2 13 1 -3
BITMAP
C0
C0
C0
C0
C0
C0
00
C0
C0
C0
C0
C0
C0
ENDCHAR
STARTCHAR g95
ENCODING 125
SWIDTH 417 0
DWIDTH 5 0
BBX 4 12 0 -2
BITMAP
C0
60
60
60
60
30
60
60
60
60
60
C0
ENDCHAR
STARTCHAR g96
ENCODING 126
SWIDTH 750 0
DWIDTH 9 0
BBX 8 3 0 5
BITMAP
79
BD
9E
ENDCHAR
STARTCHAR g97
ENCODING 127
SWIDTH 750 0
DWIDTH 9 0
BBX 0 0 0 0
BITMAP
ENDCHAR
STARTCHAR g98
ENCODING 161
SWIDTH 333 0
DWIDTH 4 0
BBX 3 9 0 -2
BITMAP
E0
E0
00
E0
E0
E0
E0
E0
E0
ENDCHAR
STARTCHAR g99
ENCODING 162
SWIDTH 583 0
DWIDTH 7 0
BBX 6 8 0 -1
BITMAP
10
7C
F0
D0
D0
F0
7C
10
ENDCHAR
STARTCHAR g100
ENCODING 163
SWIDTH 750 0
DWIDTH 9 0
BBX 8 9 0 0
BITMAP
3E
70
70
FC
70
70
70
70
FF
ENDCHAR
STARTCHAR g101
ENCODING 164
SWIDTH 667 0
DWIDTH 8 0
BBX 7 7 0 0
BITMAP
BA
6C
C6
82
C6
6C
BA
ENDCHAR
STARTCHAR g102
ENCODING 165
SWIDTH 833 0
DWIDTH 10 0
BBX 9 9 0 0
BITMAP
E180
F180
7300
3B00
FF80
1C00
FF80
1C00
1C00
ENDCHAR
STARTCHAR g103
ENCODING 167
SWIDTH 667 0
DWIDTH 8 0
BBX 8 10 0 -1
BITMAP
7E
E7
E0
7E
E7
E7
7E
07
E7
7E
ENDCHAR
STARTCHAR g104
ENCODING 168
SWIDTH 500 0
DWIDTH 6 0
BBX 5 1 0 9
BITMAP
D8
ENDCHAR
STARTCHAR g105
ENCODING 169
SWIDTH 667 0
DWIDTH 8 0
BBX 7 8 0 0
BITMAP
38
44
9A
A2
A2
9A
44
38
ENDCHAR
STARTCHAR g106
ENCODING 170
SWIDTH 500 0
DWIDTH 6 0
BBX 5 6 0 3
BITMAP
78
D8
D8
68
00
F8
ENDCHAR
STARTCHAR g107
ENCODING 171
SWIDTH 667 0
DWIDTH 8 0
BBX 7 5 0 1
BITMAP
36
6C
D8
6C
36
ENDCHAR
STARTCHAR g108
ENCODING 172
SWIDTH 667 0
DWIDTH 8 0
BBX 7 3 0 2
BITMAP
FE
02
02
ENDCHAR
STARTCHAR g109
ENCODING 174
SWIDTH 667 0
DWIDTH 8 0
BBX 7 8 0 0
BITMAP
38
44
B2
AA
B2
AA
44
38
ENDCHAR
STARTCHAR g110
ENCODING 175
SWIDTH 417 0
DWIDTH 5 0
BBX 4 1 0 7
BITMAP
F0
ENDCHAR
STARTCHAR g111
ENCODING 176
SWIDTH 417 0
DWIDTH 5 0
BBX 4 4 0 6
BITMAP
60
90
90
60
ENDCHAR
STARTCHAR g112
ENCODING 177
SWIDTH 500 0
DWIDTH 6 0
BBX 5 6 0 1
BITMAP
20
20
F8
20
20
F8
ENDCHAR
STARTCHAR g113
ENCODING 180
SWIDTH 417 0
DWIDTH 5 0
BBX 4 2 0 8
BITMAP
70
C0
ENDCHAR
STARTCHAR g114
ENCODING 181
SWIDTH 750 0
DWIDTH 9 0
BBX 8 10 0 -3
BITMAP
E7
E7
E7
E7
E7
EF
F7
C0
C0
C0
ENDCHAR
STARTCHAR g115
ENCODING 182
SWIDTH 667 0
DWIDTH 8 0
BBX 7 9 0 0
BITMAP
7E
F6
F6
F6
76
16
16
16
16
ENDCHAR
STARTCHAR g116
ENCODING 183
SWIDTH 250 0
DWIDTH 3 0
BBX 2 2 0 4
BITMAP
C0
C0
ENDCHAR
STARTCHAR g117
ENCODING 184
SWIDTH 333 0
DWIDTH 4 0
BBX 3 3 0 -2
BITMAP
40
20
C0
ENDCHAR
STARTCHAR g118
ENCODING 186
SWIDTH 500 0
DWIDTH 6 0
BBX 5 6 0 3
BITMAP
70
D8
D8
70
00
F8
ENDCHAR
STARTCHAR g119
ENCODING 187
SWIDTH 667 0
DWIDTH 8 0
BBX 7 5 0 1
BITMAP
D8
6C
36
6C
D8
ENDCHAR
STARTCHAR g120
ENCODING 191
SWIDTH 583 0
DWIDTH 7 0
BBX 6 9 0 -2
BITMAP
38
38
00
38
38
70
E0
E0
7C
ENDCHAR
STARTCHAR g121
ENCODING 192
SWIDTH 917 0
DWIDTH 11 0
BBX 10 12 0 0
BITMAP
1C00
0600
0000
0E00
1E00
1F00
3700
3700
6380
7F80
C3C0
C3C0
ENDCHAR
STARTCHAR g122
ENCODING 193
SWIDTH 917 0
DWIDTH 11 0
BBX 10 12 0 0
BITMAP
0E00
1800
0000
0E00
1E00
1F00
3700
3700
6380
7F80
C3C0
C3C0
ENDCHAR
STARTCHAR g123
ENCODING 194
SWIDTH 917 0
DWIDTH 11 0
BBX 10 13 0 0
BITMAP
0400
0E00
1100
0000
0E00
1E00
1F00
3700
3700
6380
7F80
C3C0
C3C0
ENDCHAR
STARTCHAR g124
ENCODING 195
SWIDTH 917 0
DWIDTH 11 0
BBX 10 12 0 0
BITMAP
1A00
2C00
0000
0E00
1E00
1F00
3700
3700
6380
7F80
C3C0
C3C0
ENDCHAR
STARTCHAR g125
ENCODING 196
SWIDTH 917 0
DWIDTH 11 0
BBX 10 11 0 0
BITMAP
1B00
0000
0E00
1E00
1F00
3700
3700
6380
7F80
C3C0
C3C0
ENDCHAR
STARTCHAR g126
ENCODING 197
SWIDTH 917 0
DWIDTH 11 0
BBX 10 12 0 0
BITMAP
0C00
1200
0C00
0E00
1E00
1F00
3700
3700
6380
7F80
C3C0
C3C0
ENDCHAR
STARTCHAR g127
ENCODING 198
SWIDTH 1167 0
DWIDTH 14 0
BBX 13 9 0 0
BITMAP
0FF8
1B80
1B80
3380
33F0
7F80
6380
C380
C3F8
ENDCHAR
STARTCHAR g128
ENCODING 199
SWIDTH 750 0
DWIDTH 9 0
BBX 8 11 0 -2
BITMAP
1F
70
F0
E0
E0
E0
F0
70
1F
04
18
ENDCHAR
STARTCHAR g129
ENCODING 200
SWIDTH 667 0
DWIDTH 8 0
BBX 7 12 0 0
BITMAP
70
18
00
FE
E0
E0
E0
FC
E0
E0
E0
FE
ENDCHAR
STARTCHAR g130
ENCODING 201
SWIDTH 667 0
DWIDTH 8 0
BBX 7 12 0 0
BITMAP
1C
30
00
FE
E0
E0
E0
FC
E0
E0
E0
FE
ENDCHAR
STARTCHAR g131
ENCODING 202
SWIDTH 667 0
DWIDTH 8 0
BBX 7 13 0 0
BITMAP
10
38
44
00
FE
E0
E0
E0
FC
E0
E0
E0
FE
ENDCHAR
STARTCHAR g132
ENCODING 203
SWIDTH 667 0
DWIDTH 8 0
BBX 7 11 0 0
BITMAP
6C
00
FE
E0
E0
E0
FC
E0
E0
E0
FE
ENDCHAR
STARTCHAR g133
ENCODING 204
SWIDTH 333 0
DWIDTH 4 0
BBX 4 12 -1 0
BITMAP
E0
30
00
70
70
70
70
70
70
70
70
70
ENDCHAR
STARTCHAR g134
ENCODING 205
SWIDTH 333 0
DWIDTH 4 0
BBX 4 12 0 0
BITMAP
70
C0
00
E0
E0
E0
E0
E0
E0
E0
E0
E0
ENDCHAR
STARTCHAR g135
ENCODING 206
SWIDTH 333 0
DWIDTH 4 0
BBX 5 13 -1 0
BITMAP
20
70
88
00
70
70
70
70
70
70
70
70
70
ENDCHAR
STARTCHAR g136
ENCODING 207
SWIDTH 333 0
DWIDTH 4 0
BBX 5 11 -1 0
BITMAP
D8
00
70
70
70
70
70
70
70
70
70
ENDCHAR
STARTCHAR g137
ENCODING 209
SWIDTH 750 0
DWIDTH 9 0
BBX 8 12 0 0
BITMAP
1A
2C
00
C1
E1
F1
F9
BD
9F
8F
87
83
ENDCHAR
STARTCHAR g138
ENCODING 210
SWIDTH 917 0
DWIDTH 11 0
BBX 10 12 0 0
BITMAP
3800
0C00
0000
3F00
7380
E1C0
E1C0
E1C0
E1C0
E1C0
7380
3F00
ENDCHAR
STARTCHAR g139
ENCODING 211
SWIDTH 917 0
DWIDTH 11 0
BBX 10 12 0 0
BITMAP
0700
0C00
0000
3F00
7380
E1C0
E1C0
E1C0
E1C0
E1C0
7380
3F00
ENDCHAR
STARTCHAR g140
ENCODING 212
SWIDTH 917 0
DWIDTH 11 0
BBX 10 13 0 0
BITMAP
0400
0E00
1100
0000
3F00
7380
E1C0
E1C0
E1C0
E1C0
E1C0
7380
3F00
ENDCHAR
STARTCHAR g141
ENCODING 213
SWIDTH 917 0
DWIDTH 11 0
BBX 10 12 0 0
BITMAP
0D00
1600
0000
3F00
7380
E1C0
E1C0
E1C0
E1C0
E1C0
7380
3F00
ENDCHAR
STARTCHAR g142
ENCODING 214
SWIDTH 917 0
DWIDTH 11 0
BBX 10 11 0 0
BITMAP
1B00
0000
3F00
7380
E1C0
E1C0
E1C0
E1C0
E1C0
7380
3F00
ENDCHAR
STARTCHAR g143
ENCODING 216
SWIDTH 917 0
DWIDTH 11 0
BBX 10 9 0 0
BITMAP
3F40
7380
E3C0
E5C0
E9C0
F1C0
E1C0
7380
BF00
ENDCHAR
STARTCHAR g144
ENCODING 217
SWIDTH 750 0
DWIDTH 9 0
BBX 8 12 0 0
BITMAP
38
0C
00
E3
E3
E3
E3
E3
E3
E3
76
3C
ENDCHAR
STARTCHAR g145
ENCODING 218
SWIDTH 750 0
DWIDTH 9 0
BBX 8 12 0 0
BITMAP
0E
18
00
E3
E3
E3
E3
E3
E3
E3
76
3C
ENDCHAR
STARTCHAR g146
ENCODING 219
SWIDTH 750 0
DWIDTH 9 0
BBX 8 13 0 0
BITMAP
08
1C
22
00
E3
E3
E3
E3
E3
E3
E3
76
3C
ENDCHAR
STARTCHAR g147
ENCODING 220
SWIDTH 750 0
DWIDTH 9 0
BBX 8 11 0 0
BITMAP
36
00
E3
E3
E3
E3
E3
E3
E3
76
3C
ENDCHAR
STARTCHAR g148
ENCODING 223
SWIDTH 917 0
DWIDTH 11 0
BBX 10 9 0 0
BITMAP
7E00
E300
E700
EE00
EF00
E780
E3C0
E1C0
EF80
ENDCHAR
STARTCHAR g149
ENCODING 224
SWIDTH 750 0
DWIDTH 9 0
BBX 8 10 0 0
BITMAP
38
0C
00
7E
0F
07
7F
E7
E7
7B
ENDCHAR
STARTCHAR g150
ENCODING 225
SWIDTH 750 0
DWIDTH 9 0
BBX 8 10 0 0
BITMAP
0E
18
00
7E
0F
07
7F
E7
E7
7B
ENDCHAR
STARTCHAR g151
ENCODING 226
SWIDTH 750 0
DWIDTH 9 0
BBX 8 11 0 0
BITMAP
08
1C
22
00
7E
0F
07
7F
E7
E7
7B
ENDCHAR
STARTCHAR g152
ENCODING 227
SWIDTH 750 0
DWIDTH 9 0
BBX 8 10 0 0
BITMAP
1A
2C
00
7E
0F
07
7F
E7
E7
7B
ENDCHAR
STARTCHAR g153
ENCODING 228
SWIDTH 750 0
DWIDTH 9 0
BBX 8 9 0 0
BITMAP
36
00
7E
0F
07
7F
E7
E7
7B
ENDCHAR
STARTCHAR g154
ENCODING 229
SWIDTH 750 0
DWIDTH 9 0
BBX 8 10 0 0
BITMAP
18
24
18
7E
0F
07
7F
E7
E7
7B
ENDCHAR
STARTCHAR g155
ENCODING 230
SWIDTH 1167 0
DWIDTH 14 0
BBX 13 7 0 0
BITMAP
7DF0
0F38
0738
7FF8
E700
E780
79F8
ENDCHAR
STARTCHAR g156
ENCODING 231
SWIDTH 667 0
DWIDTH 8 0
BBX 7 9 0 -2
BITMAP
3E
70
E0
E0
E0
70
3E
08
18
ENDCHAR
STARTCHAR g157
ENCODING 232
SWIDTH 750 0
DWIDTH 9 0
BBX 8 10 0 0
BITMAP
38
0C
00
3E
67
E7
FF
E0
F0
3F
ENDCHAR
STARTCHAR g158
ENCODING 233
SWIDTH 750 0
DWIDTH 9 0
BBX 8 10 0 0
BITMAP
0E
18
00
3E
67
E7
FF
E0
F0
3F
ENDCHAR
STARTCHAR g159
ENCODING 234
SWIDTH 750 0
DWIDTH 9 0
BBX 8 11 0 0
BITMAP
08
1C
22
00
3E
67
E7
FF
E0
F0
3F
ENDCHAR
STARTCHAR g160
ENCODING 235
SWIDTH 750 0
DWIDTH 9 0
BBX 8 9 0 0
BITMAP
36
00
3E
67
E7
FF
E0
F0
3F
ENDCHAR
STARTCHAR g161
ENCODING 236
SWIDTH 333 0
DWIDTH 4 0
BBX 4 10 -1 0
BITMAP
E0
30
00
70
70
70
70
70
70
70
ENDCHAR
STARTCHAR g162
ENCODING 237
SWIDTH 333 0
DWIDTH 4 0
BBX 4 10 0 0
BITMAP
70
C0
00
E0
E0
E0
E0
E0
E0
E0
ENDCHAR
STARTCHAR g163
ENCODING 238
SWIDTH 333 0
DWIDTH 4 0
BBX 5 11 -1 0
BITMAP
20
70
88
00
70
70
70
70
70
70
70
ENDCHAR
STARTCHAR g164
ENCODING 239
SWIDTH 333 0
DWIDTH 4 0
BBX 5 9 -1 0
BITMAP
D8
00
70
70
70
70
70
70
70
ENDCHAR
STARTCHAR g165
ENCODING 241
SWIDTH 750 0
DWIDTH 9 0
BBX 8 10 0 0
BITMAP
1A
2C
00
EE
F7
E7
E7
E7
E7
E7
ENDCHAR
STARTCHAR g166
ENCODING 242
SWIDTH 833 0
DWIDTH 10 0
BBX 9 10 0 0
BITMAP
3800
0C00
0000
3E00
7700
E380
E380
E380
7700
3E00
ENDCHAR
STARTCHAR g167
ENCODING 243
SWIDTH 833 0
DWIDTH 10 0
BBX 9 10 0 0
BITMAP
0E00
1800
0000
3E00
7700
E380
E380
E380
7700
3E00
ENDCHAR
STARTCHAR g168
ENCODING 244
SWIDTH 833 0
DWIDTH 10 0
BBX 9 11 0 0
BITMAP
0800
1C00
2200
0000
3E00
7700
E380
E380
E380
7700
3E00
ENDCHAR
STARTCHAR g169
ENCODING 245
SWIDTH 833 0
DWIDTH 10 0
BBX 9 10 0 0
BITMAP
1A00
2C00
0000
3E00
7700
E380
E380
E380
7700
3E00
ENDCHAR
STARTCHAR g170
ENCODING 246
SWIDTH 833 0
DWIDTH 10 0
BBX 9 9 0 0
BITMAP
3600
0000
3E00
7700
E380
E380
E380
7700
3E00
ENDCHAR
STARTCHAR g171
ENCODING 247
SWIDTH 667 0
DWIDTH 8 0
BBX 7 5 0 2
BITMAP
10
00
FE
00
10
ENDCHAR
STARTCHAR g172
ENCODING 248
SWIDTH 833 0
DWIDTH 10 0
BBX 9 9 0 -1
BITMAP
0080
3F00
7700
E780
EB80
F380
7700
7E00
8000
ENDCHAR
STARTCHAR g173
ENCODING 249
SWIDTH 750 0
DWIDTH 9 0
BBX 8 10 0 0
BITMAP
70
18
00
E7
E7
E7
E7
E7
EF
77
ENDCHAR
STARTCHAR g174
ENCODING 250
SWIDTH 750 0
DWIDTH 9 0
BBX 8 10 0 0
BITMAP
0E
18
00
E7
E7
E7
E7
E7
EF
77
ENDCHAR
STARTCHAR g175
ENCODING 251
SWIDTH 750 0
DWIDTH 9 0
BBX 8 11 0 0
BITMAP
08
1C
22
00
E7
E7
E7
E7
E7
EF
77
ENDCHAR
STARTCHAR g176
ENCODING 252
SWIDTH 750 0
DWIDTH 9 0
BBX 8 9 0 0
BITMAP
36
00
E7
E7
E7
E7
E7
EF
77
ENDCHAR
STARTCHAR g177
ENCODING 255
SWIDTH 833 0
DWIDTH 10 0
BBX 9 12 0 -3
BITMAP
1B00
0000
F180
F180
7900
3B00
3E00
1E00
0C00
1C00
7800
7000
ENDCHAR
STARTCHAR g178
ENCODING 305
SWIDTH 333 0
DWIDTH 4 0
BBX 3 7 0 0
BITMAP
E0
E0
E0
E0
E0
E0
E0
ENDCHAR
STARTCHAR g179
ENCODING 338
SWIDTH 1167 0
DWIDTH 14 0
BBX 13 9 0 0
BITMAP
3FF8
7380
E380
E380
E3F0
E380
E380
7380
3FF8
ENDCHAR
STARTCHAR g180
ENCODING 339
SWIDTH 1250 0
DWIDTH 15 0
BBX 14 7 0 0
BITMAP
3EF8
779C
E39C
E3FC
E380
77C0
3EFC
ENDCHAR
STARTCHAR g181
ENCODING 376
SWIDTH 833 0
DWIDTH 10 0
BBX 9 11 0 0
BITMAP
3600
0000
E180
F180
7300
7B00
3E00
1C00
1C00
1C00
1C00
ENDCHAR
STARTCHAR g182
ENCODING 402
SWIDTH 833 0
DWIDTH 10 0
BBX 10 11 -1 -1
BITMAP
03C0
0700
0700
1FC0
0E00
0E00
1C00
1C00
3800
3800
F000
ENDCHAR
STARTCHAR g183
ENCODING 710
SWIDTH 417 0
DWIDTH 5 0
BBX 4 2 0 7
BITMAP
60
90
ENDCHAR
STARTCHAR g184
ENCODING 711
SWIDTH 333 0
DWIDTH 4 0
BBX 3 2 0 7
BITMAP
A0
40
ENDCHAR
STARTCHAR g185
ENCODING 728
SWIDTH 417 0
DWIDTH 5 0
BBX 4 2 0 7
BITMAP
90
60
ENDCHAR
STARTCHAR g186
ENCODING 729
SWIDTH 250 0
DWIDTH 3 0
BBX 2 1 0 8
BITMAP
C0
ENDCHAR
STARTCHAR g187
ENCODING 730
SWIDTH 417 0
DWIDTH 5 0
BBX 4 3 0 6
BITMAP
60
90
60
ENDCHAR
STARTCHAR g188
ENCODING 731
SWIDTH 333 0
DWIDTH 4 0
BBX 3 3 0 -2
BITMAP
40
80
60
ENDCHAR
STARTCHAR g189
ENCODING 732
SWIDTH 500 0
DWIDTH 6 0
BBX 5 2 0 7
BITMAP
68
B0
ENDCHAR
STARTCHAR g190
ENCODING 733
SWIDTH 417 0
DWIDTH 5 0
BBX 4 2 0 7
BITMAP
50
A0
ENDCHAR
STARTCHAR g191
ENCODING 960
SWIDTH 1000 0
DWIDTH 12 0
BBX 11 7 0 0
BITMAP
FFC0
7380
7380
7380
73E0
73C0
F380
ENDCHAR
STARTCHAR g192
ENCODING 8211
SWIDTH 667 0
DWIDTH 8 0
BBX 7 1 0 4
BITMAP
FE
ENDCHAR
STARTCHAR g193
ENCODING 8212
SWIDTH 1250 0
DWIDTH 15 0
BBX 14 1 0 4
BITMAP
FFFC
ENDCHAR
STARTCHAR g194
ENCODING 8216
SWIDTH 250 0
DWIDTH 3 0
BBX 2 4 0 6
BITMAP
40
80
C0
C0
ENDCHAR
STARTCHAR g195
ENCODING 8217
SWIDTH 250 0
DWIDTH 3 0
BBX 2 4 0 6
BITMAP
C0
C0
40
80
ENDCHAR
STARTCHAR g196
ENCODING 8218
SWIDTH 250 0
DWIDTH 3 0
BBX 2 4 0 -2
BITMAP
C0
C0
40
80
ENDCHAR
STARTCHAR g197
ENCODING 8220
SWIDTH 500 0
DWIDTH 6 0
BBX 5 4 0 6
BITMAP
48
90
D8
D8
ENDCHAR
STARTCHAR g198
ENCODING 8221
SWIDTH 500 0
DWIDTH 6 0
BBX 5 4 0 6
BITMAP
D8
D8
48
90
ENDCHAR
STARTCHAR g199
ENCODING 8222
SWIDTH 500 0
DWIDTH 6 0
BBX 5 4 0 -2
BITMAP
D8
D8
48
90
ENDCHAR
STARTCHAR g200
ENCODING 8224
SWIDTH 417 0
DWIDTH 5 0
BBX 4 6 0 4
BITMAP
60
F0
60
60
60
60
ENDCHAR
STARTCHAR g201
ENCODING 8225
SWIDTH 583 0
DWIDTH 7 0
BBX 6 11 0 -2
BITMAP
30
30
FC
30
30
30
30
30
FC
30
30
ENDCHAR
STARTCHAR g202
ENCODING 8226
SWIDTH 583 0
DWIDTH 7 0
BBX 6 5 0 2
BITMAP
78
FC
FC
FC
78
ENDCHAR
STARTCHAR g203
ENCODING 8230
SWIDTH 917 0
DWIDTH 11 0
BBX 10 2 0 0
BITMAP
CCC0
CCC0
ENDCHAR
STARTCHAR g204
ENCODING 8240
SWIDTH 1417 0
DWIDTH 17 0
BBX 16 8 0 0
BITMAP
70E0
D9C0
DB80
7700
0EEE
1DBB
39BB
70EE
ENDCHAR
STARTCHAR g205
ENCODING 8249
SWIDTH 417 0
DWIDTH 5 0
BBX 4 5 0 1
BITMAP
30
60
C0
60
30
ENDCHAR
STARTCHAR g206
ENCODING 8250
SWIDTH 417 0
DWIDTH 5 0
BBX 4 5 0 1
BITMAP
C0
60
30
60
C0
ENDCHAR
STARTCHAR g207
ENCODING 8260
SWIDTH 500 0
DWIDTH 6 0
BBX 6 10 0 -1
BITMAP
0C
0C
18
18
30
30
60
60
C0
C0
ENDCHAR
STARTCHAR g208
ENCODING 8482
SWIDTH 833 0
DWIDTH 10 0
BBX 9 4 0 5
BITMAP
E880
4D80
4A80
4A80
ENDCHAR
STARTCHAR g209
ENCODING 8486
SWIDTH 917 0
DWIDTH 11 0
BBX 10 9 0 0
BITMAP
3F00
7380
E1C0
E1C0
E1C0
6180
3300
9240
F3C0
ENDCHAR
STARTCHAR g210
ENCODING 8706
SWIDTH 750 0
DWIDTH 9 0
BBX 8 9 0 0
BITMAP
3C
0E
07
3F
67
E7
E7
E6
7C
ENDCHAR
STARTCHAR g211
ENCODING 8710
SWIDTH 917 0
DWIDTH 11 0
BBX 10 10 0 0
BITMAP
0C00
0C00
1E00
1E00
2700
2700
4380
4380
81C0
FFC0
ENDCHAR
STARTCHAR g212
ENCODING 8719
SWIDTH 1000 0
DWIDTH 12 0
BBX 11 10 0 -1
BITMAP
FFE0
71C0
71C0
71C0
71C0
71C0
71C0
71C0
71C0
FBE0
ENDCHAR
STARTCHAR g213
ENCODING 8721
SWIDTH 667 0
DWIDTH 8 0
BBX 7 10 0 -1
BITMAP
FE
E2
F0
78
38
30
60
C2
FE
FE
ENDCHAR
STARTCHAR g214
ENCODING 8730
SWIDTH 667 0
DWIDTH 8 0
BBX 7 11 0 -1
BITMAP
02
02
06
04
04
CC
68
28
38
10
10
ENDCHAR
STARTCHAR g215
ENCODING 8734
SWIDTH 833 0
DWIDTH 10 0
BBX 10 4 0 3
BITMAP
7B80
DCC0
CEC0
7B80
ENDCHAR
STARTCHAR g216
ENCODING 8747
SWIDTH 417 0
DWIDTH 5 0
BBX 4 14 0 -3
BITMAP
30
60
60
60
60
60
60
60
60
60
60
60
60
C0
ENDCHAR
STARTCHAR g217
ENCODING 8776
SWIDTH 583 0
DWIDTH 7 0
BBX 6 5 0 2
BITMAP
74
B8
00
74
B8
ENDCHAR
STARTCHAR g218
ENCODING 8800
SWIDTH 583 0
DWIDTH 7 0
BBX 6 5 0 2
BITMAP
10
FC
20
FC
40
ENDCHAR
STARTCHAR g219
ENCODING 8804
SWIDTH 583 0
DWIDTH 7 0
BBX 6 7 0 0
BITMAP
0C
30
C0
30
0C
00
FC
ENDCHAR
STARTCHAR g220
ENCODING 8805
SWIDTH 583 0
DWIDTH 7 0
BBX 6 7 0 0
BITMAP
C0
30
0C
30
C0
00
FC
ENDCHAR
STARTCHAR g221
ENCODING 9674
SWIDTH 667 0
DWIDTH 8 0
BBX 7 11 0 -1
BITMAP
10
10
38
28
6C
C6
6C
28
38
10
10
ENDCHAR
STARTCHAR g222
ENCODING 63252
SWIDTH 833 0
DWIDTH 10 0
BBX 9 9 0 0
BITMAP
7F00
E380
E380
E380
EB80
E380
E380
E380
7F00
ENDCHAR
STARTCHAR g223
ENCODING 63253
SWIDTH 500 0
DWIDTH 6 0
BBX 5 9 0 0
BITMAP
F8
70
70
70
70
70
70
70
F8
ENDCHAR
STARTCHAR g224
ENCODING 63254
SWIDTH 500 0
DWIDTH 6 0
BBX 5 9 0 0
BITMAP
F0
70
70
70
70
70
70
70
78
ENDCHAR
STARTCHAR g225
ENCODING 63487
SWIDTH 833 0
DWIDTH 10 0
BBX 0 0 0 0
BITMAP
ENDCHAR
STARTCHAR g226
ENCODING 64257
SWIDTH 833 0
DWIDTH 10 0
BBX 9 9 0 0
BITMAP
3F80
7000
FF80
7380
7380
7380
7380
7380
7380
ENDCHAR
STARTCHAR g227
ENCODING 64258
SWIDTH 833 0
DWIDTH 10 0
BBX 9 9 0 0
BITMAP
3F80
7380
FB80
7380
7380
7380
7380
7380
7380
ENDCHAR
STARTCHAR g228
ENCODING 64512
SWIDTH 1250 0
DWIDTH 15 0
BBX 13 9 1 0
BITMAP
3FE0
F8F8
EFB8
0F80
18C0
18C0
3FE0
3FE0
3FE0
ENDCHAR
STARTCHAR g229
ENCODING 64513
SWIDTH 1167 0
DWIDTH 14 0
BBX 10 10 2 -1
BITMAP
0C00
1E00
3F00
7F80
FFC0
FFC0
7F80
3F00
1E00
0C00
ENDCHAR
STARTCHAR g230
ENCODING 64514
SWIDTH 1167 0
DWIDTH 14 0
BBX 0 0 0 0
BITMAP
ENDCHAR
STARTCHAR g231
ENCODING 64515
SWIDTH 1167 0
DWIDTH 14 0
BBX 7 7 4 0
BITMAP
02
06
0A
12
22
42
FE
ENDCHAR
STARTCHAR g232
ENCODING 64516
SWIDTH 1167 0
DWIDTH 14 0
BBX 9 7 2 0
BITMAP
0380
7C00
8A00
1100
1100
1100
0E00
ENDCHAR
STARTCHAR g233
ENCODING 64517
SWIDTH 1250 0
DWIDTH 15 0
BBX 12 12 0 -2
BITMAP
0F00
3FC0
70E0
6660
C030
CE30
C630
C630
6F60
70E0
3FC0
0F00
ENDCHAR
STARTCHAR g234
ENCODING 64518
SWIDTH 1167 0
DWIDTH 14 0
BBX 7 7 4 0
BITMAP
80
C0
A0
90
88
84
FE
ENDCHAR
STARTCHAR g235
ENCODING 64519
SWIDTH 1167 0
DWIDTH 14 0
BBX 12 7 1 0
BITMAP
0F00
30C0
4020
8010
8010
8F10
70E0
ENDCHAR
STARTCHAR g236
ENCODING 64520
SWIDTH 917 0
DWIDTH 11 0
BBX 10 8 0 0
BITMAP
6180
9240
7F80
1200
1200
7F80
9240
6180
ENDCHAR
STARTCHAR g237
ENCODING 64521
SWIDTH 750 0
DWIDTH 9 0
BBX 8 10 0 0
BITMAP
FF
81
81
81
81
81
81
81
81
FF
ENDCHAR
STARTCHAR g238
ENCODING 64522
SWIDTH 917 0
DWIDTH 11 0
BBX 0 0 0 0
BITMAP
ENDCHAR
STARTCHAR g239
ENCODING 64523
SWIDTH 917 0
DWIDTH 11 0
BBX 10 9 0 0
BITMAP
00C0
0180
0300
6600
EE00
3C00
3C00
1800
1000
ENDCHAR
STARTCHAR g240
ENCODING 64524
SWIDTH 750 0
DWIDTH 9 0
BBX 8 10 0 0
BITMAP
FF
81
81
81
81
81
81
81
81
FF
ENDCHAR
STARTCHAR g241
ENCODING 64525
SWIDTH 750 0
DWIDTH 9 0
BBX 8 10 0 0
BITMAP
FF
81
81
81
81
81
81
81
81
FF
ENDCHAR
STARTCHAR g242
ENCODING 64526
SWIDTH 750 0
DWIDTH 9 0
BBX 8 10 0 0
BITMAP
FF
81
81
81
81
81
81
81
81
FF
ENDCHAR
STARTCHAR g243
ENCODING 64527
SWIDTH 750 0
DWIDTH 9 0
BBX 8 10 0 0
BITMAP
FF
81
81
81
81
81
81
81
81
FF
ENDCHAR
ENDFONT
