STARTFONT 2.1
COMMENT Strike 0 of a Newton 'sfnt' font (bloc/bdat): tools/fonts/newtonsfnt.py,
COMMENT tools/fonts/README.md.  The builder reads the BLOC_* properties and the
COMMENT glyphs - STARTCHAR gN (N the glyph id; otherwise ENCODING through 'cmap'),
COMMENT DWIDTH (the advance), BBX (width, height, the bearing x, the bottom row's
COMMENT y: bearing y less the height) and the BITMAP rows.  A glyph id in the
COMMENT subtable ranges with no glyph here has no image (the missing glyph is 0).
COMMENT The other properties, SIZE, FONTBOUNDINGBOX and SWIDTH are worked out and
COMMENT not read back: change BLOC_HORI_* (the line metrics the ROM draws text by)
COMMENT to match an edit that changes the strike's extent.
FONT -Apple-Roman Regular-Medium-R-Normal--9-90-72-72-P-0-Apple-Roman
SIZE 9 72 72
FONTBOUNDINGBOX 17 12 -1 -2
STARTPROPERTIES 37
FONT_ASCENT 10
FONT_DESCENT 3
PIXEL_SIZE 9
FAMILY_NAME "Roman Regular"
BLOC_COLOR_REF 0
BLOC_HORI_ASCENDER 10
BLOC_HORI_DESCENDER -3
BLOC_HORI_WIDTH_MAX 17
BLOC_HORI_CARET_SLOPE_NUMERATOR 0
BLOC_HORI_CARET_SLOPE_DENOMINATOR 1
BLOC_HORI_CARET_OFFSET 0
BLOC_HORI_MIN_ORIGIN_SB -1
BLOC_HORI_MIN_ADVANCE_SB 0
BLOC_HORI_MAX_BEFORE_BL 10
BLOC_HORI_MIN_AFTER_BL -2
BLOC_HORI_PAD1 0
BLOC_HORI_PAD2 0
BLOC_VERT_ASCENDER 0
BLOC_VERT_DESCENDER -1
BLOC_VERT_WIDTH_MAX 12
BLOC_VERT_CARET_SLOPE_NUMERATOR 0
BLOC_VERT_CARET_SLOPE_DENOMINATOR 1
BLOC_VERT_CARET_OFFSET 0
BLOC_VERT_MIN_ORIGIN_SB -44
BLOC_VERT_MIN_ADVANCE_SB -104
BLOC_VERT_MAX_BEFORE_BL 0
BLOC_VERT_MIN_AFTER_BL -17
BLOC_VERT_PAD1 0
BLOC_VERT_PAD2 0
BLOC_START_GLYPH 0
BLOC_END_GLYPH 257
BLOC_PPEM_X 9
BLOC_PPEM_Y 9
BLOC_BIT_DEPTH 1
BLOC_FLAGS 1
BLOC_INDEX_SUBTABLES 1
BLOC_INDEX_SUBTABLE_0 "0 257 3 1 0"
ENDPROPERTIES
CHARS 244
STARTCHAR g0
ENCODING -1
SWIDTH 778 0
DWIDTH 7 0
BBX 6 7 0 0
BITMAP
FC
84
84
84
84
84
FC
ENDCHAR
STARTCHAR g1
ENCODING 0
SWIDTH 0 0
DWIDTH 0 0
BBX 0 0 0 0
BITMAP
ENDCHAR
STARTCHAR g2
ENCODING 1
SWIDTH 222 0
DWIDTH 2 0
BBX 0 0 0 0
BITMAP
ENDCHAR
STARTCHAR g3
ENCODING 2
SWIDTH 333 0
DWIDTH 3 0
BBX 2 7 0 0
BITMAP
C0
C0
C0
C0
C0
00
C0
ENDCHAR
STARTCHAR g4
ENCODING 3
SWIDTH 667 0
DWIDTH 6 0
BBX 5 3 0 5
BITMAP
D8
D8
48
ENDCHAR
STARTCHAR g5
ENCODING 4
SWIDTH 1111 0
DWIDTH 10 0
BBX 9 7 0 0
BITMAP
1B00
1B00
7F80
3600
FF00
6C00
6C00
ENDCHAR
STARTCHAR g6
ENCODING 5
SWIDTH 667 0
DWIDTH 6 0
BBX 5 9 0 -1
BITMAP
20
78
A0
E0
70
38
28
F0
20
ENDCHAR
STARTCHAR g7
ENCODING 6
SWIDTH 1444 0
DWIDTH 13 0
BBX 12 7 0 0
BITMAP
70C0
D980
DB00
76E0
0DB0
19B0
30E0
ENDCHAR
STARTCHAR g8
ENCODING 7
SWIDTH 1000 0
DWIDTH 9 0
BBX 8 7 0 0
BITMAP
38
6C
38
7B
CE
CE
7B
ENDCHAR
STARTCHAR g9
ENCODING 8
SWIDTH 333 0
DWIDTH 3 0
BBX 2 3 0 5
BITMAP
C0
C0
40
ENDCHAR
STARTCHAR g10
ENCODING 9
SWIDTH 556 0
DWIDTH 5 0
BBX 4 9 0 -1
BITMAP
30
60
40
C0
C0
C0
40
60
30
ENDCHAR
STARTCHAR g11
ENCODING 10
SWIDTH 556 0
DWIDTH 5 0
BBX 4 9 0 -1
BITMAP
C0
60
20
30
30
30
20
60
C0
ENDCHAR
STARTCHAR g12
ENCODING 11
SWIDTH 667 0
DWIDTH 6 0
BBX 5 5 0 3
BITMAP
50
20
F8
20
50
ENDCHAR
STARTCHAR g13
ENCODING 12
SWIDTH 667 0
DWIDTH 6 0
BBX 5 5 0 1
BITMAP
20
20
F8
20
20
ENDCHAR
STARTCHAR g14
ENCODING 44
SWIDTH 333 0
DWIDTH 3 0
BBX 2 3 0 -2
BITMAP
C0
40
80
ENDCHAR
STARTCHAR g15
ENCODING 45
SWIDTH 444 0
DWIDTH 4 0
BBX 3 1 0 3
BITMAP
E0
ENDCHAR
STARTCHAR g16
ENCODING 46
SWIDTH 333 0
DWIDTH 3 0
BBX 2 1 0 0
BITMAP
C0
ENDCHAR
STARTCHAR g17
ENCODING 47
SWIDTH 667 0
DWIDTH 6 0
BBX 5 7 0 0
BITMAP
18
18
30
60
60
C0
C0
ENDCHAR
STARTCHAR g18
ENCODING 48
SWIDTH 778 0
DWIDTH 7 0
BBX 6 7 0 0
BITMAP
78
CC
CC
CC
CC
CC
78
ENDCHAR
STARTCHAR g19
ENCODING 49
SWIDTH 778 0
DWIDTH 7 0
BBX 3 7 1 0
BITMAP
60
E0
60
60
60
60
60
ENDCHAR
STARTCHAR g20
ENCODING 50
SWIDTH 778 0
DWIDTH 7 0
BBX 6 7 0 0
BITMAP
78
CC
0C
38
60
C0
FC
ENDCHAR
STARTCHAR g21
ENCODING 51
SWIDTH 778 0
DWIDTH 7 0
BBX 6 7 0 0
BITMAP
78
CC
0C
38
0C
CC
78
ENDCHAR
STARTCHAR g22
ENCODING 52
SWIDTH 778 0
DWIDTH 7 0
BBX 6 7 0 0
BITMAP
18
38
58
98
FC
18
18
ENDCHAR
STARTCHAR g23
ENCODING 53
SWIDTH 667 0
DWIDTH 6 0
BBX 5 7 0 0
BITMAP
F8
C0
C0
F0
18
18
F0
ENDCHAR
STARTCHAR g24
ENCODING 54
SWIDTH 778 0
DWIDTH 7 0
BBX 6 7 0 0
BITMAP
38
60
C0
F8
CC
CC
78
ENDCHAR
STARTCHAR g25
ENCODING 55
SWIDTH 778 0
DWIDTH 7 0
BBX 6 7 0 0
BITMAP
FC
0C
18
18
30
30
30
ENDCHAR
STARTCHAR g26
ENCODING 56
SWIDTH 778 0
DWIDTH 7 0
BBX 6 7 0 0
BITMAP
78
CC
CC
78
CC
CC
78
ENDCHAR
STARTCHAR g27
ENCODING 57
SWIDTH 778 0
DWIDTH 7 0
BBX 6 7 0 0
BITMAP
78
CC
CC
7C
0C
18
70
ENDCHAR
STARTCHAR g28
ENCODING 58
SWIDTH 333 0
DWIDTH 3 0
BBX 2 5 0 0
BITMAP
C0
00
00
00
C0
ENDCHAR
STARTCHAR g29
ENCODING 59
SWIDTH 333 0
DWIDTH 3 0
BBX 2 7 0 -2
BITMAP
C0
00
00
00
C0
40
80
ENDCHAR
STARTCHAR g30
ENCODING 60
SWIDTH 667 0
DWIDTH 6 0
BBX 5 5 0 1
BITMAP
08
30
C0
30
08
ENDCHAR
STARTCHAR g31
ENCODING 61
SWIDTH 667 0
DWIDTH 6 0
BBX 5 3 0 2
BITMAP
F8
00
F8
ENDCHAR
STARTCHAR g32
ENCODING 62
SWIDTH 667 0
DWIDTH 6 0
BBX 5 5 0 1
BITMAP
80
60
18
60
80
ENDCHAR
STARTCHAR g33
ENCODING 63
SWIDTH 667 0
DWIDTH 6 0
BBX 5 7 0 0
BITMAP
F0
18
30
60
60
00
60
ENDCHAR
STARTCHAR g34
ENCODING 64
SWIDTH 1222 0
DWIDTH 11 0
BBX 9 7 0 -1
BITMAP
3E00
6300
CD80
D580
CB00
6000
3C00
ENDCHAR
STARTCHAR g35
ENCODING 65
SWIDTH 889 0
DWIDTH 8 0
BBX 7 7 0 0
BITMAP
38
38
6C
6C
7C
C6
C6
ENDCHAR
STARTCHAR g36
ENCODING 66
SWIDTH 778 0
DWIDTH 7 0
BBX 6 7 0 0
BITMAP
F8
CC
CC
F8
CC
CC
F8
ENDCHAR
STARTCHAR g37
ENCODING 67
SWIDTH 778 0
DWIDTH 7 0
BBX 6 7 0 0
BITMAP
3C
60
C0
C0
C0
60
3C
ENDCHAR
STARTCHAR g38
ENCODING 68
SWIDTH 889 0
DWIDTH 8 0
BBX 7 7 0 0
BITMAP
F8
CC
C6
C6
C6
CC
F8
ENDCHAR
STARTCHAR g39
ENCODING 69
SWIDTH 667 0
DWIDTH 6 0
BBX 5 7 0 0
BITMAP
F8
C0
C0
F0
C0
C0
F8
ENDCHAR
STARTCHAR g40
ENCODING 70
SWIDTH 556 0
DWIDTH 5 0
BBX 5 7 0 0
BITMAP
F8
C0
C0
F0
C0
C0
C0
ENDCHAR
STARTCHAR g41
ENCODING 71
SWIDTH 889 0
DWIDTH 8 0
BBX 7 7 0 0
BITMAP
3C
60
C0
CE
C6
66
3C
ENDCHAR
STARTCHAR g42
ENCODING 72
SWIDTH 889 0
DWIDTH 8 0
BBX 7 7 0 0
BITMAP
C6
C6
C6
FE
C6
C6
C6
ENDCHAR
STARTCHAR g43
ENCODING 73
SWIDTH 333 0
DWIDTH 3 0
BBX 2 7 0 0
BITMAP
C0
C0
C0
C0
C0
C0
C0
ENDCHAR
STARTCHAR g44
ENCODING 74
SWIDTH 556 0
DWIDTH 5 0
BBX 4 7 0 0
BITMAP
30
30
30
30
30
30
E0
ENDCHAR
STARTCHAR g45
ENCODING 75
SWIDTH 778 0
DWIDTH 7 0
BBX 6 7 0 0
BITMAP
CC
D8
F0
E0
F0
D8
CC
ENDCHAR
STARTCHAR g46
ENCODING 76
SWIDTH 667 0
DWIDTH 6 0
BBX 5 7 0 0
BITMAP
C0
C0
C0
C0
C0
C0
F8
ENDCHAR
STARTCHAR g47
ENCODING 77
SWIDTH 1111 0
DWIDTH 10 0
BBX 9 7 0 0
BITMAP
E380
E380
B580
B580
9980
9980
9980
ENDCHAR
STARTCHAR g48
ENCODING 78
SWIDTH 778 0
DWIDTH 7 0
BBX 6 7 0 0
BITMAP
C4
E4
F4
BC
9C
8C
84
ENDCHAR
STARTCHAR g49
ENCODING 79
SWIDTH 1000 0
DWIDTH 9 0
BBX 8 7 0 0
BITMAP
3C
66
C3
C3
C3
66
3C
ENDCHAR
STARTCHAR g50
ENCODING 80
SWIDTH 778 0
DWIDTH 7 0
BBX 6 7 0 0
BITMAP
F8
CC
CC
F8
C0
C0
C0
ENDCHAR
STARTCHAR g51
ENCODING 81
SWIDTH 1000 0
DWIDTH 9 0
BBX 8 8 0 -1
BITMAP
3C
66
C3
C3
C3
66
3C
07
ENDCHAR
STARTCHAR g52
ENCODING 82
SWIDTH 778 0
DWIDTH 7 0
BBX 7 7 0 0
BITMAP
F8
CC
CC
F8
D8
CC
CE
ENDCHAR
STARTCHAR g53
ENCODING 83
SWIDTH 667 0
DWIDTH 6 0
BBX 5 7 0 0
BITMAP
78
C0
E0
70
38
18
F0
ENDCHAR
STARTCHAR g54
ENCODING 84
SWIDTH 778 0
DWIDTH 7 0
BBX 6 7 0 0
BITMAP
FC
30
30
30
30
30
30
ENDCHAR
STARTCHAR g55
ENCODING 85
SWIDTH 778 0
DWIDTH 7 0
BBX 6 7 0 0
BITMAP
C4
C4
C4
C4
C4
EC
78
ENDCHAR
STARTCHAR g56
ENCODING 86
SWIDTH 778 0
DWIDTH 7 0
BBX 7 7 0 0
BITMAP
C6
C6
64
6C
68
38
38
ENDCHAR
STARTCHAR g57
ENCODING 87
SWIDTH 1111 0
DWIDTH 10 0
BBX 10 7 0 0
BITMAP
CCC0
CC80
6D80
6D80
7700
3300
3300
ENDCHAR
STARTCHAR g58
ENCODING 88
SWIDTH 778 0
DWIDTH 7 0
BBX 6 7 0 0
BITMAP
C4
EC
78
30
78
DC
8C
ENDCHAR
STARTCHAR g59
ENCODING 89
SWIDTH 778 0
DWIDTH 7 0
BBX 6 7 0 0
BITMAP
CC
CC
CC
78
30
30
30
ENDCHAR
STARTCHAR g60
ENCODING 90
SWIDTH 778 0
DWIDTH 7 0
BBX 6 7 0 0
BITMAP
FC
1C
38
70
E0
C0
FC
ENDCHAR
STARTCHAR g61
ENCODING 91
SWIDTH 444 0
DWIDTH 4 0
BBX 3 9 0 -1
BITMAP
E0
C0
C0
C0
C0
C0
C0
C0
E0
ENDCHAR
STARTCHAR g62
ENCODING 92
SWIDTH 667 0
DWIDTH 6 0
BBX 5 7 0 0
BITMAP
C0
C0
60
30
30
18
18
ENDCHAR
STARTCHAR g63
ENCODING 93
SWIDTH 444 0
DWIDTH 4 0
BBX 3 9 0 -1
BITMAP
E0
60
60
60
60
60
60
60
E0
ENDCHAR
STARTCHAR g64
ENCODING 94
SWIDTH 667 0
DWIDTH 6 0
BBX 5 5 0 2
BITMAP
20
20
70
50
88
ENDCHAR
STARTCHAR g65
ENCODING 95
SWIDTH 444 0
DWIDTH 4 0
BBX 5 1 -1 -1
BITMAP
F8
ENDCHAR
STARTCHAR g66
ENCODING 96
SWIDTH 444 0
DWIDTH 4 0
BBX 3 2 0 5
BITMAP
C0
20
ENDCHAR
STARTCHAR g67
ENCODING 97
SWIDTH 667 0
DWIDTH 6 0
BBX 5 5 0 0
BITMAP
70
18
78
D8
78
ENDCHAR
STARTCHAR g68
ENCODING 98
SWIDTH 667 0
DWIDTH 6 0
BBX 5 7 0 0
BITMAP
C0
C0
F0
D8
D8
D8
F0
ENDCHAR
STARTCHAR g69
ENCODING 99
SWIDTH 556 0
DWIDTH 5 0
BBX 4 5 0 0
BITMAP
70
C0
C0
C0
70
ENDCHAR
STARTCHAR g70
ENCODING 100
SWIDTH 667 0
DWIDTH 6 0
BBX 5 7 0 0
BITMAP
18
18
78
D8
D8
D8
78
ENDCHAR
STARTCHAR g71
ENCODING 101
SWIDTH 667 0
DWIDTH 6 0
BBX 5 5 0 0
BITMAP
70
D8
F8
C0
78
ENDCHAR
STARTCHAR g72
ENCODING 102
SWIDTH 556 0
DWIDTH 5 0
BBX 5 7 0 0
BITMAP
38
60
F0
60
60
60
60
ENDCHAR
STARTCHAR g73
ENCODING 103
SWIDTH 667 0
DWIDTH 6 0
BBX 5 7 0 -2
BITMAP
78
D8
D8
D8
78
18
70
ENDCHAR
STARTCHAR g74
ENCODING 104
SWIDTH 667 0
DWIDTH 6 0
BBX 5 7 0 0
BITMAP
C0
C0
F0
D8
D8
D8
D8
ENDCHAR
STARTCHAR g75
ENCODING 105
SWIDTH 333 0
DWIDTH 3 0
BBX 2 7 0 0
BITMAP
C0
00
C0
C0
C0
C0
C0
ENDCHAR
STARTCHAR g76
ENCODING 106
SWIDTH 333 0
DWIDTH 3 0
BBX 3 9 -1 -2
BITMAP
60
00
60
60
60
60
60
60
C0
ENDCHAR
STARTCHAR g77
ENCODING 107
SWIDTH 667 0
DWIDTH 6 0
BBX 6 7 0 0
BITMAP
C0
C0
D8
F0
F0
D8
CC
ENDCHAR
STARTCHAR g78
ENCODING 108
SWIDTH 333 0
DWIDTH 3 0
BBX 2 7 0 0
BITMAP
C0
C0
C0
C0
C0
C0
C0
ENDCHAR
STARTCHAR g79
ENCODING 109
SWIDTH 1000 0
DWIDTH 9 0
BBX 8 5 0 0
BITMAP
EE
DB
DB
DB
DB
ENDCHAR
STARTCHAR g80
ENCODING 110
SWIDTH 667 0
DWIDTH 6 0
BBX 5 5 0 0
BITMAP
F0
D8
D8
D8
D8
ENDCHAR
STARTCHAR g81
ENCODING 111
SWIDTH 667 0
DWIDTH 6 0
BBX 5 5 0 0
BITMAP
70
D8
D8
D8
70
ENDCHAR
STARTCHAR g82
ENCODING 112
SWIDTH 667 0
DWIDTH 6 0
BBX 5 7 0 -2
BITMAP
F0
D8
D8
D8
F0
C0
C0
ENDCHAR
STARTCHAR g83
ENCODING 113
SWIDTH 667 0
DWIDTH 6 0
BBX 5 7 0 -2
BITMAP
78
D8
D8
D8
78
18
18
ENDCHAR
STARTCHAR g84
ENCODING 114
SWIDTH 556 0
DWIDTH 5 0
BBX 4 5 0 0
BITMAP
D0
F0
C0
C0
C0
ENDCHAR
STARTCHAR g85
ENCODING 115
SWIDTH 556 0
DWIDTH 5 0
BBX 4 5 0 0
BITMAP
70
C0
F0
30
E0
ENDCHAR
STARTCHAR g86
ENCODING 116
SWIDTH 667 0
DWIDTH 6 0
BBX 5 6 0 0
BITMAP
60
F8
60
60
60
38
ENDCHAR
STARTCHAR g87
ENCODING 117
SWIDTH 667 0
DWIDTH 6 0
BBX 5 5 0 0
BITMAP
D8
D8
D8
D8
78
ENDCHAR
STARTCHAR g88
ENCODING 118
SWIDTH 667 0
DWIDTH 6 0
BBX 5 5 0 0
BITMAP
D8
D8
D8
70
70
ENDCHAR
STARTCHAR g89
ENCODING 119
SWIDTH 1000 0
DWIDTH 9 0
BBX 8 5 0 0
BITMAP
DB
DB
DB
7E
66
ENDCHAR
STARTCHAR g90
ENCODING 120
SWIDTH 667 0
DWIDTH 6 0
BBX 5 5 0 0
BITMAP
D8
D8
70
D8
D8
ENDCHAR
STARTCHAR g91
ENCODING 121
SWIDTH 667 0
DWIDTH 6 0
BBX 5 7 0 -2
BITMAP
D8
D8
D8
70
30
60
C0
ENDCHAR
STARTCHAR g92
ENCODING 122
SWIDTH 556 0
DWIDTH 5 0
BBX 4 5 0 0
BITMAP
F0
30
60
C0
F0
ENDCHAR
STARTCHAR g93
ENCODING 123
SWIDTH 556 0
DWIDTH 5 0
BBX 4 9 0 -1
BITMAP
30
60
60
60
C0
60
60
60
30
ENDCHAR
STARTCHAR g94
ENCODING 124
SWIDTH 333 0
DWIDTH 3 0
BBX 2 9 0 -1
BITMAP
C0
C0
C0
C0
00
C0
C0
C0
C0
ENDCHAR
STARTCHAR g95
ENCODING 125
SWIDTH 556 0
DWIDTH 5 0
BBX 4 9 0 -1
BITMAP
C0
60
60
60
30
60
60
60
C0
ENDCHAR
STARTCHAR g96
ENCODING 126
SWIDTH 778 0
DWIDTH 7 0
BBX 6 3 0 3
BITMAP
64
B4
98
ENDCHAR
STARTCHAR g97
ENCODING 127
SWIDTH 778 0
DWIDTH 7 0
BBX 0 0 0 0
BITMAP
ENDCHAR
STARTCHAR g98
ENCODING 161
SWIDTH 333 0
DWIDTH 3 0
BBX 2 7 0 -2
BITMAP
C0
00
C0
C0
C0
C0
C0
ENDCHAR
STARTCHAR g99
ENCODING 162
SWIDTH 667 0
DWIDTH 6 0
BBX 5 7 0 -1
BITMAP
10
78
D0
D0
D0
78
10
ENDCHAR
STARTCHAR g100
ENCODING 163
SWIDTH 778 0
DWIDTH 7 0
BBX 6 7 0 0
BITMAP
38
60
60
F8
60
60
FC
ENDCHAR
STARTCHAR g101
ENCODING 164
SWIDTH 889 0
DWIDTH 8 0
BBX 7 7 0 0
BITMAP
BA
7C
C6
C6
C6
7C
BA
ENDCHAR
STARTCHAR g102
ENCODING 165
SWIDTH 778 0
DWIDTH 7 0
BBX 6 7 0 0
BITMAP
C4
68
FC
30
FC
30
30
ENDCHAR
STARTCHAR g103
ENCODING 167
SWIDTH 778 0
DWIDTH 7 0
BBX 6 9 0 -1
BITMAP
78
CC
C0
78
CC
78
0C
CC
78
ENDCHAR
STARTCHAR g104
ENCODING 168
SWIDTH 444 0
DWIDTH 4 0
BBX 3 1 0 6
BITMAP
A0
ENDCHAR
STARTCHAR g105
ENCODING 169
SWIDTH 889 0
DWIDTH 8 0
BBX 7 7 0 -1
BITMAP
38
44
BA
A2
BA
44
38
ENDCHAR
STARTCHAR g106
ENCODING 170
SWIDTH 667 0
DWIDTH 6 0
BBX 5 5 0 2
BITMAP
78
D8
78
00
F8
ENDCHAR
STARTCHAR g107
ENCODING 171
SWIDTH 889 0
DWIDTH 8 0
BBX 7 5 0 0
BITMAP
36
6C
D8
6C
36
ENDCHAR
STARTCHAR g108
ENCODING 172
SWIDTH 667 0
DWIDTH 6 0
BBX 5 3 0 1
BITMAP
F8
08
08
ENDCHAR
STARTCHAR g109
ENCODING 174
SWIDTH 889 0
DWIDTH 8 0
BBX 7 7 0 -1
BITMAP
38
44
BA
B2
AA
44
38
ENDCHAR
STARTCHAR g110
ENCODING 175
SWIDTH 444 0
DWIDTH 4 0
BBX 3 1 0 5
BITMAP
E0
ENDCHAR
STARTCHAR g111
ENCODING 176
SWIDTH 556 0
DWIDTH 5 0
BBX 4 4 0 4
BITMAP
60
90
90
60
ENDCHAR
STARTCHAR g112
ENCODING 177
SWIDTH 667 0
DWIDTH 6 0
BBX 5 6 0 1
BITMAP
20
20
F8
20
20
F8
ENDCHAR
STARTCHAR g113
ENCODING 180
SWIDTH 444 0
DWIDTH 4 0
BBX 3 2 0 5
BITMAP
60
80
ENDCHAR
STARTCHAR g114
ENCODING 181
SWIDTH 667 0
DWIDTH 6 0
BBX 5 7 0 -2
BITMAP
D8
D8
D8
D8
F8
C0
C0
ENDCHAR
STARTCHAR g115
ENCODING 182
SWIDTH 778 0
DWIDTH 7 0
BBX 6 7 0 0
BITMAP
7C
EC
EC
6C
2C
2C
2C
ENDCHAR
STARTCHAR g116
ENCODING 183
SWIDTH 222 0
DWIDTH 2 0
BBX 1 1 0 3
BITMAP
80
ENDCHAR
STARTCHAR g117
ENCODING 184
SWIDTH 444 0
DWIDTH 4 0
BBX 3 3 0 -2
BITMAP
40
20
C0
ENDCHAR
STARTCHAR g118
ENCODING 186
SWIDTH 667 0
DWIDTH 6 0
BBX 5 5 0 2
BITMAP
70
D8
70
00
F8
ENDCHAR
STARTCHAR g119
ENCODING 187
SWIDTH 889 0
DWIDTH 8 0
BBX 7 5 0 0
BITMAP
D8
6C
36
6C
D8
ENDCHAR
STARTCHAR g120
ENCODING 191
SWIDTH 667 0
DWIDTH 6 0
BBX 5 7 0 -2
BITMAP
30
00
30
30
60
C0
78
ENDCHAR
STARTCHAR g121
ENCODING 192
SWIDTH 889 0
DWIDTH 8 0
BBX 7 10 0 0
BITMAP
30
08
00
38
38
6C
6C
7C
C6
C6
ENDCHAR
STARTCHAR g122
ENCODING 193
SWIDTH 889 0
DWIDTH 8 0
BBX 7 10 0 0
BITMAP
18
20
00
38
38
6C
6C
7C
C6
C6
ENDCHAR
STARTCHAR g123
ENCODING 194
SWIDTH 889 0
DWIDTH 8 0
BBX 7 10 0 0
BITMAP
10
28
00
38
38
6C
6C
7C
C6
C6
ENDCHAR
STARTCHAR g124
ENCODING 195
SWIDTH 889 0
DWIDTH 8 0
BBX 7 10 0 0
BITMAP
34
58
00
38
38
6C
6C
7C
C6
C6
ENDCHAR
STARTCHAR g125
ENCODING 196
SWIDTH 889 0
DWIDTH 8 0
BBX 7 9 0 0
BITMAP
28
00
38
38
6C
6C
7C
C6
C6
ENDCHAR
STARTCHAR g126
ENCODING 197
SWIDTH 889 0
DWIDTH 8 0
BBX 7 10 0 0
BITMAP
10
28
10
38
38
6C
6C
7C
C6
C6
ENDCHAR
STARTCHAR g127
ENCODING 198
SWIDTH 1222 0
DWIDTH 11 0
BBX 10 7 0 0
BITMAP
1FC0
3600
3600
6780
7E00
C600
C7C0
ENDCHAR
STARTCHAR g128
ENCODING 199
SWIDTH 778 0
DWIDTH 7 0
BBX 6 9 0 -2
BITMAP
3C
60
C0
C0
C0
60
3C
10
20
ENDCHAR
STARTCHAR g129
ENCODING 200
SWIDTH 667 0
DWIDTH 6 0
BBX 5 10 0 0
BITMAP
60
10
00
F8
C0
C0
F0
C0
C0
F8
ENDCHAR
STARTCHAR g130
ENCODING 201
SWIDTH 667 0
DWIDTH 6 0
BBX 5 10 0 0
BITMAP
30
40
00
F8
C0
C0
F0
C0
C0
F8
ENDCHAR
STARTCHAR g131
ENCODING 202
SWIDTH 667 0
DWIDTH 6 0
BBX 5 10 0 0
BITMAP
20
50
00
F8
C0
C0
F0
C0
C0
F8
ENDCHAR
STARTCHAR g132
ENCODING 203
SWIDTH 667 0
DWIDTH 6 0
BBX 5 9 0 0
BITMAP
50
00
F8
C0
C0
F0
C0
C0
F8
ENDCHAR
STARTCHAR g133
ENCODING 204
SWIDTH 333 0
DWIDTH 3 0
BBX 3 10 -1 0
BITMAP
C0
20
00
60
60
60
60
60
60
60
ENDCHAR
STARTCHAR g134
ENCODING 205
SWIDTH 333 0
DWIDTH 3 0
BBX 3 10 0 0
BITMAP
60
80
00
C0
C0
C0
C0
C0
C0
C0
ENDCHAR
STARTCHAR g135
ENCODING 206
SWIDTH 333 0
DWIDTH 3 0
BBX 3 10 0 0
BITMAP
40
A0
00
C0
C0
C0
C0
C0
C0
C0
ENDCHAR
STARTCHAR g136
ENCODING 207
SWIDTH 333 0
DWIDTH 3 0
BBX 3 9 0 0
BITMAP
A0
00
C0
C0
C0
C0
C0
C0
C0
ENDCHAR
STARTCHAR g137
ENCODING 209
SWIDTH 778 0
DWIDTH 7 0
BBX 6 10 0 0
BITMAP
34
58
00
C4
E4
F4
BC
9C
8C
84
ENDCHAR
STARTCHAR g138
ENCODING 210
SWIDTH 1000 0
DWIDTH 9 0
BBX 8 10 0 0
BITMAP
30
08
00
3C
66
C3
C3
C3
66
3C
ENDCHAR
STARTCHAR g139
ENCODING 211
SWIDTH 1000 0
DWIDTH 9 0
BBX 8 10 0 0
BITMAP
0C
10
00
3C
66
C3
C3
C3
66
3C
ENDCHAR
STARTCHAR g140
ENCODING 212
SWIDTH 1000 0
DWIDTH 9 0
BBX 8 10 0 0
BITMAP
08
14
00
3C
66
C3
C3
C3
66
3C
ENDCHAR
STARTCHAR g141
ENCODING 213
SWIDTH 1000 0
DWIDTH 9 0
BBX 8 10 0 0
BITMAP
1A
2C
00
3C
66
C3
C3
C3
66
3C
ENDCHAR
STARTCHAR g142
ENCODING 214
SWIDTH 1000 0
DWIDTH 9 0
BBX 8 9 0 0
BITMAP
14
00
3C
66
C3
C3
C3
66
3C
ENDCHAR
STARTCHAR g143
ENCODING 216
SWIDTH 1000 0
DWIDTH 9 0
BBX 8 7 0 0
BITMAP
3D
66
CB
D3
E3
66
BC
ENDCHAR
STARTCHAR g144
ENCODING 217
SWIDTH 778 0
DWIDTH 7 0
BBX 6 10 0 0
BITMAP
60
10
00
C4
C4
C4
C4
C4
EC
78
ENDCHAR
STARTCHAR g145
ENCODING 218
SWIDTH 778 0
DWIDTH 7 0
BBX 6 10 0 0
BITMAP
18
20
00
C4
C4
C4
C4
C4
EC
78
ENDCHAR
STARTCHAR g146
ENCODING 219
SWIDTH 778 0
DWIDTH 7 0
BBX 6 10 0 0
BITMAP
10
28
00
C4
C4
C4
C4
C4
EC
78
ENDCHAR
STARTCHAR g147
ENCODING 220
SWIDTH 778 0
DWIDTH 7 0
BBX 6 9 0 0
BITMAP
28
00
C4
C4
C4
C4
C4
EC
78
ENDCHAR
STARTCHAR g148
ENCODING 223
SWIDTH 889 0
DWIDTH 8 0
BBX 7 7 0 0
BITMAP
78
CC
C8
DC
CE
C6
DC
ENDCHAR
STARTCHAR g149
ENCODING 224
SWIDTH 667 0
DWIDTH 6 0
BBX 5 8 0 0
BITMAP
60
10
00
70
18
78
D8
78
ENDCHAR
STARTCHAR g150
ENCODING 225
SWIDTH 667 0
DWIDTH 6 0
BBX 5 8 0 0
BITMAP
30
40
00
70
18
78
D8
78
ENDCHAR
STARTCHAR g151
ENCODING 226
SWIDTH 667 0
DWIDTH 6 0
BBX 5 8 0 0
BITMAP
20
50
00
70
18
78
D8
78
ENDCHAR
STARTCHAR g152
ENCODING 227
SWIDTH 667 0
DWIDTH 6 0
BBX 5 8 0 0
BITMAP
68
B0
00
70
18
78
D8
78
ENDCHAR
STARTCHAR g153
ENCODING 228
SWIDTH 667 0
DWIDTH 6 0
BBX 5 7 0 0
BITMAP
50
00
70
18
78
D8
78
ENDCHAR
STARTCHAR g154
ENCODING 229
SWIDTH 667 0
DWIDTH 6 0
BBX 5 8 0 0
BITMAP
20
50
20
70
18
78
D8
78
ENDCHAR
STARTCHAR g155
ENCODING 230
SWIDTH 1000 0
DWIDTH 9 0
BBX 8 5 0 0
BITMAP
76
1B
7F
D8
7F
ENDCHAR
STARTCHAR g156
ENCODING 231
SWIDTH 556 0
DWIDTH 5 0
BBX 4 7 0 -2
BITMAP
70
C0
C0
C0
70
20
40
ENDCHAR
STARTCHAR g157
ENCODING 232
SWIDTH 667 0
DWIDTH 6 0
BBX 5 8 0 0
BITMAP
40
20
00
70
D8
F8
C0
78
ENDCHAR
STARTCHAR g158
ENCODING 233
SWIDTH 667 0
DWIDTH 6 0
BBX 5 8 0 0
BITMAP
10
20
00
70
D8
F8
C0
78
ENDCHAR
STARTCHAR g159
ENCODING 234
SWIDTH 667 0
DWIDTH 6 0
BBX 5 8 0 0
BITMAP
20
50
00
70
D8
F8
C0
78
ENDCHAR
STARTCHAR g160
ENCODING 235
SWIDTH 667 0
DWIDTH 6 0
BBX 5 7 0 0
BITMAP
50
00
70
D8
F8
C0
78
ENDCHAR
STARTCHAR g161
ENCODING 236
SWIDTH 333 0
DWIDTH 3 0
BBX 3 8 -1 0
BITMAP
C0
20
00
60
60
60
60
60
ENDCHAR
STARTCHAR g162
ENCODING 237
SWIDTH 333 0
DWIDTH 3 0
BBX 3 8 0 0
BITMAP
60
80
00
C0
C0
C0
C0
C0
ENDCHAR
STARTCHAR g163
ENCODING 238
SWIDTH 333 0
DWIDTH 3 0
BBX 3 8 0 0
BITMAP
40
A0
00
C0
C0
C0
C0
C0
ENDCHAR
STARTCHAR g164
ENCODING 239
SWIDTH 333 0
DWIDTH 3 0
BBX 3 7 0 0
BITMAP
A0
00
C0
C0
C0
C0
C0
ENDCHAR
STARTCHAR g165
ENCODING 241
SWIDTH 667 0
DWIDTH 6 0
BBX 5 8 0 0
BITMAP
68
B0
00
F0
D8
D8
D8
D8
ENDCHAR
STARTCHAR g166
ENCODING 242
SWIDTH 667 0
DWIDTH 6 0
BBX 5 8 0 0
BITMAP
60
10
00
70
D8
D8
D8
70
ENDCHAR
STARTCHAR g167
ENCODING 243
SWIDTH 667 0
DWIDTH 6 0
BBX 5 8 0 0
BITMAP
30
40
00
70
D8
D8
D8
70
ENDCHAR
STARTCHAR g168
ENCODING 244
SWIDTH 667 0
DWIDTH 6 0
BBX 5 8 0 0
BITMAP
20
50
00
70
D8
D8
D8
70
ENDCHAR
STARTCHAR g169
ENCODING 245
SWIDTH 667 0
DWIDTH 6 0
BBX 5 8 0 0
BITMAP
68
B0
00
70
D8
D8
D8
70
ENDCHAR
STARTCHAR g170
ENCODING 246
SWIDTH 667 0
DWIDTH 6 0
BBX 5 7 0 0
BITMAP
50
00
70
D8
D8
D8
70
ENDCHAR
STARTCHAR g171
ENCODING 247
SWIDTH 667 0
DWIDTH 6 0
BBX 5 5 0 1
BITMAP
20
00
F8
00
20
ENDCHAR
STARTCHAR g172
ENCODING 248
SWIDTH 667 0
DWIDTH 6 0
BBX 7 5 -1 0
BITMAP
3A
6C
7C
6C
B8
ENDCHAR
STARTCHAR g173
ENCODING 249
SWIDTH 667 0
DWIDTH 6 0
BBX 5 8 0 0
BITMAP
60
10
00
D8
D8
D8
D8
78
ENDCHAR
STARTCHAR g174
ENCODING 250
SWIDTH 667 0
DWIDTH 6 0
BBX 5 8 0 0
BITMAP
30
40
00
D8
D8
D8
D8
78
ENDCHAR
STARTCHAR g175
ENCODING 251
SWIDTH 667 0
DWIDTH 6 0
BBX 5 8 0 0
BITMAP
20
50
00
D8
D8
D8
D8
78
ENDCHAR
STARTCHAR g176
ENCODING 252
SWIDTH 667 0
DWIDTH 6 0
BBX 5 7 0 0
BITMAP
50
00
D8
D8
D8
D8
78
ENDCHAR
STARTCHAR g177
ENCODING 255
SWIDTH 667 0
DWIDTH 6 0
BBX 5 9 0 -2
BITMAP
50
00
D8
D8
D8
70
30
60
C0
ENDCHAR
STARTCHAR g178
ENCODING 305
SWIDTH 333 0
DWIDTH 3 0
BBX 2 5 0 0
BITMAP
C0
C0
C0
C0
C0
ENDCHAR
STARTCHAR g179
ENCODING 338
SWIDTH 1222 0
DWIDTH 11 0
BBX 10 7 0 0
BITMAP
3FC0
6600
C600
C780
C600
6600
3FC0
ENDCHAR
STARTCHAR g180
ENCODING 339
SWIDTH 1000 0
DWIDTH 9 0
BBX 8 5 0 0
BITMAP
7E
DB
DF
D8
7F
ENDCHAR
STARTCHAR g181
ENCODING 376
SWIDTH 778 0
DWIDTH 7 0
BBX 6 9 0 0
BITMAP
48
00
CC
CC
CC
78
30
30
30
ENDCHAR
STARTCHAR g182
ENCODING 402
SWIDTH 889 0
DWIDTH 8 0
BBX 8 8 -1 -1
BITMAP
07
0C
3E
18
18
30
30
E0
ENDCHAR
STARTCHAR g183
ENCODING 710
SWIDTH 444 0
DWIDTH 4 0
BBX 3 2 0 5
BITMAP
40
A0
ENDCHAR
STARTCHAR g184
ENCODING 711
SWIDTH 444 0
DWIDTH 4 0
BBX 3 2 0 5
BITMAP
A0
40
ENDCHAR
STARTCHAR g185
ENCODING 728
SWIDTH 556 0
DWIDTH 5 0
BBX 4 2 0 5
BITMAP
90
60
ENDCHAR
STARTCHAR g186
ENCODING 729
SWIDTH 222 0
DWIDTH 2 0
BBX 1 1 0 5
BITMAP
80
ENDCHAR
STARTCHAR g187
ENCODING 730
SWIDTH 444 0
DWIDTH 4 0
BBX 3 3 0 4
BITMAP
40
A0
40
ENDCHAR
STARTCHAR g188
ENCODING 731
SWIDTH 444 0
DWIDTH 4 0
BBX 3 3 0 -2
BITMAP
40
80
60
ENDCHAR
STARTCHAR g189
ENCODING 732
SWIDTH 667 0
DWIDTH 6 0
BBX 5 2 0 5
BITMAP
68
B0
ENDCHAR
STARTCHAR g190
ENCODING 733
SWIDTH 556 0
DWIDTH 5 0
BBX 4 2 0 5
BITMAP
50
A0
ENDCHAR
STARTCHAR g191
ENCODING 960
SWIDTH 889 0
DWIDTH 8 0
BBX 7 5 0 0
BITMAP
FE
6C
6C
6C
6C
ENDCHAR
STARTCHAR g192
ENCODING 8211
SWIDTH 667 0
DWIDTH 6 0
BBX 5 1 0 3
BITMAP
F8
ENDCHAR
STARTCHAR g193
ENCODING 8212
SWIDTH 1111 0
DWIDTH 10 0
BBX 9 1 0 3
BITMAP
FF80
ENDCHAR
STARTCHAR g194
ENCODING 8216
SWIDTH 333 0
DWIDTH 3 0
BBX 2 3 0 5
BITMAP
40
80
C0
ENDCHAR
STARTCHAR g195
ENCODING 8217
SWIDTH 333 0
DWIDTH 3 0
BBX 2 3 0 5
BITMAP
C0
40
80
ENDCHAR
STARTCHAR g196
ENCODING 8218
SWIDTH 333 0
DWIDTH 3 0
BBX 2 3 0 -2
BITMAP
C0
40
80
ENDCHAR
STARTCHAR g197
ENCODING 8220
SWIDTH 667 0
DWIDTH 6 0
BBX 4 3 0 5
BITMAP
50
A0
F0
ENDCHAR
STARTCHAR g198
ENCODING 8221
SWIDTH 556 0
DWIDTH 5 0
BBX 4 3 0 5
BITMAP
F0
50
A0
ENDCHAR
STARTCHAR g199
ENCODING 8222
SWIDTH 556 0
DWIDTH 5 0
BBX 4 3 0 -2
BITMAP
F0
50
A0
ENDCHAR
STARTCHAR g200
ENCODING 8224
SWIDTH 556 0
DWIDTH 5 0
BBX 4 5 0 3
BITMAP
60
F0
60
60
60
ENDCHAR
STARTCHAR g201
ENCODING 8225
SWIDTH 778 0
DWIDTH 7 0
BBX 6 9 0 -2
BITMAP
30
30
FC
30
30
30
FC
30
30
ENDCHAR
STARTCHAR g202
ENCODING 8226
SWIDTH 556 0
DWIDTH 5 0
BBX 3 3 0 2
BITMAP
E0
E0
E0
ENDCHAR
STARTCHAR g203
ENCODING 8230
SWIDTH 1222 0
DWIDTH 11 0
BBX 10 1 0 0
BITMAP
CCC0
ENDCHAR
STARTCHAR g204
ENCODING 8240
SWIDTH 1889 0
DWIDTH 17 0
BBX 16 7 0 0
BITMAP
70C0
D980
DB00
76EE
0DBB
19BB
30EE
ENDCHAR
STARTCHAR g205
ENCODING 8249
SWIDTH 556 0
DWIDTH 5 0
BBX 4 5 0 0
BITMAP
30
60
C0
60
30
ENDCHAR
STARTCHAR g206
ENCODING 8250
SWIDTH 556 0
DWIDTH 5 0
BBX 4 5 0 0
BITMAP
C0
60
30
60
C0
ENDCHAR
STARTCHAR g207
ENCODING 8260
SWIDTH 667 0
DWIDTH 6 0
BBX 5 8 0 0
BITMAP
18
18
30
30
60
60
C0
C0
ENDCHAR
STARTCHAR g208
ENCODING 8482
SWIDTH 1111 0
DWIDTH 10 0
BBX 9 3 0 4
BITMAP
E880
4D80
4A80
ENDCHAR
STARTCHAR g209
ENCODING 8486
SWIDTH 889 0
DWIDTH 8 0
BBX 7 7 0 0
BITMAP
7C
C6
C6
C6
6C
28
EE
ENDCHAR
STARTCHAR g210
ENCODING 8706
SWIDTH 778 0
DWIDTH 7 0
BBX 6 8 0 0
BITMAP
38
0C
0C
7C
CC
CC
CC
78
ENDCHAR
STARTCHAR g211
ENCODING 8710
SWIDTH 1000 0
DWIDTH 9 0
BBX 8 7 0 0
BITMAP
18
18
2C
2C
46
46
FF
ENDCHAR
STARTCHAR g212
ENCODING 8719
SWIDTH 1000 0
DWIDTH 9 0
BBX 8 8 0 -1
BITMAP
FF
66
66
66
66
66
66
66
ENDCHAR
STARTCHAR g213
ENCODING 8721
SWIDTH 667 0
DWIDTH 6 0
BBX 5 8 0 -1
BITMAP
F8
C0
60
30
30
60
C0
F8
ENDCHAR
STARTCHAR g214
ENCODING 8730
SWIDTH 778 0
DWIDTH 7 0
BBX 6 8 0 -1
BITMAP
04
04
08
08
D0
50
20
20
ENDCHAR
STARTCHAR g215
ENCODING 8734
SWIDTH 1222 0
DWIDTH 11 0
BBX 10 4 0 2
BITMAP
7B80
CEC0
DCC0
7780
ENDCHAR
STARTCHAR g216
ENCODING 8747
SWIDTH 444 0
DWIDTH 4 0
BBX 4 11 0 -2
BITMAP
30
60
60
60
60
60
60
60
60
60
C0
ENDCHAR
STARTCHAR g217
ENCODING 8776
SWIDTH 778 0
DWIDTH 7 0
BBX 6 5 0 1
BITMAP
64
98
00
64
98
ENDCHAR
STARTCHAR g218
ENCODING 8800
SWIDTH 667 0
DWIDTH 6 0
BBX 5 5 0 1
BITMAP
10
F8
20
F8
40
ENDCHAR
STARTCHAR g219
ENCODING 8804
SWIDTH 667 0
DWIDTH 6 0
BBX 5 7 0 0
BITMAP
08
30
C0
30
08
00
F8
ENDCHAR
STARTCHAR g220
ENCODING 8805
SWIDTH 667 0
DWIDTH 6 0
BBX 5 7 0 0
BITMAP
80
60
18
60
80
00
F8
ENDCHAR
STARTCHAR g221
ENCODING 9674
SWIDTH 667 0
DWIDTH 6 0
BBX 5 9 0 -1
BITMAP
20
20
50
50
88
50
50
20
20
ENDCHAR
STARTCHAR g222
ENCODING 63252
SWIDTH 889 0
DWIDTH 8 0
BBX 7 7 0 0
BITMAP
7C
C6
C6
D6
C6
C6
7C
ENDCHAR
STARTCHAR g223
ENCODING 63253
SWIDTH 556 0
DWIDTH 5 0
BBX 4 7 0 0
BITMAP
F0
60
60
60
60
60
F0
ENDCHAR
STARTCHAR g224
ENCODING 63254
SWIDTH 556 0
DWIDTH 5 0
BBX 4 7 0 0
BITMAP
E0
60
60
60
60
60
70
ENDCHAR
STARTCHAR g225
ENCODING 63487
SWIDTH 778 0
DWIDTH 7 0
BBX 0 0 0 0
BITMAP
ENDCHAR
STARTCHAR g226
ENCODING 64257
SWIDTH 778 0
DWIDTH 7 0
BBX 6 7 0 0
BITMAP
3C
60
FC
6C
6C
6C
6C
ENDCHAR
STARTCHAR g227
ENCODING 64258
SWIDTH 778 0
DWIDTH 7 0
BBX 6 7 0 0
BITMAP
3C
6C
FC
6C
6C
6C
6C
ENDCHAR
STARTCHAR g228
ENCODING 64512
SWIDTH 1333 0
DWIDTH 12 0
BBX 11 7 0 0
BITMAP
7FC0
F1E0
DF60
3180
71C0
7FC0
7FC0
ENDCHAR
STARTCHAR g229
ENCODING 64513
SWIDTH 1333 0
DWIDTH 12 0
BBX 8 8 2 0
BITMAP
18
3C
7E
FF
FF
7E
3C
18
ENDCHAR
STARTCHAR g230
ENCODING 64514
SWIDTH 1333 0
DWIDTH 12 0
BBX 0 0 0 0
BITMAP
ENDCHAR
STARTCHAR g231
ENCODING 64515
SWIDTH 1333 0
DWIDTH 12 0
BBX 7 7 2 0
BITMAP
02
06
0A
12
22
42
FE
ENDCHAR
STARTCHAR g232
ENCODING 64516
SWIDTH 1333 0
DWIDTH 12 0
BBX 9 7 1 0
BITMAP
0380
7C00
8A00
1100
1100
1100
0E00
ENDCHAR
STARTCHAR g233
ENCODING 64517
SWIDTH 1444 0
DWIDTH 13 0
BBX 12 12 0 -2
BITMAP
0F00
3FC0
70E0
6660
C030
CE30
C630
C630
6F60
70E0
3FC0
0F00
ENDCHAR
STARTCHAR g234
ENCODING 64518
SWIDTH 1333 0
DWIDTH 12 0
BBX 7 7 3 0
BITMAP
80
C0
A0
90
88
84
FE
ENDCHAR
STARTCHAR g235
ENCODING 64519
SWIDTH 1333 0
DWIDTH 12 0
BBX 12 7 0 0
BITMAP
0F00
30C0
4020
8010
8010
8F10
70E0
ENDCHAR
STARTCHAR g236
ENCODING 64520
SWIDTH 889 0
DWIDTH 8 0
BBX 7 7 0 0
BITMAP
44
AA
7C
28
7C
AA
44
ENDCHAR
STARTCHAR g237
ENCODING 64521
SWIDTH 778 0
DWIDTH 7 0
BBX 6 7 0 0
BITMAP
FC
84
84
84
84
84
FC
ENDCHAR
STARTCHAR g238
ENCODING 64522
SWIDTH 1222 0
DWIDTH 11 0
BBX 0 0 0 0
BITMAP
ENDCHAR
STARTCHAR g239
ENCODING 64523
SWIDTH 1222 0
DWIDTH 11 0
BBX 10 9 0 0
BITMAP
00C0
0180
0300
6600
EE00
3C00
3C00
1800
1000
ENDCHAR
STARTCHAR g240
ENCODING 64524
SWIDTH 778 0
DWIDTH 7 0
BBX 6 7 0 0
BITMAP
FC
84
84
84
84
84
FC
ENDCHAR
STARTCHAR g241
ENCODING 64525
SWIDTH 778 0
DWIDTH 7 0
BBX 6 7 0 0
BITMAP
FC
84
84
84
84
84
FC
ENDCHAR
STARTCHAR g242
ENCODING 64526
SWIDTH 778 0
DWIDTH 7 0
BBX 6 7 0 0
BITMAP
FC
84
84
84
84
84
FC
ENDCHAR
STARTCHAR g243
ENCODING 64527
SWIDTH 778 0
DWIDTH 7 0
BBX 6 7 0 0
BITMAP
FC
84
84
84
84
84
FC
ENDCHAR
ENDFONT
