STARTFONT 2.1
COMMENT Strike 5 of a Newton 'sfnt' font (bloc/bdat): tools/fonts/newtonsfnt.py,
COMMENT tools/fonts/README.md.  The builder reads the BLOC_* properties and the
COMMENT glyphs - STARTCHAR gN (N the glyph id; otherwise ENCODING through 'cmap'),
COMMENT DWIDTH (the advance), BBX (width, height, the bearing x, the bottom row's
COMMENT y: bearing y less the height) and the BITMAP rows.  A glyph id in the
COMMENT subtable ranges with no glyph here has no image (the missing glyph is 0).
COMMENT The other properties, SIZE, FONTBOUNDINGBOX and SWIDTH are worked out and
COMMENT not read back: change BLOC_HORI_* (the line metrics the ROM draws text by)
COMMENT to match an edit that changes the strike's extent.
FONT -Apple-Roman Regular-Medium-R-Normal--16-160-72-72-P-0-Apple-Roman
SIZE 16 72 72
FONTBOUNDINGBOX 21 20 -2 -4
STARTPROPERTIES 37
FONT_ASCENT 16
FONT_DESCENT 5
PIXEL_SIZE 16
FAMILY_NAME "Roman Regular"
BLOC_COLOR_REF 0
BLOC_HORI_ASCENDER 16
BLOC_HORI_DESCENDER -5
BLOC_HORI_WIDTH_MAX 20
BLOC_HORI_CARET_SLOPE_NUMERATOR 0
BLOC_HORI_CARET_SLOPE_DENOMINATOR 1
BLOC_HORI_CARET_OFFSET 0
BLOC_HORI_MIN_ORIGIN_SB -2
BLOC_HORI_MIN_ADVANCE_SB -1
BLOC_HORI_MAX_BEFORE_BL 16
BLOC_HORI_MIN_AFTER_BL -4
BLOC_HORI_PAD1 0
BLOC_HORI_PAD2 0
BLOC_VERT_ASCENDER 0
BLOC_VERT_DESCENDER -1
BLOC_VERT_WIDTH_MAX 20
BLOC_VERT_CARET_SLOPE_NUMERATOR 0
BLOC_VERT_CARET_SLOPE_DENOMINATOR 1
BLOC_VERT_CARET_OFFSET 0
BLOC_VERT_MIN_ORIGIN_SB -45
BLOC_VERT_MIN_ADVANCE_SB -16
BLOC_VERT_MAX_BEFORE_BL 0
BLOC_VERT_MIN_AFTER_BL -17
BLOC_VERT_PAD1 0
BLOC_VERT_PAD2 0
BLOC_START_GLYPH 0
BLOC_END_GLYPH 257
BLOC_PPEM_X 16
BLOC_PPEM_Y 16
BLOC_BIT_DEPTH 1
BLOC_FLAGS 1
BLOC_INDEX_SUBTABLES 1
BLOC_INDEX_SUBTABLE_0 "0 257 3 1 0"
ENDPROPERTIES
CHARS 244
STARTCHAR g0
ENCODING -1
SWIDTH 625 0
DWIDTH 10 0
BBX 8 12 0 0
BITMAP
FF
81
81
81
81
81
81
81
81
81
81
FF
ENDCHAR
STARTCHAR g1
ENCODING 0
SWIDTH 0 0
DWIDTH 0 0
BBX 0 0 0 0
BITMAP
ENDCHAR
STARTCHAR g2
ENCODING 1
SWIDTH 250 0
DWIDTH 4 0
BBX 0 0 0 0
BITMAP
ENDCHAR
STARTCHAR g3
ENCODING 2
SWIDTH 250 0
DWIDTH 4 0
BBX 2 12 1 0
BITMAP
C0
C0
C0
C0
C0
C0
C0
C0
C0
00
C0
C0
ENDCHAR
STARTCHAR g4
ENCODING 3
SWIDTH 438 0
DWIDTH 7 0
BBX 5 4 1 9
BITMAP
D8
D8
48
48
ENDCHAR
STARTCHAR g5
ENCODING 4
SWIDTH 875 0
DWIDTH 14 0
BBX 12 11 1 0
BITMAP
0660
0660
0CC0
3FF0
0CC0
1980
1980
FFE0
3300
6600
6600
ENDCHAR
STARTCHAR g6
ENCODING 5
SWIDTH 562 0
DWIDTH 9 0
BBX 7 15 1 -2
BITMAP
10
10
7E
D0
D0
F0
78
3C
1E
16
16
16
FC
10
10
ENDCHAR
STARTCHAR g7
ENCODING 6
SWIDTH 875 0
DWIDTH 14 0
BBX 12 11 1 0
BITMAP
7860
CC60
CCC0
CD80
7B00
0600
0DE0
1B30
3330
6330
61E0
ENDCHAR
STARTCHAR g8
ENCODING 7
SWIDTH 812 0
DWIDTH 13 0
BBX 11 12 1 0
BITMAP
3C00
6600
6600
6C00
3800
3800
6C60
C6C0
C380
C380
E6C0
7C60
ENDCHAR
STARTCHAR g9
ENCODING 8
SWIDTH 250 0
DWIDTH 4 0
BBX 2 4 1 9
BITMAP
C0
C0
40
40
ENDCHAR
STARTCHAR g10
ENCODING 9
SWIDTH 438 0
DWIDTH 7 0
BBX 5 15 1 -2
BITMAP
18
30
60
60
C0
C0
C0
C0
C0
C0
C0
60
60
30
18
ENDCHAR
STARTCHAR g11
ENCODING 10
SWIDTH 438 0
DWIDTH 7 0
BBX 5 15 1 -2
BITMAP
C0
60
30
30
18
18
18
18
18
18
18
30
30
60
C0
ENDCHAR
STARTCHAR g12
ENCODING 11
SWIDTH 438 0
DWIDTH 7 0
BBX 5 6 1 6
BITMAP
20
A8
70
70
A8
20
ENDCHAR
STARTCHAR g13
ENCODING 12
SWIDTH 562 0
DWIDTH 9 0
BBX 7 7 1 2
BITMAP
10
10
10
FE
10
10
10
ENDCHAR
STARTCHAR g14
ENCODING 44
SWIDTH 250 0
DWIDTH 4 0
BBX 2 4 1 -2
BITMAP
C0
C0
40
80
ENDCHAR
STARTCHAR g15
ENCODING 45
SWIDTH 500 0
DWIDTH 8 0
BBX 6 1 1 5
BITMAP
FC
ENDCHAR
STARTCHAR g16
ENCODING 46
SWIDTH 250 0
DWIDTH 4 0
BBX 2 2 1 0
BITMAP
C0
C0
ENDCHAR
STARTCHAR g17
ENCODING 47
SWIDTH 562 0
DWIDTH 9 0
BBX 9 14 0 -2
BITMAP
0180
0300
0300
0600
0600
0C00
0C00
1800
1800
3000
3000
6000
6000
C000
ENDCHAR
STARTCHAR g18
ENCODING 48
SWIDTH 688 0
DWIDTH 11 0
BBX 9 12 1 0
BITMAP
3E00
6300
C180
C180
C180
C180
C180
C180
C180
C180
6300
3E00
ENDCHAR
STARTCHAR g19
ENCODING 49
SWIDTH 688 0
DWIDTH 11 0
BBX 5 12 2 0
BITMAP
18
38
78
D8
98
18
18
18
18
18
18
18
ENDCHAR
STARTCHAR g20
ENCODING 50
SWIDTH 688 0
DWIDTH 11 0
BBX 9 12 1 0
BITMAP
3F00
6380
C180
0180
0180
0300
0E00
1800
3000
6000
C000
FF80
ENDCHAR
STARTCHAR g21
ENCODING 51
SWIDTH 688 0
DWIDTH 11 0
BBX 9 12 1 0
BITMAP
7F00
C380
0180
0180
0300
1E00
0300
0180
0180
0180
C380
7F00
ENDCHAR
STARTCHAR g22
ENCODING 52
SWIDTH 688 0
DWIDTH 11 0
BBX 9 12 1 0
BITMAP
0300
0700
0F00
1300
2300
4300
C300
FF80
0300
0300
0300
0300
ENDCHAR
STARTCHAR g23
ENCODING 53
SWIDTH 688 0
DWIDTH 11 0
BBX 9 12 1 0
BITMAP
FF00
C000
C000
C000
FF00
0380
0180
0180
0180
0180
C300
7E00
ENDCHAR
STARTCHAR g24
ENCODING 54
SWIDTH 688 0
DWIDTH 11 0
BBX 9 12 1 0
BITMAP
0E00
3800
6000
4000
DE00
E300
C180
C180
C180
C180
6300
3E00
ENDCHAR
STARTCHAR g25
ENCODING 55
SWIDTH 688 0
DWIDTH 11 0
BBX 9 12 1 0
BITMAP
FF80
0180
0180
0300
0600
0600
0C00
0C00
0C00
1800
1800
1800
ENDCHAR
STARTCHAR g26
ENCODING 56
SWIDTH 688 0
DWIDTH 11 0
BBX 9 12 1 0
BITMAP
3E00
6300
C180
C180
6300
3E00
6300
C180
C180
C180
6300
3E00
ENDCHAR
STARTCHAR g27
ENCODING 57
SWIDTH 688 0
DWIDTH 11 0
BBX 9 12 1 0
BITMAP
3E00
6300
C180
C180
C180
C180
6380
3D80
0100
0300
0E00
3800
ENDCHAR
STARTCHAR g28
ENCODING 58
SWIDTH 250 0
DWIDTH 4 0
BBX 2 8 1 0
BITMAP
C0
C0
00
00
00
00
C0
C0
ENDCHAR
STARTCHAR g29
ENCODING 59
SWIDTH 250 0
DWIDTH 4 0
BBX 2 10 1 -2
BITMAP
C0
C0
00
00
00
00
C0
C0
40
80
ENDCHAR
STARTCHAR g30
ENCODING 60
SWIDTH 625 0
DWIDTH 10 0
BBX 8 7 1 2
BITMAP
03
0E
38
E0
38
0E
03
ENDCHAR
STARTCHAR g31
ENCODING 61
SWIDTH 625 0
DWIDTH 10 0
BBX 8 4 1 4
BITMAP
FF
00
00
FF
ENDCHAR
STARTCHAR g32
ENCODING 62
SWIDTH 625 0
DWIDTH 10 0
BBX 8 7 1 2
BITMAP
C0
70
1C
07
1C
70
C0
ENDCHAR
STARTCHAR g33
ENCODING 63
SWIDTH 438 0
DWIDTH 7 0
BBX 6 12 0 0
BITMAP
F8
0C
0C
0C
18
30
60
60
60
00
60
60
ENDCHAR
STARTCHAR g34
ENCODING 64
SWIDTH 812 0
DWIDTH 13 0
BBX 11 9 0 0
BITMAP
3F80
60C0
CE60
DB60
DB60
DB60
CCC0
6000
3E00
ENDCHAR
STARTCHAR g35
ENCODING 65
SWIDTH 750 0
DWIDTH 12 0
BBX 12 12 0 0
BITMAP
0600
0600
0F00
0B00
1B80
1180
3180
20C0
7FC0
40E0
C060
8070
ENDCHAR
STARTCHAR g36
ENCODING 66
SWIDTH 688 0
DWIDTH 11 0
BBX 9 12 1 0
BITMAP
FE00
C700
C300
C300
C600
FE00
C300
C180
C180
C180
C380
FF00
ENDCHAR
STARTCHAR g37
ENCODING 67
SWIDTH 688 0
DWIDTH 11 0
BBX 9 12 1 0
BITMAP
1F80
3800
6000
E000
C000
C000
C000
C000
E000
6000
3800
1F80
ENDCHAR
STARTCHAR g38
ENCODING 68
SWIDTH 750 0
DWIDTH 12 0
BBX 10 12 1 0
BITMAP
FE00
C300
C180
C1C0
C0C0
C0C0
C0C0
C0C0
C1C0
C180
C300
FE00
ENDCHAR
STARTCHAR g39
ENCODING 69
SWIDTH 562 0
DWIDTH 9 0
BBX 7 12 1 0
BITMAP
FE
C0
C0
C0
C0
FC
C0
C0
C0
C0
C0
FE
ENDCHAR
STARTCHAR g40
ENCODING 70
SWIDTH 500 0
DWIDTH 8 0
BBX 7 12 1 0
BITMAP
FE
C0
C0
C0
C0
FC
C0
C0
C0
C0
C0
C0
ENDCHAR
STARTCHAR g41
ENCODING 71
SWIDTH 812 0
DWIDTH 13 0
BBX 11 12 1 0
BITMAP
1FC0
3000
6000
E000
C000
C000
C3E0
C060
E060
6060
3060
1FE0
ENDCHAR
STARTCHAR g42
ENCODING 72
SWIDTH 750 0
DWIDTH 12 0
BBX 10 12 1 0
BITMAP
C0C0
C0C0
C0C0
C0C0
C0C0
FFC0
C0C0
C0C0
C0C0
C0C0
C0C0
C0C0
ENDCHAR
STARTCHAR g43
ENCODING 73
SWIDTH 250 0
DWIDTH 4 0
BBX 2 12 1 0
BITMAP
C0
C0
C0
C0
C0
C0
C0
C0
C0
C0
C0
C0
ENDCHAR
STARTCHAR g44
ENCODING 74
SWIDTH 438 0
DWIDTH 7 0
BBX 6 12 0 0
BITMAP
0C
0C
0C
0C
0C
0C
0C
0C
0C
0C
1C
F8
ENDCHAR
STARTCHAR g45
ENCODING 75
SWIDTH 625 0
DWIDTH 10 0
BBX 9 12 1 0
BITMAP
C300
C600
CC00
D800
F000
E000
F000
D800
CC00
C600
C300
C180
ENDCHAR
STARTCHAR g46
ENCODING 76
SWIDTH 562 0
DWIDTH 9 0
BBX 8 12 1 0
BITMAP
C0
C0
C0
C0
C0
C0
C0
C0
C0
C0
C0
FF
ENDCHAR
STARTCHAR g47
ENCODING 77
SWIDTH 1000 0
DWIDTH 16 0
BBX 14 12 1 0
BITMAP
E01C
E01C
B02C
B02C
984C
984C
8C8C
8C8C
870C
870C
820C
820C
ENDCHAR
STARTCHAR g48
ENCODING 78
SWIDTH 750 0
DWIDTH 12 0
BBX 10 12 1 0
BITMAP
8040
C040
E040
F040
B840
9C40
8E40
8740
83C0
81C0
80C0
8040
ENDCHAR
STARTCHAR g49
ENCODING 79
SWIDTH 875 0
DWIDTH 14 0
BBX 12 12 1 0
BITMAP
1F80
30C0
6060
E070
C030
C030
C030
C030
E070
6060
30C0
1F80
ENDCHAR
STARTCHAR g50
ENCODING 80
SWIDTH 688 0
DWIDTH 11 0
BBX 9 12 1 0
BITMAP
FE00
C300
C180
C180
C180
C180
C300
FE00
C000
C000
C000
C000
ENDCHAR
STARTCHAR g51
ENCODING 81
SWIDTH 875 0
DWIDTH 14 0
BBX 12 15 1 -3
BITMAP
1F80
30C0
6060
E070
C030
C030
C030
C030
E070
6060
30C0
1F80
0300
0180
00E0
ENDCHAR
STARTCHAR g52
ENCODING 82
SWIDTH 688 0
DWIDTH 11 0
BBX 10 12 1 0
BITMAP
FE00
C300
C180
C180
C180
C300
FE00
CC00
C600
C300
C180
C0C0
ENDCHAR
STARTCHAR g53
ENCODING 83
SWIDTH 625 0
DWIDTH 10 0
BBX 8 12 1 0
BITMAP
3F
60
C0
C0
E0
78
1E
07
03
03
06
FC
ENDCHAR
STARTCHAR g54
ENCODING 84
SWIDTH 625 0
DWIDTH 10 0
BBX 10 12 0 0
BITMAP
FFC0
0C00
0C00
0C00
0C00
0C00
0C00
0C00
0C00
0C00
0C00
0C00
ENDCHAR
STARTCHAR g55
ENCODING 85
SWIDTH 750 0
DWIDTH 12 0
BBX 10 12 1 0
BITMAP
C0C0
C0C0
C0C0
C0C0
C0C0
C0C0
C0C0
C0C0
C0C0
C0C0
6180
3F00
ENDCHAR
STARTCHAR g56
ENCODING 86
SWIDTH 688 0
DWIDTH 11 0
BBX 11 12 0 0
BITMAP
C060
C060
E040
60C0
6080
3180
3100
3B00
1A00
1E00
0C00
0C00
ENDCHAR
STARTCHAR g57
ENCODING 87
SWIDTH 1000 0
DWIDTH 16 0
BBX 16 12 0 0
BITMAP
C183
C183
C182
63C6
62C4
62C4
366C
3468
3C78
1830
1830
1830
ENDCHAR
STARTCHAR g58
ENCODING 88
SWIDTH 688 0
DWIDTH 11 0
BBX 11 12 0 0
BITMAP
E060
70C0
3080
1900
1F00
0E00
0E00
1F00
1300
2180
61C0
C0E0
ENDCHAR
STARTCHAR g59
ENCODING 89
SWIDTH 750 0
DWIDTH 12 0
BBX 12 12 0 0
BITMAP
E030
6020
3060
38C0
1880
0D80
0F00
0600
0600
0600
0600
0600
ENDCHAR
STARTCHAR g60
ENCODING 90
SWIDTH 688 0
DWIDTH 11 0
BBX 9 12 1 0
BITMAP
FF80
0380
0300
0600
0E00
0C00
1800
3800
3000
6000
E000
FF80
ENDCHAR
STARTCHAR g61
ENCODING 91
SWIDTH 312 0
DWIDTH 5 0
BBX 3 15 1 -2
BITMAP
E0
C0
C0
C0
C0
C0
C0
C0
C0
C0
C0
C0
C0
C0
E0
ENDCHAR
STARTCHAR g62
ENCODING 92
SWIDTH 500 0
DWIDTH 8 0
BBX 6 11 1 0
BITMAP
C0
C0
60
60
30
30
30
18
18
0C
0C
ENDCHAR
STARTCHAR g63
ENCODING 93
SWIDTH 312 0
DWIDTH 5 0
BBX 3 15 1 -2
BITMAP
E0
60
60
60
60
60
60
60
60
60
60
60
60
60
E0
ENDCHAR
STARTCHAR g64
ENCODING 94
SWIDTH 438 0
DWIDTH 7 0
BBX 5 6 1 6
BITMAP
20
20
70
50
D8
88
ENDCHAR
STARTCHAR g65
ENCODING 95
SWIDTH 500 0
DWIDTH 8 0
BBX 8 1 0 -1
BITMAP
FF
ENDCHAR
STARTCHAR g66
ENCODING 96
SWIDTH 375 0
DWIDTH 6 0
BBX 4 3 1 9
BITMAP
C0
60
10
ENDCHAR
STARTCHAR g67
ENCODING 97
SWIDTH 625 0
DWIDTH 10 0
BBX 8 9 1 0
BITMAP
7E
07
03
3F
63
C3
C3
E7
7B
ENDCHAR
STARTCHAR g68
ENCODING 98
SWIDTH 625 0
DWIDTH 10 0
BBX 8 12 1 0
BITMAP
C0
C0
C0
DE
E7
C3
C3
C3
C3
C3
C6
FC
ENDCHAR
STARTCHAR g69
ENCODING 99
SWIDTH 562 0
DWIDTH 9 0
BBX 7 9 1 0
BITMAP
3E
60
C0
C0
C0
C0
C0
60
3E
ENDCHAR
STARTCHAR g70
ENCODING 100
SWIDTH 625 0
DWIDTH 10 0
BBX 8 12 1 0
BITMAP
03
03
03
3F
63
C3
C3
C3
C3
C3
E7
7B
ENDCHAR
STARTCHAR g71
ENCODING 101
SWIDTH 625 0
DWIDTH 10 0
BBX 8 9 1 0
BITMAP
3E
63
C3
FF
C0
C0
C0
60
3F
ENDCHAR
STARTCHAR g72
ENCODING 102
SWIDTH 312 0
DWIDTH 5 0
BBX 6 12 0 0
BITMAP
3C
60
60
F8
60
60
60
60
60
60
60
60
ENDCHAR
STARTCHAR g73
ENCODING 103
SWIDTH 625 0
DWIDTH 10 0
BBX 8 13 1 -4
BITMAP
3F
63
C3
C3
C3
C3
C3
E7
7B
03
03
06
7C
ENDCHAR
STARTCHAR g74
ENCODING 104
SWIDTH 625 0
DWIDTH 10 0
BBX 8 12 1 0
BITMAP
C0
C0
C0
DE
E7
C3
C3
C3
C3
C3
C3
C3
ENDCHAR
STARTCHAR g75
ENCODING 105
SWIDTH 250 0
DWIDTH 4 0
BBX 2 12 1 0
BITMAP
C0
C0
00
C0
C0
C0
C0
C0
C0
C0
C0
C0
ENDCHAR
STARTCHAR g76
ENCODING 106
SWIDTH 250 0
DWIDTH 4 0
BBX 5 16 -2 -4
BITMAP
18
18
00
18
18
18
18
18
18
18
18
18
18
18
30
E0
ENDCHAR
STARTCHAR g77
ENCODING 107
SWIDTH 562 0
DWIDTH 9 0
BBX 8 12 1 0
BITMAP
C0
C0
C0
C6
CC
D8
F0
F0
D8
CC
C6
C3
ENDCHAR
STARTCHAR g78
ENCODING 108
SWIDTH 250 0
DWIDTH 4 0
BBX 2 12 1 0
BITMAP
C0
C0
C0
C0
C0
C0
C0
C0
C0
C0
C0
C0
ENDCHAR
STARTCHAR g79
ENCODING 109
SWIDTH 1000 0
DWIDTH 16 0
BBX 14 9 1 0
BITMAP
DEF8
E79C
C30C
C30C
C30C
C30C
C30C
C30C
C30C
ENDCHAR
STARTCHAR g80
ENCODING 110
SWIDTH 625 0
DWIDTH 10 0
BBX 8 9 1 0
BITMAP
DE
E7
C3
C3
C3
C3
C3
C3
C3
ENDCHAR
STARTCHAR g81
ENCODING 111
SWIDTH 688 0
DWIDTH 11 0
BBX 9 9 1 0
BITMAP
3E00
6300
C180
C180
C180
C180
C180
6300
3E00
ENDCHAR
STARTCHAR g82
ENCODING 112
SWIDTH 625 0
DWIDTH 10 0
BBX 8 13 1 -4
BITMAP
DE
E7
C3
C3
C3
C3
C3
C6
FC
C0
C0
C0
C0
ENDCHAR
STARTCHAR g83
ENCODING 113
SWIDTH 625 0
DWIDTH 10 0
BBX 8 13 1 -4
BITMAP
3F
63
C3
C3
C3
C3
C3
E7
7B
03
03
03
03
ENDCHAR
STARTCHAR g84
ENCODING 114
SWIDTH 438 0
DWIDTH 7 0
BBX 6 9 1 0
BITMAP
DC
F0
C0
C0
C0
C0
C0
C0
C0
ENDCHAR
STARTCHAR g85
ENCODING 115
SWIDTH 500 0
DWIDTH 8 0
BBX 6 9 1 0
BITMAP
7C
C0
C0
E0
78
1C
0C
0C
F8
ENDCHAR
STARTCHAR g86
ENCODING 116
SWIDTH 375 0
DWIDTH 6 0
BBX 6 11 0 0
BITMAP
60
60
FC
60
60
60
60
60
60
70
3C
ENDCHAR
STARTCHAR g87
ENCODING 117
SWIDTH 625 0
DWIDTH 10 0
BBX 8 9 1 0
BITMAP
C3
C3
C3
C3
C3
C3
C3
E7
7B
ENDCHAR
STARTCHAR g88
ENCODING 118
SWIDTH 562 0
DWIDTH 9 0
BBX 9 9 0 0
BITMAP
C180
C100
6300
6200
3600
3400
1C00
1800
0800
ENDCHAR
STARTCHAR g89
ENCODING 119
SWIDTH 875 0
DWIDTH 14 0
BBX 14 9 0 0
BITMAP
C30C
C30C
C788
6598
6CD8
68D0
3870
3060
1020
ENDCHAR
STARTCHAR g90
ENCODING 120
SWIDTH 625 0
DWIDTH 10 0
BBX 8 9 1 0
BITMAP
C3
C3
66
3C
18
3C
66
C3
C3
ENDCHAR
STARTCHAR g91
ENCODING 121
SWIDTH 562 0
DWIDTH 9 0
BBX 10 13 -1 -4
BITMAP
60C0
6080
3180
3100
1B00
1A00
0E00
0C00
0800
1800
3000
6000
C000
ENDCHAR
STARTCHAR g92
ENCODING 122
SWIDTH 562 0
DWIDTH 9 0
BBX 7 9 1 0
BITMAP
FE
06
0C
18
10
30
60
C0
FE
ENDCHAR
STARTCHAR g93
ENCODING 123
SWIDTH 375 0
DWIDTH 6 0
BBX 5 15 1 -2
BITMAP
38
60
60
60
60
60
60
C0
60
60
60
60
60
60
38
ENDCHAR
STARTCHAR g94
ENCODING 124
SWIDTH 250 0
DWIDTH 4 0
BBX 2 15 1 -2
BITMAP
C0
C0
C0
C0
C0
C0
C0
00
C0
C0
C0
C0
C0
C0
C0
ENDCHAR
STARTCHAR g95
ENCODING 125
SWIDTH 375 0
DWIDTH 6 0
BBX 5 15 0 -2
BITMAP
E0
30
30
30
30
30
30
18
30
30
30
30
30
30
E0
ENDCHAR
STARTCHAR g96
ENCODING 126
SWIDTH 688 0
DWIDTH 11 0
BBX 9 4 1 5
BITMAP
7080
F880
8F80
8700
ENDCHAR
STARTCHAR g97
ENCODING 127
SWIDTH 688 0
DWIDTH 11 0
BBX 0 0 0 0
BITMAP
ENDCHAR
STARTCHAR g98
ENCODING 161
SWIDTH 250 0
DWIDTH 4 0
BBX 2 12 1 -3
BITMAP
C0
C0
00
C0
C0
C0
C0
C0
C0
C0
C0
C0
ENDCHAR
STARTCHAR g99
ENCODING 162
SWIDTH 562 0
DWIDTH 9 0
BBX 7 13 1 -2
BITMAP
08
08
3E
68
C8
C8
C8
C8
C8
68
3E
08
08
ENDCHAR
STARTCHAR g100
ENCODING 163
SWIDTH 562 0
DWIDTH 9 0
BBX 7 12 1 0
BITMAP
1E
20
60
60
60
FC
60
60
60
60
60
FE
ENDCHAR
STARTCHAR g101
ENCODING 164
SWIDTH 688 0
DWIDTH 11 0
BBX 9 9 1 0
BITMAP
9C80
6300
4100
8080
8080
8080
4100
6300
9C80
ENDCHAR
STARTCHAR g102
ENCODING 165
SWIDTH 625 0
DWIDTH 10 0
BBX 10 11 0 0
BITMAP
C0C0
6080
6180
3100
1B00
1E00
7F80
0C00
7F80
0C00
0C00
ENDCHAR
STARTCHAR g103
ENCODING 167
SWIDTH 625 0
DWIDTH 10 0
BBX 8 12 1 0
BITMAP
3C
62
C0
E0
98
C6
63
19
07
03
46
3C
ENDCHAR
STARTCHAR g104
ENCODING 168
SWIDTH 500 0
DWIDTH 8 0
BBX 6 1 1 11
BITMAP
CC
ENDCHAR
STARTCHAR g105
ENCODING 169
SWIDTH 688 0
DWIDTH 11 0
BBX 9 9 1 0
BITMAP
3E00
4100
9C80
A080
A080
A080
9C80
4100
3E00
ENDCHAR
STARTCHAR g106
ENCODING 170
SWIDTH 500 0
DWIDTH 8 0
BBX 6 7 1 5
BITMAP
7C
CC
CC
DC
6C
00
FC
ENDCHAR
STARTCHAR g107
ENCODING 171
SWIDTH 688 0
DWIDTH 11 0
BBX 9 7 1 1
BITMAP
1980
3300
6600
CC00
6600
3300
1980
ENDCHAR
STARTCHAR g108
ENCODING 172
SWIDTH 688 0
DWIDTH 11 0
BBX 9 4 1 3
BITMAP
FF80
0080
0080
0080
ENDCHAR
STARTCHAR g109
ENCODING 174
SWIDTH 688 0
DWIDTH 11 0
BBX 9 9 1 0
BITMAP
3E00
4100
BC80
A280
BC80
A480
A280
4100
3E00
ENDCHAR
STARTCHAR g110
ENCODING 175
SWIDTH 375 0
DWIDTH 6 0
BBX 4 1 1 10
BITMAP
F0
ENDCHAR
STARTCHAR g111
ENCODING 176
SWIDTH 375 0
DWIDTH 6 0
BBX 4 4 1 8
BITMAP
60
90
90
60
ENDCHAR
STARTCHAR g112
ENCODING 177
SWIDTH 562 0
DWIDTH 9 0
BBX 7 8 1 2
BITMAP
10
10
10
FE
10
10
10
FE
ENDCHAR
STARTCHAR g113
ENCODING 180
SWIDTH 375 0
DWIDTH 6 0
BBX 4 3 1 10
BITMAP
30
60
80
ENDCHAR
STARTCHAR g114
ENCODING 181
SWIDTH 625 0
DWIDTH 10 0
BBX 8 12 1 -3
BITMAP
C3
C3
C3
C3
C3
C3
C3
C7
FB
C0
C0
C0
ENDCHAR
STARTCHAR g115
ENCODING 182
SWIDTH 625 0
DWIDTH 10 0
BBX 8 12 1 0
BITMAP
7F
F3
F3
F3
F3
73
13
13
13
13
13
13
ENDCHAR
STARTCHAR g116
ENCODING 183
SWIDTH 250 0
DWIDTH 4 0
BBX 2 2 1 4
BITMAP
C0
C0
ENDCHAR
STARTCHAR g117
ENCODING 184
SWIDTH 312 0
DWIDTH 5 0
BBX 4 4 0 -3
BITMAP
60
30
30
E0
ENDCHAR
STARTCHAR g118
ENCODING 186
SWIDTH 500 0
DWIDTH 8 0
BBX 6 7 1 5
BITMAP
78
CC
CC
CC
78
00
FC
ENDCHAR
STARTCHAR g119
ENCODING 187
SWIDTH 688 0
DWIDTH 11 0
BBX 9 7 1 1
BITMAP
CC00
6600
3300
1980
3300
6600
CC00
ENDCHAR
STARTCHAR g120
ENCODING 191
SWIDTH 500 0
DWIDTH 8 0
BBX 6 12 1 -3
BITMAP
18
18
00
18
18
18
30
60
C0
C0
C0
7C
ENDCHAR
STARTCHAR g121
ENCODING 192
SWIDTH 750 0
DWIDTH 12 0
BBX 12 16 0 0
BITMAP
0C00
0600
0100
0000
0600
0600
0F00
0B00
1B80
1180
3180
20C0
7FC0
40E0
C060
8070
ENDCHAR
STARTCHAR g122
ENCODING 193
SWIDTH 750 0
DWIDTH 12 0
BBX 12 16 0 0
BITMAP
0300
0600
0800
0000
0600
0600
0F00
0B00
1B80
1180
3180
20C0
7FC0
40E0
C060
8070
ENDCHAR
STARTCHAR g123
ENCODING 194
SWIDTH 750 0
DWIDTH 12 0
BBX 12 16 0 0
BITMAP
0200
0700
0880
0000
0600
0600
0F00
0B00
1B80
1180
3180
20C0
7FC0
40E0
C060
8070
ENDCHAR
STARTCHAR g124
ENCODING 195
SWIDTH 750 0
DWIDTH 12 0
BBX 12 15 0 0
BITMAP
0E40
1380
0000
0600
0600
0F00
0B00
1B80
1180
3180
20C0
7FC0
40E0
C060
8070
ENDCHAR
STARTCHAR g125
ENCODING 196
SWIDTH 750 0
DWIDTH 12 0
BBX 12 14 0 0
BITMAP
1980
0000
0600
0600
0F00
0B00
1B80
1180
3180
20C0
7FC0
40E0
C060
8070
ENDCHAR
STARTCHAR g126
ENCODING 197
SWIDTH 750 0
DWIDTH 12 0
BBX 12 15 0 0
BITMAP
0600
0900
0600
0600
0600
0F00
0B00
1B80
1180
3180
20C0
7FC0
40E0
C060
8070
ENDCHAR
STARTCHAR g127
ENCODING 198
SWIDTH 1000 0
DWIDTH 16 0
BBX 15 12 0 0
BITMAP
03FE
06C0
06C0
0CC0
0CC0
18FC
18C0
30C0
3FC0
60C0
60C0
C0FE
ENDCHAR
STARTCHAR g128
ENCODING 199
SWIDTH 688 0
DWIDTH 11 0
BBX 9 15 1 -3
BITMAP
1F80
3800
6000
E000
C000
C000
C000
C000
E000
6000
3800
1F80
0600
0600
1C00
ENDCHAR
STARTCHAR g129
ENCODING 200
SWIDTH 562 0
DWIDTH 9 0
BBX 7 16 1 0
BITMAP
60
30
08
00
FE
C0
C0
C0
C0
FC
C0
C0
C0
C0
C0
FE
ENDCHAR
STARTCHAR g130
ENCODING 201
SWIDTH 562 0
DWIDTH 9 0
BBX 7 16 1 0
BITMAP
0C
18
20
00
FE
C0
C0
C0
C0
FC
C0
C0
C0
C0
C0
FE
ENDCHAR
STARTCHAR g131
ENCODING 202
SWIDTH 562 0
DWIDTH 9 0
BBX 7 16 1 0
BITMAP
10
38
44
00
FE
C0
C0
C0
C0
FC
C0
C0
C0
C0
C0
FE
ENDCHAR
STARTCHAR g132
ENCODING 203
SWIDTH 562 0
DWIDTH 9 0
BBX 7 14 1 0
BITMAP
66
00
FE
C0
C0
C0
C0
FC
C0
C0
C0
C0
C0
FE
ENDCHAR
STARTCHAR g133
ENCODING 204
SWIDTH 250 0
DWIDTH 4 0
BBX 4 16 0 0
BITMAP
C0
60
10
00
60
60
60
60
60
60
60
60
60
60
60
60
ENDCHAR
STARTCHAR g134
ENCODING 205
SWIDTH 250 0
DWIDTH 4 0
BBX 4 16 0 0
BITMAP
30
60
80
00
60
60
60
60
60
60
60
60
60
60
60
60
ENDCHAR
STARTCHAR g135
ENCODING 206
SWIDTH 250 0
DWIDTH 4 0
BBX 5 16 0 0
BITMAP
20
70
88
00
60
60
60
60
60
60
60
60
60
60
60
60
ENDCHAR
STARTCHAR g136
ENCODING 207
SWIDTH 250 0
DWIDTH 4 0
BBX 5 14 0 0
BITMAP
D8
00
60
60
60
60
60
60
60
60
60
60
60
60
ENDCHAR
STARTCHAR g137
ENCODING 209
SWIDTH 750 0
DWIDTH 12 0
BBX 10 15 1 0
BITMAP
1C80
2700
0000
8040
C040
E040
F040
B840
9C40
8E40
8740
83C0
81C0
80C0
8040
ENDCHAR
STARTCHAR g138
ENCODING 210
SWIDTH 875 0
DWIDTH 14 0
BBX 12 16 1 0
BITMAP
0C00
0600
0100
0000
1F80
30C0
6060
E070
C030
C030
C030
C030
E070
6060
30C0
1F80
ENDCHAR
STARTCHAR g139
ENCODING 211
SWIDTH 875 0
DWIDTH 14 0
BBX 12 16 1 0
BITMAP
0180
0300
0400
0000
1F80
30C0
6060
E070
C030
C030
C030
C030
E070
6060
30C0
1F80
ENDCHAR
STARTCHAR g140
ENCODING 212
SWIDTH 875 0
DWIDTH 14 0
BBX 12 16 1 0
BITMAP
0200
0700
0880
0000
1F80
30C0
6060
E070
C030
C030
C030
C030
E070
6060
30C0
1F80
ENDCHAR
STARTCHAR g141
ENCODING 213
SWIDTH 875 0
DWIDTH 14 0
BBX 12 15 1 0
BITMAP
0E40
1380
0000
1F80
30C0
6060
E070
C030
C030
C030
C030
E070
6060
30C0
1F80
ENDCHAR
STARTCHAR g142
ENCODING 214
SWIDTH 875 0
DWIDTH 14 0
BBX 12 14 1 0
BITMAP
1980
0000
1F80
30C0
6060
E070
C030
C030
C030
C030
E070
6060
30C0
1F80
ENDCHAR
STARTCHAR g143
ENCODING 216
SWIDTH 875 0
DWIDTH 14 0
BBX 12 12 1 0
BITMAP
1F90
30E0
6060
E0F0
C130
C230
C430
C830
F070
6060
70C0
9F80
ENDCHAR
STARTCHAR g144
ENCODING 217
SWIDTH 750 0
DWIDTH 12 0
BBX 10 16 1 0
BITMAP
3000
1800
0400
0000
C0C0
C0C0
C0C0
C0C0
C0C0
C0C0
C0C0
C0C0
C0C0
C0C0
6180
3F00
ENDCHAR
STARTCHAR g145
ENCODING 218
SWIDTH 750 0
DWIDTH 12 0
BBX 10 16 1 0
BITMAP
0300
0600
0800
0000
C0C0
C0C0
C0C0
C0C0
C0C0
C0C0
C0C0
C0C0
C0C0
C0C0
6180
3F00
ENDCHAR
STARTCHAR g146
ENCODING 219
SWIDTH 750 0
DWIDTH 12 0
BBX 10 16 1 0
BITMAP
0400
0E00
1100
0000
C0C0
C0C0
C0C0
C0C0
C0C0
C0C0
C0C0
C0C0
C0C0
C0C0
6180
3F00
ENDCHAR
STARTCHAR g147
ENCODING 220
SWIDTH 750 0
DWIDTH 12 0
BBX 10 14 1 0
BITMAP
3300
0000
C0C0
C0C0
C0C0
C0C0
C0C0
C0C0
C0C0
C0C0
C0C0
C0C0
6180
3F00
ENDCHAR
STARTCHAR g148
ENCODING 223
SWIDTH 688 0
DWIDTH 11 0
BBX 9 12 1 0
BITMAP
7C00
C600
C600
C600
CC00
DE00
C300
C180
C180
C180
C180
DF00
ENDCHAR
STARTCHAR g149
ENCODING 224
SWIDTH 625 0
DWIDTH 10 0
BBX 8 13 1 0
BITMAP
30
18
04
00
7E
07
03
3F
63
C3
C3
E7
7B
ENDCHAR
STARTCHAR g150
ENCODING 225
SWIDTH 625 0
DWIDTH 10 0
BBX 8 13 1 0
BITMAP
06
0C
10
00
7E
07
03
3F
63
C3
C3
E7
7B
ENDCHAR
STARTCHAR g151
ENCODING 226
SWIDTH 625 0
DWIDTH 10 0
BBX 8 13 1 0
BITMAP
08
1C
22
00
7E
07
03
3F
63
C3
C3
E7
7B
ENDCHAR
STARTCHAR g152
ENCODING 227
SWIDTH 625 0
DWIDTH 10 0
BBX 8 12 1 0
BITMAP
39
4E
00
7E
07
03
3F
63
C3
C3
E7
7B
ENDCHAR
STARTCHAR g153
ENCODING 228
SWIDTH 625 0
DWIDTH 10 0
BBX 8 11 1 0
BITMAP
36
00
7E
07
03
3F
63
C3
C3
E7
7B
ENDCHAR
STARTCHAR g154
ENCODING 229
SWIDTH 625 0
DWIDTH 10 0
BBX 8 13 1 0
BITMAP
18
24
18
00
7E
07
03
3F
63
C3
C3
E7
7B
ENDCHAR
STARTCHAR g155
ENCODING 230
SWIDTH 1000 0
DWIDTH 16 0
BBX 14 9 1 0
BITMAP
7EF8
078C
030C
3FFC
6300
C300
C300
E780
79FC
ENDCHAR
STARTCHAR g156
ENCODING 231
SWIDTH 562 0
DWIDTH 9 0
BBX 7 12 1 -3
BITMAP
3E
60
C0
C0
C0
C0
C0
60
3E
18
18
70
ENDCHAR
STARTCHAR g157
ENCODING 232
SWIDTH 625 0
DWIDTH 10 0
BBX 8 13 1 0
BITMAP
30
18
04
00
3E
63
C3
FF
C0
C0
C0
60
3F
ENDCHAR
STARTCHAR g158
ENCODING 233
SWIDTH 625 0
DWIDTH 10 0
BBX 8 13 1 0
BITMAP
06
0C
10
00
3E
63
C3
FF
C0
C0
C0
60
3F
ENDCHAR
STARTCHAR g159
ENCODING 234
SWIDTH 625 0
DWIDTH 10 0
BBX 8 13 1 0
BITMAP
08
1C
22
00
3E
63
C3
FF
C0
C0
C0
60
3F
ENDCHAR
STARTCHAR g160
ENCODING 235
SWIDTH 625 0
DWIDTH 10 0
BBX 8 11 1 0
BITMAP
36
00
3E
63
C3
FF
C0
C0
C0
60
3F
ENDCHAR
STARTCHAR g161
ENCODING 236
SWIDTH 250 0
DWIDTH 4 0
BBX 4 13 0 0
BITMAP
C0
60
10
00
60
60
60
60
60
60
60
60
60
ENDCHAR
STARTCHAR g162
ENCODING 237
SWIDTH 250 0
DWIDTH 4 0
BBX 4 13 0 0
BITMAP
30
60
80
00
60
60
60
60
60
60
60
60
60
ENDCHAR
STARTCHAR g163
ENCODING 238
SWIDTH 250 0
DWIDTH 4 0
BBX 5 13 0 0
BITMAP
20
70
88
00
60
60
60
60
60
60
60
60
60
ENDCHAR
STARTCHAR g164
ENCODING 239
SWIDTH 250 0
DWIDTH 4 0
BBX 5 12 0 0
BITMAP
D8
00
00
60
60
60
60
60
60
60
60
60
ENDCHAR
STARTCHAR g165
ENCODING 241
SWIDTH 625 0
DWIDTH 10 0
BBX 8 12 1 0
BITMAP
39
4E
00
DE
E7
C3
C3
C3
C3
C3
C3
C3
ENDCHAR
STARTCHAR g166
ENCODING 242
SWIDTH 688 0
DWIDTH 11 0
BBX 9 13 1 0
BITMAP
3000
1800
0400
0000
3E00
6300
C180
C180
C180
C180
C180
6300
3E00
ENDCHAR
STARTCHAR g167
ENCODING 243
SWIDTH 688 0
DWIDTH 11 0
BBX 9 13 1 0
BITMAP
0600
0C00
1000
0000
3E00
6300
C180
C180
C180
C180
C180
6300
3E00
ENDCHAR
STARTCHAR g168
ENCODING 244
SWIDTH 688 0
DWIDTH 11 0
BBX 9 13 1 0
BITMAP
0800
1C00
2200
0000
3E00
6300
C180
C180
C180
C180
C180
6300
3E00
ENDCHAR
STARTCHAR g169
ENCODING 245
SWIDTH 688 0
DWIDTH 11 0
BBX 9 12 1 0
BITMAP
3900
4E00
0000
3E00
6300
C180
C180
C180
C180
C180
6300
3E00
ENDCHAR
STARTCHAR g170
ENCODING 246
SWIDTH 688 0
DWIDTH 11 0
BBX 9 11 1 0
BITMAP
3600
0000
3E00
6300
C180
C180
C180
C180
C180
6300
3E00
ENDCHAR
STARTCHAR g171
ENCODING 247
SWIDTH 625 0
DWIDTH 10 0
BBX 8 5 1 3
BITMAP
18
00
FF
00
18
ENDCHAR
STARTCHAR g172
ENCODING 248
SWIDTH 688 0
DWIDTH 11 0
BBX 9 9 1 0
BITMAP
3E80
6300
C380
C580
C980
D180
E180
6300
BE00
ENDCHAR
STARTCHAR g173
ENCODING 249
SWIDTH 625 0
DWIDTH 10 0
BBX 8 13 1 0
BITMAP
60
30
08
00
C3
C3
C3
C3
C3
C3
C3
E7
7B
ENDCHAR
STARTCHAR g174
ENCODING 250
SWIDTH 625 0
DWIDTH 10 0
BBX 8 13 1 0
BITMAP
06
0C
10
00
C3
C3
C3
C3
C3
C3
C3
E7
7B
ENDCHAR
STARTCHAR g175
ENCODING 251
SWIDTH 625 0
DWIDTH 10 0
BBX 8 13 1 0
BITMAP
08
1C
22
00
C3
C3
C3
C3
C3
C3
C3
E7
7B
ENDCHAR
STARTCHAR g176
ENCODING 252
SWIDTH 625 0
DWIDTH 10 0
BBX 8 11 1 0
BITMAP
36
00
C3
C3
C3
C3
C3
C3
C3
E7
7B
ENDCHAR
STARTCHAR g177
ENCODING 255
SWIDTH 562 0
DWIDTH 9 0
BBX 10 15 -1 -4
BITMAP
1B00
0000
60C0
6080
3180
3100
1B00
1A00
0E00
0C00
0800
1800
3000
6000
C000
ENDCHAR
STARTCHAR g178
ENCODING 305
SWIDTH 250 0
DWIDTH 4 0
BBX 2 9 1 0
BITMAP
C0
C0
C0
C0
C0
C0
C0
C0
C0
ENDCHAR
STARTCHAR g179
ENCODING 338
SWIDTH 1000 0
DWIDTH 16 0
BBX 14 12 1 0
BITMAP
1FFC
3180
6180
E180
C180
C1F8
C180
C180
E180
6180
3180
1FFC
ENDCHAR
STARTCHAR g180
ENCODING 339
SWIDTH 1062 0
DWIDTH 17 0
BBX 15 9 1 0
BITMAP
3E7C
63C6
C186
C1FE
C180
C180
C180
63C0
3E7E
ENDCHAR
STARTCHAR g181
ENCODING 376
SWIDTH 750 0
DWIDTH 12 0
BBX 12 14 0 0
BITMAP
0CC0
0000
E030
6020
3060
38C0
1880
0D80
0F00
0600
0600
0600
0600
0600
ENDCHAR
STARTCHAR g182
ENCODING 402
SWIDTH 688 0
DWIDTH 11 0
BBX 10 14 0 -2
BITMAP
01C0
0300
0300
0600
1F80
0600
0C00
0C00
0C00
1800
1800
3000
3000
E000
ENDCHAR
STARTCHAR g183
ENCODING 710
SWIDTH 438 0
DWIDTH 7 0
BBX 5 3 1 9
BITMAP
20
70
88
ENDCHAR
STARTCHAR g184
ENCODING 711
SWIDTH 375 0
DWIDTH 6 0
BBX 5 3 1 9
BITMAP
88
70
20
ENDCHAR
STARTCHAR g185
ENCODING 728
SWIDTH 438 0
DWIDTH 7 0
BBX 5 2 1 10
BITMAP
88
70
ENDCHAR
STARTCHAR g186
ENCODING 729
SWIDTH 250 0
DWIDTH 4 0
BBX 2 2 1 10
BITMAP
C0
C0
ENDCHAR
STARTCHAR g187
ENCODING 730
SWIDTH 375 0
DWIDTH 6 0
BBX 4 3 1 9
BITMAP
60
90
60
ENDCHAR
STARTCHAR g188
ENCODING 731
SWIDTH 312 0
DWIDTH 5 0
BBX 4 4 1 -3
BITMAP
60
C0
C0
70
ENDCHAR
STARTCHAR g189
ENCODING 732
SWIDTH 562 0
DWIDTH 9 0
BBX 7 2 1 10
BITMAP
72
9C
ENDCHAR
STARTCHAR g190
ENCODING 733
SWIDTH 562 0
DWIDTH 9 0
BBX 7 3 1 9
BITMAP
36
6C
90
ENDCHAR
STARTCHAR g191
ENCODING 960
SWIDTH 625 0
DWIDTH 10 0
BBX 8 8 1 0
BITMAP
FF
66
66
66
66
66
67
E6
ENDCHAR
STARTCHAR g192
ENCODING 8211
SWIDTH 688 0
DWIDTH 11 0
BBX 9 1 1 5
BITMAP
FF80
ENDCHAR
STARTCHAR g193
ENCODING 8212
SWIDTH 1000 0
DWIDTH 16 0
BBX 14 1 1 5
BITMAP
FFFC
ENDCHAR
STARTCHAR g194
ENCODING 8216
SWIDTH 250 0
DWIDTH 4 0
BBX 2 4 1 9
BITMAP
40
80
C0
C0
ENDCHAR
STARTCHAR g195
ENCODING 8217
SWIDTH 250 0
DWIDTH 4 0
BBX 2 4 1 9
BITMAP
C0
C0
40
80
ENDCHAR
STARTCHAR g196
ENCODING 8218
SWIDTH 250 0
DWIDTH 4 0
BBX 2 4 1 -2
BITMAP
C0
C0
40
80
ENDCHAR
STARTCHAR g197
ENCODING 8220
SWIDTH 438 0
DWIDTH 7 0
BBX 5 4 1 9
BITMAP
48
90
D8
D8
ENDCHAR
STARTCHAR g198
ENCODING 8221
SWIDTH 438 0
DWIDTH 7 0
BBX 5 4 1 9
BITMAP
D8
D8
48
90
ENDCHAR
STARTCHAR g199
ENCODING 8222
SWIDTH 438 0
DWIDTH 7 0
BBX 5 4 1 -2
BITMAP
D8
D8
48
90
ENDCHAR
STARTCHAR g200
ENCODING 8224
SWIDTH 500 0
DWIDTH 8 0
BBX 3 7 2 8
BITMAP
40
40
E0
40
40
40
40
ENDCHAR
STARTCHAR g201
ENCODING 8225
SWIDTH 625 0
DWIDTH 10 0
BBX 8 15 1 -3
BITMAP
18
18
18
FF
18
18
18
18
18
18
18
FF
18
18
18
ENDCHAR
STARTCHAR g202
ENCODING 8226
SWIDTH 438 0
DWIDTH 7 0
BBX 5 5 1 4
BITMAP
70
F8
F8
F8
70
ENDCHAR
STARTCHAR g203
ENCODING 8230
SWIDTH 750 0
DWIDTH 12 0
BBX 10 2 1 0
BITMAP
CCC0
CCC0
ENDCHAR
STARTCHAR g204
ENCODING 8240
SWIDTH 1250 0
DWIDTH 20 0
BBX 18 11 1 0
BITMAP
786000
CC6000
CCC000
CD8000
7B0000
060000
0DE780
1B3CC0
333CC0
633CC0
61E780
ENDCHAR
STARTCHAR g205
ENCODING 8249
SWIDTH 438 0
DWIDTH 7 0
BBX 5 7 1 1
BITMAP
18
30
60
C0
60
30
18
ENDCHAR
STARTCHAR g206
ENCODING 8250
SWIDTH 438 0
DWIDTH 7 0
BBX 5 7 1 1
BITMAP
C0
60
30
18
30
60
C0
ENDCHAR
STARTCHAR g207
ENCODING 8260
SWIDTH 562 0
DWIDTH 9 0
BBX 9 14 0 -2
BITMAP
0180
0300
0300
0600
0600
0C00
0C00
1800
1800
3000
3000
6000
6000
C000
ENDCHAR
STARTCHAR g208
ENCODING 8482
SWIDTH 688 0
DWIDTH 11 0
BBX 9 4 1 8
BITMAP
E880
4D80
4A80
4A80
ENDCHAR
STARTCHAR g209
ENCODING 8486
SWIDTH 812 0
DWIDTH 13 0
BBX 11 12 1 0
BITMAP
1F00
71C0
E0E0
C060
C060
C060
C060
60C0
2080
3180
B1A0
F1E0
ENDCHAR
STARTCHAR g210
ENCODING 8706
SWIDTH 562 0
DWIDTH 9 0
BBX 7 12 1 0
BITMAP
78
0C
06
06
3E
46
C6
C6
C6
C6
E4
78
ENDCHAR
STARTCHAR g211
ENCODING 8710
SWIDTH 812 0
DWIDTH 13 0
BBX 13 13 0 0
BITMAP
0200
0300
0500
0580
0880
08C0
1040
1060
2020
2030
4010
4018
FFF8
ENDCHAR
STARTCHAR g212
ENCODING 8719
SWIDTH 750 0
DWIDTH 12 0
BBX 10 13 1 -1
BITMAP
FFC0
6180
6180
6180
6180
6180
6180
6180
6180
6180
6180
6180
F3C0
ENDCHAR
STARTCHAR g213
ENCODING 8721
SWIDTH 625 0
DWIDTH 10 0
BBX 8 13 1 -1
BITMAP
FF
C1
E0
70
38
1C
0C
18
30
60
C1
FF
FF
ENDCHAR
STARTCHAR g214
ENCODING 8730
SWIDTH 562 0
DWIDTH 9 0
BBX 7 13 1 -1
BITMAP
02
02
02
04
04
04
C4
48
28
28
30
10
10
ENDCHAR
STARTCHAR g215
ENCODING 8734
SWIDTH 875 0
DWIDTH 14 0
BBX 12 5 1 4
BITMAP
79E0
8710
8610
8E10
79E0
ENDCHAR
STARTCHAR g216
ENCODING 8747
SWIDTH 375 0
DWIDTH 6 0
BBX 6 18 0 -4
BITMAP
1C
30
30
30
30
30
30
30
30
30
30
30
30
30
30
30
30
E0
ENDCHAR
STARTCHAR g217
ENCODING 8776
SWIDTH 688 0
DWIDTH 11 0
BBX 9 5 1 3
BITMAP
7880
8F00
0000
7880
8F00
ENDCHAR
STARTCHAR g218
ENCODING 8800
SWIDTH 625 0
DWIDTH 10 0
BBX 8 8 1 2
BITMAP
02
04
FF
08
10
FF
20
40
ENDCHAR
STARTCHAR g219
ENCODING 8804
SWIDTH 562 0
DWIDTH 9 0
BBX 7 7 1 2
BITMAP
0E
38
E0
38
0E
00
FE
ENDCHAR
STARTCHAR g220
ENCODING 8805
SWIDTH 562 0
DWIDTH 9 0
BBX 7 7 1 2
BITMAP
E0
38
0E
38
E0
00
FE
ENDCHAR
STARTCHAR g221
ENCODING 9674
SWIDTH 562 0
DWIDTH 9 0
BBX 7 14 1 -1
BITMAP
10
10
28
28
44
44
82
82
44
44
28
28
10
10
ENDCHAR
STARTCHAR g222
ENCODING 63252
SWIDTH 688 0
DWIDTH 11 0
BBX 9 12 1 0
BITMAP
3E00
6300
C180
C180
C180
DD80
DD80
C180
C180
C180
6300
3E00
ENDCHAR
STARTCHAR g223
ENCODING 63253
SWIDTH 375 0
DWIDTH 6 0
BBX 4 12 1 0
BITMAP
F0
60
60
60
60
60
60
60
60
60
60
F0
ENDCHAR
STARTCHAR g224
ENCODING 63254
SWIDTH 312 0
DWIDTH 5 0
BBX 4 12 0 0
BITMAP
E0
60
60
60
60
60
60
60
60
60
60
70
ENDCHAR
STARTCHAR g225
ENCODING 63487
SWIDTH 812 0
DWIDTH 13 0
BBX 0 0 0 0
BITMAP
ENDCHAR
STARTCHAR g226
ENCODING 64257
SWIDTH 562 0
DWIDTH 9 0
BBX 8 12 0 0
BITMAP
3B
63
60
FF
63
63
63
63
63
63
63
63
ENDCHAR
STARTCHAR g227
ENCODING 64258
SWIDTH 562 0
DWIDTH 9 0
BBX 8 12 0 0
BITMAP
3F
63
63
FB
63
63
63
63
63
63
63
63
ENDCHAR
STARTCHAR g228
ENCODING 64512
SWIDTH 938 0
DWIDTH 15 0
BBX 13 9 1 0
BITMAP
3FE0
F8F8
EFB8
0F80
18C0
18C0
3FE0
3FE0
3FE0
ENDCHAR
STARTCHAR g229
ENCODING 64513
SWIDTH 875 0
DWIDTH 14 0
BBX 10 10 2 0
BITMAP
0C00
1E00
3F00
7F80
FFC0
FFC0
7F80
3F00
1E00
0C00
ENDCHAR
STARTCHAR g230
ENCODING 64514
SWIDTH 875 0
DWIDTH 14 0
BBX 0 0 0 0
BITMAP
ENDCHAR
STARTCHAR g231
ENCODING 64515
SWIDTH 875 0
DWIDTH 14 0
BBX 7 7 3 0
BITMAP
02
06
0A
12
22
42
FE
ENDCHAR
STARTCHAR g232
ENCODING 64516
SWIDTH 875 0
DWIDTH 14 0
BBX 9 7 2 0
BITMAP
0380
7C00
8A00
1100
1100
1100
0E00
ENDCHAR
STARTCHAR g233
ENCODING 64517
SWIDTH 1062 0
DWIDTH 17 0
BBX 15 15 1 -1
BITMAP
07C0
1FF0
3838
739C
638C
C006
C786
C386
C386
C386
67CC
701C
3838
1FF0
07C0
ENDCHAR
STARTCHAR g234
ENCODING 64518
SWIDTH 875 0
DWIDTH 14 0
BBX 7 7 4 0
BITMAP
80
C0
A0
90
88
84
FE
ENDCHAR
STARTCHAR g235
ENCODING 64519
SWIDTH 875 0
DWIDTH 14 0
BBX 12 7 1 0
BITMAP
0F00
30C0
4020
8010
8010
8F10
70E0
ENDCHAR
STARTCHAR g236
ENCODING 64520
SWIDTH 812 0
DWIDTH 13 0
BBX 11 11 1 0
BITMAP
60C0
9120
9120
7FC0
1100
1100
1100
7FC0
9120
9120
60C0
ENDCHAR
STARTCHAR g237
ENCODING 64521
SWIDTH 625 0
DWIDTH 10 0
BBX 8 12 0 0
BITMAP
FF
81
81
81
81
81
81
81
81
81
81
FF
ENDCHAR
STARTCHAR g238
ENCODING 64522
SWIDTH 688 0
DWIDTH 11 0
BBX 0 0 0 0
BITMAP
ENDCHAR
STARTCHAR g239
ENCODING 64523
SWIDTH 688 0
DWIDTH 11 0
BBX 10 9 0 0
BITMAP
00C0
0180
0300
6600
EE00
3C00
3C00
1800
1000
ENDCHAR
STARTCHAR g240
ENCODING 64524
SWIDTH 625 0
DWIDTH 10 0
BBX 8 12 0 0
BITMAP
FF
81
81
81
81
81
81
81
81
81
81
FF
ENDCHAR
STARTCHAR g241
ENCODING 64525
SWIDTH 625 0
DWIDTH 10 0
BBX 8 12 0 0
BITMAP
FF
81
81
81
81
81
81
81
81
81
81
FF
ENDCHAR
STARTCHAR g242
ENCODING 64526
SWIDTH 625 0
DWIDTH 10 0
BBX 8 12 0 0
BITMAP
FF
81
81
81
81
81
81
81
81
81
81
FF
ENDCHAR
STARTCHAR g243
ENCODING 64527
SWIDTH 625 0
DWIDTH 10 0
BBX 8 12 0 0
BITMAP
FF
81
81
81
81
81
81
81
81
81
81
FF
ENDCHAR
ENDFONT
