STARTFONT 2.1
COMMENT Strike 4 of a Newton 'sfnt' font (bloc/bdat): tools/fonts/newtonsfnt.py,
COMMENT tools/fonts/README.md.  The builder reads the BLOC_* properties and the
COMMENT glyphs - STARTCHAR gN (N the glyph id; otherwise ENCODING through 'cmap'),
COMMENT DWIDTH (the advance), BBX (width, height, the bearing x, the bottom row's
COMMENT y: bearing y less the height) and the BITMAP rows.  A glyph id in the
COMMENT subtable ranges with no glyph here has no image (the missing glyph is 0).
COMMENT The other properties, SIZE, FONTBOUNDINGBOX and SWIDTH are worked out and
COMMENT not read back: change BLOC_HORI_* (the line metrics the ROM draws text by)
COMMENT to match an edit that changes the strike's extent.
FONT -Apple-Roman Regular-Medium-R-Normal--14-140-72-72-P-0-Apple-Roman
SIZE 14 72 72
FONTBOUNDINGBOX 17 17 -1 -3
STARTPROPERTIES 37
FONT_ASCENT 14
FONT_DESCENT 4
PIXEL_SIZE 14
FAMILY_NAME "Roman Regular"
BLOC_COLOR_REF 0
BLOC_HORI_ASCENDER 14
BLOC_HORI_DESCENDER -4
BLOC_HORI_WIDTH_MAX 17
BLOC_HORI_CARET_SLOPE_NUMERATOR 0
BLOC_HORI_CARET_SLOPE_DENOMINATOR 1
BLOC_HORI_CARET_OFFSET 0
BLOC_HORI_MIN_ORIGIN_SB -1
BLOC_HORI_MIN_ADVANCE_SB -1
BLOC_HORI_MAX_BEFORE_BL 14
BLOC_HORI_MIN_AFTER_BL -3
BLOC_HORI_PAD1 0
BLOC_HORI_PAD2 0
BLOC_VERT_ASCENDER 0
BLOC_VERT_DESCENDER -1
BLOC_VERT_WIDTH_MAX 17
BLOC_VERT_CARET_SLOPE_NUMERATOR 0
BLOC_VERT_CARET_SLOPE_DENOMINATOR 1
BLOC_VERT_CARET_OFFSET 0
BLOC_VERT_MIN_ORIGIN_SB -44
BLOC_VERT_MIN_ADVANCE_SB 84
BLOC_VERT_MAX_BEFORE_BL 0
BLOC_VERT_MIN_AFTER_BL -17
BLOC_VERT_PAD1 0
BLOC_VERT_PAD2 0
BLOC_START_GLYPH 0
BLOC_END_GLYPH 257
BLOC_PPEM_X 14
BLOC_PPEM_Y 14
BLOC_BIT_DEPTH 1
BLOC_FLAGS 1
BLOC_INDEX_SUBTABLES 1
BLOC_INDEX_SUBTABLE_0 "0 257 3 1 0"
ENDPROPERTIES
CHARS 244
STARTCHAR g0
ENCODING -1
SWIDTH 786 0
DWIDTH 11 0
BBX 9 11 0 0
BITMAP
FF80
8080
8080
8080
8080
8080
8080
8080
8080
8080
FF80
ENDCHAR
STARTCHAR g1
ENCODING 0
SWIDTH 0 0
DWIDTH 0 0
BBX 0 0 0 0
BITMAP
ENDCHAR
STARTCHAR g2
ENCODING 1
SWIDTH 286 0
DWIDTH 4 0
BBX 0 0 0 0
BITMAP
ENDCHAR
STARTCHAR g3
ENCODING 2
SWIDTH 214 0
DWIDTH 3 0
BBX 1 11 1 0
BITMAP
80
80
80
80
80
80
80
80
00
80
80
ENDCHAR
STARTCHAR g4
ENCODING 3
SWIDTH 357 0
DWIDTH 5 0
BBX 3 4 1 8
BITMAP
A0
A0
A0
A0
ENDCHAR
STARTCHAR g5
ENCODING 4
SWIDTH 786 0
DWIDTH 11 0
BBX 9 10 1 0
BITMAP
0900
0900
1200
7F80
1200
2400
FF00
2400
4800
4800
ENDCHAR
STARTCHAR g6
ENCODING 5
SWIDTH 643 0
DWIDTH 9 0
BBX 7 13 1 -1
BITMAP
10
7E
90
90
90
70
1C
12
12
12
12
FC
10
ENDCHAR
STARTCHAR g7
ENCODING 6
SWIDTH 857 0
DWIDTH 12 0
BBX 10 11 1 0
BITMAP
6080
9080
9100
9200
6400
0400
0980
1240
2240
4240
4180
ENDCHAR
STARTCHAR g8
ENCODING 7
SWIDTH 786 0
DWIDTH 11 0
BBX 9 11 1 0
BITMAP
3800
4400
4400
4800
3000
3000
4880
8500
8200
8500
7880
ENDCHAR
STARTCHAR g9
ENCODING 8
SWIDTH 214 0
DWIDTH 3 0
BBX 1 4 1 8
BITMAP
80
80
80
80
ENDCHAR
STARTCHAR g10
ENCODING 9
SWIDTH 357 0
DWIDTH 5 0
BBX 3 14 1 -2
BITMAP
20
40
40
80
80
80
80
80
80
80
80
40
40
20
ENDCHAR
STARTCHAR g11
ENCODING 10
SWIDTH 357 0
DWIDTH 5 0
BBX 3 14 1 -2
BITMAP
80
40
40
20
20
20
20
20
20
20
20
40
40
80
ENDCHAR
STARTCHAR g12
ENCODING 11
SWIDTH 500 0
DWIDTH 7 0
BBX 5 5 1 6
BITMAP
50
20
F8
20
50
ENDCHAR
STARTCHAR g13
ENCODING 12
SWIDTH 643 0
DWIDTH 9 0
BBX 7 7 1 1
BITMAP
10
10
10
FE
10
10
10
ENDCHAR
STARTCHAR g14
ENCODING 44
SWIDTH 214 0
DWIDTH 3 0
BBX 2 3 0 -1
BITMAP
40
40
80
ENDCHAR
STARTCHAR g15
ENCODING 45
SWIDTH 500 0
DWIDTH 7 0
BBX 5 1 1 5
BITMAP
F8
ENDCHAR
STARTCHAR g16
ENCODING 46
SWIDTH 214 0
DWIDTH 3 0
BBX 1 2 1 0
BITMAP
80
80
ENDCHAR
STARTCHAR g17
ENCODING 47
SWIDTH 429 0
DWIDTH 6 0
BBX 6 12 0 -1
BITMAP
04
04
08
08
10
10
20
20
40
40
80
80
ENDCHAR
STARTCHAR g18
ENCODING 48
SWIDTH 643 0
DWIDTH 9 0
BBX 7 11 1 0
BITMAP
38
44
82
82
82
82
82
82
82
44
38
ENDCHAR
STARTCHAR g19
ENCODING 49
SWIDTH 643 0
DWIDTH 9 0
BBX 4 11 2 0
BITMAP
10
30
50
90
10
10
10
10
10
10
10
ENDCHAR
STARTCHAR g20
ENCODING 50
SWIDTH 643 0
DWIDTH 9 0
BBX 7 11 1 0
BITMAP
78
84
02
02
04
08
10
20
40
80
FE
ENDCHAR
STARTCHAR g21
ENCODING 51
SWIDTH 643 0
DWIDTH 9 0
BBX 7 11 1 0
BITMAP
78
84
02
02
04
38
04
02
02
84
78
ENDCHAR
STARTCHAR g22
ENCODING 52
SWIDTH 643 0
DWIDTH 9 0
BBX 7 11 1 0
BITMAP
04
0C
14
24
44
84
FE
04
04
04
04
ENDCHAR
STARTCHAR g23
ENCODING 53
SWIDTH 643 0
DWIDTH 9 0
BBX 7 11 1 0
BITMAP
FC
80
80
80
F8
04
02
02
02
84
78
ENDCHAR
STARTCHAR g24
ENCODING 54
SWIDTH 643 0
DWIDTH 9 0
BBX 7 11 1 0
BITMAP
38
40
80
80
B8
C4
82
82
82
44
38
ENDCHAR
STARTCHAR g25
ENCODING 55
SWIDTH 643 0
DWIDTH 9 0
BBX 7 11 1 0
BITMAP
FE
02
02
04
08
08
08
10
10
10
10
ENDCHAR
STARTCHAR g26
ENCODING 56
SWIDTH 643 0
DWIDTH 9 0
BBX 7 11 1 0
BITMAP
38
44
82
82
44
38
44
82
82
44
38
ENDCHAR
STARTCHAR g27
ENCODING 57
SWIDTH 643 0
DWIDTH 9 0
BBX 7 11 1 0
BITMAP
38
44
82
82
82
46
3A
02
02
04
38
ENDCHAR
STARTCHAR g28
ENCODING 58
SWIDTH 214 0
DWIDTH 3 0
BBX 1 8 1 0
BITMAP
80
80
00
00
00
00
80
80
ENDCHAR
STARTCHAR g29
ENCODING 59
SWIDTH 214 0
DWIDTH 3 0
BBX 2 9 0 -1
BITMAP
40
40
00
00
00
00
40
40
80
ENDCHAR
STARTCHAR g30
ENCODING 60
SWIDTH 643 0
DWIDTH 9 0
BBX 7 7 1 1
BITMAP
02
0C
30
C0
30
0C
02
ENDCHAR
STARTCHAR g31
ENCODING 61
SWIDTH 714 0
DWIDTH 10 0
BBX 8 4 1 2
BITMAP
FF
00
00
FF
ENDCHAR
STARTCHAR g32
ENCODING 62
SWIDTH 643 0
DWIDTH 9 0
BBX 7 7 1 1
BITMAP
80
60
18
06
18
60
80
ENDCHAR
STARTCHAR g33
ENCODING 63
SWIDTH 500 0
DWIDTH 7 0
BBX 5 11 1 0
BITMAP
F0
08
08
08
10
20
40
40
00
40
40
ENDCHAR
STARTCHAR g34
ENCODING 64
SWIDTH 786 0
DWIDTH 11 0
BBX 9 8 1 0
BITMAP
3E00
4100
9880
A480
A480
9B00
4000
3C00
ENDCHAR
STARTCHAR g35
ENCODING 65
SWIDTH 643 0
DWIDTH 9 0
BBX 9 11 0 0
BITMAP
0800
0800
1400
1400
2200
2200
4100
7F00
4100
8080
8080
ENDCHAR
STARTCHAR g36
ENCODING 66
SWIDTH 643 0
DWIDTH 9 0
BBX 7 11 1 0
BITMAP
F8
84
84
84
F8
84
82
82
82
84
F8
ENDCHAR
STARTCHAR g37
ENCODING 67
SWIDTH 714 0
DWIDTH 10 0
BBX 8 11 1 0
BITMAP
1F
20
40
80
80
80
80
80
40
20
1F
ENDCHAR
STARTCHAR g38
ENCODING 68
SWIDTH 714 0
DWIDTH 10 0
BBX 8 11 1 0
BITMAP
F8
84
82
81
81
81
81
81
82
84
F8
ENDCHAR
STARTCHAR g39
ENCODING 69
SWIDTH 571 0
DWIDTH 8 0
BBX 6 11 1 0
BITMAP
FC
80
80
80
80
F8
80
80
80
80
FC
ENDCHAR
STARTCHAR g40
ENCODING 70
SWIDTH 500 0
DWIDTH 7 0
BBX 6 11 1 0
BITMAP
FC
80
80
80
80
F0
80
80
80
80
80
ENDCHAR
STARTCHAR g41
ENCODING 71
SWIDTH 786 0
DWIDTH 11 0
BBX 9 11 1 0
BITMAP
1F00
2000
4000
8000
8000
8780
8080
8080
4080
2100
1E00
ENDCHAR
STARTCHAR g42
ENCODING 72
SWIDTH 714 0
DWIDTH 10 0
BBX 8 11 1 0
BITMAP
81
81
81
81
81
FF
81
81
81
81
81
ENDCHAR
STARTCHAR g43
ENCODING 73
SWIDTH 214 0
DWIDTH 3 0
BBX 1 11 1 0
BITMAP
80
80
80
80
80
80
80
80
80
80
80
ENDCHAR
STARTCHAR g44
ENCODING 74
SWIDTH 500 0
DWIDTH 7 0
BBX 5 11 1 0
BITMAP
08
08
08
08
08
08
08
08
08
08
F0
ENDCHAR
STARTCHAR g45
ENCODING 75
SWIDTH 643 0
DWIDTH 9 0
BBX 8 11 1 0
BITMAP
82
84
88
90
A0
E0
90
88
84
82
81
ENDCHAR
STARTCHAR g46
ENCODING 76
SWIDTH 571 0
DWIDTH 8 0
BBX 7 11 1 0
BITMAP
80
80
80
80
80
80
80
80
80
80
FE
ENDCHAR
STARTCHAR g47
ENCODING 77
SWIDTH 929 0
DWIDTH 13 0
BBX 11 11 1 0
BITMAP
C060
C060
A0A0
A0A0
9120
9120
8A20
8A20
8420
8420
8420
ENDCHAR
STARTCHAR g48
ENCODING 78
SWIDTH 714 0
DWIDTH 10 0
BBX 8 11 1 0
BITMAP
C1
C1
A1
A1
91
99
89
85
85
83
83
ENDCHAR
STARTCHAR g49
ENCODING 79
SWIDTH 857 0
DWIDTH 12 0
BBX 10 11 1 0
BITMAP
1E00
2100
4080
8040
8040
8040
8040
8040
4080
2100
1E00
ENDCHAR
STARTCHAR g50
ENCODING 80
SWIDTH 643 0
DWIDTH 9 0
BBX 7 11 1 0
BITMAP
F8
84
82
82
82
84
F8
80
80
80
80
ENDCHAR
STARTCHAR g51
ENCODING 81
SWIDTH 857 0
DWIDTH 12 0
BBX 10 13 1 -2
BITMAP
1E00
2100
4080
8040
8040
8040
8040
8040
4080
2100
1E00
0200
0180
ENDCHAR
STARTCHAR g52
ENCODING 82
SWIDTH 643 0
DWIDTH 9 0
BBX 7 11 1 0
BITMAP
F8
84
82
82
82
84
F8
88
84
82
82
ENDCHAR
STARTCHAR g53
ENCODING 83
SWIDTH 643 0
DWIDTH 9 0
BBX 7 11 1 0
BITMAP
3E
40
80
80
60
18
04
02
02
04
F8
ENDCHAR
STARTCHAR g54
ENCODING 84
SWIDTH 643 0
DWIDTH 9 0
BBX 9 11 0 0
BITMAP
FF80
0800
0800
0800
0800
0800
0800
0800
0800
0800
0800
ENDCHAR
STARTCHAR g55
ENCODING 85
SWIDTH 714 0
DWIDTH 10 0
BBX 8 11 1 0
BITMAP
81
81
81
81
81
81
81
81
81
42
3C
ENDCHAR
STARTCHAR g56
ENCODING 86
SWIDTH 714 0
DWIDTH 10 0
BBX 9 11 1 0
BITMAP
8080
8080
8080
4100
4100
2200
2200
1400
1400
0800
0800
ENDCHAR
STARTCHAR g57
ENCODING 87
SWIDTH 1000 0
DWIDTH 14 0
BBX 13 11 1 0
BITMAP
8208
8208
8208
4510
4510
4510
28A0
28A0
28A0
1040
1040
ENDCHAR
STARTCHAR g58
ENCODING 88
SWIDTH 714 0
DWIDTH 10 0
BBX 8 11 1 0
BITMAP
81
81
42
24
24
18
24
24
42
81
81
ENDCHAR
STARTCHAR g59
ENCODING 89
SWIDTH 714 0
DWIDTH 10 0
BBX 9 11 1 0
BITMAP
8080
8080
4100
2200
2200
1400
0800
0800
0800
0800
0800
ENDCHAR
STARTCHAR g60
ENCODING 90
SWIDTH 643 0
DWIDTH 9 0
BBX 7 11 1 0
BITMAP
FE
02
04
08
08
10
20
20
40
80
FE
ENDCHAR
STARTCHAR g61
ENCODING 91
SWIDTH 286 0
DWIDTH 4 0
BBX 2 14 1 -2
BITMAP
C0
80
80
80
80
80
80
80
80
80
80
80
80
C0
ENDCHAR
STARTCHAR g62
ENCODING 92
SWIDTH 429 0
DWIDTH 6 0
BBX 6 12 0 -1
BITMAP
80
80
40
40
20
20
10
10
08
08
04
04
ENDCHAR
STARTCHAR g63
ENCODING 93
SWIDTH 286 0
DWIDTH 4 0
BBX 2 14 1 -2
BITMAP
C0
40
40
40
40
40
40
40
40
40
40
40
40
C0
ENDCHAR
STARTCHAR g64
ENCODING 94
SWIDTH 500 0
DWIDTH 7 0
BBX 5 6 1 5
BITMAP
20
20
50
50
88
88
ENDCHAR
STARTCHAR g65
ENCODING 95
SWIDTH 500 0
DWIDTH 7 0
BBX 7 1 0 -1
BITMAP
FE
ENDCHAR
STARTCHAR g66
ENCODING 96
SWIDTH 357 0
DWIDTH 5 0
BBX 3 2 1 10
BITMAP
C0
20
ENDCHAR
STARTCHAR g67
ENCODING 97
SWIDTH 571 0
DWIDTH 8 0
BBX 6 8 1 0
BITMAP
78
04
04
7C
84
84
8C
74
ENDCHAR
STARTCHAR g68
ENCODING 98
SWIDTH 643 0
DWIDTH 9 0
BBX 7 11 1 0
BITMAP
80
80
80
BC
C2
82
82
82
82
84
F8
ENDCHAR
STARTCHAR g69
ENCODING 99
SWIDTH 571 0
DWIDTH 8 0
BBX 6 8 1 0
BITMAP
3C
40
80
80
80
80
40
3C
ENDCHAR
STARTCHAR g70
ENCODING 100
SWIDTH 643 0
DWIDTH 9 0
BBX 7 11 1 0
BITMAP
02
02
02
3E
42
82
82
82
82
86
7A
ENDCHAR
STARTCHAR g71
ENCODING 101
SWIDTH 643 0
DWIDTH 9 0
BBX 7 8 1 0
BITMAP
3C
42
82
FE
80
80
40
3E
ENDCHAR
STARTCHAR g72
ENCODING 102
SWIDTH 429 0
DWIDTH 6 0
BBX 5 11 1 0
BITMAP
38
40
40
F0
40
40
40
40
40
40
40
ENDCHAR
STARTCHAR g73
ENCODING 103
SWIDTH 643 0
DWIDTH 9 0
BBX 7 11 1 -3
BITMAP
3E
42
82
82
82
82
86
7A
02
04
78
ENDCHAR
STARTCHAR g74
ENCODING 104
SWIDTH 571 0
DWIDTH 8 0
BBX 6 11 1 0
BITMAP
80
80
80
B8
C4
84
84
84
84
84
84
ENDCHAR
STARTCHAR g75
ENCODING 105
SWIDTH 214 0
DWIDTH 3 0
BBX 1 10 1 0
BITMAP
80
00
80
80
80
80
80
80
80
80
ENDCHAR
STARTCHAR g76
ENCODING 106
SWIDTH 214 0
DWIDTH 3 0
BBX 3 13 -1 -3
BITMAP
20
00
20
20
20
20
20
20
20
20
20
20
C0
ENDCHAR
STARTCHAR g77
ENCODING 107
SWIDTH 571 0
DWIDTH 8 0
BBX 7 11 1 0
BITMAP
80
80
80
8C
90
A0
E0
90
88
84
82
ENDCHAR
STARTCHAR g78
ENCODING 108
SWIDTH 214 0
DWIDTH 3 0
BBX 1 11 1 0
BITMAP
80
80
80
80
80
80
80
80
80
80
80
ENDCHAR
STARTCHAR g79
ENCODING 109
SWIDTH 929 0
DWIDTH 13 0
BBX 11 8 1 0
BITMAP
B9C0
C620
8420
8420
8420
8420
8420
8420
ENDCHAR
STARTCHAR g80
ENCODING 110
SWIDTH 571 0
DWIDTH 8 0
BBX 6 8 1 0
BITMAP
B8
C4
84
84
84
84
84
84
ENDCHAR
STARTCHAR g81
ENCODING 111
SWIDTH 643 0
DWIDTH 9 0
BBX 7 8 1 0
BITMAP
38
44
82
82
82
82
44
38
ENDCHAR
STARTCHAR g82
ENCODING 112
SWIDTH 643 0
DWIDTH 9 0
BBX 7 11 1 -3
BITMAP
B8
C4
82
82
82
82
84
F8
80
80
80
ENDCHAR
STARTCHAR g83
ENCODING 113
SWIDTH 643 0
DWIDTH 9 0
BBX 7 11 1 -3
BITMAP
3E
42
82
82
82
82
46
3A
02
02
02
ENDCHAR
STARTCHAR g84
ENCODING 114
SWIDTH 429 0
DWIDTH 6 0
BBX 5 8 1 0
BITMAP
B8
C0
80
80
80
80
80
80
ENDCHAR
STARTCHAR g85
ENCODING 115
SWIDTH 571 0
DWIDTH 8 0
BBX 6 8 1 0
BITMAP
7C
80
80
60
18
04
04
F8
ENDCHAR
STARTCHAR g86
ENCODING 116
SWIDTH 429 0
DWIDTH 6 0
BBX 5 10 1 0
BITMAP
40
40
F8
40
40
40
40
40
40
38
ENDCHAR
STARTCHAR g87
ENCODING 117
SWIDTH 571 0
DWIDTH 8 0
BBX 6 8 1 0
BITMAP
84
84
84
84
84
84
8C
74
ENDCHAR
STARTCHAR g88
ENCODING 118
SWIDTH 571 0
DWIDTH 8 0
BBX 7 8 1 0
BITMAP
82
82
44
44
28
28
10
10
ENDCHAR
STARTCHAR g89
ENCODING 119
SWIDTH 857 0
DWIDTH 12 0
BBX 11 8 1 0
BITMAP
8420
8420
8A20
4A40
5140
5140
2080
2080
ENDCHAR
STARTCHAR g90
ENCODING 120
SWIDTH 571 0
DWIDTH 8 0
BBX 7 8 1 0
BITMAP
82
44
28
10
28
44
82
82
ENDCHAR
STARTCHAR g91
ENCODING 121
SWIDTH 571 0
DWIDTH 8 0
BBX 8 11 0 -3
BITMAP
41
41
22
22
14
14
08
08
10
20
C0
ENDCHAR
STARTCHAR g92
ENCODING 122
SWIDTH 571 0
DWIDTH 8 0
BBX 6 8 1 0
BITMAP
FC
04
08
10
20
40
80
FC
ENDCHAR
STARTCHAR g93
ENCODING 123
SWIDTH 357 0
DWIDTH 5 0
BBX 3 14 1 -2
BITMAP
20
40
40
40
40
40
80
40
40
40
40
40
40
20
ENDCHAR
STARTCHAR g94
ENCODING 124
SWIDTH 357 0
DWIDTH 5 0
BBX 1 15 2 -2
BITMAP
80
80
80
80
80
80
80
00
80
80
80
80
80
80
80
ENDCHAR
STARTCHAR g95
ENCODING 125
SWIDTH 357 0
DWIDTH 5 0
BBX 3 14 1 -2
BITMAP
80
40
40
40
40
40
20
40
40
40
40
40
40
80
ENDCHAR
STARTCHAR g96
ENCODING 126
SWIDTH 643 0
DWIDTH 9 0
BBX 7 3 1 5
BITMAP
62
92
8C
ENDCHAR
STARTCHAR g97
ENCODING 127
SWIDTH 643 0
DWIDTH 9 0
BBX 0 0 0 0
BITMAP
ENDCHAR
STARTCHAR g98
ENCODING 161
SWIDTH 214 0
DWIDTH 3 0
BBX 1 11 1 -3
BITMAP
80
80
00
80
80
80
80
80
80
80
80
ENDCHAR
STARTCHAR g99
ENCODING 162
SWIDTH 571 0
DWIDTH 8 0
BBX 6 10 1 -1
BITMAP
10
3C
50
90
90
90
90
50
3C
10
ENDCHAR
STARTCHAR g100
ENCODING 163
SWIDTH 643 0
DWIDTH 9 0
BBX 7 11 1 0
BITMAP
3C
40
40
40
F8
40
40
40
40
40
FE
ENDCHAR
STARTCHAR g101
ENCODING 164
SWIDTH 714 0
DWIDTH 10 0
BBX 8 8 1 0
BITMAP
BD
42
81
81
81
81
42
BD
ENDCHAR
STARTCHAR g102
ENCODING 165
SWIDTH 643 0
DWIDTH 9 0
BBX 9 11 0 0
BITMAP
8080
8080
4100
2200
2200
1400
7F00
0800
7F00
0800
0800
ENDCHAR
STARTCHAR g103
ENCODING 167
SWIDTH 643 0
DWIDTH 9 0
BBX 7 11 1 0
BITMAP
7C
82
80
60
98
44
32
0C
02
82
7C
ENDCHAR
STARTCHAR g104
ENCODING 168
SWIDTH 429 0
DWIDTH 6 0
BBX 4 1 1 8
BITMAP
90
ENDCHAR
STARTCHAR g105
ENCODING 169
SWIDTH 714 0
DWIDTH 10 0
BBX 8 8 1 0
BITMAP
3C
42
99
A1
A1
99
42
3C
ENDCHAR
STARTCHAR g106
ENCODING 170
SWIDTH 500 0
DWIDTH 7 0
BBX 5 6 1 5
BITMAP
70
88
98
68
00
F8
ENDCHAR
STARTCHAR g107
ENCODING 171
SWIDTH 643 0
DWIDTH 9 0
BBX 7 7 1 1
BITMAP
12
24
48
90
48
24
12
ENDCHAR
STARTCHAR g108
ENCODING 172
SWIDTH 714 0
DWIDTH 10 0
BBX 8 4 1 2
BITMAP
FF
01
01
01
ENDCHAR
STARTCHAR g109
ENCODING 174
SWIDTH 714 0
DWIDTH 10 0
BBX 8 8 1 0
BITMAP
3C
42
B9
A5
B9
A5
42
3C
ENDCHAR
STARTCHAR g110
ENCODING 175
SWIDTH 429 0
DWIDTH 6 0
BBX 4 1 1 10
BITMAP
F0
ENDCHAR
STARTCHAR g111
ENCODING 176
SWIDTH 429 0
DWIDTH 6 0
BBX 4 4 1 7
BITMAP
60
90
90
60
ENDCHAR
STARTCHAR g112
ENCODING 177
SWIDTH 643 0
DWIDTH 9 0
BBX 7 7 1 1
BITMAP
10
10
FE
10
10
00
FE
ENDCHAR
STARTCHAR g113
ENCODING 180
SWIDTH 357 0
DWIDTH 5 0
BBX 3 2 1 8
BITMAP
60
80
ENDCHAR
STARTCHAR g114
ENCODING 181
SWIDTH 571 0
DWIDTH 8 0
BBX 6 11 1 -3
BITMAP
84
84
84
84
84
84
8C
F4
80
80
80
ENDCHAR
STARTCHAR g115
ENCODING 182
SWIDTH 643 0
DWIDTH 9 0
BBX 7 11 1 0
BITMAP
7E
F2
F2
F2
F2
72
12
12
12
12
12
ENDCHAR
STARTCHAR g116
ENCODING 183
SWIDTH 214 0
DWIDTH 3 0
BBX 1 2 1 4
BITMAP
80
80
ENDCHAR
STARTCHAR g117
ENCODING 184
SWIDTH 357 0
DWIDTH 5 0
BBX 3 4 1 -3
BITMAP
40
40
20
C0
ENDCHAR
STARTCHAR g118
ENCODING 186
SWIDTH 500 0
DWIDTH 7 0
BBX 5 6 1 5
BITMAP
70
88
88
70
00
F8
ENDCHAR
STARTCHAR g119
ENCODING 187
SWIDTH 643 0
DWIDTH 9 0
BBX 7 7 1 1
BITMAP
90
48
24
12
24
48
90
ENDCHAR
STARTCHAR g120
ENCODING 191
SWIDTH 500 0
DWIDTH 7 0
BBX 5 11 1 -3
BITMAP
10
10
00
10
10
20
40
80
80
80
78
ENDCHAR
STARTCHAR g121
ENCODING 192
SWIDTH 643 0
DWIDTH 9 0
BBX 9 14 0 0
BITMAP
1800
0400
0000
0800
0800
1400
1400
2200
2200
4100
7F00
4100
8080
8080
ENDCHAR
STARTCHAR g122
ENCODING 193
SWIDTH 643 0
DWIDTH 9 0
BBX 9 14 0 0
BITMAP
0C00
1000
0000
0800
0800
1400
1400
2200
2200
4100
7F00
4100
8080
8080
ENDCHAR
STARTCHAR g123
ENCODING 194
SWIDTH 643 0
DWIDTH 9 0
BBX 9 14 0 0
BITMAP
0C00
1200
0000
0800
0800
1400
1400
2200
2200
4100
7F00
4100
8080
8080
ENDCHAR
STARTCHAR g124
ENCODING 195
SWIDTH 643 0
DWIDTH 9 0
BBX 9 14 0 0
BITMAP
1900
2600
0000
0800
0800
1400
1400
2200
2200
4100
7F00
4100
8080
8080
ENDCHAR
STARTCHAR g125
ENCODING 196
SWIDTH 643 0
DWIDTH 9 0
BBX 9 13 0 0
BITMAP
1200
0000
0800
0800
1400
1400
2200
2200
4100
7F00
4100
8080
8080
ENDCHAR
STARTCHAR g126
ENCODING 197
SWIDTH 643 0
DWIDTH 9 0
BBX 9 14 0 0
BITMAP
0C00
1200
0C00
0800
0800
1400
1400
2200
2200
4100
7F00
4100
8080
8080
ENDCHAR
STARTCHAR g127
ENCODING 198
SWIDTH 1000 0
DWIDTH 14 0
BBX 13 11 0 0
BITMAP
07F8
0500
0900
0900
1100
11F0
3F00
2100
4100
4100
81F8
ENDCHAR
STARTCHAR g128
ENCODING 199
SWIDTH 714 0
DWIDTH 10 0
BBX 8 14 1 -3
BITMAP
1F
20
40
80
80
80
80
80
40
20
1F
04
02
0C
ENDCHAR
STARTCHAR g129
ENCODING 200
SWIDTH 571 0
DWIDTH 8 0
BBX 6 14 1 0
BITMAP
60
10
00
FC
80
80
80
80
F8
80
80
80
80
FC
ENDCHAR
STARTCHAR g130
ENCODING 201
SWIDTH 571 0
DWIDTH 8 0
BBX 6 14 1 0
BITMAP
18
20
00
FC
80
80
80
80
F8
80
80
80
80
FC
ENDCHAR
STARTCHAR g131
ENCODING 202
SWIDTH 571 0
DWIDTH 8 0
BBX 6 14 1 0
BITMAP
30
48
00
FC
80
80
80
80
F8
80
80
80
80
FC
ENDCHAR
STARTCHAR g132
ENCODING 203
SWIDTH 571 0
DWIDTH 8 0
BBX 6 13 1 0
BITMAP
48
00
FC
80
80
80
80
F8
80
80
80
80
FC
ENDCHAR
STARTCHAR g133
ENCODING 204
SWIDTH 214 0
DWIDTH 3 0
BBX 3 14 0 0
BITMAP
C0
20
00
40
40
40
40
40
40
40
40
40
40
40
ENDCHAR
STARTCHAR g134
ENCODING 205
SWIDTH 214 0
DWIDTH 3 0
BBX 3 14 0 0
BITMAP
60
80
00
40
40
40
40
40
40
40
40
40
40
40
ENDCHAR
STARTCHAR g135
ENCODING 206
SWIDTH 214 0
DWIDTH 3 0
BBX 4 14 0 0
BITMAP
60
90
00
40
40
40
40
40
40
40
40
40
40
40
ENDCHAR
STARTCHAR g136
ENCODING 207
SWIDTH 214 0
DWIDTH 3 0
BBX 3 13 0 0
BITMAP
A0
00
40
40
40
40
40
40
40
40
40
40
40
ENDCHAR
STARTCHAR g137
ENCODING 209
SWIDTH 714 0
DWIDTH 10 0
BBX 8 14 1 0
BITMAP
32
4C
00
C1
C1
A1
A1
91
99
89
85
85
83
83
ENDCHAR
STARTCHAR g138
ENCODING 210
SWIDTH 857 0
DWIDTH 12 0
BBX 10 14 1 0
BITMAP
1800
0400
0000
1E00
2100
4080
8040
8040
8040
8040
8040
4080
2100
1E00
ENDCHAR
STARTCHAR g139
ENCODING 211
SWIDTH 857 0
DWIDTH 12 0
BBX 10 14 1 0
BITMAP
0600
0800
0000
1E00
2100
4080
8040
8040
8040
8040
8040
4080
2100
1E00
ENDCHAR
STARTCHAR g140
ENCODING 212
SWIDTH 857 0
DWIDTH 12 0
BBX 10 14 1 0
BITMAP
0C00
1200
0000
1E00
2100
4080
8040
8040
8040
8040
8040
4080
2100
1E00
ENDCHAR
STARTCHAR g141
ENCODING 213
SWIDTH 857 0
DWIDTH 12 0
BBX 10 14 1 0
BITMAP
1900
2600
0000
1E00
2100
4080
8040
8040
8040
8040
8040
4080
2100
1E00
ENDCHAR
STARTCHAR g142
ENCODING 214
SWIDTH 857 0
DWIDTH 12 0
BBX 10 13 1 0
BITMAP
1200
0000
1E00
2100
4080
8040
8040
8040
8040
8040
4080
2100
1E00
ENDCHAR
STARTCHAR g143
ENCODING 216
SWIDTH 857 0
DWIDTH 12 0
BBX 10 11 1 0
BITMAP
1E40
2180
4180
8240
8440
8440
8840
9040
6080
6100
9E00
ENDCHAR
STARTCHAR g144
ENCODING 217
SWIDTH 714 0
DWIDTH 10 0
BBX 8 14 1 0
BITMAP
30
08
00
81
81
81
81
81
81
81
81
81
42
3C
ENDCHAR
STARTCHAR g145
ENCODING 218
SWIDTH 714 0
DWIDTH 10 0
BBX 8 14 1 0
BITMAP
0C
10
00
81
81
81
81
81
81
81
81
81
42
3C
ENDCHAR
STARTCHAR g146
ENCODING 219
SWIDTH 714 0
DWIDTH 10 0
BBX 8 14 1 0
BITMAP
18
24
00
81
81
81
81
81
81
81
81
81
42
3C
ENDCHAR
STARTCHAR g147
ENCODING 220
SWIDTH 714 0
DWIDTH 10 0
BBX 8 13 1 0
BITMAP
24
00
81
81
81
81
81
81
81
81
81
42
3C
ENDCHAR
STARTCHAR g148
ENCODING 223
SWIDTH 643 0
DWIDTH 9 0
BBX 8 11 1 0
BITMAP
78
84
84
84
88
9C
82
81
81
82
BC
ENDCHAR
STARTCHAR g149
ENCODING 224
SWIDTH 571 0
DWIDTH 8 0
BBX 6 11 1 0
BITMAP
60
10
00
78
04
04
7C
84
84
8C
74
ENDCHAR
STARTCHAR g150
ENCODING 225
SWIDTH 571 0
DWIDTH 8 0
BBX 6 11 1 0
BITMAP
18
20
00
78
04
04
7C
84
84
8C
74
ENDCHAR
STARTCHAR g151
ENCODING 226
SWIDTH 571 0
DWIDTH 8 0
BBX 6 11 1 0
BITMAP
30
48
00
78
04
04
7C
84
84
8C
74
ENDCHAR
STARTCHAR g152
ENCODING 227
SWIDTH 571 0
DWIDTH 8 0
BBX 6 11 1 0
BITMAP
64
98
00
78
04
04
7C
84
84
8C
74
ENDCHAR
STARTCHAR g153
ENCODING 228
SWIDTH 571 0
DWIDTH 8 0
BBX 6 10 1 0
BITMAP
48
00
78
04
04
7C
84
84
8C
74
ENDCHAR
STARTCHAR g154
ENCODING 229
SWIDTH 571 0
DWIDTH 8 0
BBX 6 12 1 0
BITMAP
30
48
30
00
78
04
04
7C
84
84
8C
74
ENDCHAR
STARTCHAR g155
ENCODING 230
SWIDTH 1000 0
DWIDTH 14 0
BBX 12 8 1 0
BITMAP
79C0
0620
0410
7FF0
8400
8400
8E00
75F0
ENDCHAR
STARTCHAR g156
ENCODING 231
SWIDTH 571 0
DWIDTH 8 0
BBX 6 11 1 -3
BITMAP
3C
40
80
80
80
80
40
3C
10
08
30
ENDCHAR
STARTCHAR g157
ENCODING 232
SWIDTH 643 0
DWIDTH 9 0
BBX 7 11 1 0
BITMAP
30
08
00
3C
42
82
FE
80
80
40
3E
ENDCHAR
STARTCHAR g158
ENCODING 233
SWIDTH 643 0
DWIDTH 9 0
BBX 7 11 1 0
BITMAP
0C
10
00
3C
42
82
FE
80
80
40
3E
ENDCHAR
STARTCHAR g159
ENCODING 234
SWIDTH 643 0
DWIDTH 9 0
BBX 7 11 1 0
BITMAP
18
24
00
3C
42
82
FE
80
80
40
3E
ENDCHAR
STARTCHAR g160
ENCODING 235
SWIDTH 643 0
DWIDTH 9 0
BBX 7 10 1 0
BITMAP
24
00
3C
42
82
FE
80
80
40
3E
ENDCHAR
STARTCHAR g161
ENCODING 236
SWIDTH 214 0
DWIDTH 3 0
BBX 3 11 0 0
BITMAP
C0
20
00
40
40
40
40
40
40
40
40
ENDCHAR
STARTCHAR g162
ENCODING 237
SWIDTH 214 0
DWIDTH 3 0
BBX 3 11 0 0
BITMAP
60
80
00
40
40
40
40
40
40
40
40
ENDCHAR
STARTCHAR g163
ENCODING 238
SWIDTH 214 0
DWIDTH 3 0
BBX 4 11 0 0
BITMAP
60
90
00
40
40
40
40
40
40
40
40
ENDCHAR
STARTCHAR g164
ENCODING 239
SWIDTH 214 0
DWIDTH 3 0
BBX 3 10 0 0
BITMAP
A0
00
40
40
40
40
40
40
40
40
ENDCHAR
STARTCHAR g165
ENCODING 241
SWIDTH 571 0
DWIDTH 8 0
BBX 6 11 1 0
BITMAP
64
98
00
B8
C4
84
84
84
84
84
84
ENDCHAR
STARTCHAR g166
ENCODING 242
SWIDTH 643 0
DWIDTH 9 0
BBX 7 11 1 0
BITMAP
30
08
00
38
44
82
82
82
82
44
38
ENDCHAR
STARTCHAR g167
ENCODING 243
SWIDTH 643 0
DWIDTH 9 0
BBX 7 11 1 0
BITMAP
18
20
00
38
44
82
82
82
82
44
38
ENDCHAR
STARTCHAR g168
ENCODING 244
SWIDTH 643 0
DWIDTH 9 0
BBX 7 11 1 0
BITMAP
18
24
00
38
44
82
82
82
82
44
38
ENDCHAR
STARTCHAR g169
ENCODING 245
SWIDTH 643 0
DWIDTH 9 0
BBX 7 11 1 0
BITMAP
32
4C
00
38
44
82
82
82
82
44
38
ENDCHAR
STARTCHAR g170
ENCODING 246
SWIDTH 643 0
DWIDTH 9 0
BBX 7 10 1 0
BITMAP
24
00
38
44
82
82
82
82
44
38
ENDCHAR
STARTCHAR g171
ENCODING 247
SWIDTH 643 0
DWIDTH 9 0
BBX 7 7 1 1
BITMAP
10
10
00
FE
00
10
10
ENDCHAR
STARTCHAR g172
ENCODING 248
SWIDTH 643 0
DWIDTH 9 0
BBX 7 8 1 0
BITMAP
3A
44
8A
92
92
A2
44
B8
ENDCHAR
STARTCHAR g173
ENCODING 249
SWIDTH 571 0
DWIDTH 8 0
BBX 6 11 1 0
BITMAP
60
10
00
84
84
84
84
84
84
8C
74
ENDCHAR
STARTCHAR g174
ENCODING 250
SWIDTH 571 0
DWIDTH 8 0
BBX 6 11 1 0
BITMAP
18
20
00
84
84
84
84
84
84
8C
74
ENDCHAR
STARTCHAR g175
ENCODING 251
SWIDTH 571 0
DWIDTH 8 0
BBX 6 11 1 0
BITMAP
30
48
00
84
84
84
84
84
84
8C
74
ENDCHAR
STARTCHAR g176
ENCODING 252
SWIDTH 571 0
DWIDTH 8 0
BBX 6 10 1 0
BITMAP
48
00
84
84
84
84
84
84
8C
74
ENDCHAR
STARTCHAR g177
ENCODING 255
SWIDTH 571 0
DWIDTH 8 0
BBX 8 13 0 -3
BITMAP
12
00
41
41
22
22
14
14
08
08
10
20
C0
ENDCHAR
STARTCHAR g178
ENCODING 305
SWIDTH 214 0
DWIDTH 3 0
BBX 1 8 1 0
BITMAP
80
80
80
80
80
80
80
80
ENDCHAR
STARTCHAR g179
ENCODING 338
SWIDTH 1000 0
DWIDTH 14 0
BBX 12 11 1 0
BITMAP
1FF0
2200
4200
8200
8200
83E0
8200
8200
4200
2200
1FF0
ENDCHAR
STARTCHAR g180
ENCODING 339
SWIDTH 1071 0
DWIDTH 15 0
BBX 13 8 1 0
BITMAP
38E0
4510
8208
83F8
8200
8200
4500
38F8
ENDCHAR
STARTCHAR g181
ENCODING 376
SWIDTH 714 0
DWIDTH 10 0
BBX 9 13 1 0
BITMAP
1200
0000
8080
8080
4100
2200
2200
1400
0800
0800
0800
0800
0800
ENDCHAR
STARTCHAR g182
ENCODING 402
SWIDTH 571 0
DWIDTH 8 0
BBX 8 13 0 -1
BITMAP
03
04
04
1E
08
08
08
10
10
10
20
20
C0
ENDCHAR
STARTCHAR g183
ENCODING 710
SWIDTH 429 0
DWIDTH 6 0
BBX 4 2 1 9
BITMAP
60
90
ENDCHAR
STARTCHAR g184
ENCODING 711
SWIDTH 357 0
DWIDTH 5 0
BBX 3 2 1 9
BITMAP
A0
40
ENDCHAR
STARTCHAR g185
ENCODING 728
SWIDTH 429 0
DWIDTH 6 0
BBX 4 2 1 9
BITMAP
90
60
ENDCHAR
STARTCHAR g186
ENCODING 729
SWIDTH 214 0
DWIDTH 3 0
BBX 1 2 1 9
BITMAP
80
80
ENDCHAR
STARTCHAR g187
ENCODING 730
SWIDTH 429 0
DWIDTH 6 0
BBX 4 3 1 8
BITMAP
60
90
60
ENDCHAR
STARTCHAR g188
ENCODING 731
SWIDTH 357 0
DWIDTH 5 0
BBX 3 3 1 -3
BITMAP
40
80
60
ENDCHAR
STARTCHAR g189
ENCODING 732
SWIDTH 571 0
DWIDTH 8 0
BBX 6 2 1 9
BITMAP
64
98
ENDCHAR
STARTCHAR g190
ENCODING 733
SWIDTH 429 0
DWIDTH 6 0
BBX 4 2 1 10
BITMAP
50
A0
ENDCHAR
STARTCHAR g191
ENCODING 960
SWIDTH 643 0
DWIDTH 9 0
BBX 7 7 1 0
BITMAP
FE
44
44
44
44
46
C4
ENDCHAR
STARTCHAR g192
ENCODING 8211
SWIDTH 714 0
DWIDTH 10 0
BBX 8 1 1 5
BITMAP
FF
ENDCHAR
STARTCHAR g193
ENCODING 8212
SWIDTH 1000 0
DWIDTH 14 0
BBX 12 1 1 5
BITMAP
FFF0
ENDCHAR
STARTCHAR g194
ENCODING 8216
SWIDTH 286 0
DWIDTH 4 0
BBX 2 3 1 9
BITMAP
40
80
80
ENDCHAR
STARTCHAR g195
ENCODING 8217
SWIDTH 286 0
DWIDTH 4 0
BBX 2 3 1 9
BITMAP
40
40
80
ENDCHAR
STARTCHAR g196
ENCODING 8218
SWIDTH 214 0
DWIDTH 3 0
BBX 2 3 0 -1
BITMAP
40
40
80
ENDCHAR
STARTCHAR g197
ENCODING 8220
SWIDTH 500 0
DWIDTH 7 0
BBX 5 3 1 9
BITMAP
48
90
90
ENDCHAR
STARTCHAR g198
ENCODING 8221
SWIDTH 500 0
DWIDTH 7 0
BBX 5 3 1 9
BITMAP
48
48
90
ENDCHAR
STARTCHAR g199
ENCODING 8222
SWIDTH 429 0
DWIDTH 6 0
BBX 5 3 0 -1
BITMAP
48
48
90
ENDCHAR
STARTCHAR g200
ENCODING 8224
SWIDTH 357 0
DWIDTH 5 0
BBX 3 5 1 7
BITMAP
40
E0
40
40
40
ENDCHAR
STARTCHAR g201
ENCODING 8225
SWIDTH 643 0
DWIDTH 9 0
BBX 7 14 1 -3
BITMAP
10
10
10
FE
10
10
10
10
10
10
FE
10
10
10
ENDCHAR
STARTCHAR g202
ENCODING 8226
SWIDTH 571 0
DWIDTH 8 0
BBX 5 5 1 3
BITMAP
70
F8
F8
F8
70
ENDCHAR
STARTCHAR g203
ENCODING 8230
SWIDTH 786 0
DWIDTH 11 0
BBX 9 2 1 0
BITMAP
8880
8880
ENDCHAR
STARTCHAR g204
ENCODING 8240
SWIDTH 1214 0
DWIDTH 17 0
BBX 15 11 1 0
BITMAP
6080
9080
9100
9200
6400
0400
098C
1252
2252
4252
418C
ENDCHAR
STARTCHAR g205
ENCODING 8249
SWIDTH 429 0
DWIDTH 6 0
BBX 4 7 1 1
BITMAP
10
20
40
80
40
20
10
ENDCHAR
STARTCHAR g206
ENCODING 8250
SWIDTH 429 0
DWIDTH 6 0
BBX 4 7 1 1
BITMAP
80
40
20
10
20
40
80
ENDCHAR
STARTCHAR g207
ENCODING 8260
SWIDTH 429 0
DWIDTH 6 0
BBX 6 12 0 -1
BITMAP
04
04
08
08
10
10
20
20
40
40
80
80
ENDCHAR
STARTCHAR g208
ENCODING 8482
SWIDTH 786 0
DWIDTH 11 0
BBX 9 4 1 8
BITMAP
E880
4D80
4A80
4A80
ENDCHAR
STARTCHAR g209
ENCODING 8486
SWIDTH 857 0
DWIDTH 12 0
BBX 10 11 1 0
BITMAP
1E00
2100
4080
8040
8040
8040
8040
4080
3300
9240
F3C0
ENDCHAR
STARTCHAR g210
ENCODING 8706
SWIDTH 643 0
DWIDTH 9 0
BBX 7 11 1 0
BITMAP
38
04
02
02
3A
46
82
82
82
44
38
ENDCHAR
STARTCHAR g211
ENCODING 8710
SWIDTH 929 0
DWIDTH 13 0
BBX 11 12 1 0
BITMAP
0400
0400
0A00
0A00
1100
1100
2080
2080
4040
4040
8020
FFE0
ENDCHAR
STARTCHAR g212
ENCODING 8719
SWIDTH 786 0
DWIDTH 11 0
BBX 9 12 1 -1
BITMAP
FF80
4100
4100
4100
4100
4100
4100
4100
4100
4100
4100
E380
ENDCHAR
STARTCHAR g213
ENCODING 8721
SWIDTH 643 0
DWIDTH 9 0
BBX 7 12 1 -1
BITMAP
FE
82
40
20
10
08
08
10
20
40
82
FE
ENDCHAR
STARTCHAR g214
ENCODING 8730
SWIDTH 643 0
DWIDTH 9 0
BBX 7 12 1 -1
BITMAP
02
02
02
04
04
C4
48
28
28
30
10
10
ENDCHAR
STARTCHAR g215
ENCODING 8734
SWIDTH 1000 0
DWIDTH 14 0
BBX 12 5 1 2
BITMAP
71E0
8B10
8610
8D10
78E0
ENDCHAR
STARTCHAR g216
ENCODING 8747
SWIDTH 357 0
DWIDTH 5 0
BBX 3 16 1 -3
BITMAP
20
40
40
40
40
40
40
40
40
40
40
40
40
40
40
80
ENDCHAR
STARTCHAR g217
ENCODING 8776
SWIDTH 714 0
DWIDTH 10 0
BBX 8 5 1 2
BITMAP
71
8E
00
71
8E
ENDCHAR
STARTCHAR g218
ENCODING 8800
SWIDTH 714 0
DWIDTH 10 0
BBX 8 8 1 0
BITMAP
02
04
FF
08
10
FF
20
40
ENDCHAR
STARTCHAR g219
ENCODING 8804
SWIDTH 643 0
DWIDTH 9 0
BBX 7 7 1 1
BITMAP
06
38
C0
38
06
00
FE
ENDCHAR
STARTCHAR g220
ENCODING 8805
SWIDTH 643 0
DWIDTH 9 0
BBX 7 7 1 1
BITMAP
C0
38
06
38
C0
00
FE
ENDCHAR
STARTCHAR g221
ENCODING 9674
SWIDTH 786 0
DWIDTH 11 0
BBX 9 13 1 -1
BITMAP
0800
0800
1400
2200
2200
4100
C180
4100
2200
2200
1400
0800
0800
ENDCHAR
STARTCHAR g222
ENCODING 63252
SWIDTH 643 0
DWIDTH 9 0
BBX 7 11 1 0
BITMAP
38
44
82
82
82
92
82
82
82
44
38
ENDCHAR
STARTCHAR g223
ENCODING 63253
SWIDTH 357 0
DWIDTH 5 0
BBX 3 11 1 0
BITMAP
E0
40
40
40
40
40
40
40
40
40
E0
ENDCHAR
STARTCHAR g224
ENCODING 63254
SWIDTH 286 0
DWIDTH 4 0
BBX 3 11 0 0
BITMAP
C0
40
40
40
40
40
40
40
40
40
60
ENDCHAR
STARTCHAR g225
ENCODING 63487
SWIDTH 786 0
DWIDTH 11 0
BBX 0 0 0 0
BITMAP
ENDCHAR
STARTCHAR g226
ENCODING 64257
SWIDTH 571 0
DWIDTH 8 0
BBX 6 11 1 0
BITMAP
3C
40
40
FC
44
44
44
44
44
44
44
ENDCHAR
STARTCHAR g227
ENCODING 64258
SWIDTH 571 0
DWIDTH 8 0
BBX 6 11 1 0
BITMAP
3C
44
44
F4
44
44
44
44
44
44
44
ENDCHAR
STARTCHAR g228
ENCODING 64512
SWIDTH 1071 0
DWIDTH 15 0
BBX 13 9 1 0
BITMAP
3FE0
F8F8
EFB8
0F80
18C0
18C0
3FE0
3FE0
3FE0
ENDCHAR
STARTCHAR g229
ENCODING 64513
SWIDTH 1000 0
DWIDTH 14 0
BBX 10 10 2 0
BITMAP
0C00
1E00
3F00
7F80
FFC0
FFC0
7F80
3F00
1E00
0C00
ENDCHAR
STARTCHAR g230
ENCODING 64514
SWIDTH 1000 0
DWIDTH 14 0
BBX 0 0 0 0
BITMAP
ENDCHAR
STARTCHAR g231
ENCODING 64515
SWIDTH 1000 0
DWIDTH 14 0
BBX 7 7 3 0
BITMAP
02
06
0A
12
22
42
FE
ENDCHAR
STARTCHAR g232
ENCODING 64516
SWIDTH 1000 0
DWIDTH 14 0
BBX 9 7 2 0
BITMAP
0380
7C00
8A00
1100
1100
1100
0E00
ENDCHAR
STARTCHAR g233
ENCODING 64517
SWIDTH 1214 0
DWIDTH 17 0
BBX 15 15 1 -1
BITMAP
07C0
1FF0
3838
739C
638C
C006
C786
C386
C386
C386
67CC
701C
3838
1FF0
07C0
ENDCHAR
STARTCHAR g234
ENCODING 64518
SWIDTH 1000 0
DWIDTH 14 0
BBX 7 7 4 0
BITMAP
80
C0
A0
90
88
84
FE
ENDCHAR
STARTCHAR g235
ENCODING 64519
SWIDTH 1000 0
DWIDTH 14 0
BBX 12 7 1 0
BITMAP
0F00
30C0
4020
8010
8010
8F10
70E0
ENDCHAR
STARTCHAR g236
ENCODING 64520
SWIDTH 857 0
DWIDTH 12 0
BBX 10 10 1 0
BITMAP
6180
9240
9240
7F80
1200
1200
7F80
9240
9240
6180
ENDCHAR
STARTCHAR g237
ENCODING 64521
SWIDTH 786 0
DWIDTH 11 0
BBX 9 11 0 0
BITMAP
FF80
8080
8080
8080
8080
8080
8080
8080
8080
8080
FF80
ENDCHAR
STARTCHAR g238
ENCODING 64522
SWIDTH 786 0
DWIDTH 11 0
BBX 9 11 0 0
BITMAP
FF80
8080
8080
8080
8080
8080
8080
8080
8080
8080
FF80
ENDCHAR
STARTCHAR g239
ENCODING 64523
SWIDTH 786 0
DWIDTH 11 0
BBX 0 0 0 0
BITMAP
ENDCHAR
STARTCHAR g240
ENCODING 64524
SWIDTH 786 0
DWIDTH 11 0
BBX 10 9 0 0
BITMAP
00C0
0180
0300
6600
EE00
3C00
3C00
1800
1000
ENDCHAR
STARTCHAR g241
ENCODING 64525
SWIDTH 786 0
DWIDTH 11 0
BBX 9 11 0 0
BITMAP
FF80
8080
8080
8080
8080
8080
8080
8080
8080
8080
FF80
ENDCHAR
STARTCHAR g242
ENCODING 64526
SWIDTH 786 0
DWIDTH 11 0
BBX 9 11 0 0
BITMAP
FF80
8080
8080
8080
8080
8080
8080
8080
8080
8080
FF80
ENDCHAR
STARTCHAR g243
ENCODING 64527
SWIDTH 786 0
DWIDTH 11 0
BBX 9 11 0 0
BITMAP
FF80
8080
8080
8080
8080
8080
8080
8080
8080
8080
FF80
ENDCHAR
ENDFONT
