STARTFONT 2.1
COMMENT Strike 7 of a Newton 'sfnt' font (bloc/bdat): tools/fonts/newtonsfnt.py,
COMMENT tools/fonts/README.md.  The builder reads the BLOC_* properties and the
COMMENT glyphs - STARTCHAR gN (N the glyph id; otherwise ENCODING through 'cmap'),
COMMENT DWIDTH (the advance), BBX (width, height, the bearing x, the bottom row's
COMMENT y: bearing y less the height) and the BITMAP rows.  A glyph id in the
COMMENT subtable ranges with no glyph here has no image (the missing glyph is 0).
COMMENT The other properties, SIZE, FONTBOUNDINGBOX and SWIDTH are worked out and
COMMENT not read back: change BLOC_HORI_* (the line metrics the ROM draws text by)
COMMENT to match an edit that changes the strike's extent.
FONT -Apple-Roman Regular-Medium-R-Normal--48-480-72-72-P-0-Apple-Roman
SIZE 48 72 72
FONTBOUNDINGBOX 67 55 -5 -11
STARTPROPERTIES 37
FONT_ASCENT 44
FONT_DESCENT 11
PIXEL_SIZE 48
FAMILY_NAME "Roman Regular"
BLOC_COLOR_REF 0
BLOC_HORI_ASCENDER 44
BLOC_HORI_DESCENDER -11
BLOC_HORI_WIDTH_MAX 63
BLOC_HORI_CARET_SLOPE_NUMERATOR 0
BLOC_HORI_CARET_SLOPE_DENOMINATOR 1
BLOC_HORI_CARET_OFFSET 0
BLOC_HORI_MIN_ORIGIN_SB -5
BLOC_HORI_MIN_ADVANCE_SB -6
BLOC_HORI_MAX_BEFORE_BL 44
BLOC_HORI_MIN_AFTER_BL -11
BLOC_HORI_PAD1 0
BLOC_HORI_PAD2 0
BLOC_VERT_ASCENDER 0
BLOC_VERT_DESCENDER 0
BLOC_VERT_WIDTH_MAX 55
BLOC_VERT_CARET_SLOPE_NUMERATOR 0
BLOC_VERT_CARET_SLOPE_DENOMINATOR 1
BLOC_VERT_CARET_OFFSET 0
BLOC_VERT_MIN_ORIGIN_SB 100
BLOC_VERT_MIN_ADVANCE_SB 32
BLOC_VERT_MAX_BEFORE_BL 0
BLOC_VERT_MIN_AFTER_BL 92
BLOC_VERT_PAD1 0
BLOC_VERT_PAD2 0
BLOC_START_GLYPH 0
BLOC_END_GLYPH 257
BLOC_PPEM_X 48
BLOC_PPEM_Y 48
BLOC_BIT_DEPTH 1
BLOC_FLAGS 1
BLOC_INDEX_SUBTABLES 1
BLOC_INDEX_SUBTABLE_0 "0 257 3 1 0"
ENDPROPERTIES
CHARS 244
STARTCHAR g0
ENCODING -1
SWIDTH 458 0
DWIDTH 22 0
BBX 21 32 0 0
BITMAP
FFFFF8
800008
800008
800008
800008
800008
800008
800008
800008
800008
800008
800008
800008
800008
800008
800008
800008
800008
800008
800008
800008
800008
800008
800008
800008
800008
800008
800008
800008
800008
800008
FFFFF8
ENDCHAR
STARTCHAR g1
ENCODING 0
SWIDTH 0 0
DWIDTH 0 0
BBX 0 0 0 0
BITMAP
ENDCHAR
STARTCHAR g2
ENCODING 1
SWIDTH 333 0
DWIDTH 16 0
BBX 0 0 0 0
BITMAP
ENDCHAR
STARTCHAR g3
ENCODING 2
SWIDTH 312 0
DWIDTH 15 0
BBX 5 36 5 0
BITMAP
F8
F8
F8
F8
F8
F8
F8
F8
F8
F8
F8
F8
F8
F8
F8
F8
F8
F8
F8
F8
F8
F8
F8
F8
F8
F8
F8
00
00
00
00
00
F8
F8
F8
F8
ENDCHAR
STARTCHAR g4
ENCODING 3
SWIDTH 500 0
DWIDTH 24 0
BBX 14 15 5 23
BITMAP
F03C
F03C
F03C
F03C
F03C
F03C
F03C
F03C
F03C
F03C
F03C
F03C
F03C
F03C
F03C
ENDCHAR
STARTCHAR g5
ENCODING 4
SWIDTH 667 0
DWIDTH 32 0
BBX 30 36 1 0
BITMAP
000E00F0
000E00E0
001E00E0
001E01E0
001C01E0
001C01C0
003C01C0
003803C0
00380380
00380380
FFFFFFFC
FFFFFFFC
FFFFFFFC
00F00700
00F00F00
00E00F00
00E00E00
01E00E00
01C01E00
01C01C00
03C01C00
03C03C00
03803C00
FFFFFFFC
FFFFFFFC
FFFFFFFC
07007800
07007000
0F007000
0E00F000
0E00E000
0E00E000
1E01E000
1C01E000
1C01C000
3C01C000
ENDCHAR
STARTCHAR g6
ENCODING 5
SWIDTH 667 0
DWIDTH 32 0
BBX 24 44 4 -4
BITMAP
001C00
001C00
001C00
001C00
01FFC0
07FFF8
0FFFFC
1F9CFC
3E1C3E
3C1C3E
7C1C3E
7C1C00
781C00
781C00
7C1C00
7C1C00
7E1C00
3F1C00
3FDC00
1FFC00
07FE00
03FFC0
00FFF0
001FF8
001FFC
001CFE
001C3E
001C1F
001C1F
001C1F
001C0F
F01C1F
F01C1F
F81C1E
FC1C3E
7F1CFC
7FFFFC
3FFFF8
1FFFF0
03FFC0
001C00
001C00
001C00
001C00
ENDCHAR
STARTCHAR g7
ENCODING 6
SWIDTH 896 0
DWIDTH 43 0
BBX 41 36 1 0
BITMAP
03E00001E000
0FF80003C000
1FFC0003C000
3E3E00078000
3C1F000F0000
780F001F0000
780F001E0000
F007803C0000
F00780780000
F00780F80000
F00780F00000
F00781E00000
F00783E00000
F00783C00000
780F07800000
780F0F03E000
3C1F1F0FF800
3E3E1E1FFC00
1FFC3C3E3E00
0FF87C3C1F00
03E078780F00
0000F0780F00
0001F0F00780
0003E0F00780
0003C0F00780
000780F00780
000F80F00780
000F00F00780
001E00F00780
003E00780F00
007C00780F00
0078003C1F00
00F0003E3E00
01F0001FFC00
03E0000FF800
03C00003E000
ENDCHAR
STARTCHAR g8
ENCODING 7
SWIDTH 729 0
DWIDTH 35 0
BBX 31 38 2 -1
BITMAP
001F8000
007FE000
01FFF000
01F0F800
03E07800
03C07800
07C07800
07C07800
07C07800
03E0F800
03E0F000
03F1F000
01F7E000
00FFC000
00FF8000
00FE0000
03FE0078
07FE0078
0FDF0078
1F1F0078
3E0F8078
7C07C078
7C07C0F8
F803E0F0
F801F0F0
F001F0F0
F000F9E0
F0007DE0
F8003FC0
F8003FC0
F8001F80
7C001F80
7E007FC0
3FC1FFE0
1FFFFBF0
0FFFF1F8
07FFC0FC
00FE0002
ENDCHAR
STARTCHAR g9
ENCODING 8
SWIDTH 312 0
DWIDTH 15 0
BBX 5 15 5 23
BITMAP
F8
F8
F8
F8
F8
F8
F8
F8
F8
F8
F8
F8
F8
F8
F8
ENDCHAR
STARTCHAR g10
ENCODING 9
SWIDTH 438 0
DWIDTH 21 0
BBX 14 48 4 -9
BITMAP
003C
0078
00F0
01E0
01E0
03C0
0780
0780
0F00
0F00
1E00
1E00
3E00
3C00
3C00
7C00
7C00
7800
7800
F800
F800
F800
F800
F800
F800
F800
F800
F800
F800
7800
7800
7C00
7C00
3C00
3C00
3E00
1E00
1E00
0F00
0F00
0780
0780
03C0
01E0
01E0
00F0
0078
003C
ENDCHAR
STARTCHAR g11
ENCODING 10
SWIDTH 438 0
DWIDTH 21 0
BBX 14 48 3 -9
BITMAP
F000
7800
3C00
1E00
1F00
0F00
0780
07C0
03C0
03E0
01E0
01F0
01F0
00F8
00F8
00F8
00F8
007C
007C
007C
007C
007C
007C
007C
007C
007C
007C
007C
007C
007C
007C
00F8
00F8
00F8
00F8
01F0
01F0
01E0
03E0
03C0
07C0
0780
0F00
1F00
1E00
3C00
7800
F000
ENDCHAR
STARTCHAR g12
ENCODING 11
SWIDTH 500 0
DWIDTH 24 0
BBX 20 20 2 17
BITMAP
00F000
00F000
00F000
00F000
00F000
C0F030
F0F0F0
FEF7F0
FFFFF0
0FFF00
00F000
01F800
03FC00
039C00
079E00
0F0F00
0F0700
1E0780
0E0300
040200
ENDCHAR
STARTCHAR g13
ENCODING 12
SWIDTH 667 0
DWIDTH 32 0
BBX 26 26 3 0
BITMAP
001E0000
001E0000
001E0000
001E0000
001E0000
001E0000
001E0000
001E0000
001E0000
001E0000
001E0000
FFFFFFC0
FFFFFFC0
FFFFFFC0
FFFFFFC0
001E0000
001E0000
001E0000
001E0000
001E0000
001E0000
001E0000
001E0000
001E0000
001E0000
001E0000
ENDCHAR
STARTCHAR g14
ENCODING 44
SWIDTH 312 0
DWIDTH 15 0
BBX 6 15 4 -9
BITMAP
FC
FC
FC
FC
FC
FC
1C
1C
1C
3C
38
70
F0
E0
C0
ENDCHAR
STARTCHAR g15
ENCODING 45
SWIDTH 375 0
DWIDTH 18 0
BBX 14 4 2 13
BITMAP
FFFC
FFFC
FFFC
FFFC
ENDCHAR
STARTCHAR g16
ENCODING 46
SWIDTH 312 0
DWIDTH 15 0
BBX 6 6 4 0
BITMAP
FC
FC
FC
FC
FC
FC
ENDCHAR
STARTCHAR g17
ENCODING 47
SWIDTH 542 0
DWIDTH 26 0
BBX 24 38 1 -1
BITMAP
00001F
00001E
00003C
00003C
000078
000078
0000F0
0000F0
0001E0
0001E0
0003C0
0003C0
000780
000780
000F00
000F00
001E00
001E00
003C00
003C00
007800
007800
00F000
00F000
01E000
01E000
03C000
03C000
078000
078000
0F0000
0F0000
1E0000
1E0000
3C0000
3C0000
780000
F80000
ENDCHAR
STARTCHAR g18
ENCODING 48
SWIDTH 667 0
DWIDTH 32 0
BBX 26 38 3 -1
BITMAP
003F0000
01FFE000
03FFF000
07C0F800
0F807C00
1F003E00
1E001F00
3C000F00
3C000F00
7C000F80
78000780
78000780
F80007C0
F80007C0
F80007C0
F00003C0
F00003C0
F00003C0
F00003C0
F00003C0
F00003C0
F00003C0
F80007C0
F80007C0
F80007C0
F80007C0
78000780
7C000F80
7C000F80
3C000F00
3E001F00
1F003F00
1F807E00
0FC0FC00
07FFF800
03FFF000
01FFE000
003F0000
ENDCHAR
STARTCHAR g19
ENCODING 49
SWIDTH 667 0
DWIDTH 32 0
BBX 12 36 7 0
BITMAP
03F0
0FF0
3FF0
FFF0
FDF0
F1F0
81F0
01F0
01F0
01F0
01F0
01F0
01F0
01F0
01F0
01F0
01F0
01F0
01F0
01F0
01F0
01F0
01F0
01F0
01F0
01F0
01F0
01F0
01F0
01F0
01F0
01F0
01F0
01F0
01F0
01F0
ENDCHAR
STARTCHAR g20
ENCODING 50
SWIDTH 667 0
DWIDTH 32 0
BBX 24 37 4 0
BITMAP
01FF00
07FFE0
1FFFF0
3F03F8
3E00FC
7C007C
78003E
00003E
00003E
00003E
00003E
00007C
00007C
0000FC
0001F8
0003F0
000FE0
001FC0
003F80
007E00
01FC00
03F800
07E000
0FC000
1F8000
1F0000
3E0000
3C0000
7C0000
780000
780000
F80000
F80000
FFFFFF
FFFFFF
FFFFFF
FFFFFF
ENDCHAR
STARTCHAR g21
ENCODING 51
SWIDTH 667 0
DWIDTH 32 0
BBX 23 38 4 -1
BITMAP
03FE00
0FFFC0
3FFFE0
3E03F0
7C01F8
7800F8
F80078
000078
000078
000078
0000F8
0000F8
0001F0
0003E0
001FE0
07FF80
07FE00
07FF00
07FFC0
0003F0
0001F8
0000F8
00007C
00003C
00003E
00003E
00003E
00003E
00003E
00003C
F0007C
F8007C
F800F8
7E03F8
3FFFF0
3FFFE0
0FFF80
03FE00
ENDCHAR
STARTCHAR g22
ENCODING 52
SWIDTH 667 0
DWIDTH 32 0
BBX 26 36 3 0
BITMAP
00007800
0000F800
0001F800
0003F800
0007F800
0007F800
000F7800
001E7800
003C7800
00787800
00F87800
00F07800
01E07800
03C07800
07C07800
0F807800
0F007800
1E007800
3C007800
7C007800
F8007800
FFFFFFC0
FFFFFFC0
FFFFFFC0
FFFFFFC0
00007800
00007800
00007800
00007800
00007800
00007800
00007800
00007800
00007800
00007800
00007800
ENDCHAR
STARTCHAR g23
ENCODING 53
SWIDTH 667 0
DWIDTH 32 0
BBX 22 37 5 -1
BITMAP
3FFFF8
3FFFF8
3FFFF8
3FFFF8
3C0000
3C0000
3C0000
3C0000
3C0000
3C0000
3C0000
3C0000
3C0000
3C0000
3FFC00
3FFF80
3FFFC0
003FF0
0003F0
0001F8
0000F8
00007C
00007C
00003C
00003C
00003C
00003C
00007C
00007C
000078
F000F8
F801F8
FE07F0
7FFFE0
3FFFC0
0FFF80
03FC00
ENDCHAR
STARTCHAR g24
ENCODING 54
SWIDTH 667 0
DWIDTH 32 0
BBX 25 38 4 -1
BITMAP
003FE000
00FFF800
03FFFC00
07F07E00
0FC01E00
0F801F00
1F000000
1E000000
3E000000
3C000000
7C000000
7C000000
78000000
78000000
F8000000
F81FC000
F87FF000
F9FFF800
FBC0FC00
FF807E00
FF003E00
FE001F00
FE001F00
FC000F00
7C000F80
7C000F80
7C000F80
7C000F80
7C000F00
3E001F00
3E001F00
1F003E00
1F807E00
0FE0FC00
07FFF800
03FFF000
00FFE000
003F8000
ENDCHAR
STARTCHAR g25
ENCODING 55
SWIDTH 667 0
DWIDTH 32 0
BBX 24 36 4 0
BITMAP
FFFFFF
FFFFFF
FFFFFF
FFFFFF
00001F
00001E
00003C
00007C
0000F8
0000F0
0001E0
0003E0
0003C0
000780
000F80
000F00
001E00
003E00
003C00
007C00
00F800
00F800
01F000
01F000
03E000
03E000
03C000
07C000
07C000
07C000
078000
078000
0F8000
0F8000
0F8000
0F8000
ENDCHAR
STARTCHAR g26
ENCODING 56
SWIDTH 667 0
DWIDTH 32 0
BBX 24 38 4 -1
BITMAP
00FF00
03FFC0
0FFFF0
1F81F8
3F00FC
3E007C
7C003E
7C003E
7C003E
7C003E
7C003E
7C003E
3E007C
3F00FC
1F81F8
0FFFF0
07FFE0
03FFC0
0FFFF0
1F81F8
3E007C
7C003E
78001E
F8001F
F0000F
F0000F
F0000F
F0000F
F0000F
F8001F
F8001F
7C003E
7E007E
3F81FC
1FFFFC
0FFFF0
07FFE0
00FF00
ENDCHAR
STARTCHAR g27
ENCODING 57
SWIDTH 667 0
DWIDTH 32 0
BBX 25 38 3 -1
BITMAP
00FE0000
03FF8000
07FFE000
1F83F000
1F00F800
3E007C00
3C003C00
7C003E00
78001E00
78001F00
F8001F00
F8001F00
F8001F00
78001F00
7C003F80
7C003F80
7E007F80
3F00FF80
3F81FF80
1FFFEF80
0FFFCF80
07FF0F80
01FC0F80
00000F80
00000F00
00000F00
00001F00
00001F00
00001E00
00003E00
00007C00
7C007C00
7C01F800
3F03F800
3FFFF000
1FFFE000
07FF8000
01FE0000
ENDCHAR
STARTCHAR g28
ENCODING 58
SWIDTH 312 0
DWIDTH 15 0
BBX 6 26 4 0
BITMAP
FC
FC
FC
FC
FC
FC
00
00
00
00
00
00
00
00
00
00
00
00
00
00
FC
FC
FC
FC
FC
FC
ENDCHAR
STARTCHAR g29
ENCODING 59
SWIDTH 312 0
DWIDTH 15 0
BBX 6 35 4 -9
BITMAP
FC
FC
FC
FC
FC
FC
00
00
00
00
00
00
00
00
00
00
00
00
00
00
FC
FC
FC
FC
FC
FC
1C
1C
1C
3C
38
70
F0
E0
C0
ENDCHAR
STARTCHAR g30
ENCODING 60
SWIDTH 667 0
DWIDTH 32 0
BBX 25 26 4 0
BITMAP
00000080
00000380
00000F80
00003F80
0000FF00
0003FC00
000FF000
003FC000
00FF0000
03FC0000
0FF00000
3FC00000
FF000000
FF000000
3FC00000
0FF00000
03FC0000
00FF0000
003FC000
000FF000
0003FC00
0000FF00
00003F80
00000F80
00000380
00000080
ENDCHAR
STARTCHAR g31
ENCODING 61
SWIDTH 667 0
DWIDTH 32 0
BBX 26 12 3 7
BITMAP
FFFFFFC0
FFFFFFC0
FFFFFFC0
FFFFFFC0
00000000
00000000
00000000
00000000
FFFFFFC0
FFFFFFC0
FFFFFFC0
FFFFFFC0
ENDCHAR
STARTCHAR g32
ENCODING 62
SWIDTH 667 0
DWIDTH 32 0
BBX 25 26 3 0
BITMAP
80000000
E0000000
F8000000
FE000000
7F800000
1FE00000
07F80000
01FE0000
007F8000
001FE000
0007F800
0001FE00
00007F80
00007F80
0001FE00
0007F800
001FE000
007F8000
01FE0000
07F80000
1FE00000
7F800000
FE000000
F8000000
E0000000
80000000
ENDCHAR
STARTCHAR g33
ENCODING 63
SWIDTH 562 0
DWIDTH 27 0
BBX 20 37 3 0
BITMAP
03F800
0FFF00
3FFF80
7C0FC0
7803E0
F801E0
F001F0
0000F0
0000F0
0001F0
0001E0
0003E0
0007C0
000FC0
001F80
003E00
007C00
007800
00F800
00F000
01E000
01E000
01E000
01E000
01E000
01E000
01E000
01E000
000000
000000
000000
000000
000000
03E000
03E000
03E000
03E000
ENDCHAR
STARTCHAR g34
ENCODING 64
SWIDTH 875 0
DWIDTH 42 0
BBX 36 38 3 -1
BITMAP
0003FE0000
003FFFC000
00FC03F000
01E0007C00
03C0001E00
0700000F00
0E00000780
1C00000380
1C000001C0
3801FF81E0
3807FF80E0
701FFF80E0
701F078070
703C078070
E078078070
E078078070
E078078070
E0F0078070
E0F0078070
E0F00F80F0
E0F01F80E0
E0F83F80E0
F07C7F81C0
F07FFFC3C0
703FF7FF80
701FC3FF00
780F80FC00
3800000000
3C00000000
1E00000000
1E00000000
0F00000000
07C0002000
03F000E000
01FC07E000
00FFFFE000
003FFF8000
0003FC0000
ENDCHAR
STARTCHAR g35
ENCODING 65
SWIDTH 729 0
DWIDTH 35 0
BBX 33 36 1 0
BITMAP
0003F00000
0003F00000
0003F00000
0007F80000
0007F80000
000F7C0000
000F7C0000
000F7C0000
001E3E0000
001E3E0000
003C1E0000
003C1F0000
00781F0000
00780F8000
00780F8000
00F00F8000
00F007C000
01E007C000
01E003C000
01E003E000
03C003E000
03C001F000
07FFFFF000
07FFFFF000
0FFFFFF800
0FFFFFF800
0F0000FC00
1F00007C00
1E00007C00
3E00003E00
3C00003E00
3C00003E00
7C00001F00
7800001F00
F800001F80
F000000F80
ENDCHAR
STARTCHAR g36
ENCODING 66
SWIDTH 646 0
DWIDTH 31 0
BBX 25 36 3 0
BITMAP
FFFFC000
FFFFF000
FFFFF800
F801FC00
F8007E00
F8003E00
F8001E00
F8001F00
F8001E00
F8001E00
F8003E00
F8003E00
F8007C00
F800F800
F803F800
FFFFE000
FFFFC000
FFFFC000
FFFFF800
F803FC00
F8007E00
F8003F00
F8001F00
F8001F80
F8000F80
F8000F80
F8000F80
F8000F80
F8000F80
F8001F00
F8003F00
F800FE00
FFFFFE00
FFFFF800
FFFFF000
FFFF8000
ENDCHAR
STARTCHAR g37
ENCODING 67
SWIDTH 646 0
DWIDTH 31 0
BBX 27 38 2 -1
BITMAP
000FF000
007FFE00
01FFFF80
03F80FC0
07E007C0
0F8003E0
1F0001E0
1F0001E0
3E000000
3E000000
7C000000
7C000000
7C000000
7C000000
F8000000
F8000000
F8000000
F8000000
F8000000
F8000000
F8000000
F8000000
F8000000
FC000000
7C000000
7C000000
7C000000
7E000000
3E000000
3F0001E0
1F0001E0
1F8003E0
0FE007E0
07F80FC0
03FFFF80
01FFFF00
007FFE00
000FF000
ENDCHAR
STARTCHAR g38
ENCODING 68
SWIDTH 708 0
DWIDTH 34 0
BBX 28 36 3 0
BITMAP
FFFF8000
FFFFF000
FFFFFC00
F800FE00
F8003F00
F8000F80
F80007C0
F80007C0
F80003E0
F80003E0
F80001E0
F80001F0
F80001F0
F80001F0
F80001F0
F80001F0
F80001F0
F80000F0
F80000F0
F80001F0
F80001F0
F80001F0
F80001F0
F80001F0
F80001F0
F80003E0
F80003E0
F80007E0
F80007C0
F8000FC0
F8003F80
F800FF00
FFFFFE00
FFFFFC00
FFFFF000
FFFF8000
ENDCHAR
STARTCHAR g39
ENCODING 69
SWIDTH 583 0
DWIDTH 28 0
BBX 22 36 3 0
BITMAP
FFFFF8
FFFFF8
FFFFF8
FFFFF8
F80000
F80000
F80000
F80000
F80000
F80000
F80000
F80000
F80000
F80000
F80000
FFFFE0
FFFFE0
FFFFE0
FFFFE0
F80000
F80000
F80000
F80000
F80000
F80000
F80000
F80000
F80000
F80000
F80000
F80000
F80000
FFFFFC
FFFFFC
FFFFFC
FFFFFC
ENDCHAR
STARTCHAR g40
ENCODING 70
SWIDTH 562 0
DWIDTH 27 0
BBX 21 36 3 0
BITMAP
FFFFF8
FFFFF8
FFFFF8
FFFFF8
F80000
F80000
F80000
F80000
F80000
F80000
F80000
F80000
F80000
F80000
F80000
F80000
FFFFE0
FFFFE0
FFFFE0
FFFFE0
F80000
F80000
F80000
F80000
F80000
F80000
F80000
F80000
F80000
F80000
F80000
F80000
F80000
F80000
F80000
F80000
ENDCHAR
STARTCHAR g41
ENCODING 71
SWIDTH 667 0
DWIDTH 32 0
BBX 27 38 2 -1
BITMAP
000FF000
007FFE00
01FFFF00
03F81FC0
07C007C0
0F8003E0
1F0001E0
1F0001E0
3E000000
3E000000
7C000000
7C000000
7C000000
78000000
F8000000
F8000000
F8000000
F8000000
F8000000
F801FFE0
F801FFE0
F801FFE0
F801FFE0
FC0001E0
7C0001E0
7C0001E0
7C0001E0
7E0001E0
3E0001E0
3F0001E0
1F0001E0
1F8001E0
0FE001E0
07F80FE0
03FFFFE0
01FFFFE0
007FFF00
000FF800
ENDCHAR
STARTCHAR g42
ENCODING 72
SWIDTH 688 0
DWIDTH 33 0
BBX 27 36 3 0
BITMAP
F80003E0
F80003E0
F80003E0
F80003E0
F80003E0
F80003E0
F80003E0
F80003E0
F80003E0
F80003E0
F80003E0
F80003E0
F80003E0
F80003E0
F80003E0
F80003E0
FFFFFFE0
FFFFFFE0
FFFFFFE0
F80003E0
F80003E0
F80003E0
F80003E0
F80003E0
F80003E0
F80003E0
F80003E0
F80003E0
F80003E0
F80003E0
F80003E0
F80003E0
F80003E0
F80003E0
F80003E0
F80003E0
ENDCHAR
STARTCHAR g43
ENCODING 73
SWIDTH 250 0
DWIDTH 12 0
BBX 5 36 3 0
BITMAP
F8
F8
F8
F8
F8
F8
F8
F8
F8
F8
F8
F8
F8
F8
F8
F8
F8
F8
F8
F8
F8
F8
F8
F8
F8
F8
F8
F8
F8
F8
F8
F8
F8
F8
F8
F8
ENDCHAR
STARTCHAR g44
ENCODING 74
SWIDTH 500 0
DWIDTH 24 0
BBX 19 37 1 -1
BITMAP
0003E0
0003E0
0003E0
0003E0
0003E0
0003E0
0003E0
0003E0
0003E0
0003E0
0003E0
0003E0
0003E0
0003E0
0003E0
0003E0
0003E0
0003E0
0003E0
0003E0
0003E0
0003E0
0003E0
0003E0
0003E0
0003E0
0003E0
0003E0
0003E0
0003E0
F803E0
F807C0
FC0FC0
7FFF80
3FFF80
1FFE00
07F800
ENDCHAR
STARTCHAR g45
ENCODING 75
SWIDTH 667 0
DWIDTH 32 0
BBX 28 36 3 0
BITMAP
F8000FC0
F8001F80
F8003F00
F8007E00
F800FC00
F801F800
F803F000
F807E000
F80FC000
F81F8000
F83F0000
F87E0000
F8FC0000
F9F80000
FBF00000
FFE00000
FFC00000
FFC00000
FFE00000
FBF00000
F9F80000
F8FC0000
F87E0000
F83F0000
F81F8000
F80FC000
F807E000
F803F000
F801F800
F800FC00
F8007E00
F8003F00
F8001F80
F8000FC0
F80007E0
F80003F0
ENDCHAR
STARTCHAR g46
ENCODING 76
SWIDTH 583 0
DWIDTH 28 0
BBX 24 36 3 0
BITMAP
F80000
F80000
F80000
F80000
F80000
F80000
F80000
F80000
F80000
F80000
F80000
F80000
F80000
F80000
F80000
F80000
F80000
F80000
F80000
F80000
F80000
F80000
F80000
F80000
F80000
F80000
F80000
F80000
F80000
F80000
F80000
F80000
FFFFFF
FFFFFF
FFFFFF
FFFFFF
ENDCHAR
STARTCHAR g47
ENCODING 77
SWIDTH 792 0
DWIDTH 38 0
BBX 31 36 3 0
BITMAP
F800001E
FC00003E
FC00003E
FE00007E
FE00007E
FE00007E
FF0000FE
FF0000FE
F78001FE
F78001FE
F7C001DE
F3C003DE
F3E003DE
F3E0079E
F1E0079E
F1F0071E
F0F00F1E
F0F80F1E
F0F81E1E
F07C1E1E
F07C1E1E
F03C3C1E
F03E3C1E
F01E781E
F01F781E
F01F781E
F00FF01E
F00FF01E
F007E01E
F007E01E
F007E01E
F000001E
F000001E
F000001E
F000001E
F000001E
ENDCHAR
STARTCHAR g48
ENCODING 78
SWIDTH 708 0
DWIDTH 34 0
BBX 28 36 3 0
BITMAP
F80001F0
FC0001F0
FE0001F0
FE0001F0
FF0001F0
FF8001F0
FF8001F0
FFC001F0
FFE001F0
FBE001F0
F9F001F0
F9F801F0
F8F801F0
F87C01F0
F87E01F0
F83E01F0
F83F01F0
F81F81F0
F80F81F0
F80FC1F0
F807E1F0
F803E1F0
F803F1F0
F801F9F0
F800F9F0
F800FDF0
F8007DF0
F8007FF0
F8003FF0
F8001FF0
F8001FF0
F8000FF0
F80007F0
F80007F0
F80003F0
F80001F0
ENDCHAR
STARTCHAR g49
ENCODING 79
SWIDTH 729 0
DWIDTH 35 0
BBX 31 38 2 -1
BITMAP
000FF000
007FFC00
01FFFF00
03F81F80
07E007C0
0F8003E0
1F0001F0
1F0000F8
3E0000F8
3E00007C
7C00007C
7C00007C
7C00003C
7800003E
F800003E
F800003E
F800003E
F800003E
F800003E
F800003E
F800003E
F800003E
F800003E
F800003E
7C00003E
7C00007C
7C00007C
7E00007C
3E0000FC
3F0000F8
1F0001F8
1F8003F0
0FE007E0
07F81FC0
03FFFF80
01FFFF00
007FFC00
000FF000
ENDCHAR
STARTCHAR g50
ENCODING 80
SWIDTH 583 0
DWIDTH 28 0
BBX 24 36 3 0
BITMAP
FFFF80
FFFFE0
FFFFF8
F801FC
F8007C
F8003E
F8003E
F8003F
F8001F
F8001F
F8001F
F8003F
F8003E
F8003E
F8007E
F8007C
F800FC
F807F8
FFFFF0
FFFFE0
FFFF80
FFF800
F80000
F80000
F80000
F80000
F80000
F80000
F80000
F80000
F80000
F80000
F80000
F80000
F80000
F80000
ENDCHAR
STARTCHAR g51
ENCODING 81
SWIDTH 729 0
DWIDTH 35 0
BBX 36 46 2 -9
BITMAP
000FF00000
007FFC0000
01FFFF0000
03F81F8000
07E007C000
0F8003E000
1F0001F000
1F0000F800
3E0000F800
3E00007800
7C00007C00
7C00007C00
7C00003C00
F800003E00
F800003E00
F800003E00
F800003E00
F800003E00
F800003E00
F800003E00
F800003E00
F800003E00
F800003E00
F800003E00
7C00003E00
7C00007E00
7C00007C00
7E00007C00
3E0000FC00
3F0000F800
1F0001F800
1F8003F000
0FE007F000
07F81FE000
07FFFFC000
01FFFF8000
00FFFE0000
003FF80000
0001F80000
00007C0000
00003F0000
00001FE030
00000FFFF0
000003FFF0
000000FFE0
0000001FC0
ENDCHAR
STARTCHAR g52
ENCODING 82
SWIDTH 604 0
DWIDTH 29 0
BBX 25 36 3 0
BITMAP
FFFF0000
FFFFC000
FFFFF000
F803F800
F801F800
F800FC00
F8007C00
F8007C00
F8007E00
F8007E00
F8007E00
F8007C00
F8007C00
F8007C00
F800F800
F801F800
F807F000
FFFFE000
FFFF8000
FFFE0000
F83F0000
F81F8000
F80FC000
F807C000
F803E000
F803E000
F801F000
F801F800
F800F800
F800FC00
F8007C00
F8007E00
F8003E00
F8003F00
F8001F00
F8000F80
ENDCHAR
STARTCHAR g53
ENCODING 83
SWIDTH 604 0
DWIDTH 29 0
BBX 24 38 3 -1
BITMAP
00FFC0
07FFF0
0FFFF8
1F80FC
3E007E
3E003E
7C003E
7C0000
780000
7C0000
7C0000
7C0000
7E0000
3F0000
3FC000
1FF000
0FFC00
07FF00
01FFC0
007FF0
001FF8
0003FC
0000FE
00007E
00003F
00001F
00001F
00001F
00001F
F0001F
F0001F
F8003E
FC007E
7F01FC
7FFFFC
3FFFF8
0FFFE0
01FF00
ENDCHAR
STARTCHAR g54
ENCODING 84
SWIDTH 646 0
DWIDTH 31 0
BBX 29 36 1 0
BITMAP
FFFFFFF8
FFFFFFF8
FFFFFFF8
FFFFFFF8
000F8000
000F8000
000F8000
000F8000
000F8000
000F8000
000F8000
000F8000
000F8000
000F8000
000F8000
000F8000
000F8000
000F8000
000F8000
000F8000
000F8000
000F8000
000F8000
000F8000
000F8000
000F8000
000F8000
000F8000
000F8000
000F8000
000F8000
000F8000
000F8000
000F8000
000F8000
000F8000
ENDCHAR
STARTCHAR g55
ENCODING 85
SWIDTH 667 0
DWIDTH 32 0
BBX 26 37 3 -1
BITMAP
F80003C0
F80003C0
F80003C0
F80003C0
F80003C0
F80003C0
F80003C0
F80003C0
F80003C0
F80003C0
F80003C0
F80003C0
F80003C0
F80003C0
F80003C0
F80003C0
F80003C0
F80003C0
F80003C0
F80003C0
F80003C0
F80003C0
F80003C0
F80003C0
F80003C0
F80003C0
F80007C0
F80007C0
F80007C0
FC000780
7C000F80
7F001F80
3FC07F00
1FFFFE00
0FFFFC00
03FFF000
007FC000
ENDCHAR
STARTCHAR g56
ENCODING 86
SWIDTH 729 0
DWIDTH 35 0
BBX 33 36 1 0
BITMAP
F800000780
F800000F80
7C00000F00
7C00001F00
7E00001E00
3E00001E00
3E00003C00
1F00003C00
1F00007C00
1F80007800
0F8000F800
0F8000F000
07C000F000
07C001F000
07C001E000
03E003E000
03E003C000
03F003C000
01F007C000
01F0078000
00F80F8000
00F80F0000
00FC0F0000
007C1E0000
007C1E0000
003E3E0000
003E3C0000
003E7C0000
001F780000
001F780000
001FF80000
000FF00000
000FF00000
0007E00000
0007E00000
0007E00000
ENDCHAR
STARTCHAR g57
ENCODING 87
SWIDTH 938 0
DWIDTH 45 0
BBX 42 36 2 0
BITMAP
F0003E0007C0
F8003F000780
F8003F000780
78003F000780
78007F000F80
7C0077800F00
7C0077800F00
3C0077800F00
3C00F7800F00
3E00F3C01E00
3E00E3C01E00
3E00E3C01E00
1E01E3C01E00
1E01E1E03C00
1F01C1E03C00
1F01C1E03C00
0F03C1E03C00
0F03C0F07C00
0F8380F07800
0F8380F07800
078780F07800
07878078F800
07870078F000
07C70078F000
07CF0078F000
03CF003CF000
03CE003DE000
03CE003DE000
03FE003DE000
01FE001DE000
01FC001FC000
01FC001FC000
01FC001FC000
00FC000FC000
00F8000FC000
00F8000F8000
ENDCHAR
STARTCHAR g58
ENCODING 88
SWIDTH 604 0
DWIDTH 29 0
BBX 28 36 1 0
BITMAP
7C0003F0
3E0003E0
3E0007C0
1F000F80
1F800F80
0F801F00
07C03E00
07E03E00
03E07C00
03F0F800
01F0F800
00F9F000
00FFE000
007FE000
007FC000
003FC000
001F8000
001F0000
001F8000
003FC000
003FC000
007BE000
00F9E000
00F1F000
01F0F800
03E0F800
03C07C00
07C03C00
07803E00
0F001F00
1F001F00
1E000F80
3E000F80
7C0007C0
780003E0
F80003F0
ENDCHAR
STARTCHAR g59
ENCODING 89
SWIDTH 604 0
DWIDTH 29 0
BBX 28 36 1 0
BITMAP
F80001F0
FC0003E0
7E0003C0
3E0007C0
3F000F80
1F800F00
0F801F00
0FC03E00
07E03E00
07E07C00
03F0F800
01F8F800
01F9F000
00FFE000
007FE000
007FC000
003FC000
003F8000
001F0000
001F0000
001F0000
001F0000
001F0000
001F0000
001F0000
001F0000
001F0000
001F0000
001F0000
001F0000
001F0000
001F0000
001F0000
001F0000
001F0000
001F0000
ENDCHAR
STARTCHAR g60
ENCODING 90
SWIDTH 583 0
DWIDTH 28 0
BBX 23 36 2 0
BITMAP
7FFFFE
7FFFFE
7FFFFE
7FFFFE
00003E
00007C
0000F8
0000F8
0001F0
0003F0
0003E0
0007C0
000FC0
000F80
001F00
003F00
003E00
007C00
00FC00
00F800
01F000
03F000
03E000
07C000
07C000
0F8000
1F0000
1F0000
3E0000
7E0000
7C0000
F80000
FFFFFE
FFFFFE
FFFFFE
FFFFFE
ENDCHAR
STARTCHAR g61
ENCODING 91
SWIDTH 438 0
DWIDTH 21 0
BBX 12 48 5 -9
BITMAP
FFF0
FFF0
FFF0
FFF0
F000
F000
F000
F000
F000
F000
F000
F000
F000
F000
F000
F000
F000
F000
F000
F000
F000
F000
F000
F000
F000
F000
F000
F000
F000
F000
F000
F000
F000
F000
F000
F000
F000
F000
F000
F000
F000
F000
F000
F000
FFF0
FFF0
FFF0
FFF0
ENDCHAR
STARTCHAR g62
ENCODING 92
SWIDTH 542 0
DWIDTH 26 0
BBX 23 38 2 -1
BITMAP
F00000
F00000
780000
780000
3C0000
3C0000
1E0000
1E0000
0F0000
0F0000
078000
078000
03C000
03C000
01E000
01E000
00F000
00F000
007800
007800
003C00
003C00
001E00
001E00
000F00
000F00
000780
000780
0003C0
0003C0
0001E0
0001E0
0000F0
0000F0
000078
000078
00003C
00003E
ENDCHAR
STARTCHAR g63
ENCODING 93
SWIDTH 438 0
DWIDTH 21 0
BBX 12 48 4 -9
BITMAP
FFF0
FFF0
FFF0
FFF0
00F0
00F0
00F0
00F0
00F0
00F0
00F0
00F0
00F0
00F0
00F0
00F0
00F0
00F0
00F0
00F0
00F0
00F0
00F0
00F0
00F0
00F0
00F0
00F0
00F0
00F0
00F0
00F0
00F0
00F0
00F0
00F0
00F0
00F0
00F0
00F0
00F0
00F0
00F0
00F0
FFF0
FFF0
FFF0
FFF0
ENDCHAR
STARTCHAR g64
ENCODING 94
SWIDTH 667 0
DWIDTH 32 0
BBX 26 25 3 10
BITMAP
000C0000
000C0000
001E0000
001E0000
003F0000
003F0000
007F8000
007F8000
00F3C000
00F3C000
01E1E000
01E1E000
03C0F000
03C0F000
07807800
07807800
0F003C00
0F003C00
1E001E00
1E001E00
3C000F00
3C000F00
78000780
78000780
F00003C0
ENDCHAR
STARTCHAR g65
ENCODING 95
SWIDTH 667 0
DWIDTH 32 0
BBX 30 4 1 -4
BITMAP
FFFFFFFC
FFFFFFFC
FFFFFFFC
FFFFFFFC
ENDCHAR
STARTCHAR g66
ENCODING 96
SWIDTH 583 0
DWIDTH 28 0
BBX 11 8 8 30
BITMAP
F000
7800
3C00
1E00
0F00
0780
03C0
01E0
ENDCHAR
STARTCHAR g67
ENCODING 97
SWIDTH 562 0
DWIDTH 27 0
BBX 21 28 3 -1
BITMAP
01FE00
07FF80
1FFFC0
3F07E0
7C01F0
F800F0
F800F0
F800F0
0000F0
0000F0
0000F0
001FF0
01FFF0
07FFF0
1FFCF0
3FC0F0
7E00F0
FC00F0
F800F0
F000F0
F001F0
F003F0
F807F0
FC1FF0
7FFEF8
7FF8F8
3FF0F8
0FC000
ENDCHAR
STARTCHAR g68
ENCODING 98
SWIDTH 604 0
DWIDTH 29 0
BBX 24 39 3 -1
BITMAP
F80000
F80000
F80000
F80000
F80000
F80000
F80000
F80000
F80000
F80000
F80000
F83F00
F8FFE0
F9FFF0
FBFFF8
FFC1FC
FF007C
FE003E
FC003E
FC001E
FC001F
F8001F
F8001F
F8001F
F8001F
F8001F
F8001F
F8001F
F8001F
F8001F
FC001E
FC003E
FE007E
FF00FC
FBC1FC
FBFFF8
F9FFF0
F8FFE0
003F00
ENDCHAR
STARTCHAR g69
ENCODING 99
SWIDTH 542 0
DWIDTH 26 0
BBX 22 28 2 -1
BITMAP
00FF00
03FFC0
07FFF0
0FFFF8
1FC1F8
3F007C
3E003C
7C003C
7C0000
780000
F80000
F80000
F80000
F80000
F80000
F80000
F80000
F80000
780000
7C0000
7C003C
3E003C
3F007C
1FC1F8
0FFFF8
07FFF0
03FFC0
00FF00
ENDCHAR
STARTCHAR g70
ENCODING 100
SWIDTH 604 0
DWIDTH 29 0
BBX 24 39 2 -1
BITMAP
00001F
00001F
00001F
00001F
00001F
00001F
00001F
00001F
00001F
00001F
00001F
00FC1F
03FF1F
0FFFDF
1FFFDF
1FC1FF
3F00FF
3E007F
7C003F
7C003F
78001F
78001F
F8001F
F8001F
F8001F
F8001F
F8001F
F8001F
F8001F
78001F
78003F
7C003F
3E007F
3F00FF
1F81FF
1FFFDF
0FFF9F
03FF1F
00FC00
ENDCHAR
STARTCHAR g71
ENCODING 101
SWIDTH 583 0
DWIDTH 28 0
BBX 23 28 2 -1
BITMAP
007F00
01FFC0
07FFF0
0FFFF0
1FC1F8
1F007C
3E003C
7C003C
7C001E
78001E
78001E
FFFFFE
FFFFFE
FFFFFE
F80000
F80000
F80000
F80000
780000
7C0000
7C001E
3E003E
3F003C
1FC0FC
0FFFF8
07FFF0
03FFE0
007F00
ENDCHAR
STARTCHAR g72
ENCODING 102
SWIDTH 396 0
DWIDTH 19 0
BBX 16 38 2 0
BITMAP
003C
01FF
03FF
07FF
07E3
0F80
0F80
0F00
0F00
0F00
0F00
0F00
FFFF
FFFF
FFFF
0F00
0F00
0F00
0F00
0F00
0F00
0F00
0F00
0F00
0F00
0F00
0F00
0F00
0F00
0F00
0F00
0F00
0F00
0F00
0F00
0F00
0F00
0F00
ENDCHAR
STARTCHAR g73
ENCODING 103
SWIDTH 604 0
DWIDTH 29 0
BBX 24 38 2 -11
BITMAP
00FC00
03FF1F
0FFFDF
1FFFDF
1FC1FF
3F00FF
3E007F
7C003F
7C003F
78001F
F8001F
F8001F
F8001F
F8001F
F8001F
F8001F
F8001F
78001F
78001F
7C003F
3C003F
3E007F
1F00FF
1FC3DF
0FFF9F
03FF1F
00FC1F
00001F
00001E
00001E
78001E
78003E
7C003C
3E007C
3F81F8
1FFFF0
07FFC0
00FF00
ENDCHAR
STARTCHAR g74
ENCODING 104
SWIDTH 583 0
DWIDTH 28 0
BBX 22 38 3 0
BITMAP
F80000
F80000
F80000
F80000
F80000
F80000
F80000
F80000
F80000
F80000
F80000
F83F80
F8FFE0
F9FFF0
FBFFF8
FFC1F8
FF00FC
FE007C
FC007C
FC007C
F8007C
F8007C
F8007C
F8007C
F8007C
F8007C
F8007C
F8007C
F8007C
F8007C
F8007C
F8007C
F8007C
F8007C
F8007C
F8007C
F8007C
F8007C
ENDCHAR
STARTCHAR g75
ENCODING 105
SWIDTH 229 0
DWIDTH 11 0
BBX 5 36 3 0
BITMAP
F8
F8
F8
F8
00
00
00
00
00
00
F8
F8
F8
F8
F8
F8
F8
F8
F8
F8
F8
F8
F8
F8
F8
F8
F8
F8
F8
F8
F8
F8
F8
F8
F8
F8
ENDCHAR
STARTCHAR g76
ENCODING 106
SWIDTH 271 0
DWIDTH 13 0
BBX 13 46 -3 -10
BITMAP
00F8
00F8
00F8
00F8
0000
0000
0000
0000
0000
0000
00F8
00F8
00F8
00F8
00F8
00F8
00F8
00F8
00F8
00F8
00F8
00F8
00F8
00F8
00F8
00F8
00F8
00F8
00F8
00F8
00F8
00F8
00F8
00F8
00F8
00F8
00F8
00F8
00F8
00F8
00F0
01F0
E3E0
FFC0
FF80
7E00
ENDCHAR
STARTCHAR g77
ENCODING 107
SWIDTH 542 0
DWIDTH 26 0
BBX 22 38 3 0
BITMAP
F80000
F80000
F80000
F80000
F80000
F80000
F80000
F80000
F80000
F80000
F80000
F80000
F800F8
F801F8
F803F0
F807E0
F80FC0
F81F80
F83F00
F87E00
F8FC00
F9F800
FBF000
FFE000
FFC000
FFC000
FBE000
F9F000
F8F800
F87C00
F83E00
F81F00
F80F80
F807C0
F803E0
F801F0
F800F8
F8007C
ENDCHAR
STARTCHAR g78
ENCODING 108
SWIDTH 229 0
DWIDTH 11 0
BBX 5 38 3 0
BITMAP
F8
F8
F8
F8
F8
F8
F8
F8
F8
F8
F8
F8
F8
F8
F8
F8
F8
F8
F8
F8
F8
F8
F8
F8
F8
F8
F8
F8
F8
F8
F8
F8
F8
F8
F8
F8
F8
F8
ENDCHAR
STARTCHAR g79
ENCODING 109
SWIDTH 896 0
DWIDTH 43 0
BBX 37 27 3 0
BITMAP
003F003F00
F8FFC07FC0
F9FFE1FFE0
FBFFF3FFF0
FFC3F7C3F0
FF01FF01F0
FE00FE00F8
FC00FC00F8
FC00FC00F8
F800F800F8
F800F800F8
F800F800F8
F800F800F8
F800F800F8
F800F800F8
F800F800F8
F800F800F8
F800F800F8
F800F800F8
F800F800F8
F800F800F8
F800F800F8
F800F800F8
F800F800F8
F800F800F8
F800F800F8
F800F800F8
ENDCHAR
STARTCHAR g80
ENCODING 110
SWIDTH 583 0
DWIDTH 28 0
BBX 22 27 3 0
BITMAP
003F80
F8FFE0
F9FFF0
FBFFF8
FFC3F8
FF00FC
FE007C
FC007C
FC007C
F8007C
F8007C
F8007C
F8007C
F8007C
F8007C
F8007C
F8007C
F8007C
F8007C
F8007C
F8007C
F8007C
F8007C
F8007C
F8007C
F8007C
F8007C
ENDCHAR
STARTCHAR g81
ENCODING 111
SWIDTH 604 0
DWIDTH 29 0
BBX 25 28 2 -1
BITMAP
007F0000
01FFE000
07FFF000
0FFFF800
1FC1FC00
3F007E00
3E003E00
7C001F00
7C001F00
78000F00
F8000F80
F8000F80
F8000F80
F8000F80
F8000F80
F8000F80
F8000F80
F8000F80
78000F00
7C001F00
7C001F00
3E003E00
3F007E00
1FC1FC00
0FFFF800
07FFF000
01FFE000
007F0000
ENDCHAR
STARTCHAR g82
ENCODING 112
SWIDTH 604 0
DWIDTH 29 0
BBX 24 37 3 -10
BITMAP
003F00
F8FFC0
FBFFF0
FFFFF8
FF83F8
FF00FC
FE007C
FC003E
F8003E
F8001E
F8001E
F8001F
F8001F
F8001F
F8001F
F8001F
F8001F
F8001E
F8001E
F8003E
FC003E
FE007C
FF00FC
FF83F8
FBFFF0
F9FFF0
F8FFC0
F83F00
F80000
F80000
F80000
F80000
F80000
F80000
F80000
F80000
F80000
ENDCHAR
STARTCHAR g83
ENCODING 113
SWIDTH 604 0
DWIDTH 29 0
BBX 24 37 2 -10
BITMAP
00FC00
03FF1F
0FFFDF
1FFFDF
1FC1FF
3F00FF
3E007F
7C003F
7C003F
78001F
78001F
F8001F
F8001F
F8001F
F8001F
F8001F
F8001F
F8001F
78001F
7C003F
7C003F
3E007F
3F00FF
1FC1FF
1FFFDF
0FFF9F
03FF1F
00FC1F
00001F
00001F
00001F
00001F
00001F
00001F
00001F
00001F
00001F
ENDCHAR
STARTCHAR g84
ENCODING 114
SWIDTH 396 0
DWIDTH 19 0
BBX 16 27 3 0
BITMAP
003E
F8FF
F9FF
FBFF
FFC3
FF00
FE00
FC00
F800
F800
F800
F800
F800
F800
F800
F800
F800
F800
F800
F800
F800
F800
F800
F800
F800
F800
F800
ENDCHAR
STARTCHAR g85
ENCODING 115
SWIDTH 500 0
DWIDTH 24 0
BBX 20 28 2 -1
BITMAP
01FE00
0FFF80
1FFFC0
3FFFE0
3E07E0
7C01F0
7801F0
780000
780000
7C0000
7E0000
3FC000
1FFC00
07FF80
01FFC0
003FE0
0007F0
0001F0
0000F0
0000F0
F000F0
F001F0
F803F0
7E07E0
7FFFC0
3FFFC0
0FFF00
03FC00
ENDCHAR
STARTCHAR g86
ENCODING 116
SWIDTH 438 0
DWIDTH 21 0
BBX 18 33 2 -1
BITMAP
0F8000
0F8000
0F8000
0F8000
0F8000
0F8000
FFFF00
FFFF00
FFFF00
FFFF00
0F8000
0F8000
0F8000
0F8000
0F8000
0F8000
0F8000
0F8000
0F8000
0F8000
0F8000
0F8000
0F8000
0F8000
0F8000
0F8000
0F8000
0FC000
0FE0C0
07FFC0
03FFC0
01FF80
007F00
ENDCHAR
STARTCHAR g87
ENCODING 117
SWIDTH 583 0
DWIDTH 28 0
BBX 22 27 3 -1
BITMAP
F0007C
F0007C
F0007C
F0007C
F0007C
F0007C
F0007C
F0007C
F0007C
F0007C
F0007C
F0007C
F0007C
F0007C
F0007C
F0007C
F0007C
F0007C
F000FC
F800FC
F801FC
FC03FC
7E0F7C
7FFF7C
3FFE7C
1FF87C
07E000
ENDCHAR
STARTCHAR g88
ENCODING 118
SWIDTH 562 0
DWIDTH 27 0
BBX 26 26 1 0
BITMAP
F00007C0
F8000780
78000F00
7C000F00
7C001F00
3E001E00
3E003E00
1E003C00
1F003C00
1F007C00
0F807800
0F80F800
0780F000
07C1F000
07C1E000
03E1E000
03E3E000
01F3C000
01F7C000
00F78000
00FF8000
00FF0000
007F0000
007F0000
003E0000
003E0000
ENDCHAR
STARTCHAR g89
ENCODING 119
SWIDTH 771 0
DWIDTH 37 0
BBX 36 26 1 0
BITMAP
F001F001F0
F801F001E0
F801F801E0
7803F801E0
7C03F803C0
7C03BC03C0
3C07BC03C0
3C07BC07C0
3E07BC0780
3E071E0780
1E0F1E0780
1F0F1E0F00
1F0F0F0F00
0F1E0F0F00
0F1E0F1F00
0F9E079E00
0F9C079E00
07BC079E00
07BC07DC00
07BC03FC00
03F803FC00
03F803FC00
03F801F800
03F001F800
01F001F800
01F000F000
ENDCHAR
STARTCHAR g90
ENCODING 120
SWIDTH 521 0
DWIDTH 25 0
BBX 23 26 1 0
BITMAP
7C003E
3E007C
3F00F8
1F00F0
0F81F0
0FC3E0
07C3C0
03E7C0
03FF80
01FF00
00FE00
00FE00
007C00
007E00
00FF00
00FF00
01EF80
03E7C0
07C7C0
0783E0
0F81F0
1F01F0
1E00F8
3E00FC
7C007C
F8003E
ENDCHAR
STARTCHAR g91
ENCODING 121
SWIDTH 562 0
DWIDTH 27 0
BBX 27 36 0 -10
BITMAP
F80003E0
7C0003C0
7C0007C0
3E000780
3E000780
1F000F80
1F000F00
0F801F00
0F801E00
07C03E00
07C03C00
03E03C00
03E07C00
01F07800
01F0F800
00F8F000
00F9F000
007DE000
007DE000
003FE000
003FC000
003FC000
001F8000
001F8000
000F0000
000F0000
001F0000
001E0000
003E0000
003C0000
007C0000
00F80000
7FF00000
7FF00000
7FC00000
7F000000
ENDCHAR
STARTCHAR g92
ENCODING 122
SWIDTH 562 0
DWIDTH 27 0
BBX 21 26 3 0
BITMAP
FFFFF0
FFFFF0
FFFFF0
FFFFF0
0001F0
0003E0
0007C0
000F80
001F00
003F00
003E00
007C00
00F800
01F000
03F000
07E000
07C000
0F8000
1F0000
3F0000
7E0000
FC0000
FFFFF8
FFFFF8
FFFFF8
FFFFF8
ENDCHAR
STARTCHAR g93
ENCODING 123
SWIDTH 458 0
DWIDTH 22 0
BBX 11 48 5 -9
BITMAP
00E0
03E0
07E0
0FE0
0F80
1F00
1F00
1E00
1E00
0F00
0F00
0F00
0F00
0F00
0700
0780
0780
0780
0780
0700
0F00
0E00
FE00
F800
F800
FE00
0E00
0F00
0700
0780
0780
0780
0780
0700
0F00
0F00
0F00
0F00
0F00
1E00
1E00
1F00
1F00
0F80
0FE0
07E0
03E0
00E0
ENDCHAR
STARTCHAR g94
ENCODING 124
SWIDTH 250 0
DWIDTH 12 0
BBX 4 38 4 -1
BITMAP
F0
F0
F0
F0
F0
F0
F0
F0
F0
F0
F0
F0
F0
F0
F0
F0
F0
F0
00
00
F0
F0
F0
F0
F0
F0
F0
F0
F0
F0
F0
F0
F0
F0
F0
F0
F0
F0
ENDCHAR
STARTCHAR g95
ENCODING 125
SWIDTH 458 0
DWIDTH 22 0
BBX 12 48 5 -9
BITMAP
F000
FC00
FE00
FE00
1F00
0F00
0F00
0F00
0F00
0F00
0F00
0F00
1F00
1E00
1E00
1E00
1E00
1E00
1E00
1E00
0E00
0F00
07F0
01F0
01F0
07F0
0F00
0E00
1E00
1E00
1E00
1E00
1E00
1E00
1E00
1F00
0F00
0F00
0F00
0F00
0F00
0F00
0F00
1F00
FE00
FE00
FC00
F000
ENDCHAR
STARTCHAR g96
ENCODING 126
SWIDTH 667 0
DWIDTH 32 0
BBX 26 8 3 9
BITMAP
0F8001C0
1FF001C0
3FF801C0
787E03C0
F01F8780
E007FF00
E003FE00
E0007C00
ENDCHAR
STARTCHAR g97
ENCODING 127
SWIDTH 667 0
DWIDTH 32 0
BBX 0 0 0 0
BITMAP
ENDCHAR
STARTCHAR g98
ENCODING 161
SWIDTH 312 0
DWIDTH 15 0
BBX 5 36 5 -10
BITMAP
F8
F8
F8
F8
00
00
00
00
00
F8
F8
F8
F8
F8
F8
F8
F8
F8
F8
F8
F8
F8
F8
F8
F8
F8
F8
F8
F8
F8
F8
F8
F8
F8
F8
F8
ENDCHAR
STARTCHAR g99
ENCODING 162
SWIDTH 667 0
DWIDTH 32 0
BBX 22 36 4 0
BITMAP
003C00
003C00
003C00
003C00
003F00
01FFE0
07FFF0
0FFFF8
1FBCFC
1F3C3C
3E3C3C
3C3C00
7C3C00
7C3C00
783C00
783C00
F83C00
F83C00
F83C00
F83C00
783C00
783C00
7C3C00
7C3C00
3C3C3C
3E3C3C
1F3C7C
1FBCF8
0FFFF8
07FFF0
01FFC0
003C00
003C00
003C00
003C00
003C00
ENDCHAR
STARTCHAR g100
ENCODING 163
SWIDTH 667 0
DWIDTH 32 0
BBX 23 37 4 0
BITMAP
0001F8
0007FE
000FFE
001FFE
003F06
003E00
007C00
007C00
007C00
007800
00F800
00F800
00F800
00F000
00F000
01F000
3FFFF0
3FFFF0
3FFFF0
01E000
03E000
03E000
03E000
03C000
03C000
07C000
078000
078000
0F8000
0F0000
1F0000
3E0000
7C0000
FFFFFE
FFFFFE
FFFFFE
FFFFFE
ENDCHAR
STARTCHAR g101
ENCODING 164
SWIDTH 667 0
DWIDTH 32 0
BBX 28 28 2 4
BITMAP
20000040
700000E0
F83FC1F0
7CFFF3E0
3FFFFFC0
1FFFFF80
0FE07F00
0F801F00
1F000F80
1E000780
1E0003C0
3C0003C0
3C0003C0
3C0003C0
3C0003C0
3C0003C0
3C0003C0
1E0003C0
1E000780
1F000F80
0F801F00
0FE07F00
1FFFFF80
3FFFFFC0
7CFFF3E0
F83FC1F0
700000E0
20000040
ENDCHAR
STARTCHAR g102
ENCODING 165
SWIDTH 667 0
DWIDTH 32 0
BBX 28 36 2 0
BITMAP
F80000F0
7C0001E0
7C0003E0
3E0003C0
1F0007C0
1F000780
0F800F00
0FC01F00
07C01E00
03E03E00
03F07C00
01F07800
00F8F800
00FCF000
007DF000
003FE000
003FC000
001FC000
001F8000
1FFFFF80
1FFFFF80
1FFFFF80
1FFFFF80
000F8000
000F8000
000F8000
000F8000
1FFFFF80
1FFFFF80
1FFFFF80
000F8000
000F8000
000F8000
000F8000
000F8000
000F8000
ENDCHAR
STARTCHAR g103
ENCODING 167
SWIDTH 667 0
DWIDTH 32 0
BBX 25 46 3 -9
BITMAP
007FC000
03FFF800
07FFFC00
0FC0FE00
1F003E00
3E001F00
3C001F00
3C000000
3C000000
3E000000
3F000000
3F800000
1FE00000
0FF80000
07FE0000
07FF8000
0F7FE000
1E1FF000
3C07FC00
3C01FE00
3C007F00
3C003F00
3E001F00
3F000F80
1F800F80
1FE00F00
0FF80F00
03FE1E00
01FFBE00
007FFC00
000FF800
0003FC00
0000FE00
00007F00
00001F00
00000F00
F8000F80
F8000F80
F8000F00
7C001F00
7E003F00
3F80FE00
3FFFFC00
1FFFF800
07FFF000
00FF8000
ENDCHAR
STARTCHAR g104
ENCODING 168
SWIDTH 583 0
DWIDTH 28 0
BBX 15 5 7 30
BITMAP
F83E
F83E
F83E
F83E
F83E
ENDCHAR
STARTCHAR g105
ENCODING 169
SWIDTH 875 0
DWIDTH 42 0
BBX 38 38 2 -1
BITMAP
0001FE0000
000FFFE000
003E01F800
00F0003C00
01C0000F00
0380000780
0700FF03C0
0E03FFE1C0
1C07FFE0E0
380FC0E070
381F002070
703E000038
703C000038
703C00001C
E07800001C
E07800001C
E07800001C
E07800001C
E07800001C
E07800001C
E07800001C
E07800001C
E07800001C
F03C00001C
703C00003C
701E000038
781F000078
380FC06070
3C07FFE0F0
1E03FFE1E0
0F007F83C0
07800007C0
03C0000F80
01F0003F00
00FE01FC00
003FFFF800
000FFFE000
0001FE0000
ENDCHAR
STARTCHAR g106
ENCODING 170
SWIDTH 333 0
DWIDTH 16 0
BBX 14 21 1 16
BITMAP
0FC0
3FF0
7878
7038
0038
0038
01F8
0FF8
3F38
7C38
7038
F038
7078
78F8
3FFC
1F1C
0000
0000
FFFC
FFFC
FFFC
ENDCHAR
STARTCHAR g107
ENCODING 171
SWIDTH 542 0
DWIDTH 26 0
BBX 22 20 2 3
BITMAP
01F07C
03E0F8
07C1F0
0F83E0
1F07C0
3F0FC0
7E1F80
7C1F00
FC3F00
F83E00
F83E00
FC3F00
7C1F00
7E1F80
3F0FC0
1F07C0
0F83E0
07C1F0
03E0F8
01F07C
ENDCHAR
STARTCHAR g108
ENCODING 172
SWIDTH 667 0
DWIDTH 32 0
BBX 26 11 3 4
BITMAP
FFFFFFC0
FFFFFFC0
FFFFFFC0
FFFFFFC0
000003C0
000003C0
000003C0
000003C0
000003C0
000003C0
000003C0
ENDCHAR
STARTCHAR g109
ENCODING 174
SWIDTH 875 0
DWIDTH 42 0
BBX 38 38 2 -1
BITMAP
0001FE0000
000FFFE000
003E01F800
00F0003C00
01C0000F00
0380000780
07000003C0
0E0FFE01C0
1C0FFF00E0
380FFF8070
380E07C070
700E03C038
700E03C038
700E01E01C
E00E01C01C
E00E03C01C
E00E03C01C
E00E07801C
E00FFF001C
E00FFE001C
E00FFC001C
E00E1E001C
E00E0F001C
F00E0F001C
700E07803C
700E07C038
780E03C078
380E03E070
3C0E01E0F0
1E0E01F1E0
0F0E00F3C0
07800007C0
03C0000F80
01F0003F00
00FE01FC00
003FFFF800
000FFFE000
0001FE0000
ENDCHAR
STARTCHAR g110
ENCODING 175
SWIDTH 583 0
DWIDTH 28 0
BBX 13 3 8 30
BITMAP
FFF8
FFF8
FFF8
ENDCHAR
STARTCHAR g111
ENCODING 176
SWIDTH 333 0
DWIDTH 16 0
BBX 14 14 1 24
BITMAP
0780
1FE0
3FF0
7878
7038
E01C
E01C
E01C
E01C
7038
7878
3FF0
1FE0
0780
ENDCHAR
STARTCHAR g112
ENCODING 177
SWIDTH 667 0
DWIDTH 32 0
BBX 26 33 3 0
BITMAP
001E0000
001E0000
001E0000
001E0000
001E0000
001E0000
001E0000
001E0000
001E0000
001E0000
001E0000
FFFFFFC0
FFFFFFC0
FFFFFFC0
FFFFFFC0
001E0000
001E0000
001E0000
001E0000
001E0000
001E0000
001E0000
001E0000
001E0000
001E0000
001E0000
00000000
00000000
00000000
FFFFFFC0
FFFFFFC0
FFFFFFC0
FFFFFFC0
ENDCHAR
STARTCHAR g113
ENCODING 180
SWIDTH 583 0
DWIDTH 28 0
BBX 12 8 7 30
BITMAP
01F0
03E0
07C0
0F80
1F00
3E00
7C00
F800
ENDCHAR
STARTCHAR g114
ENCODING 181
SWIDTH 583 0
DWIDTH 28 0
BBX 28 35 -1 -9
BITMAP
01E000F0
03E000F0
03E001F0
03C001F0
03C001E0
03C001E0
07C001E0
07C003E0
078003E0
078003C0
078003C0
078003C0
0F8007C0
0F0007C0
0F000780
0F000780
0F000F80
1F000F80
1F001F80
1F001F00
1F003F00
1F00FF00
3FC3FF00
3FFFDF00
3FFF9E00
3DFE1E00
3CF80000
7C000000
78000000
78000000
78000000
78000000
F8000000
F0000000
F0000000
ENDCHAR
STARTCHAR g115
ENCODING 182
SWIDTH 667 0
DWIDTH 32 0
BBX 29 45 2 -9
BITMAP
007FFFF8
03FFFFF8
0FFFFFF8
1FFFFFF8
3FFF8780
3FFF8780
7FFF8780
7FFF8780
7FFF8780
FFFF8780
FFFF8780
FFFF8780
7FFF8780
7FFF8780
7FFF8780
3FFF8780
1FFF8780
0FFF8780
07FF8780
01FF8780
00078780
00078780
00078780
00078780
00078780
00078780
00078780
00078780
00078780
00078780
00078780
00078780
00078780
00078780
00078780
00078780
00078780
00078780
00078780
00078780
00078780
00078780
00078780
00078780
00078780
ENDCHAR
STARTCHAR g116
ENCODING 183
SWIDTH 667 0
DWIDTH 32 0
BBX 6 6 13 10
BITMAP
FC
FC
FC
FC
FC
FC
ENDCHAR
STARTCHAR g117
ENCODING 184
SWIDTH 583 0
DWIDTH 28 0
BBX 8 10 10 -10
BITMAP
1C
1C
38
7C
7E
0F
07
8F
FF
7C
ENDCHAR
STARTCHAR g118
ENCODING 186
SWIDTH 375 0
DWIDTH 18 0
BBX 16 23 1 15
BITMAP
03C0
0FF0
1FF8
3E7C
781E
781E
F00F
F00F
E007
E007
F00F
F00F
781E
781E
3E7C
1FF8
0FF0
03C0
0000
0000
FFFF
FFFF
FFFF
ENDCHAR
STARTCHAR g119
ENCODING 187
SWIDTH 542 0
DWIDTH 26 0
BBX 22 20 2 3
BITMAP
F83E00
7C1F00
3E0F80
1F07C0
0F83E0
0FC3F0
07E1F8
03E0F8
03F0FC
01F07C
01F07C
03F0FC
03E0F8
07E1F8
0FC3F0
0F83E0
1F07C0
3E0F80
7C1F00
F83E00
ENDCHAR
STARTCHAR g120
ENCODING 191
SWIDTH 562 0
DWIDTH 27 0
BBX 20 37 4 -11
BITMAP
007C00
007C00
007C00
007C00
000000
000000
000000
000000
000000
007C00
007C00
007C00
007C00
007C00
007C00
007C00
007800
007800
00F000
01F000
03E000
07C000
0F8000
1F0000
3E0000
7C0000
780000
F80000
F80000
F80000
F800F0
7C00F0
7E01F0
3F03E0
1FFFC0
07FF80
01FC00
ENDCHAR
STARTCHAR g121
ENCODING 192
SWIDTH 729 0
DWIDTH 35 0
BBX 33 44 1 0
BITMAP
003E000000
001F000000
000F800000
0007C00000
0003E00000
0001F00000
0000F80000
0000000000
0000000000
0003F00000
0003F00000
0007F80000
0007F80000
000F7C0000
000F7C0000
000F7C0000
001E3E0000
001E3E0000
003C1E0000
003C1F0000
00781F0000
00780F8000
00780F8000
00F00F8000
00F007C000
01E007C000
01E003C000
01E003E000
03C003E000
03C001F000
07FFFFF000
07FFFFF000
0FFFFFF800
0FFFFFF800
0F0000FC00
1F00007C00
1E00007C00
3E00003E00
3C00003E00
3C00003E00
7C00001F00
7800001F00
F800001F80
F000000F80
ENDCHAR
STARTCHAR g122
ENCODING 193
SWIDTH 729 0
DWIDTH 35 0
BBX 33 44 1 0
BITMAP
00001F0000
00003E0000
00007C0000
0000F80000
0001F00000
0003E00000
0007C00000
0000000000
0000000000
0003F00000
0003F00000
0007F80000
0007F80000
000F7C0000
000F7C0000
000F7C0000
001E3E0000
001E3E0000
003C1E0000
003C1F0000
00781F0000
00780F8000
00780F8000
00F00F8000
00F007C000
01E007C000
01E003C000
01E003E000
03C003E000
03C001F000
07FFFFF000
07FFFFF000
0FFFFFF800
0FFFFFF800
0F0000FC00
1F00007C00
1E00007C00
3E00003E00
3C00003E00
3C00003E00
7C00001F00
7800001F00
F800001F80
F000000F80
ENDCHAR
STARTCHAR g123
ENCODING 194
SWIDTH 729 0
DWIDTH 35 0
BBX 33 44 1 0
BITMAP
0000C00000
0001E00000
0003F00000
0007F80000
000F3C0000
001E1E0000
003C0F0000
0038070000
0000000000
0003F00000
0003F00000
0007F80000
0007F80000
000F7C0000
000F7C0000
000F7C0000
001E3E0000
001E3E0000
003C1E0000
003C1F0000
00781F0000
00780F8000
00780F8000
00F00F8000
00F007C000
01E007C000
01E003C000
01E003E000
03C003E000
03C001F000
07FFFFF000
07FFFFF000
0FFFFFF800
0FFFFFF800
0F0000FC00
1F00007C00
1E00007C00
3E00003E00
3C00003E00
3C00003E00
7C00001F00
7800001F00
F800001F80
F000000F80
ENDCHAR
STARTCHAR g124
ENCODING 195
SWIDTH 729 0
DWIDTH 35 0
BBX 33 43 1 0
BITMAP
000F838000
001FC38000
003FF38000
0039FF8000
00387F0000
00383E0000
0000000000
0000000000
0003F00000
0003F00000
0007F80000
0007F80000
000F7C0000
000F7C0000
000F7C0000
001E3E0000
001E3E0000
003C1E0000
003C1F0000
00781F0000
00780F8000
00780F8000
00F00F8000
00F007C000
01E007C000
01E003C000
01E003E000
03C003E000
03C001F000
07FFFFF000
07FFFFF000
0FFFFFF800
0FFFFFF800
0F0000FC00
1F00007C00
1E00007C00
3E00003E00
3C00003E00
3C00003E00
7C00001F00
7800001F00
F800001F80
F000000F80
ENDCHAR
STARTCHAR g125
ENCODING 196
SWIDTH 729 0
DWIDTH 35 0
BBX 33 43 1 0
BITMAP
007C0F8000
007C0F8000
007C0F8000
007C0F8000
007C0F8000
0000000000
0000000000
0003F00000
0003F00000
0003F00000
0007F80000
0007F80000
000F7C0000
000F7C0000
000F7C0000
001E3E0000
001E3E0000
003C1E0000
003C1F0000
00781F0000
00780F8000
00780F8000
00F00F8000
00F007C000
01E007C000
01E003C000
01E003E000
03C003E000
03C001F000
07FFFFF000
07FFFFF000
0FFFFFF800
0FFFFFF800
0F0000FC00
1F00007C00
1E00007C00
3E00003E00
3C00003E00
3C00003E00
7C00001F00
7800001F00
F800001F80
F000000F80
ENDCHAR
STARTCHAR g126
ENCODING 197
SWIDTH 729 0
DWIDTH 35 0
BBX 33 44 1 0
BITMAP
0001E00000
0003F00000
0007380000
0006180000
0006180000
0007380000
0007F80000
0003F00000
0003F00000
0003F00000
0003F00000
0007F80000
0007F80000
000F7C0000
000F7C0000
000F7C0000
001E3E0000
001E3E0000
003C1E0000
003C1F0000
00781F0000
00780F8000
00780F8000
00F00F8000
00F007C000
01E007C000
01E003E000
01E003E000
03C003E000
03C001F000
07FFFFF000
07FFFFF000
0FFFFFF800
0FFFFFF800
0F0000FC00
1F00007C00
1E00007C00
3E00003E00
3C00003E00
3C00003E00
7C00001F00
7800001F00
F800001F80
F000000F80
ENDCHAR
STARTCHAR g127
ENCODING 198
SWIDTH 1000 0
DWIDTH 48 0
BBX 45 36 0 0
BITMAP
000001FFFFF0
000001FFFFF0
000003FFFFF0
000007FFFFF0
000007F00000
00000FF00000
00001FF00000
00001FF00000
00003FF00000
00007DF00000
000079F00000
0000F1F00000
0001F1F00000
0001E1F00000
0003E1F00000
0007C1FFFFC0
000781FFFFC0
000F81FFFFC0
001F01FFFFC0
001E01F00000
003E01F00000
007C01F00000
007FFFF00000
00FFFFF00000
01FFFFF00000
01FFFFF00000
03E001F00000
03C001F00000
07C001F00000
0F8001F00000
0F0001F00000
1F0001F00000
3E0001FFFFF8
3C0001FFFFF8
7C0001FFFFF8
F80001FFFFF8
ENDCHAR
STARTCHAR g128
ENCODING 199
SWIDTH 646 0
DWIDTH 31 0
BBX 27 47 2 -10
BITMAP
001FF000
007FFE00
01FFFF00
03F01F80
07C007C0
0F8003E0
1F0001E0
3E0001E0
3E000000
7C000000
7C000000
7C000000
F8000000
F8000000
F8000000
F8000000
F8000000
F8000000
F8000000
F8000000
F8000000
F8000000
F8000000
F8000000
F8000000
FC000000
7C000000
7C000000
7E000000
3E0001E0
3F0003E0
1F8003E0
1FC007C0
0FF01FC0
07FFFF80
01FFFF00
00FFFC00
001FE000
00070000
00060000
000F8000
001FC000
0001E000
0000E000
0011E000
001FC000
000F8000
ENDCHAR
STARTCHAR g129
ENCODING 200
SWIDTH 583 0
DWIDTH 28 0
BBX 22 44 3 0
BITMAP
03E000
01F000
00F800
007C00
003E00
001F00
000000
000000
FFFFF8
FFFFF8
FFFFF8
FFFFF8
F80000
F80000
F80000
F80000
F80000
F80000
F80000
F80000
F80000
F80000
F80000
FFFFE0
FFFFE0
FFFFE0
FFFFE0
F80000
F80000
F80000
F80000
F80000
F80000
F80000
F80000
F80000
F80000
F80000
F80000
F80000
FFFFFC
FFFFFC
FFFFFC
FFFFFC
ENDCHAR
STARTCHAR g130
ENCODING 201
SWIDTH 583 0
DWIDTH 28 0
BBX 22 44 3 0
BITMAP
000F80
001F00
003E00
007C00
00F800
01F000
000000
000000
FFFFF8
FFFFF8
FFFFF8
FFFFF8
F80000
F80000
F80000
F80000
F80000
F80000
F80000
F80000
F80000
F80000
F80000
FFFFE0
FFFFE0
FFFFE0
FFFFE0
F80000
F80000
F80000
F80000
F80000
F80000
F80000
F80000
F80000
F80000
F80000
F80000
F80000
FFFFFC
FFFFFC
FFFFFC
FFFFFC
ENDCHAR
STARTCHAR g131
ENCODING 202
SWIDTH 583 0
DWIDTH 28 0
BBX 22 44 3 0
BITMAP
003800
007C00
00FE00
01EF00
03C780
0783C0
0701C0
000000
FFFFF8
FFFFF8
FFFFF8
FFFFF8
F80000
F80000
F80000
F80000
F80000
F80000
F80000
F80000
F80000
F80000
F80000
FFFFE0
FFFFE0
FFFFE0
FFFFE0
F80000
F80000
F80000
F80000
F80000
F80000
F80000
F80000
F80000
F80000
F80000
F80000
F80000
FFFFFC
FFFFFC
FFFFFC
FFFFFC
ENDCHAR
STARTCHAR g132
ENCODING 203
SWIDTH 583 0
DWIDTH 28 0
BBX 22 43 3 0
BITMAP
0F83E0
0F83E0
0F83E0
0F83E0
0F83E0
000000
000000
FFFFF8
FFFFF8
FFFFF8
FFFFF8
F80000
F80000
F80000
F80000
F80000
F80000
F80000
F80000
F80000
F80000
F80000
FFFFE0
FFFFE0
FFFFE0
FFFFE0
F80000
F80000
F80000
F80000
F80000
F80000
F80000
F80000
F80000
F80000
F80000
F80000
F80000
FFFFFC
FFFFFC
FFFFFC
FFFFFC
ENDCHAR
STARTCHAR g133
ENCODING 204
SWIDTH 250 0
DWIDTH 12 0
BBX 10 44 -1 0
BITMAP
F800
7C00
3E00
1F00
0F80
07C0
0000
0000
0F80
0F80
0F80
0F80
0F80
0F80
0F80
0F80
0F80
0F80
0F80
0F80
0F80
0F80
0F80
0F80
0F80
0F80
0F80
0F80
0F80
0F80
0F80
0F80
0F80
0F80
0F80
0F80
0F80
0F80
0F80
0F80
0F80
0F80
0F80
0F80
ENDCHAR
STARTCHAR g134
ENCODING 205
SWIDTH 229 0
DWIDTH 11 0
BBX 10 44 2 0
BITMAP
07C0
0F80
1F00
3E00
7C00
F800
0000
0000
7C00
7C00
7C00
7C00
7C00
7C00
7C00
7C00
7C00
7C00
7C00
7C00
7C00
7C00
7C00
7C00
7C00
7C00
7C00
7C00
7C00
7C00
7C00
7C00
7C00
7C00
7C00
7C00
7C00
7C00
7C00
7C00
7C00
7C00
7C00
7C00
ENDCHAR
STARTCHAR g135
ENCODING 206
SWIDTH 250 0
DWIDTH 12 0
BBX 13 44 -1 0
BITMAP
0700
0F80
1FC0
3DE0
78F0
F078
E038
0000
0F80
0F80
0F80
0F80
0F80
0F80
0F80
0F80
0F80
0F80
0F80
0F80
0F80
0F80
0F80
0F80
0F80
0F80
0F80
0F80
0F80
0F80
0F80
0F80
0F80
0F80
0F80
0F80
0F80
0F80
0F80
0F80
0F80
0F80
0F80
0F80
ENDCHAR
STARTCHAR g136
ENCODING 207
SWIDTH 271 0
DWIDTH 13 0
BBX 15 43 -1 0
BITMAP
F83E
F83E
F83E
F83E
F83E
0000
0000
07C0
07C0
07C0
07C0
07C0
07C0
07C0
07C0
07C0
07C0
07C0
07C0
07C0
07C0
07C0
07C0
07C0
07C0
07C0
07C0
07C0
07C0
07C0
07C0
07C0
07C0
07C0
07C0
07C0
07C0
07C0
07C0
07C0
07C0
07C0
07C0
ENDCHAR
STARTCHAR g137
ENCODING 209
SWIDTH 708 0
DWIDTH 34 0
BBX 28 44 3 0
BITMAP
007C1C00
00FE1C00
01FF9C00
01CFFC00
01C3F800
01C1F000
00000000
00000000
F80001F0
FC0001F0
FE0001F0
FE0001F0
FF0001F0
FF8001F0
FF8001F0
FFC001F0
FFE001F0
FBE001F0
F9F001F0
F9F801F0
F8F801F0
F87C01F0
F87E01F0
F83E01F0
F83F01F0
F81F81F0
F80F81F0
F80FC1F0
F807E1F0
F803E1F0
F803F1F0
F801F9F0
F800F9F0
F800FDF0
F8007DF0
F8007FF0
F8003FF0
F8001FF0
F8001FF0
F8000FF0
F80007F0
F80007F0
F80003F0
F80001F0
ENDCHAR
STARTCHAR g138
ENCODING 210
SWIDTH 729 0
DWIDTH 35 0
BBX 31 45 2 -1
BITMAP
001F0000
000F8000
0007C000
0003E000
0001F000
00000000
00000000
000FF000
007FFC00
01FFFF00
03F81F80
07E007C0
0F8003E0
1F0001F0
1F0000F8
3E0000F8
3E00007C
7C00007C
7C00007C
7C00003C
7800003E
F800003E
F800003E
F800003E
F800003E
F800003E
F800003E
F800003E
F800003E
F800003E
F800003E
7C00003E
7C00007C
7C00007C
7E00007C
3E0000FC
3F0000F8
1F0001F8
1F8003F0
0FE007E0
07F81FC0
03FFFF80
01FFFF00
007FFC00
000FF000
ENDCHAR
STARTCHAR g139
ENCODING 211
SWIDTH 729 0
DWIDTH 35 0
BBX 31 45 2 -1
BITMAP
00007C00
0000F800
0001F000
0003E000
0007C000
00000000
00000000
000FF000
007FFC00
01FFFF00
03F81F80
07E007C0
0F8003E0
1F0001F0
1F0000F8
3E0000F8
3E00007C
7C00007C
7C00007C
7C00003C
7800003E
F800003E
F800003E
F800003E
F800003E
F800003E
F800003E
F800003E
F800003E
F800003E
F800003E
7C00003E
7C00007C
7C00007C
7E00007C
3E0000FC
3F0000F8
1F0001F8
1F8003F0
0FE007E0
07F81FC0
03FFFF80
01FFFF00
007FFC00
000FF000
ENDCHAR
STARTCHAR g140
ENCODING 212
SWIDTH 729 0
DWIDTH 35 0
BBX 31 45 2 -1
BITMAP
00038000
0007C000
000FE000
001EF000
003C7800
00383800
00000000
000FF000
007FFC00
01FFFF00
03F81F80
07E007C0
0F8003E0
1F0001F0
1F0000F8
3E0000F8
3E00007C
7C00007C
7C00007C
7C00003C
7800003E
F800003E
F800003E
F800003E
F800003E
F800003E
F800003E
F800003E
F800003E
F800003E
F800003E
7C00003E
7C00007C
7C00007C
7E00007C
3E0000FC
3F0000F8
1F0001F8
1F8003F0
0FE007E0
07F81FC0
03FFFF80
01FFFF00
007FFC00
000FF000
ENDCHAR
STARTCHAR g141
ENCODING 213
SWIDTH 729 0
DWIDTH 35 0
BBX 31 45 2 -1
BITMAP
001F0700
003F8700
007FE700
0073FF00
0070FE00
00707C00
00000000
000FF000
007FFC00
01FFFF00
03F81F80
07E007C0
0F8003E0
1F0001F0
1F0000F8
3E0000F8
3E00007C
7C00007C
7C00007C
7C00003C
7800003E
F800003E
F800003E
F800003E
F800003E
F800003E
F800003E
F800003E
F800003E
F800003E
F800003E
7C00003E
7C00007C
7C00007C
7E00007C
3E0000FC
3F0000F8
1F0001F8
1F8003F0
0FE007E0
07F81FC0
03FFFF80
01FFFF00
007FFC00
000FF000
ENDCHAR
STARTCHAR g142
ENCODING 214
SWIDTH 729 0
DWIDTH 35 0
BBX 31 45 2 -1
BITMAP
00F81F00
00F81F00
00F81F00
00F81F00
00F81F00
00000000
00000000
000FF000
007FFC00
01FFFF00
03F81F80
07E007C0
0F8003E0
1F0001F0
1F0000F8
3E0000F8
3E00007C
7C00007C
7C00007C
7C00003C
7800003E
F800003E
F800003E
F800003E
F800003E
F800003E
F800003E
F800003E
F800003E
F800003E
F800003E
7C00003E
7C00007C
7C00007C
7E00007C
3E0000FC
3F0000F8
1F0001F8
1F8003F0
0FE007E0
07F81FC0
03FFFF80
01FFFF00
007FFC00
000FF000
ENDCHAR
STARTCHAR g143
ENCODING 216
SWIDTH 729 0
DWIDTH 35 0
BBX 31 39 2 -1
BITMAP
0000000E
000FE01E
007FFC3C
01FFFF78
03F01FF8
07C007F0
0F8003E0
1F0003F0
1F0007F0
3E000FF8
3C000F78
7C001E7C
7C003E7C
7C003C3C
7800783E
F800F83E
F801F03E
F801E03E
F803C03E
F807C03E
F807803E
F80F003E
F81F003E
F81E003E
783C003E
7C7C003E
7C78007C
7CF0007C
7FF0007C
3FE000FC
3FC000F8
1F8001F8
1F8003F0
0FE007E0
1FF81FC0
1FFFFF80
3DFFFF00
787FFC00
F00FF000
ENDCHAR
STARTCHAR g144
ENCODING 217
SWIDTH 667 0
DWIDTH 32 0
BBX 26 45 3 -1
BITMAP
03E00000
01F00000
00F80000
007C0000
003E0000
001F0000
000F8000
00000000
F80003C0
F80003C0
F80003C0
F80003C0
F80003C0
F80003C0
F80003C0
F80003C0
F80003C0
F80003C0
F80003C0
F80003C0
F80003C0
F80003C0
F80003C0
F80003C0
F80003C0
F80003C0
F80003C0
F80003C0
F80003C0
F80003C0
F80003C0
F80003C0
F80003C0
F80003C0
F80007C0
F80007C0
F80007C0
FC000780
7C000F80
7F001F80
3FC07F00
1FFFFE00
0FFFFC00
03FFF000
007FC000
ENDCHAR
STARTCHAR g145
ENCODING 218
SWIDTH 667 0
DWIDTH 32 0
BBX 26 45 3 -1
BITMAP
0001F000
0003E000
0007C000
000F8000
001F0000
003E0000
007C0000
00000000
F80003C0
F80003C0
F80003C0
F80003C0
F80003C0
F80003C0
F80003C0
F80003C0
F80003C0
F80003C0
F80003C0
F80003C0
F80003C0
F80003C0
F80003C0
F80003C0
F80003C0
F80003C0
F80003C0
F80003C0
F80003C0
F80003C0
F80003C0
F80003C0
F80003C0
F80003C0
F80007C0
F80007C0
F80007C0
FC000780
7C000F80
7F001F80
3FC07F00
1FFFFE00
0FFFFC00
03FFF000
007FC000
ENDCHAR
STARTCHAR g146
ENCODING 219
SWIDTH 667 0
DWIDTH 32 0
BBX 26 45 3 -1
BITMAP
000E0000
001F0000
003F8000
007BC000
00F1E000
01E0F000
01C07000
00000000
F80003C0
F80003C0
F80003C0
F80003C0
F80003C0
F80003C0
F80003C0
F80003C0
F80003C0
F80003C0
F80003C0
F80003C0
F80003C0
F80003C0
F80003C0
F80003C0
F80003C0
F80003C0
F80003C0
F80003C0
F80003C0
F80003C0
F80003C0
F80003C0
F80003C0
F80003C0
F80007C0
F80007C0
F80007C0
FC000780
7C000F80
7F001F80
3FC07F00
1FFFFE00
0FFFFC00
03FFF000
007FC000
ENDCHAR
STARTCHAR g147
ENCODING 220
SWIDTH 667 0
DWIDTH 32 0
BBX 26 45 3 -1
BITMAP
07C0F800
07C0F800
07C0F800
07C0F800
07C0F800
00000000
00000000
00000000
F80003C0
F80003C0
F80003C0
F80003C0
F80003C0
F80003C0
F80003C0
F80003C0
F80003C0
F80003C0
F80003C0
F80003C0
F80003C0
F80003C0
F80003C0
F80003C0
F80003C0
F80003C0
F80003C0
F80003C0
F80003C0
F80003C0
F80003C0
F80003C0
F80003C0
F80003C0
F80007C0
F80007C0
F80007C0
FC000780
7C000F80
7F001F80
3FC07F00
1FFFFE00
0FFFFC00
03FFF000
007FC000
ENDCHAR
STARTCHAR g148
ENCODING 223
SWIDTH 583 0
DWIDTH 28 0
BBX 24 39 3 -1
BITMAP
01FC00
0FFF00
1FFF80
3FFFC0
3F0FE0
7C03E0
7C03E0
F803E0
F803C0
F807C0
F80780
F80F80
F81F00
F83E00
F87C00
F87800
F8F800
F8F800
F8F800
F8FC00
F87F00
F83F80
F81FC0
F80FE0
F803F8
F801FC
F800FC
F8007E
F8003E
F8001F
F8001F
F8001F
F8001F
F8001F
F8603E
F87FFE
F87FFC
F87FF8
001FE0
ENDCHAR
STARTCHAR g149
ENCODING 224
SWIDTH 562 0
DWIDTH 27 0
BBX 21 39 3 -1
BITMAP
07C000
03E000
01F000
00F800
007C00
003E00
001F00
000F80
000000
000000
000000
01FE00
0FFF80
1FFFC0
3F07E0
7C01F0
F800F0
F800F0
F800F0
0000F0
0000F0
0000F0
001FF0
01FFF0
07FFF0
1FFCF0
3FC0F0
7E00F0
FC00F0
F800F0
F001F0
F001F0
F003F0
F807F0
FC1EF0
7FFEF8
7FF8F8
3FF0F8
0FC000
ENDCHAR
STARTCHAR g150
ENCODING 225
SWIDTH 562 0
DWIDTH 27 0
BBX 21 39 3 -1
BITMAP
000F80
001F00
003E00
007C00
00F800
01F000
03E000
07C000
000000
000000
000000
01FE00
0FFF80
1FFFC0
3F07E0
7C01F0
F800F0
F800F0
F800F0
0000F0
0000F0
0000F0
001FF0
01FFF0
07FFF0
1FFCF0
3FC0F0
7E00F0
FC00F0
F800F0
F001F0
F001F0
F003F0
F807F0
FC1EF0
7FFEF8
7FF8F8
3FF0F8
0FC000
ENDCHAR
STARTCHAR g151
ENCODING 226
SWIDTH 562 0
DWIDTH 27 0
BBX 21 39 3 -1
BITMAP
002000
007000
00F800
01FC00
03DE00
078F00
0F0780
0E0380
000000
000000
000000
01FE00
0FFF80
1FFFC0
3F07E0
7C01F0
F800F0
F800F0
F800F0
0000F0
0000F0
0000F0
001FF0
01FFF0
07FFF0
1FFCF0
3FC0F0
7E00F0
FC00F0
F800F0
F001F0
F001F0
F003F0
F807F0
FC1EF0
7FFEF8
7FF8F8
3FF0F8
0FC000
ENDCHAR
STARTCHAR g152
ENCODING 227
SWIDTH 562 0
DWIDTH 27 0
BBX 21 37 3 -1
BITMAP
07C1C0
0FE1C0
1FF9C0
1CFFC0
1C3F80
1C1F00
000000
000000
000000
01FE00
0FFF80
1FFFC0
3F07E0
7C01F0
F800F0
F800F0
F800F0
0000F0
0000F0
0000F0
001FF0
01FFF0
07FFF0
1FFCF0
3FC0F0
7E00F0
FC00F0
F800F0
F001F0
F001F0
F003F0
F807F0
FC1EF0
7FFEF8
7FF8F8
3FF0F8
0FC000
ENDCHAR
STARTCHAR g153
ENCODING 228
SWIDTH 562 0
DWIDTH 27 0
BBX 21 36 3 -1
BITMAP
1E07C0
1E07C0
1E07C0
1E07C0
1E07C0
000000
000000
000000
01FE00
0FFF80
1FFFC0
3F07E0
7C01F0
F800F0
F800F0
F800F0
0000F0
0000F0
0000F0
001FF0
01FFF0
07FFF0
1FFCF0
3FC0F0
7E00F0
FC00F0
F800F0
F001F0
F001F0
F003F0
F807F0
FC1EF0
7FFEF8
7FF8F8
3FF0F8
0FC000
ENDCHAR
STARTCHAR g154
ENCODING 229
SWIDTH 562 0
DWIDTH 27 0
BBX 21 40 3 -1
BITMAP
00F000
03FC00
039C00
070E00
070E00
070E00
039C00
03FC00
00F000
000000
000000
000000
01FE00
0FFF80
1FFFC0
3F07E0
7C01F0
F800F0
F800F0
F800F0
0000F0
0000F0
0000F0
001FF0
01FFF0
07FFF0
1FFCF0
3FC0F0
7E00F0
FC00F0
F800F0
F001F0
F001F0
F003F0
F807F0
FC1EF0
7FFEF8
7FF8F8
3FF0F8
0FC000
ENDCHAR
STARTCHAR g155
ENCODING 230
SWIDTH 938 0
DWIDTH 45 0
BBX 39 28 3 -1
BITMAP
01FC007F00
0FFF81FFC0
1FFFC7FFE0
3F07EFFFF0
7C01EF81F8
F800FF00FC
F800FE007C
F800FC003C
0000F8003E
0000F8001E
0000F8001E
000FFFFFFE
00FFFFFFFE
07FFFFFFFE
1FFCF00000
3FE0F00000
7F00F80000
FC00F80000
F800F80000
F800FC0000
F001FC003E
F803FE003E
F807DF007C
FE1F9FC0FC
7FFF0FFFF8
7FFE07FFF0
3FFC03FFE0
0FE0007F00
ENDCHAR
STARTCHAR g156
ENCODING 231
SWIDTH 542 0
DWIDTH 26 0
BBX 22 37 2 -10
BITMAP
00FF00
03FFC0
07FFF0
1FFFF8
1FC1F8
3F007C
3E003C
7C003C
7C0000
780000
F80000
F80000
F80000
F80000
F80000
F80000
F80000
F80000
780000
7C0000
7C003C
3E003C
3F007C
1FC1F8
0FFFF0
07FFE0
01FF80
003800
003800
007000
007C00
00FE00
000F00
000700
008F00
00FE00
007C00
ENDCHAR
STARTCHAR g157
ENCODING 232
SWIDTH 583 0
DWIDTH 28 0
BBX 22 39 3 -1
BITMAP
07C000
03E000
01F000
00F800
007C00
003E00
001F00
000F80
000000
000000
000000
00FE00
03FFC0
07FFE0
1FFFF0
1F83F8
3E00F8
7C007C
78003C
F8003C
F8003C
F0003C
FFFFFC
FFFFFC
FFFFFC
F00000
F00000
F00000
F00000
F80000
F80000
7C003C
7C003C
3E007C
3F81F8
1FFFF8
0FFFF0
03FFC0
00FF00
ENDCHAR
STARTCHAR g158
ENCODING 233
SWIDTH 583 0
DWIDTH 28 0
BBX 22 39 3 -1
BITMAP
0007C0
000F80
001F00
003E00
007C00
00F800
01F000
03E000
000000
000000
000000
00FE00
03FFC0
07FFE0
1FFFF0
1F83F8
3E00F8
7C007C
78003C
F8003C
F8003C
F0003C
FFFFFC
FFFFFC
FFFFFC
F00000
F00000
F00000
F00000
F80000
F80000
7C003C
7C003C
3E007C
3F81F8
1FFFF8
0FFFF0
03FFC0
00FF00
ENDCHAR
STARTCHAR g159
ENCODING 234
SWIDTH 583 0
DWIDTH 28 0
BBX 22 39 3 -1
BITMAP
001000
003800
007C00
00FE00
01EF00
03C780
0783C0
0701C0
000000
000000
000000
00FE00
03FFC0
07FFE0
1FFFF0
1F83F8
3E00F8
7C007C
78003C
F8003C
F8003C
F0003C
FFFFFC
FFFFFC
FFFFFC
F00000
F00000
F00000
F00000
F80000
F80000
7C003C
7C003C
3E007C
3F81F8
1FFFF8
0FFFF0
03FFC0
00FF00
ENDCHAR
STARTCHAR g160
ENCODING 235
SWIDTH 583 0
DWIDTH 28 0
BBX 22 36 3 -1
BITMAP
0F83E0
0F83E0
0F83E0
0F83E0
0F83E0
000000
000000
000000
00FE00
03FFC0
07FFE0
1FFFF0
1F83F8
3E00F8
7C007C
78003C
F8003C
F8003C
F0003C
FFFFFC
FFFFFC
FFFFFC
F00000
F00000
F00000
F00000
F80000
F80000
7C003C
7C003C
3E007C
3F81F8
1FFFF8
0FFFF0
03FFC0
00FF00
ENDCHAR
STARTCHAR g161
ENCODING 236
SWIDTH 229 0
DWIDTH 11 0
BBX 12 38 0 0
BITMAP
F800
7C00
3E00
1F00
0F80
07C0
03E0
01F0
0000
0000
0000
0000
1F00
1F00
1F00
1F00
1F00
1F00
1F00
1F00
1F00
1F00
1F00
1F00
1F00
1F00
1F00
1F00
1F00
1F00
1F00
1F00
1F00
1F00
1F00
1F00
1F00
1F00
ENDCHAR
STARTCHAR g162
ENCODING 237
SWIDTH 229 0
DWIDTH 11 0
BBX 12 38 0 0
BITMAP
01F0
03E0
07C0
0F80
1F00
3E00
7C00
F800
0000
0000
0000
0000
1F00
1F00
1F00
1F00
1F00
1F00
1F00
1F00
1F00
1F00
1F00
1F00
1F00
1F00
1F00
1F00
1F00
1F00
1F00
1F00
1F00
1F00
1F00
1F00
1F00
1F00
ENDCHAR
STARTCHAR g163
ENCODING 238
SWIDTH 229 0
DWIDTH 11 0
BBX 13 38 -1 0
BITMAP
0200
0700
0F80
1FC0
3DE0
78F0
F078
E038
0000
0000
0000
0000
0F80
0F80
0F80
0F80
0F80
0F80
0F80
0F80
0F80
0F80
0F80
0F80
0F80
0F80
0F80
0F80
0F80
0F80
0F80
0F80
0F80
0F80
0F80
0F80
0F80
0F80
ENDCHAR
STARTCHAR g164
ENCODING 239
SWIDTH 229 0
DWIDTH 11 0
BBX 15 35 -2 0
BITMAP
F83E
F83E
F83E
F83E
F83E
0000
0000
0000
0000
07C0
07C0
07C0
07C0
07C0
07C0
07C0
07C0
07C0
07C0
07C0
07C0
07C0
07C0
07C0
07C0
07C0
07C0
07C0
07C0
07C0
07C0
07C0
07C0
07C0
07C0
ENDCHAR
STARTCHAR g165
ENCODING 241
SWIDTH 583 0
DWIDTH 28 0
BBX 22 36 3 0
BITMAP
03E0E0
07F0E0
0FFCE0
0E7FE0
0E1FC0
0E0F80
000000
000000
000000
003F80
F8FFE0
F9FFF0
FBFFF8
FFC3F8
FF00F8
FE007C
FC007C
FC007C
F8007C
F8007C
F8003C
F8003C
F8003C
F8003C
F8003C
F8003C
F8003C
F8003C
F8003C
F8003C
F8003C
F8003C
F8003C
F8003C
F8003C
F8003C
ENDCHAR
STARTCHAR g166
ENCODING 242
SWIDTH 604 0
DWIDTH 29 0
BBX 25 39 2 -1
BITMAP
03E00000
01F00000
00F80000
007C0000
003E0000
001F0000
000F8000
0007C000
00000000
00000000
00000000
007F0000
01FFE000
07FFF000
0FFFF800
1FC1FC00
3F007E00
3E003E00
7C001F00
7C001F00
78000F00
F8000F80
F8000F80
F8000F80
F8000F80
F8000F80
F8000F80
F8000F80
F8000F80
78000F00
7C001F00
7C001F00
3E003E00
3F007E00
1FC1FC00
0FFFF800
07FFF000
01FFE000
007F0000
ENDCHAR
STARTCHAR g167
ENCODING 243
SWIDTH 604 0
DWIDTH 29 0
BBX 25 39 2 -1
BITMAP
0001F000
0003E000
0007C000
000F8000
001F0000
003E0000
007C0000
00F80000
00000000
00000000
00000000
007F0000
01FFE000
07FFF000
0FFFF800
1FC1FC00
3F007E00
3E003E00
7C001F00
7C001F00
78000F00
F8000F80
F8000F80
F8000F80
F8000F80
F8000F80
F8000F80
F8000F80
F8000F80
78000F00
7C001F00
7C001F00
3E003E00
3F007E00
1FC1FC00
0FFFF800
07FFF000
01FFE000
007F0000
ENDCHAR
STARTCHAR g168
ENCODING 244
SWIDTH 604 0
DWIDTH 29 0
BBX 25 39 2 -1
BITMAP
00080000
001C0000
003E0000
007F0000
00F78000
01E3C000
03C1E000
0380E000
00000000
00000000
00000000
007F0000
01FFE000
07FFF000
0FFFF800
1FC1FC00
3F007E00
3E003E00
7C001F00
7C001F00
78000F00
F8000F80
F8000F80
F8000F80
F8000F80
F8000F80
F8000F80
F8000F80
F8000F80
78000F00
7C001F00
7C001F00
3E003E00
3F007E00
1FC1FC00
0FFFF800
07FFF000
01FFE000
007F0000
ENDCHAR
STARTCHAR g169
ENCODING 245
SWIDTH 604 0
DWIDTH 29 0
BBX 25 37 2 -1
BITMAP
01F07000
03F87000
07FE7000
073FF000
070FE000
0707C000
00000000
00000000
00000000
007F0000
01FFE000
07FFF000
0FFFF800
1FC1FC00
3F007E00
3E003E00
7C001F00
7C001F00
78000F00
F8000F80
F8000F80
F8000F80
F8000F80
F8000F80
F8000F80
F8000F80
F8000F80
78000F00
7C001F00
7C001F00
3E003E00
3F007E00
1FC1FC00
0FFFF800
07FFF000
01FFE000
007F0000
ENDCHAR
STARTCHAR g170
ENCODING 246
SWIDTH 604 0
DWIDTH 29 0
BBX 25 36 2 -1
BITMAP
07C1F000
07C1F000
07C1F000
07C1F000
07C1F000
00000000
00000000
00000000
007F0000
01FFE000
07FFF000
0FFFF800
1FC1FC00
3F007E00
3E003E00
7C001F00
7C001F00
78000F00
F8000F80
F8000F80
F8000F80
F8000F80
F8000F80
F8000F80
F8000F80
F8000F80
78000F00
7C001F00
7C001F00
3E003E00
3F007E00
1FC1FC00
0FFFF800
07FFF000
01FFE000
007F0000
ENDCHAR
STARTCHAR g171
ENCODING 247
SWIDTH 667 0
DWIDTH 32 0
BBX 26 20 3 3
BITMAP
001E0000
001E0000
001E0000
001E0000
00000000
00000000
00000000
00000000
FFFFFFC0
FFFFFFC0
FFFFFFC0
FFFFFFC0
00000000
00000000
00000000
00000000
001E0000
001E0000
001E0000
001E0000
ENDCHAR
STARTCHAR g172
ENCODING 248
SWIDTH 604 0
DWIDTH 29 0
BBX 25 28 2 -1
BITMAP
007F0780
01FFEF00
07FFFE00
0FFFFC00
1FC1FC00
3F007E00
3E00FE00
7C01FF00
7C01FF00
7803CF00
F8078F80
F80F0F80
F80F0F80
F81E0F80
F83C0F80
F8780F80
F8780F80
78F00F80
79E00F00
7FC01F00
7FC01F00
3F803E00
3F007E00
1FC1FC00
1FFFF800
3FFFF000
79FFC000
F87F0000
ENDCHAR
STARTCHAR g173
ENCODING 249
SWIDTH 583 0
DWIDTH 28 0
BBX 22 39 3 -1
BITMAP
0F8000
07C000
03E000
01F000
00F800
007C00
003E00
001F00
000000
000000
000000
000000
F0007C
F0007C
F0007C
F0007C
F0007C
F0007C
F0007C
F0007C
F0007C
F0007C
F0007C
F0007C
F0007C
F0007C
F0007C
F0007C
F0007C
F8007C
F800FC
F800FC
F801FC
7C03FC
7E0F7C
7FFF7C
3FFE7C
1FF87C
07E000
ENDCHAR
STARTCHAR g174
ENCODING 250
SWIDTH 583 0
DWIDTH 28 0
BBX 22 39 3 -1
BITMAP
0007C0
000F80
001F00
003E00
007C00
00F800
01F000
03E000
000000
000000
000000
000000
F0007C
F0007C
F0007C
F0007C
F0007C
F0007C
F0007C
F0007C
F0007C
F0007C
F0007C
F0007C
F0007C
F0007C
F0007C
F0007C
F0007C
F8007C
F800FC
F800FC
F801FC
7C03FC
7E0F7C
7FFF7C
3FFE7C
1FF87C
07E000
ENDCHAR
STARTCHAR g175
ENCODING 251
SWIDTH 583 0
DWIDTH 28 0
BBX 22 39 3 -1
BITMAP
002000
007000
00F800
01FC00
03DE00
078F00
0F0780
0E0380
000000
000000
000000
000000
F0007C
F0007C
F0007C
F0007C
F0007C
F0007C
F0007C
F0007C
F0007C
F0007C
F0007C
F0007C
F0007C
F0007C
F0007C
F0007C
F0007C
F8007C
F800FC
F800FC
F801FC
7C03FC
7E0F7C
7FFF7C
3FFE7C
1FF87C
07E000
ENDCHAR
STARTCHAR g176
ENCODING 252
SWIDTH 583 0
DWIDTH 28 0
BBX 22 36 3 -1
BITMAP
1F07C0
1F07C0
1F07C0
1F07C0
1F07C0
000000
000000
000000
000000
F8007C
F8007C
F8007C
F8007C
F8007C
F8007C
F8007C
F8007C
F8007C
F8007C
F8007C
F8007C
F8007C
F8007C
F8007C
F8007C
F8007C
F8007C
F800FC
F800FC
F801FC
FC03FC
7E0F7C
7FFF7C
3FFE7C
1FF87C
07E000
ENDCHAR
STARTCHAR g177
ENCODING 255
SWIDTH 562 0
DWIDTH 27 0
BBX 26 45 1 -10
BITMAP
03E0F800
03E0F800
03E0F800
03E0F800
03E0F800
00000000
00000000
00000000
00000000
F80007C0
F8000780
7C000F80
7C000F00
3E000F00
3E001F00
1F001E00
1F003E00
0F003C00
0F807C00
0F807800
07C07800
07C0F800
03E0F000
03E1F000
01F1E000
01F3E000
00FBC000
00FBC000
007FC000
007F8000
007F8000
003F0000
003F0000
001E0000
001E0000
003E0000
003C0000
007C0000
00780000
00F80000
01F00000
FFE00000
FFE00000
FF800000
FE000000
ENDCHAR
STARTCHAR g178
ENCODING 305
SWIDTH 229 0
DWIDTH 11 0
BBX 5 26 3 0
BITMAP
F8
F8
F8
F8
F8
F8
F8
F8
F8
F8
F8
F8
F8
F8
F8
F8
F8
F8
F8
F8
F8
F8
F8
F8
F8
F8
ENDCHAR
STARTCHAR g179
ENCODING 338
SWIDTH 1083 0
DWIDTH 52 0
BBX 48 38 2 -1
BITMAP
000FF0000000
007FFC3FFFFE
01FFFF3FFFFE
03F81FBFFFFE
07E007FFFFFE
0F8003FE0000
1F0001FE0000
1F0000FE0000
3E0000FE0000
3E00007E0000
7C00007E0000
7C00007E0000
7C00003E0000
7800003E0000
F800003E0000
F800003E0000
F800003FFFF8
F800003FFFF8
F800003FFFF8
F800003FFFF8
F800003E0000
F800003E0000
F800003E0000
F800003E0000
7C00003E0000
7C00007E0000
7C00007E0000
7E00007E0000
3E0000FE0000
3F0000FE0000
1F0001FE0000
1F8003FE0000
0FE007FE0000
07F81FFFFFFF
03FFFFBFFFFF
01FFFF3FFFFF
007FFC3FFFFF
000FF0000000
ENDCHAR
STARTCHAR g180
ENCODING 339
SWIDTH 1000 0
DWIDTH 48 0
BBX 43 28 2 -1
BITMAP
007F0007F000
01FFE01FFC00
07FFF07FFF00
0FFFF8FFFF80
1FC1FDFC1F80
3F007FF007C0
3E003FE003C0
7C001FC003E0
7C001FC001E0
78000F8001E0
F8000F8001E0
F8000FFFFFE0
F8000FFFFFE0
F8000FFFFFE0
F8000F800000
F8000F800000
F8000F800000
F8000F800000
78000F800000
7C001FC00000
7C001FC001E0
3E003FE003E0
3F007DF003E0
1FC1FCFC0FC0
0FFFF87FFF80
07FFF03FFF00
01FFC01FFE00
007F0007F800
ENDCHAR
STARTCHAR g181
ENCODING 376
SWIDTH 604 0
DWIDTH 29 0
BBX 28 43 1 0
BITMAP
03E07C00
03E07C00
03E07C00
03E07C00
03E07C00
00000000
00000000
F80001F0
FC0003E0
7E0003C0
3E0007C0
3F000F80
1F800F00
0F801F00
0FC03E00
07E03E00
07E07C00
03F0F800
01F8F800
01F9F000
00FFE000
007FE000
007FC000
003FC000
003F8000
001F0000
001F0000
001F0000
001F0000
001F0000
001F0000
001F0000
001F0000
001F0000
001F0000
001F0000
001F0000
001F0000
001F0000
001F0000
001F0000
001F0000
001F0000
ENDCHAR
STARTCHAR g182
ENCODING 402
SWIDTH 667 0
DWIDTH 32 0
BBX 22 47 6 -9
BITMAP
0001FC
0007FC
000FFC
001FF8
003F00
007C00
007800
00F800
00F800
00F000
00F000
01F000
01F000
01E000
1FFFE0
1FFFE0
1FFFE0
03E000
03C000
03C000
03C000
07C000
07C000
078000
078000
078000
0F8000
0F8000
0F0000
0F0000
0F0000
1F0000
1F0000
1E0000
1E0000
1E0000
3E0000
3E0000
3C0000
3C0000
3C0000
7C0000
7C0000
780000
780000
780000
F80000
ENDCHAR
STARTCHAR g183
ENCODING 710
SWIDTH 583 0
DWIDTH 28 0
BBX 13 8 8 30
BITMAP
0200
0700
0F80
1FC0
3DE0
78F0
F078
E038
ENDCHAR
STARTCHAR g184
ENCODING 711
SWIDTH 562 0
DWIDTH 27 0
BBX 15 8 7 30
BITMAP
F01E
F83E
7C7C
3EF8
1FF0
0FE0
07C0
0380
ENDCHAR
STARTCHAR g185
ENCODING 728
SWIDTH 583 0
DWIDTH 28 0
BBX 14 8 7 30
BITMAP
E01C
E01C
F03C
7038
7878
3FF0
1FE0
0780
ENDCHAR
STARTCHAR g186
ENCODING 729
SWIDTH 583 0
DWIDTH 28 0
BBX 5 5 12 30
BITMAP
F8
F8
F8
F8
F8
ENDCHAR
STARTCHAR g187
ENCODING 730
SWIDTH 583 0
DWIDTH 28 0
BBX 10 9 9 30
BITMAP
1E00
3F00
7380
6180
E1C0
6180
7380
3F00
1E00
ENDCHAR
STARTCHAR g188
ENCODING 731
SWIDTH 583 0
DWIDTH 28 0
BBX 9 11 10 -11
BITMAP
0F00
1E00
3C00
7800
F000
F000
F000
F980
7F80
3F80
0E00
ENDCHAR
STARTCHAR g189
ENCODING 732
SWIDTH 583 0
DWIDTH 28 0
BBX 15 6 7 30
BITMAP
3E0E
7F0E
FFCE
E7FE
E1FC
E0F8
ENDCHAR
STARTCHAR g190
ENCODING 733
SWIDTH 583 0
DWIDTH 28 0
BBX 13 8 9 30
BITMAP
0E38
1C38
1C70
3870
38E0
70E0
71C0
E1C0
ENDCHAR
STARTCHAR g191
ENCODING 960
SWIDTH 688 0
DWIDTH 33 0
BBX 30 26 1 0
BITMAP
7FFFFFFC
FFFFFFFC
FFFFFFFC
FFFFFFFC
C3C003C0
03C003C0
03C003C0
03C003C0
03C003C0
03C003C0
03C003C0
03C003C0
03C003C0
03C003C0
03C003C0
03C003C0
03C003C0
03C003C0
03C003C0
03C003C0
03C003C0
03C003C0
03C003C0
03C003E0
03C001E0
03C001F0
ENDCHAR
STARTCHAR g192
ENCODING 8211
SWIDTH 521 0
DWIDTH 25 0
BBX 22 4 1 12
BITMAP
FFFFFC
FFFFFC
FFFFFC
FFFFFC
ENDCHAR
STARTCHAR g193
ENCODING 8212
SWIDTH 1021 0
DWIDTH 49 0
BBX 47 4 1 12
BITMAP
FFFFFFFFFFFE
FFFFFFFFFFFE
FFFFFFFFFFFE
FFFFFFFFFFFE
ENDCHAR
STARTCHAR g194
ENCODING 8216
SWIDTH 312 0
DWIDTH 15 0
BBX 6 15 4 24
BITMAP
0C
1C
3C
38
70
F0
E0
E0
E0
FC
FC
FC
FC
FC
FC
ENDCHAR
STARTCHAR g195
ENCODING 8217
SWIDTH 312 0
DWIDTH 15 0
BBX 6 15 4 24
BITMAP
FC
FC
FC
FC
FC
FC
1C
1C
1C
3C
38
70
F0
E0
C0
ENDCHAR
STARTCHAR g196
ENCODING 8218
SWIDTH 312 0
DWIDTH 15 0
BBX 6 15 4 -9
BITMAP
FC
FC
FC
FC
FC
FC
1C
1C
1C
3C
38
70
F0
E0
C0
ENDCHAR
STARTCHAR g197
ENCODING 8220
SWIDTH 500 0
DWIDTH 24 0
BBX 15 15 4 23
BITMAP
0402
0C06
1C0E
381E
781C
7038
7038
F038
E078
FC7E
FC7E
FC7E
FC7E
FC7E
FC7E
ENDCHAR
STARTCHAR g198
ENCODING 8221
SWIDTH 500 0
DWIDTH 24 0
BBX 15 15 4 23
BITMAP
FC7E
FC7E
FC7E
FC7E
FC7E
FC7E
1C0E
1C0E
1C0E
3C0E
381C
703C
F078
E070
8040
ENDCHAR
STARTCHAR g199
ENCODING 8222
SWIDTH 500 0
DWIDTH 24 0
BBX 15 15 4 -9
BITMAP
FC7E
FC7E
FC7E
FC7E
FC7E
FC7E
1C0E
1C0E
1C0E
1C0E
3C1E
783C
F078
E070
C060
ENDCHAR
STARTCHAR g200
ENCODING 8224
SWIDTH 667 0
DWIDTH 32 0
BBX 20 45 6 -9
BITMAP
01F800
01F800
01F800
01F800
00F000
00F000
00F000
00F000
F0F0F0
FFFFF0
FFFFF0
FFFFF0
FFFFF0
E0F0F0
00F000
00F000
00F000
00F000
00F000
00F000
00F000
00F000
00F000
00F000
00F000
00F000
00F000
00F000
00F000
00F000
00F000
00F000
00F000
00F000
00F000
00F000
00F000
00F000
01F800
01F800
01F800
01F800
01F800
01F800
01F800
ENDCHAR
STARTCHAR g201
ENCODING 8225
SWIDTH 667 0
DWIDTH 32 0
BBX 20 45 6 -9
BITMAP
01F800
01F800
01F800
01F800
00F000
00F000
00F000
00F000
F0F0F0
FFFFF0
FFFFF0
FFFFF0
FFFFF0
F0F0F0
00F000
00F000
00F000
00F000
00F000
00F000
00F000
00F000
00F000
00F000
00F000
00F000
00F000
00F000
00F000
00F000
F0F0F0
FFFFF0
FFFFF0
FFFFF0
FFFFF0
F0F0F0
00F000
00F000
00F000
00F000
00F000
01F800
01F800
01F800
01F800
ENDCHAR
STARTCHAR g202
ENCODING 8226
SWIDTH 667 0
DWIDTH 32 0
BBX 20 20 6 8
BITMAP
01F800
07FE00
1FFF80
3FFFC0
3FFFC0
7FFFE0
7FFFE0
FFFFF0
FFFFF0
FFFFF0
FFFFF0
FFFFF0
FFFFF0
7FFFE0
7FFFE0
3FFFC0
3FFFC0
1FFF80
07FE00
01F800
ENDCHAR
STARTCHAR g203
ENCODING 8230
SWIDTH 1021 0
DWIDTH 49 0
BBX 39 6 5 0
BITMAP
FC007E007E
FC007E007E
FC007E007E
FC007E007E
FC007E007E
FC007E007E
ENDCHAR
STARTCHAR g204
ENCODING 8240
SWIDTH 1312 0
DWIDTH 63 0
BBX 61 36 1 0
BITMAP
03E00001E0000000
0FF80003C0000000
1FFC0003C0000000
3E3E000780000000
3C1F000F00000000
780F001F00000000
780F001E00000000
F007803C00000000
F007807800000000
F00780F800000000
F00780F000000000
F00781E000000000
F00783E000000000
F00783C000000000
780F078000000000
780F0F03E0003E00
3C1F1F0FF800FF80
3E3E1E1FFC01FFC0
1FFC3C3E3E03E3E0
0FF87C3C1F03C1F0
03E078780F0780F0
0000F0780F0780F0
0001F0F0078F0078
0003E0F0078F0078
0003C0F0078F0078
000780F0078F0078
000F80F0078F0078
000F00F0078F0078
001E00F0078F0078
003E00780F0780F0
007C00780F0780F0
0078003C1F03C1F0
00F0003E3E03E3E0
01F0001FFC01FFC0
03E0000FF800FF80
03C00003E0003E00
ENDCHAR
STARTCHAR g205
ENCODING 8249
SWIDTH 312 0
DWIDTH 15 0
BBX 12 20 2 3
BITMAP
01F0
03E0
07C0
0F80
1F00
3F00
7E00
7C00
FC00
F800
F800
FC00
7C00
7E00
3F00
1F00
0F80
07C0
03E0
01F0
ENDCHAR
STARTCHAR g206
ENCODING 8250
SWIDTH 312 0
DWIDTH 15 0
BBX 12 20 2 3
BITMAP
F800
7C00
3E00
1F00
0F80
0FC0
07E0
03E0
03F0
01F0
01F0
03F0
03E0
07E0
0FC0
0F80
1F00
3E00
7C00
F800
ENDCHAR
STARTCHAR g207
ENCODING 8260
SWIDTH 417 0
DWIDTH 20 0
BBX 31 38 -5 -1
BITMAP
0000001E
0000003C
0000007C
00000078
000000F0
000001E0
000003E0
000003C0
00000780
00000F80
00000F00
00001E00
00003C00
00007C00
00007800
0000F000
0001F000
0003E000
0003C000
00078000
000F8000
000F0000
001E0000
003E0000
007C0000
00780000
00F00000
01F00000
03E00000
03C00000
07C00000
0F800000
0F000000
1E000000
3E000000
7C000000
78000000
F8000000
ENDCHAR
STARTCHAR g208
ENCODING 8482
SWIDTH 750 0
DWIDTH 36 0
BBX 33 18 2 18
BITMAP
FFFE700380
FFFE700380
FFFE780780
0380780780
03807C0F80
03807C0F80
03807C0F80
03807E1F80
03807E1F80
0380773B80
0380773B80
038073F380
038073F380
038071E380
038071E380
0380700380
0380700380
0380700380
ENDCHAR
STARTCHAR g209
ENCODING 8486
SWIDTH 812 0
DWIDTH 39 0
BBX 33 37 3 0
BITMAP
000FF80000
007FFE0000
00FFFF8000
03F81FC000
07E003E000
0FC001F000
0F8000F800
1F0000F800
1F00007C00
3E00007C00
3E00003E00
3E00003E00
3E00003E00
7C00001F00
7C00001F00
7C00001F00
7C00001F00
7C00001F00
7C00001F00
7C00001F00
7C00001F00
7C00001F00
7C00001F00
3E00003E00
3E00003E00
3E00003E00
3E00007C00
1F00007C00
1F0000F800
0F8000F800
07C001F000
03C003E000
01E007C000
FFF007FF80
FFF007FF80
FFF007FF80
FFF007FF80
ENDCHAR
STARTCHAR g210
ENCODING 8706
SWIDTH 646 0
DWIDTH 31 0
BBX 25 39 3 -1
BITMAP
03E00000
03FE0000
03FF8000
03FFC000
000FE000
0003F000
0000F800
00007C00
00003E00
00003E00
00001F00
00001F00
001FDF00
007FFF80
01FFFF80
03FFFF80
07F07F80
0FC01F80
1F800F80
1F000780
3E000780
7C000780
7C000780
78000780
F8000780
F8000780
F0000F80
F0000F00
F0001F00
F0001F00
F8003E00
F8003E00
FC007C00
7E01F800
7F07F000
3FFFE000
1FFFC000
07FF0000
01FC0000
ENDCHAR
STARTCHAR g211
ENCODING 8710
SWIDTH 750 0
DWIDTH 36 0
BBX 34 36 1 0
BITMAP
0003F00000
0003F00000
0007F80000
0007F80000
0007780000
000F7C0000
000E3C0000
001E3E0000
001E3E0000
003C1F0000
003C1F0000
00780F8000
00780F8000
007007C000
00F007C000
00F007C000
01E003E000
01E003E000
03C001F000
03C001F000
078000F800
078000F800
078000FC00
0F00007C00
0F00007E00
1E00003E00
1E00003F00
3C00001F00
3C00001F00
7C00000F80
7800000F80
7800000FC0
FFFFFFFFC0
FFFFFFFFC0
FFFFFFFFC0
FFFFFFFFC0
ENDCHAR
STARTCHAR g212
ENCODING 8719
SWIDTH 812 0
DWIDTH 39 0
BBX 35 45 2 -9
BITMAP
FFFFFFFFE0
FFFFFFFFE0
FFFFFFFFE0
FFFFFFFFE0
0F80003E00
0F80003E00
0F80003E00
0F80003E00
0F80003E00
0F80003E00
0F80003E00
0F80003E00
0F80003E00
0F80003E00
0F80003E00
0F80003E00
0F80003E00
0F80003E00
0F80003E00
0F80003E00
0F80003E00
0F80003E00
0F80003E00
0F80003E00
0F80003E00
0F80003E00
0F80003E00
0F80003E00
0F80003E00
0F80003E00
0F80003E00
0F80003E00
0F80003E00
0F80003E00
0F80003E00
0F80003E00
0F80003E00
0F80003E00
0F80003E00
0F80003E00
0F80003E00
0F80003E00
0F80003E00
0F80003E00
0F80003E00
ENDCHAR
STARTCHAR g213
ENCODING 8721
SWIDTH 604 0
DWIDTH 29 0
BBX 27 45 1 -9
BITMAP
3FFFFFC0
3FFFFFC0
3FFFFFC0
3FFFFFC0
3F000000
1F800000
1F800000
0FC00000
07C00000
07E00000
03F00000
01F00000
01F80000
00FC0000
007C0000
007E0000
003F0000
001F0000
001F8000
000FC000
0007C000
000F8000
000F8000
001F0000
001E0000
003E0000
007C0000
007C0000
00F80000
00F00000
01F00000
03E00000
03C00000
07C00000
0F800000
0F800000
1F000000
1E000000
3E000000
7C000000
78000000
FFFFFFE0
FFFFFFE0
FFFFFFE0
FFFFFFE0
ENDCHAR
STARTCHAR g214
ENCODING 8730
SWIDTH 896 0
DWIDTH 43 0
BBX 39 48 3 -9
BITMAP
000000001E
000000003C
000000003C
000000003C
0000000078
0000000078
0000000078
00000000F0
00000000F0
00000000F0
00000001E0
00000001E0
00000001E0
00000003C0
00000003C0
00000003C0
0000000780
0000000780
0000000700
0000000F00
0000000F00
0100000E00
0780001E00
0F80001E00
3FC0003C00
FFC0003C00
FBE0003C00
F1F0007800
41F0007800
00F8007800
00F800F000
007C00F000
007C00F000
003E01E000
003E01E000
001F01E000
000F83C000
000F83C000
0007C3C000
0007C78000
0003E78000
0003E78000
0001FF0000
0001FF0000
0000FF0000
0000FE0000
00007E0000
00007E0000
ENDCHAR
STARTCHAR g215
ENCODING 8734
SWIDTH 667 0
DWIDTH 32 0
BBX 30 16 1 5
BITMAP
07800F80
1FE03FE0
3FF07FF0
3FF8F8F0
787FE078
703FC038
F01FC03C
F00F803C
F007C03C
F00FE03C
701FF078
703EF8F8
3C7C7FF0
3FF83FF0
1FF01FE0
07C00780
ENDCHAR
STARTCHAR g216
ENCODING 8747
SWIDTH 521 0
DWIDTH 25 0
BBX 21 46 2 -9
BITMAP
0003E0
0007F0
000FF8
001E78
003CF8
003CF8
003870
007800
007800
007800
007800
007800
007800
007800
007800
00F800
00F800
00F800
00F800
00F800
00F800
00F800
00F800
00F800
00F800
00F800
00F800
00F800
00F800
00F800
00F800
00F800
00F800
00F800
00F000
00F000
00F000
00F000
00F000
70E000
F8E000
F9E000
F3C000
FF8000
7F0000
3E0000
ENDCHAR
STARTCHAR g217
ENCODING 8776
SWIDTH 667 0
DWIDTH 32 0
BBX 26 18 3 4
BITMAP
0F800000
3FF001C0
3FF801C0
7FFE03C0
F07F83C0
E01FFF80
E00FFF00
E003FE00
00007C00
0F800000
3FF001C0
3FF801C0
7FFE03C0
F07F83C0
E01FFF80
E00FFF00
E003FE00
00007C00
ENDCHAR
STARTCHAR g218
ENCODING 8800
SWIDTH 667 0
DWIDTH 32 0
BBX 26 20 3 3
BITMAP
00001E00
00003C00
00007800
0000F000
FFFFFFC0
FFFFFFC0
FFFFFFC0
FFFFFFC0
00078000
000F0000
001E0000
003C0000
FFFFFFC0
FFFFFFC0
FFFFFFC0
FFFFFFC0
03C00000
07800000
0F000000
1E000000
ENDCHAR
STARTCHAR g219
ENCODING 8804
SWIDTH 667 0
DWIDTH 32 0
BBX 25 33 4 0
BITMAP
00000080
00000380
00000F80
00003F80
0000FF00
0003FC00
000FF000
003FC000
00FF0000
03FC0000
0FF00000
3FC00000
FF000000
FF000000
3FC00000
0FF00000
03FC0000
00FF0000
003FC000
000FF000
0003FC00
0000FF00
00003F80
00000F80
00000380
00000080
00000000
00000000
00000000
FFFFFF80
FFFFFF80
FFFFFF80
FFFFFF80
ENDCHAR
STARTCHAR g220
ENCODING 8805
SWIDTH 667 0
DWIDTH 32 0
BBX 25 33 3 0
BITMAP
80000000
E0000000
F8000000
FE000000
7F800000
1FE00000
07F80000
01FE0000
007F8000
001FE000
0007F800
0001FE00
00007F80
00007F80
0001FE00
0007F800
001FE000
007F8000
01FE0000
07F80000
1FE00000
7F800000
FE000000
F8000000
E0000000
80000000
00000000
00000000
00000000
FFFFFF80
FFFFFF80
FFFFFF80
FFFFFF80
ENDCHAR
STARTCHAR g221
ENCODING 9674
SWIDTH 667 0
DWIDTH 32 0
BBX 26 34 3 1
BITMAP
000C0000
001E0000
003F0000
003F0000
007F8000
00FFC000
00F3C000
01E1E000
03E0F000
07C0F800
07807800
0F003C00
1F003E00
3E001F00
3C000F00
78000780
F80007C0
F80007C0
78000780
3C000F00
3E001F00
1F003E00
0F003C00
07807800
07C0F800
03E0F000
01E1E000
00F3C000
00FFC000
007F8000
003F0000
003F0000
001E0000
000C0000
ENDCHAR
STARTCHAR g222
ENCODING 63252
SWIDTH 667 0
DWIDTH 32 0
BBX 26 38 3 -1
BITMAP
003F0000
01FFE000
03FFF000
07C0F800
0F807C00
1F003E00
1E001F00
3C000F00
3C000F00
7C000F80
78000780
78000780
F80007C0
F80007C0
F80007C0
F00003C0
F00003C0
F01E03C0
F01E03C0
F01E03C0
F00003C0
F00003C0
F80007C0
F80007C0
F80007C0
F80007C0
78000780
7C000F80
7C000F80
3C000F00
3E001F00
1F003F00
1F807E00
0FC0FC00
07FFF800
03FFF000
01FFE000
003F0000
ENDCHAR
STARTCHAR g223
ENCODING 63253
SWIDTH 271 0
DWIDTH 13 0
BBX 9 36 2 0
BITMAP
FF80
FF80
FF80
3E00
3E00
3E00
3E00
3E00
3E00
3E00
3E00
3E00
3E00
3E00
3E00
3E00
3E00
3E00
3E00
3E00
3E00
3E00
3E00
3E00
3E00
3E00
3E00
3E00
3E00
3E00
3E00
3E00
3E00
FF80
FF80
FF80
ENDCHAR
STARTCHAR g224
ENCODING 63254
SWIDTH 229 0
DWIDTH 11 0
BBX 7 38 1 0
BITMAP
FE
FE
FE
FE
3E
3E
3E
3E
3E
3E
3E
3E
3E
3E
3E
3E
3E
3E
3E
3E
3E
3E
3E
3E
3E
3E
3E
3E
3E
3E
3E
3E
3E
3E
3E
3E
3E
3E
ENDCHAR
STARTCHAR g225
ENCODING 63487
SWIDTH 792 0
DWIDTH 38 0
BBX 0 0 0 0
BITMAP
ENDCHAR
STARTCHAR g226
ENCODING 64257
SWIDTH 604 0
DWIDTH 29 0
BBX 23 38 2 0
BITMAP
007F00
01FF00
03FF00
07FF00
0FC000
0F8000
0F0000
1F0000
1F0000
1F0000
1F0000
1F0000
FFFFFE
FFFFFE
FFFFFE
FFFFFE
1F001E
1F001E
1F001E
1F001E
1F001E
1F001E
1F001E
1F001E
1F001E
1F001E
1F001E
1F001E
1F001E
1F001E
1F001E
1F001E
1F001E
1F001E
1F001E
1F001E
1F001E
1F001E
ENDCHAR
STARTCHAR g227
ENCODING 64258
SWIDTH 604 0
DWIDTH 29 0
BBX 23 38 2 0
BITMAP
003FF8
01FFFE
03FFFE
07FFFE
07E03E
0F801E
0F801E
0F001E
1F001E
1F001E
1F001E
1F001E
FFFE1E
FFFE1E
FFFE1E
FFFE1E
1F001E
1F001E
1F001E
1F001E
1F001E
1F001E
1F001E
1F001E
1F001E
1F001E
1F001E
1F001E
1F001E
1F001E
1F001E
1F001E
1F001E
1F001E
1F001E
1F001E
1F001E
1F001E
ENDCHAR
STARTCHAR g228
ENCODING 64512
SWIDTH 458 0
DWIDTH 22 0
BBX 21 32 0 0
BITMAP
FFFFF8
800008
800008
800008
800008
800008
800008
800008
800008
800008
800008
800008
800008
800008
800008
800008
800008
800008
800008
800008
800008
800008
800008
800008
800008
800008
800008
800008
800008
800008
800008
FFFFF8
ENDCHAR
STARTCHAR g229
ENCODING 64513
SWIDTH 458 0
DWIDTH 22 0
BBX 21 32 0 0
BITMAP
FFFFF8
800008
800008
800008
800008
800008
800008
800008
800008
800008
800008
800008
800008
800008
800008
800008
800008
800008
800008
800008
800008
800008
800008
800008
800008
800008
800008
800008
800008
800008
800008
FFFFF8
ENDCHAR
STARTCHAR g230
ENCODING 64514
SWIDTH 458 0
DWIDTH 22 0
BBX 21 32 0 0
BITMAP
FFFFF8
800008
800008
800008
800008
800008
800008
800008
800008
800008
800008
800008
800008
800008
800008
800008
800008
800008
800008
800008
800008
800008
800008
800008
800008
800008
800008
800008
800008
800008
800008
FFFFF8
ENDCHAR
STARTCHAR g231
ENCODING 64515
SWIDTH 458 0
DWIDTH 22 0
BBX 21 32 0 0
BITMAP
FFFFF8
800008
800008
800008
800008
800008
800008
800008
800008
800008
800008
800008
800008
800008
800008
800008
800008
800008
800008
800008
800008
800008
800008
800008
800008
800008
800008
800008
800008
800008
800008
FFFFF8
ENDCHAR
STARTCHAR g232
ENCODING 64516
SWIDTH 458 0
DWIDTH 22 0
BBX 21 32 0 0
BITMAP
FFFFF8
800008
800008
800008
800008
800008
800008
800008
800008
800008
800008
800008
800008
800008
800008
800008
800008
800008
800008
800008
800008
800008
800008
800008
800008
800008
800008
800008
800008
800008
800008
FFFFF8
ENDCHAR
STARTCHAR g233
ENCODING 64517
SWIDTH 458 0
DWIDTH 22 0
BBX 21 32 0 0
BITMAP
FFFFF8
800008
800008
800008
800008
800008
800008
800008
800008
800008
800008
800008
800008
800008
800008
800008
800008
800008
800008
800008
800008
800008
800008
800008
800008
800008
800008
800008
800008
800008
800008
FFFFF8
ENDCHAR
STARTCHAR g234
ENCODING 64518
SWIDTH 458 0
DWIDTH 22 0
BBX 21 32 0 0
BITMAP
FFFFF8
800008
800008
800008
800008
800008
800008
800008
800008
800008
800008
800008
800008
800008
800008
800008
800008
800008
800008
800008
800008
800008
800008
800008
800008
800008
800008
800008
800008
800008
800008
FFFFF8
ENDCHAR
STARTCHAR g235
ENCODING 64519
SWIDTH 458 0
DWIDTH 22 0
BBX 21 32 0 0
BITMAP
FFFFF8
800008
800008
800008
800008
800008
800008
800008
800008
800008
800008
800008
800008
800008
800008
800008
800008
800008
800008
800008
800008
800008
800008
800008
800008
800008
800008
800008
800008
800008
800008
FFFFF8
ENDCHAR
STARTCHAR g236
ENCODING 64520
SWIDTH 458 0
DWIDTH 22 0
BBX 21 32 0 0
BITMAP
FFFFF8
800008
800008
800008
800008
800008
800008
800008
800008
800008
800008
800008
800008
800008
800008
800008
800008
800008
800008
800008
800008
800008
800008
800008
800008
800008
800008
800008
800008
800008
800008
FFFFF8
ENDCHAR
STARTCHAR g237
ENCODING 64521
SWIDTH 458 0
DWIDTH 22 0
BBX 21 32 0 0
BITMAP
FFFFF8
800008
800008
800008
800008
800008
800008
800008
800008
800008
800008
800008
800008
800008
800008
800008
800008
800008
800008
800008
800008
800008
800008
800008
800008
800008
800008
800008
800008
800008
800008
FFFFF8
ENDCHAR
STARTCHAR g238
ENCODING 64522
SWIDTH 458 0
DWIDTH 22 0
BBX 21 32 0 0
BITMAP
FFFFF8
800008
800008
800008
800008
800008
800008
800008
800008
800008
800008
800008
800008
800008
800008
800008
800008
800008
800008
800008
800008
800008
800008
800008
800008
800008
800008
800008
800008
800008
800008
FFFFF8
ENDCHAR
STARTCHAR g239
ENCODING 64523
SWIDTH 458 0
DWIDTH 22 0
BBX 21 32 0 0
BITMAP
FFFFF8
800008
800008
800008
800008
800008
800008
800008
800008
800008
800008
800008
800008
800008
800008
800008
800008
800008
800008
800008
800008
800008
800008
800008
800008
800008
800008
800008
800008
800008
800008
FFFFF8
ENDCHAR
STARTCHAR g240
ENCODING 64524
SWIDTH 458 0
DWIDTH 22 0
BBX 21 32 0 0
BITMAP
FFFFF8
800008
800008
800008
800008
800008
800008
800008
800008
800008
800008
800008
800008
800008
800008
800008
800008
800008
800008
800008
800008
800008
800008
800008
800008
800008
800008
800008
800008
800008
800008
FFFFF8
ENDCHAR
STARTCHAR g241
ENCODING 64525
SWIDTH 458 0
DWIDTH 22 0
BBX 21 32 0 0
BITMAP
FFFFF8
800008
800008
800008
800008
800008
800008
800008
800008
800008
800008
800008
800008
800008
800008
800008
800008
800008
800008
800008
800008
800008
800008
800008
800008
800008
800008
800008
800008
800008
800008
FFFFF8
ENDCHAR
STARTCHAR g242
ENCODING 64526
SWIDTH 458 0
DWIDTH 22 0
BBX 21 32 0 0
BITMAP
FFFFF8
800008
800008
800008
800008
800008
800008
800008
800008
800008
800008
800008
800008
800008
800008
800008
800008
800008
800008
800008
800008
800008
800008
800008
800008
800008
800008
800008
800008
800008
800008
FFFFF8
ENDCHAR
STARTCHAR g243
ENCODING 64527
SWIDTH 458 0
DWIDTH 22 0
BBX 21 32 0 0
BITMAP
FFFFF8
800008
800008
800008
800008
800008
800008
800008
800008
800008
800008
800008
800008
800008
800008
800008
800008
800008
800008
800008
800008
800008
800008
800008
800008
800008
800008
800008
800008
800008
800008
FFFFF8
ENDCHAR
ENDFONT
