STARTFONT 2.1
COMMENT Strike 4 of a Newton 'sfnt' font (bloc/bdat): tools/fonts/newtonsfnt.py,
COMMENT tools/fonts/README.md.  The builder reads the BLOC_* properties and the
COMMENT glyphs - STARTCHAR gN (N the glyph id; otherwise ENCODING through 'cmap'),
COMMENT DWIDTH (the advance), BBX (width, height, the bearing x, the bottom row's
COMMENT y: bearing y less the height) and the BITMAP rows.  A glyph id in the
COMMENT subtable ranges with no glyph here has no image (the missing glyph is 0).
COMMENT The other properties, SIZE, FONTBOUNDINGBOX and SWIDTH are worked out and
COMMENT not read back: change BLOC_HORI_* (the line metrics the ROM draws text by)
COMMENT to match an edit that changes the strike's extent.
FONT -Apple-Roman Regular-Medium-R-Normal--18-180-72-72-P-0-Apple-Roman
SIZE 18 72 72
FONTBOUNDINGBOX 23 22 -1 -4
STARTPROPERTIES 37
FONT_ASCENT 18
FONT_DESCENT 5
PIXEL_SIZE 18
FAMILY_NAME "Roman Regular"
BLOC_COLOR_REF 0
BLOC_HORI_ASCENDER 18
BLOC_HORI_DESCENDER -5
BLOC_HORI_WIDTH_MAX 23
BLOC_HORI_CARET_SLOPE_NUMERATOR 0
BLOC_HORI_CARET_SLOPE_DENOMINATOR 1
BLOC_HORI_CARET_OFFSET 0
BLOC_HORI_MIN_ORIGIN_SB -1
BLOC_HORI_MIN_ADVANCE_SB -1
BLOC_HORI_MAX_BEFORE_BL 18
BLOC_HORI_MIN_AFTER_BL -4
BLOC_HORI_PAD1 0
BLOC_HORI_PAD2 0
BLOC_VERT_ASCENDER 0
BLOC_VERT_DESCENDER -1
BLOC_VERT_WIDTH_MAX 22
BLOC_VERT_CARET_SLOPE_NUMERATOR 0
BLOC_VERT_CARET_SLOPE_DENOMINATOR 1
BLOC_VERT_CARET_OFFSET 0
BLOC_VERT_MIN_ORIGIN_SB 100
BLOC_VERT_MIN_ADVANCE_SB 88
BLOC_VERT_MAX_BEFORE_BL 0
BLOC_VERT_MIN_AFTER_BL 92
BLOC_VERT_PAD1 0
BLOC_VERT_PAD2 0
BLOC_START_GLYPH 0
BLOC_END_GLYPH 257
BLOC_PPEM_X 18
BLOC_PPEM_Y 18
BLOC_BIT_DEPTH 1
BLOC_FLAGS 1
BLOC_INDEX_SUBTABLES 1
BLOC_INDEX_SUBTABLE_0 "0 257 3 1 0"
ENDPROPERTIES
CHARS 244
STARTCHAR g0
ENCODING -1
SWIDTH 778 0
DWIDTH 14 0
BBX 11 14 1 0
BITMAP
FFE0
8020
8020
8020
8020
8020
8020
8020
8020
8020
8020
8020
8020
FFE0
ENDCHAR
STARTCHAR g1
ENCODING 0
SWIDTH 0 0
DWIDTH 0 0
BBX 0 0 0 0
BITMAP
ENDCHAR
STARTCHAR g2
ENCODING 1
SWIDTH 333 0
DWIDTH 6 0
BBX 0 0 0 0
BITMAP
ENDCHAR
STARTCHAR g3
ENCODING 2
SWIDTH 333 0
DWIDTH 6 0
BBX 1 14 3 0
BITMAP
80
80
80
80
80
80
80
80
80
80
00
00
80
80
ENDCHAR
STARTCHAR g4
ENCODING 3
SWIDTH 444 0
DWIDTH 8 0
BBX 4 3 2 11
BITMAP
90
90
90
ENDCHAR
STARTCHAR g5
ENCODING 4
SWIDTH 778 0
DWIDTH 14 0
BBX 10 8 2 6
BITMAP
0900
0900
7FC0
1200
1200
FF80
2400
2400
ENDCHAR
STARTCHAR g6
ENCODING 5
SWIDTH 667 0
DWIDTH 12 0
BBX 7 18 2 -2
BITMAP
10
10
38
54
92
92
90
50
30
18
14
12
92
92
54
38
10
10
ENDCHAR
STARTCHAR g7
ENCODING 6
SWIDTH 778 0
DWIDTH 14 0
BBX 10 14 2 0
BITMAP
7F80
9040
9040
9080
9100
6200
0400
0800
1180
2240
4240
4240
8240
8180
ENDCHAR
STARTCHAR g8
ENCODING 7
SWIDTH 889 0
DWIDTH 16 0
BBX 12 14 2 0
BITMAP
3800
4400
4400
4400
2800
1000
2800
4400
8220
8140
8080
8140
4220
3C10
ENDCHAR
STARTCHAR g9
ENCODING 8
SWIDTH 167 0
DWIDTH 3 0
BBX 1 3 1 11
BITMAP
80
80
80
ENDCHAR
STARTCHAR g10
ENCODING 9
SWIDTH 389 0
DWIDTH 7 0
BBX 4 16 1 -1
BITMAP
10
20
40
40
80
80
80
80
80
80
80
80
40
40
20
10
ENDCHAR
STARTCHAR g11
ENCODING 10
SWIDTH 389 0
DWIDTH 7 0
BBX 4 16 2 -1
BITMAP
80
40
20
20
10
10
10
10
10
10
10
10
20
20
40
80
ENDCHAR
STARTCHAR g12
ENCODING 11
SWIDTH 778 0
DWIDTH 14 0
BBX 8 7 2 6
BITMAP
42
24
18
FF
18
24
42
ENDCHAR
STARTCHAR g13
ENCODING 12
SWIDTH 667 0
DWIDTH 12 0
BBX 9 9 1 2
BITMAP
0800
0800
0800
0800
FF80
0800
0800
0800
0800
ENDCHAR
STARTCHAR g14
ENCODING 44
SWIDTH 333 0
DWIDTH 6 0
BBX 2 4 2 -2
BITMAP
C0
40
40
80
ENDCHAR
STARTCHAR g15
ENCODING 45
SWIDTH 556 0
DWIDTH 10 0
BBX 8 1 1 6
BITMAP
FF
ENDCHAR
STARTCHAR g16
ENCODING 46
SWIDTH 333 0
DWIDTH 6 0
BBX 1 2 3 0
BITMAP
80
80
ENDCHAR
STARTCHAR g17
ENCODING 47
SWIDTH 556 0
DWIDTH 10 0
BBX 7 14 1 0
BITMAP
02
02
04
04
08
08
10
10
20
20
40
40
80
80
ENDCHAR
STARTCHAR g18
ENCODING 48
SWIDTH 667 0
DWIDTH 12 0
BBX 9 14 1 0
BITMAP
1C00
2200
4100
4100
8080
8080
8080
8080
8080
8080
4100
4100
2200
1C00
ENDCHAR
STARTCHAR g19
ENCODING 49
SWIDTH 667 0
DWIDTH 12 0
BBX 3 14 4 0
BITMAP
20
60
A0
20
20
20
20
20
20
20
20
20
20
20
ENDCHAR
STARTCHAR g20
ENCODING 50
SWIDTH 667 0
DWIDTH 12 0
BBX 9 14 1 0
BITMAP
3E00
4100
8080
8080
0080
0080
0100
0200
0400
0800
1000
2000
4000
FF80
ENDCHAR
STARTCHAR g21
ENCODING 51
SWIDTH 667 0
DWIDTH 12 0
BBX 9 14 1 0
BITMAP
FF80
0100
0200
0400
0800
1E00
0100
0080
0080
0080
8080
8080
4100
3E00
ENDCHAR
STARTCHAR g22
ENCODING 52
SWIDTH 667 0
DWIDTH 12 0
BBX 10 14 1 0
BITMAP
0080
0180
0280
0480
0880
1080
2080
4080
8080
FFC0
0080
0080
0080
0080
ENDCHAR
STARTCHAR g23
ENCODING 53
SWIDTH 667 0
DWIDTH 12 0
BBX 9 14 1 0
BITMAP
FF80
8000
8000
8000
8000
FE00
0100
0080
0080
0080
8080
8080
4100
3E00
ENDCHAR
STARTCHAR g24
ENCODING 54
SWIDTH 667 0
DWIDTH 12 0
BBX 9 14 1 0
BITMAP
0E00
3000
4000
4000
8000
BE00
C100
8080
8080
8080
8080
8080
4100
3E00
ENDCHAR
STARTCHAR g25
ENCODING 55
SWIDTH 667 0
DWIDTH 12 0
BBX 9 14 1 0
BITMAP
FF80
0080
0080
0100
0100
0200
0200
0400
0400
0800
0800
1000
1000
1000
ENDCHAR
STARTCHAR g26
ENCODING 56
SWIDTH 667 0
DWIDTH 12 0
BBX 9 14 1 0
BITMAP
3E00
4100
8080
8080
4100
3E00
4100
8080
8080
8080
8080
8080
4100
3E00
ENDCHAR
STARTCHAR g27
ENCODING 57
SWIDTH 667 0
DWIDTH 12 0
BBX 9 14 1 0
BITMAP
3E00
4100
8080
8080
8080
8080
8080
4180
3E80
0080
0100
0100
0600
3800
ENDCHAR
STARTCHAR g28
ENCODING 58
SWIDTH 333 0
DWIDTH 6 0
BBX 1 10 3 0
BITMAP
80
80
00
00
00
00
00
00
80
80
ENDCHAR
STARTCHAR g29
ENCODING 59
SWIDTH 333 0
DWIDTH 6 0
BBX 2 12 2 -2
BITMAP
40
40
00
00
00
00
00
00
C0
40
40
80
ENDCHAR
STARTCHAR g30
ENCODING 60
SWIDTH 556 0
DWIDTH 10 0
BBX 5 9 2 2
BITMAP
08
10
20
40
80
40
20
10
08
ENDCHAR
STARTCHAR g31
ENCODING 61
SWIDTH 556 0
DWIDTH 10 0
BBX 8 4 1 5
BITMAP
FF
00
00
FF
ENDCHAR
STARTCHAR g32
ENCODING 62
SWIDTH 556 0
DWIDTH 10 0
BBX 5 9 3 2
BITMAP
80
40
20
10
08
10
20
40
80
ENDCHAR
STARTCHAR g33
ENCODING 63
SWIDTH 667 0
DWIDTH 12 0
BBX 8 14 2 0
BITMAP
3C
42
81
81
01
02
04
08
08
08
00
00
08
08
ENDCHAR
STARTCHAR g34
ENCODING 64
SWIDTH 889 0
DWIDTH 16 0
BBX 12 12 2 0
BITMAP
0F00
30C0
4020
4F20
9090
9090
9090
9190
4EE0
4000
3000
0F00
ENDCHAR
STARTCHAR g35
ENCODING 65
SWIDTH 778 0
DWIDTH 14 0
BBX 11 14 1 0
BITMAP
0400
0400
0400
0A00
0A00
1100
1100
2080
2080
7FC0
4040
4040
8020
8020
ENDCHAR
STARTCHAR g36
ENCODING 66
SWIDTH 667 0
DWIDTH 12 0
BBX 9 14 1 0
BITMAP
FC00
8200
8100
8100
8200
FC00
8200
8100
8080
8080
8080
8100
8200
FC00
ENDCHAR
STARTCHAR g37
ENCODING 67
SWIDTH 667 0
DWIDTH 12 0
BBX 9 14 1 0
BITMAP
1E00
2100
4080
4000
8000
8000
8000
8000
8000
8000
4000
4080
2100
1E00
ENDCHAR
STARTCHAR g38
ENCODING 68
SWIDTH 667 0
DWIDTH 12 0
BBX 9 14 1 0
BITMAP
F800
8600
8100
8100
8080
8080
8080
8080
8080
8080
8100
8100
8600
F800
ENDCHAR
STARTCHAR g39
ENCODING 69
SWIDTH 556 0
DWIDTH 10 0
BBX 7 14 1 0
BITMAP
FE
80
80
80
80
80
FC
80
80
80
80
80
80
FE
ENDCHAR
STARTCHAR g40
ENCODING 70
SWIDTH 556 0
DWIDTH 10 0
BBX 7 14 1 0
BITMAP
FE
80
80
80
80
80
FC
80
80
80
80
80
80
80
ENDCHAR
STARTCHAR g41
ENCODING 71
SWIDTH 667 0
DWIDTH 12 0
BBX 9 14 1 0
BITMAP
1E00
2100
4080
4000
8000
8000
8F80
8080
8080
8080
4080
4080
2100
1E00
ENDCHAR
STARTCHAR g42
ENCODING 72
SWIDTH 667 0
DWIDTH 12 0
BBX 9 14 1 0
BITMAP
8080
8080
8080
8080
8080
8080
FF80
8080
8080
8080
8080
8080
8080
8080
ENDCHAR
STARTCHAR g43
ENCODING 73
SWIDTH 333 0
DWIDTH 6 0
BBX 1 14 2 0
BITMAP
80
80
80
80
80
80
80
80
80
80
80
80
80
80
ENDCHAR
STARTCHAR g44
ENCODING 74
SWIDTH 556 0
DWIDTH 10 0
BBX 8 14 0 0
BITMAP
01
01
01
01
01
01
01
01
01
81
81
81
42
3C
ENDCHAR
STARTCHAR g45
ENCODING 75
SWIDTH 667 0
DWIDTH 12 0
BBX 9 14 1 0
BITMAP
8100
8200
8400
8800
9000
A000
C000
A000
9000
8800
8400
8200
8100
8080
ENDCHAR
STARTCHAR g46
ENCODING 76
SWIDTH 556 0
DWIDTH 10 0
BBX 7 14 1 0
BITMAP
80
80
80
80
80
80
80
80
80
80
80
80
80
FE
ENDCHAR
STARTCHAR g47
ENCODING 77
SWIDTH 778 0
DWIDTH 14 0
BBX 11 14 1 0
BITMAP
8020
C060
A0A0
9120
8A20
8420
8020
8020
8020
8020
8020
8020
8020
8020
ENDCHAR
STARTCHAR g48
ENCODING 78
SWIDTH 667 0
DWIDTH 12 0
BBX 9 14 1 0
BITMAP
8080
C080
C080
A080
A080
9080
8880
8880
8480
8280
8280
8180
8180
8080
ENDCHAR
STARTCHAR g49
ENCODING 79
SWIDTH 667 0
DWIDTH 12 0
BBX 10 14 1 0
BITMAP
1E00
2100
4080
4080
8040
8040
8040
8040
8040
8040
4080
4080
2100
1E00
ENDCHAR
STARTCHAR g50
ENCODING 80
SWIDTH 667 0
DWIDTH 12 0
BBX 9 14 1 0
BITMAP
FE00
8100
8080
8080
8080
8080
8080
8100
FE00
8000
8000
8000
8000
8000
ENDCHAR
STARTCHAR g51
ENCODING 81
SWIDTH 667 0
DWIDTH 12 0
BBX 11 14 1 0
BITMAP
1E00
2100
4080
4080
8040
8040
8040
8040
8040
8240
4180
4080
2140
1E20
ENDCHAR
STARTCHAR g52
ENCODING 82
SWIDTH 667 0
DWIDTH 12 0
BBX 10 14 1 0
BITMAP
FE00
8100
8080
8080
8080
8080
8080
8100
FE00
8400
8200
8100
8080
8040
ENDCHAR
STARTCHAR g53
ENCODING 83
SWIDTH 667 0
DWIDTH 12 0
BBX 9 14 1 0
BITMAP
3E00
4100
8080
8000
8000
4000
3E00
0100
0080
0080
0080
8080
4100
3E00
ENDCHAR
STARTCHAR g54
ENCODING 84
SWIDTH 667 0
DWIDTH 12 0
BBX 10 14 1 0
BITMAP
FFC0
0800
0800
0800
0800
0800
0800
0800
0800
0800
0800
0800
0800
0800
ENDCHAR
STARTCHAR g55
ENCODING 85
SWIDTH 667 0
DWIDTH 12 0
BBX 9 14 1 0
BITMAP
8080
8080
8080
8080
8080
8080
8080
8080
8080
8080
8080
8080
4100
3E00
ENDCHAR
STARTCHAR g56
ENCODING 86
SWIDTH 778 0
DWIDTH 14 0
BBX 11 14 1 0
BITMAP
8020
8020
8020
4040
4040
4040
2080
2080
1100
1100
0A00
0A00
0400
0400
ENDCHAR
STARTCHAR g57
ENCODING 87
SWIDTH 889 0
DWIDTH 16 0
BBX 15 14 0 0
BITMAP
8002
8002
8002
4104
4104
4104
2288
2288
2288
1450
1450
1450
0820
0820
ENDCHAR
STARTCHAR g58
ENCODING 88
SWIDTH 667 0
DWIDTH 12 0
BBX 9 14 1 0
BITMAP
8080
8080
4100
2200
2200
1400
0800
0800
1400
2200
2200
4100
8080
8080
ENDCHAR
STARTCHAR g59
ENCODING 89
SWIDTH 667 0
DWIDTH 12 0
BBX 9 14 1 0
BITMAP
8080
8080
4100
4100
2200
2200
1400
1400
0800
0800
0800
0800
0800
0800
ENDCHAR
STARTCHAR g60
ENCODING 90
SWIDTH 556 0
DWIDTH 10 0
BBX 8 14 1 0
BITMAP
FF
01
02
02
04
08
08
10
10
20
40
40
80
FF
ENDCHAR
STARTCHAR g61
ENCODING 91
SWIDTH 444 0
DWIDTH 8 0
BBX 3 16 2 -1
BITMAP
E0
80
80
80
80
80
80
80
80
80
80
80
80
80
80
E0
ENDCHAR
STARTCHAR g62
ENCODING 92
SWIDTH 556 0
DWIDTH 10 0
BBX 7 14 1 0
BITMAP
80
80
40
40
20
20
10
10
08
08
04
04
02
02
ENDCHAR
STARTCHAR g63
ENCODING 93
SWIDTH 444 0
DWIDTH 8 0
BBX 3 16 3 -1
BITMAP
E0
20
20
20
20
20
20
20
20
20
20
20
20
20
20
E0
ENDCHAR
STARTCHAR g64
ENCODING 94
SWIDTH 444 0
DWIDTH 8 0
BBX 5 3 1 11
BITMAP
20
50
88
ENDCHAR
STARTCHAR g65
ENCODING 95
SWIDTH 667 0
DWIDTH 12 0
BBX 12 1 0 0
BITMAP
FFF0
ENDCHAR
STARTCHAR g66
ENCODING 96
SWIDTH 333 0
DWIDTH 6 0
BBX 3 3 1 11
BITMAP
80
40
20
ENDCHAR
STARTCHAR g67
ENCODING 97
SWIDTH 556 0
DWIDTH 10 0
BBX 7 10 1 0
BITMAP
3C
42
82
0E
32
42
82
86
8A
72
ENDCHAR
STARTCHAR g68
ENCODING 98
SWIDTH 556 0
DWIDTH 10 0
BBX 7 14 1 0
BITMAP
80
80
80
80
B8
C4
82
82
82
82
82
82
C4
B8
ENDCHAR
STARTCHAR g69
ENCODING 99
SWIDTH 556 0
DWIDTH 10 0
BBX 7 10 1 0
BITMAP
3C
42
80
80
80
80
80
80
42
3C
ENDCHAR
STARTCHAR g70
ENCODING 100
SWIDTH 556 0
DWIDTH 10 0
BBX 7 14 1 0
BITMAP
02
02
02
02
3A
46
82
82
82
82
82
82
46
3A
ENDCHAR
STARTCHAR g71
ENCODING 101
SWIDTH 556 0
DWIDTH 10 0
BBX 7 10 1 0
BITMAP
38
44
82
82
FE
80
80
82
44
38
ENDCHAR
STARTCHAR g72
ENCODING 102
SWIDTH 444 0
DWIDTH 8 0
BBX 7 14 1 0
BITMAP
1C
22
40
40
F0
40
40
40
40
40
40
40
40
40
ENDCHAR
STARTCHAR g73
ENCODING 103
SWIDTH 556 0
DWIDTH 10 0
BBX 7 14 1 -4
BITMAP
3A
46
82
82
82
82
82
82
46
3A
02
02
44
38
ENDCHAR
STARTCHAR g74
ENCODING 104
SWIDTH 556 0
DWIDTH 10 0
BBX 7 14 1 0
BITMAP
80
80
80
80
B8
C4
82
82
82
82
82
82
82
82
ENDCHAR
STARTCHAR g75
ENCODING 105
SWIDTH 333 0
DWIDTH 6 0
BBX 2 14 1 0
BITMAP
40
40
00
00
C0
40
40
40
40
40
40
40
40
40
ENDCHAR
STARTCHAR g76
ENCODING 106
SWIDTH 444 0
DWIDTH 8 0
BBX 5 18 0 -4
BITMAP
08
08
00
00
18
08
08
08
08
08
08
08
08
08
08
08
88
70
ENDCHAR
STARTCHAR g77
ENCODING 107
SWIDTH 556 0
DWIDTH 10 0
BBX 7 14 1 0
BITMAP
80
80
80
80
84
88
90
A0
C0
A0
90
88
84
82
ENDCHAR
STARTCHAR g78
ENCODING 108
SWIDTH 333 0
DWIDTH 6 0
BBX 2 14 1 0
BITMAP
C0
40
40
40
40
40
40
40
40
40
40
40
40
40
ENDCHAR
STARTCHAR g79
ENCODING 109
SWIDTH 889 0
DWIDTH 16 0
BBX 13 10 1 0
BITMAP
B8E0
C510
8208
8208
8208
8208
8208
8208
8208
8208
ENDCHAR
STARTCHAR g80
ENCODING 110
SWIDTH 556 0
DWIDTH 10 0
BBX 7 10 1 0
BITMAP
B8
C4
82
82
82
82
82
82
82
82
ENDCHAR
STARTCHAR g81
ENCODING 111
SWIDTH 556 0
DWIDTH 10 0
BBX 7 10 1 0
BITMAP
38
44
82
82
82
82
82
82
44
38
ENDCHAR
STARTCHAR g82
ENCODING 112
SWIDTH 556 0
DWIDTH 10 0
BBX 7 13 1 -3
BITMAP
B8
C4
82
82
82
82
82
82
C4
B8
80
80
80
ENDCHAR
STARTCHAR g83
ENCODING 113
SWIDTH 556 0
DWIDTH 10 0
BBX 7 13 1 -3
BITMAP
3A
46
82
82
82
82
82
82
46
3A
02
02
02
ENDCHAR
STARTCHAR g84
ENCODING 114
SWIDTH 556 0
DWIDTH 10 0
BBX 7 10 1 0
BITMAP
9C
A2
C2
80
80
80
80
80
80
80
ENDCHAR
STARTCHAR g85
ENCODING 115
SWIDTH 556 0
DWIDTH 10 0
BBX 7 10 1 0
BITMAP
7C
82
80
80
7C
02
02
02
82
7C
ENDCHAR
STARTCHAR g86
ENCODING 116
SWIDTH 444 0
DWIDTH 8 0
BBX 6 14 1 0
BITMAP
40
40
40
40
F0
40
40
40
40
40
40
40
44
38
ENDCHAR
STARTCHAR g87
ENCODING 117
SWIDTH 556 0
DWIDTH 10 0
BBX 7 10 1 0
BITMAP
82
82
82
82
82
82
82
82
46
3A
ENDCHAR
STARTCHAR g88
ENCODING 118
SWIDTH 556 0
DWIDTH 10 0
BBX 9 10 0 0
BITMAP
8080
8080
4100
4100
2200
2200
1400
1400
0800
0800
ENDCHAR
STARTCHAR g89
ENCODING 119
SWIDTH 889 0
DWIDTH 16 0
BBX 13 10 1 0
BITMAP
8208
8208
4510
4510
28A0
28A0
28A0
1040
1040
1040
ENDCHAR
STARTCHAR g90
ENCODING 120
SWIDTH 556 0
DWIDTH 10 0
BBX 7 10 1 0
BITMAP
82
82
44
28
10
28
44
44
82
82
ENDCHAR
STARTCHAR g91
ENCODING 121
SWIDTH 667 0
DWIDTH 12 0
BBX 9 14 1 -4
BITMAP
8080
8080
4100
4100
2200
2200
1400
1400
0800
0800
1000
1000
2000
2000
ENDCHAR
STARTCHAR g92
ENCODING 122
SWIDTH 556 0
DWIDTH 10 0
BBX 7 10 1 0
BITMAP
FE
02
04
08
10
20
40
80
80
FE
ENDCHAR
STARTCHAR g93
ENCODING 123
SWIDTH 444 0
DWIDTH 8 0
BBX 4 16 2 -1
BITMAP
30
40
40
40
40
40
40
80
40
40
40
40
40
40
40
30
ENDCHAR
STARTCHAR g94
ENCODING 124
SWIDTH 222 0
DWIDTH 4 0
BBX 1 17 2 -1
BITMAP
80
80
80
80
80
80
80
80
00
80
80
80
80
80
80
80
80
ENDCHAR
STARTCHAR g95
ENCODING 125
SWIDTH 444 0
DWIDTH 8 0
BBX 4 16 3 -1
BITMAP
C0
20
20
20
20
20
20
10
20
20
20
20
20
20
20
C0
ENDCHAR
STARTCHAR g96
ENCODING 126
SWIDTH 667 0
DWIDTH 12 0
BBX 8 2 2 12
BITMAP
71
8E
ENDCHAR
STARTCHAR g97
ENCODING 127
SWIDTH 667 0
DWIDTH 12 0
BBX 0 0 0 0
BITMAP
ENDCHAR
STARTCHAR g98
ENCODING 161
SWIDTH 333 0
DWIDTH 6 0
BBX 1 14 2 0
BITMAP
80
80
00
00
80
80
80
80
80
80
80
80
80
80
ENDCHAR
STARTCHAR g99
ENCODING 162
SWIDTH 556 0
DWIDTH 10 0
BBX 6 14 2 0
BITMAP
10
10
38
54
90
90
90
90
90
90
54
38
10
10
ENDCHAR
STARTCHAR g100
ENCODING 163
SWIDTH 667 0
DWIDTH 12 0
BBX 9 14 1 0
BITMAP
1C00
2200
4000
4000
4000
4000
F000
4000
4000
4000
4000
4080
4100
FE00
ENDCHAR
STARTCHAR g101
ENCODING 164
SWIDTH 667 0
DWIDTH 12 0
BBX 11 11 0 1
BITMAP
8020
5F40
2080
4040
4040
4040
4040
4040
2080
5F40
8020
ENDCHAR
STARTCHAR g102
ENCODING 165
SWIDTH 667 0
DWIDTH 12 0
BBX 9 14 1 0
BITMAP
8080
4100
2200
F780
0800
0800
FF80
0800
0800
0800
0800
0800
0800
0800
ENDCHAR
STARTCHAR g103
ENCODING 167
SWIDTH 667 0
DWIDTH 12 0
BBX 8 14 2 0
BITMAP
3C
42
81
80
60
98
86
61
19
06
01
81
42
3C
ENDCHAR
STARTCHAR g104
ENCODING 168
SWIDTH 444 0
DWIDTH 8 0
BBX 5 1 1 13
BITMAP
88
ENDCHAR
STARTCHAR g105
ENCODING 169
SWIDTH 889 0
DWIDTH 16 0
BBX 12 12 2 0
BITMAP
0F00
30C0
4020
4620
8910
8810
8810
8910
4620
4020
30C0
0F00
ENDCHAR
STARTCHAR g106
ENCODING 170
SWIDTH 556 0
DWIDTH 10 0
BBX 6 9 2 5
BITMAP
78
84
3C
44
84
8C
74
00
FC
ENDCHAR
STARTCHAR g107
ENCODING 171
SWIDTH 778 0
DWIDTH 14 0
BBX 10 11 2 0
BITMAP
0440
0880
1100
2200
4400
8800
4400
2200
1100
0880
0440
ENDCHAR
STARTCHAR g108
ENCODING 172
SWIDTH 556 0
DWIDTH 10 0
BBX 8 5 1 3
BITMAP
FF
01
01
01
01
ENDCHAR
STARTCHAR g109
ENCODING 174
SWIDTH 889 0
DWIDTH 16 0
BBX 12 12 2 0
BITMAP
0F00
30C0
4020
4E20
8910
8910
8E10
8910
4920
4020
30C0
0F00
ENDCHAR
STARTCHAR g110
ENCODING 175
SWIDTH 556 0
DWIDTH 10 0
BBX 5 1 3 11
BITMAP
F8
ENDCHAR
STARTCHAR g111
ENCODING 176
SWIDTH 444 0
DWIDTH 8 0
BBX 4 4 1 10
BITMAP
60
90
90
60
ENDCHAR
STARTCHAR g112
ENCODING 177
SWIDTH 667 0
DWIDTH 12 0
BBX 9 11 1 0
BITMAP
0800
0800
0800
0800
FF80
0800
0800
0800
0800
0000
FF80
ENDCHAR
STARTCHAR g113
ENCODING 180
SWIDTH 444 0
DWIDTH 8 0
BBX 3 3 2 11
BITMAP
20
40
80
ENDCHAR
STARTCHAR g114
ENCODING 181
SWIDTH 667 0
DWIDTH 12 0
BBX 9 13 1 -3
BITMAP
4100
4100
4100
4100
4100
4100
4100
4100
6300
5C80
4000
4000
8000
ENDCHAR
STARTCHAR g115
ENCODING 182
SWIDTH 667 0
DWIDTH 12 0
BBX 9 14 1 0
BITMAP
1D80
2500
4500
8500
8500
8500
8500
4500
2500
1D00
0500
0500
0500
0500
ENDCHAR
STARTCHAR g116
ENCODING 183
SWIDTH 556 0
DWIDTH 10 0
BBX 2 2 4 4
BITMAP
C0
C0
ENDCHAR
STARTCHAR g117
ENCODING 184
SWIDTH 556 0
DWIDTH 10 0
BBX 3 5 4 -4
BITMAP
40
80
40
20
C0
ENDCHAR
STARTCHAR g118
ENCODING 186
SWIDTH 556 0
DWIDTH 10 0
BBX 5 9 2 5
BITMAP
70
88
88
88
88
88
70
00
F8
ENDCHAR
STARTCHAR g119
ENCODING 187
SWIDTH 778 0
DWIDTH 14 0
BBX 10 11 2 0
BITMAP
8800
4400
2200
1100
0880
0440
0880
1100
2200
4400
8800
ENDCHAR
STARTCHAR g120
ENCODING 191
SWIDTH 667 0
DWIDTH 12 0
BBX 8 14 2 0
BITMAP
10
10
00
00
10
10
10
20
40
80
81
81
42
3C
ENDCHAR
STARTCHAR g121
ENCODING 192
SWIDTH 778 0
DWIDTH 14 0
BBX 11 18 1 0
BITMAP
0800
0400
0200
0000
0400
0400
0400
0A00
0A00
1100
1100
2080
2080
7FC0
4040
4040
8020
8020
ENDCHAR
STARTCHAR g122
ENCODING 193
SWIDTH 778 0
DWIDTH 14 0
BBX 11 18 1 0
BITMAP
0200
0400
0800
0000
0000
0400
0400
0A00
0A00
1100
1100
2080
2080
7FC0
4040
4040
8020
8020
ENDCHAR
STARTCHAR g123
ENCODING 194
SWIDTH 778 0
DWIDTH 14 0
BBX 11 18 1 0
BITMAP
0400
0A00
1100
0000
0000
0400
0400
0A00
0A00
1100
1100
2080
2080
7FC0
4040
4040
8020
8020
ENDCHAR
STARTCHAR g124
ENCODING 195
SWIDTH 778 0
DWIDTH 14 0
BBX 11 18 1 0
BITMAP
1C40
2380
0000
0000
0400
0400
0400
0A00
0A00
1100
1100
2080
2080
7FC0
4040
4040
8020
8020
ENDCHAR
STARTCHAR g125
ENCODING 196
SWIDTH 778 0
DWIDTH 14 0
BBX 11 17 1 0
BITMAP
1100
0000
0000
0400
0400
0400
0A00
0A00
1100
1100
2080
2080
7FC0
4040
4040
8020
8020
ENDCHAR
STARTCHAR g126
ENCODING 197
SWIDTH 778 0
DWIDTH 14 0
BBX 11 18 1 0
BITMAP
0E00
1100
1100
0E00
0400
0400
0400
0A00
0A00
1100
1100
2080
2080
7FC0
4040
4040
8020
8020
ENDCHAR
STARTCHAR g127
ENCODING 198
SWIDTH 1000 0
DWIDTH 18 0
BBX 15 14 1 0
BITMAP
03FE
0300
0500
0500
0900
0900
1FF8
1100
2100
2100
4100
4100
8100
81FE
ENDCHAR
STARTCHAR g128
ENCODING 199
SWIDTH 667 0
DWIDTH 12 0
BBX 9 18 1 -4
BITMAP
1E00
2100
4080
4000
8000
8000
8000
8000
8000
8000
4000
4080
2100
1E00
0400
0200
0200
0400
ENDCHAR
STARTCHAR g129
ENCODING 200
SWIDTH 556 0
DWIDTH 10 0
BBX 7 18 1 0
BITMAP
20
10
08
00
FE
80
80
80
80
80
FC
80
80
80
80
80
80
FE
ENDCHAR
STARTCHAR g130
ENCODING 201
SWIDTH 556 0
DWIDTH 10 0
BBX 7 18 1 0
BITMAP
04
08
10
00
FE
80
80
80
80
80
FC
80
80
80
80
80
80
FE
ENDCHAR
STARTCHAR g131
ENCODING 202
SWIDTH 556 0
DWIDTH 10 0
BBX 7 18 1 0
BITMAP
10
28
44
00
FE
80
80
80
80
80
FC
80
80
80
80
80
80
FE
ENDCHAR
STARTCHAR g132
ENCODING 203
SWIDTH 556 0
DWIDTH 10 0
BBX 7 17 1 0
BITMAP
24
00
00
FE
80
80
80
80
80
FC
80
80
80
80
80
80
FE
ENDCHAR
STARTCHAR g133
ENCODING 204
SWIDTH 333 0
DWIDTH 6 0
BBX 3 18 1 0
BITMAP
80
40
20
00
40
40
40
40
40
40
40
40
40
40
40
40
40
40
ENDCHAR
STARTCHAR g134
ENCODING 205
SWIDTH 333 0
DWIDTH 6 0
BBX 3 18 1 0
BITMAP
20
40
80
00
40
40
40
40
40
40
40
40
40
40
40
40
40
40
ENDCHAR
STARTCHAR g135
ENCODING 206
SWIDTH 333 0
DWIDTH 6 0
BBX 5 18 0 0
BITMAP
20
50
88
00
20
20
20
20
20
20
20
20
20
20
20
20
20
20
ENDCHAR
STARTCHAR g136
ENCODING 207
SWIDTH 333 0
DWIDTH 6 0
BBX 5 16 0 0
BITMAP
88
00
20
20
20
20
20
20
20
20
20
20
20
20
20
20
ENDCHAR
STARTCHAR g137
ENCODING 209
SWIDTH 667 0
DWIDTH 12 0
BBX 9 18 1 0
BITMAP
3880
4700
0000
0000
8080
C080
C080
A080
A080
9080
8880
8880
8480
8280
8280
8180
8180
8080
ENDCHAR
STARTCHAR g138
ENCODING 210
SWIDTH 667 0
DWIDTH 12 0
BBX 10 18 1 0
BITMAP
1000
0800
0400
0000
1E00
2100
4080
4080
8040
8040
8040
8040
8040
8040
4080
4080
2100
1E00
ENDCHAR
STARTCHAR g139
ENCODING 211
SWIDTH 667 0
DWIDTH 12 0
BBX 10 18 1 0
BITMAP
0200
0400
0800
0000
1E00
2100
4080
4080
8040
8040
8040
8040
8040
8040
4080
4080
2100
1E00
ENDCHAR
STARTCHAR g140
ENCODING 212
SWIDTH 667 0
DWIDTH 12 0
BBX 10 18 1 0
BITMAP
0C00
1200
0000
0000
1E00
2100
4080
4080
8040
8040
8040
8040
8040
8040
4080
4080
2100
1E00
ENDCHAR
STARTCHAR g141
ENCODING 213
SWIDTH 667 0
DWIDTH 12 0
BBX 10 18 1 0
BITMAP
3880
4700
0000
0000
1E00
2100
4080
4080
8040
8040
8040
8040
8040
8040
4080
4080
2100
1E00
ENDCHAR
STARTCHAR g142
ENCODING 214
SWIDTH 667 0
DWIDTH 12 0
BBX 10 17 1 0
BITMAP
1200
0000
0000
1E00
2100
4080
4080
8040
8040
8040
8040
8040
8040
4080
4080
2100
1E00
ENDCHAR
STARTCHAR g143
ENCODING 216
SWIDTH 667 0
DWIDTH 12 0
BBX 10 14 1 0
BITMAP
1E40
2140
4080
4080
8140
8240
8440
8840
9040
A040
4080
4080
A100
9E00
ENDCHAR
STARTCHAR g144
ENCODING 217
SWIDTH 667 0
DWIDTH 12 0
BBX 9 18 1 0
BITMAP
1000
0800
0400
0000
8080
8080
8080
8080
8080
8080
8080
8080
8080
8080
8080
8080
4100
3E00
ENDCHAR
STARTCHAR g145
ENCODING 218
SWIDTH 667 0
DWIDTH 12 0
BBX 9 18 1 0
BITMAP
0400
0800
1000
0000
8080
8080
8080
8080
8080
8080
8080
8080
8080
8080
8080
8080
4100
3E00
ENDCHAR
STARTCHAR g146
ENCODING 219
SWIDTH 667 0
DWIDTH 12 0
BBX 9 18 1 0
BITMAP
0800
1400
2200
0000
8080
8080
8080
8080
8080
8080
8080
8080
8080
8080
8080
8080
4100
3E00
ENDCHAR
STARTCHAR g147
ENCODING 220
SWIDTH 667 0
DWIDTH 12 0
BBX 9 17 1 0
BITMAP
2200
0000
0000
8080
8080
8080
8080
8080
8080
8080
8080
8080
8080
8080
8080
4100
3E00
ENDCHAR
STARTCHAR g148
ENCODING 223
SWIDTH 667 0
DWIDTH 12 0
BBX 10 14 1 0
BITMAP
1E00
2100
4080
4080
4100
4600
4100
4080
4040
4040
4040
4040
4080
8F00
ENDCHAR
STARTCHAR g149
ENCODING 224
SWIDTH 556 0
DWIDTH 10 0
BBX 7 15 1 0
BITMAP
20
10
08
00
00
3C
42
82
0E
32
42
82
86
8A
72
ENDCHAR
STARTCHAR g150
ENCODING 225
SWIDTH 556 0
DWIDTH 10 0
BBX 7 15 1 0
BITMAP
04
08
10
00
00
3C
42
82
0E
32
42
82
86
8A
72
ENDCHAR
STARTCHAR g151
ENCODING 226
SWIDTH 556 0
DWIDTH 10 0
BBX 7 15 1 0
BITMAP
10
28
44
00
00
3C
42
82
0E
32
42
82
86
8A
72
ENDCHAR
STARTCHAR g152
ENCODING 227
SWIDTH 556 0
DWIDTH 10 0
BBX 7 14 1 0
BITMAP
64
98
00
00
3C
42
82
0E
32
42
82
86
8A
72
ENDCHAR
STARTCHAR g153
ENCODING 228
SWIDTH 556 0
DWIDTH 10 0
BBX 7 13 1 0
BITMAP
24
00
00
3C
42
82
0E
32
42
82
86
8A
72
ENDCHAR
STARTCHAR g154
ENCODING 229
SWIDTH 556 0
DWIDTH 10 0
BBX 7 15 1 0
BITMAP
18
24
24
18
00
3C
42
82
0E
32
42
82
86
8A
72
ENDCHAR
STARTCHAR g155
ENCODING 230
SWIDTH 1000 0
DWIDTH 18 0
BBX 13 10 3 0
BITMAP
38E0
4510
8208
0E08
33F8
4200
8200
8608
8B10
72E0
ENDCHAR
STARTCHAR g156
ENCODING 231
SWIDTH 556 0
DWIDTH 10 0
BBX 7 13 1 -3
BITMAP
3C
42
80
80
80
80
80
80
42
3C
08
08
10
ENDCHAR
STARTCHAR g157
ENCODING 232
SWIDTH 556 0
DWIDTH 10 0
BBX 7 15 1 0
BITMAP
20
10
08
00
00
38
44
82
82
FE
80
80
80
44
38
ENDCHAR
STARTCHAR g158
ENCODING 233
SWIDTH 556 0
DWIDTH 10 0
BBX 7 15 1 0
BITMAP
08
10
20
00
00
38
44
82
82
FE
80
80
80
44
38
ENDCHAR
STARTCHAR g159
ENCODING 234
SWIDTH 556 0
DWIDTH 10 0
BBX 7 15 1 0
BITMAP
10
28
44
00
00
38
44
82
82
FE
80
80
80
44
38
ENDCHAR
STARTCHAR g160
ENCODING 235
SWIDTH 556 0
DWIDTH 10 0
BBX 7 13 1 0
BITMAP
44
00
00
38
44
82
82
FE
80
80
80
44
38
ENDCHAR
STARTCHAR g161
ENCODING 236
SWIDTH 333 0
DWIDTH 6 0
BBX 3 15 2 0
BITMAP
80
40
20
00
00
C0
40
40
40
40
40
40
40
40
40
ENDCHAR
STARTCHAR g162
ENCODING 237
SWIDTH 333 0
DWIDTH 6 0
BBX 3 15 1 0
BITMAP
20
40
80
00
00
C0
40
40
40
40
40
40
40
40
40
ENDCHAR
STARTCHAR g163
ENCODING 238
SWIDTH 333 0
DWIDTH 6 0
BBX 5 15 0 0
BITMAP
20
50
88
00
00
60
20
20
20
20
20
20
20
20
20
ENDCHAR
STARTCHAR g164
ENCODING 239
SWIDTH 389 0
DWIDTH 7 0
BBX 4 13 1 0
BITMAP
90
00
00
60
20
20
20
20
20
20
20
20
20
ENDCHAR
STARTCHAR g165
ENCODING 241
SWIDTH 556 0
DWIDTH 10 0
BBX 7 14 1 0
BITMAP
32
4C
00
00
B8
C4
82
82
82
82
82
82
82
82
ENDCHAR
STARTCHAR g166
ENCODING 242
SWIDTH 556 0
DWIDTH 10 0
BBX 7 15 1 0
BITMAP
20
10
08
00
00
38
44
82
82
82
82
82
82
44
38
ENDCHAR
STARTCHAR g167
ENCODING 243
SWIDTH 556 0
DWIDTH 10 0
BBX 7 15 1 0
BITMAP
08
10
20
00
00
38
44
82
82
82
82
82
82
44
38
ENDCHAR
STARTCHAR g168
ENCODING 244
SWIDTH 556 0
DWIDTH 10 0
BBX 7 15 1 0
BITMAP
10
28
44
00
00
38
44
82
82
82
82
82
82
44
38
ENDCHAR
STARTCHAR g169
ENCODING 245
SWIDTH 556 0
DWIDTH 10 0
BBX 7 14 1 0
BITMAP
32
4C
00
00
38
44
82
82
82
82
82
82
44
38
ENDCHAR
STARTCHAR g170
ENCODING 246
SWIDTH 556 0
DWIDTH 10 0
BBX 7 13 1 0
BITMAP
44
00
00
38
44
82
82
82
82
82
82
44
38
ENDCHAR
STARTCHAR g171
ENCODING 247
SWIDTH 556 0
DWIDTH 10 0
BBX 7 9 1 3
BITMAP
10
10
00
00
FE
00
00
10
10
ENDCHAR
STARTCHAR g172
ENCODING 248
SWIDTH 556 0
DWIDTH 10 0
BBX 7 10 1 0
BITMAP
3A
44
8A
8A
92
92
A2
A2
44
B8
ENDCHAR
STARTCHAR g173
ENCODING 249
SWIDTH 556 0
DWIDTH 10 0
BBX 7 15 1 0
BITMAP
20
10
08
00
00
82
82
82
82
82
82
82
82
46
3A
ENDCHAR
STARTCHAR g174
ENCODING 250
SWIDTH 556 0
DWIDTH 10 0
BBX 7 15 1 0
BITMAP
08
10
20
00
00
82
82
82
82
82
82
82
82
46
3A
ENDCHAR
STARTCHAR g175
ENCODING 251
SWIDTH 556 0
DWIDTH 10 0
BBX 7 15 1 0
BITMAP
10
28
44
00
00
82
82
82
82
82
82
82
82
46
3A
ENDCHAR
STARTCHAR g176
ENCODING 252
SWIDTH 556 0
DWIDTH 10 0
BBX 7 13 1 0
BITMAP
44
00
00
82
82
82
82
82
82
82
82
46
3A
ENDCHAR
STARTCHAR g177
ENCODING 255
SWIDTH 667 0
DWIDTH 12 0
BBX 9 18 1 -4
BITMAP
2200
0000
0000
0000
8080
8080
4100
4100
2200
2200
1400
1400
0800
0800
1000
1000
2000
2000
ENDCHAR
STARTCHAR g178
ENCODING 305
SWIDTH 333 0
DWIDTH 6 0
BBX 2 10 1 0
BITMAP
C0
40
40
40
40
40
40
40
40
40
ENDCHAR
STARTCHAR g179
ENCODING 338
SWIDTH 1000 0
DWIDTH 18 0
BBX 15 14 1 0
BITMAP
1EFE
2180
4080
4080
8080
8080
80F8
8080
8080
8080
4080
4080
2180
1EFE
ENDCHAR
STARTCHAR g180
ENCODING 339
SWIDTH 889 0
DWIDTH 16 0
BBX 13 10 1 0
BITMAP
38E0
4510
8208
8208
83F8
8200
8200
8208
4510
38E0
ENDCHAR
STARTCHAR g181
ENCODING 376
SWIDTH 667 0
DWIDTH 12 0
BBX 9 16 1 0
BITMAP
2200
0000
8080
8080
4100
4100
2200
2200
1400
1400
0800
0800
0800
0800
0800
0800
ENDCHAR
STARTCHAR g182
ENCODING 402
SWIDTH 556 0
DWIDTH 10 0
BBX 7 22 2 -4
BITMAP
06
08
10
10
10
10
10
10
10
7C
10
10
10
10
10
10
10
10
10
10
20
C0
ENDCHAR
STARTCHAR g183
ENCODING 710
SWIDTH 556 0
DWIDTH 10 0
BBX 5 3 3 12
BITMAP
20
50
88
ENDCHAR
STARTCHAR g184
ENCODING 711
SWIDTH 556 0
DWIDTH 10 0
BBX 5 3 3 11
BITMAP
88
50
20
ENDCHAR
STARTCHAR g185
ENCODING 728
SWIDTH 556 0
DWIDTH 10 0
BBX 6 3 2 11
BITMAP
84
48
30
ENDCHAR
STARTCHAR g186
ENCODING 729
SWIDTH 556 0
DWIDTH 10 0
BBX 2 2 4 11
BITMAP
C0
C0
ENDCHAR
STARTCHAR g187
ENCODING 730
SWIDTH 500 0
DWIDTH 9 0
BBX 4 4 3 11
BITMAP
60
90
90
60
ENDCHAR
STARTCHAR g188
ENCODING 731
SWIDTH 556 0
DWIDTH 10 0
BBX 3 4 4 -4
BITMAP
40
80
80
60
ENDCHAR
STARTCHAR g189
ENCODING 732
SWIDTH 556 0
DWIDTH 10 0
BBX 6 2 2 11
BITMAP
64
98
ENDCHAR
STARTCHAR g190
ENCODING 733
SWIDTH 556 0
DWIDTH 10 0
BBX 5 3 3 11
BITMAP
28
50
A0
ENDCHAR
STARTCHAR g191
ENCODING 960
SWIDTH 722 0
DWIDTH 13 0
BBX 12 10 0 0
BITMAP
7FF0
9040
1040
1040
1040
1040
1040
1040
1040
1020
ENDCHAR
STARTCHAR g192
ENCODING 8211
SWIDTH 556 0
DWIDTH 10 0
BBX 7 1 1 6
BITMAP
FE
ENDCHAR
STARTCHAR g193
ENCODING 8212
SWIDTH 778 0
DWIDTH 14 0
BBX 12 1 1 6
BITMAP
FFF0
ENDCHAR
STARTCHAR g194
ENCODING 8216
SWIDTH 444 0
DWIDTH 8 0
BBX 2 4 4 10
BITMAP
40
80
80
C0
ENDCHAR
STARTCHAR g195
ENCODING 8217
SWIDTH 444 0
DWIDTH 8 0
BBX 2 4 2 10
BITMAP
C0
40
40
80
ENDCHAR
STARTCHAR g196
ENCODING 8218
SWIDTH 333 0
DWIDTH 6 0
BBX 2 5 2 -3
BITMAP
C0
C0
40
40
80
ENDCHAR
STARTCHAR g197
ENCODING 8220
SWIDTH 778 0
DWIDTH 14 0
BBX 6 4 5 10
BITMAP
44
88
88
CC
ENDCHAR
STARTCHAR g198
ENCODING 8221
SWIDTH 778 0
DWIDTH 14 0
BBX 6 4 3 10
BITMAP
CC
44
44
88
ENDCHAR
STARTCHAR g199
ENCODING 8222
SWIDTH 500 0
DWIDTH 9 0
BBX 5 5 2 -3
BITMAP
D8
D8
48
48
90
ENDCHAR
STARTCHAR g200
ENCODING 8224
SWIDTH 444 0
DWIDTH 8 0
BBX 3 7 2 8
BITMAP
40
40
E0
40
40
40
40
ENDCHAR
STARTCHAR g201
ENCODING 8225
SWIDTH 611 0
DWIDTH 11 0
BBX 7 16 2 -3
BITMAP
10
10
10
FE
10
10
10
10
10
10
10
10
FE
10
10
10
ENDCHAR
STARTCHAR g202
ENCODING 8226
SWIDTH 667 0
DWIDTH 12 0
BBX 9 9 1 2
BITMAP
1C00
7F00
7F00
FF80
FF80
FF80
7F00
7F00
1C00
ENDCHAR
STARTCHAR g203
ENCODING 8230
SWIDTH 889 0
DWIDTH 16 0
BBX 11 2 3 0
BITMAP
8420
8420
ENDCHAR
STARTCHAR g204
ENCODING 8240
SWIDTH 1278 0
DWIDTH 23 0
BBX 21 14 1 0
BITMAP
000800
701000
882000
882000
884000
888000
890000
713870
024488
044488
084488
084488
104488
203870
ENDCHAR
STARTCHAR g205
ENCODING 8249
SWIDTH 389 0
DWIDTH 7 0
BBX 5 9 1 0
BITMAP
08
10
20
40
80
40
20
10
08
ENDCHAR
STARTCHAR g206
ENCODING 8250
SWIDTH 389 0
DWIDTH 7 0
BBX 5 9 1 0
BITMAP
80
40
20
10
08
10
20
40
80
ENDCHAR
STARTCHAR g207
ENCODING 8260
SWIDTH 278 0
DWIDTH 5 0
BBX 7 14 -1 0
BITMAP
02
02
04
04
08
08
10
10
20
20
40
40
80
80
ENDCHAR
STARTCHAR g208
ENCODING 8482
SWIDTH 1000 0
DWIDTH 18 0
BBX 13 5 1 9
BITMAP
FA08
2318
22A8
2248
2208
ENDCHAR
STARTCHAR g209
ENCODING 8486
SWIDTH 889 0
DWIDTH 16 0
BBX 11 14 2 0
BITMAP
0E00
3180
4040
4040
8020
8020
8020
8020
4040
4040
2080
2080
1100
71C0
ENDCHAR
STARTCHAR g210
ENCODING 8706
SWIDTH 556 0
DWIDTH 10 0
BBX 7 13 1 0
BITMAP
70
08
04
02
0E
32
42
82
82
82
82
44
38
ENDCHAR
STARTCHAR g211
ENCODING 8710
SWIDTH 778 0
DWIDTH 14 0
BBX 11 12 1 0
BITMAP
0400
0400
0A00
0A00
1100
1100
2080
2080
4040
4040
8020
FFE0
ENDCHAR
STARTCHAR g212
ENCODING 8719
SWIDTH 778 0
DWIDTH 14 0
BBX 10 14 2 0
BITMAP
FFC0
4080
4080
4080
4080
4080
4080
4080
4080
4080
4080
4080
4080
4080
ENDCHAR
STARTCHAR g213
ENCODING 8721
SWIDTH 667 0
DWIDTH 12 0
BBX 9 14 1 0
BITMAP
FF80
4080
2000
1000
0800
0400
0200
0200
0400
0800
1000
2000
4080
FF80
ENDCHAR
STARTCHAR g214
ENCODING 8730
SWIDTH 889 0
DWIDTH 16 0
BBX 13 16 1 0
BITMAP
0038
0020
0040
0040
0040
0080
0080
0080
0100
2100
5100
9200
0A00
0A00
0400
0400
ENDCHAR
STARTCHAR g215
ENCODING 8734
SWIDTH 889 0
DWIDTH 16 0
BBX 13 5 1 4
BITMAP
78F0
8508
8208
8508
78F0
ENDCHAR
STARTCHAR g216
ENCODING 8747
SWIDTH 556 0
DWIDTH 10 0
BBX 7 22 2 -4
BITMAP
06
08
10
10
10
10
10
10
10
10
10
10
10
10
10
10
10
10
10
10
20
C0
ENDCHAR
STARTCHAR g217
ENCODING 8776
SWIDTH 556 0
DWIDTH 10 0
BBX 8 5 1 4
BITMAP
71
8E
00
71
8E
ENDCHAR
STARTCHAR g218
ENCODING 8800
SWIDTH 556 0
DWIDTH 10 0
BBX 8 8 1 3
BITMAP
02
04
FF
08
10
FF
20
40
ENDCHAR
STARTCHAR g219
ENCODING 8804
SWIDTH 556 0
DWIDTH 10 0
BBX 6 11 2 0
BITMAP
08
10
20
40
80
40
20
10
08
00
FC
ENDCHAR
STARTCHAR g220
ENCODING 8805
SWIDTH 556 0
DWIDTH 10 0
BBX 6 11 2 0
BITMAP
40
20
10
08
04
08
10
20
40
00
FC
ENDCHAR
STARTCHAR g221
ENCODING 9674
SWIDTH 889 0
DWIDTH 16 0
BBX 11 12 1 1
BITMAP
0400
0A00
1100
2080
4040
8020
8020
4040
2080
1100
0A00
0400
ENDCHAR
STARTCHAR g222
ENCODING 63252
SWIDTH 667 0
DWIDTH 12 0
BBX 9 14 1 0
BITMAP
1C00
2200
4100
4100
8080
8080
8880
8880
8080
8080
4100
4100
2200
1C00
ENDCHAR
STARTCHAR g223
ENCODING 63253
SWIDTH 389 0
DWIDTH 7 0
BBX 3 14 2 0
BITMAP
E0
40
40
40
40
40
40
40
40
40
40
40
40
E0
ENDCHAR
STARTCHAR g224
ENCODING 63254
SWIDTH 333 0
DWIDTH 6 0
BBX 2 14 1 0
BITMAP
C0
40
40
40
40
40
40
40
40
40
40
40
40
40
ENDCHAR
STARTCHAR g225
ENCODING 63487
SWIDTH 667 0
DWIDTH 12 0
BBX 0 0 0 0
BITMAP
ENDCHAR
STARTCHAR g226
ENCODING 64257
SWIDTH 611 0
DWIDTH 11 0
BBX 8 14 1 0
BITMAP
1C
20
40
40
FF
41
41
41
41
41
41
41
41
41
ENDCHAR
STARTCHAR g227
ENCODING 64258
SWIDTH 611 0
DWIDTH 11 0
BBX 8 14 1 0
BITMAP
1F
21
41
41
F9
41
41
41
41
41
41
41
41
41
ENDCHAR
STARTCHAR g228
ENCODING 64512
SWIDTH 778 0
DWIDTH 14 0
BBX 11 14 1 0
BITMAP
FFE0
8020
8020
8020
8020
8020
8020
8020
8020
8020
8020
8020
8020
FFE0
ENDCHAR
STARTCHAR g229
ENCODING 64513
SWIDTH 778 0
DWIDTH 14 0
BBX 11 14 1 0
BITMAP
FFE0
8020
8020
8020
8020
8020
8020
8020
8020
8020
8020
8020
8020
FFE0
ENDCHAR
STARTCHAR g230
ENCODING 64514
SWIDTH 778 0
DWIDTH 14 0
BBX 11 14 1 0
BITMAP
FFE0
8020
8020
8020
8020
8020
8020
8020
8020
8020
8020
8020
8020
FFE0
ENDCHAR
STARTCHAR g231
ENCODING 64515
SWIDTH 778 0
DWIDTH 14 0
BBX 11 14 1 0
BITMAP
FFE0
8020
8020
8020
8020
8020
8020
8020
8020
8020
8020
8020
8020
FFE0
ENDCHAR
STARTCHAR g232
ENCODING 64516
SWIDTH 778 0
DWIDTH 14 0
BBX 11 14 1 0
BITMAP
FFE0
8020
8020
8020
8020
8020
8020
8020
8020
8020
8020
8020
8020
FFE0
ENDCHAR
STARTCHAR g233
ENCODING 64517
SWIDTH 778 0
DWIDTH 14 0
BBX 11 14 1 0
BITMAP
FFE0
8020
8020
8020
8020
8020
8020
8020
8020
8020
8020
8020
8020
FFE0
ENDCHAR
STARTCHAR g234
ENCODING 64518
SWIDTH 778 0
DWIDTH 14 0
BBX 11 14 1 0
BITMAP
FFE0
8020
8020
8020
8020
8020
8020
8020
8020
8020
8020
8020
8020
FFE0
ENDCHAR
STARTCHAR g235
ENCODING 64519
SWIDTH 778 0
DWIDTH 14 0
BBX 11 14 1 0
BITMAP
FFE0
8020
8020
8020
8020
8020
8020
8020
8020
8020
8020
8020
8020
FFE0
ENDCHAR
STARTCHAR g236
ENCODING 64520
SWIDTH 778 0
DWIDTH 14 0
BBX 11 14 1 0
BITMAP
FFE0
8020
8020
8020
8020
8020
8020
8020
8020
8020
8020
8020
8020
FFE0
ENDCHAR
STARTCHAR g237
ENCODING 64521
SWIDTH 778 0
DWIDTH 14 0
BBX 11 14 1 0
BITMAP
FFE0
8020
8020
8020
8020
8020
8020
8020
8020
8020
8020
8020
8020
FFE0
ENDCHAR
STARTCHAR g238
ENCODING 64522
SWIDTH 778 0
DWIDTH 14 0
BBX 11 14 1 0
BITMAP
FFE0
8020
8020
8020
8020
8020
8020
8020
8020
8020
8020
8020
8020
FFE0
ENDCHAR
STARTCHAR g239
ENCODING 64523
SWIDTH 778 0
DWIDTH 14 0
BBX 11 14 1 0
BITMAP
FFE0
8020
8020
8020
8020
8020
8020
8020
8020
8020
8020
8020
8020
FFE0
ENDCHAR
STARTCHAR g240
ENCODING 64524
SWIDTH 778 0
DWIDTH 14 0
BBX 11 14 1 0
BITMAP
FFE0
8020
8020
8020
8020
8020
8020
8020
8020
8020
8020
8020
8020
FFE0
ENDCHAR
STARTCHAR g241
ENCODING 64525
SWIDTH 778 0
DWIDTH 14 0
BBX 11 14 1 0
BITMAP
FFE0
8020
8020
8020
8020
8020
8020
8020
8020
8020
8020
8020
8020
FFE0
ENDCHAR
STARTCHAR g242
ENCODING 64526
SWIDTH 778 0
DWIDTH 14 0
BBX 11 14 1 0
BITMAP
FFE0
8020
8020
8020
8020
8020
8020
8020
8020
8020
8020
8020
8020
FFE0
ENDCHAR
STARTCHAR g243
ENCODING 64527
SWIDTH 778 0
DWIDTH 14 0
BBX 11 14 1 0
BITMAP
FFE0
8020
8020
8020
8020
8020
8020
8020
8020
8020
8020
8020
8020
FFE0
ENDCHAR
ENDFONT
