STARTFONT 2.1
COMMENT Strike 5 of a Newton 'sfnt' font (bloc/bdat): tools/fonts/newtonsfnt.py,
COMMENT tools/fonts/README.md.  The builder reads the BLOC_* properties and the
COMMENT glyphs - STARTCHAR gN (N the glyph id; otherwise ENCODING through 'cmap'),
COMMENT DWIDTH (the advance), BBX (width, height, the bearing x, the bottom row's
COMMENT y: bearing y less the height) and the BITMAP rows.  A glyph id in the
COMMENT subtable ranges with no glyph here has no image (the missing glyph is 0).
COMMENT The other properties, SIZE, FONTBOUNDINGBOX and SWIDTH are worked out and
COMMENT not read back: change BLOC_HORI_* (the line metrics the ROM draws text by)
COMMENT to match an edit that changes the strike's extent.
FONT -Apple-Roman Regular-Medium-R-Normal--24-240-72-72-P-0-Apple-Roman
SIZE 24 72 72
FONTBOUNDINGBOX 30 28 -1 -6
STARTPROPERTIES 37
FONT_ASCENT 22
FONT_DESCENT 7
PIXEL_SIZE 24
FAMILY_NAME "Roman Regular"
BLOC_COLOR_REF 0
BLOC_HORI_ASCENDER 22
BLOC_HORI_DESCENDER -7
BLOC_HORI_WIDTH_MAX 30
BLOC_HORI_CARET_SLOPE_NUMERATOR 0
BLOC_HORI_CARET_SLOPE_DENOMINATOR 1
BLOC_HORI_CARET_OFFSET 0
BLOC_HORI_MIN_ORIGIN_SB -1
BLOC_HORI_MIN_ADVANCE_SB -1
BLOC_HORI_MAX_BEFORE_BL 22
BLOC_HORI_MIN_AFTER_BL -6
BLOC_HORI_PAD1 0
BLOC_HORI_PAD2 0
BLOC_VERT_ASCENDER 0
BLOC_VERT_DESCENDER -1
BLOC_VERT_WIDTH_MAX 28
BLOC_VERT_CARET_SLOPE_NUMERATOR 0
BLOC_VERT_CARET_SLOPE_DENOMINATOR 1
BLOC_VERT_CARET_OFFSET 0
BLOC_VERT_MIN_ORIGIN_SB 119
BLOC_VERT_MIN_ADVANCE_SB -28
BLOC_VERT_MAX_BEFORE_BL 0
BLOC_VERT_MIN_AFTER_BL 92
BLOC_VERT_PAD1 0
BLOC_VERT_PAD2 0
BLOC_START_GLYPH 0
BLOC_END_GLYPH 257
BLOC_PPEM_X 24
BLOC_PPEM_Y 24
BLOC_BIT_DEPTH 1
BLOC_FLAGS 1
BLOC_INDEX_SUBTABLES 1
BLOC_INDEX_SUBTABLE_0 "0 257 3 1 0"
ENDPROPERTIES
CHARS 244
STARTCHAR g0
ENCODING -1
SWIDTH 833 0
DWIDTH 20 0
BBX 16 17 2 0
BITMAP
FFFF
8001
8001
8001
8001
8001
8001
8001
8001
8001
8001
8001
8001
8001
8001
8001
FFFF
ENDCHAR
STARTCHAR g1
ENCODING 0
SWIDTH 0 0
DWIDTH 0 0
BBX 0 0 0 0
BITMAP
ENDCHAR
STARTCHAR g2
ENCODING 1
SWIDTH 333 0
DWIDTH 8 0
BBX 0 0 0 0
BITMAP
ENDCHAR
STARTCHAR g3
ENCODING 2
SWIDTH 250 0
DWIDTH 6 0
BBX 2 18 2 0
BITMAP
C0
C0
C0
C0
C0
C0
C0
C0
C0
C0
C0
C0
C0
C0
00
00
C0
C0
ENDCHAR
STARTCHAR g4
ENCODING 3
SWIDTH 417 0
DWIDTH 10 0
BBX 6 6 2 12
BITMAP
CC
CC
CC
CC
CC
CC
ENDCHAR
STARTCHAR g5
ENCODING 4
SWIDTH 750 0
DWIDTH 18 0
BBX 14 16 2 3
BITMAP
0318
0318
0630
0630
3FFC
3FFC
0C60
0C60
18C0
18C0
FFF0
FFF0
3180
3180
6300
6300
ENDCHAR
STARTCHAR g6
ENCODING 5
SWIDTH 583 0
DWIDTH 14 0
BBX 12 22 1 -2
BITMAP
0600
0600
1F80
7FE0
6660
C600
C600
6600
7600
3F00
0FC0
06E0
0660
0630
0630
0630
C660
E6E0
7FC0
1F00
0600
0600
ENDCHAR
STARTCHAR g7
ENCODING 6
SWIDTH 750 0
DWIDTH 18 0
BBX 15 18 1 0
BITMAP
3806
7C0C
C618
C618
C630
C660
7CC0
38C0
0180
0300
0638
067C
0CC6
18C6
30C6
30C6
607C
C038
ENDCHAR
STARTCHAR g8
ENCODING 7
SWIDTH 750 0
DWIDTH 18 0
BBX 16 18 1 0
BITMAP
0E00
3F00
7380
6180
6180
7380
3F00
1E00
1E00
3F18
7398
61F8
C0F0
C070
C0F8
E1DC
7F8E
3F07
ENDCHAR
STARTCHAR g9
ENCODING 8
SWIDTH 250 0
DWIDTH 6 0
BBX 2 6 2 12
BITMAP
C0
C0
C0
C0
C0
C0
ENDCHAR
STARTCHAR g10
ENCODING 9
SWIDTH 417 0
DWIDTH 10 0
BBX 5 20 2 -1
BITMAP
08
18
30
30
60
60
C0
C0
C0
C0
C0
C0
C0
C0
60
60
30
30
18
08
ENDCHAR
STARTCHAR g11
ENCODING 10
SWIDTH 417 0
DWIDTH 10 0
BBX 5 20 2 -1
BITMAP
80
C0
60
60
30
30
18
18
18
18
18
18
18
18
30
30
60
60
C0
80
ENDCHAR
STARTCHAR g12
ENCODING 11
SWIDTH 667 0
DWIDTH 16 0
BBX 14 13 1 7
BITMAP
0300
0300
0300
4308
FB7C
7FF8
0FC0
0780
0FC0
1CE0
3870
7038
2010
ENDCHAR
STARTCHAR g13
ENCODING 12
SWIDTH 583 0
DWIDTH 14 0
BBX 10 10 2 4
BITMAP
0C00
0C00
0C00
0C00
FFC0
FFC0
0C00
0C00
0C00
0C00
ENDCHAR
STARTCHAR g14
ENCODING 44
SWIDTH 333 0
DWIDTH 8 0
BBX 3 6 2 -4
BITMAP
E0
E0
60
60
C0
80
ENDCHAR
STARTCHAR g15
ENCODING 45
SWIDTH 583 0
DWIDTH 14 0
BBX 10 2 2 8
BITMAP
FFC0
FFC0
ENDCHAR
STARTCHAR g16
ENCODING 46
SWIDTH 250 0
DWIDTH 6 0
BBX 3 3 1 0
BITMAP
E0
E0
E0
ENDCHAR
STARTCHAR g17
ENCODING 47
SWIDTH 583 0
DWIDTH 14 0
BBX 10 18 2 0
BITMAP
00C0
00C0
0180
0180
0300
0300
0600
0600
0C00
0C00
1800
1800
3000
3000
6000
6000
C000
C000
ENDCHAR
STARTCHAR g18
ENCODING 48
SWIDTH 667 0
DWIDTH 16 0
BBX 12 18 2 0
BITMAP
0F00
3FC0
70E0
6060
C030
C030
C030
C030
C030
C030
C030
C030
C030
C030
6060
70E0
3FC0
0F00
ENDCHAR
STARTCHAR g19
ENCODING 49
SWIDTH 667 0
DWIDTH 16 0
BBX 5 18 4 0
BITMAP
18
78
F8
D8
18
18
18
18
18
18
18
18
18
18
18
18
18
18
ENDCHAR
STARTCHAR g20
ENCODING 50
SWIDTH 667 0
DWIDTH 16 0
BBX 12 18 2 0
BITMAP
0F80
3FC0
78E0
E070
C030
0030
0030
0070
01E0
03C0
0700
1E00
3800
7000
E000
C000
FFF0
FFF0
ENDCHAR
STARTCHAR g21
ENCODING 51
SWIDTH 667 0
DWIDTH 16 0
BBX 12 18 2 0
BITMAP
1F00
7F80
E1C0
C0E0
0060
0060
00E0
0FC0
0FC0
00E0
0070
0030
0030
0030
C070
E1E0
7FC0
3F00
ENDCHAR
STARTCHAR g22
ENCODING 52
SWIDTH 667 0
DWIDTH 16 0
BBX 14 18 1 0
BITMAP
0030
0070
00F0
01F0
03B0
0730
0630
0C30
1C30
3830
7030
FFFC
FFFC
0030
0030
0030
0030
0030
ENDCHAR
STARTCHAR g23
ENCODING 53
SWIDTH 667 0
DWIDTH 16 0
BBX 12 18 2 0
BITMAP
7FE0
7FE0
6000
6000
6000
6000
6000
7F00
7FC0
01E0
0070
0030
0030
0030
C060
E0E0
7FC0
3F00
ENDCHAR
STARTCHAR g24
ENCODING 54
SWIDTH 667 0
DWIDTH 16 0
BBX 12 18 2 0
BITMAP
0780
1FC0
38E0
7060
6000
C000
CF00
DFC0
F0E0
E060
C030
C030
C030
C030
6060
70E0
3FC0
0F00
ENDCHAR
STARTCHAR g25
ENCODING 55
SWIDTH 667 0
DWIDTH 16 0
BBX 12 18 2 0
BITMAP
FFF0
FFF0
0060
00C0
0180
0180
0300
0300
0300
0600
0600
0600
0600
0C00
0C00
0C00
0C00
0C00
ENDCHAR
STARTCHAR g26
ENCODING 56
SWIDTH 667 0
DWIDTH 16 0
BBX 12 18 2 0
BITMAP
0F00
3FC0
30C0
6060
6060
6060
30C0
1F80
3FC0
70E0
6060
C030
C030
C030
6060
70E0
3FC0
0F00
ENDCHAR
STARTCHAR g27
ENCODING 57
SWIDTH 667 0
DWIDTH 16 0
BBX 12 18 2 0
BITMAP
0F00
3FC0
70E0
6060
C030
C030
C030
C030
6070
70F0
3FF0
0F30
0030
0030
6060
70E0
3FC0
1F80
ENDCHAR
STARTCHAR g28
ENCODING 58
SWIDTH 250 0
DWIDTH 6 0
BBX 3 13 1 0
BITMAP
E0
E0
E0
00
00
00
00
00
00
00
E0
E0
E0
ENDCHAR
STARTCHAR g29
ENCODING 59
SWIDTH 333 0
DWIDTH 8 0
BBX 3 17 2 -4
BITMAP
E0
E0
E0
00
00
00
00
00
00
00
00
E0
E0
60
60
C0
80
ENDCHAR
STARTCHAR g30
ENCODING 60
SWIDTH 500 0
DWIDTH 12 0
BBX 9 13 1 2
BITMAP
0380
0700
0E00
1C00
3800
7000
E000
7000
3800
1C00
0E00
0700
0380
ENDCHAR
STARTCHAR g31
ENCODING 61
SWIDTH 583 0
DWIDTH 14 0
BBX 10 6 2 6
BITMAP
FFC0
FFC0
0000
0000
FFC0
FFC0
ENDCHAR
STARTCHAR g32
ENCODING 62
SWIDTH 500 0
DWIDTH 12 0
BBX 9 13 1 2
BITMAP
E000
7000
3800
1C00
0E00
0700
0380
0700
0E00
1C00
3800
7000
E000
ENDCHAR
STARTCHAR g33
ENCODING 63
SWIDTH 667 0
DWIDTH 16 0
BBX 11 18 2 0
BITMAP
3F80
7FC0
E0E0
C060
C060
00E0
01C0
0380
0700
0E00
0C00
0C00
0C00
0C00
0000
0000
0C00
0C00
ENDCHAR
STARTCHAR g34
ENCODING 64
SWIDTH 833 0
DWIDTH 20 0
BBX 17 18 1 -1
BITMAP
07E000
1FFC00
3C1E00
700700
61E300
E7F380
CE3980
CC1980
CC1980
CC1980
CC1980
CE3B80
E7FF00
63CE00
700000
3C0C00
1FFC00
03F000
ENDCHAR
STARTCHAR g35
ENCODING 65
SWIDTH 750 0
DWIDTH 18 0
BBX 17 18 0 0
BITMAP
008000
01C000
01C000
036000
036000
063000
063000
0C1800
0C1800
180C00
180C00
1FFC00
3FFE00
300600
600300
600300
C00180
C00180
ENDCHAR
STARTCHAR g36
ENCODING 66
SWIDTH 667 0
DWIDTH 16 0
BBX 14 18 1 0
BITMAP
FFE0
FFF0
C038
C018
C018
C018
C030
FFE0
FFF0
C038
C018
C00C
C00C
C00C
C018
C038
FFF0
FFC0
ENDCHAR
STARTCHAR g37
ENCODING 67
SWIDTH 667 0
DWIDTH 16 0
BBX 13 18 1 0
BITMAP
07E0
1FF0
3838
7018
6000
E000
C000
C000
C000
C000
C000
C000
E000
6000
7018
3838
1FF0
07E0
ENDCHAR
STARTCHAR g38
ENCODING 68
SWIDTH 667 0
DWIDTH 16 0
BBX 14 18 1 0
BITMAP
FF80
FFE0
C070
C038
C018
C01C
C00C
C00C
C00C
C00C
C00C
C00C
C01C
C018
C038
C070
FFE0
FF80
ENDCHAR
STARTCHAR g39
ENCODING 69
SWIDTH 583 0
DWIDTH 14 0
BBX 11 18 1 0
BITMAP
FFE0
FFE0
C000
C000
C000
C000
C000
C000
FFC0
FFC0
C000
C000
C000
C000
C000
C000
FFE0
FFE0
ENDCHAR
STARTCHAR g40
ENCODING 70
SWIDTH 583 0
DWIDTH 14 0
BBX 11 18 1 0
BITMAP
FFE0
FFE0
C000
C000
C000
C000
C000
C000
FF80
FF80
C000
C000
C000
C000
C000
C000
C000
C000
ENDCHAR
STARTCHAR g41
ENCODING 71
SWIDTH 667 0
DWIDTH 16 0
BBX 14 18 1 0
BITMAP
07E0
1FF8
381C
700C
6000
E000
C000
C000
C1FC
C1FC
C00C
C00C
E00C
600C
700C
381C
1FF8
07E0
ENDCHAR
STARTCHAR g42
ENCODING 72
SWIDTH 667 0
DWIDTH 16 0
BBX 13 18 1 0
BITMAP
C018
C018
C018
C018
C018
C018
C018
C018
FFF8
FFF8
C018
C018
C018
C018
C018
C018
C018
C018
ENDCHAR
STARTCHAR g43
ENCODING 73
SWIDTH 417 0
DWIDTH 10 0
BBX 2 18 4 0
BITMAP
C0
C0
C0
C0
C0
C0
C0
C0
C0
C0
C0
C0
C0
C0
C0
C0
C0
C0
ENDCHAR
STARTCHAR g44
ENCODING 74
SWIDTH 583 0
DWIDTH 14 0
BBX 12 18 0 0
BITMAP
0030
0030
0030
0030
0030
0030
0030
0030
0030
0030
0030
0030
C030
C030
E060
70E0
3FC0
0F00
ENDCHAR
STARTCHAR g45
ENCODING 75
SWIDTH 667 0
DWIDTH 16 0
BBX 13 18 1 0
BITMAP
C070
C0E0
C1C0
C380
C700
CE00
DC00
F800
F000
F800
DC00
CE00
C700
C380
C1C0
C0E0
C070
C038
ENDCHAR
STARTCHAR g46
ENCODING 76
SWIDTH 583 0
DWIDTH 14 0
BBX 11 18 1 0
BITMAP
C000
C000
C000
C000
C000
C000
C000
C000
C000
C000
C000
C000
C000
C000
C000
C000
FFE0
FFE0
ENDCHAR
STARTCHAR g47
ENCODING 77
SWIDTH 750 0
DWIDTH 18 0
BBX 15 18 1 0
BITMAP
8002
C006
C006
E00E
F01E
F01E
D836
D836
CC66
CC66
C6C6
C6C6
C386
C386
C006
C006
C006
C006
ENDCHAR
STARTCHAR g48
ENCODING 78
SWIDTH 667 0
DWIDTH 16 0
BBX 13 18 1 0
BITMAP
C018
E018
E018
F018
F018
D818
DC18
CC18
C618
C318
C398
C198
C0D8
C0D8
C078
C038
C038
C018
ENDCHAR
STARTCHAR g49
ENCODING 79
SWIDTH 667 0
DWIDTH 16 0
BBX 15 18 0 0
BITMAP
07C0
1FF0
3838
701C
600C
600C
C006
C006
C006
C006
C006
C006
600C
600C
701C
3838
1FF0
07C0
ENDCHAR
STARTCHAR g50
ENCODING 80
SWIDTH 667 0
DWIDTH 16 0
BBX 12 18 2 0
BITMAP
FF00
FFC0
C0E0
C060
C030
C030
C030
C060
C0E0
FFC0
FF00
C000
C000
C000
C000
C000
C000
C000
ENDCHAR
STARTCHAR g51
ENCODING 81
SWIDTH 667 0
DWIDTH 16 0
BBX 15 21 0 -3
BITMAP
07C0
1FF0
3018
600C
600C
4004
C006
C006
C006
C006
C006
C006
4004
600C
600C
3838
1FF0
07C0
0180
01FC
00FC
ENDCHAR
STARTCHAR g52
ENCODING 82
SWIDTH 667 0
DWIDTH 16 0
BBX 12 18 2 0
BITMAP
FF00
FFC0
C0E0
C060
C030
C030
C030
C060
C0E0
FFC0
FF80
C180
C1C0
C0C0
C0E0
C060
C070
C030
ENDCHAR
STARTCHAR g53
ENCODING 83
SWIDTH 667 0
DWIDTH 16 0
BBX 12 18 2 0
BITMAP
0F00
3FC0
70E0
6060
C000
C000
6000
7F00
1FC0
00E0
0060
0030
0030
0030
C060
E0E0
7FC0
1F00
ENDCHAR
STARTCHAR g54
ENCODING 84
SWIDTH 667 0
DWIDTH 16 0
BBX 14 18 1 0
BITMAP
FFFC
FFFC
0300
0300
0300
0300
0300
0300
0300
0300
0300
0300
0300
0300
0300
0300
0300
0300
ENDCHAR
STARTCHAR g55
ENCODING 85
SWIDTH 667 0
DWIDTH 16 0
BBX 12 18 2 0
BITMAP
C030
C030
C030
C030
C030
C030
C030
C030
C030
C030
C030
C030
C030
C030
6060
70E0
3FC0
0F00
ENDCHAR
STARTCHAR g56
ENCODING 86
SWIDTH 750 0
DWIDTH 18 0
BBX 15 18 1 0
BITMAP
C006
C006
600C
600C
600C
3018
3018
3018
1830
1830
1830
0C60
0C60
0C60
06C0
06C0
0380
0380
ENDCHAR
STARTCHAR g57
ENCODING 87
SWIDTH 917 0
DWIDTH 22 0
BBX 21 18 1 0
BITMAP
C02018
C07018
C07018
607030
60D830
60D830
30D860
30D860
318C60
198CC0
198CC0
198CC0
0F0780
0F0780
0F0780
060300
060300
060300
ENDCHAR
STARTCHAR g58
ENCODING 88
SWIDTH 583 0
DWIDTH 14 0
BBX 13 18 0 0
BITMAP
C018
C018
6030
3060
3060
18C0
0D80
0D80
0700
0700
0D80
0D80
18C0
3060
3060
6030
C018
C018
ENDCHAR
STARTCHAR g59
ENCODING 89
SWIDTH 583 0
DWIDTH 14 0
BBX 14 18 0 0
BITMAP
C00C
C00C
6018
6018
3030
1860
1860
0CC0
0780
0780
0300
0300
0300
0300
0300
0300
0300
0300
ENDCHAR
STARTCHAR g60
ENCODING 90
SWIDTH 583 0
DWIDTH 14 0
BBX 12 18 1 0
BITMAP
FFF0
FFF0
0060
0060
00C0
0180
0180
0300
0600
0600
0C00
1800
1800
3000
6000
6000
FFF0
FFF0
ENDCHAR
STARTCHAR g61
ENCODING 91
SWIDTH 333 0
DWIDTH 8 0
BBX 5 22 1 -2
BITMAP
F8
F8
C0
C0
C0
C0
C0
C0
C0
C0
C0
C0
C0
C0
C0
C0
C0
C0
C0
C0
F8
F8
ENDCHAR
STARTCHAR g62
ENCODING 92
SWIDTH 583 0
DWIDTH 14 0
BBX 11 20 1 0
BITMAP
C000
C000
6000
6000
3000
3000
1800
1800
0C00
0C00
0600
0600
0300
0300
0180
0180
00C0
00C0
0060
0060
ENDCHAR
STARTCHAR g63
ENCODING 93
SWIDTH 333 0
DWIDTH 8 0
BBX 5 22 1 -2
BITMAP
F8
F8
18
18
18
18
18
18
18
18
18
18
18
18
18
18
18
18
18
18
F8
F8
ENDCHAR
STARTCHAR g64
ENCODING 94
SWIDTH 333 0
DWIDTH 8 0
BBX 9 9 -1 10
BITMAP
0800
1C00
1C00
3600
3600
6300
6300
C180
C180
ENDCHAR
STARTCHAR g65
ENCODING 95
SWIDTH 667 0
DWIDTH 16 0
BBX 16 2 0 0
BITMAP
FFFF
FFFF
ENDCHAR
STARTCHAR g66
ENCODING 96
SWIDTH 333 0
DWIDTH 8 0
BBX 4 5 2 15
BITMAP
80
C0
60
30
10
ENDCHAR
STARTCHAR g67
ENCODING 97
SWIDTH 583 0
DWIDTH 14 0
BBX 10 13 2 0
BITMAP
1F00
7F80
E1C0
C0C0
00C0
1FC0
7FC0
F0C0
C0C0
C0C0
C1C0
7FC0
3EC0
ENDCHAR
STARTCHAR g68
ENCODING 98
SWIDTH 583 0
DWIDTH 14 0
BBX 10 18 2 0
BITMAP
C000
C000
C000
C000
C000
DE00
FF00
E380
C180
C0C0
C0C0
C0C0
C0C0
C0C0
C180
E380
FF00
DE00
ENDCHAR
STARTCHAR g69
ENCODING 99
SWIDTH 583 0
DWIDTH 14 0
BBX 10 13 2 0
BITMAP
1F80
3FC0
70C0
6000
C000
C000
C000
C000
C000
6000
70C0
3FC0
1F80
ENDCHAR
STARTCHAR g70
ENCODING 100
SWIDTH 583 0
DWIDTH 14 0
BBX 10 18 2 0
BITMAP
00C0
00C0
00C0
00C0
00C0
1EC0
3FC0
71C0
60C0
C0C0
C0C0
C0C0
C0C0
C0C0
60C0
71C0
3FC0
1EC0
ENDCHAR
STARTCHAR g71
ENCODING 101
SWIDTH 583 0
DWIDTH 14 0
BBX 10 13 2 0
BITMAP
1E00
3F00
7380
6180
C0C0
FFC0
FFC0
C000
C000
6000
71C0
3F80
1F00
ENDCHAR
STARTCHAR g72
ENCODING 102
SWIDTH 500 0
DWIDTH 12 0
BBX 7 17 2 0
BITMAP
1E
3E
30
30
FE
FE
30
30
30
30
30
30
30
30
30
30
30
ENDCHAR
STARTCHAR g73
ENCODING 103
SWIDTH 583 0
DWIDTH 14 0
BBX 10 19 2 -6
BITMAP
1EC0
3FC0
71C0
60C0
C0C0
C0C0
C0C0
C0C0
C0C0
60C0
71C0
3FC0
1EC0
00C0
00C0
C180
E380
7F00
3E00
ENDCHAR
STARTCHAR g74
ENCODING 104
SWIDTH 583 0
DWIDTH 14 0
BBX 10 17 2 0
BITMAP
C000
C000
C000
C000
DF00
FF80
E1C0
C0C0
C0C0
C0C0
C0C0
C0C0
C0C0
C0C0
C0C0
C0C0
C0C0
ENDCHAR
STARTCHAR g75
ENCODING 105
SWIDTH 417 0
DWIDTH 10 0
BBX 2 17 4 0
BITMAP
C0
C0
00
00
C0
C0
C0
C0
C0
C0
C0
C0
C0
C0
C0
C0
C0
ENDCHAR
STARTCHAR g76
ENCODING 106
SWIDTH 500 0
DWIDTH 12 0
BBX 6 23 2 -6
BITMAP
0C
0C
00
00
0C
0C
0C
0C
0C
0C
0C
0C
0C
0C
0C
0C
0C
0C
0C
0C
1C
F8
F0
ENDCHAR
STARTCHAR g77
ENCODING 107
SWIDTH 583 0
DWIDTH 14 0
BBX 11 17 2 0
BITMAP
C000
C000
C000
C000
C380
C700
CE00
DC00
F800
F000
F800
DC00
CE00
C700
C380
C1C0
C0E0
ENDCHAR
STARTCHAR g78
ENCODING 108
SWIDTH 417 0
DWIDTH 10 0
BBX 2 17 4 0
BITMAP
C0
C0
C0
C0
C0
C0
C0
C0
C0
C0
C0
C0
C0
C0
C0
C0
C0
ENDCHAR
STARTCHAR g79
ENCODING 109
SWIDTH 917 0
DWIDTH 22 0
BBX 18 13 2 0
BITMAP
CF1F00
DFBF80
F1E1C0
E0C0C0
C0C0C0
C0C0C0
C0C0C0
C0C0C0
C0C0C0
C0C0C0
C0C0C0
C0C0C0
C0C0C0
ENDCHAR
STARTCHAR g80
ENCODING 110
SWIDTH 583 0
DWIDTH 14 0
BBX 10 13 2 0
BITMAP
DF00
FF80
E1C0
C0C0
C0C0
C0C0
C0C0
C0C0
C0C0
C0C0
C0C0
C0C0
C0C0
ENDCHAR
STARTCHAR g81
ENCODING 111
SWIDTH 583 0
DWIDTH 14 0
BBX 11 13 2 0
BITMAP
1F00
3F80
71C0
60C0
C060
C060
C060
C060
C060
60C0
71C0
3F80
1F00
ENDCHAR
STARTCHAR g82
ENCODING 112
SWIDTH 583 0
DWIDTH 14 0
BBX 10 17 2 -4
BITMAP
DE00
FF00
E380
C180
C0C0
C0C0
C0C0
C0C0
C0C0
C180
E380
FF00
DE00
C000
C000
C000
C000
ENDCHAR
STARTCHAR g83
ENCODING 113
SWIDTH 583 0
DWIDTH 14 0
BBX 10 17 2 -4
BITMAP
1EC0
3FC0
71C0
60C0
C0C0
C0C0
C0C0
C0C0
C0C0
60C0
71C0
3FC0
1EC0
00C0
00C0
00C0
00C0
ENDCHAR
STARTCHAR g84
ENCODING 114
SWIDTH 500 0
DWIDTH 12 0
BBX 8 13 2 0
BITMAP
CF
DF
F0
E0
C0
C0
C0
C0
C0
C0
C0
C0
C0
ENDCHAR
STARTCHAR g85
ENCODING 115
SWIDTH 583 0
DWIDTH 14 0
BBX 10 13 2 0
BITMAP
3F00
7F80
E1C0
C000
E000
7F00
3F80
01C0
00C0
00C0
E1C0
7F80
3F00
ENDCHAR
STARTCHAR g86
ENCODING 116
SWIDTH 500 0
DWIDTH 12 0
BBX 8 16 2 0
BITMAP
30
30
30
FE
FE
30
30
30
30
30
30
30
30
38
1F
0F
ENDCHAR
STARTCHAR g87
ENCODING 117
SWIDTH 583 0
DWIDTH 14 0
BBX 10 13 2 0
BITMAP
C0C0
C0C0
C0C0
C0C0
C0C0
C0C0
C0C0
C0C0
C0C0
60C0
71C0
3FC0
1EC0
ENDCHAR
STARTCHAR g88
ENCODING 118
SWIDTH 583 0
DWIDTH 14 0
BBX 13 13 0 0
BITMAP
C018
6030
6030
6030
3060
3060
18C0
18C0
18C0
0D80
0D80
0700
0700
ENDCHAR
STARTCHAR g89
ENCODING 119
SWIDTH 917 0
DWIDTH 22 0
BBX 19 13 1 0
BITMAP
C0E060
C0E060
60E0C0
61B0C0
61B0C0
31B180
31B180
331980
1B1B00
1B1B00
1B1B00
0E0E00
0E0E00
ENDCHAR
STARTCHAR g90
ENCODING 120
SWIDTH 583 0
DWIDTH 14 0
BBX 12 12 1 0
BITMAP
C030
E070
70E0
39C0
1F80
0F00
0F00
1F80
39C0
70E0
E070
C030
ENDCHAR
STARTCHAR g91
ENCODING 121
SWIDTH 583 0
DWIDTH 14 0
BBX 12 19 1 -6
BITMAP
C030
C030
6060
6060
30C0
30C0
1980
1980
1980
0F00
0F00
0600
0600
0E00
0C00
1C00
1800
F800
F000
ENDCHAR
STARTCHAR g92
ENCODING 122
SWIDTH 583 0
DWIDTH 14 0
BBX 12 13 1 0
BITMAP
FFF0
FFF0
00E0
01C0
0380
0700
0E00
1C00
3800
7000
E000
FFF0
FFF0
ENDCHAR
STARTCHAR g93
ENCODING 123
SWIDTH 417 0
DWIDTH 10 0
BBX 6 23 2 -2
BITMAP
0C
1C
38
30
30
30
18
18
18
18
30
E0
30
18
18
18
18
30
30
30
38
1C
0C
ENDCHAR
STARTCHAR g94
ENCODING 124
SWIDTH 250 0
DWIDTH 6 0
BBX 2 21 2 -2
BITMAP
C0
C0
C0
C0
C0
C0
C0
C0
C0
C0
00
C0
C0
C0
C0
C0
C0
C0
C0
C0
C0
ENDCHAR
STARTCHAR g95
ENCODING 125
SWIDTH 417 0
DWIDTH 10 0
BBX 6 23 2 -2
BITMAP
C0
E0
70
30
30
30
60
60
60
60
30
1C
30
60
60
60
60
30
30
30
70
E0
C0
ENDCHAR
STARTCHAR g96
ENCODING 126
SWIDTH 667 0
DWIDTH 16 0
BBX 12 4 2 15
BITMAP
3810
7C30
C7E0
83C0
ENDCHAR
STARTCHAR g97
ENCODING 127
SWIDTH 667 0
DWIDTH 16 0
BBX 0 0 0 0
BITMAP
ENDCHAR
STARTCHAR g98
ENCODING 161
SWIDTH 333 0
DWIDTH 8 0
BBX 2 18 3 0
BITMAP
C0
C0
00
00
C0
C0
C0
C0
C0
C0
C0
C0
C0
C0
C0
C0
C0
C0
ENDCHAR
STARTCHAR g99
ENCODING 162
SWIDTH 583 0
DWIDTH 14 0
BBX 10 18 2 0
BITMAP
0600
0600
1F80
3FC0
76C0
6600
C600
C600
C600
C600
C600
C600
6600
76C0
3FC0
1F80
0600
0600
ENDCHAR
STARTCHAR g100
ENCODING 163
SWIDTH 667 0
DWIDTH 16 0
BBX 13 18 1 0
BITMAP
01F0
03F0
0700
0600
0E00
0C00
0C00
0C00
7F80
7F80
1800
1800
1800
3800
3000
7000
FFF8
FFF8
ENDCHAR
STARTCHAR g101
ENCODING 164
SWIDTH 667 0
DWIDTH 16 0
BBX 14 14 1 2
BITMAP
4008
EFDC
7FF8
3870
3030
6018
6018
6018
6018
3030
3870
7FF8
EFDC
4008
ENDCHAR
STARTCHAR g102
ENCODING 165
SWIDTH 583 0
DWIDTH 14 0
BBX 14 18 0 0
BITMAP
C00C
C00C
6018
6018
3030
1860
1860
0CC0
0780
7FF8
7FF8
0300
0300
7FF8
7FF8
0300
0300
0300
ENDCHAR
STARTCHAR g103
ENCODING 167
SWIDTH 667 0
DWIDTH 16 0
BBX 13 22 1 -4
BITMAP
1FC0
7FF0
6038
C018
C000
E000
7800
3F00
67C0
C0F0
C038
F018
7E18
1FB0
03E0
00F0
0038
0018
C018
E030
7FF0
1FC0
ENDCHAR
STARTCHAR g104
ENCODING 168
SWIDTH 417 0
DWIDTH 10 0
BBX 6 2 2 16
BITMAP
CC
CC
ENDCHAR
STARTCHAR g105
ENCODING 169
SWIDTH 833 0
DWIDTH 20 0
BBX 17 17 1 -1
BITMAP
07F000
1FFC00
380E00
700700
61E300
C3F180
C73180
C60180
C60180
C60180
C73180
C3F180
61E300
700700
380E00
1FFC00
07F000
ENDCHAR
STARTCHAR g106
ENCODING 170
SWIDTH 458 0
DWIDTH 11 0
BBX 8 12 1 7
BITMAP
3E
7F
C3
0F
3F
73
C3
C7
FF
7B
00
FF
ENDCHAR
STARTCHAR g107
ENCODING 171
SWIDTH 667 0
DWIDTH 16 0
BBX 13 13 1 0
BITMAP
0318
0630
0C60
18C0
3180
6300
C600
6300
3180
18C0
0C60
0630
0318
ENDCHAR
STARTCHAR g108
ENCODING 172
SWIDTH 583 0
DWIDTH 14 0
BBX 10 6 2 4
BITMAP
FFC0
FFC0
00C0
00C0
00C0
00C0
ENDCHAR
STARTCHAR g109
ENCODING 174
SWIDTH 833 0
DWIDTH 20 0
BBX 17 17 1 -1
BITMAP
07F000
1FFC00
380E00
700700
67E300
C7F180
C63180
C67180
C7E180
C7C180
C6E180
C67180
663300
700700
380E00
1FFC00
07F000
ENDCHAR
STARTCHAR g110
ENCODING 175
SWIDTH 542 0
DWIDTH 13 0
BBX 6 2 4 15
BITMAP
FC
FC
ENDCHAR
STARTCHAR g111
ENCODING 176
SWIDTH 500 0
DWIDTH 12 0
BBX 7 7 2 12
BITMAP
38
7C
C6
C6
C6
7C
38
ENDCHAR
STARTCHAR g112
ENCODING 177
SWIDTH 583 0
DWIDTH 14 0
BBX 10 14 2 0
BITMAP
0C00
0C00
0C00
0C00
FFC0
FFC0
0C00
0C00
0C00
0C00
0000
0000
FFC0
FFC0
ENDCHAR
STARTCHAR g113
ENCODING 180
SWIDTH 333 0
DWIDTH 8 0
BBX 4 5 2 15
BITMAP
10
30
60
C0
80
ENDCHAR
STARTCHAR g114
ENCODING 181
SWIDTH 750 0
DWIDTH 18 0
BBX 15 18 1 -4
BITMAP
0C06
0C06
0C06
1C0E
180C
180C
180C
381C
3018
3018
3838
3CF8
7FF0
67B0
6000
6000
C000
C000
ENDCHAR
STARTCHAR g115
ENCODING 182
SWIDTH 667 0
DWIDTH 16 0
BBX 14 22 1 -4
BITMAP
0FFC
3FFC
7F30
7F30
FF30
FF30
FF30
7F30
7F30
3F30
0F30
0330
0330
0330
0330
0330
0330
0330
0330
0330
0330
0330
ENDCHAR
STARTCHAR g116
ENCODING 183
SWIDTH 625 0
DWIDTH 15 0
BBX 3 3 6 5
BITMAP
E0
E0
E0
ENDCHAR
STARTCHAR g117
ENCODING 184
SWIDTH 542 0
DWIDTH 13 0
BBX 4 5 5 -5
BITMAP
60
C0
60
30
E0
ENDCHAR
STARTCHAR g118
ENCODING 186
SWIDTH 458 0
DWIDTH 11 0
BBX 8 11 1 8
BITMAP
3C
7E
E7
C3
C3
C3
E7
7E
3C
00
FF
ENDCHAR
STARTCHAR g119
ENCODING 187
SWIDTH 667 0
DWIDTH 16 0
BBX 13 13 1 0
BITMAP
C600
6300
3180
18C0
0C60
0630
0318
0630
0C60
18C0
3180
6300
C600
ENDCHAR
STARTCHAR g120
ENCODING 191
SWIDTH 667 0
DWIDTH 16 0
BBX 11 18 2 0
BITMAP
0600
0600
0000
0000
0600
0600
0600
0600
0E00
1C00
3800
7000
E000
C060
C060
E0E0
7FC0
3F80
ENDCHAR
STARTCHAR g121
ENCODING 192
SWIDTH 750 0
DWIDTH 18 0
BBX 17 22 0 0
BITMAP
030000
018000
00C000
000000
008000
01C000
01C000
036000
036000
063000
063000
0C1800
0C1800
180C00
180C00
1FFC00
3FFE00
300600
600300
600300
C00180
C00180
ENDCHAR
STARTCHAR g122
ENCODING 193
SWIDTH 750 0
DWIDTH 18 0
BBX 17 21 0 0
BITMAP
00C000
018000
030000
000000
008000
01C000
01C000
036000
036000
063000
063000
0C1800
0C1800
180C00
1FFC00
3FFE00
300600
600300
600300
C00180
C00180
ENDCHAR
STARTCHAR g123
ENCODING 194
SWIDTH 750 0
DWIDTH 18 0
BBX 17 22 0 0
BITMAP
008000
01C000
036000
022000
000000
008000
01C000
01C000
036000
036000
063000
063000
0C1800
0C1800
180C00
1FFC00
3FFE00
300600
600300
600300
C00180
C00180
ENDCHAR
STARTCHAR g124
ENCODING 195
SWIDTH 750 0
DWIDTH 18 0
BBX 17 22 0 0
BITMAP
071000
0FF000
08E000
000000
008000
01C000
01C000
036000
036000
063000
063000
0C1800
0C1800
180C00
180C00
1FFC00
3FFE00
300600
600300
600300
C00180
C00180
ENDCHAR
STARTCHAR g125
ENCODING 196
SWIDTH 750 0
DWIDTH 18 0
BBX 17 22 0 0
BITMAP
066000
066000
000000
000000
008000
01C000
01C000
036000
036000
063000
063000
0C1800
0C1800
180C00
180C00
1FFC00
3FFE00
300600
600300
600300
C00180
C00180
ENDCHAR
STARTCHAR g126
ENCODING 197
SWIDTH 750 0
DWIDTH 18 0
BBX 17 22 0 0
BITMAP
01C000
036000
022000
036000
01C000
01C000
01C000
036000
036000
063000
063000
0C1800
0C1800
180C00
180C00
1FFC00
3FFE00
300600
600300
600300
C00180
C00180
ENDCHAR
STARTCHAR g127
ENCODING 198
SWIDTH 1000 0
DWIDTH 24 0
BBX 22 18 1 0
BITMAP
007FFC
00FFFC
00D800
01D800
019800
039800
031800
071800
07FFF8
0FFFF8
0C1800
1C1800
181800
381800
301800
701800
601FFC
E01FFC
ENDCHAR
STARTCHAR g128
ENCODING 199
SWIDTH 667 0
DWIDTH 16 0
BBX 13 23 1 -5
BITMAP
07E0
1FF0
3838
7018
6000
E000
C000
C000
C000
C000
C000
C000
E000
6000
7018
3838
1FF0
07E0
0300
0300
0180
0180
0700
ENDCHAR
STARTCHAR g129
ENCODING 200
SWIDTH 583 0
DWIDTH 14 0
BBX 11 22 1 0
BITMAP
0C00
0600
0300
0000
FFE0
FFE0
C000
C000
C000
C000
C000
C000
FFC0
FFC0
C000
C000
C000
C000
C000
C000
FFE0
FFE0
ENDCHAR
STARTCHAR g130
ENCODING 201
SWIDTH 583 0
DWIDTH 14 0
BBX 11 22 1 0
BITMAP
0300
0600
0C00
0000
FFE0
FFE0
C000
C000
C000
C000
C000
C000
FFC0
FFC0
C000
C000
C000
C000
C000
C000
FFE0
FFE0
ENDCHAR
STARTCHAR g131
ENCODING 202
SWIDTH 583 0
DWIDTH 14 0
BBX 11 22 1 0
BITMAP
0600
0F00
1980
0000
0000
FFE0
FFE0
C000
C000
C000
C000
C000
FFC0
FFC0
C000
C000
C000
C000
C000
C000
FFE0
FFE0
ENDCHAR
STARTCHAR g132
ENCODING 203
SWIDTH 583 0
DWIDTH 14 0
BBX 11 22 1 0
BITMAP
1980
1980
0000
0000
0000
FFE0
FFE0
C000
C000
C000
C000
C000
FFC0
FFC0
C000
C000
C000
C000
C000
C000
FFE0
FFE0
ENDCHAR
STARTCHAR g133
ENCODING 204
SWIDTH 417 0
DWIDTH 10 0
BBX 4 22 3 0
BITMAP
C0
60
30
00
60
60
60
60
60
60
60
60
60
60
60
60
60
60
60
60
60
60
ENDCHAR
STARTCHAR g134
ENCODING 205
SWIDTH 417 0
DWIDTH 10 0
BBX 4 22 3 0
BITMAP
30
60
C0
00
60
60
60
60
60
60
60
60
60
60
60
60
60
60
60
60
60
60
ENDCHAR
STARTCHAR g135
ENCODING 206
SWIDTH 417 0
DWIDTH 10 0
BBX 6 22 2 0
BITMAP
30
78
CC
00
30
30
30
30
30
30
30
30
30
30
30
30
30
30
30
30
30
30
ENDCHAR
STARTCHAR g136
ENCODING 207
SWIDTH 417 0
DWIDTH 10 0
BBX 6 22 2 0
BITMAP
CC
CC
00
00
30
30
30
30
30
30
30
30
30
30
30
30
30
30
30
30
30
30
ENDCHAR
STARTCHAR g137
ENCODING 209
SWIDTH 667 0
DWIDTH 16 0
BBX 13 22 1 0
BITMAP
1C40
3FC0
2380
0000
C018
E018
E018
F018
F018
D818
DC18
CC18
C618
C318
C398
C198
C0D8
C0D8
C078
C038
C038
C018
ENDCHAR
STARTCHAR g138
ENCODING 210
SWIDTH 667 0
DWIDTH 16 0
BBX 15 22 0 0
BITMAP
0600
0300
0180
0000
07C0
1FF0
3838
701C
600C
600C
C006
C006
C006
C006
C006
C006
600C
600C
701C
3838
1FF0
07C0
ENDCHAR
STARTCHAR g139
ENCODING 211
SWIDTH 667 0
DWIDTH 16 0
BBX 15 22 0 0
BITMAP
00C0
0180
0300
0000
07C0
1FF0
3838
701C
600C
600C
C006
C006
C006
C006
C006
C006
600C
600C
701C
3838
1FF0
07C0
ENDCHAR
STARTCHAR g140
ENCODING 212
SWIDTH 667 0
DWIDTH 16 0
BBX 15 22 0 0
BITMAP
0100
0380
06C0
0000
07C0
1FF0
3838
701C
600C
600C
C006
C006
C006
C006
C006
C006
600C
600C
701C
3838
1FF0
07C0
ENDCHAR
STARTCHAR g141
ENCODING 213
SWIDTH 667 0
DWIDTH 16 0
BBX 15 22 0 0
BITMAP
0E20
1FE0
11C0
0000
07C0
1FF0
3838
701C
600C
600C
C006
C006
C006
C006
C006
C006
600C
600C
701C
3838
1FF0
07C0
ENDCHAR
STARTCHAR g142
ENCODING 214
SWIDTH 667 0
DWIDTH 16 0
BBX 15 22 0 0
BITMAP
0CC0
0CC0
0000
0000
07C0
1FF0
3838
701C
600C
600C
C006
C006
C006
C006
C006
C006
600C
600C
701C
3838
1FF0
07C0
ENDCHAR
STARTCHAR g143
ENCODING 216
SWIDTH 667 0
DWIDTH 16 0
BBX 15 18 0 0
BITMAP
07C6
1FFC
3838
701C
603C
606C
C0C6
C0C6
C186
C306
C606
C606
6C0C
780C
701C
3838
7FF0
C7C0
ENDCHAR
STARTCHAR g144
ENCODING 217
SWIDTH 667 0
DWIDTH 16 0
BBX 12 22 2 0
BITMAP
1800
0C00
0600
0000
C030
C030
C030
C030
C030
C030
C030
C030
C030
C030
C030
C030
C030
C030
6060
70E0
3FC0
0F00
ENDCHAR
STARTCHAR g145
ENCODING 218
SWIDTH 667 0
DWIDTH 16 0
BBX 12 22 2 0
BITMAP
0180
0300
0600
0000
C030
C030
C030
C030
C030
C030
C030
C030
C030
C030
C030
C030
C030
C030
6060
70E0
3FC0
0F00
ENDCHAR
STARTCHAR g146
ENCODING 219
SWIDTH 667 0
DWIDTH 16 0
BBX 12 22 2 0
BITMAP
0600
0F00
1980
0000
C030
C030
C030
C030
C030
C030
C030
C030
C030
C030
C030
C030
C030
C030
6060
70E0
3FC0
0F00
ENDCHAR
STARTCHAR g147
ENCODING 220
SWIDTH 667 0
DWIDTH 16 0
BBX 12 22 2 0
BITMAP
1980
1980
0000
0000
C030
C030
C030
C030
C030
C030
C030
C030
C030
C030
C030
C030
C030
C030
6060
70E0
3FC0
0F00
ENDCHAR
STARTCHAR g148
ENCODING 223
SWIDTH 708 0
DWIDTH 17 0
BBX 12 18 2 0
BITMAP
1F80
3FC0
70E0
E060
C060
C0E0
C3C0
C780
C600
C7C0
C3E0
C070
C030
C030
C070
C0E0
CFC0
CF80
ENDCHAR
STARTCHAR g149
ENCODING 224
SWIDTH 583 0
DWIDTH 14 0
BBX 10 19 2 0
BITMAP
1000
1800
0C00
0600
0200
0000
1F00
7F80
E1C0
C0C0
00C0
1FC0
7FC0
F0C0
C0C0
C0C0
C1C0
7FC0
3EC0
ENDCHAR
STARTCHAR g150
ENCODING 225
SWIDTH 583 0
DWIDTH 14 0
BBX 10 19 2 0
BITMAP
0100
0300
0600
0C00
0800
0000
1F00
7F80
E1C0
C0C0
00C0
1FC0
7FC0
F0C0
C0C0
C0C0
C1C0
7FC0
3EC0
ENDCHAR
STARTCHAR g151
ENCODING 226
SWIDTH 583 0
DWIDTH 14 0
BBX 10 19 2 0
BITMAP
0C00
1E00
3300
2100
0000
0000
1F00
7F80
E1C0
C0C0
00C0
1FC0
7FC0
F0C0
C0C0
C0C0
C1C0
7FC0
3EC0
ENDCHAR
STARTCHAR g152
ENCODING 227
SWIDTH 583 0
DWIDTH 14 0
BBX 10 18 2 0
BITMAP
3880
7F80
4700
0000
0000
1F00
7F80
E1C0
C0C0
00C0
1FC0
7FC0
F0C0
C0C0
C0C0
C1C0
7FC0
3EC0
ENDCHAR
STARTCHAR g153
ENCODING 228
SWIDTH 583 0
DWIDTH 14 0
BBX 10 17 2 0
BITMAP
3300
3300
0000
0000
1F00
7F80
E1C0
C0C0
00C0
1FC0
7FC0
F0C0
C0C0
C0C0
C1C0
7FC0
3EC0
ENDCHAR
STARTCHAR g154
ENCODING 229
SWIDTH 583 0
DWIDTH 14 0
BBX 10 21 2 0
BITMAP
1E00
3F00
3300
3300
3F00
1E00
0000
0000
1F00
7F80
E1C0
C0C0
00C0
1FC0
7FC0
F0C0
C0C0
C0C0
C1C0
7FC0
3EC0
ENDCHAR
STARTCHAR g155
ENCODING 230
SWIDTH 917 0
DWIDTH 22 0
BBX 19 13 1 0
BITMAP
1F1F00
7FBF80
E1F1C0
C0E0C0
00C060
1FFFE0
7FFFE0
E0C000
C0C000
C1E000
E3F0E0
7F3FC0
3E1F80
ENDCHAR
STARTCHAR g156
ENCODING 231
SWIDTH 583 0
DWIDTH 14 0
BBX 10 18 2 -5
BITMAP
1F80
3FC0
70C0
6000
C000
C000
C000
C000
C000
6000
70C0
3FC0
1F80
0600
0600
0300
0300
0E00
ENDCHAR
STARTCHAR g157
ENCODING 232
SWIDTH 583 0
DWIDTH 14 0
BBX 10 19 2 0
BITMAP
1000
1800
0C00
0600
0200
0000
1E00
3F00
7380
6180
C0C0
FFC0
FFC0
C000
C000
6000
71C0
3F80
1F00
ENDCHAR
STARTCHAR g158
ENCODING 233
SWIDTH 583 0
DWIDTH 14 0
BBX 10 19 2 0
BITMAP
0100
0300
0600
0C00
0800
0000
1E00
3F00
7380
6180
C0C0
FFC0
FFC0
C000
C000
6000
71C0
3F80
1F00
ENDCHAR
STARTCHAR g159
ENCODING 234
SWIDTH 583 0
DWIDTH 14 0
BBX 10 19 2 0
BITMAP
0C00
1E00
3300
2100
0000
0000
1E00
3F00
7380
6180
C0C0
FFC0
FFC0
C000
C000
6000
71C0
3F80
1F00
ENDCHAR
STARTCHAR g160
ENCODING 235
SWIDTH 583 0
DWIDTH 14 0
BBX 10 17 2 0
BITMAP
3300
3300
0000
0000
1E00
3F00
7380
6180
C0C0
FFC0
FFC0
C000
C000
6000
71C0
3F80
1F00
ENDCHAR
STARTCHAR g161
ENCODING 236
SWIDTH 417 0
DWIDTH 10 0
BBX 4 19 2 0
BITMAP
80
C0
60
30
10
00
30
30
30
30
30
30
30
30
30
30
30
30
30
ENDCHAR
STARTCHAR g162
ENCODING 237
SWIDTH 417 0
DWIDTH 10 0
BBX 4 19 4 0
BITMAP
10
30
60
C0
80
00
C0
C0
C0
C0
C0
C0
C0
C0
C0
C0
C0
C0
C0
ENDCHAR
STARTCHAR g163
ENCODING 238
SWIDTH 417 0
DWIDTH 10 0
BBX 6 19 2 0
BITMAP
30
78
CC
84
00
00
30
30
30
30
30
30
30
30
30
30
30
30
30
ENDCHAR
STARTCHAR g164
ENCODING 239
SWIDTH 417 0
DWIDTH 10 0
BBX 6 17 2 0
BITMAP
CC
CC
00
00
30
30
30
30
30
30
30
30
30
30
30
30
30
ENDCHAR
STARTCHAR g165
ENCODING 241
SWIDTH 583 0
DWIDTH 14 0
BBX 10 18 2 0
BITMAP
3880
7F80
4700
0000
0000
DF00
FF80
E1C0
C0C0
C0C0
C0C0
C0C0
C0C0
C0C0
C0C0
C0C0
C0C0
C0C0
ENDCHAR
STARTCHAR g166
ENCODING 242
SWIDTH 583 0
DWIDTH 14 0
BBX 10 19 2 0
BITMAP
1000
1800
0C00
0600
0200
0000
1E00
3F00
7380
6180
C0C0
C0C0
C0C0
C0C0
C0C0
6180
7380
3F00
1E00
ENDCHAR
STARTCHAR g167
ENCODING 243
SWIDTH 583 0
DWIDTH 14 0
BBX 10 19 2 0
BITMAP
0100
0300
0600
0C00
0800
0000
1E00
3F00
7380
6180
C0C0
C0C0
C0C0
C0C0
C0C0
6180
7380
3F00
1E00
ENDCHAR
STARTCHAR g168
ENCODING 244
SWIDTH 583 0
DWIDTH 14 0
BBX 10 19 2 0
BITMAP
0C00
1E00
3300
2100
0000
0000
1E00
3F00
7380
6180
C0C0
C0C0
C0C0
C0C0
C0C0
6180
7380
3F00
1E00
ENDCHAR
STARTCHAR g169
ENCODING 245
SWIDTH 583 0
DWIDTH 14 0
BBX 10 18 2 0
BITMAP
3880
7F80
4700
0000
0000
1E00
3F00
7380
6180
C0C0
C0C0
C0C0
C0C0
C0C0
6180
7380
3F00
1E00
ENDCHAR
STARTCHAR g170
ENCODING 246
SWIDTH 583 0
DWIDTH 14 0
BBX 10 17 2 0
BITMAP
3300
3300
0000
0000
1E00
3F00
7380
6180
C0C0
C0C0
C0C0
C0C0
C0C0
6180
7380
3F00
1E00
ENDCHAR
STARTCHAR g171
ENCODING 247
SWIDTH 583 0
DWIDTH 14 0
BBX 12 12 1 3
BITMAP
0600
0600
0000
0000
0000
FFF0
FFF0
0000
0000
0000
0600
0600
ENDCHAR
STARTCHAR g172
ENCODING 248
SWIDTH 583 0
DWIDTH 14 0
BBX 10 13 2 0
BITMAP
1EC0
3FC0
7380
6380
C7C0
C6C0
CCC0
D8C0
F8C0
7180
7380
FF00
DE00
ENDCHAR
STARTCHAR g173
ENCODING 249
SWIDTH 583 0
DWIDTH 14 0
BBX 10 19 2 0
BITMAP
1000
1800
0C00
0600
0200
0000
C0C0
C0C0
C0C0
C0C0
C0C0
C0C0
C0C0
C0C0
C0C0
60C0
71C0
3FC0
1EC0
ENDCHAR
STARTCHAR g174
ENCODING 250
SWIDTH 583 0
DWIDTH 14 0
BBX 10 19 2 0
BITMAP
0100
0300
0600
0C00
0800
0000
C0C0
C0C0
C0C0
C0C0
C0C0
C0C0
C0C0
C0C0
C0C0
60C0
71C0
3FC0
1EC0
ENDCHAR
STARTCHAR g175
ENCODING 251
SWIDTH 583 0
DWIDTH 14 0
BBX 10 19 2 0
BITMAP
0C00
1E00
3300
2100
0000
0000
C0C0
C0C0
C0C0
C0C0
C0C0
C0C0
C0C0
C0C0
C0C0
60C0
71C0
3FC0
1EC0
ENDCHAR
STARTCHAR g176
ENCODING 252
SWIDTH 583 0
DWIDTH 14 0
BBX 10 17 2 0
BITMAP
3300
3300
0000
0000
C0C0
C0C0
C0C0
C0C0
C0C0
C0C0
C0C0
C0C0
C0C0
60C0
71C0
3FC0
1EC0
ENDCHAR
STARTCHAR g177
ENCODING 255
SWIDTH 583 0
DWIDTH 14 0
BBX 12 23 1 -6
BITMAP
1980
1980
0000
0000
C030
C030
6060
6060
30C0
30C0
1980
1980
1980
0F00
0F00
0600
0600
0E00
0C00
1C00
1800
F800
F000
ENDCHAR
STARTCHAR g178
ENCODING 305
SWIDTH 417 0
DWIDTH 10 0
BBX 2 13 4 0
BITMAP
C0
C0
C0
C0
C0
C0
C0
C0
C0
C0
C0
C0
C0
ENDCHAR
STARTCHAR g179
ENCODING 338
SWIDTH 1000 0
DWIDTH 24 0
BBX 21 18 1 0
BITMAP
073FF8
1FFFF8
38F000
707000
603000
C03000
C03000
C03000
C03FF0
C03FF0
C03000
C03000
C03000
603000
707000
38F000
1FFFF8
073FF8
ENDCHAR
STARTCHAR g180
ENCODING 339
SWIDTH 917 0
DWIDTH 22 0
BBX 18 13 2 0
BITMAP
1E1E00
3F3F00
73F380
61E180
C0C0C0
C0FFC0
C0FFC0
C0C000
C0C000
61E000
73F1C0
3F3F80
1E1F00
ENDCHAR
STARTCHAR g181
ENCODING 376
SWIDTH 583 0
DWIDTH 14 0
BBX 14 22 0 0
BITMAP
0CC0
0CC0
0000
0000
C00C
C00C
6018
6018
3030
1860
1860
0CC0
0780
0780
0300
0300
0300
0300
0300
0300
0300
0300
ENDCHAR
STARTCHAR g182
ENCODING 402
SWIDTH 417 0
DWIDTH 10 0
BBX 10 22 0 -4
BITMAP
01C0
0780
0600
0C00
0C00
1C00
1800
FF00
FF00
3000
3000
3000
3000
7000
6000
6000
6000
6000
C000
C000
C000
C000
ENDCHAR
STARTCHAR g183
ENCODING 710
SWIDTH 542 0
DWIDTH 13 0
BBX 7 4 3 15
BITMAP
10
38
6C
C6
ENDCHAR
STARTCHAR g184
ENCODING 711
SWIDTH 583 0
DWIDTH 14 0
BBX 7 4 4 15
BITMAP
C6
6C
38
10
ENDCHAR
STARTCHAR g185
ENCODING 728
SWIDTH 583 0
DWIDTH 14 0
BBX 6 4 4 15
BITMAP
CC
CC
78
30
ENDCHAR
STARTCHAR g186
ENCODING 729
SWIDTH 583 0
DWIDTH 14 0
BBX 2 2 6 15
BITMAP
C0
C0
ENDCHAR
STARTCHAR g187
ENCODING 730
SWIDTH 542 0
DWIDTH 13 0
BBX 6 6 4 14
BITMAP
30
78
CC
CC
78
30
ENDCHAR
STARTCHAR g188
ENCODING 731
SWIDTH 583 0
DWIDTH 14 0
BBX 4 5 5 -5
BITMAP
60
C0
C0
C0
70
ENDCHAR
STARTCHAR g189
ENCODING 732
SWIDTH 583 0
DWIDTH 14 0
BBX 8 3 3 15
BITMAP
71
FF
8E
ENDCHAR
STARTCHAR g190
ENCODING 733
SWIDTH 625 0
DWIDTH 15 0
BBX 8 3 4 16
BITMAP
33
66
CC
ENDCHAR
STARTCHAR g191
ENCODING 960
SWIDTH 833 0
DWIDTH 20 0
BBX 15 14 1 0
BITMAP
7FFE
FFFE
9818
1818
1818
1818
1818
1818
1818
1818
1818
1818
1818
180C
ENDCHAR
STARTCHAR g192
ENCODING 8211
SWIDTH 500 0
DWIDTH 12 0
BBX 8 2 2 6
BITMAP
FF
FF
ENDCHAR
STARTCHAR g193
ENCODING 8212
SWIDTH 750 0
DWIDTH 18 0
BBX 14 2 2 6
BITMAP
FFFC
FFFC
ENDCHAR
STARTCHAR g194
ENCODING 8216
SWIDTH 333 0
DWIDTH 8 0
BBX 3 6 2 13
BITMAP
20
60
C0
C0
E0
E0
ENDCHAR
STARTCHAR g195
ENCODING 8217
SWIDTH 333 0
DWIDTH 8 0
BBX 3 6 2 12
BITMAP
E0
E0
60
60
C0
80
ENDCHAR
STARTCHAR g196
ENCODING 8218
SWIDTH 333 0
DWIDTH 8 0
BBX 3 6 2 -4
BITMAP
E0
E0
60
60
C0
80
ENDCHAR
STARTCHAR g197
ENCODING 8220
SWIDTH 583 0
DWIDTH 14 0
BBX 7 6 3 13
BITMAP
22
66
CC
CC
EE
EE
ENDCHAR
STARTCHAR g198
ENCODING 8221
SWIDTH 583 0
DWIDTH 14 0
BBX 7 6 3 12
BITMAP
EE
EE
66
66
CC
88
ENDCHAR
STARTCHAR g199
ENCODING 8222
SWIDTH 500 0
DWIDTH 12 0
BBX 8 6 2 -4
BITMAP
E7
E7
63
63
C6
84
ENDCHAR
STARTCHAR g200
ENCODING 8224
SWIDTH 417 0
DWIDTH 10 0
BBX 10 17 0 1
BITMAP
0C00
0C00
0C00
FFC0
FFC0
0C00
0C00
0C00
0C00
0C00
0C00
0C00
0C00
0C00
0C00
0C00
0C00
ENDCHAR
STARTCHAR g201
ENCODING 8225
SWIDTH 667 0
DWIDTH 16 0
BBX 10 22 3 -4
BITMAP
0C00
0C00
0C00
0C00
FFC0
FFC0
0C00
0C00
0C00
0C00
0C00
0C00
0C00
0C00
0C00
0C00
FFC0
FFC0
0C00
0C00
0C00
0C00
ENDCHAR
STARTCHAR g202
ENCODING 8226
SWIDTH 667 0
DWIDTH 16 0
BBX 10 10 3 2
BITMAP
1E00
7F80
7F80
FFC0
FFC0
FFC0
FFC0
7F80
7F80
1E00
ENDCHAR
STARTCHAR g203
ENCODING 8230
SWIDTH 833 0
DWIDTH 20 0
BBX 16 2 2 0
BITMAP
C183
C183
ENDCHAR
STARTCHAR g204
ENCODING 8240
SWIDTH 1250 0
DWIDTH 30 0
BBX 28 18 1 0
BITMAP
3C018000
7E030000
66060000
C3060000
C30C0000
C3180000
C3300000
C33783C0
666FC7E0
7ECCC660
3D986C30
01986C30
03186C30
06186C30
0C186C30
0C0CC660
180FC7E0
300783C0
ENDCHAR
STARTCHAR g205
ENCODING 8249
SWIDTH 375 0
DWIDTH 9 0
BBX 6 11 1 1
BITMAP
0C
1C
38
70
E0
E0
E0
70
38
1C
0C
ENDCHAR
STARTCHAR g206
ENCODING 8250
SWIDTH 375 0
DWIDTH 9 0
BBX 6 11 1 1
BITMAP
C0
E0
70
38
1C
1C
1C
38
70
E0
C0
ENDCHAR
STARTCHAR g207
ENCODING 8260
SWIDTH 333 0
DWIDTH 8 0
BBX 10 18 -1 0
BITMAP
00C0
00C0
0180
0180
0300
0300
0600
0600
0C00
0C00
1800
1800
3000
3000
6000
6000
C000
C000
ENDCHAR
STARTCHAR g208
ENCODING 8482
SWIDTH 917 0
DWIDTH 22 0
BBX 17 9 2 9
BITMAP
FD8180
FDC380
31E780
31BD80
319980
318180
318180
318180
318180
ENDCHAR
STARTCHAR g209
ENCODING 8486
SWIDTH 833 0
DWIDTH 20 0
BBX 16 18 2 0
BITMAP
0FF0
3FFC
700E
6006
C003
C003
C003
C003
C003
C003
C003
C003
6006
6006
300C
1818
FC3F
FC3F
ENDCHAR
STARTCHAR g210
ENCODING 8706
SWIDTH 583 0
DWIDTH 14 0
BBX 12 17 1 0
BITMAP
1C00
0F00
0380
01C0
00C0
0060
03E0
0FF0
3C70
7030
6030
C030
C060
C060
E1C0
7F80
3E00
ENDCHAR
STARTCHAR g211
ENCODING 8710
SWIDTH 750 0
DWIDTH 18 0
BBX 15 20 1 0
BITMAP
0100
0100
0380
0380
06C0
06C0
0C60
0C60
0C60
1830
1830
1830
3018
3018
3018
600C
600C
600C
FFFE
FFFE
ENDCHAR
STARTCHAR g212
ENCODING 8719
SWIDTH 750 0
DWIDTH 18 0
BBX 14 24 2 -6
BITMAP
FFFC
FFFC
3030
3030
3030
3030
3030
3030
3030
3030
3030
3030
3030
3030
3030
3030
3030
3030
3030
3030
3030
3030
3030
3030
ENDCHAR
STARTCHAR g213
ENCODING 8721
SWIDTH 667 0
DWIDTH 16 0
BBX 12 24 2 -6
BITMAP
FFF0
FFF0
E000
7000
3800
1C00
0E00
0600
0700
0380
01C0
0180
0380
0700
0600
0E00
1C00
1800
3800
7000
6000
E000
FFF0
FFF0
ENDCHAR
STARTCHAR g214
ENCODING 8730
SWIDTH 833 0
DWIDTH 20 0
BBX 19 25 0 -4
BITMAP
000060
000060
000060
0000C0
0000C0
000180
000180
000180
000300
000300
000600
080600
180600
3C0C00
7C0C00
E61800
461800
031800
033000
01B000
01E000
00E000
00E000
004000
004000
ENDCHAR
STARTCHAR g215
ENCODING 8734
SWIDTH 917 0
DWIDTH 22 0
BBX 19 9 1 3
BITMAP
3C0780
7F1FC0
63B8C0
C1F060
C0E060
C1F060
63B8C0
7F1FC0
3C0780
ENDCHAR
STARTCHAR g216
ENCODING 8747
SWIDTH 417 0
DWIDTH 10 0
BBX 9 25 0 -5
BITMAP
0700
0D80
1980
1800
1800
1800
1800
1800
1800
1800
1800
1800
1800
1800
1800
1800
1800
1800
1800
1800
1800
1800
D800
D800
7000
ENDCHAR
STARTCHAR g217
ENCODING 8776
SWIDTH 667 0
DWIDTH 16 0
BBX 13 9 1 5
BITMAP
3C08
7E18
C3F0
81E0
0000
3C08
7E18
C3F0
81E0
ENDCHAR
STARTCHAR g218
ENCODING 8800
SWIDTH 667 0
DWIDTH 16 0
BBX 10 10 3 4
BITMAP
00C0
0180
FFC0
FFC0
0E00
1C00
FFC0
FFC0
6000
C000
ENDCHAR
STARTCHAR g219
ENCODING 8804
SWIDTH 500 0
DWIDTH 12 0
BBX 10 16 1 0
BITMAP
0380
0700
0E00
1C00
3800
7000
E000
7000
3800
1C00
0E00
0700
0380
0000
FFC0
FFC0
ENDCHAR
STARTCHAR g220
ENCODING 8805
SWIDTH 500 0
DWIDTH 12 0
BBX 10 16 1 0
BITMAP
7000
3800
1C00
0E00
0700
0380
01C0
0380
0700
0E00
1C00
3800
7000
0000
FFC0
FFC0
ENDCHAR
STARTCHAR g221
ENCODING 9674
SWIDTH 750 0
DWIDTH 18 0
BBX 15 17 2 1
BITMAP
0100
0380
06C0
0C60
0820
1830
3018
600C
C006
600C
3018
1830
0820
0C60
06C0
0380
0100
ENDCHAR
STARTCHAR g222
ENCODING 63252
SWIDTH 667 0
DWIDTH 16 0
BBX 12 18 2 0
BITMAP
0F00
3FC0
70E0
6060
C030
C030
C030
C030
C630
C630
C030
C030
C030
C030
6060
70E0
3FC0
0F00
ENDCHAR
STARTCHAR g223
ENCODING 63253
SWIDTH 417 0
DWIDTH 10 0
BBX 4 18 3 0
BITMAP
F0
F0
60
60
60
60
60
60
60
60
60
60
60
60
60
60
F0
F0
ENDCHAR
STARTCHAR g224
ENCODING 63254
SWIDTH 417 0
DWIDTH 10 0
BBX 3 17 3 0
BITMAP
E0
E0
60
60
60
60
60
60
60
60
60
60
60
60
60
60
60
ENDCHAR
STARTCHAR g225
ENCODING 63487
SWIDTH 667 0
DWIDTH 16 0
BBX 0 0 0 0
BITMAP
ENDCHAR
STARTCHAR g226
ENCODING 64257
SWIDTH 625 0
DWIDTH 15 0
BBX 12 19 1 0
BITMAP
0F00
1F00
3800
3000
3000
3000
FFF0
FFF0
3030
3030
3030
3030
3030
3030
3030
3030
3030
3030
3030
ENDCHAR
STARTCHAR g227
ENCODING 64258
SWIDTH 625 0
DWIDTH 15 0
BBX 12 19 1 0
BITMAP
0FE0
1FF0
3830
3030
3030
3030
FF30
FF30
3030
3030
3030
3030
3030
3030
3030
3030
3030
3030
3030
ENDCHAR
STARTCHAR g228
ENCODING 64512
SWIDTH 833 0
DWIDTH 20 0
BBX 16 17 2 0
BITMAP
FFFF
8001
8001
8001
8001
8001
8001
8001
8001
8001
8001
8001
8001
8001
8001
8001
FFFF
ENDCHAR
STARTCHAR g229
ENCODING 64513
SWIDTH 833 0
DWIDTH 20 0
BBX 16 17 2 0
BITMAP
FFFF
8001
8001
8001
8001
8001
8001
8001
8001
8001
8001
8001
8001
8001
8001
8001
FFFF
ENDCHAR
STARTCHAR g230
ENCODING 64514
SWIDTH 833 0
DWIDTH 20 0
BBX 16 17 2 0
BITMAP
FFFF
8001
8001
8001
8001
8001
8001
8001
8001
8001
8001
8001
8001
8001
8001
8001
FFFF
ENDCHAR
STARTCHAR g231
ENCODING 64515
SWIDTH 833 0
DWIDTH 20 0
BBX 16 17 2 0
BITMAP
FFFF
8001
8001
8001
8001
8001
8001
8001
8001
8001
8001
8001
8001
8001
8001
8001
FFFF
ENDCHAR
STARTCHAR g232
ENCODING 64516
SWIDTH 833 0
DWIDTH 20 0
BBX 16 17 2 0
BITMAP
FFFF
8001
8001
8001
8001
8001
8001
8001
8001
8001
8001
8001
8001
8001
8001
8001
FFFF
ENDCHAR
STARTCHAR g233
ENCODING 64517
SWIDTH 833 0
DWIDTH 20 0
BBX 16 17 2 0
BITMAP
FFFF
8001
8001
8001
8001
8001
8001
8001
8001
8001
8001
8001
8001
8001
8001
8001
FFFF
ENDCHAR
STARTCHAR g234
ENCODING 64518
SWIDTH 833 0
DWIDTH 20 0
BBX 16 17 2 0
BITMAP
FFFF
8001
8001
8001
8001
8001
8001
8001
8001
8001
8001
8001
8001
8001
8001
8001
FFFF
ENDCHAR
STARTCHAR g235
ENCODING 64519
SWIDTH 833 0
DWIDTH 20 0
BBX 16 17 2 0
BITMAP
FFFF
8001
8001
8001
8001
8001
8001
8001
8001
8001
8001
8001
8001
8001
8001
8001
FFFF
ENDCHAR
STARTCHAR g236
ENCODING 64520
SWIDTH 833 0
DWIDTH 20 0
BBX 16 17 2 0
BITMAP
FFFF
8001
8001
8001
8001
8001
8001
8001
8001
8001
8001
8001
8001
8001
8001
8001
FFFF
ENDCHAR
STARTCHAR g237
ENCODING 64521
SWIDTH 833 0
DWIDTH 20 0
BBX 16 17 2 0
BITMAP
FFFF
8001
8001
8001
8001
8001
8001
8001
8001
8001
8001
8001
8001
8001
8001
8001
FFFF
ENDCHAR
STARTCHAR g238
ENCODING 64522
SWIDTH 833 0
DWIDTH 20 0
BBX 16 17 2 0
BITMAP
FFFF
8001
8001
8001
8001
8001
8001
8001
8001
8001
8001
8001
8001
8001
8001
8001
FFFF
ENDCHAR
STARTCHAR g239
ENCODING 64523
SWIDTH 833 0
DWIDTH 20 0
BBX 16 17 2 0
BITMAP
FFFF
8001
8001
8001
8001
8001
8001
8001
8001
8001
8001
8001
8001
8001
8001
8001
FFFF
ENDCHAR
STARTCHAR g240
ENCODING 64524
SWIDTH 833 0
DWIDTH 20 0
BBX 16 17 2 0
BITMAP
FFFF
8001
8001
8001
8001
8001
8001
8001
8001
8001
8001
8001
8001
8001
8001
8001
FFFF
ENDCHAR
STARTCHAR g241
ENCODING 64525
SWIDTH 833 0
DWIDTH 20 0
BBX 16 17 2 0
BITMAP
FFFF
8001
8001
8001
8001
8001
8001
8001
8001
8001
8001
8001
8001
8001
8001
8001
FFFF
ENDCHAR
STARTCHAR g242
ENCODING 64526
SWIDTH 833 0
DWIDTH 20 0
BBX 16 17 2 0
BITMAP
FFFF
8001
8001
8001
8001
8001
8001
8001
8001
8001
8001
8001
8001
8001
8001
8001
FFFF
ENDCHAR
STARTCHAR g243
ENCODING 64527
SWIDTH 833 0
DWIDTH 20 0
BBX 16 17 2 0
BITMAP
FFFF
8001
8001
8001
8001
8001
8001
8001
8001
8001
8001
8001
8001
8001
8001
8001
FFFF
ENDCHAR
ENDFONT
