STARTFONT 2.1
COMMENT Strike 3 of a Newton 'sfnt' font (bloc/bdat): tools/fonts/newtonsfnt.py,
COMMENT tools/fonts/README.md.  The builder reads the BLOC_* properties and the
COMMENT glyphs - STARTCHAR gN (N the glyph id; otherwise ENCODING through 'cmap'),
COMMENT DWIDTH (the advance), BBX (width, height, the bearing x, the bottom row's
COMMENT y: bearing y less the height) and the BITMAP rows.  A glyph id in the
COMMENT subtable ranges with no glyph here has no image (the missing glyph is 0).
COMMENT The other properties, SIZE, FONTBOUNDINGBOX and SWIDTH are worked out and
COMMENT not read back: change BLOC_HORI_* (the line metrics the ROM draws text by)
COMMENT to match an edit that changes the strike's extent.
FONT -Apple-Roman Regular-Medium-R-Normal--14-140-72-72-P-0-Apple-Roman
SIZE 14 72 72
FONTBOUNDINGBOX 18 18 -1 -4
STARTPROPERTIES 37
FONT_ASCENT 14
FONT_DESCENT 5
PIXEL_SIZE 14
FAMILY_NAME "Roman Regular"
BLOC_COLOR_REF 0
BLOC_HORI_ASCENDER 14
BLOC_HORI_DESCENDER -5
BLOC_HORI_WIDTH_MAX 18
BLOC_HORI_CARET_SLOPE_NUMERATOR 0
BLOC_HORI_CARET_SLOPE_DENOMINATOR 1
BLOC_HORI_CARET_OFFSET 0
BLOC_HORI_MIN_ORIGIN_SB -1
BLOC_HORI_MIN_ADVANCE_SB -1
BLOC_HORI_MAX_BEFORE_BL 14
BLOC_HORI_MIN_AFTER_BL -4
BLOC_HORI_PAD1 0
BLOC_HORI_PAD2 0
BLOC_VERT_ASCENDER 0
BLOC_VERT_DESCENDER -1
BLOC_VERT_WIDTH_MAX 18
BLOC_VERT_CARET_SLOPE_NUMERATOR 0
BLOC_VERT_CARET_SLOPE_DENOMINATOR 1
BLOC_VERT_CARET_OFFSET 0
BLOC_VERT_MIN_ORIGIN_SB 119
BLOC_VERT_MIN_ADVANCE_SB 100
BLOC_VERT_MAX_BEFORE_BL 0
BLOC_VERT_MIN_AFTER_BL 92
BLOC_VERT_PAD1 0
BLOC_VERT_PAD2 0
BLOC_START_GLYPH 0
BLOC_END_GLYPH 257
BLOC_PPEM_X 14
BLOC_PPEM_Y 14
BLOC_BIT_DEPTH 1
BLOC_FLAGS 1
BLOC_INDEX_SUBTABLES 1
BLOC_INDEX_SUBTABLE_0 "0 257 3 1 0"
ENDPROPERTIES
CHARS 244
STARTCHAR g0
ENCODING -1
SWIDTH 786 0
DWIDTH 11 0
BBX 9 11 1 0
BITMAP
FF80
8080
8080
8080
8080
8080
8080
8080
8080
8080
FF80
ENDCHAR
STARTCHAR g1
ENCODING 0
SWIDTH 0 0
DWIDTH 0 0
BBX 0 0 0 0
BITMAP
ENDCHAR
STARTCHAR g2
ENCODING 1
SWIDTH 286 0
DWIDTH 4 0
BBX 0 0 0 0
BITMAP
ENDCHAR
STARTCHAR g3
ENCODING 2
SWIDTH 286 0
DWIDTH 4 0
BBX 1 10 2 0
BITMAP
80
80
80
80
80
80
80
80
00
80
ENDCHAR
STARTCHAR g4
ENCODING 3
SWIDTH 429 0
DWIDTH 6 0
BBX 4 3 1 7
BITMAP
90
90
90
ENDCHAR
STARTCHAR g5
ENCODING 4
SWIDTH 643 0
DWIDTH 9 0
BBX 7 8 1 3
BITMAP
14
14
7E
28
28
FC
50
50
ENDCHAR
STARTCHAR g6
ENCODING 5
SWIDTH 500 0
DWIDTH 7 0
BBX 5 12 1 -1
BITMAP
20
70
A8
A0
A0
60
30
28
28
A8
70
20
ENDCHAR
STARTCHAR g7
ENCODING 6
SWIDTH 786 0
DWIDTH 11 0
BBX 9 11 1 0
BITMAP
6F80
9080
9100
9200
6400
0800
1300
2480
4480
8480
8300
ENDCHAR
STARTCHAR g8
ENCODING 7
SWIDTH 786 0
DWIDTH 11 0
BBX 9 11 1 0
BITMAP
3000
4800
4800
5000
2000
5000
8900
8500
8200
4500
3880
ENDCHAR
STARTCHAR g9
ENCODING 8
SWIDTH 214 0
DWIDTH 3 0
BBX 1 3 1 8
BITMAP
80
80
80
ENDCHAR
STARTCHAR g10
ENCODING 9
SWIDTH 429 0
DWIDTH 6 0
BBX 3 13 1 -1
BITMAP
20
40
40
80
80
80
80
80
80
80
40
40
20
ENDCHAR
STARTCHAR g11
ENCODING 10
SWIDTH 429 0
DWIDTH 6 0
BBX 3 13 2 -1
BITMAP
80
40
40
20
20
20
20
20
20
20
40
40
80
ENDCHAR
STARTCHAR g12
ENCODING 11
SWIDTH 643 0
DWIDTH 9 0
BBX 7 7 1 4
BITMAP
44
28
10
FE
10
28
44
ENDCHAR
STARTCHAR g13
ENCODING 12
SWIDTH 643 0
DWIDTH 9 0
BBX 7 7 1 2
BITMAP
10
10
10
FE
10
10
10
ENDCHAR
STARTCHAR g14
ENCODING 44
SWIDTH 286 0
DWIDTH 4 0
BBX 2 4 1 -3
BITMAP
40
40
40
80
ENDCHAR
STARTCHAR g15
ENCODING 45
SWIDTH 571 0
DWIDTH 8 0
BBX 6 1 1 5
BITMAP
FC
ENDCHAR
STARTCHAR g16
ENCODING 46
SWIDTH 214 0
DWIDTH 3 0
BBX 1 1 1 0
BITMAP
80
ENDCHAR
STARTCHAR g17
ENCODING 47
SWIDTH 500 0
DWIDTH 7 0
BBX 5 10 1 0
BITMAP
08
08
10
10
20
20
40
40
80
80
ENDCHAR
STARTCHAR g18
ENCODING 48
SWIDTH 643 0
DWIDTH 9 0
BBX 7 11 1 0
BITMAP
38
44
82
82
82
82
82
82
82
44
38
ENDCHAR
STARTCHAR g19
ENCODING 49
SWIDTH 643 0
DWIDTH 9 0
BBX 2 11 3 0
BITMAP
40
C0
40
40
40
40
40
40
40
40
40
ENDCHAR
STARTCHAR g20
ENCODING 50
SWIDTH 643 0
DWIDTH 9 0
BBX 7 11 1 0
BITMAP
38
44
82
02
02
04
08
10
20
40
FE
ENDCHAR
STARTCHAR g21
ENCODING 51
SWIDTH 643 0
DWIDTH 9 0
BBX 7 11 1 0
BITMAP
FE
04
08
10
38
04
02
02
02
84
78
ENDCHAR
STARTCHAR g22
ENCODING 52
SWIDTH 643 0
DWIDTH 9 0
BBX 7 11 1 0
BITMAP
04
0C
14
24
44
84
FE
04
04
04
04
ENDCHAR
STARTCHAR g23
ENCODING 53
SWIDTH 643 0
DWIDTH 9 0
BBX 7 11 1 0
BITMAP
FE
80
80
80
F8
04
02
02
02
84
78
ENDCHAR
STARTCHAR g24
ENCODING 54
SWIDTH 643 0
DWIDTH 9 0
BBX 7 11 1 0
BITMAP
38
40
80
B8
C4
82
82
82
82
44
38
ENDCHAR
STARTCHAR g25
ENCODING 55
SWIDTH 643 0
DWIDTH 9 0
BBX 7 11 1 0
BITMAP
FE
02
02
04
04
08
08
10
10
10
10
ENDCHAR
STARTCHAR g26
ENCODING 56
SWIDTH 643 0
DWIDTH 9 0
BBX 7 11 1 0
BITMAP
38
44
44
44
38
44
82
82
82
44
38
ENDCHAR
STARTCHAR g27
ENCODING 57
SWIDTH 643 0
DWIDTH 9 0
BBX 7 11 1 0
BITMAP
38
44
82
82
82
82
46
3A
02
04
38
ENDCHAR
STARTCHAR g28
ENCODING 58
SWIDTH 214 0
DWIDTH 3 0
BBX 1 7 1 0
BITMAP
80
00
00
00
00
00
80
ENDCHAR
STARTCHAR g29
ENCODING 59
SWIDTH 286 0
DWIDTH 4 0
BBX 2 10 1 -3
BITMAP
40
00
00
00
00
00
40
40
40
80
ENDCHAR
STARTCHAR g30
ENCODING 60
SWIDTH 500 0
DWIDTH 7 0
BBX 4 7 1 2
BITMAP
10
20
40
80
40
20
10
ENDCHAR
STARTCHAR g31
ENCODING 61
SWIDTH 786 0
DWIDTH 11 0
BBX 7 4 2 3
BITMAP
FE
00
00
FE
ENDCHAR
STARTCHAR g32
ENCODING 62
SWIDTH 500 0
DWIDTH 7 0
BBX 4 7 1 2
BITMAP
80
40
20
10
20
40
80
ENDCHAR
STARTCHAR g33
ENCODING 63
SWIDTH 571 0
DWIDTH 8 0
BBX 6 11 1 0
BITMAP
78
84
04
04
08
10
20
20
20
00
20
ENDCHAR
STARTCHAR g34
ENCODING 64
SWIDTH 857 0
DWIDTH 12 0
BBX 10 9 1 0
BITMAP
3F00
4080
8E40
9240
9240
9240
8D80
4000
3C00
ENDCHAR
STARTCHAR g35
ENCODING 65
SWIDTH 786 0
DWIDTH 11 0
BBX 9 11 1 0
BITMAP
0800
0800
0800
1400
1400
2200
2200
7F00
4100
8080
8080
ENDCHAR
STARTCHAR g36
ENCODING 66
SWIDTH 643 0
DWIDTH 9 0
BBX 7 11 1 0
BITMAP
F8
84
84
84
F8
84
82
82
82
84
F8
ENDCHAR
STARTCHAR g37
ENCODING 67
SWIDTH 643 0
DWIDTH 9 0
BBX 7 11 1 0
BITMAP
3C
42
80
80
80
80
80
80
80
42
3C
ENDCHAR
STARTCHAR g38
ENCODING 68
SWIDTH 643 0
DWIDTH 9 0
BBX 7 11 1 0
BITMAP
F8
84
82
82
82
82
82
82
82
84
F8
ENDCHAR
STARTCHAR g39
ENCODING 69
SWIDTH 571 0
DWIDTH 8 0
BBX 6 11 1 0
BITMAP
FC
80
80
80
80
F8
80
80
80
80
FC
ENDCHAR
STARTCHAR g40
ENCODING 70
SWIDTH 571 0
DWIDTH 8 0
BBX 6 11 1 0
BITMAP
FC
80
80
80
80
F8
80
80
80
80
80
ENDCHAR
STARTCHAR g41
ENCODING 71
SWIDTH 714 0
DWIDTH 10 0
BBX 8 11 1 0
BITMAP
3C
42
80
80
80
8F
81
81
81
42
3C
ENDCHAR
STARTCHAR g42
ENCODING 72
SWIDTH 643 0
DWIDTH 9 0
BBX 7 11 1 0
BITMAP
82
82
82
82
82
FE
82
82
82
82
82
ENDCHAR
STARTCHAR g43
ENCODING 73
SWIDTH 357 0
DWIDTH 5 0
BBX 1 11 2 0
BITMAP
80
80
80
80
80
80
80
80
80
80
80
ENDCHAR
STARTCHAR g44
ENCODING 74
SWIDTH 571 0
DWIDTH 8 0
BBX 7 11 0 0
BITMAP
02
02
02
02
02
02
02
82
82
44
38
ENDCHAR
STARTCHAR g45
ENCODING 75
SWIDTH 643 0
DWIDTH 9 0
BBX 7 11 1 0
BITMAP
82
84
88
90
A0
C0
A0
90
88
84
82
ENDCHAR
STARTCHAR g46
ENCODING 76
SWIDTH 571 0
DWIDTH 8 0
BBX 6 11 1 0
BITMAP
80
80
80
80
80
80
80
80
80
80
FC
ENDCHAR
STARTCHAR g47
ENCODING 77
SWIDTH 786 0
DWIDTH 11 0
BBX 9 11 1 0
BITMAP
8080
C180
A280
9480
8880
8080
8080
8080
8080
8080
8080
ENDCHAR
STARTCHAR g48
ENCODING 78
SWIDTH 714 0
DWIDTH 10 0
BBX 8 11 1 0
BITMAP
C1
C1
A1
A1
91
89
89
85
83
83
81
ENDCHAR
STARTCHAR g49
ENCODING 79
SWIDTH 714 0
DWIDTH 10 0
BBX 8 11 1 0
BITMAP
3C
42
81
81
81
81
81
81
81
42
3C
ENDCHAR
STARTCHAR g50
ENCODING 80
SWIDTH 643 0
DWIDTH 9 0
BBX 7 11 1 0
BITMAP
F8
84
82
82
82
84
F8
80
80
80
80
ENDCHAR
STARTCHAR g51
ENCODING 81
SWIDTH 714 0
DWIDTH 10 0
BBX 8 11 1 0
BITMAP
3C
42
81
81
81
81
81
81
85
42
3D
ENDCHAR
STARTCHAR g52
ENCODING 82
SWIDTH 714 0
DWIDTH 10 0
BBX 8 11 1 0
BITMAP
F8
84
82
82
82
84
F8
88
84
82
81
ENDCHAR
STARTCHAR g53
ENCODING 83
SWIDTH 643 0
DWIDTH 9 0
BBX 7 11 1 0
BITMAP
38
44
82
80
40
38
04
02
82
44
38
ENDCHAR
STARTCHAR g54
ENCODING 84
SWIDTH 643 0
DWIDTH 9 0
BBX 7 11 1 0
BITMAP
FE
10
10
10
10
10
10
10
10
10
10
ENDCHAR
STARTCHAR g55
ENCODING 85
SWIDTH 714 0
DWIDTH 10 0
BBX 8 11 1 0
BITMAP
81
81
81
81
81
81
81
81
81
42
3C
ENDCHAR
STARTCHAR g56
ENCODING 86
SWIDTH 786 0
DWIDTH 11 0
BBX 9 11 1 0
BITMAP
8080
8080
4100
4100
2200
2200
1400
1400
0800
0800
0800
ENDCHAR
STARTCHAR g57
ENCODING 87
SWIDTH 929 0
DWIDTH 13 0
BBX 11 11 1 0
BITMAP
8020
8020
4440
4440
4440
2A80
2A80
2A80
1100
1100
1100
ENDCHAR
STARTCHAR g58
ENCODING 88
SWIDTH 643 0
DWIDTH 9 0
BBX 7 11 1 0
BITMAP
82
82
44
44
28
10
28
44
44
82
82
ENDCHAR
STARTCHAR g59
ENCODING 89
SWIDTH 643 0
DWIDTH 9 0
BBX 7 11 1 0
BITMAP
82
82
44
44
28
28
10
10
10
10
10
ENDCHAR
STARTCHAR g60
ENCODING 90
SWIDTH 643 0
DWIDTH 9 0
BBX 7 11 1 0
BITMAP
FE
02
04
08
08
10
20
20
40
80
FE
ENDCHAR
STARTCHAR g61
ENCODING 91
SWIDTH 357 0
DWIDTH 5 0
BBX 3 13 1 -1
BITMAP
E0
80
80
80
80
80
80
80
80
80
80
80
E0
ENDCHAR
STARTCHAR g62
ENCODING 92
SWIDTH 500 0
DWIDTH 7 0
BBX 5 10 1 0
BITMAP
80
80
40
40
20
20
10
10
08
08
ENDCHAR
STARTCHAR g63
ENCODING 93
SWIDTH 357 0
DWIDTH 5 0
BBX 3 13 1 -1
BITMAP
E0
20
20
20
20
20
20
20
20
20
20
20
E0
ENDCHAR
STARTCHAR g64
ENCODING 94
SWIDTH 500 0
DWIDTH 7 0
BBX 5 3 1 9
BITMAP
20
50
88
ENDCHAR
STARTCHAR g65
ENCODING 95
SWIDTH 643 0
DWIDTH 9 0
BBX 9 1 0 0
BITMAP
FF80
ENDCHAR
STARTCHAR g66
ENCODING 96
SWIDTH 357 0
DWIDTH 5 0
BBX 3 3 1 9
BITMAP
80
40
20
ENDCHAR
STARTCHAR g67
ENCODING 97
SWIDTH 571 0
DWIDTH 8 0
BBX 6 8 1 0
BITMAP
78
84
3C
44
84
84
8C
74
ENDCHAR
STARTCHAR g68
ENCODING 98
SWIDTH 643 0
DWIDTH 9 0
BBX 7 11 1 0
BITMAP
80
80
80
B8
C4
82
82
82
82
C4
B8
ENDCHAR
STARTCHAR g69
ENCODING 99
SWIDTH 571 0
DWIDTH 8 0
BBX 6 8 1 0
BITMAP
38
44
80
80
80
80
44
38
ENDCHAR
STARTCHAR g70
ENCODING 100
SWIDTH 643 0
DWIDTH 9 0
BBX 7 11 1 0
BITMAP
02
02
02
3A
46
82
82
82
82
46
3A
ENDCHAR
STARTCHAR g71
ENCODING 101
SWIDTH 643 0
DWIDTH 9 0
BBX 7 8 1 0
BITMAP
38
44
82
FE
80
80
44
38
ENDCHAR
STARTCHAR g72
ENCODING 102
SWIDTH 429 0
DWIDTH 6 0
BBX 4 11 1 0
BITMAP
30
40
40
F0
40
40
40
40
40
40
40
ENDCHAR
STARTCHAR g73
ENCODING 103
SWIDTH 643 0
DWIDTH 9 0
BBX 7 11 1 -3
BITMAP
3A
46
82
82
82
82
46
3A
02
04
38
ENDCHAR
STARTCHAR g74
ENCODING 104
SWIDTH 571 0
DWIDTH 8 0
BBX 6 11 1 0
BITMAP
80
80
80
B8
C4
84
84
84
84
84
84
ENDCHAR
STARTCHAR g75
ENCODING 105
SWIDTH 357 0
DWIDTH 5 0
BBX 2 11 1 0
BITMAP
40
00
00
C0
40
40
40
40
40
40
40
ENDCHAR
STARTCHAR g76
ENCODING 106
SWIDTH 357 0
DWIDTH 5 0
BBX 3 14 0 -3
BITMAP
20
00
00
60
20
20
20
20
20
20
20
20
20
C0
ENDCHAR
STARTCHAR g77
ENCODING 107
SWIDTH 643 0
DWIDTH 9 0
BBX 7 11 1 0
BITMAP
80
80
80
84
88
90
A0
D0
88
84
82
ENDCHAR
STARTCHAR g78
ENCODING 108
SWIDTH 357 0
DWIDTH 5 0
BBX 2 11 1 0
BITMAP
C0
40
40
40
40
40
40
40
40
40
40
ENDCHAR
STARTCHAR g79
ENCODING 109
SWIDTH 929 0
DWIDTH 13 0
BBX 11 8 1 0
BITMAP
B9C0
C620
8420
8420
8420
8420
8420
8420
ENDCHAR
STARTCHAR g80
ENCODING 110
SWIDTH 571 0
DWIDTH 8 0
BBX 6 8 1 0
BITMAP
B8
C4
84
84
84
84
84
84
ENDCHAR
STARTCHAR g81
ENCODING 111
SWIDTH 643 0
DWIDTH 9 0
BBX 7 8 1 0
BITMAP
38
44
82
82
82
82
44
38
ENDCHAR
STARTCHAR g82
ENCODING 112
SWIDTH 643 0
DWIDTH 9 0
BBX 7 11 1 -3
BITMAP
B8
C4
82
82
82
82
C4
B8
80
80
80
ENDCHAR
STARTCHAR g83
ENCODING 113
SWIDTH 643 0
DWIDTH 9 0
BBX 7 11 1 -3
BITMAP
3A
46
82
82
82
82
46
3A
02
02
02
ENDCHAR
STARTCHAR g84
ENCODING 114
SWIDTH 500 0
DWIDTH 7 0
BBX 6 8 1 0
BITMAP
B8
C4
80
80
80
80
80
80
ENDCHAR
STARTCHAR g85
ENCODING 115
SWIDTH 571 0
DWIDTH 8 0
BBX 6 8 1 0
BITMAP
78
84
80
78
04
04
84
78
ENDCHAR
STARTCHAR g86
ENCODING 116
SWIDTH 500 0
DWIDTH 7 0
BBX 5 11 1 0
BITMAP
40
40
40
F0
40
40
40
40
40
48
30
ENDCHAR
STARTCHAR g87
ENCODING 117
SWIDTH 571 0
DWIDTH 8 0
BBX 6 8 1 0
BITMAP
84
84
84
84
84
84
8C
74
ENDCHAR
STARTCHAR g88
ENCODING 118
SWIDTH 643 0
DWIDTH 9 0
BBX 7 8 1 0
BITMAP
82
82
44
44
28
28
10
10
ENDCHAR
STARTCHAR g89
ENCODING 119
SWIDTH 786 0
DWIDTH 11 0
BBX 9 8 1 0
BITMAP
8880
8880
4900
5500
5500
2200
2200
2200
ENDCHAR
STARTCHAR g90
ENCODING 120
SWIDTH 643 0
DWIDTH 9 0
BBX 7 8 1 0
BITMAP
82
44
28
10
10
28
44
82
ENDCHAR
STARTCHAR g91
ENCODING 121
SWIDTH 643 0
DWIDTH 9 0
BBX 7 12 1 -4
BITMAP
82
82
44
44
28
28
10
10
20
20
40
40
ENDCHAR
STARTCHAR g92
ENCODING 122
SWIDTH 571 0
DWIDTH 8 0
BBX 6 8 1 0
BITMAP
FC
04
08
10
20
40
80
FC
ENDCHAR
STARTCHAR g93
ENCODING 123
SWIDTH 357 0
DWIDTH 5 0
BBX 3 12 1 -1
BITMAP
20
40
40
40
40
80
40
40
40
40
40
20
ENDCHAR
STARTCHAR g94
ENCODING 124
SWIDTH 214 0
DWIDTH 3 0
BBX 1 13 1 -1
BITMAP
80
80
80
80
80
80
00
80
80
80
80
80
80
ENDCHAR
STARTCHAR g95
ENCODING 125
SWIDTH 357 0
DWIDTH 5 0
BBX 3 12 1 -1
BITMAP
80
40
40
40
40
20
40
40
40
40
40
80
ENDCHAR
STARTCHAR g96
ENCODING 126
SWIDTH 643 0
DWIDTH 9 0
BBX 7 2 1 8
BITMAP
72
8C
ENDCHAR
STARTCHAR g97
ENCODING 127
SWIDTH 643 0
DWIDTH 9 0
BBX 0 0 0 0
BITMAP
ENDCHAR
STARTCHAR g98
ENCODING 161
SWIDTH 286 0
DWIDTH 4 0
BBX 1 11 1 0
BITMAP
80
00
80
80
80
80
80
80
80
80
80
ENDCHAR
STARTCHAR g99
ENCODING 162
SWIDTH 571 0
DWIDTH 8 0
BBX 6 10 1 0
BITMAP
10
38
54
90
90
90
90
54
38
10
ENDCHAR
STARTCHAR g100
ENCODING 163
SWIDTH 643 0
DWIDTH 9 0
BBX 7 11 1 0
BITMAP
38
44
40
40
F0
40
40
40
42
42
FC
ENDCHAR
STARTCHAR g101
ENCODING 164
SWIDTH 714 0
DWIDTH 10 0
BBX 8 8 1 1
BITMAP
BD
42
81
81
81
81
42
BD
ENDCHAR
STARTCHAR g102
ENCODING 165
SWIDTH 643 0
DWIDTH 9 0
BBX 7 11 1 0
BITMAP
82
44
28
FE
10
10
FE
10
10
10
10
ENDCHAR
STARTCHAR g103
ENCODING 167
SWIDTH 643 0
DWIDTH 9 0
BBX 7 11 1 0
BITMAP
7C
82
80
60
98
44
32
0C
02
82
7C
ENDCHAR
STARTCHAR g104
ENCODING 168
SWIDTH 429 0
DWIDTH 6 0
BBX 4 1 1 10
BITMAP
90
ENDCHAR
STARTCHAR g105
ENCODING 169
SWIDTH 786 0
DWIDTH 11 0
BBX 9 9 1 0
BITMAP
3E00
4100
9C80
A280
A080
A280
9C80
4100
3E00
ENDCHAR
STARTCHAR g106
ENCODING 170
SWIDTH 500 0
DWIDTH 7 0
BBX 5 8 1 3
BITMAP
70
88
78
88
88
78
00
F8
ENDCHAR
STARTCHAR g107
ENCODING 171
SWIDTH 643 0
DWIDTH 9 0
BBX 7 7 1 0
BITMAP
12
24
48
90
48
24
12
ENDCHAR
STARTCHAR g108
ENCODING 172
SWIDTH 571 0
DWIDTH 8 0
BBX 6 3 1 3
BITMAP
FC
04
04
ENDCHAR
STARTCHAR g109
ENCODING 174
SWIDTH 786 0
DWIDTH 11 0
BBX 9 9 1 0
BITMAP
3E00
4100
BC80
A280
A280
BC80
A280
4100
3E00
ENDCHAR
STARTCHAR g110
ENCODING 175
SWIDTH 429 0
DWIDTH 6 0
BBX 4 1 1 9
BITMAP
F0
ENDCHAR
STARTCHAR g111
ENCODING 176
SWIDTH 429 0
DWIDTH 6 0
BBX 4 4 1 7
BITMAP
60
90
90
60
ENDCHAR
STARTCHAR g112
ENCODING 177
SWIDTH 643 0
DWIDTH 9 0
BBX 7 8 1 1
BITMAP
10
10
10
FE
10
10
10
FE
ENDCHAR
STARTCHAR g113
ENCODING 180
SWIDTH 286 0
DWIDTH 4 0
BBX 2 2 1 9
BITMAP
40
80
ENDCHAR
STARTCHAR g114
ENCODING 181
SWIDTH 714 0
DWIDTH 10 0
BBX 8 11 1 -3
BITMAP
42
42
42
42
42
42
42
7D
40
40
80
ENDCHAR
STARTCHAR g115
ENCODING 182
SWIDTH 643 0
DWIDTH 9 0
BBX 7 11 1 0
BITMAP
3E
4A
8A
8A
8A
8A
4A
3E
0A
0A
0A
ENDCHAR
STARTCHAR g116
ENCODING 183
SWIDTH 429 0
DWIDTH 6 0
BBX 2 2 2 3
BITMAP
C0
C0
ENDCHAR
STARTCHAR g117
ENCODING 184
SWIDTH 571 0
DWIDTH 8 0
BBX 4 5 2 -4
BITMAP
20
40
20
90
60
ENDCHAR
STARTCHAR g118
ENCODING 186
SWIDTH 500 0
DWIDTH 7 0
BBX 5 8 1 3
BITMAP
70
88
88
88
88
70
00
F8
ENDCHAR
STARTCHAR g119
ENCODING 187
SWIDTH 643 0
DWIDTH 9 0
BBX 7 7 1 0
BITMAP
90
48
24
12
24
48
90
ENDCHAR
STARTCHAR g120
ENCODING 191
SWIDTH 643 0
DWIDTH 9 0
BBX 6 11 1 0
BITMAP
10
00
10
10
10
20
40
80
80
84
78
ENDCHAR
STARTCHAR g121
ENCODING 192
SWIDTH 786 0
DWIDTH 11 0
BBX 9 14 1 0
BITMAP
0800
0400
0000
0800
0800
0800
1400
1400
2200
2200
4100
7F00
8080
8080
ENDCHAR
STARTCHAR g122
ENCODING 193
SWIDTH 786 0
DWIDTH 11 0
BBX 9 14 1 0
BITMAP
0400
0800
1000
0000
0800
0800
1400
1400
2200
2200
7F00
4100
8080
8080
ENDCHAR
STARTCHAR g123
ENCODING 194
SWIDTH 786 0
DWIDTH 11 0
BBX 9 14 1 0
BITMAP
0800
1400
2200
0000
0800
0800
1400
1400
2200
2200
7F00
4100
8080
8080
ENDCHAR
STARTCHAR g124
ENCODING 195
SWIDTH 786 0
DWIDTH 11 0
BBX 9 14 1 0
BITMAP
1900
2600
0000
0800
0800
0800
1400
1400
2200
2200
4100
7F00
8080
8080
ENDCHAR
STARTCHAR g125
ENCODING 196
SWIDTH 786 0
DWIDTH 11 0
BBX 9 13 1 0
BITMAP
2200
0000
0800
0800
0800
1400
1400
2200
2200
7F00
4100
8080
8080
ENDCHAR
STARTCHAR g126
ENCODING 197
SWIDTH 786 0
DWIDTH 11 0
BBX 9 14 1 0
BITMAP
1C00
2200
2200
1C00
0800
0800
1400
1400
2200
2200
7F00
4100
8080
8080
ENDCHAR
STARTCHAR g127
ENCODING 198
SWIDTH 929 0
DWIDTH 13 0
BBX 11 11 1 0
BITMAP
0FE0
1400
1400
2400
2400
3F80
4400
4400
4400
8400
87E0
ENDCHAR
STARTCHAR g128
ENCODING 199
SWIDTH 643 0
DWIDTH 9 0
BBX 7 15 1 -4
BITMAP
3C
42
80
80
80
80
80
80
80
42
3C
18
08
08
10
ENDCHAR
STARTCHAR g129
ENCODING 200
SWIDTH 571 0
DWIDTH 8 0
BBX 6 14 1 0
BITMAP
20
10
08
00
FC
80
80
80
F8
80
80
80
80
FC
ENDCHAR
STARTCHAR g130
ENCODING 201
SWIDTH 571 0
DWIDTH 8 0
BBX 6 14 1 0
BITMAP
10
20
00
FC
80
80
80
80
F8
80
80
80
80
FC
ENDCHAR
STARTCHAR g131
ENCODING 202
SWIDTH 571 0
DWIDTH 8 0
BBX 6 14 1 0
BITMAP
10
28
44
00
FC
80
80
80
F8
80
80
80
80
FC
ENDCHAR
STARTCHAR g132
ENCODING 203
SWIDTH 571 0
DWIDTH 8 0
BBX 6 13 1 0
BITMAP
44
00
00
FC
80
80
80
F8
80
80
80
80
FC
ENDCHAR
STARTCHAR g133
ENCODING 204
SWIDTH 357 0
DWIDTH 5 0
BBX 3 14 1 0
BITMAP
80
40
20
00
40
40
40
40
40
40
40
40
40
40
ENDCHAR
STARTCHAR g134
ENCODING 205
SWIDTH 357 0
DWIDTH 5 0
BBX 3 14 1 0
BITMAP
20
40
80
00
40
40
40
40
40
40
40
40
40
40
ENDCHAR
STARTCHAR g135
ENCODING 206
SWIDTH 357 0
DWIDTH 5 0
BBX 5 14 0 0
BITMAP
20
50
88
00
20
20
20
20
20
20
20
20
20
20
ENDCHAR
STARTCHAR g136
ENCODING 207
SWIDTH 357 0
DWIDTH 5 0
BBX 5 13 0 0
BITMAP
88
00
20
20
20
20
20
20
20
20
20
20
20
ENDCHAR
STARTCHAR g137
ENCODING 209
SWIDTH 714 0
DWIDTH 10 0
BBX 8 14 1 0
BITMAP
32
4C
00
C1
C1
A1
A1
91
89
89
85
83
83
81
ENDCHAR
STARTCHAR g138
ENCODING 210
SWIDTH 714 0
DWIDTH 10 0
BBX 8 14 1 0
BITMAP
10
08
00
3C
42
81
81
81
81
81
81
81
42
3C
ENDCHAR
STARTCHAR g139
ENCODING 211
SWIDTH 714 0
DWIDTH 10 0
BBX 8 14 1 0
BITMAP
08
10
00
3C
42
81
81
81
81
81
81
81
42
3C
ENDCHAR
STARTCHAR g140
ENCODING 212
SWIDTH 714 0
DWIDTH 10 0
BBX 8 14 1 0
BITMAP
18
24
00
3C
42
81
81
81
81
81
81
81
42
3C
ENDCHAR
STARTCHAR g141
ENCODING 213
SWIDTH 714 0
DWIDTH 10 0
BBX 8 14 1 0
BITMAP
32
4C
00
3C
42
81
81
81
81
81
81
81
42
3C
ENDCHAR
STARTCHAR g142
ENCODING 214
SWIDTH 714 0
DWIDTH 10 0
BBX 8 13 1 0
BITMAP
24
00
3C
42
81
81
81
81
81
81
81
42
3C
ENDCHAR
STARTCHAR g143
ENCODING 216
SWIDTH 714 0
DWIDTH 10 0
BBX 8 11 1 0
BITMAP
3D
42
85
85
89
89
91
A1
A1
42
BC
ENDCHAR
STARTCHAR g144
ENCODING 217
SWIDTH 714 0
DWIDTH 10 0
BBX 8 14 1 0
BITMAP
10
08
00
81
81
81
81
81
81
81
81
81
42
3C
ENDCHAR
STARTCHAR g145
ENCODING 218
SWIDTH 714 0
DWIDTH 10 0
BBX 8 14 1 0
BITMAP
08
10
00
81
81
81
81
81
81
81
81
81
42
3C
ENDCHAR
STARTCHAR g146
ENCODING 219
SWIDTH 714 0
DWIDTH 10 0
BBX 8 14 1 0
BITMAP
18
24
00
81
81
81
81
81
81
81
81
81
42
3C
ENDCHAR
STARTCHAR g147
ENCODING 220
SWIDTH 714 0
DWIDTH 10 0
BBX 8 13 1 0
BITMAP
24
00
81
81
81
81
81
81
81
81
81
42
3C
ENDCHAR
STARTCHAR g148
ENCODING 223
SWIDTH 714 0
DWIDTH 10 0
BBX 8 11 1 0
BITMAP
1C
22
42
44
4C
42
41
41
41
42
CC
ENDCHAR
STARTCHAR g149
ENCODING 224
SWIDTH 571 0
DWIDTH 8 0
BBX 6 11 1 0
BITMAP
20
10
00
78
84
3C
44
84
84
8C
74
ENDCHAR
STARTCHAR g150
ENCODING 225
SWIDTH 571 0
DWIDTH 8 0
BBX 6 11 1 0
BITMAP
10
20
00
78
84
3C
44
84
84
8C
74
ENDCHAR
STARTCHAR g151
ENCODING 226
SWIDTH 571 0
DWIDTH 8 0
BBX 6 12 1 0
BITMAP
10
28
44
00
78
84
3C
44
84
84
8C
74
ENDCHAR
STARTCHAR g152
ENCODING 227
SWIDTH 571 0
DWIDTH 8 0
BBX 6 11 1 0
BITMAP
64
98
00
78
84
3C
44
84
84
8C
74
ENDCHAR
STARTCHAR g153
ENCODING 228
SWIDTH 571 0
DWIDTH 8 0
BBX 6 11 1 0
BITMAP
48
00
00
78
84
3C
44
84
84
8C
74
ENDCHAR
STARTCHAR g154
ENCODING 229
SWIDTH 571 0
DWIDTH 8 0
BBX 6 13 1 0
BITMAP
30
48
48
30
00
78
84
3C
44
84
84
8C
74
ENDCHAR
STARTCHAR g155
ENCODING 230
SWIDTH 1000 0
DWIDTH 14 0
BBX 12 8 1 0
BITMAP
79C0
8620
3C10
47F0
8400
8400
8E20
75C0
ENDCHAR
STARTCHAR g156
ENCODING 231
SWIDTH 571 0
DWIDTH 8 0
BBX 6 11 1 -3
BITMAP
38
44
80
80
80
80
44
38
10
10
20
ENDCHAR
STARTCHAR g157
ENCODING 232
SWIDTH 643 0
DWIDTH 9 0
BBX 7 11 1 0
BITMAP
20
10
00
38
44
82
FE
80
80
44
38
ENDCHAR
STARTCHAR g158
ENCODING 233
SWIDTH 643 0
DWIDTH 9 0
BBX 7 11 1 0
BITMAP
08
10
00
38
44
82
FE
80
80
44
38
ENDCHAR
STARTCHAR g159
ENCODING 234
SWIDTH 643 0
DWIDTH 9 0
BBX 7 12 1 0
BITMAP
10
28
44
00
38
44
82
FE
80
80
44
38
ENDCHAR
STARTCHAR g160
ENCODING 235
SWIDTH 643 0
DWIDTH 9 0
BBX 7 11 1 0
BITMAP
44
00
00
38
44
82
FE
80
80
44
38
ENDCHAR
STARTCHAR g161
ENCODING 236
SWIDTH 357 0
DWIDTH 5 0
BBX 2 11 1 0
BITMAP
80
40
00
C0
40
40
40
40
40
40
40
ENDCHAR
STARTCHAR g162
ENCODING 237
SWIDTH 357 0
DWIDTH 5 0
BBX 2 11 1 0
BITMAP
40
80
00
C0
40
40
40
40
40
40
40
ENDCHAR
STARTCHAR g163
ENCODING 238
SWIDTH 357 0
DWIDTH 5 0
BBX 5 12 0 0
BITMAP
20
50
88
00
60
20
20
20
20
20
20
20
ENDCHAR
STARTCHAR g164
ENCODING 239
SWIDTH 429 0
DWIDTH 6 0
BBX 4 11 1 0
BITMAP
90
00
00
60
20
20
20
20
20
20
20
ENDCHAR
STARTCHAR g165
ENCODING 241
SWIDTH 571 0
DWIDTH 8 0
BBX 6 11 1 0
BITMAP
64
98
00
B8
C4
84
84
84
84
84
84
ENDCHAR
STARTCHAR g166
ENCODING 242
SWIDTH 643 0
DWIDTH 9 0
BBX 7 11 1 0
BITMAP
10
08
00
38
44
82
82
82
82
44
38
ENDCHAR
STARTCHAR g167
ENCODING 243
SWIDTH 643 0
DWIDTH 9 0
BBX 7 11 1 0
BITMAP
08
10
00
38
44
82
82
82
82
44
38
ENDCHAR
STARTCHAR g168
ENCODING 244
SWIDTH 643 0
DWIDTH 9 0
BBX 7 12 1 0
BITMAP
10
28
44
00
38
44
82
82
82
82
44
38
ENDCHAR
STARTCHAR g169
ENCODING 245
SWIDTH 643 0
DWIDTH 9 0
BBX 7 11 1 0
BITMAP
32
4C
00
38
44
82
82
82
82
44
38
ENDCHAR
STARTCHAR g170
ENCODING 246
SWIDTH 643 0
DWIDTH 9 0
BBX 7 11 1 0
BITMAP
24
00
00
38
44
82
82
82
82
44
38
ENDCHAR
STARTCHAR g171
ENCODING 247
SWIDTH 643 0
DWIDTH 9 0
BBX 7 5 1 3
BITMAP
10
00
FE
00
10
ENDCHAR
STARTCHAR g172
ENCODING 248
SWIDTH 571 0
DWIDTH 8 0
BBX 8 8 0 0
BITMAP
3D
42
46
4A
52
62
42
BC
ENDCHAR
STARTCHAR g173
ENCODING 249
SWIDTH 571 0
DWIDTH 8 0
BBX 6 11 1 0
BITMAP
20
10
00
84
84
84
84
84
84
8C
74
ENDCHAR
STARTCHAR g174
ENCODING 250
SWIDTH 571 0
DWIDTH 8 0
BBX 6 11 1 0
BITMAP
10
20
00
84
84
84
84
84
84
8C
74
ENDCHAR
STARTCHAR g175
ENCODING 251
SWIDTH 571 0
DWIDTH 8 0
BBX 6 12 1 0
BITMAP
20
50
88
00
84
84
84
84
84
84
8C
74
ENDCHAR
STARTCHAR g176
ENCODING 252
SWIDTH 571 0
DWIDTH 8 0
BBX 6 11 1 0
BITMAP
48
00
00
84
84
84
84
84
84
8C
74
ENDCHAR
STARTCHAR g177
ENCODING 255
SWIDTH 643 0
DWIDTH 9 0
BBX 7 15 1 -4
BITMAP
44
00
00
82
82
44
44
28
28
10
10
20
20
40
40
ENDCHAR
STARTCHAR g178
ENCODING 305
SWIDTH 357 0
DWIDTH 5 0
BBX 2 8 1 0
BITMAP
C0
40
40
40
40
40
40
40
ENDCHAR
STARTCHAR g179
ENCODING 338
SWIDTH 1000 0
DWIDTH 14 0
BBX 12 11 1 0
BITMAP
3BF0
4600
8200
8200
8200
83E0
8200
8200
8200
4600
3BF0
ENDCHAR
STARTCHAR g180
ENCODING 339
SWIDTH 1000 0
DWIDTH 14 0
BBX 12 8 1 0
BITMAP
79C0
8620
8410
87F0
8400
8400
8620
79C0
ENDCHAR
STARTCHAR g181
ENCODING 376
SWIDTH 643 0
DWIDTH 9 0
BBX 7 13 1 0
BITMAP
44
00
82
82
44
44
28
28
10
10
10
10
10
ENDCHAR
STARTCHAR g182
ENCODING 402
SWIDTH 357 0
DWIDTH 5 0
BBX 3 16 1 -4
BITMAP
20
40
40
40
40
40
E0
40
40
40
40
40
40
40
40
80
ENDCHAR
STARTCHAR g183
ENCODING 710
SWIDTH 500 0
DWIDTH 7 0
BBX 5 3 1 9
BITMAP
20
50
88
ENDCHAR
STARTCHAR g184
ENCODING 711
SWIDTH 571 0
DWIDTH 8 0
BBX 5 3 2 8
BITMAP
88
50
20
ENDCHAR
STARTCHAR g185
ENCODING 728
SWIDTH 500 0
DWIDTH 7 0
BBX 4 2 2 9
BITMAP
90
60
ENDCHAR
STARTCHAR g186
ENCODING 729
SWIDTH 429 0
DWIDTH 6 0
BBX 2 2 2 8
BITMAP
C0
C0
ENDCHAR
STARTCHAR g187
ENCODING 730
SWIDTH 571 0
DWIDTH 8 0
BBX 4 4 2 8
BITMAP
60
90
90
60
ENDCHAR
STARTCHAR g188
ENCODING 731
SWIDTH 571 0
DWIDTH 8 0
BBX 3 3 3 -3
BITMAP
40
80
60
ENDCHAR
STARTCHAR g189
ENCODING 732
SWIDTH 571 0
DWIDTH 8 0
BBX 6 2 1 9
BITMAP
64
98
ENDCHAR
STARTCHAR g190
ENCODING 733
SWIDTH 643 0
DWIDTH 9 0
BBX 5 2 2 9
BITMAP
48
90
ENDCHAR
STARTCHAR g191
ENCODING 960
SWIDTH 714 0
DWIDTH 10 0
BBX 9 7 0 0
BITMAP
7F80
9100
1100
1100
1100
1100
1080
ENDCHAR
STARTCHAR g192
ENCODING 8211
SWIDTH 500 0
DWIDTH 7 0
BBX 5 1 1 4
BITMAP
F8
ENDCHAR
STARTCHAR g193
ENCODING 8212
SWIDTH 714 0
DWIDTH 10 0
BBX 8 1 1 4
BITMAP
FF
ENDCHAR
STARTCHAR g194
ENCODING 8216
SWIDTH 286 0
DWIDTH 4 0
BBX 2 4 1 7
BITMAP
40
80
80
80
ENDCHAR
STARTCHAR g195
ENCODING 8217
SWIDTH 286 0
DWIDTH 4 0
BBX 2 4 1 7
BITMAP
40
40
40
80
ENDCHAR
STARTCHAR g196
ENCODING 8218
SWIDTH 286 0
DWIDTH 4 0
BBX 2 5 1 -3
BITMAP
C0
C0
40
40
80
ENDCHAR
STARTCHAR g197
ENCODING 8220
SWIDTH 571 0
DWIDTH 8 0
BBX 5 4 1 7
BITMAP
48
90
90
90
ENDCHAR
STARTCHAR g198
ENCODING 8221
SWIDTH 571 0
DWIDTH 8 0
BBX 5 4 2 7
BITMAP
48
48
48
90
ENDCHAR
STARTCHAR g199
ENCODING 8222
SWIDTH 500 0
DWIDTH 7 0
BBX 5 5 1 -3
BITMAP
D8
D8
48
48
90
ENDCHAR
STARTCHAR g200
ENCODING 8224
SWIDTH 357 0
DWIDTH 5 0
BBX 3 5 1 7
BITMAP
40
E0
40
40
40
ENDCHAR
STARTCHAR g201
ENCODING 8225
SWIDTH 643 0
DWIDTH 9 0
BBX 7 14 1 -3
BITMAP
10
10
10
FE
10
10
10
10
10
10
FE
10
10
10
ENDCHAR
STARTCHAR g202
ENCODING 8226
SWIDTH 643 0
DWIDTH 9 0
BBX 7 7 1 2
BITMAP
7C
FE
FE
FE
FE
FE
7C
ENDCHAR
STARTCHAR g203
ENCODING 8230
SWIDTH 714 0
DWIDTH 10 0
BBX 7 1 2 0
BITMAP
92
ENDCHAR
STARTCHAR g204
ENCODING 8240
SWIDTH 1286 0
DWIDTH 18 0
BBX 16 11 1 0
BITMAP
6040
9080
9100
9100
9200
64C6
0929
1129
1129
2129
40C6
ENDCHAR
STARTCHAR g205
ENCODING 8249
SWIDTH 357 0
DWIDTH 5 0
BBX 4 7 0 1
BITMAP
10
20
40
80
40
20
10
ENDCHAR
STARTCHAR g206
ENCODING 8250
SWIDTH 357 0
DWIDTH 5 0
BBX 4 7 0 1
BITMAP
80
40
20
10
20
40
80
ENDCHAR
STARTCHAR g207
ENCODING 8260
SWIDTH 214 0
DWIDTH 3 0
BBX 5 10 -1 0
BITMAP
08
08
10
10
20
20
40
40
80
80
ENDCHAR
STARTCHAR g208
ENCODING 8482
SWIDTH 857 0
DWIDTH 12 0
BBX 10 4 1 7
BITMAP
F440
46C0
4540
4440
ENDCHAR
STARTCHAR g209
ENCODING 8486
SWIDTH 714 0
DWIDTH 10 0
BBX 8 11 1 0
BITMAP
3C
42
81
81
81
81
42
42
24
24
66
ENDCHAR
STARTCHAR g210
ENCODING 8706
SWIDTH 571 0
DWIDTH 8 0
BBX 6 10 1 0
BITMAP
70
08
04
1C
24
44
84
84
88
70
ENDCHAR
STARTCHAR g211
ENCODING 8710
SWIDTH 786 0
DWIDTH 11 0
BBX 9 10 1 0
BITMAP
0800
0800
1400
1400
2200
2200
4100
4100
8080
FF80
ENDCHAR
STARTCHAR g212
ENCODING 8719
SWIDTH 714 0
DWIDTH 10 0
BBX 8 11 1 0
BITMAP
FF
42
42
42
42
42
42
42
42
42
42
ENDCHAR
STARTCHAR g213
ENCODING 8721
SWIDTH 714 0
DWIDTH 10 0
BBX 8 11 1 0
BITMAP
FF
41
20
10
08
04
08
10
20
41
FF
ENDCHAR
STARTCHAR g214
ENCODING 8730
SWIDTH 857 0
DWIDTH 12 0
BBX 10 11 1 0
BITMAP
00C0
0100
0100
0200
0200
0400
C400
2800
2800
1000
1000
ENDCHAR
STARTCHAR g215
ENCODING 8734
SWIDTH 1071 0
DWIDTH 15 0
BBX 13 5 1 3
BITMAP
78F0
8508
8208
8508
78F0
ENDCHAR
STARTCHAR g216
ENCODING 8747
SWIDTH 357 0
DWIDTH 5 0
BBX 3 16 1 -4
BITMAP
20
40
40
40
40
40
40
40
40
40
40
40
40
40
40
80
ENDCHAR
STARTCHAR g217
ENCODING 8776
SWIDTH 643 0
DWIDTH 9 0
BBX 7 6 1 2
BITMAP
02
7C
80
02
7C
80
ENDCHAR
STARTCHAR g218
ENCODING 8800
SWIDTH 643 0
DWIDTH 9 0
BBX 7 8 1 1
BITMAP
08
08
FE
10
10
FE
20
20
ENDCHAR
STARTCHAR g219
ENCODING 8804
SWIDTH 500 0
DWIDTH 7 0
BBX 5 8 1 1
BITMAP
10
20
40
80
40
20
10
F8
ENDCHAR
STARTCHAR g220
ENCODING 8805
SWIDTH 500 0
DWIDTH 7 0
BBX 5 8 1 1
BITMAP
80
40
20
10
20
40
80
F8
ENDCHAR
STARTCHAR g221
ENCODING 9674
SWIDTH 786 0
DWIDTH 11 0
BBX 9 9 1 0
BITMAP
0800
1400
2200
4100
8080
4100
2200
1400
0800
ENDCHAR
STARTCHAR g222
ENCODING 63252
SWIDTH 643 0
DWIDTH 9 0
BBX 7 11 1 0
BITMAP
38
44
82
82
82
92
82
82
82
44
38
ENDCHAR
STARTCHAR g223
ENCODING 63253
SWIDTH 357 0
DWIDTH 5 0
BBX 3 11 1 0
BITMAP
E0
40
40
40
40
40
40
40
40
40
E0
ENDCHAR
STARTCHAR g224
ENCODING 63254
SWIDTH 357 0
DWIDTH 5 0
BBX 2 11 1 0
BITMAP
C0
40
40
40
40
40
40
40
40
40
40
ENDCHAR
STARTCHAR g225
ENCODING 63487
SWIDTH 643 0
DWIDTH 9 0
BBX 0 0 0 0
BITMAP
ENDCHAR
STARTCHAR g226
ENCODING 64257
SWIDTH 643 0
DWIDTH 9 0
BBX 6 11 1 0
BITMAP
30
40
40
FC
44
44
44
44
44
44
44
ENDCHAR
STARTCHAR g227
ENCODING 64258
SWIDTH 643 0
DWIDTH 9 0
BBX 7 11 1 0
BITMAP
3E
42
42
F2
42
42
42
42
42
42
42
ENDCHAR
STARTCHAR g228
ENCODING 64512
SWIDTH 786 0
DWIDTH 11 0
BBX 9 11 1 0
BITMAP
FF80
8080
8080
8080
8080
8080
8080
8080
8080
8080
FF80
ENDCHAR
STARTCHAR g229
ENCODING 64513
SWIDTH 786 0
DWIDTH 11 0
BBX 9 11 1 0
BITMAP
FF80
8080
8080
8080
8080
8080
8080
8080
8080
8080
FF80
ENDCHAR
STARTCHAR g230
ENCODING 64514
SWIDTH 786 0
DWIDTH 11 0
BBX 9 11 1 0
BITMAP
FF80
8080
8080
8080
8080
8080
8080
8080
8080
8080
FF80
ENDCHAR
STARTCHAR g231
ENCODING 64515
SWIDTH 786 0
DWIDTH 11 0
BBX 9 11 1 0
BITMAP
FF80
8080
8080
8080
8080
8080
8080
8080
8080
8080
FF80
ENDCHAR
STARTCHAR g232
ENCODING 64516
SWIDTH 786 0
DWIDTH 11 0
BBX 9 11 1 0
BITMAP
FF80
8080
8080
8080
8080
8080
8080
8080
8080
8080
FF80
ENDCHAR
STARTCHAR g233
ENCODING 64517
SWIDTH 786 0
DWIDTH 11 0
BBX 9 11 1 0
BITMAP
FF80
8080
8080
8080
8080
8080
8080
8080
8080
8080
FF80
ENDCHAR
STARTCHAR g234
ENCODING 64518
SWIDTH 786 0
DWIDTH 11 0
BBX 9 11 1 0
BITMAP
FF80
8080
8080
8080
8080
8080
8080
8080
8080
8080
FF80
ENDCHAR
STARTCHAR g235
ENCODING 64519
SWIDTH 786 0
DWIDTH 11 0
BBX 9 11 1 0
BITMAP
FF80
8080
8080
8080
8080
8080
8080
8080
8080
8080
FF80
ENDCHAR
STARTCHAR g236
ENCODING 64520
SWIDTH 786 0
DWIDTH 11 0
BBX 9 11 1 0
BITMAP
FF80
8080
8080
8080
8080
8080
8080
8080
8080
8080
FF80
ENDCHAR
STARTCHAR g237
ENCODING 64521
SWIDTH 786 0
DWIDTH 11 0
BBX 9 11 1 0
BITMAP
FF80
8080
8080
8080
8080
8080
8080
8080
8080
8080
FF80
ENDCHAR
STARTCHAR g238
ENCODING 64522
SWIDTH 786 0
DWIDTH 11 0
BBX 9 11 1 0
BITMAP
FF80
8080
8080
8080
8080
8080
8080
8080
8080
8080
FF80
ENDCHAR
STARTCHAR g239
ENCODING 64523
SWIDTH 786 0
DWIDTH 11 0
BBX 9 11 1 0
BITMAP
FF80
8080
8080
8080
8080
8080
8080
8080
8080
8080
FF80
ENDCHAR
STARTCHAR g240
ENCODING 64524
SWIDTH 786 0
DWIDTH 11 0
BBX 9 11 1 0
BITMAP
FF80
8080
8080
8080
8080
8080
8080
8080
8080
8080
FF80
ENDCHAR
STARTCHAR g241
ENCODING 64525
SWIDTH 786 0
DWIDTH 11 0
BBX 9 11 1 0
BITMAP
FF80
8080
8080
8080
8080
8080
8080
8080
8080
8080
FF80
ENDCHAR
STARTCHAR g242
ENCODING 64526
SWIDTH 786 0
DWIDTH 11 0
BBX 9 11 1 0
BITMAP
FF80
8080
8080
8080
8080
8080
8080
8080
8080
8080
FF80
ENDCHAR
STARTCHAR g243
ENCODING 64527
SWIDTH 786 0
DWIDTH 11 0
BBX 9 11 1 0
BITMAP
FF80
8080
8080
8080
8080
8080
8080
8080
8080
8080
FF80
ENDCHAR
ENDFONT
