STARTFONT 2.1
COMMENT Strike 6 of a Newton 'sfnt' font (bloc/bdat): tools/fonts/newtonsfnt.py,
COMMENT tools/fonts/README.md.  The builder reads the BLOC_* properties and the
COMMENT glyphs - STARTCHAR gN (N the glyph id; otherwise ENCODING through 'cmap'),
COMMENT DWIDTH (the advance), BBX (width, height, the bearing x, the bottom row's
COMMENT y: bearing y less the height) and the BITMAP rows.  A glyph id in the
COMMENT subtable ranges with no glyph here has no image (the missing glyph is 0).
COMMENT The other properties, SIZE, FONTBOUNDINGBOX and SWIDTH are worked out and
COMMENT not read back: change BLOC_HORI_* (the line metrics the ROM draws text by)
COMMENT to match an edit that changes the strike's extent.
FONT -Apple-Roman Regular-Medium-R-Normal--36-360-72-72-P-0-Apple-Roman
SIZE 36 72 72
FONTBOUNDINGBOX 50 41 -4 -8
STARTPROPERTIES 37
FONT_ASCENT 33
FONT_DESCENT 8
PIXEL_SIZE 36
FAMILY_NAME "Roman Regular"
BLOC_COLOR_REF 0
BLOC_HORI_ASCENDER 33
BLOC_HORI_DESCENDER -8
BLOC_HORI_WIDTH_MAX 47
BLOC_HORI_CARET_SLOPE_NUMERATOR 0
BLOC_HORI_CARET_SLOPE_DENOMINATOR 1
BLOC_HORI_CARET_OFFSET 0
BLOC_HORI_MIN_ORIGIN_SB -4
BLOC_HORI_MIN_ADVANCE_SB -5
BLOC_HORI_MAX_BEFORE_BL 33
BLOC_HORI_MIN_AFTER_BL -8
BLOC_HORI_PAD1 0
BLOC_HORI_PAD2 0
BLOC_VERT_ASCENDER 0
BLOC_VERT_DESCENDER 0
BLOC_VERT_WIDTH_MAX 41
BLOC_VERT_CARET_SLOPE_NUMERATOR 0
BLOC_VERT_CARET_SLOPE_DENOMINATOR 1
BLOC_VERT_CARET_OFFSET 0
BLOC_VERT_MIN_ORIGIN_SB 119
BLOC_VERT_MIN_ADVANCE_SB -64
BLOC_VERT_MAX_BEFORE_BL 0
BLOC_VERT_MIN_AFTER_BL 92
BLOC_VERT_PAD1 0
BLOC_VERT_PAD2 0
BLOC_START_GLYPH 0
BLOC_END_GLYPH 257
BLOC_PPEM_X 36
BLOC_PPEM_Y 36
BLOC_BIT_DEPTH 1
BLOC_FLAGS 1
BLOC_INDEX_SUBTABLES 1
BLOC_INDEX_SUBTABLE_0 "0 257 3 1 0"
ENDPROPERTIES
CHARS 244
STARTCHAR g0
ENCODING -1
SWIDTH 472 0
DWIDTH 17 0
BBX 16 24 0 0
BITMAP
FFFF
8001
8001
8001
8001
8001
8001
8001
8001
8001
8001
8001
8001
8001
8001
8001
8001
8001
8001
8001
8001
8001
8001
FFFF
ENDCHAR
STARTCHAR g1
ENCODING 0
SWIDTH 0 0
DWIDTH 0 0
BBX 0 0 0 0
BITMAP
ENDCHAR
STARTCHAR g2
ENCODING 1
SWIDTH 333 0
DWIDTH 12 0
BBX 0 0 0 0
BITMAP
ENDCHAR
STARTCHAR g3
ENCODING 2
SWIDTH 306 0
DWIDTH 11 0
BBX 3 27 4 0
BITMAP
E0
E0
E0
E0
E0
E0
E0
E0
E0
E0
E0
E0
E0
E0
E0
E0
E0
E0
E0
E0
00
00
00
00
E0
E0
E0
ENDCHAR
STARTCHAR g4
ENCODING 3
SWIDTH 500 0
DWIDTH 18 0
BBX 10 11 4 17
BITMAP
E1C0
E1C0
E1C0
E1C0
E1C0
E1C0
E1C0
E1C0
E1C0
E1C0
E1C0
ENDCHAR
STARTCHAR g5
ENCODING 4
SWIDTH 694 0
DWIDTH 25 0
BBX 22 27 1 0
BITMAP
007038
007038
00E070
00E070
00E070
01C0E0
01C0E0
FFFFFC
FFFFFC
FFFFFC
0381C0
0381C0
070380
070380
070380
0E0700
0E0700
FFFFFC
FFFFFC
FFFFFC
1C0E00
1C0E00
381C00
381C00
381C00
703800
703800
ENDCHAR
STARTCHAR g6
ENCODING 5
SWIDTH 667 0
DWIDTH 24 0
BBX 18 33 3 -3
BITMAP
00E000
00E000
00E000
07FC00
1FFF00
3FFF80
7CE780
78E380
70E000
70E000
70E000
70E000
78E000
3EE000
3FE000
0FE000
07F800
00FE00
00FF00
00EF80
00E3C0
00E3C0
00E1C0
E0E1C0
E0E3C0
F0E380
7CE780
7FFF00
3FFE00
0FFC00
00E000
00E000
00E000
ENDCHAR
STARTCHAR g7
ENCODING 6
SWIDTH 917 0
DWIDTH 33 0
BBX 30 27 1 0
BITMAP
0F0001C0
1F800380
39C00780
70E00700
70E00E00
E0701C00
E0701C00
E0703800
E0707000
E070F000
E070E000
70E1C3C0
70E387E0
39C38E70
1F871C38
0F0E1C38
001E381C
001C381C
0038381C
0078381C
00F0381C
00E0381C
01C01C38
03C01C38
03800E70
070007E0
0F0003C0
ENDCHAR
STARTCHAR g8
ENCODING 7
SWIDTH 722 0
DWIDTH 26 0
BBX 23 29 1 -1
BITMAP
00FC00
03FE00
038F00
070700
070380
0F0780
070700
078700
078E00
03DE00
03FC00
01F000
07E000
0FF01C
1E781C
3C781C
783C1C
781E1C
701E1C
F00F38
F007B8
F007F0
7003F0
7801E0
7C03F0
3E0FF8
1FFF7C
0FFE3E
03F000
ENDCHAR
STARTCHAR g9
ENCODING 8
SWIDTH 306 0
DWIDTH 11 0
BBX 3 11 4 17
BITMAP
E0
E0
E0
E0
E0
E0
E0
E0
E0
E0
E0
ENDCHAR
STARTCHAR g10
ENCODING 9
SWIDTH 444 0
DWIDTH 16 0
BBX 11 36 3 -7
BITMAP
00E0
01C0
0380
0700
0E00
0E00
1C00
1C00
3800
3800
7800
7000
7000
7000
F000
F000
E000
E000
E000
E000
F000
F000
7000
7000
7000
7800
3800
3800
1C00
1C00
0E00
0E00
0700
0380
01C0
00E0
ENDCHAR
STARTCHAR g11
ENCODING 10
SWIDTH 444 0
DWIDTH 16 0
BBX 11 36 2 -7
BITMAP
F000
7800
3800
1C00
0E00
0F00
0700
0780
0380
0380
03C0
01C0
01C0
01C0
01E0
01E0
00E0
00E0
00E0
00E0
01E0
01E0
01C0
01C0
01C0
03C0
0380
0380
0780
0700
0F00
0E00
1C00
3800
7800
F000
ENDCHAR
STARTCHAR g12
ENCODING 11
SWIDTH 500 0
DWIDTH 18 0
BBX 15 15 2 13
BITMAP
0300
0300
0300
0300
4304
FB3E
FFFE
1FE0
0780
0FC0
0CE0
1CE0
3870
3870
1020
ENDCHAR
STARTCHAR g13
ENCODING 12
SWIDTH 667 0
DWIDTH 24 0
BBX 20 20 2 0
BITMAP
006000
006000
006000
006000
006000
006000
006000
006000
006000
FFFFF0
FFFFF0
006000
006000
006000
006000
006000
006000
006000
006000
006000
ENDCHAR
STARTCHAR g14
ENCODING 44
SWIDTH 306 0
DWIDTH 11 0
BBX 5 12 3 -7
BITMAP
F8
F8
F8
F8
F8
38
38
38
70
E0
C0
80
ENDCHAR
STARTCHAR g15
ENCODING 45
SWIDTH 389 0
DWIDTH 14 0
BBX 11 2 1 10
BITMAP
FFE0
FFE0
ENDCHAR
STARTCHAR g16
ENCODING 46
SWIDTH 306 0
DWIDTH 11 0
BBX 5 5 3 0
BITMAP
F8
F8
F8
F8
F8
ENDCHAR
STARTCHAR g17
ENCODING 47
SWIDTH 528 0
DWIDTH 19 0
BBX 18 29 1 -1
BITMAP
0003C0
000380
000700
000700
000E00
000E00
001C00
001C00
003800
003800
007000
007000
00E000
00E000
01C000
01C000
038000
038000
070000
070000
0E0000
0E0000
1C0000
1C0000
380000
380000
700000
700000
E00000
ENDCHAR
STARTCHAR g18
ENCODING 48
SWIDTH 667 0
DWIDTH 24 0
BBX 20 29 2 -1
BITMAP
01F800
07FE00
0FFF00
1F0F80
3C03C0
3C03C0
7801E0
7801E0
7000E0
7000E0
F000F0
F000F0
F000F0
E00070
E00070
E00070
F000F0
F000F0
F000F0
7000E0
7000E0
7801E0
7801E0
3C03C0
3C03C0
1F0F80
0FFF00
07FE00
01F800
ENDCHAR
STARTCHAR g19
ENCODING 49
SWIDTH 667 0
DWIDTH 24 0
BBX 9 27 5 0
BITMAP
0780
3F80
FF80
F380
C380
0380
0380
0380
0380
0380
0380
0380
0380
0380
0380
0380
0380
0380
0380
0380
0380
0380
0380
0380
0380
0380
0380
ENDCHAR
STARTCHAR g20
ENCODING 50
SWIDTH 667 0
DWIDTH 24 0
BBX 18 28 3 0
BITMAP
07F800
1FFE00
3FFF00
7C1F00
780780
700780
000380
000380
000780
000780
000F00
001E00
003C00
007800
01F000
03C000
078000
0F0000
1E0000
3C0000
780000
700000
700000
F00000
F00000
FFFFC0
FFFFC0
FFFFC0
ENDCHAR
STARTCHAR g21
ENCODING 51
SWIDTH 667 0
DWIDTH 24 0
BBX 17 29 3 -1
BITMAP
0FF000
1FFC00
7FFE00
781F00
F00F00
E00F00
000700
000700
000F00
000E00
001C00
007800
0FE000
0FF000
0FFC00
001E00
000F00
000780
000780
000380
000380
000380
000780
E00780
F00F00
781E00
7FFE00
3FFC00
0FE000
ENDCHAR
STARTCHAR g22
ENCODING 52
SWIDTH 667 0
DWIDTH 24 0
BBX 20 27 2 0
BITMAP
000700
000F00
001F00
003F00
007F00
007700
00E700
01C700
038700
078700
0F0700
0E0700
1C0700
380700
780700
F00700
FFFFF0
FFFFF0
FFFFF0
000700
000700
000700
000700
000700
000700
000700
000700
ENDCHAR
STARTCHAR g23
ENCODING 53
SWIDTH 667 0
DWIDTH 24 0
BBX 16 28 4 -1
BITMAP
7FFE
7FFE
7FFE
7000
7000
7000
7000
7000
7000
7000
7F00
7FF0
7FFC
007E
001E
000F
000F
0007
0007
0007
0007
0007
E00F
E01E
F83E
7FFC
3FF8
0FE0
ENDCHAR
STARTCHAR g24
ENCODING 54
SWIDTH 667 0
DWIDTH 24 0
BBX 18 29 3 -1
BITMAP
01FC00
07FF00
0FFF80
1F0780
1E03C0
3C0000
380000
780000
700000
700000
F00000
F0F800
F3FE00
F7FF00
FE0F80
FC0780
F803C0
F801C0
F001C0
7001C0
7001C0
7001C0
7801C0
3803C0
3C0780
1F0F80
0FFF00
07FE00
01F800
ENDCHAR
STARTCHAR g25
ENCODING 55
SWIDTH 667 0
DWIDTH 24 0
BBX 18 27 3 0
BITMAP
FFFFC0
FFFFC0
FFFFC0
0003C0
000380
000700
000F00
000E00
001C00
003800
007800
007000
00F000
01E000
01C000
03C000
038000
078000
070000
0F0000
0F0000
0E0000
0E0000
1E0000
1E0000
1E0000
1E0000
ENDCHAR
STARTCHAR g26
ENCODING 56
SWIDTH 667 0
DWIDTH 24 0
BBX 18 29 3 -1
BITMAP
03F000
0FFC00
1FFE00
3E1F00
780780
780780
700380
700380
700380
780780
380700
1E1E00
0FFC00
0FFC00
1E1E00
380700
700380
F003C0
E001C0
E001C0
E001C0
E001C0
F003C0
F003C0
780780
7E1F80
3FFF00
1FFE00
07F800
ENDCHAR
STARTCHAR g27
ENCODING 57
SWIDTH 667 0
DWIDTH 24 0
BBX 18 29 3 -1
BITMAP
07E000
1FF800
3FFC00
7C3E00
780F00
F00700
E00780
E00380
E00380
E00380
E003C0
E003C0
7007C0
780FC0
3C3BC0
1FF3C0
07C3C0
0003C0
0003C0
000380
000380
000780
000700
000F00
F01E00
F83E00
7FFC00
3FF800
0FE000
ENDCHAR
STARTCHAR g28
ENCODING 58
SWIDTH 306 0
DWIDTH 11 0
BBX 5 20 3 0
BITMAP
F8
F8
F8
F8
F8
00
00
00
00
00
00
00
00
00
00
F8
F8
F8
F8
F8
ENDCHAR
STARTCHAR g29
ENCODING 59
SWIDTH 306 0
DWIDTH 11 0
BBX 5 27 3 -7
BITMAP
F8
F8
F8
F8
F8
00
00
00
00
00
00
00
00
00
00
F8
F8
F8
F8
F8
38
38
38
70
E0
C0
80
ENDCHAR
STARTCHAR g30
ENCODING 60
SWIDTH 667 0
DWIDTH 24 0
BBX 19 20 3 0
BITMAP
000020
0000E0
0003E0
000FC0
003F00
00FC00
03F000
0FC000
3F0000
FC0000
FC0000
3F0000
0FC000
03F000
00FC00
003F00
000FC0
0003E0
0000E0
000020
ENDCHAR
STARTCHAR g31
ENCODING 61
SWIDTH 667 0
DWIDTH 24 0
BBX 20 9 2 5
BITMAP
FFFFF0
FFFFF0
FFFFF0
000000
000000
000000
FFFFF0
FFFFF0
FFFFF0
ENDCHAR
STARTCHAR g32
ENCODING 62
SWIDTH 667 0
DWIDTH 24 0
BBX 19 20 2 0
BITMAP
800000
E00000
F80000
7E0000
1F8000
07E000
01F800
007E00
001F80
0007E0
0007E0
001F80
007E00
01F800
07E000
1F8000
7E0000
F80000
E00000
800000
ENDCHAR
STARTCHAR g33
ENCODING 63
SWIDTH 556 0
DWIDTH 20 0
BBX 15 28 2 0
BITMAP
0FC0
3FF8
7FFC
703E
F01E
000E
000E
000E
001E
003C
0078
00F0
01E0
01C0
0380
0380
0780
0700
0700
0700
0700
0000
0000
0000
0000
0700
0700
0700
ENDCHAR
STARTCHAR g34
ENCODING 64
SWIDTH 861 0
DWIDTH 31 0
BBX 27 29 2 -1
BITMAP
003FC000
01FFF800
03E03C00
0F000F00
0E000700
1C000180
380001C0
301FE0C0
707FE0E0
60F0E060
61E0E060
E1C0E060
E1C0E060
E380E060
E380E060
E181E0E0
E1C3E0C0
E1C7F1C0
60FEFF80
60787F00
70003E00
30000000
38000000
1C000000
0E001000
0F003000
03C0F000
01FFE000
003F8000
ENDCHAR
STARTCHAR g35
ENCODING 65
SWIDTH 722 0
DWIDTH 26 0
BBX 25 28 1 0
BITMAP
000C0000
001C0000
003E0000
003E0000
007F0000
007F0000
00E78000
00E78000
00E78000
01C3C000
01C3C000
03C1C000
0381E000
0381E000
0700E000
0700F000
0E00F000
0FFFF800
1FFFF800
1FFFF800
1C003C00
38003C00
38001E00
78001E00
70000E00
70000F00
E0000F00
E0000780
ENDCHAR
STARTCHAR g36
ENCODING 66
SWIDTH 639 0
DWIDTH 23 0
BBX 18 27 3 0
BITMAP
FFF800
FFFE00
E01F00
E00F00
E00780
E00780
E00780
E00780
E00700
E00F00
E01E00
E03C00
FFF000
FFFC00
E03F00
E00F80
E00780
E003C0
E003C0
E003C0
E003C0
E003C0
E00780
E00F80
FFFF00
FFFE00
FFF800
ENDCHAR
STARTCHAR g37
ENCODING 67
SWIDTH 639 0
DWIDTH 23 0
BBX 20 29 2 -1
BITMAP
00FE00
03FF80
0FFFC0
1F83E0
3E00F0
3C00F0
780070
780000
F00000
F00000
F00000
F00000
E00000
E00000
E00000
E00000
E00000
F00000
F00000
F00000
F00000
780000
780070
3C0070
3E00F0
1F81E0
0FFFC0
03FF80
00FE00
ENDCHAR
STARTCHAR g38
ENCODING 68
SWIDTH 694 0
DWIDTH 25 0
BBX 21 27 3 0
BITMAP
FFF000
FFFE00
FFFF00
E01F80
E003C0
E001E0
E001E0
E000F0
E000F0
E000F0
E00070
E00070
E00078
E00078
E00078
E00070
E00070
E000F0
E000F0
E000F0
E001E0
E001E0
E003C0
E01F80
FFFF00
FFFE00
FFF000
ENDCHAR
STARTCHAR g39
ENCODING 69
SWIDTH 583 0
DWIDTH 21 0
BBX 16 27 3 0
BITMAP
FFFE
FFFE
FFFE
E000
E000
E000
E000
E000
E000
E000
E000
FFF8
FFF8
FFF8
E000
E000
E000
E000
E000
E000
E000
E000
E000
E000
FFFF
FFFF
FFFF
ENDCHAR
STARTCHAR g40
ENCODING 70
SWIDTH 556 0
DWIDTH 20 0
BBX 15 27 3 0
BITMAP
FFFE
FFFE
FFFE
E000
E000
E000
E000
E000
E000
E000
E000
E000
FFF8
FFF8
FFF8
E000
E000
E000
E000
E000
E000
E000
E000
E000
E000
E000
E000
ENDCHAR
STARTCHAR g41
ENCODING 71
SWIDTH 667 0
DWIDTH 24 0
BBX 20 29 2 -1
BITMAP
00FE00
07FF80
0FFFE0
1F83E0
3E00F0
3C0070
780070
780000
700000
700000
F00000
F00000
F00000
F00000
F01FF0
F01FF0
F01FF0
F00070
700070
700070
700070
780070
780070
3C0070
3E0070
1F81F0
0FFFF0
07FFE0
00FF00
ENDCHAR
STARTCHAR g42
ENCODING 72
SWIDTH 694 0
DWIDTH 25 0
BBX 19 27 3 0
BITMAP
E000E0
E000E0
E000E0
E000E0
E000E0
E000E0
E000E0
E000E0
E000E0
E000E0
E000E0
E000E0
FFFFE0
FFFFE0
FFFFE0
E000E0
E000E0
E000E0
E000E0
E000E0
E000E0
E000E0
E000E0
E000E0
E000E0
E000E0
E000E0
ENDCHAR
STARTCHAR g43
ENCODING 73
SWIDTH 250 0
DWIDTH 9 0
BBX 3 27 3 0
BITMAP
E0
E0
E0
E0
E0
E0
E0
E0
E0
E0
E0
E0
E0
E0
E0
E0
E0
E0
E0
E0
E0
E0
E0
E0
E0
E0
E0
ENDCHAR
STARTCHAR g44
ENCODING 74
SWIDTH 500 0
DWIDTH 18 0
BBX 14 28 1 -1
BITMAP
001C
001C
001C
001C
001C
001C
001C
001C
001C
001C
001C
001C
001C
001C
001C
001C
001C
001C
001C
001C
001C
001C
E01C
F03C
F87C
7FF8
3FF0
0FC0
ENDCHAR
STARTCHAR g45
ENCODING 75
SWIDTH 667 0
DWIDTH 24 0
BBX 20 27 3 0
BITMAP
E003C0
E007C0
E00F80
E01F00
E03E00
E07C00
E0F800
E1F000
E3E000
E7C000
EF8000
FF0000
FE0000
FF0000
EF8000
E7C000
E3E000
E1F000
E0F800
E07C00
E03E00
E01F00
E00F80
E007C0
E003E0
E001F0
E000F0
ENDCHAR
STARTCHAR g46
ENCODING 76
SWIDTH 583 0
DWIDTH 21 0
BBX 17 27 3 0
BITMAP
E00000
E00000
E00000
E00000
E00000
E00000
E00000
E00000
E00000
E00000
E00000
E00000
E00000
E00000
E00000
E00000
E00000
E00000
E00000
E00000
E00000
E00000
E00000
E00000
FFFF80
FFFF80
FFFF80
ENDCHAR
STARTCHAR g47
ENCODING 77
SWIDTH 778 0
DWIDTH 28 0
BBX 23 27 3 0
BITMAP
E0001E
F0001E
F0003E
F8003E
F8007E
FC007E
FC006E
FC00EE
FE00EE
EE01CE
EF01CE
E701CE
E7838E
E7838E
E3C70E
E3C70E
E1C70E
E1EE0E
E0EE0E
E0FC0E
E0FC0E
E07C0E
E0780E
E0000E
E0000E
E0000E
E0000E
ENDCHAR
STARTCHAR g48
ENCODING 78
SWIDTH 722 0
DWIDTH 26 0
BBX 20 27 3 0
BITMAP
E00070
F00070
F80070
F80070
FC0070
FE0070
EE0070
EF0070
E78070
E78070
E3C070
E1E070
E1E070
E0F070
E07870
E07870
E03C70
E03E70
E01E70
E00F70
E00F70
E007F0
E003F0
E003F0
E001F0
E001F0
E000F0
ENDCHAR
STARTCHAR g49
ENCODING 79
SWIDTH 722 0
DWIDTH 26 0
BBX 24 29 1 -1
BITMAP
007F00
01FFC0
07FFE0
0FC1F0
1F0078
1E007C
3C003C
3C001E
78001E
78001E
F0000F
F0000F
F0000F
F0000F
F0000F
F0000F
F0000F
F0000F
F0000F
78000E
78001E
3C001E
3C003C
1E007C
1F0078
0FC1F0
07FFE0
01FFC0
007F00
ENDCHAR
STARTCHAR g50
ENCODING 80
SWIDTH 583 0
DWIDTH 21 0
BBX 17 27 3 0
BITMAP
FFF000
FFFC00
E01E00
E00F00
E00700
E00780
E00780
E00780
E00780
E00780
E00F00
E01F00
E03E00
FFFE00
FFF800
FFE000
E00000
E00000
E00000
E00000
E00000
E00000
E00000
E00000
E00000
E00000
E00000
ENDCHAR
STARTCHAR g51
ENCODING 81
SWIDTH 722 0
DWIDTH 26 0
BBX 26 35 2 -7
BITMAP
00FE0000
03FF8000
0FFFC000
1F83E000
3E00F000
3E00F800
3C007800
78003C00
78003C00
78003C00
F0001E00
F0001E00
F0001E00
F0001E00
F0001E00
F0001E00
F0001E00
F0001E00
F0001E00
F0001C00
F0003C00
78003C00
78007800
3C007800
3E00F000
1F83E000
0FFFC000
07FF0000
01FE0000
001F8000
0007E000
0003FFC0
0001FFC0
00007FC0
00001FC0
ENDCHAR
STARTCHAR g52
ENCODING 82
SWIDTH 611 0
DWIDTH 22 0
BBX 18 27 3 0
BITMAP
FFF000
FFFC00
E03E00
E01E00
E00F00
E00F00
E00F00
E00F00
E00F00
E00F00
E01E00
E01E00
E07C00
FFF800
FFE000
E1E000
E0F000
E07800
E03800
E03C00
E01E00
E01E00
E00F00
E00F00
E00780
E00780
E003C0
ENDCHAR
STARTCHAR g53
ENCODING 83
SWIDTH 611 0
DWIDTH 22 0
BBX 18 29 2 -1
BITMAP
03FC00
0FFF00
1FFF80
3E07C0
7803C0
7801C0
700000
700000
780000
780000
7C0000
3E0000
1FC000
0FF000
03FC00
00FE00
001F80
000F80
0003C0
0003C0
0001C0
0001C0
E001C0
F003C0
F007C0
7C0F80
7FFF00
1FFE00
07F800
ENDCHAR
STARTCHAR g54
ENCODING 84
SWIDTH 639 0
DWIDTH 23 0
BBX 22 27 1 0
BITMAP
FFFFFC
FFFFFC
FFFFFC
007000
007000
007000
007000
007000
007000
007000
007000
007000
007000
007000
007000
007000
007000
007000
007000
007000
007000
007000
007000
007000
007000
007000
007000
ENDCHAR
STARTCHAR g55
ENCODING 85
SWIDTH 667 0
DWIDTH 24 0
BBX 20 28 2 -1
BITMAP
F000F0
F000F0
F000F0
F000F0
F000F0
F000F0
F000F0
F000F0
F000F0
F000F0
F000F0
F000F0
F000F0
F000F0
F000F0
F000F0
F000F0
F000F0
F000F0
F000F0
F000F0
F000F0
7801E0
7801E0
3E07C0
1FFF80
0FFF00
03FC00
ENDCHAR
STARTCHAR g56
ENCODING 86
SWIDTH 722 0
DWIDTH 26 0
BBX 25 27 1 0
BITMAP
F0000780
F0000700
70000F00
78000E00
78000E00
38001C00
3C001C00
3C003C00
1E003800
1E003800
0E007000
0F007000
0F00E000
0700E000
0781E000
0381C000
03C1C000
03C38000
01C38000
01E78000
01E70000
00E70000
00FE0000
007E0000
007E0000
007C0000
003C0000
ENDCHAR
STARTCHAR g57
ENCODING 87
SWIDTH 944 0
DWIDTH 34 0
BBX 32 27 1 0
BITMAP
F003C007
7003C00E
7003E00E
7803E00E
7807E00E
3807E01C
3806701C
3C0E701C
3C0E701C
1C0E703C
1C0C3838
1C1C3838
1E1C3838
1E1C3878
0E181C70
0E381C70
0F381C70
0F381CF0
07300EE0
07700EE0
07700EE0
07F00EE0
03E007C0
03E007C0
03E007C0
03E007C0
03C003C0
ENDCHAR
STARTCHAR g58
ENCODING 88
SWIDTH 611 0
DWIDTH 22 0
BBX 20 27 1 0
BITMAP
F00070
7800E0
3C01E0
3C01C0
1E0380
0F0780
0F0700
078F00
079E00
03DC00
01FC00
01F800
00F000
00F000
00F800
01FC00
03FC00
039E00
070E00
0F0F00
0E0780
1E0780
3C03C0
3801C0
7801E0
7000F0
E000F0
ENDCHAR
STARTCHAR g59
ENCODING 89
SWIDTH 611 0
DWIDTH 22 0
BBX 22 27 0 0
BITMAP
F8003C
780078
3C0070
1E00E0
1E01E0
0F01C0
0F83C0
078380
03C700
03CF00
01EE00
00FC00
00FC00
007800
007800
007800
007800
007800
007800
007800
007800
007800
007800
007800
007800
007800
007800
ENDCHAR
STARTCHAR g60
ENCODING 90
SWIDTH 583 0
DWIDTH 21 0
BBX 18 27 1 0
BITMAP
7FFFC0
7FFFC0
7FFFC0
000380
000780
000F00
000F00
001E00
003C00
003C00
007800
00F000
00F000
01E000
03C000
03C000
078000
0F0000
0F0000
1E0000
1C0000
3C0000
780000
780000
FFFFC0
FFFFC0
FFFFC0
ENDCHAR
STARTCHAR g61
ENCODING 91
SWIDTH 444 0
DWIDTH 16 0
BBX 9 36 4 -7
BITMAP
FF80
FF80
FF80
E000
E000
E000
E000
E000
E000
E000
E000
E000
E000
E000
E000
E000
E000
E000
E000
E000
E000
E000
E000
E000
E000
E000
E000
E000
E000
E000
E000
E000
E000
FF80
FF80
FF80
ENDCHAR
STARTCHAR g62
ENCODING 92
SWIDTH 528 0
DWIDTH 19 0
BBX 18 29 1 -1
BITMAP
E00000
700000
700000
380000
380000
1C0000
1C0000
0E0000
0E0000
070000
070000
038000
038000
01C000
01C000
00E000
00E000
007000
007000
003800
003800
001C00
001C00
000E00
000E00
000700
000700
000380
0003C0
ENDCHAR
STARTCHAR g63
ENCODING 93
SWIDTH 444 0
DWIDTH 16 0
BBX 9 36 3 -7
BITMAP
FF80
FF80
FF80
0380
0380
0380
0380
0380
0380
0380
0380
0380
0380
0380
0380
0380
0380
0380
0380
0380
0380
0380
0380
0380
0380
0380
0380
0380
0380
0380
0380
0380
0380
FF80
FF80
FF80
ENDCHAR
STARTCHAR g64
ENCODING 94
SWIDTH 667 0
DWIDTH 24 0
BBX 18 18 3 8
BITMAP
00C000
00C000
01E000
01E000
03F000
03F000
073800
073800
0E1C00
0E1C00
1C0E00
1C0E00
380700
380700
700380
700380
E001C0
E001C0
ENDCHAR
STARTCHAR g65
ENCODING 95
SWIDTH 667 0
DWIDTH 24 0
BBX 22 3 1 -3
BITMAP
FFFFFC
FFFFFC
FFFFFC
ENDCHAR
STARTCHAR g66
ENCODING 96
SWIDTH 583 0
DWIDTH 21 0
BBX 8 5 6 23
BITMAP
F0
78
3C
1E
0F
ENDCHAR
STARTCHAR g67
ENCODING 97
SWIDTH 556 0
DWIDTH 20 0
BBX 15 21 2 -1
BITMAP
07F0
1FFC
3C3E
780E
F00E
F00E
000E
000E
00FE
07FE
1FCE
3E0E
780E
F00E
F00E
F01E
F03E
F87E
7FEE
3FCE
0F00
ENDCHAR
STARTCHAR g68
ENCODING 98
SWIDTH 611 0
DWIDTH 22 0
BBX 17 29 3 -1
BITMAP
E00000
E00000
E00000
E00000
E00000
E00000
E00000
E00000
E3F000
EFFC00
FC1E00
F80F00
F00700
F00700
E00380
E00380
E00380
E00380
E00380
E00380
E00380
E00380
F00380
F00780
F80700
FC1F00
EFFE00
E7FC00
01E000
ENDCHAR
STARTCHAR g69
ENCODING 99
SWIDTH 556 0
DWIDTH 20 0
BBX 16 21 2 -1
BITMAP
07F0
1FFC
3FFE
3C0F
7807
F000
F000
E000
E000
E000
E000
E000
E000
E000
F000
F007
780F
3C1E
3FFE
1FFC
03F0
ENDCHAR
STARTCHAR g70
ENCODING 100
SWIDTH 611 0
DWIDTH 22 0
BBX 17 29 2 -1
BITMAP
000380
000380
000380
000380
000380
000380
000380
000380
07E380
1FFB80
3FFB80
3C1F80
781F80
700F80
F00780
E00780
E00380
E00380
E00380
E00380
E00380
E00380
F00780
F00F80
7C1F80
7FFF80
3FFB80
1FF380
07C000
ENDCHAR
STARTCHAR g71
ENCODING 101
SWIDTH 583 0
DWIDTH 21 0
BBX 17 21 2 -1
BITMAP
03F000
0FFC00
1FFE00
3C1E00
780F00
700700
F00380
E00380
FFFF80
FFFF80
FFFF80
E00000
E00000
E00000
F00000
700780
780700
3E0F00
1FFE00
0FFC00
03F000
ENDCHAR
STARTCHAR g72
ENCODING 102
SWIDTH 389 0
DWIDTH 14 0
BBX 12 28 1 0
BITMAP
01F0
07F0
07F0
0F00
0E00
1E00
1E00
1E00
FFF0
FFF0
FFF0
1E00
1E00
1E00
1E00
1E00
1E00
1E00
1E00
1E00
1E00
1E00
1E00
1E00
1E00
1E00
1E00
1E00
ENDCHAR
STARTCHAR g73
ENCODING 103
SWIDTH 611 0
DWIDTH 22 0
BBX 17 28 2 -8
BITMAP
07C380
1FF380
3FFB80
7C1F80
780F80
F00780
F00780
E00380
E00380
E00380
E00380
E00380
E00380
F00780
F00780
780F80
7C1F80
3FFB80
1FF380
07E380
000380
C00380
E00700
F00F00
7C3E00
3FFC00
0FF000
03C000
ENDCHAR
STARTCHAR g74
ENCODING 104
SWIDTH 583 0
DWIDTH 21 0
BBX 16 28 3 0
BITMAP
E000
E000
E000
E000
E000
E000
E000
E000
E1E0
E7F8
EFFC
FC3E
F81E
F00F
F00F
E007
E007
E007
E007
E007
E007
E007
E007
E007
E007
E007
E007
E007
ENDCHAR
STARTCHAR g75
ENCODING 105
SWIDTH 222 0
DWIDTH 8 0
BBX 3 27 3 0
BITMAP
E0
E0
E0
00
00
00
00
E0
E0
E0
E0
E0
E0
E0
E0
E0
E0
E0
E0
E0
E0
E0
E0
E0
E0
E0
E0
ENDCHAR
STARTCHAR g76
ENCODING 106
SWIDTH 278 0
DWIDTH 10 0
BBX 9 35 -2 -8
BITMAP
0380
0380
0380
0000
0000
0000
0000
0380
0380
0380
0380
0380
0380
0380
0380
0380
0380
0380
0380
0380
0380
0380
0380
0380
0380
0380
0380
0380
0380
0380
0780
0F80
FF00
FE00
F800
ENDCHAR
STARTCHAR g77
ENCODING 107
SWIDTH 528 0
DWIDTH 19 0
BBX 16 28 3 0
BITMAP
E000
E000
E000
E000
E000
E000
E000
E000
E000
E01E
E03C
E078
E0F0
E1E0
E3C0
E780
EF00
FE00
FE00
EF00
E780
E3C0
E1E0
E0F0
E078
E03C
E01E
E00F
ENDCHAR
STARTCHAR g78
ENCODING 108
SWIDTH 222 0
DWIDTH 8 0
BBX 3 28 3 0
BITMAP
E0
E0
E0
E0
E0
E0
E0
E0
E0
E0
E0
E0
E0
E0
E0
E0
E0
E0
E0
E0
E0
E0
E0
E0
E0
E0
E0
E0
ENDCHAR
STARTCHAR g79
ENCODING 109
SWIDTH 889 0
DWIDTH 32 0
BBX 27 20 3 0
BITMAP
E3F01E00
E7F87F80
EFFCFFC0
FC3FC3C0
F81F81E0
F01F01E0
F00F01E0
E00E00E0
E00E00E0
E00E00E0
E00E00E0
E00E00E0
E00E00E0
E00E00E0
E00E00E0
E00E00E0
E00E00E0
E00E00E0
E00E00E0
E00E00E0
ENDCHAR
STARTCHAR g80
ENCODING 110
SWIDTH 583 0
DWIDTH 21 0
BBX 16 20 3 0
BITMAP
E1F0
E7FC
EFFE
FC3E
F80E
F00F
F00F
E00F
E00F
E00F
E00F
E00F
E00F
E00F
E00F
E00F
E00F
E00F
E00F
E00F
ENDCHAR
STARTCHAR g81
ENCODING 111
SWIDTH 611 0
DWIDTH 22 0
BBX 18 21 2 -1
BITMAP
03F000
0FFC00
1FFE00
3E1F00
780780
700780
F003C0
E003C0
E001C0
E001C0
E001C0
E001C0
E001C0
E003C0
F003C0
700780
780780
3E1F00
1FFE00
0FFC00
03F000
ENDCHAR
STARTCHAR g82
ENCODING 112
SWIDTH 611 0
DWIDTH 22 0
BBX 18 28 2 -8
BITMAP
F1F800
F3FC00
F61F00
FC0700
F80780
F00380
F003C0
F003C0
F001C0
F001C0
F001C0
F001C0
F003C0
F003C0
F003C0
F80780
FC0780
FE1F00
F7FE00
F7FC00
F1F800
F00000
F00000
F00000
F00000
F00000
F00000
F00000
ENDCHAR
STARTCHAR g83
ENCODING 113
SWIDTH 611 0
DWIDTH 22 0
BBX 17 28 2 -8
BITMAP
07E380
1FF380
3FFB80
3C1F80
780F80
700780
F00780
E00380
E00380
E00380
E00380
E00380
E00380
E00380
F00780
F00780
780F80
7C1F80
3FFB80
1FF380
07C380
000380
000380
000380
000380
000380
000380
000380
ENDCHAR
STARTCHAR g84
ENCODING 114
SWIDTH 389 0
DWIDTH 14 0
BBX 11 20 3 0
BITMAP
E1E0
E7E0
EFE0
FC20
F800
F000
E000
E000
E000
E000
E000
E000
E000
E000
E000
E000
E000
E000
E000
E000
ENDCHAR
STARTCHAR g85
ENCODING 115
SWIDTH 500 0
DWIDTH 18 0
BBX 16 21 1 -1
BITMAP
07F0
1FFC
3FFC
3C1E
780E
7000
7000
7800
3F00
1FE0
07FC
00FE
001E
000F
000F
F00F
700E
783E
3FFC
1FF8
07E0
ENDCHAR
STARTCHAR g86
ENCODING 116
SWIDTH 444 0
DWIDTH 16 0
BBX 14 25 1 -1
BITMAP
0E00
0E00
0E00
0E00
FFF8
FFF8
FFF8
0E00
0E00
0E00
0E00
0E00
0E00
0E00
0E00
0E00
0E00
0E00
0E00
0E00
0F00
0F8C
07FC
03FC
01F8
ENDCHAR
STARTCHAR g87
ENCODING 117
SWIDTH 583 0
DWIDTH 21 0
BBX 17 21 2 -1
BITMAP
F00780
F00780
F00780
F00780
F00780
F00780
F00780
F00780
F00780
F00780
F00780
F00780
F00780
F00780
F00F80
F00F80
F01F80
783F80
7FF780
3FE780
0F8000
ENDCHAR
STARTCHAR g88
ENCODING 118
SWIDTH 556 0
DWIDTH 20 0
BBX 20 20 0 0
BITMAP
F000F0
7800E0
7800E0
3801C0
3C01C0
1C03C0
1C0380
1E0380
0E0700
0F0700
070F00
070E00
078E00
039C00
03DC00
01FC00
01F800
01F800
00F000
00F000
ENDCHAR
STARTCHAR g89
ENCODING 119
SWIDTH 778 0
DWIDTH 28 0
BBX 27 20 1 0
BITMAP
E01E01E0
E01E01C0
F01E01C0
703F03C0
703F0380
78370380
78738380
38738700
38738700
3C63C700
3CE1CF00
1CE1CE00
1CE1EE00
1EC0EE00
0FC0EC00
0FC0FC00
0F807C00
0F807C00
07807800
07807800
ENDCHAR
STARTCHAR g90
ENCODING 120
SWIDTH 528 0
DWIDTH 19 0
BBX 17 20 1 0
BITMAP
F00780
780F00
3C0E00
1C1C00
1E3C00
0F3800
077000
07F000
03E000
01C000
03E000
03F000
07F000
0F7800
0E7C00
1E3C00
3C1E00
380F00
700F00
F00780
ENDCHAR
STARTCHAR g91
ENCODING 121
SWIDTH 583 0
DWIDTH 21 0
BBX 19 28 1 -8
BITMAP
E000E0
F001E0
7001C0
7803C0
380380
3C0380
3C0780
1C0700
1E0F00
0E0E00
0F0E00
071C00
079C00
07BC00
03F800
03F800
01F000
01F000
00F000
00E000
01E000
01C000
01C000
038000
078000
FF0000
FE0000
FC0000
ENDCHAR
STARTCHAR g92
ENCODING 122
SWIDTH 556 0
DWIDTH 20 0
BBX 16 20 2 0
BITMAP
FFFF
FFFF
FFFF
001E
003C
0078
0078
00F0
01E0
03C0
0780
0780
0F00
1E00
3C00
7C00
7800
FFFF
FFFF
FFFF
ENDCHAR
STARTCHAR g93
ENCODING 123
SWIDTH 444 0
DWIDTH 16 0
BBX 8 36 4 -7
BITMAP
07
0F
1F
1C
38
38
38
3C
1C
1C
1C
1C
1C
1C
1C
1C
38
F0
F0
38
1C
1C
1C
1C
1C
1C
1C
1C
3C
38
38
38
1C
1F
0F
07
ENDCHAR
STARTCHAR g94
ENCODING 124
SWIDTH 250 0
DWIDTH 9 0
BBX 3 29 3 -1
BITMAP
E0
E0
E0
E0
E0
E0
E0
E0
E0
E0
E0
E0
E0
E0
E0
E0
E0
E0
E0
E0
E0
E0
E0
E0
E0
E0
E0
E0
E0
ENDCHAR
STARTCHAR g95
ENCODING 125
SWIDTH 444 0
DWIDTH 16 0
BBX 9 36 4 -7
BITMAP
E000
F000
F800
3C00
1C00
1C00
1C00
1C00
1C00
3800
3800
3800
3800
3800
3800
1800
1E00
0F80
0F80
1E00
1800
3800
3800
3800
3800
3800
3800
1C00
1C00
1C00
1C00
1C00
3C00
F800
F000
E000
ENDCHAR
STARTCHAR g96
ENCODING 126
SWIDTH 667 0
DWIDTH 24 0
BBX 20 6 2 7
BITMAP
1F0030
3FC030
71E070
E078E0
C03FC0
C00F80
ENDCHAR
STARTCHAR g97
ENCODING 127
SWIDTH 667 0
DWIDTH 24 0
BBX 0 0 0 0
BITMAP
ENDCHAR
STARTCHAR g98
ENCODING 161
SWIDTH 306 0
DWIDTH 11 0
BBX 3 28 4 -8
BITMAP
E0
E0
E0
E0
00
00
00
E0
E0
E0
E0
E0
E0
E0
E0
E0
E0
E0
E0
E0
E0
E0
E0
E0
E0
E0
E0
E0
ENDCHAR
STARTCHAR g99
ENCODING 162
SWIDTH 667 0
DWIDTH 24 0
BBX 17 27 3 0
BITMAP
00E000
00E000
00E000
01F800
0FFE00
1FFF00
3EEF80
38E780
78E000
70E000
70E000
F0E000
F0E000
F0E000
F0E000
F0E000
70E000
70E000
78E780
3CE780
3EEF00
1FFE00
0FFC00
01E000
00E000
00E000
00E000
ENDCHAR
STARTCHAR g100
ENCODING 163
SWIDTH 667 0
DWIDTH 24 0
BBX 17 28 3 0
BITMAP
001F00
007F80
00FF80
00F080
01E000
01C000
01C000
03C000
03C000
038000
038000
038000
7FFE00
7FFE00
7FFE00
070000
070000
0F0000
0F0000
0E0000
0E0000
1E0000
1C0000
380000
700000
FFFF80
FFFF80
FFFF80
ENDCHAR
STARTCHAR g101
ENCODING 164
SWIDTH 667 0
DWIDTH 24 0
BBX 22 21 1 3
BITMAP
200010
707838
FBFF7C
7FFFF8
3F87F0
1E01E0
1C00E0
180070
380070
380070
380070
380070
380070
380070
1C00E0
0E01C0
1F87E0
3FFFF0
7DFEF8
787878
300030
ENDCHAR
STARTCHAR g102
ENCODING 165
SWIDTH 667 0
DWIDTH 24 0
BBX 22 27 1 0
BITMAP
F0003C
780038
3C0070
1C00F0
1E00E0
0E01C0
0F01C0
078380
038380
03C700
01EE00
00EE00
00FC00
007C00
1FFFF0
1FFFF0
1FFFF0
003800
003800
003800
1FFFF0
1FFFF0
1FFFF0
003800
003800
003800
003800
ENDCHAR
STARTCHAR g103
ENCODING 167
SWIDTH 667 0
DWIDTH 24 0
BBX 19 35 2 -7
BITMAP
01FC00
0FFF00
1FFF80
3E07C0
3C01C0
380000
780000
380000
3C0000
3E0000
1F8000
0FE000
1FF800
3CFE00
383F80
380FC0
7803C0
3801E0
3C01E0
1F01E0
0FC1C0
07FBC0
01FF80
007F00
001F80
0007C0
0001C0
0001E0
F001E0
7001E0
7803C0
7E07C0
3FFF80
1FFF00
07FC00
ENDCHAR
STARTCHAR g104
ENCODING 168
SWIDTH 583 0
DWIDTH 21 0
BBX 11 3 5 23
BITMAP
E0E0
E0E0
E0E0
ENDCHAR
STARTCHAR g105
ENCODING 169
SWIDTH 889 0
DWIDTH 32 0
BBX 30 29 1 -1
BITMAP
001FE000
00FFF800
01E03E00
07800700
0E000380
1C0FE1C0
183FF8E0
387C1860
30700030
70E00030
60E00038
61C00018
E1C0001C
E1C0001C
E1C0001C
E1C0001C
E1C0001C
61E00018
60E00038
70F00030
307C1830
383FF860
181FF8E0
1C07E1C0
0E000380
07800700
01E03E00
00FFF800
001FE000
ENDCHAR
STARTCHAR g106
ENCODING 170
SWIDTH 333 0
DWIDTH 12 0
BBX 10 17 1 12
BITMAP
1F00
7F80
E1C0
C0C0
00C0
1FC0
7FC0
F0C0
C0C0
C0C0
C1C0
7FC0
3EC0
0000
0000
FFC0
FFC0
ENDCHAR
STARTCHAR g107
ENCODING 171
SWIDTH 528 0
DWIDTH 19 0
BBX 18 16 0 2
BITMAP
01C1C0
03C3C0
078780
0F0F00
1E1E00
3C3C00
787800
F0F000
F0F000
787800
3C3C00
1E1E00
0F0F00
078780
03C3C0
01C1C0
ENDCHAR
STARTCHAR g108
ENCODING 172
SWIDTH 667 0
DWIDTH 24 0
BBX 20 8 2 3
BITMAP
FFFFF0
FFFFF0
FFFFF0
000070
000070
000070
000070
000070
ENDCHAR
STARTCHAR g109
ENCODING 174
SWIDTH 889 0
DWIDTH 32 0
BBX 28 29 2 -1
BITMAP
003FC000
01FFF000
03C07C00
0F000E00
1C000700
38FF8380
30FFC1C0
70FFE0C0
60E1E060
E0E0E060
C0E0E070
C0E0E030
C0E0E030
C0E1C030
C0FF8030
C0FF8030
C0E38030
C0E1C030
C0E1C070
E0E0E060
60E0E060
70E070C0
30E079C0
38000380
1C000700
0F000E00
03C07C00
01FFF000
003FC000
ENDCHAR
STARTCHAR g110
ENCODING 175
SWIDTH 583 0
DWIDTH 21 0
BBX 10 2 6 23
BITMAP
FFC0
FFC0
ENDCHAR
STARTCHAR g111
ENCODING 176
SWIDTH 333 0
DWIDTH 12 0
BBX 10 9 1 19
BITMAP
1E00
3F00
6180
C0C0
C0C0
C0C0
6180
3F00
1E00
ENDCHAR
STARTCHAR g112
ENCODING 177
SWIDTH 667 0
DWIDTH 24 0
BBX 19 25 2 0
BITMAP
00E000
00E000
00E000
00E000
00E000
00E000
00E000
00E000
FFFFE0
FFFFE0
FFFFE0
00E000
00E000
00E000
00E000
00E000
00E000
00E000
00E000
00E000
000000
000000
FFFFE0
FFFFE0
FFFFE0
ENDCHAR
STARTCHAR g113
ENCODING 180
SWIDTH 583 0
DWIDTH 21 0
BBX 8 5 6 23
BITMAP
0F
1E
3C
78
F0
ENDCHAR
STARTCHAR g114
ENCODING 181
SWIDTH 583 0
DWIDTH 21 0
BBX 21 27 -1 -7
BITMAP
078038
070038
070038
070078
0F0078
0F0070
0E0070
0E0070
0E0070
0E00F0
1E00E0
1C00E0
1C00E0
1C01E0
1C01E0
3C03C0
3C07C0
3E1DC0
3FF9C0
3FF3C0
7BC000
700000
700000
700000
700000
F00000
E00000
ENDCHAR
STARTCHAR g115
ENCODING 182
SWIDTH 667 0
DWIDTH 24 0
BBX 21 34 2 -7
BITMAP
03FFF8
1FFFF8
3FF0F8
7FF0C0
7FF0C0
FFF0C0
FFF0C0
FFF0C0
FFF0C0
FFF0C0
FFF0C0
7FF0C0
3FF0C0
1FF0C0
0FF0C0
0070C0
0070C0
0070C0
0070C0
0070C0
0070C0
0070C0
0070C0
0070C0
0070C0
0070C0
0070C0
0070C0
0070C0
0070C0
0070C0
0070C0
0070C0
0070C0
ENDCHAR
STARTCHAR g116
ENCODING 183
SWIDTH 667 0
DWIDTH 24 0
BBX 4 4 10 8
BITMAP
F0
F0
F0
F0
ENDCHAR
STARTCHAR g117
ENCODING 184
SWIDTH 583 0
DWIDTH 21 0
BBX 6 8 8 -8
BITMAP
30
60
C0
F8
1C
1C
F8
F0
ENDCHAR
STARTCHAR g118
ENCODING 186
SWIDTH 361 0
DWIDTH 13 0
BBX 11 17 1 12
BITMAP
1F00
3F80
71C0
60C0
C060
C060
C060
C060
C060
60C0
71C0
3F80
1F00
0000
0000
FFE0
FFE0
ENDCHAR
STARTCHAR g119
ENCODING 187
SWIDTH 528 0
DWIDTH 19 0
BBX 18 16 1 2
BITMAP
E0E000
F0F000
787800
3C3C00
1E1E00
0F0F00
078780
03C3C0
03C3C0
078780
0F0F00
1E1E00
3C3C00
787800
F0F000
E0E000
ENDCHAR
STARTCHAR g120
ENCODING 191
SWIDTH 556 0
DWIDTH 20 0
BBX 15 28 3 -8
BITMAP
01C0
01C0
01C0
01C0
0000
0000
0000
01C0
01C0
01C0
01C0
01C0
01C0
0380
0780
0700
1F00
3E00
3C00
7800
7000
F000
F000
F00E
780E
3C1C
1FF8
07E0
ENDCHAR
STARTCHAR g121
ENCODING 192
SWIDTH 722 0
DWIDTH 26 0
BBX 25 33 1 0
BITMAP
00700000
00380000
001C0000
000E0000
00070000
00000000
00000000
003E0000
003E0000
007F0000
007F0000
00F78000
00E78000
00E78000
01C3C000
01C3C000
03C1C000
0381E000
0381E000
0700E000
0700F000
0F00F000
0E007800
1FFFF800
1FFFF800
1C003C00
38003C00
38001E00
78001E00
70000E00
70000F00
E0000F00
E0000780
ENDCHAR
STARTCHAR g122
ENCODING 193
SWIDTH 722 0
DWIDTH 26 0
BBX 25 33 1 0
BITMAP
0001C000
00038000
00070000
000E0000
001C0000
00000000
00000000
003E0000
003E0000
007F0000
007F0000
00F70000
00E78000
00E78000
01C3C000
01C3C000
03C1C000
0381E000
0381E000
0700E000
0700F000
0F00F000
0E007800
1FFFF800
1FFFF800
1C003C00
38003C00
38001E00
78001E00
70000E00
70000F00
E0000F00
E0000780
ENDCHAR
STARTCHAR g123
ENCODING 194
SWIDTH 722 0
DWIDTH 26 0
BBX 25 33 1 0
BITMAP
00080000
001C0000
003E0000
00770000
00E38000
01C1C000
00000000
003E0000
003E0000
007F0000
007F0000
00F70000
00E78000
00E78000
01C3C000
01C3C000
03C1C000
0381E000
0381E000
0700E000
0700F000
0F00F000
0E007800
1FFFF800
1FFFF800
1C003C00
38003C00
38001E00
78001E00
70000E00
70000F00
E0000F00
E0000780
ENDCHAR
STARTCHAR g124
ENCODING 195
SWIDTH 722 0
DWIDTH 26 0
BBX 25 33 1 0
BITMAP
00F0C000
01FCC000
019FC000
01878000
00000000
00000000
00000000
003E0000
003E0000
007F0000
007F0000
00F70000
00E78000
00E78000
01C3C000
01C3C000
03C1C000
0381E000
0381E000
0700E000
0700F000
0F00F000
0E007800
1FFFF800
1FFFF800
1C003C00
38003C00
38001E00
78001E00
70000E00
70000F00
E0000F00
E0000780
ENDCHAR
STARTCHAR g125
ENCODING 196
SWIDTH 722 0
DWIDTH 26 0
BBX 25 32 1 0
BITMAP
00E38000
00E38000
00E38000
00000000
00000000
001C0000
003E0000
003E0000
007F0000
007F0000
00F70000
00E78000
00E78000
01C3C000
01C3C000
03C1C000
0381E000
0381E000
0700E000
0700F000
0E00F000
0FFFF800
1FFFF800
1FFFF800
1C003C00
38003C00
38001E00
78001E00
70000E00
70000F00
E0000F00
E0000780
ENDCHAR
STARTCHAR g126
ENCODING 197
SWIDTH 722 0
DWIDTH 26 0
BBX 25 33 1 0
BITMAP
00080000
001C0000
00360000
00630000
00360000
001C0000
001C0000
003E0000
003E0000
007F0000
007F0000
00F70000
00E78000
00E78000
01C3C000
01C3C000
03C1C000
0381E000
0381E000
0700E000
0700F000
0F00F000
0FFFF800
1FFFF800
1FFFF800
1C003C00
38003C00
38001E00
78001E00
70000E00
70000F00
E0000F00
E0000780
ENDCHAR
STARTCHAR g127
ENCODING 198
SWIDTH 1000 0
DWIDTH 36 0
BBX 34 27 0 0
BITMAP
00007FFF80
00007FFF80
0000FFFF80
0001F80000
0001F80000
0003B80000
0007B80000
0007380000
000E380000
001E380000
001C380000
003C3FFF00
00783FFF00
00703FFF00
00F0380000
01E0380000
01E0380000
03FFF80000
03FFF80000
0700380000
0F00380000
0E00380000
1C00380000
3C00380000
38003FFFC0
78003FFFC0
F0003FFFC0
ENDCHAR
STARTCHAR g128
ENCODING 199
SWIDTH 639 0
DWIDTH 23 0
BBX 21 36 1 -8
BITMAP
007F00
03FFC0
07FFE0
0F81F0
1F0070
3E0078
3C0078
780000
780000
780000
700000
700000
F00000
F00000
F00000
F00000
F00000
700000
700000
780000
780000
780000
3C0038
3E0078
1F0070
0F81F0
07FFE0
01FFC0
007E00
003000
003800
007C00
000E00
000E00
007C00
007800
ENDCHAR
STARTCHAR g129
ENCODING 200
SWIDTH 583 0
DWIDTH 21 0
BBX 16 33 3 0
BITMAP
0E00
0700
0380
01C0
00E0
0000
FFFE
FFFE
FFFE
E000
E000
E000
E000
E000
E000
E000
E000
FFF8
FFF8
FFF8
E000
E000
E000
E000
E000
E000
E000
E000
E000
E000
FFFF
FFFF
FFFF
ENDCHAR
STARTCHAR g130
ENCODING 201
SWIDTH 583 0
DWIDTH 21 0
BBX 16 33 3 0
BITMAP
0078
00F0
01E0
03C0
0780
0000
FFFE
FFFE
FFFE
E000
E000
E000
E000
E000
E000
E000
E000
FFF8
FFF8
FFF8
E000
E000
E000
E000
E000
E000
E000
E000
E000
E000
FFFF
FFFF
FFFF
ENDCHAR
STARTCHAR g131
ENCODING 202
SWIDTH 583 0
DWIDTH 21 0
BBX 16 33 3 0
BITMAP
0180
03C0
07E0
0E70
1C38
0000
FFFE
FFFE
FFFE
E000
E000
E000
E000
E000
E000
E000
E000
FFF8
FFF8
FFF8
E000
E000
E000
E000
E000
E000
E000
E000
E000
E000
FFFF
FFFF
FFFF
ENDCHAR
STARTCHAR g132
ENCODING 203
SWIDTH 583 0
DWIDTH 21 0
BBX 16 32 3 0
BITMAP
0E38
0E38
0E38
0000
0000
FFFE
FFFE
FFFE
E000
E000
E000
E000
E000
E000
E000
E000
FFF8
FFF8
FFF8
E000
E000
E000
E000
E000
E000
E000
E000
E000
E000
FFFF
FFFF
FFFF
ENDCHAR
STARTCHAR g133
ENCODING 204
SWIDTH 250 0
DWIDTH 9 0
BBX 7 33 0 0
BITMAP
E0
70
38
1C
0E
00
1C
1C
1C
1C
1C
1C
1C
1C
1C
1C
1C
1C
1C
1C
1C
1C
1C
1C
1C
1C
1C
1C
1C
1C
1C
1C
1C
ENDCHAR
STARTCHAR g134
ENCODING 205
SWIDTH 250 0
DWIDTH 9 0
BBX 7 33 2 0
BITMAP
0E
1C
38
70
E0
00
70
70
70
70
70
70
70
70
70
70
70
70
70
70
70
70
70
70
70
70
70
70
70
70
70
70
70
ENDCHAR
STARTCHAR g135
ENCODING 206
SWIDTH 250 0
DWIDTH 9 0
BBX 11 33 -1 0
BITMAP
0400
0E00
1F00
3B80
71C0
E0E0
0E00
0E00
0E00
0E00
0E00
0E00
0E00
0E00
0E00
0E00
0E00
0E00
0E00
0E00
0E00
0E00
0E00
0E00
0E00
0E00
0E00
0E00
0E00
0E00
0E00
0E00
0E00
ENDCHAR
STARTCHAR g136
ENCODING 207
SWIDTH 250 0
DWIDTH 9 0
BBX 9 32 0 0
BITMAP
E380
E380
E380
0000
0000
1C00
1C00
1C00
1C00
1C00
1C00
1C00
1C00
1C00
1C00
1C00
1C00
1C00
1C00
1C00
1C00
1C00
1C00
1C00
1C00
1C00
1C00
1C00
1C00
1C00
1C00
1C00
ENDCHAR
STARTCHAR g137
ENCODING 209
SWIDTH 722 0
DWIDTH 26 0
BBX 20 32 3 0
BITMAP
03C300
07F300
067F00
061E00
000000
E00070
F00070
F80070
F80070
FC0070
FE0070
EE0070
EF0070
E78070
E78070
E3C070
E1E070
E1E070
E0F070
E07870
E07870
E03C70
E03E70
E01E70
E00F70
E00F70
E007F0
E003F0
E003F0
E001F0
E001F0
E000F0
ENDCHAR
STARTCHAR g138
ENCODING 210
SWIDTH 722 0
DWIDTH 26 0
BBX 24 34 1 -1
BITMAP
007000
003800
001C00
000E00
000000
007F00
01FFC0
07FFE0
0FC1F0
1F0078
1E007C
3C003C
3C001E
78001E
78001E
F0000F
F0000F
F0000F
F0000F
F0000F
F0000F
F0000F
F0000F
F0000F
78000E
78001E
3C001E
3C003C
1E007C
1F0078
0FC1F0
07FFE0
01FFC0
007F00
ENDCHAR
STARTCHAR g139
ENCODING 211
SWIDTH 722 0
DWIDTH 26 0
BBX 23 34 2 -1
BITMAP
000E00
001C00
003800
007000
000000
00FE00
03FF80
07FFC0
0F83E0
1E00F0
3E00F8
3C0078
78003C
78003C
78003C
F0001E
F0001E
F0001E
F0001E
F0001E
F0001E
F0001E
F0001E
F0001E
70001C
78003C
78003C
3C0078
3E00F8
1E00F0
0F83E0
07FFC0
03FF80
00FE00
ENDCHAR
STARTCHAR g140
ENCODING 212
SWIDTH 722 0
DWIDTH 26 0
BBX 23 34 2 -1
BITMAP
003800
007C00
00EE00
01C700
000000
00FE00
03FF80
07FFC0
0F83E0
1E00F0
3E00F8
3C0078
78003C
78003C
78003C
F0001E
F0001E
F0001E
F0001E
F0001E
F0001E
F0001E
F0001E
F0001E
70001C
78003C
78003C
3C0078
3E00F8
1E00F0
0F83E0
07FFC0
03FF80
00FE00
ENDCHAR
STARTCHAR g141
ENCODING 213
SWIDTH 722 0
DWIDTH 26 0
BBX 23 34 2 -1
BITMAP
01E180
03F980
033F80
030F00
000000
00FE00
03FF80
0FFFC0
1F83E0
3E00F0
3C00F8
780078
78003C
F0003C
F0003C
F0001E
F0001E
E0001E
E0001E
E0001E
E0001E
E0001E
F0001E
F0001E
F0001C
F0003C
78003C
780078
3C00F8
3E00F0
1F83E0
0FFFC0
03FF80
00FE00
ENDCHAR
STARTCHAR g142
ENCODING 214
SWIDTH 722 0
DWIDTH 26 0
BBX 24 34 1 -1
BITMAP
00E1C0
00E1C0
00E1C0
000000
000000
007F00
01FFC0
07FFE0
0FC1F0
1F0078
1E007C
3C003C
3C001E
78001E
78001E
F8000F
F8000F
F0000F
F0000F
F0000F
F0000F
F0000F
F8000F
F8000F
78000E
78001E
3C001E
3C003C
1E007C
1F0078
0FC1F0
07FFE0
01FFC0
007F00
ENDCHAR
STARTCHAR g143
ENCODING 216
SWIDTH 722 0
DWIDTH 26 0
BBX 23 29 2 -1
BITMAP
00FE1E
03FFBC
0FFFF8
1F03F0
3E00F0
3C00F8
7801F8
7003BC
F003BC
F0071C
F00E1C
E01E1E
E01C1E
E0381E
E0781E
E0701E
E0E01E
E1E01E
F3C01E
F3803C
F7803C
7F003C
7E0078
3C0078
3E00F0
3F83E0
7FFFC0
77FF80
E0FE00
ENDCHAR
STARTCHAR g144
ENCODING 217
SWIDTH 667 0
DWIDTH 24 0
BBX 20 34 2 -1
BITMAP
038000
01C000
00E000
007000
003800
000000
F000F0
F000F0
F000F0
F000F0
F000F0
F000F0
F000F0
F000F0
F000F0
F000F0
F000F0
F000F0
F000F0
F000F0
F000F0
F000F0
F000F0
F000F0
F000F0
F000F0
F000F0
F000F0
7801E0
7801E0
3E07C0
1FFF80
0FFF00
03FC00
ENDCHAR
STARTCHAR g145
ENCODING 218
SWIDTH 667 0
DWIDTH 24 0
BBX 20 34 2 -1
BITMAP
001C00
003800
007000
00E000
01C000
000000
F000F0
F000F0
F000F0
F000F0
F000F0
F000F0
F000F0
F000F0
F000F0
F000F0
F000F0
F000F0
F000F0
F000F0
F000F0
F000F0
F000F0
F000F0
F000F0
F000F0
F000F0
F000F0
7801E0
7801E0
3E07C0
1FFF80
0FFF00
03FC00
ENDCHAR
STARTCHAR g146
ENCODING 219
SWIDTH 667 0
DWIDTH 24 0
BBX 20 34 2 -1
BITMAP
006000
00F000
01F800
039C00
070E00
000000
F000F0
F000F0
F000F0
F000F0
F000F0
F000F0
F000F0
F000F0
F000F0
F000F0
F000F0
F000F0
F000F0
F000F0
F000F0
F000F0
F000F0
F000F0
F000F0
F000F0
F000F0
F000F0
7801E0
7801E0
3E07C0
1FFF80
0FFF00
03FC00
ENDCHAR
STARTCHAR g147
ENCODING 220
SWIDTH 667 0
DWIDTH 24 0
BBX 20 33 2 -1
BITMAP
070E00
070E00
070E00
000000
000000
F000F0
F000F0
F000F0
F000F0
F000F0
F000F0
F000F0
F000F0
F000F0
F000F0
F000F0
F000F0
F000F0
F000F0
F000F0
F000F0
F000F0
F000F0
F000F0
F000F0
F000F0
F000F0
7801E0
7801E0
3E07C0
1FFF80
0FFF00
03FC00
ENDCHAR
STARTCHAR g148
ENCODING 223
SWIDTH 583 0
DWIDTH 21 0
BBX 17 29 3 -1
BITMAP
0FC000
3FF000
787800
F03800
E03800
E03800
E07800
E0F000
E0F000
E1E000
E3C000
E38000
E78000
E78000
E3C000
E1E000
E0F800
E07C00
E03E00
E01F00
E00700
E00780
E00380
E00380
E00380
E30780
E3FF00
E3FE00
01FC00
ENDCHAR
STARTCHAR g149
ENCODING 224
SWIDTH 556 0
DWIDTH 20 0
BBX 16 29 2 -1
BITMAP
0700
0380
01C0
00E0
0070
0000
0000
0000
07E0
1FFC
3C3E
780E
F00E
F00E
000E
000E
00FE
07FE
1FCE
3E0E
780E
F00E
F00E
F01E
F03F
F87F
7FEF
3FC7
1F00
ENDCHAR
STARTCHAR g150
ENCODING 225
SWIDTH 556 0
DWIDTH 20 0
BBX 16 29 2 -1
BITMAP
0070
00E0
01C0
0380
0700
0000
0000
0000
07E0
1FFC
3C3E
780E
F00E
F00E
000E
000E
00FE
07FE
1FCE
3E0E
780E
F00E
F00E
F01E
F03F
F87F
7FEF
3FC7
1F00
ENDCHAR
STARTCHAR g151
ENCODING 226
SWIDTH 556 0
DWIDTH 20 0
BBX 15 29 2 -1
BITMAP
0180
03C0
07E0
0E70
1C38
0000
0000
0000
07E0
1FFC
3C3E
780E
F00E
F00E
000E
000E
00FE
07FE
1FCE
3E0E
780E
F00E
F00E
F01E
F03E
F87E
7FEE
3FCE
1F00
ENDCHAR
STARTCHAR g152
ENCODING 227
SWIDTH 556 0
DWIDTH 20 0
BBX 16 28 2 -1
BITMAP
0F0C
1FCC
19FC
1878
0000
0000
0000
07E0
1FFC
3C3E
780E
F00E
F00E
000E
000E
00FE
07FE
1FCE
3E0E
780E
F00E
F00E
F01E
F03F
F87F
7FEF
3FC7
1F00
ENDCHAR
STARTCHAR g153
ENCODING 228
SWIDTH 556 0
DWIDTH 20 0
BBX 16 27 2 -1
BITMAP
1C38
1C38
1C38
0000
0000
0000
07E0
1FFC
3C3E
780E
F00E
F00E
000E
000E
00FE
07FE
1FCE
3E0E
780E
F00E
F00E
F01E
F03F
F87F
7FEF
3FC7
1F00
ENDCHAR
STARTCHAR g154
ENCODING 229
SWIDTH 556 0
DWIDTH 20 0
BBX 16 30 2 -1
BITMAP
01C0
03E0
0630
0630
0630
03E0
01C0
0000
0000
07E0
1FFC
3C3E
780E
F00E
F00E
000E
000E
00FE
07FE
1FCE
3E0E
780E
F00E
F00E
F01E
F03F
F87F
7FEF
3FC7
1F00
ENDCHAR
STARTCHAR g155
ENCODING 230
SWIDTH 917 0
DWIDTH 33 0
BBX 30 21 2 -1
BITMAP
07E03F00
1FFCFFC0
3C3FFFE0
780FE0F0
F00FC078
F0078038
0007003C
000F003C
007FFFFC
07FFFFFC
1FE7FFFC
3E070000
780F0000
F00F0000
F00F0000
F01F801C
F03FC03C
F879E0F8
7FF0FFF0
3FE07FE0
1F801F80
ENDCHAR
STARTCHAR g156
ENCODING 231
SWIDTH 556 0
DWIDTH 20 0
BBX 17 28 1 -8
BITMAP
03F800
0FFE00
1FFF00
3E0780
3C0380
780380
780000
F00000
F00000
F00000
F00000
F00000
F00000
700000
780000
380380
3C0780
1E0F00
0FFF00
07FC00
00F000
00C000
01C000
00E000
003000
003000
03F000
01E000
ENDCHAR
STARTCHAR g157
ENCODING 232
SWIDTH 583 0
DWIDTH 21 0
BBX 17 29 2 -1
BITMAP
070000
038000
01C000
00E000
007000
000000
000000
000000
03F000
0FFC00
1FFE00
3E1F00
780700
700780
700380
E00380
FFFF80
FFFF80
FFFF80
E00000
E00000
F00000
F00000
780380
780780
3E0F00
1FFF00
0FFC00
03F800
ENDCHAR
STARTCHAR g158
ENCODING 233
SWIDTH 583 0
DWIDTH 21 0
BBX 17 29 2 -1
BITMAP
003800
007000
00E000
01C000
038000
000000
000000
000000
03F000
0FFC00
1FFE00
3E1F00
780700
700780
F00380
E00380
FFFF80
FFFF80
FFFF80
E00000
E00000
F00000
F00000
780380
780780
3E0F00
1FFF00
0FFC00
03F800
ENDCHAR
STARTCHAR g159
ENCODING 234
SWIDTH 583 0
DWIDTH 21 0
BBX 17 29 2 -1
BITMAP
01C000
03E000
077000
0E3800
1C1C00
000000
000000
000000
03F000
0FFC00
1FFE00
3E1F00
780700
700780
700380
E00380
FFFF80
FFFF80
FFFF80
E00000
E00000
F00000
F00000
780380
780780
3E0F00
1FFF00
0FFC00
03F800
ENDCHAR
STARTCHAR g160
ENCODING 235
SWIDTH 583 0
DWIDTH 21 0
BBX 17 27 2 -1
BITMAP
1C1C00
1C1C00
1C1C00
000000
000000
000000
03F000
0FFC00
1FFE00
3E1F00
780700
700780
700380
E00380
FFFF80
FFFF80
FFFF80
E00000
E00000
F00000
F00000
780380
780780
3E0F00
1FFF00
0FFC00
03F800
ENDCHAR
STARTCHAR g161
ENCODING 236
SWIDTH 222 0
DWIDTH 8 0
BBX 7 28 1 0
BITMAP
E0
70
38
1C
0E
00
00
00
38
38
38
38
38
38
38
38
38
38
38
38
38
38
38
38
38
38
38
38
ENDCHAR
STARTCHAR g162
ENCODING 237
SWIDTH 222 0
DWIDTH 8 0
BBX 7 28 1 0
BITMAP
0E
1C
38
70
E0
00
00
00
38
38
38
38
38
38
38
38
38
38
38
38
38
38
38
38
38
38
38
38
ENDCHAR
STARTCHAR g163
ENCODING 238
SWIDTH 250 0
DWIDTH 9 0
BBX 11 28 -1 0
BITMAP
0E00
1F00
3B80
71C0
E0E0
0000
0000
0000
0E00
0E00
0E00
0E00
0E00
0E00
0E00
0E00
0E00
0E00
0E00
0E00
0E00
0E00
0E00
0E00
0E00
0E00
0E00
0E00
ENDCHAR
STARTCHAR g164
ENCODING 239
SWIDTH 222 0
DWIDTH 8 0
BBX 10 26 -1 0
BITMAP
E1C0
E1C0
E1C0
0000
0000
0000
0E00
0E00
0E00
0E00
0E00
0E00
0E00
0E00
0E00
0E00
0E00
0E00
0E00
0E00
0E00
0E00
0E00
0E00
0E00
0E00
ENDCHAR
STARTCHAR g165
ENCODING 241
SWIDTH 583 0
DWIDTH 21 0
BBX 17 27 2 0
BITMAP
0F0C00
1FCC00
18FC00
187800
000000
000000
000000
F0F800
F3FE00
F7FF00
FE1F00
FC0700
F80780
F80780
F00780
F00780
F00780
F00780
F00780
F00780
F00780
F00780
F00780
F00780
F00780
F00780
F00780
ENDCHAR
STARTCHAR g166
ENCODING 242
SWIDTH 611 0
DWIDTH 22 0
BBX 18 29 2 -1
BITMAP
070000
038000
01C000
00E000
007000
000000
000000
000000
03F000
0FFC00
1FFE00
3E1F00
780780
700780
F003C0
E003C0
E001C0
E001C0
E001C0
E001C0
E001C0
E003C0
F003C0
700780
780780
3E1F00
1FFE00
0FFC00
03F000
ENDCHAR
STARTCHAR g167
ENCODING 243
SWIDTH 611 0
DWIDTH 22 0
BBX 18 29 2 -1
BITMAP
003800
007000
00E000
01C000
038000
000000
000000
000000
03F000
0FFC00
1FFE00
3E1F00
780780
700780
F003C0
E003C0
E001C0
E001C0
E001C0
E001C0
E001C0
E003C0
F003C0
700780
780780
3E1F00
1FFE00
0FFC00
03F000
ENDCHAR
STARTCHAR g168
ENCODING 244
SWIDTH 611 0
DWIDTH 22 0
BBX 18 29 2 -1
BITMAP
00C000
01E000
03F000
073800
0E1C00
000000
000000
000000
03F000
0FFC00
1FFE00
3E1F00
780780
700780
F003C0
E003C0
E001C0
E001C0
E001C0
E001C0
E001C0
E003C0
F003C0
700780
780780
3E1F00
1FFE00
0FFC00
03F000
ENDCHAR
STARTCHAR g169
ENCODING 245
SWIDTH 611 0
DWIDTH 22 0
BBX 18 28 2 -1
BITMAP
078600
0FE600
0CFE00
0C3C00
000000
000000
000000
03F000
0FFC00
1FFE00
3E1F00
780780
700780
F003C0
E003C0
E001C0
E001C0
E001C0
E001C0
E001C0
E003C0
F003C0
700780
780780
3E1F00
1FFE00
0FFC00
03F000
ENDCHAR
STARTCHAR g170
ENCODING 246
SWIDTH 611 0
DWIDTH 22 0
BBX 18 27 2 -1
BITMAP
0E1C00
0E1C00
0E1C00
000000
000000
000000
03F000
0FFC00
1FFE00
3E1F00
780780
700780
F003C0
E003C0
E001C0
E001C0
E001C0
E001C0
E001C0
E003C0
F003C0
700780
780780
3E1F00
1FFE00
0FFC00
03F000
ENDCHAR
STARTCHAR g171
ENCODING 247
SWIDTH 667 0
DWIDTH 24 0
BBX 20 15 2 2
BITMAP
00F000
00F000
00F000
000000
000000
000000
FFFFF0
FFFFF0
FFFFF0
000000
000000
000000
00F000
00F000
00F000
ENDCHAR
STARTCHAR g172
ENCODING 248
SWIDTH 611 0
DWIDTH 22 0
BBX 18 21 2 -1
BITMAP
03F9C0
0FFF80
1FFF00
3E1F00
780F80
701F80
F03BC0
E03BC0
E071C0
E0E1C0
E1C1C0
E1C1C0
E381C0
E703C0
FE03C0
FE0780
7C0780
3E1F00
3FFE00
77FC00
E3F000
ENDCHAR
STARTCHAR g173
ENCODING 249
SWIDTH 583 0
DWIDTH 21 0
BBX 17 29 2 -1
BITMAP
0E0000
070000
038000
01C000
00E000
000000
000000
000000
F00780
F00780
F00780
F00780
F00780
F00780
F00780
F00780
F00780
F00780
F00780
F00780
F00780
F00F80
F00F80
F01F80
F03F80
F87F80
7FF780
3FE780
0F8000
ENDCHAR
STARTCHAR g174
ENCODING 250
SWIDTH 583 0
DWIDTH 21 0
BBX 17 29 2 -1
BITMAP
003800
007000
00E000
01C000
038000
000000
000000
000000
F00780
F00780
F00780
F00780
F00780
F00780
F00780
F00780
F00780
F00780
F00780
F00780
F00780
F00F80
F00F80
F01F80
F03F80
F87F80
7FF780
3FE780
0F8000
ENDCHAR
STARTCHAR g175
ENCODING 251
SWIDTH 583 0
DWIDTH 21 0
BBX 17 29 2 -1
BITMAP
01C000
03E000
077000
0E3800
1C1C00
000000
000000
000000
F00780
F00780
F00780
F00780
F00780
F00780
F00780
F00780
F00780
F00780
F00780
F00780
F00780
F00F80
F00F80
F01F80
F03F80
F87F80
7FF780
3FE780
0F8000
ENDCHAR
STARTCHAR g176
ENCODING 252
SWIDTH 583 0
DWIDTH 21 0
BBX 17 27 2 -1
BITMAP
1C1C00
1C1C00
1C1C00
000000
000000
000000
F00780
F00780
F00780
F00780
F00780
F00780
F00780
F00780
F00780
F00780
F00780
F00780
F00780
F00F80
F00F80
F01F80
F03F80
787F80
7FF780
3FE780
0F8000
ENDCHAR
STARTCHAR g177
ENCODING 255
SWIDTH 583 0
DWIDTH 21 0
BBX 19 34 1 -8
BITMAP
0E0E00
0E0E00
0E0E00
000000
000000
000000
E000E0
F001E0
7001C0
7803C0
380380
3C0380
3C0780
1C0700
1E0F00
0E0E00
0F0E00
071C00
079C00
07BC00
03F800
03F800
01F000
01F000
00F000
00E000
01E000
01C000
01C000
038000
078000
FF0000
FE0000
FC0000
ENDCHAR
STARTCHAR g178
ENCODING 305
SWIDTH 222 0
DWIDTH 8 0
BBX 3 20 3 0
BITMAP
E0
E0
E0
E0
E0
E0
E0
E0
E0
E0
E0
E0
E0
E0
E0
E0
E0
E0
E0
E0
ENDCHAR
STARTCHAR g179
ENCODING 338
SWIDTH 1083 0
DWIDTH 39 0
BBX 37 29 1 -1
BITMAP
007F000000
01FFCFFFF0
07FFEFFFF0
0FC1FFFFF0
1F007F0000
1E003F0000
3C003F0000
3C001F0000
78001F0000
78000F0000
78000F0000
F0000F0000
F0000FFFC0
F0000FFFC0
F0000FFFC0
F0000F0000
F0000F0000
F0000F0000
78000F0000
78000F0000
78001F0000
3C001F0000
3C003F0000
1E003F0000
1F007F0000
0FC1FFFFF8
07FFEFFFF8
01FFCFFFF8
007F000000
ENDCHAR
STARTCHAR g180
ENCODING 339
SWIDTH 1000 0
DWIDTH 36 0
BBX 33 21 1 -1
BITMAP
01F803F000
07FE0FFC00
0FFF1FFE00
1F0FBE1F00
3C03F80700
7803F00700
7801F00380
7001E00380
F000FFFF80
F000FFFF80
F000FFFF80
F000E00000
F000E00000
7001E00000
7801F00000
7803F00380
3C03F80780
1F0FBE0F00
0FFF1FFE00
07FE0FFC00
01F803F000
ENDCHAR
STARTCHAR g181
ENCODING 376
SWIDTH 611 0
DWIDTH 22 0
BBX 22 31 0 0
BITMAP
038380
038380
038380
000000
F8003C
780078
3C0070
1E00E0
1E01E0
0F01C0
0F83C0
078380
03C700
03CF00
01EE00
00FC00
00FC00
007800
007800
007800
007800
007800
007800
007800
007800
007800
007800
007800
007800
007800
007800
ENDCHAR
STARTCHAR g182
ENCODING 402
SWIDTH 667 0
DWIDTH 24 0
BBX 16 35 5 -7
BITMAP
003F
00FF
01FF
01C0
0380
0380
0380
0700
0700
0700
3FF8
3FF8
3FF8
0E00
0E00
0E00
0E00
1C00
1C00
1C00
1C00
3C00
3C00
3800
3800
3800
7800
7800
7000
7000
7000
F000
F000
E000
E000
ENDCHAR
STARTCHAR g183
ENCODING 710
SWIDTH 583 0
DWIDTH 21 0
BBX 11 5 5 23
BITMAP
0E00
1F00
3B80
71C0
E0E0
ENDCHAR
STARTCHAR g184
ENCODING 711
SWIDTH 583 0
DWIDTH 21 0
BBX 11 5 5 23
BITMAP
E0E0
71C0
3B80
1F00
0E00
ENDCHAR
STARTCHAR g185
ENCODING 728
SWIDTH 583 0
DWIDTH 21 0
BBX 11 5 5 23
BITMAP
C060
E0E0
71C0
3F80
0E00
ENDCHAR
STARTCHAR g186
ENCODING 729
SWIDTH 583 0
DWIDTH 21 0
BBX 3 3 9 23
BITMAP
E0
E0
E0
ENDCHAR
STARTCHAR g187
ENCODING 730
SWIDTH 583 0
DWIDTH 21 0
BBX 7 7 7 22
BITMAP
38
7C
C6
C6
C6
7C
38
ENDCHAR
STARTCHAR g188
ENCODING 731
SWIDTH 583 0
DWIDTH 21 0
BBX 8 8 7 -8
BITMAP
1C
38
70
E0
E0
73
3E
1C
ENDCHAR
STARTCHAR g189
ENCODING 732
SWIDTH 583 0
DWIDTH 21 0
BBX 11 4 5 23
BITMAP
7860
FE60
CFE0
C3C0
ENDCHAR
STARTCHAR g190
ENCODING 733
SWIDTH 583 0
DWIDTH 21 0
BBX 10 5 7 23
BITMAP
39C0
3180
6300
6300
C600
ENDCHAR
STARTCHAR g191
ENCODING 960
SWIDTH 694 0
DWIDTH 25 0
BBX 22 20 1 0
BITMAP
3FFFFC
FFFFFC
FFFFFC
CE00E0
0E00E0
0E00E0
0E00E0
0E00E0
0E00E0
0E00E0
0E00E0
0E00E0
0E00E0
0E00E0
0E00E0
0E00E0
0E00E0
0E00F0
0E0070
0E0070
ENDCHAR
STARTCHAR g192
ENCODING 8211
SWIDTH 528 0
DWIDTH 19 0
BBX 16 3 1 9
BITMAP
FFFF
FFFF
FFFF
ENDCHAR
STARTCHAR g193
ENCODING 8212
SWIDTH 1028 0
DWIDTH 37 0
BBX 35 3 1 9
BITMAP
FFFFFFFFE0
FFFFFFFFE0
FFFFFFFFE0
ENDCHAR
STARTCHAR g194
ENCODING 8216
SWIDTH 306 0
DWIDTH 11 0
BBX 5 11 3 18
BITMAP
18
38
70
60
E0
E0
F8
F8
F8
F8
F8
ENDCHAR
STARTCHAR g195
ENCODING 8217
SWIDTH 306 0
DWIDTH 11 0
BBX 5 11 3 18
BITMAP
F8
F8
F8
F8
F8
38
38
30
70
E0
C0
ENDCHAR
STARTCHAR g196
ENCODING 8218
SWIDTH 306 0
DWIDTH 11 0
BBX 5 11 3 -6
BITMAP
F8
F8
F8
F8
F8
38
38
30
70
E0
C0
ENDCHAR
STARTCHAR g197
ENCODING 8220
SWIDTH 500 0
DWIDTH 18 0
BBX 12 11 3 17
BITMAP
1830
3870
70E0
60C0
E1C0
E1C0
F9F0
F9F0
F9F0
F9F0
F9F0
ENDCHAR
STARTCHAR g198
ENCODING 8221
SWIDTH 500 0
DWIDTH 18 0
BBX 12 11 3 17
BITMAP
F9F0
F9F0
F9F0
F9F0
F9F0
3870
3870
3060
70E0
E1C0
C180
ENDCHAR
STARTCHAR g199
ENCODING 8222
SWIDTH 500 0
DWIDTH 18 0
BBX 12 11 3 -6
BITMAP
F9F0
F9F0
F9F0
F9F0
F9F0
3870
3870
3060
70E0
E1C0
C180
ENDCHAR
STARTCHAR g200
ENCODING 8224
SWIDTH 667 0
DWIDTH 24 0
BBX 16 34 4 -7
BITMAP
03C0
03C0
03C0
03C0
03C0
03C0
03C0
FFFF
FFFF
FFFF
03C0
03C0
03C0
03C0
03C0
03C0
03C0
03C0
03C0
03C0
03C0
03C0
03C0
03C0
03C0
03C0
03C0
03C0
03C0
03C0
03C0
03C0
03C0
03C0
ENDCHAR
STARTCHAR g201
ENCODING 8225
SWIDTH 667 0
DWIDTH 24 0
BBX 16 33 4 -6
BITMAP
03C0
03C0
03C0
03C0
03C0
0180
F18F
FFFF
FFFF
FFFF
F18F
0180
0180
0180
0180
0180
0180
0180
0180
0180
0180
0180
0180
F18F
FFFF
FFFF
F18F
0180
03C0
03C0
03C0
03C0
03C0
ENDCHAR
STARTCHAR g202
ENCODING 8226
SWIDTH 667 0
DWIDTH 24 0
BBX 16 15 4 6
BITMAP
07E0
1FF8
3FFC
7FFE
7FFE
FFFF
FFFF
FFFF
FFFF
FFFF
7FFE
7FFE
3FFC
1FF8
07E0
ENDCHAR
STARTCHAR g203
ENCODING 8230
SWIDTH 1028 0
DWIDTH 37 0
BBX 29 5 4 0
BITMAP
F80F80F8
F80F80F8
F80F80F8
F80F80F8
F80F80F8
ENDCHAR
STARTCHAR g204
ENCODING 8240
SWIDTH 1306 0
DWIDTH 47 0
BBX 45 27 1 0
BITMAP
0F8001C00000
1FC003800000
38E007800000
707007000000
70700E000000
60301C000000
E0381C000000
E03838000000
E03870000000
E038F0000000
6030E0000000
7071C3E00F80
707387F01FC0
38E38E3838E0
1FC71C1C7070
0F8E1C1C7070
001E180C6030
001C380EE038
0038380EE038
0078380EE038
00F0380EE038
00E0180C6030
01C01C1C7070
03C01C1C7070
03800E3838E0
070007F01FC0
0F0003E00F80
ENDCHAR
STARTCHAR g205
ENCODING 8249
SWIDTH 306 0
DWIDTH 11 0
BBX 10 16 0 2
BITMAP
01C0
03C0
0780
0F00
1E00
3C00
7800
F000
F000
7800
3C00
1E00
0F00
0780
03C0
01C0
ENDCHAR
STARTCHAR g206
ENCODING 8250
SWIDTH 306 0
DWIDTH 11 0
BBX 10 16 1 2
BITMAP
E000
F000
7800
3C00
1E00
0F00
0780
03C0
03C0
0780
0F00
1E00
3C00
7800
F000
E000
ENDCHAR
STARTCHAR g207
ENCODING 8260
SWIDTH 417 0
DWIDTH 15 0
BBX 24 29 -4 -1
BITMAP
00000F
00000E
00001C
000038
000078
000070
0000E0
0001E0
0001C0
000380
000700
000F00
000E00
001C00
003C00
003800
007000
00E000
01E000
01C000
038000
078000
070000
0E0000
1E0000
3C0000
380000
700000
F00000
ENDCHAR
STARTCHAR g208
ENCODING 8482
SWIDTH 750 0
DWIDTH 27 0
BBX 25 13 1 14
BITMAP
FFF60380
FFF70380
06070380
06078780
06078780
0607CD80
0606CD80
0606CD80
06067980
06067980
06063180
06060180
06060180
ENDCHAR
STARTCHAR g209
ENCODING 8486
SWIDTH 806 0
DWIDTH 29 0
BBX 25 28 2 0
BITMAP
007F0000
03FFC000
07FFF000
0FC1F800
1F007C00
1E003C00
3C001E00
3C001E00
78000F00
78000F00
78000F00
78000F00
70000700
70000700
70000700
70000700
70000F00
78000F00
78000F00
38000E00
3C001E00
1C001C00
1E003C00
0F007800
0780F000
FF80FF80
FF80FF80
FF80FF80
ENDCHAR
STARTCHAR g210
ENCODING 8706
SWIDTH 639 0
DWIDTH 23 0
BBX 19 29 2 -1
BITMAP
078000
07F000
07FC00
003E00
000F00
000780
000380
0003C0
00FDC0
03FFE0
07FFE0
0F83E0
1E01E0
3C00E0
3800E0
7800E0
7000E0
7000E0
F000E0
F001E0
E001E0
F001C0
F003C0
F00780
780F00
7C3F00
3FFE00
1FF800
07E000
ENDCHAR
STARTCHAR g211
ENCODING 8710
SWIDTH 750 0
DWIDTH 27 0
BBX 25 27 1 0
BITMAP
001C0000
003E0000
003E0000
007F0000
00670000
00E78000
00E38000
01C3C000
01C3C000
0381E000
0381E000
0300F000
0700F000
07007000
0E007800
0E003800
1C003C00
1C003C00
38001E00
38001E00
38000F00
70000F00
70000780
E0000780
FFFFFF80
FFFFFF80
FFFFFF80
ENDCHAR
STARTCHAR g212
ENCODING 8719
SWIDTH 806 0
DWIDTH 29 0
BBX 27 34 1 -7
BITMAP
FFFFFFE0
FFFFFFE0
FFFFFFE0
0E000E00
0E000E00
0E000E00
0E000E00
0E000E00
0E000E00
0E000E00
0E000E00
0E000E00
0E000E00
0E000E00
0E000E00
0E000E00
0E000E00
0E000E00
0E000E00
0E000E00
0E000E00
0E000E00
0E000E00
0E000E00
0E000E00
0E000E00
0E000E00
0E000E00
0E000E00
0E000E00
0E000E00
0E000E00
0E000E00
0E000E00
ENDCHAR
STARTCHAR g213
ENCODING 8721
SWIDTH 611 0
DWIDTH 22 0
BBX 20 34 1 -7
BITMAP
7FFFE0
7FFFE0
7FFFE0
7C0000
3C0000
1E0000
1F0000
0F0000
078000
07C000
03C000
01E000
01F000
00F000
007800
007800
007800
00F000
00E000
01E000
01C000
038000
078000
070000
0F0000
1E0000
1C0000
3C0000
380000
780000
F00000
FFFFF0
FFFFF0
FFFFF0
ENDCHAR
STARTCHAR g214
ENCODING 8730
SWIDTH 889 0
DWIDTH 32 0
BBX 29 36 2 -7
BITMAP
00000038
00000038
00000038
00000070
00000070
00000060
000000E0
000000E0
000001C0
000001C0
000001C0
00000380
00000380
00000380
00000700
06000700
0E000700
3F000E00
FF000E00
F7800E00
47801C00
03C01C00
01C01C00
01E03800
00E03800
00F03800
00707000
00787000
00387000
003CE000
001EE000
001FE000
000FC000
000FC000
0007C000
00078000
ENDCHAR
STARTCHAR g215
ENCODING 8734
SWIDTH 667 0
DWIDTH 24 0
BBX 22 12 1 4
BITMAP
1E03E0
3F87F0
7FCE78
73FC3C
E0F81C
E0781C
E0781C
E07C1C
60FF38
71CFF8
3F83F0
1E01E0
ENDCHAR
STARTCHAR g216
ENCODING 8747
SWIDTH 528 0
DWIDTH 19 0
BBX 17 34 1 -6
BITMAP
001E00
007F00
00FF80
00E780
01C300
01C000
01C000
01C000
01C000
01C000
01C000
01C000
01C000
01C000
01C000
01C000
01C000
01C000
01C000
01C000
01C000
01C000
01C000
01C000
01C000
01C000
01C000
01C000
01C000
61C000
F38000
FF8000
7F0000
3C0000
ENDCHAR
STARTCHAR g217
ENCODING 8776
SWIDTH 667 0
DWIDTH 24 0
BBX 20 14 2 3
BITMAP
1F0000
3F8030
7FE070
61F860
E07FE0
C03FC0
000F80
1F0000
3F8030
7FE070
61F860
E07FE0
C03FC0
000F80
ENDCHAR
STARTCHAR g218
ENCODING 8800
SWIDTH 667 0
DWIDTH 24 0
BBX 20 15 2 2
BITMAP
0003C0
000780
000F00
FFFFF0
FFFFF0
FFFFF0
007800
00F000
01E000
FFFFF0
FFFFF0
FFFFF0
0F0000
1E0000
3C0000
ENDCHAR
STARTCHAR g219
ENCODING 8804
SWIDTH 667 0
DWIDTH 24 0
BBX 20 25 2 0
BITMAP
000010
000070
0001F0
0007E0
001F80
007E00
01F800
07E000
1F8000
7E0000
7E0000
1F8000
07E000
01F800
007E00
001F80
0007E0
0001F0
000070
000010
000000
000000
FFFFF0
FFFFF0
FFFFF0
ENDCHAR
STARTCHAR g220
ENCODING 8805
SWIDTH 667 0
DWIDTH 24 0
BBX 20 25 2 0
BITMAP
800000
E00000
F80000
7E0000
1F8000
07E000
01F800
007E00
001F80
0007E0
0007E0
001F80
007E00
01F800
07E000
1F8000
7E0000
F80000
E00000
800000
000000
000000
FFFFF0
FFFFF0
FFFFF0
ENDCHAR
STARTCHAR g221
ENCODING 9674
SWIDTH 667 0
DWIDTH 24 0
BBX 20 25 2 1
BITMAP
006000
00F000
01F800
01F800
039C00
070E00
060600
0E0700
1C0380
3801C0
3801C0
7000E0
F000F0
7801E0
3801C0
3C03C0
1E0780
0F0700
070E00
079E00
03FC00
01F800
01F800
00F000
006000
ENDCHAR
STARTCHAR g222
ENCODING 63252
SWIDTH 667 0
DWIDTH 24 0
BBX 20 29 2 -1
BITMAP
01F800
07FE00
0FFF00
1F0F80
3C03C0
3C03C0
7801E0
7801E0
7000E0
7000E0
F000F0
F000F0
F000F0
E0F070
E0F070
E0F070
F000F0
F000F0
F000F0
7000E0
7000E0
7801E0
7801E0
3C03C0
3C03C0
1F0F80
0FFF00
07FE00
01F800
ENDCHAR
STARTCHAR g223
ENCODING 63253
SWIDTH 278 0
DWIDTH 10 0
BBX 7 27 2 0
BITMAP
FE
FE
38
38
38
38
38
38
38
38
38
38
38
38
38
38
38
38
38
38
38
38
38
38
38
FE
FE
ENDCHAR
STARTCHAR g224
ENCODING 63254
SWIDTH 222 0
DWIDTH 8 0
BBX 4 28 2 0
BITMAP
F0
F0
F0
70
70
70
70
70
70
70
70
70
70
70
70
70
70
70
70
70
70
70
70
70
70
70
70
70
ENDCHAR
STARTCHAR g225
ENCODING 63487
SWIDTH 778 0
DWIDTH 28 0
BBX 0 0 0 0
BITMAP
ENDCHAR
STARTCHAR g226
ENCODING 64257
SWIDTH 611 0
DWIDTH 22 0
BBX 18 28 1 0
BITMAP
01F000
07F000
0FF000
0E0000
1E0000
1C0000
1C0000
1C0000
FFFFC0
FFFFC0
FFFFC0
1C01C0
1C01C0
1C01C0
1C01C0
1C01C0
1C01C0
1C01C0
1C01C0
1C01C0
1C01C0
1C01C0
1C01C0
1C01C0
1C01C0
1C01C0
1C01C0
1C01C0
ENDCHAR
STARTCHAR g227
ENCODING 64258
SWIDTH 611 0
DWIDTH 22 0
BBX 18 28 1 0
BITMAP
01FF80
07FFC0
07FFC0
0E01C0
0E01C0
1C01C0
1C01C0
1C01C0
FFF1C0
FFF1C0
FFF1C0
1C01C0
1C01C0
1C01C0
1C01C0
1C01C0
1C01C0
1C01C0
1C01C0
1C01C0
1C01C0
1C01C0
1C01C0
1C01C0
1C01C0
1C01C0
1C01C0
1C01C0
ENDCHAR
STARTCHAR g228
ENCODING 64512
SWIDTH 472 0
DWIDTH 17 0
BBX 16 24 0 0
BITMAP
FFFF
8001
8001
8001
8001
8001
8001
8001
8001
8001
8001
8001
8001
8001
8001
8001
8001
8001
8001
8001
8001
8001
8001
FFFF
ENDCHAR
STARTCHAR g229
ENCODING 64513
SWIDTH 472 0
DWIDTH 17 0
BBX 16 24 0 0
BITMAP
FFFF
8001
8001
8001
8001
8001
8001
8001
8001
8001
8001
8001
8001
8001
8001
8001
8001
8001
8001
8001
8001
8001
8001
FFFF
ENDCHAR
STARTCHAR g230
ENCODING 64514
SWIDTH 472 0
DWIDTH 17 0
BBX 16 24 0 0
BITMAP
FFFF
8001
8001
8001
8001
8001
8001
8001
8001
8001
8001
8001
8001
8001
8001
8001
8001
8001
8001
8001
8001
8001
8001
FFFF
ENDCHAR
STARTCHAR g231
ENCODING 64515
SWIDTH 472 0
DWIDTH 17 0
BBX 16 24 0 0
BITMAP
FFFF
8001
8001
8001
8001
8001
8001
8001
8001
8001
8001
8001
8001
8001
8001
8001
8001
8001
8001
8001
8001
8001
8001
FFFF
ENDCHAR
STARTCHAR g232
ENCODING 64516
SWIDTH 472 0
DWIDTH 17 0
BBX 16 24 0 0
BITMAP
FFFF
8001
8001
8001
8001
8001
8001
8001
8001
8001
8001
8001
8001
8001
8001
8001
8001
8001
8001
8001
8001
8001
8001
FFFF
ENDCHAR
STARTCHAR g233
ENCODING 64517
SWIDTH 472 0
DWIDTH 17 0
BBX 16 24 0 0
BITMAP
FFFF
8001
8001
8001
8001
8001
8001
8001
8001
8001
8001
8001
8001
8001
8001
8001
8001
8001
8001
8001
8001
8001
8001
FFFF
ENDCHAR
STARTCHAR g234
ENCODING 64518
SWIDTH 472 0
DWIDTH 17 0
BBX 16 24 0 0
BITMAP
FFFF
8001
8001
8001
8001
8001
8001
8001
8001
8001
8001
8001
8001
8001
8001
8001
8001
8001
8001
8001
8001
8001
8001
FFFF
ENDCHAR
STARTCHAR g235
ENCODING 64519
SWIDTH 472 0
DWIDTH 17 0
BBX 16 24 0 0
BITMAP
FFFF
8001
8001
8001
8001
8001
8001
8001
8001
8001
8001
8001
8001
8001
8001
8001
8001
8001
8001
8001
8001
8001
8001
FFFF
ENDCHAR
STARTCHAR g236
ENCODING 64520
SWIDTH 472 0
DWIDTH 17 0
BBX 16 24 0 0
BITMAP
FFFF
8001
8001
8001
8001
8001
8001
8001
8001
8001
8001
8001
8001
8001
8001
8001
8001
8001
8001
8001
8001
8001
8001
FFFF
ENDCHAR
STARTCHAR g237
ENCODING 64521
SWIDTH 472 0
DWIDTH 17 0
BBX 16 24 0 0
BITMAP
FFFF
8001
8001
8001
8001
8001
8001
8001
8001
8001
8001
8001
8001
8001
8001
8001
8001
8001
8001
8001
8001
8001
8001
FFFF
ENDCHAR
STARTCHAR g238
ENCODING 64522
SWIDTH 472 0
DWIDTH 17 0
BBX 16 24 0 0
BITMAP
FFFF
8001
8001
8001
8001
8001
8001
8001
8001
8001
8001
8001
8001
8001
8001
8001
8001
8001
8001
8001
8001
8001
8001
FFFF
ENDCHAR
STARTCHAR g239
ENCODING 64523
SWIDTH 472 0
DWIDTH 17 0
BBX 16 24 0 0
BITMAP
FFFF
8001
8001
8001
8001
8001
8001
8001
8001
8001
8001
8001
8001
8001
8001
8001
8001
8001
8001
8001
8001
8001
8001
FFFF
ENDCHAR
STARTCHAR g240
ENCODING 64524
SWIDTH 472 0
DWIDTH 17 0
BBX 16 24 0 0
BITMAP
FFFF
8001
8001
8001
8001
8001
8001
8001
8001
8001
8001
8001
8001
8001
8001
8001
8001
8001
8001
8001
8001
8001
8001
FFFF
ENDCHAR
STARTCHAR g241
ENCODING 64525
SWIDTH 472 0
DWIDTH 17 0
BBX 16 24 0 0
BITMAP
FFFF
8001
8001
8001
8001
8001
8001
8001
8001
8001
8001
8001
8001
8001
8001
8001
8001
8001
8001
8001
8001
8001
8001
FFFF
ENDCHAR
STARTCHAR g242
ENCODING 64526
SWIDTH 472 0
DWIDTH 17 0
BBX 16 24 0 0
BITMAP
FFFF
8001
8001
8001
8001
8001
8001
8001
8001
8001
8001
8001
8001
8001
8001
8001
8001
8001
8001
8001
8001
8001
8001
FFFF
ENDCHAR
STARTCHAR g243
ENCODING 64527
SWIDTH 472 0
DWIDTH 17 0
BBX 16 24 0 0
BITMAP
FFFF
8001
8001
8001
8001
8001
8001
8001
8001
8001
8001
8001
8001
8001
8001
8001
8001
8001
8001
8001
8001
8001
8001
FFFF
ENDCHAR
ENDFONT
