STARTFONT 2.1
COMMENT Strike 2 of a Newton 'sfnt' font (bloc/bdat): tools/fonts/newtonsfnt.py,
COMMENT tools/fonts/README.md.  The builder reads the BLOC_* properties and the
COMMENT glyphs - STARTCHAR gN (N the glyph id; otherwise ENCODING through 'cmap'),
COMMENT DWIDTH (the advance), BBX (width, height, the bearing x, the bottom row's
COMMENT y: bearing y less the height) and the BITMAP rows.  A glyph id in the
COMMENT subtable ranges with no glyph here has no image (the missing glyph is 0).
COMMENT The other properties, SIZE, FONTBOUNDINGBOX and SWIDTH are worked out and
COMMENT not read back: change BLOC_HORI_* (the line metrics the ROM draws text by)
COMMENT to match an edit that changes the strike's extent.
FONT -Apple-Roman Regular-Medium-R-Normal--12-120-72-72-P-0-Apple-Roman
SIZE 12 72 72
FONTBOUNDINGBOX 16 15 -1 -3
STARTPROPERTIES 37
FONT_ASCENT 12
FONT_DESCENT 4
PIXEL_SIZE 12
FAMILY_NAME "Roman Regular"
BLOC_COLOR_REF 0
BLOC_HORI_ASCENDER 12
BLOC_HORI_DESCENDER -4
BLOC_HORI_WIDTH_MAX 16
BLOC_HORI_CARET_SLOPE_NUMERATOR 0
BLOC_HORI_CARET_SLOPE_DENOMINATOR 1
BLOC_HORI_CARET_OFFSET 0
BLOC_HORI_MIN_ORIGIN_SB -1
BLOC_HORI_MIN_ADVANCE_SB -1
BLOC_HORI_MAX_BEFORE_BL 12
BLOC_HORI_MIN_AFTER_BL -3
BLOC_HORI_PAD1 0
BLOC_HORI_PAD2 0
BLOC_VERT_ASCENDER 0
BLOC_VERT_DESCENDER -1
BLOC_VERT_WIDTH_MAX 15
BLOC_VERT_CARET_SLOPE_NUMERATOR 0
BLOC_VERT_CARET_SLOPE_DENOMINATOR 1
BLOC_VERT_CARET_OFFSET 0
BLOC_VERT_MIN_ORIGIN_SB 119
BLOC_VERT_MIN_ADVANCE_SB -120
BLOC_VERT_MAX_BEFORE_BL 0
BLOC_VERT_MIN_AFTER_BL 92
BLOC_VERT_PAD1 0
BLOC_VERT_PAD2 0
BLOC_START_GLYPH 0
BLOC_END_GLYPH 257
BLOC_PPEM_X 12
BLOC_PPEM_Y 12
BLOC_BIT_DEPTH 1
BLOC_FLAGS 1
BLOC_INDEX_SUBTABLES 1
BLOC_INDEX_SUBTABLE_0 "0 257 3 1 0"
ENDPROPERTIES
CHARS 244
STARTCHAR g0
ENCODING -1
SWIDTH 833 0
DWIDTH 10 0
BBX 8 9 1 0
BITMAP
FF
81
81
81
81
81
81
81
FF
ENDCHAR
STARTCHAR g1
ENCODING 0
SWIDTH 0 0
DWIDTH 0 0
BBX 0 0 0 0
BITMAP
ENDCHAR
STARTCHAR g2
ENCODING 1
SWIDTH 333 0
DWIDTH 4 0
BBX 0 0 0 0
BITMAP
ENDCHAR
STARTCHAR g3
ENCODING 2
SWIDTH 250 0
DWIDTH 3 0
BBX 1 9 1 0
BITMAP
80
80
80
80
80
80
80
00
80
ENDCHAR
STARTCHAR g4
ENCODING 3
SWIDTH 417 0
DWIDTH 5 0
BBX 3 2 1 7
BITMAP
A0
A0
ENDCHAR
STARTCHAR g5
ENCODING 4
SWIDTH 750 0
DWIDTH 9 0
BBX 7 5 1 4
BITMAP
14
7E
28
FC
50
ENDCHAR
STARTCHAR g6
ENCODING 5
SWIDTH 583 0
DWIDTH 7 0
BBX 5 11 1 -1
BITMAP
20
70
A8
A0
60
30
28
28
A8
70
20
ENDCHAR
STARTCHAR g7
ENCODING 6
SWIDTH 750 0
DWIDTH 9 0
BBX 7 9 1 0
BITMAP
7E
92
94
68
10
2C
52
92
8C
ENDCHAR
STARTCHAR g8
ENCODING 7
SWIDTH 750 0
DWIDTH 9 0
BBX 8 9 0 0
BITMAP
30
48
50
20
50
8A
84
8A
71
ENDCHAR
STARTCHAR g9
ENCODING 8
SWIDTH 250 0
DWIDTH 3 0
BBX 1 2 1 7
BITMAP
80
80
ENDCHAR
STARTCHAR g10
ENCODING 9
SWIDTH 417 0
DWIDTH 5 0
BBX 3 11 1 -1
BITMAP
20
40
40
80
80
80
80
80
40
40
20
ENDCHAR
STARTCHAR g11
ENCODING 10
SWIDTH 417 0
DWIDTH 5 0
BBX 3 11 1 -1
BITMAP
80
40
40
20
20
20
20
20
40
40
80
ENDCHAR
STARTCHAR g12
ENCODING 11
SWIDTH 667 0
DWIDTH 8 0
BBX 6 5 1 4
BITMAP
48
30
FC
30
48
ENDCHAR
STARTCHAR g13
ENCODING 12
SWIDTH 583 0
DWIDTH 7 0
BBX 5 5 1 2
BITMAP
20
20
F8
20
20
ENDCHAR
STARTCHAR g14
ENCODING 44
SWIDTH 333 0
DWIDTH 4 0
BBX 2 3 1 -2
BITMAP
40
40
80
ENDCHAR
STARTCHAR g15
ENCODING 45
SWIDTH 583 0
DWIDTH 7 0
BBX 5 1 1 4
BITMAP
F8
ENDCHAR
STARTCHAR g16
ENCODING 46
SWIDTH 250 0
DWIDTH 3 0
BBX 1 1 1 0
BITMAP
80
ENDCHAR
STARTCHAR g17
ENCODING 47
SWIDTH 583 0
DWIDTH 7 0
BBX 5 10 1 0
BITMAP
08
08
10
10
20
20
40
40
80
80
ENDCHAR
STARTCHAR g18
ENCODING 48
SWIDTH 667 0
DWIDTH 8 0
BBX 6 9 1 0
BITMAP
30
48
84
84
84
84
84
48
30
ENDCHAR
STARTCHAR g19
ENCODING 49
SWIDTH 667 0
DWIDTH 8 0
BBX 2 9 3 0
BITMAP
40
C0
40
40
40
40
40
40
40
ENDCHAR
STARTCHAR g20
ENCODING 50
SWIDTH 667 0
DWIDTH 8 0
BBX 6 9 1 0
BITMAP
38
44
84
04
08
10
20
40
FC
ENDCHAR
STARTCHAR g21
ENCODING 51
SWIDTH 667 0
DWIDTH 8 0
BBX 6 9 1 0
BITMAP
FC
08
10
30
08
04
04
88
70
ENDCHAR
STARTCHAR g22
ENCODING 52
SWIDTH 667 0
DWIDTH 8 0
BBX 7 9 1 0
BITMAP
04
0C
14
24
44
84
FE
04
04
ENDCHAR
STARTCHAR g23
ENCODING 53
SWIDTH 667 0
DWIDTH 8 0
BBX 6 9 1 0
BITMAP
FC
80
80
F8
04
04
04
84
78
ENDCHAR
STARTCHAR g24
ENCODING 54
SWIDTH 667 0
DWIDTH 8 0
BBX 6 9 1 0
BITMAP
38
40
80
F8
84
84
84
84
78
ENDCHAR
STARTCHAR g25
ENCODING 55
SWIDTH 667 0
DWIDTH 8 0
BBX 6 9 1 0
BITMAP
FC
04
08
08
10
10
20
20
20
ENDCHAR
STARTCHAR g26
ENCODING 56
SWIDTH 667 0
DWIDTH 8 0
BBX 6 9 1 0
BITMAP
78
84
84
78
84
84
84
84
78
ENDCHAR
STARTCHAR g27
ENCODING 57
SWIDTH 667 0
DWIDTH 8 0
BBX 6 9 1 0
BITMAP
78
84
84
84
84
7C
04
08
70
ENDCHAR
STARTCHAR g28
ENCODING 58
SWIDTH 250 0
DWIDTH 3 0
BBX 1 6 1 0
BITMAP
80
00
00
00
00
80
ENDCHAR
STARTCHAR g29
ENCODING 59
SWIDTH 333 0
DWIDTH 4 0
BBX 2 8 1 -2
BITMAP
40
00
00
00
00
40
40
80
ENDCHAR
STARTCHAR g30
ENCODING 60
SWIDTH 500 0
DWIDTH 6 0
BBX 4 7 1 0
BITMAP
10
20
40
80
40
20
10
ENDCHAR
STARTCHAR g31
ENCODING 61
SWIDTH 583 0
DWIDTH 7 0
BBX 5 4 1 1
BITMAP
F8
00
00
F8
ENDCHAR
STARTCHAR g32
ENCODING 62
SWIDTH 500 0
DWIDTH 6 0
BBX 4 7 1 0
BITMAP
80
40
20
10
20
40
80
ENDCHAR
STARTCHAR g33
ENCODING 63
SWIDTH 667 0
DWIDTH 8 0
BBX 6 9 1 0
BITMAP
78
84
84
08
10
20
20
00
20
ENDCHAR
STARTCHAR g34
ENCODING 64
SWIDTH 833 0
DWIDTH 10 0
BBX 8 8 1 0
BITMAP
3C
42
9D
A5
A5
9E
40
38
ENDCHAR
STARTCHAR g35
ENCODING 65
SWIDTH 750 0
DWIDTH 9 0
BBX 7 9 1 0
BITMAP
10
10
28
28
44
44
FE
82
82
ENDCHAR
STARTCHAR g36
ENCODING 66
SWIDTH 667 0
DWIDTH 8 0
BBX 6 9 1 0
BITMAP
F8
84
84
F8
84
84
84
84
F8
ENDCHAR
STARTCHAR g37
ENCODING 67
SWIDTH 667 0
DWIDTH 8 0
BBX 6 9 1 0
BITMAP
78
84
80
80
80
80
80
84
78
ENDCHAR
STARTCHAR g38
ENCODING 68
SWIDTH 667 0
DWIDTH 8 0
BBX 6 9 1 0
BITMAP
F0
88
84
84
84
84
84
88
F0
ENDCHAR
STARTCHAR g39
ENCODING 69
SWIDTH 583 0
DWIDTH 7 0
BBX 5 9 1 0
BITMAP
F8
80
80
80
F0
80
80
80
F8
ENDCHAR
STARTCHAR g40
ENCODING 70
SWIDTH 583 0
DWIDTH 7 0
BBX 5 9 1 0
BITMAP
F8
80
80
80
F0
80
80
80
80
ENDCHAR
STARTCHAR g41
ENCODING 71
SWIDTH 667 0
DWIDTH 8 0
BBX 6 9 1 0
BITMAP
78
84
80
80
9C
84
84
84
78
ENDCHAR
STARTCHAR g42
ENCODING 72
SWIDTH 667 0
DWIDTH 8 0
BBX 6 9 1 0
BITMAP
84
84
84
84
FC
84
84
84
84
ENDCHAR
STARTCHAR g43
ENCODING 73
SWIDTH 417 0
DWIDTH 5 0
BBX 1 9 2 0
BITMAP
80
80
80
80
80
80
80
80
80
ENDCHAR
STARTCHAR g44
ENCODING 74
SWIDTH 583 0
DWIDTH 7 0
BBX 6 9 0 0
BITMAP
04
04
04
04
04
04
84
84
78
ENDCHAR
STARTCHAR g45
ENCODING 75
SWIDTH 667 0
DWIDTH 8 0
BBX 6 9 1 0
BITMAP
84
88
90
A0
C0
A0
90
88
84
ENDCHAR
STARTCHAR g46
ENCODING 76
SWIDTH 583 0
DWIDTH 7 0
BBX 5 9 1 0
BITMAP
80
80
80
80
80
80
80
80
F8
ENDCHAR
STARTCHAR g47
ENCODING 77
SWIDTH 750 0
DWIDTH 9 0
BBX 7 9 1 0
BITMAP
82
C6
AA
92
82
82
82
82
82
ENDCHAR
STARTCHAR g48
ENCODING 78
SWIDTH 667 0
DWIDTH 8 0
BBX 6 9 1 0
BITMAP
C4
C4
A4
A4
94
94
8C
8C
84
ENDCHAR
STARTCHAR g49
ENCODING 79
SWIDTH 667 0
DWIDTH 8 0
BBX 6 9 1 0
BITMAP
78
84
84
84
84
84
84
84
78
ENDCHAR
STARTCHAR g50
ENCODING 80
SWIDTH 667 0
DWIDTH 8 0
BBX 6 9 1 0
BITMAP
F8
84
84
84
F8
80
80
80
80
ENDCHAR
STARTCHAR g51
ENCODING 81
SWIDTH 667 0
DWIDTH 8 0
BBX 6 10 1 -1
BITMAP
78
84
84
84
84
84
84
94
78
04
ENDCHAR
STARTCHAR g52
ENCODING 82
SWIDTH 667 0
DWIDTH 8 0
BBX 6 9 1 0
BITMAP
F8
84
84
84
F8
A0
90
88
84
ENDCHAR
STARTCHAR g53
ENCODING 83
SWIDTH 667 0
DWIDTH 8 0
BBX 6 9 1 0
BITMAP
78
84
80
80
78
04
04
84
78
ENDCHAR
STARTCHAR g54
ENCODING 84
SWIDTH 667 0
DWIDTH 8 0
BBX 7 9 0 0
BITMAP
FE
10
10
10
10
10
10
10
10
ENDCHAR
STARTCHAR g55
ENCODING 85
SWIDTH 667 0
DWIDTH 8 0
BBX 6 9 1 0
BITMAP
84
84
84
84
84
84
84
84
78
ENDCHAR
STARTCHAR g56
ENCODING 86
SWIDTH 750 0
DWIDTH 9 0
BBX 7 9 1 0
BITMAP
82
82
82
44
44
28
28
10
10
ENDCHAR
STARTCHAR g57
ENCODING 87
SWIDTH 917 0
DWIDTH 11 0
BBX 9 9 1 0
BITMAP
8080
8080
8880
4900
5500
5500
2200
2200
2200
ENDCHAR
STARTCHAR g58
ENCODING 88
SWIDTH 583 0
DWIDTH 7 0
BBX 5 9 1 0
BITMAP
88
88
50
50
20
50
50
88
88
ENDCHAR
STARTCHAR g59
ENCODING 89
SWIDTH 583 0
DWIDTH 7 0
BBX 7 9 0 0
BITMAP
82
44
44
28
28
10
10
10
10
ENDCHAR
STARTCHAR g60
ENCODING 90
SWIDTH 583 0
DWIDTH 7 0
BBX 5 9 1 0
BITMAP
F8
08
10
10
20
40
40
80
F8
ENDCHAR
STARTCHAR g61
ENCODING 91
SWIDTH 333 0
DWIDTH 4 0
BBX 2 11 1 -1
BITMAP
C0
80
80
80
80
80
80
80
80
80
C0
ENDCHAR
STARTCHAR g62
ENCODING 92
SWIDTH 583 0
DWIDTH 7 0
BBX 5 10 1 0
BITMAP
80
80
40
40
20
20
10
10
08
08
ENDCHAR
STARTCHAR g63
ENCODING 93
SWIDTH 333 0
DWIDTH 4 0
BBX 2 11 1 -1
BITMAP
C0
40
40
40
40
40
40
40
40
40
C0
ENDCHAR
STARTCHAR g64
ENCODING 94
SWIDTH 333 0
DWIDTH 4 0
BBX 3 2 1 7
BITMAP
40
A0
ENDCHAR
STARTCHAR g65
ENCODING 95
SWIDTH 667 0
DWIDTH 8 0
BBX 8 1 0 0
BITMAP
FF
ENDCHAR
STARTCHAR g66
ENCODING 96
SWIDTH 333 0
DWIDTH 4 0
BBX 2 2 1 7
BITMAP
80
40
ENDCHAR
STARTCHAR g67
ENCODING 97
SWIDTH 583 0
DWIDTH 7 0
BBX 5 7 1 0
BITMAP
70
88
78
88
88
88
78
ENDCHAR
STARTCHAR g68
ENCODING 98
SWIDTH 583 0
DWIDTH 7 0
BBX 5 9 1 0
BITMAP
80
80
F0
88
88
88
88
88
F0
ENDCHAR
STARTCHAR g69
ENCODING 99
SWIDTH 583 0
DWIDTH 7 0
BBX 5 7 1 0
BITMAP
70
88
80
80
80
88
70
ENDCHAR
STARTCHAR g70
ENCODING 100
SWIDTH 583 0
DWIDTH 7 0
BBX 5 9 1 0
BITMAP
08
08
78
88
88
88
88
88
78
ENDCHAR
STARTCHAR g71
ENCODING 101
SWIDTH 583 0
DWIDTH 7 0
BBX 5 7 1 0
BITMAP
70
88
88
F8
80
88
70
ENDCHAR
STARTCHAR g72
ENCODING 102
SWIDTH 500 0
DWIDTH 6 0
BBX 4 9 1 0
BITMAP
30
40
E0
40
40
40
40
40
40
ENDCHAR
STARTCHAR g73
ENCODING 103
SWIDTH 583 0
DWIDTH 7 0
BBX 5 10 1 -3
BITMAP
78
88
88
88
88
88
78
08
88
70
ENDCHAR
STARTCHAR g74
ENCODING 104
SWIDTH 583 0
DWIDTH 7 0
BBX 5 9 1 0
BITMAP
80
80
B0
C8
88
88
88
88
88
ENDCHAR
STARTCHAR g75
ENCODING 105
SWIDTH 417 0
DWIDTH 5 0
BBX 2 9 1 0
BITMAP
40
00
C0
40
40
40
40
40
40
ENDCHAR
STARTCHAR g76
ENCODING 106
SWIDTH 500 0
DWIDTH 6 0
BBX 3 12 1 -3
BITMAP
20
00
60
20
20
20
20
20
20
20
20
C0
ENDCHAR
STARTCHAR g77
ENCODING 107
SWIDTH 583 0
DWIDTH 7 0
BBX 5 9 1 0
BITMAP
80
80
88
90
A0
C0
A0
90
88
ENDCHAR
STARTCHAR g78
ENCODING 108
SWIDTH 417 0
DWIDTH 5 0
BBX 2 9 1 0
BITMAP
C0
40
40
40
40
40
40
40
40
ENDCHAR
STARTCHAR g79
ENCODING 109
SWIDTH 917 0
DWIDTH 11 0
BBX 9 7 1 0
BITMAP
B300
CC80
8880
8880
8880
8880
8880
ENDCHAR
STARTCHAR g80
ENCODING 110
SWIDTH 583 0
DWIDTH 7 0
BBX 5 7 1 0
BITMAP
B0
C8
88
88
88
88
88
ENDCHAR
STARTCHAR g81
ENCODING 111
SWIDTH 583 0
DWIDTH 7 0
BBX 5 7 1 0
BITMAP
70
88
88
88
88
88
70
ENDCHAR
STARTCHAR g82
ENCODING 112
SWIDTH 583 0
DWIDTH 7 0
BBX 5 9 1 -2
BITMAP
F0
88
88
88
88
88
F0
80
80
ENDCHAR
STARTCHAR g83
ENCODING 113
SWIDTH 583 0
DWIDTH 7 0
BBX 5 9 1 -2
BITMAP
78
88
88
88
88
88
78
08
08
ENDCHAR
STARTCHAR g84
ENCODING 114
SWIDTH 500 0
DWIDTH 6 0
BBX 5 7 1 0
BITMAP
B8
C0
80
80
80
80
80
ENDCHAR
STARTCHAR g85
ENCODING 115
SWIDTH 583 0
DWIDTH 7 0
BBX 5 7 1 0
BITMAP
70
88
80
70
08
88
70
ENDCHAR
STARTCHAR g86
ENCODING 116
SWIDTH 500 0
DWIDTH 6 0
BBX 4 9 1 0
BITMAP
40
40
E0
40
40
40
40
40
30
ENDCHAR
STARTCHAR g87
ENCODING 117
SWIDTH 583 0
DWIDTH 7 0
BBX 5 7 1 0
BITMAP
88
88
88
88
88
98
68
ENDCHAR
STARTCHAR g88
ENCODING 118
SWIDTH 583 0
DWIDTH 7 0
BBX 5 7 1 0
BITMAP
88
88
88
50
50
20
20
ENDCHAR
STARTCHAR g89
ENCODING 119
SWIDTH 917 0
DWIDTH 11 0
BBX 9 7 1 0
BITMAP
8880
8880
5500
5500
2200
2200
2200
ENDCHAR
STARTCHAR g90
ENCODING 120
SWIDTH 583 0
DWIDTH 7 0
BBX 5 7 1 0
BITMAP
88
88
50
20
50
88
88
ENDCHAR
STARTCHAR g91
ENCODING 121
SWIDTH 583 0
DWIDTH 7 0
BBX 5 10 1 -3
BITMAP
88
88
88
88
88
88
78
08
88
70
ENDCHAR
STARTCHAR g92
ENCODING 122
SWIDTH 583 0
DWIDTH 7 0
BBX 5 7 1 0
BITMAP
F8
08
10
20
40
80
F8
ENDCHAR
STARTCHAR g93
ENCODING 123
SWIDTH 417 0
DWIDTH 5 0
BBX 3 11 1 -1
BITMAP
20
40
40
40
40
80
40
40
40
40
20
ENDCHAR
STARTCHAR g94
ENCODING 124
SWIDTH 250 0
DWIDTH 3 0
BBX 1 11 1 -1
BITMAP
80
80
80
80
80
00
80
80
80
80
80
ENDCHAR
STARTCHAR g95
ENCODING 125
SWIDTH 417 0
DWIDTH 5 0
BBX 3 11 1 -1
BITMAP
80
40
40
40
40
20
40
40
40
40
80
ENDCHAR
STARTCHAR g96
ENCODING 126
SWIDTH 667 0
DWIDTH 8 0
BBX 6 2 1 7
BITMAP
64
98
ENDCHAR
STARTCHAR g97
ENCODING 127
SWIDTH 667 0
DWIDTH 8 0
BBX 0 0 0 0
BITMAP
ENDCHAR
STARTCHAR g98
ENCODING 161
SWIDTH 333 0
DWIDTH 4 0
BBX 1 9 2 0
BITMAP
80
00
80
80
80
80
80
80
80
ENDCHAR
STARTCHAR g99
ENCODING 162
SWIDTH 583 0
DWIDTH 7 0
BBX 5 9 1 -1
BITMAP
20
70
A8
A0
A0
A0
A8
70
20
ENDCHAR
STARTCHAR g100
ENCODING 163
SWIDTH 667 0
DWIDTH 8 0
BBX 6 9 1 0
BITMAP
30
48
40
40
E0
40
40
44
F8
ENDCHAR
STARTCHAR g101
ENCODING 164
SWIDTH 667 0
DWIDTH 8 0
BBX 7 7 0 0
BITMAP
BA
44
82
82
82
44
BA
ENDCHAR
STARTCHAR g102
ENCODING 165
SWIDTH 583 0
DWIDTH 7 0
BBX 5 9 1 0
BITMAP
88
50
F8
20
F8
20
20
20
20
ENDCHAR
STARTCHAR g103
ENCODING 167
SWIDTH 667 0
DWIDTH 8 0
BBX 6 10 1 -1
BITMAP
78
84
80
78
84
84
78
04
84
78
ENDCHAR
STARTCHAR g104
ENCODING 168
SWIDTH 417 0
DWIDTH 5 0
BBX 3 1 1 8
BITMAP
A0
ENDCHAR
STARTCHAR g105
ENCODING 169
SWIDTH 833 0
DWIDTH 10 0
BBX 8 8 1 0
BITMAP
3C
42
99
A1
A1
99
42
3C
ENDCHAR
STARTCHAR g106
ENCODING 170
SWIDTH 500 0
DWIDTH 6 0
BBX 5 7 0 2
BITMAP
78
88
88
98
68
00
F8
ENDCHAR
STARTCHAR g107
ENCODING 171
SWIDTH 667 0
DWIDTH 8 0
BBX 6 5 1 0
BITMAP
24
48
90
48
24
ENDCHAR
STARTCHAR g108
ENCODING 172
SWIDTH 583 0
DWIDTH 7 0
BBX 5 3 1 2
BITMAP
F8
08
08
ENDCHAR
STARTCHAR g109
ENCODING 174
SWIDTH 833 0
DWIDTH 10 0
BBX 8 8 1 0
BITMAP
3C
42
B9
A5
B9
A5
42
3C
ENDCHAR
STARTCHAR g110
ENCODING 175
SWIDTH 500 0
DWIDTH 6 0
BBX 4 1 1 8
BITMAP
F0
ENDCHAR
STARTCHAR g111
ENCODING 176
SWIDTH 500 0
DWIDTH 6 0
BBX 4 4 1 5
BITMAP
60
90
90
60
ENDCHAR
STARTCHAR g112
ENCODING 177
SWIDTH 583 0
DWIDTH 7 0
BBX 5 7 1 0
BITMAP
20
20
F8
20
20
00
F8
ENDCHAR
STARTCHAR g113
ENCODING 180
SWIDTH 333 0
DWIDTH 4 0
BBX 2 2 1 7
BITMAP
40
80
ENDCHAR
STARTCHAR g114
ENCODING 181
SWIDTH 750 0
DWIDTH 9 0
BBX 7 9 1 -2
BITMAP
44
44
44
44
44
44
7A
40
80
ENDCHAR
STARTCHAR g115
ENCODING 182
SWIDTH 667 0
DWIDTH 8 0
BBX 6 9 1 0
BITMAP
3C
54
94
94
94
54
3C
14
14
ENDCHAR
STARTCHAR g116
ENCODING 183
SWIDTH 500 0
DWIDTH 6 0
BBX 2 2 2 2
BITMAP
C0
C0
ENDCHAR
STARTCHAR g117
ENCODING 184
SWIDTH 417 0
DWIDTH 5 0
BBX 3 4 1 -3
BITMAP
80
40
20
C0
ENDCHAR
STARTCHAR g118
ENCODING 186
SWIDTH 500 0
DWIDTH 6 0
BBX 5 7 0 2
BITMAP
70
88
88
88
70
00
F8
ENDCHAR
STARTCHAR g119
ENCODING 187
SWIDTH 667 0
DWIDTH 8 0
BBX 6 5 1 0
BITMAP
90
48
24
48
90
ENDCHAR
STARTCHAR g120
ENCODING 191
SWIDTH 667 0
DWIDTH 8 0
BBX 5 9 1 0
BITMAP
20
00
20
20
40
80
88
88
70
ENDCHAR
STARTCHAR g121
ENCODING 192
SWIDTH 750 0
DWIDTH 9 0
BBX 7 12 1 0
BITMAP
20
10
00
10
10
28
28
44
44
FE
82
82
ENDCHAR
STARTCHAR g122
ENCODING 193
SWIDTH 750 0
DWIDTH 9 0
BBX 7 12 1 0
BITMAP
08
10
00
10
10
28
28
44
44
FE
82
82
ENDCHAR
STARTCHAR g123
ENCODING 194
SWIDTH 750 0
DWIDTH 9 0
BBX 7 12 1 0
BITMAP
10
28
00
10
10
28
28
44
44
FE
82
82
ENDCHAR
STARTCHAR g124
ENCODING 195
SWIDTH 750 0
DWIDTH 9 0
BBX 7 12 1 0
BITMAP
32
4C
00
10
10
28
28
44
44
FE
82
82
ENDCHAR
STARTCHAR g125
ENCODING 196
SWIDTH 750 0
DWIDTH 9 0
BBX 7 11 1 0
BITMAP
28
00
10
10
28
28
44
44
FE
82
82
ENDCHAR
STARTCHAR g126
ENCODING 197
SWIDTH 750 0
DWIDTH 9 0
BBX 7 12 1 0
BITMAP
38
44
44
38
10
28
28
44
44
FE
82
82
ENDCHAR
STARTCHAR g127
ENCODING 198
SWIDTH 1000 0
DWIDTH 12 0
BBX 10 9 1 0
BITMAP
0FC0
1400
1400
2400
3F80
4400
4400
8400
87C0
ENDCHAR
STARTCHAR g128
ENCODING 199
SWIDTH 667 0
DWIDTH 8 0
BBX 6 12 1 -3
BITMAP
78
84
80
80
80
80
80
84
78
10
08
10
ENDCHAR
STARTCHAR g129
ENCODING 200
SWIDTH 583 0
DWIDTH 7 0
BBX 5 12 1 0
BITMAP
40
20
00
F8
80
80
80
F0
80
80
80
F8
ENDCHAR
STARTCHAR g130
ENCODING 201
SWIDTH 583 0
DWIDTH 7 0
BBX 5 12 1 0
BITMAP
10
20
00
F8
80
80
80
F0
80
80
80
F8
ENDCHAR
STARTCHAR g131
ENCODING 202
SWIDTH 583 0
DWIDTH 7 0
BBX 5 12 1 0
BITMAP
20
50
00
F8
80
80
80
F0
80
80
80
F8
ENDCHAR
STARTCHAR g132
ENCODING 203
SWIDTH 583 0
DWIDTH 7 0
BBX 5 11 1 0
BITMAP
50
00
F8
80
80
80
F0
80
80
80
F8
ENDCHAR
STARTCHAR g133
ENCODING 204
SWIDTH 417 0
DWIDTH 5 0
BBX 2 12 1 0
BITMAP
80
40
00
40
40
40
40
40
40
40
40
40
ENDCHAR
STARTCHAR g134
ENCODING 205
SWIDTH 417 0
DWIDTH 5 0
BBX 2 12 2 0
BITMAP
40
80
00
80
80
80
80
80
80
80
80
80
ENDCHAR
STARTCHAR g135
ENCODING 206
SWIDTH 417 0
DWIDTH 5 0
BBX 3 12 1 0
BITMAP
40
A0
00
40
40
40
40
40
40
40
40
40
ENDCHAR
STARTCHAR g136
ENCODING 207
SWIDTH 417 0
DWIDTH 5 0
BBX 3 11 1 0
BITMAP
A0
00
40
40
40
40
40
40
40
40
40
ENDCHAR
STARTCHAR g137
ENCODING 209
SWIDTH 667 0
DWIDTH 8 0
BBX 6 12 1 0
BITMAP
64
98
00
C4
C4
A4
A4
94
94
8C
8C
84
ENDCHAR
STARTCHAR g138
ENCODING 210
SWIDTH 667 0
DWIDTH 8 0
BBX 6 12 1 0
BITMAP
20
10
00
78
84
84
84
84
84
84
84
78
ENDCHAR
STARTCHAR g139
ENCODING 211
SWIDTH 667 0
DWIDTH 8 0
BBX 6 12 1 0
BITMAP
10
20
00
78
84
84
84
84
84
84
84
78
ENDCHAR
STARTCHAR g140
ENCODING 212
SWIDTH 667 0
DWIDTH 8 0
BBX 6 12 1 0
BITMAP
30
48
00
78
84
84
84
84
84
84
84
78
ENDCHAR
STARTCHAR g141
ENCODING 213
SWIDTH 667 0
DWIDTH 8 0
BBX 6 12 1 0
BITMAP
64
98
00
78
84
84
84
84
84
84
84
78
ENDCHAR
STARTCHAR g142
ENCODING 214
SWIDTH 667 0
DWIDTH 8 0
BBX 6 11 1 0
BITMAP
48
00
78
84
84
84
84
84
84
84
78
ENDCHAR
STARTCHAR g143
ENCODING 216
SWIDTH 667 0
DWIDTH 8 0
BBX 8 9 0 0
BITMAP
3D
42
46
4A
52
62
42
C2
3C
ENDCHAR
STARTCHAR g144
ENCODING 217
SWIDTH 667 0
DWIDTH 8 0
BBX 6 12 1 0
BITMAP
20
10
00
84
84
84
84
84
84
84
84
78
ENDCHAR
STARTCHAR g145
ENCODING 218
SWIDTH 667 0
DWIDTH 8 0
BBX 6 12 1 0
BITMAP
10
20
00
84
84
84
84
84
84
84
84
78
ENDCHAR
STARTCHAR g146
ENCODING 219
SWIDTH 667 0
DWIDTH 8 0
BBX 6 12 1 0
BITMAP
30
48
00
84
84
84
84
84
84
84
84
78
ENDCHAR
STARTCHAR g147
ENCODING 220
SWIDTH 667 0
DWIDTH 8 0
BBX 6 11 1 0
BITMAP
48
00
84
84
84
84
84
84
84
84
78
ENDCHAR
STARTCHAR g148
ENCODING 223
SWIDTH 750 0
DWIDTH 9 0
BBX 7 9 1 0
BITMAP
38
44
44
48
44
42
42
44
D8
ENDCHAR
STARTCHAR g149
ENCODING 224
SWIDTH 583 0
DWIDTH 7 0
BBX 5 10 1 0
BITMAP
20
10
00
70
88
78
88
88
88
78
ENDCHAR
STARTCHAR g150
ENCODING 225
SWIDTH 583 0
DWIDTH 7 0
BBX 5 10 1 0
BITMAP
20
40
00
70
88
78
88
88
88
78
ENDCHAR
STARTCHAR g151
ENCODING 226
SWIDTH 583 0
DWIDTH 7 0
BBX 5 10 1 0
BITMAP
20
50
00
70
88
78
88
88
88
78
ENDCHAR
STARTCHAR g152
ENCODING 227
SWIDTH 583 0
DWIDTH 7 0
BBX 5 10 1 0
BITMAP
68
B0
00
70
88
78
88
88
88
78
ENDCHAR
STARTCHAR g153
ENCODING 228
SWIDTH 583 0
DWIDTH 7 0
BBX 5 9 1 0
BITMAP
50
00
70
88
78
88
88
88
78
ENDCHAR
STARTCHAR g154
ENCODING 229
SWIDTH 583 0
DWIDTH 7 0
BBX 5 12 1 0
BITMAP
60
90
90
60
00
70
88
78
88
88
88
78
ENDCHAR
STARTCHAR g155
ENCODING 230
SWIDTH 917 0
DWIDTH 11 0
BBX 9 7 1 0
BITMAP
7700
8880
7880
8F80
8800
8880
7700
ENDCHAR
STARTCHAR g156
ENCODING 231
SWIDTH 583 0
DWIDTH 7 0
BBX 5 9 1 -2
BITMAP
70
88
80
80
80
88
70
20
40
ENDCHAR
STARTCHAR g157
ENCODING 232
SWIDTH 583 0
DWIDTH 7 0
BBX 5 10 1 0
BITMAP
40
20
00
70
88
88
F8
80
88
70
ENDCHAR
STARTCHAR g158
ENCODING 233
SWIDTH 583 0
DWIDTH 7 0
BBX 5 10 1 0
BITMAP
20
40
00
70
88
88
F8
80
88
70
ENDCHAR
STARTCHAR g159
ENCODING 234
SWIDTH 583 0
DWIDTH 7 0
BBX 5 10 1 0
BITMAP
20
50
00
70
88
88
F8
80
88
70
ENDCHAR
STARTCHAR g160
ENCODING 235
SWIDTH 583 0
DWIDTH 7 0
BBX 5 9 1 0
BITMAP
50
00
70
88
88
F8
80
88
70
ENDCHAR
STARTCHAR g161
ENCODING 236
SWIDTH 417 0
DWIDTH 5 0
BBX 2 10 1 0
BITMAP
80
40
00
40
40
40
40
40
40
40
ENDCHAR
STARTCHAR g162
ENCODING 237
SWIDTH 417 0
DWIDTH 5 0
BBX 2 10 2 0
BITMAP
40
80
00
80
80
80
80
80
80
80
ENDCHAR
STARTCHAR g163
ENCODING 238
SWIDTH 417 0
DWIDTH 5 0
BBX 3 10 1 0
BITMAP
40
A0
00
40
40
40
40
40
40
40
ENDCHAR
STARTCHAR g164
ENCODING 239
SWIDTH 417 0
DWIDTH 5 0
BBX 3 9 1 0
BITMAP
A0
00
40
40
40
40
40
40
40
ENDCHAR
STARTCHAR g165
ENCODING 241
SWIDTH 583 0
DWIDTH 7 0
BBX 5 10 1 0
BITMAP
68
B0
00
B0
C8
88
88
88
88
88
ENDCHAR
STARTCHAR g166
ENCODING 242
SWIDTH 583 0
DWIDTH 7 0
BBX 5 10 1 0
BITMAP
40
20
00
70
88
88
88
88
88
70
ENDCHAR
STARTCHAR g167
ENCODING 243
SWIDTH 583 0
DWIDTH 7 0
BBX 5 10 1 0
BITMAP
10
20
00
70
88
88
88
88
88
70
ENDCHAR
STARTCHAR g168
ENCODING 244
SWIDTH 583 0
DWIDTH 7 0
BBX 5 10 1 0
BITMAP
20
50
00
70
88
88
88
88
88
70
ENDCHAR
STARTCHAR g169
ENCODING 245
SWIDTH 583 0
DWIDTH 7 0
BBX 5 10 1 0
BITMAP
68
B0
00
70
88
88
88
88
88
70
ENDCHAR
STARTCHAR g170
ENCODING 246
SWIDTH 583 0
DWIDTH 7 0
BBX 5 9 1 0
BITMAP
50
00
70
88
88
88
88
88
70
ENDCHAR
STARTCHAR g171
ENCODING 247
SWIDTH 583 0
DWIDTH 7 0
BBX 5 5 1 2
BITMAP
20
00
F8
00
20
ENDCHAR
STARTCHAR g172
ENCODING 248
SWIDTH 583 0
DWIDTH 7 0
BBX 7 7 0 0
BITMAP
3A
44
4C
54
64
44
B8
ENDCHAR
STARTCHAR g173
ENCODING 249
SWIDTH 583 0
DWIDTH 7 0
BBX 5 10 1 0
BITMAP
40
20
00
88
88
88
88
88
98
68
ENDCHAR
STARTCHAR g174
ENCODING 250
SWIDTH 583 0
DWIDTH 7 0
BBX 5 10 1 0
BITMAP
10
20
00
88
88
88
88
88
98
68
ENDCHAR
STARTCHAR g175
ENCODING 251
SWIDTH 583 0
DWIDTH 7 0
BBX 5 10 1 0
BITMAP
20
50
00
88
88
88
88
88
98
68
ENDCHAR
STARTCHAR g176
ENCODING 252
SWIDTH 583 0
DWIDTH 7 0
BBX 5 9 1 0
BITMAP
50
00
88
88
88
88
88
98
68
ENDCHAR
STARTCHAR g177
ENCODING 255
SWIDTH 667 0
DWIDTH 8 0
BBX 5 12 1 -3
BITMAP
88
00
88
88
88
88
88
88
78
08
88
70
ENDCHAR
STARTCHAR g178
ENCODING 305
SWIDTH 417 0
DWIDTH 5 0
BBX 2 7 1 0
BITMAP
C0
40
40
40
40
40
40
ENDCHAR
STARTCHAR g179
ENCODING 338
SWIDTH 1000 0
DWIDTH 12 0
BBX 10 9 1 0
BITMAP
7BC0
8400
8400
8400
8780
8400
8400
8400
7BC0
ENDCHAR
STARTCHAR g180
ENCODING 339
SWIDTH 917 0
DWIDTH 11 0
BBX 9 7 1 0
BITMAP
7700
8880
8880
8F80
8800
8880
7700
ENDCHAR
STARTCHAR g181
ENCODING 376
SWIDTH 583 0
DWIDTH 7 0
BBX 7 11 0 0
BITMAP
28
00
82
44
44
28
28
10
10
10
10
ENDCHAR
STARTCHAR g182
ENCODING 402
SWIDTH 417 0
DWIDTH 5 0
BBX 3 12 1 -3
BITMAP
20
40
40
E0
40
40
40
40
40
40
40
80
ENDCHAR
STARTCHAR g183
ENCODING 710
SWIDTH 500 0
DWIDTH 6 0
BBX 4 2 1 8
BITMAP
60
90
ENDCHAR
STARTCHAR g184
ENCODING 711
SWIDTH 500 0
DWIDTH 6 0
BBX 4 2 1 8
BITMAP
90
60
ENDCHAR
STARTCHAR g185
ENCODING 728
SWIDTH 500 0
DWIDTH 6 0
BBX 4 2 1 8
BITMAP
90
60
ENDCHAR
STARTCHAR g186
ENCODING 729
SWIDTH 417 0
DWIDTH 5 0
BBX 1 1 2 8
BITMAP
80
ENDCHAR
STARTCHAR g187
ENCODING 730
SWIDTH 500 0
DWIDTH 6 0
BBX 4 4 1 6
BITMAP
60
90
90
60
ENDCHAR
STARTCHAR g188
ENCODING 731
SWIDTH 417 0
DWIDTH 5 0
BBX 3 4 1 -3
BITMAP
20
40
80
60
ENDCHAR
STARTCHAR g189
ENCODING 732
SWIDTH 667 0
DWIDTH 8 0
BBX 6 2 1 8
BITMAP
64
98
ENDCHAR
STARTCHAR g190
ENCODING 733
SWIDTH 667 0
DWIDTH 8 0
BBX 4 3 2 7
BITMAP
50
A0
A0
ENDCHAR
STARTCHAR g191
ENCODING 960
SWIDTH 833 0
DWIDTH 10 0
BBX 8 8 1 0
BITMAP
01
7E
A2
22
22
22
22
44
ENDCHAR
STARTCHAR g192
ENCODING 8211
SWIDTH 500 0
DWIDTH 6 0
BBX 4 1 1 3
BITMAP
F0
ENDCHAR
STARTCHAR g193
ENCODING 8212
SWIDTH 750 0
DWIDTH 9 0
BBX 7 1 1 3
BITMAP
FE
ENDCHAR
STARTCHAR g194
ENCODING 8216
SWIDTH 333 0
DWIDTH 4 0
BBX 2 3 1 7
BITMAP
40
80
80
ENDCHAR
STARTCHAR g195
ENCODING 8217
SWIDTH 333 0
DWIDTH 4 0
BBX 2 3 1 7
BITMAP
40
40
80
ENDCHAR
STARTCHAR g196
ENCODING 8218
SWIDTH 333 0
DWIDTH 4 0
BBX 2 3 1 -2
BITMAP
40
40
80
ENDCHAR
STARTCHAR g197
ENCODING 8220
SWIDTH 583 0
DWIDTH 7 0
BBX 5 3 1 7
BITMAP
48
90
90
ENDCHAR
STARTCHAR g198
ENCODING 8221
SWIDTH 583 0
DWIDTH 7 0
BBX 5 3 1 7
BITMAP
48
48
90
ENDCHAR
STARTCHAR g199
ENCODING 8222
SWIDTH 417 0
DWIDTH 5 0
BBX 4 3 0 -2
BITMAP
50
50
A0
ENDCHAR
STARTCHAR g200
ENCODING 8224
SWIDTH 417 0
DWIDTH 5 0
BBX 3 5 1 5
BITMAP
40
E0
40
40
40
ENDCHAR
STARTCHAR g201
ENCODING 8225
SWIDTH 583 0
DWIDTH 7 0
BBX 5 11 1 -2
BITMAP
20
20
F8
20
20
20
20
20
F8
20
20
ENDCHAR
STARTCHAR g202
ENCODING 8226
SWIDTH 667 0
DWIDTH 8 0
BBX 6 6 1 1
BITMAP
78
FC
FC
FC
FC
78
ENDCHAR
STARTCHAR g203
ENCODING 8230
SWIDTH 833 0
DWIDTH 10 0
BBX 7 1 2 0
BITMAP
92
ENDCHAR
STARTCHAR g204
ENCODING 8240
SWIDTH 1333 0
DWIDTH 16 0
BBX 15 9 0 0
BITMAP
6080
9100
9200
9200
658C
0A52
0A52
1252
218C
ENDCHAR
STARTCHAR g205
ENCODING 8249
SWIDTH 500 0
DWIDTH 6 0
BBX 4 7 1 0
BITMAP
10
20
40
80
40
20
10
ENDCHAR
STARTCHAR g206
ENCODING 8250
SWIDTH 500 0
DWIDTH 6 0
BBX 4 7 1 0
BITMAP
80
40
20
10
20
40
80
ENDCHAR
STARTCHAR g207
ENCODING 8260
SWIDTH 250 0
DWIDTH 3 0
BBX 5 10 -1 0
BITMAP
08
08
10
10
20
20
40
40
80
80
ENDCHAR
STARTCHAR g208
ENCODING 8482
SWIDTH 917 0
DWIDTH 11 0
BBX 9 4 1 5
BITMAP
E880
4D80
4A80
4880
ENDCHAR
STARTCHAR g209
ENCODING 8486
SWIDTH 833 0
DWIDTH 10 0
BBX 8 9 1 0
BITMAP
3C
42
81
81
81
42
42
24
66
ENDCHAR
STARTCHAR g210
ENCODING 8706
SWIDTH 583 0
DWIDTH 7 0
BBX 5 9 1 0
BITMAP
60
10
08
38
48
88
88
90
60
ENDCHAR
STARTCHAR g211
ENCODING 8710
SWIDTH 750 0
DWIDTH 9 0
BBX 7 8 1 0
BITMAP
10
10
28
28
44
44
82
FE
ENDCHAR
STARTCHAR g212
ENCODING 8719
SWIDTH 750 0
DWIDTH 9 0
BBX 7 9 1 0
BITMAP
FE
44
44
44
44
44
44
44
44
ENDCHAR
STARTCHAR g213
ENCODING 8721
SWIDTH 667 0
DWIDTH 8 0
BBX 6 9 1 0
BITMAP
FC
44
20
10
08
10
20
44
FC
ENDCHAR
STARTCHAR g214
ENCODING 8730
SWIDTH 833 0
DWIDTH 10 0
BBX 8 10 1 0
BITMAP
03
02
04
04
08
08
90
50
20
20
ENDCHAR
STARTCHAR g215
ENCODING 8734
SWIDTH 917 0
DWIDTH 11 0
BBX 9 5 1 1
BITMAP
6300
9480
8880
9480
6300
ENDCHAR
STARTCHAR g216
ENCODING 8747
SWIDTH 417 0
DWIDTH 5 0
BBX 3 12 1 -3
BITMAP
20
40
40
40
40
40
40
40
40
40
40
80
ENDCHAR
STARTCHAR g217
ENCODING 8776
SWIDTH 667 0
DWIDTH 8 0
BBX 6 5 1 1
BITMAP
64
98
00
64
98
ENDCHAR
STARTCHAR g218
ENCODING 8800
SWIDTH 667 0
DWIDTH 8 0
BBX 6 6 1 0
BITMAP
08
FC
10
20
FC
40
ENDCHAR
STARTCHAR g219
ENCODING 8804
SWIDTH 500 0
DWIDTH 6 0
BBX 4 7 1 0
BITMAP
20
40
80
40
20
00
F0
ENDCHAR
STARTCHAR g220
ENCODING 8805
SWIDTH 500 0
DWIDTH 6 0
BBX 4 7 1 0
BITMAP
40
20
10
20
40
00
F0
ENDCHAR
STARTCHAR g221
ENCODING 9674
SWIDTH 750 0
DWIDTH 9 0
BBX 7 8 1 0
BITMAP
10
28
44
82
82
44
28
10
ENDCHAR
STARTCHAR g222
ENCODING 63252
SWIDTH 667 0
DWIDTH 8 0
BBX 6 9 1 0
BITMAP
30
48
84
84
B4
84
84
48
30
ENDCHAR
STARTCHAR g223
ENCODING 63253
SWIDTH 417 0
DWIDTH 5 0
BBX 3 9 1 0
BITMAP
E0
40
40
40
40
40
40
40
E0
ENDCHAR
STARTCHAR g224
ENCODING 63254
SWIDTH 417 0
DWIDTH 5 0
BBX 2 9 1 0
BITMAP
C0
40
40
40
40
40
40
40
40
ENDCHAR
STARTCHAR g225
ENCODING 63487
SWIDTH 0 0
DWIDTH 0 0
BBX 0 0 0 0
BITMAP
ENDCHAR
STARTCHAR g226
ENCODING 64257
SWIDTH 583 0
DWIDTH 7 0
BBX 5 9 1 0
BITMAP
30
40
F8
48
48
48
48
48
48
ENDCHAR
STARTCHAR g227
ENCODING 64258
SWIDTH 667 0
DWIDTH 8 0
BBX 6 9 1 0
BITMAP
3C
44
E4
44
44
44
44
44
44
ENDCHAR
STARTCHAR g228
ENCODING 64512
SWIDTH 833 0
DWIDTH 10 0
BBX 8 9 1 0
BITMAP
FF
81
81
81
81
81
81
81
FF
ENDCHAR
STARTCHAR g229
ENCODING 64513
SWIDTH 833 0
DWIDTH 10 0
BBX 8 9 1 0
BITMAP
FF
81
81
81
81
81
81
81
FF
ENDCHAR
STARTCHAR g230
ENCODING 64514
SWIDTH 833 0
DWIDTH 10 0
BBX 8 9 1 0
BITMAP
FF
81
81
81
81
81
81
81
FF
ENDCHAR
STARTCHAR g231
ENCODING 64515
SWIDTH 833 0
DWIDTH 10 0
BBX 8 9 1 0
BITMAP
FF
81
81
81
81
81
81
81
FF
ENDCHAR
STARTCHAR g232
ENCODING 64516
SWIDTH 833 0
DWIDTH 10 0
BBX 8 9 1 0
BITMAP
FF
81
81
81
81
81
81
81
FF
ENDCHAR
STARTCHAR g233
ENCODING 64517
SWIDTH 833 0
DWIDTH 10 0
BBX 8 9 1 0
BITMAP
FF
81
81
81
81
81
81
81
FF
ENDCHAR
STARTCHAR g234
ENCODING 64518
SWIDTH 833 0
DWIDTH 10 0
BBX 8 9 1 0
BITMAP
FF
81
81
81
81
81
81
81
FF
ENDCHAR
STARTCHAR g235
ENCODING 64519
SWIDTH 833 0
DWIDTH 10 0
BBX 8 9 1 0
BITMAP
FF
81
81
81
81
81
81
81
FF
ENDCHAR
STARTCHAR g236
ENCODING 64520
SWIDTH 833 0
DWIDTH 10 0
BBX 8 9 1 0
BITMAP
FF
81
81
81
81
81
81
81
FF
ENDCHAR
STARTCHAR g237
ENCODING 64521
SWIDTH 833 0
DWIDTH 10 0
BBX 8 9 1 0
BITMAP
FF
81
81
81
81
81
81
81
FF
ENDCHAR
STARTCHAR g238
ENCODING 64522
SWIDTH 833 0
DWIDTH 10 0
BBX 8 9 1 0
BITMAP
FF
81
81
81
81
81
81
81
FF
ENDCHAR
STARTCHAR g239
ENCODING 64523
SWIDTH 833 0
DWIDTH 10 0
BBX 8 9 1 0
BITMAP
FF
81
81
81
81
81
81
81
FF
ENDCHAR
STARTCHAR g240
ENCODING 64524
SWIDTH 833 0
DWIDTH 10 0
BBX 8 9 1 0
BITMAP
FF
81
81
81
81
81
81
81
FF
ENDCHAR
STARTCHAR g241
ENCODING 64525
SWIDTH 833 0
DWIDTH 10 0
BBX 8 9 1 0
BITMAP
FF
81
81
81
81
81
81
81
FF
ENDCHAR
STARTCHAR g242
ENCODING 64526
SWIDTH 833 0
DWIDTH 10 0
BBX 8 9 1 0
BITMAP
FF
81
81
81
81
81
81
81
FF
ENDCHAR
STARTCHAR g243
ENCODING 64527
SWIDTH 833 0
DWIDTH 10 0
BBX 8 9 1 0
BITMAP
FF
81
81
81
81
81
81
81
FF
ENDCHAR
ENDFONT
